<?xml version="1.0" encoding="utf-8"?>
<!-- Generator: Adobe Illustrator 16.0.1, SVG Export Plug-In . SVG Version: 6.00 Build 0)  -->
<!DOCTYPE svg PUBLIC "-//W3C//DTD SVG 1.1//EN" "http://www.w3.org/Graphics/SVG/1.1/DTD/svg11.dtd">
<svg version="1.1"
	 id="Layer_1" xmlns:dc="http://purl.org/dc/elements/1.1/" xmlns:cc="http://creativecommons.org/ns#" xmlns:rdf="http://www.w3.org/1999/02/22-rdf-syntax-ns#" xmlns:svg="http://www.w3.org/2000/svg"
	 xmlns="http://www.w3.org/2000/svg" xmlns:xlink="http://www.w3.org/1999/xlink" x="0px" y="0px" width="960.002px"
	 height="705.002px" viewBox="5883.751 -7024.934 960.002 705.002" enable-background="new 5883.751 -7024.934 960.002 705.002"
	 xml:space="preserve">
<path id="path781" fill="#CE2028" d="M5910.553-7002.393c-4.916,3.445,22.607,481.422,60.943,519.34
	c0,0,19.654,13.787,124.834,71.236c105.188,57.459,273.277,89.633,368.625,56.309c95.355-33.324,321.443-172.354,338.152-199.932
	c0,0-72.738-42.514-119.926-220.604c-2.953-4.602-46.195-205.676-46.195-205.676s-85.523,48.26-88.477,50.561
	c-2.947,2.295-180.869,81.578-183.814,81.578c-2.949,0-130.738,9.189-130.738,9.189l-127.789-41.363l-161.211-101.115
	L5910.553-7002.393L5910.553-7002.393z"/>
<path id="path783" fill="none" d="M5910.553-7002.393c-4.916,3.445,22.607,481.422,60.943,519.34c0,0,19.654,13.787,124.834,71.236
	c105.188,57.459,273.277,89.633,368.625,56.309c95.355-33.324,321.443-172.354,338.152-199.932c0,0-72.738-42.514-119.926-220.604
	c-2.953-4.602-46.195-205.676-46.195-205.676s-85.523,48.26-88.477,50.561c-2.947,2.295-180.869,81.578-183.814,81.578
	c-2.949,0-130.738,9.189-130.738,9.189l-127.789-41.363l-161.211-101.115L5910.553-7002.393L5910.553-7002.393z"/>
<path id="path785" d="M6641.333-6956.713c-19.549,12.807-36.654,24.707-54.58,35.549c-15.477,9.354-31.77,17.678-47.918,26.143
	c-20.031,10.488-40.494,20.342-60.389,31.029c-24.486,13.17-49.824,25.24-76.855,33.211c-17.896,5.281-36.635,9.9-56.168,10.695
	c-20.641,0.842-41.221,3.027-61.801,4.811c-24.137,2.086-47.375-1.328-70.096-8.248c-24.861-7.561-49.777-15.006-74.49-22.928
	c-7.01-2.242-13.643-5.639-20.055-9.068c-13.438-7.174-26.664-14.666-39.896-22.148c-12.277-6.943-24.838-13.57-36.561-21.178
	c-13.809-8.975-26.855-18.857-40.244-28.326c-6.729-4.773-13.588-9.406-20.209-14.295c-11.721-8.648-23.242-17.516-34.979-26.15
	c-5.693-4.201-11.701-8.078-19.301-13.297c-0.938,5.336-2.188,9.057-2.141,12.756c0.172,13.555,0.561,27.109,1.27,40.639
	c1.459,28.396,2.781,56.801,4.93,85.152c1.225,16.141,3.812,32.205,6.061,48.275c2.068,14.744,4.348,29.479,6.816,44.174
	c1.369,8.158,3.393,16.229,5.021,24.359c5.104,25.379,10.354,50.732,15.172,76.156c4.881,25.732,8.984,51.588,14.146,77.283
	c1.732,8.641,5.055,17.158,8.779,25.33c3.447,7.561,2.629,14.574-2.123,20.789c-2.371,3.105-7.639,4.502-13.373,7.662
	c0.127,2.055-0.463,6.117,0.779,9.693c2.465,7.072,1.586,13.404-4.814,18.031c-7.469,5.398-16.084,3.291-23.482-0.201
	c-6.957-3.266-12.193-7.822-11.754-16.303c1.164-22.018-4.812-43.371-9.584-64.787c-9.41-42.236-16.533-84.766-21.871-127.551
	c-5.262-42.15-7.797-84.404-9.023-126.764c-1.311-45.195-3.146-90.379-5.008-135.568c-0.41-9.906-0.793-20.002-3.238-29.602
	c-2.299-9.041,2.277-14.402,8.695-19.816c1.859-1.574,4.791-3.043,5.221-4.91c1.367-6.041,6.473-9.021,11.943-8.805
	c5.121,0.207,10.961,2.695,14.908,5.738c7.596,5.885,13.965,12.951,21.035,19.367c23.053,20.93,48.49,39.541,73.561,58.555
	c33.908,25.711,72.197,45.504,110.75,64.936c11.215,5.654,24.295,8.494,36.584,12.48c9.5,3.088,19.238,5.66,28.615,9.004
	c22.801,8.125,46.039,11.662,70.801,8.951c26.562-2.91,53.414-3.754,79.967-6.664c19.115-2.094,37.723-6.982,55.064-14.582
	c21.229-9.291,42.268-18.93,63.145-28.814c12.592-5.961,24.791-12.588,37.039-19.09c21.922-11.639,44.406-22.582,65.438-35.355
	c21.039-12.781,40.648-27.369,60.693-41.387c2.498-1.738,3.781-4.805,5.67-7.236c3.904-5.021,7.393-6.465,13.426-3.646
	c16.531,7.748,26.705,15.307,26.402,32.111c-0.332,18.088,2.867,36.229,4.592,54.332c2.135,22.391,4.129,44.793,6.586,67.158
	c1.229,11.166,3.039,22.318,5.154,33.393c2.346,12.32,4.359,24.799,8.277,36.762c6.014,18.342,12.467,36.699,20.666,54.361
	c10.078,21.703,21.838,42.824,33.486,63.939c5.365,9.738,11.607,19.207,18.572,28.125c3.688,4.719,9.621,8.164,14.84,11.855
	c3.486,2.473,7.617,4.24,11.244,6.58c6.355,4.086,11.729,9.029,9.533,16.611c-2.133,7.377-8.924,11.354-16.67,13.469
	c-9.5,2.596-18.248,0.611-24.082-6.719c-12.486-15.678-26.016-30.943-36.365-47.68c-15.07-24.35-28.631-49.52-41.184-74.967
	c-15.264-30.953-27.434-62.848-31.676-96.721c-1.637-13.105-5.41-26.012-6.896-39.117c-1.48-13.09-0.922-26.336-1.98-39.471
	c-1.092-13.461-3.172-26.861-4.578-40.307c-0.438-4.193,0.053-8.447-0.166-12.666c-0.229-4.547-0.777-9.072-1.334-15.096v0.001
	H6641.333z"/>
<path id="path787" d="M6839.575-6537.754c-15.033-1.072-25.055,7.367-35.244,14.18c-21.531,14.387-41.994,29.973-63.131,44.824
	c-21.137,14.859-42.279,29.74-63.936,44.012c-23.785,15.686-47.664,31.348-72.436,45.797
	c-26.932,15.709-53.773,31.711-83.615,43.193c-29.963,11.539-61.432,18.057-93.688,21.918c-14.549,1.738-29.271,4.264-43.807,3.854
	c-28.875-0.818-58.092,0.633-86.35-7.012c-7.842-2.123-16.246-2.602-24.293-4.232c-5.797-1.182-11.459-2.949-17.125-4.588
	c-13.225-3.807-26.496-7.506-39.584-11.637c-6.271-1.979-12.133-4.92-18.248-7.285c-17.174-6.633-34.643-12.719-51.496-19.908
	c-22.881-9.754-45.34-20.256-66.357-32.961c-12.357-7.469-25.098-14.449-37.439-21.941c-9.258-5.613-17.873-12.078-27.295-17.461
	c-8.066-4.611-16.936-8.125-25.346-12.295c-4.529-2.256-10.955-3.992-12.816-7.484c-3.396-6.363-5.654-13.9-5.424-20.875
	c0.299-9.166,16.326-13.205,25.072-6.865c3.74,2.711,7.104,5.832,10.459,8.912c12.023,11.051,26.119,19.787,40.48,28.273
	c7.439,4.387,14.439,9.354,21.691,13.994c17.633,11.275,35.5,22.018,55.242,30.613c11.707,5.098,23.732,9.754,35.125,15.152
	c17.271,8.189,35.055,15.238,53.113,21.57c15.592,5.477,32.264,8.611,48.516,12.596c7.969,1.955,16.076,3.445,24.104,5.197
	c32.191,7.014,64.852,6.75,97.682,5.414c23.883-0.965,47.121-4.973,70.191-9.814c25.459-5.338,49.527-14.311,72.164-25.586
	c38.029-18.938,74.244-40.383,109.07-63.645c27.268-18.203,55.264-35.58,82.338-53.992c16.688-11.352,32.211-24.002,48.338-35.979
	c7.758-5.754,15.766-11.26,23.535-16.998c3.719-2.75,7.34-5.639,10.689-8.719c8.408-7.746,14.895-8.025,24.145-1.021
	c2.834,2.146,6.037,3.932,9.184,5.738C6844.833-6556.049,6846.696-6549.702,6839.575-6537.754z"/>
<g id="g12" transform="matrix(2.6398763,0,0,2.6358507,0.2337429,0.10212981)">
	<path id="_148172456" fill="#010101" d="M2392.837-2537.427c-1.742-0.232-1.806-0.755-0.971-1.987
		c0.355-0.522,0.043-0.814-1.152-0.426c-0.885,0.288-1.936-0.913-2.404-1.468c-0.432-0.512-0.392-0.607,0.103-0.624
		c0.497-0.017,1.411-0.479,1.647-0.795c0.238-0.318,0.164-0.688-0.513-0.542c-0.677,0.147-2.731-0.81-3.53-1.806
		c-0.388-0.482-0.457-0.729,0.155-0.934c0.613-0.207,1.222-0.599,1.643-0.923c0.423-0.324,0.164-0.687-0.646-0.784
		c-0.808-0.097-2.594-0.98-3.408-1.934c-0.258-0.301-0.519-0.665,0.218-0.875c0.738-0.209,2.493-1.505,2.965-2.204
		c0.473-0.698,0.511-1.442-0.894-0.777c-1.403,0.667-4.245,0.946-5.929,0.627c-3.583-1.556-8.793-3.555-10.671-0.33
		c-3.351-0.077-7.38-0.131-6.502,3.993c0.664-0.083,1.017-0.478,1.209-0.906c0.276-0.615,1.265-0.751,2.218-0.445
		c0.83,0.267,1.511,0.68,0.929,1.426c-0.298,0.38-1.5,0.606-2.249,0.444c-0.749-0.16-2.136-0.333-2.942-0.398
		c-0.543-0.043-1.634-0.691-2.16-1.634c-0.525-0.943-1.833-2.046-2.615-1.338c-0.783,0.708,0.214,1.82,1.042,2.505
		c0.829,0.687,2.499,1.53,3.365,1.501c1.147-0.038,2.27,0.203,2.863,0.309c0.348,2.177,3.26,3.073,5.675,2.932
		c2.412-0.141,5.639,0.927,8.658,3.259c3.912,3.021,6.945,13.334,0.505,13.546c-4.023,0.132-3.536-3.913-3.488-6.208
		c0.049-2.294-1.27-4.73-4.026-5.631c-2.756-0.901-8.392-2.637-9.968-3.455c-0.633-0.412-1.239,1.142-1.297,2.026
		c-0.044,0.623-0.738,0.699-2.722,0.151c-5.63-1.551-10.804-4.355-13.367-8.858c-2.565-4.502-6.971,0.15-4.583,3.932
		c2.877,4.555,12.101,8.032,17.883,8.587c2.688,0.256,2.769,3.457,0.252,3.895c-5.238,0.917-10.391,0.983-13.736-3.083
		c-2.582-3.14-4.925-0.165-3.767,2.355c2.469,5.373,10.317,7.416,17.778,3.507c1.768-0.926,3.698-0.845,2.214,1.353
		c-3.725,5.515-8.89,6.518-15.529,2.741c-1.958-1.113-3.438-0.879-3.847-0.121c-0.719,1.33-1.024,2.521,1.248,4.048
		c5.007,3.368,10.664,2.935,15.136,0.433c1.766-0.988,5.022-1.838,2.239,2.096c-2.785,3.935-10.15,6.159-13.254,4.092
		c-3.105-2.067-6.818,0.037-4.292,3.302c2.523,3.264,7.511,2.233,9.761,0.92c2.25-1.314,5.724-3.102,7.188-3.832
		c1.463-0.729,2.195,0.411,0.574,2.397c-3.635,4.459-7.408,8.227-12.736,6.678c-3.066-0.892-5.856-0.923-4.929,2.766
		c0.926,3.688,7.186,3.731,10.221,1.771c3.036-1.959,5.752-4.155,7.552-6.012c1.799-1.857,3.678-1.851,1.714,1.246
		c-4.42,6.961-8.222,12.079-14.886,11.025c-6.168-0.977-4.523,2.653-3.161,3.76c3.884,3.156,10.479,2.073,18.087-7.908
		c0.594-0.779,1.642-0.594,1.143,0.831c-3.23,9.216-8.919,15.291-14.662,14.055c-2.988-0.644-5.823,1.1-2.732,3.623
		c3.502,2.86,9.657,1.542,13.953-3.557s6.904-8.718,7.833-10.608c0.93-1.889,2.414-2,2.307,0.419
		c-0.106,2.42-1.748,7.186-4.856,8.837c-1.608,0.855-3.01,2.703,0.13,3.962c3.141,1.259,6.614-4.371,9.322-12.516
		c0.319-0.958,2.358-1.259,2.374,0.542c0.021,2.542-1.149,4.687-2.47,5.969c-1.322,1.284-0.188,3.321,1.628,2.426
		c2.562-1.262,4.148-3.043,5.082-5.684c0.51-1.442,1.752-1.973,1.125,0.273c-1.886,6.753-6.486,10.129-12.576,13.427
		c0.96,0.898,1.828,1.893,2.691,2.703c-3.744,2.075-7.695,3.505-10.81,4.91c-2.561-1.589-4.822-2.445-5.987-3.988
		c-0.441-2.123-3.072-2.965-4.714-1.983c-2.915-1.02-4.95-0.673-5.047,2.025c1.663-0.333,3.047-0.658,4.291,0.417
		c0.599,1.282,2.385,1.875,4.039,1.262c1.895,1.054,3.509,2.116,4.647,2.821c-3.531,0.024-6.138-0.077-8.001-0.201
		c-1.822-1.707-3.493-1.651-4.754-0.401c-2.151-0.395-3.791,0.65-4.287,2.526c1.604-0.238,3.072-0.845,4.143-0.321
		c0.919,1.581,3.334,1.562,4.845,0.336c2.35-0.141,6.93-0.353,7.981-0.387c-1.517,0.979-3.337,2.155-4.248,2.743
		c-3.677-0.624-5.613,0.865-5.277,3.52c-0.822,1.392-0.698,3.307,0.384,4.139c0.209-1.123,0.783-2.566,1.624-3.399
		c2.243,0.36,3.829-0.435,4.429-2.935c1.393-0.977,3.212-2.213,3.939-2.733c0.727-0.519,1.302-1.108,3.025-0.409
		c1.696,0.689,3.263,1.257,4.272,1.782c0.628,2.148,2.737,2.204,4.067,1.167c0.883,0.466,1.654,1.31,2.179,2.222
		c0.759-1.451,0.263-3.355-1.302-3.8c-0.611-1.654-2.611-2.146-4.009-1.295c-1.193-0.456-2.891-1.207-3.644-1.491
		c2.386-0.946,8.439-3.438,10.577-4.438c2.094,1.48,4.433,2.891,6.091,2.403c0.198-1.496,0.923-2.743,1.885-4.896
		c1.53-3.429,3.471-6.652,5.078-8.659c1.609-2.006,3.34-0.944,3.312,1.751c-0.065,6.51-4.545,16.388-11.592,16.99
		c-2.409,0.208-3.352,0.732-1.964,2.483c1.292,1.63,5.139,1.722,7.222,0.072c2.086-1.648,2.831-1.581,2.467,0.54
		c-0.365,2.12-2.757,3-4.544,3.186c-2.594,0.271-5.535,1.298-3.048,3.447c2.488,2.149,6.41,0.78,9.21-2.656
		c0.971-1.194,1.757-1.549,1.745,0.313c-0.018,3.224-1.87,5.332-3.837,5.829c-1.967,0.498-3.93,1.085-3.337,2.216
		c0.992,1.889,4.098,2.096,5.8,1.112c1.705-0.986,3.504-2.782,3.842-3.845c0.337-1.066,1.116-0.491,0.96,0.959
		c-0.332,3.11-2.501,3.118-2.418,5.657c0.083,2.539,2.271,4.946,4.836,7.652c2.388-2.868,4.411-5.414,4.328-7.952
		c-0.084-2.539-2.248-2.405-2.781-5.486c-0.25-1.438,0.49-2.062,0.896-1.021c0.405,1.041,2.319,2.713,4.084,3.584
		c1.761,0.873,4.849,0.459,5.716-1.489c0.517-1.167-1.48-1.625-3.474-1.992c-1.996-0.369-3.983-2.35-4.212-5.566
		c-0.133-1.857,0.673-1.554,1.722-0.427c3.018,3.247,7.022,4.354,9.364,2.048c2.343-2.308-0.661-3.139-3.266-3.24
		c-1.797-0.069-4.242-0.791-4.746-2.881c-0.501-2.092,0.238-2.208,2.425-0.699c2.188,1.508,6.021,1.166,7.203-0.546
		c1.271-1.838,0.295-2.299-2.124-2.349c-7.071-0.14-12.188-9.702-12.677-16.193c-0.203-2.688,1.454-3.86,3.191-1.965
		c1.733,1.896,3.881,4.986,5.633,8.307c1.099,2.085,1.904,3.284,2.2,4.762c1.686,0.378,3.927-1.184,5.92-2.798
		c2.199,0.857,8.402,2.948,10.845,3.735c-0.732,0.333-2.379,1.192-3.538,1.726c-1.45-0.756-3.414-0.135-3.918,1.556
		c-1.531,0.545-1.901,2.479-1.05,3.876c0.466-0.944,1.178-1.835,2.03-2.359c1.395,0.947,3.496,0.751,3.982-1.434
		c0.97-0.588,2.499-1.26,4.147-2.059c1.674-0.811,2.284-0.26,3.044,0.21c0.759,0.471,2.655,1.585,4.111,2.467
		c0.76,2.456,2.395,3.144,4.608,2.638c0.895,0.776,1.56,2.179,1.843,3.286c1.025-0.901,1.025-2.822,0.113-4.155
		c0.16-2.671-1.868-4.031-5.496-3.167c-0.948-0.526-2.84-1.58-4.42-2.458c1.052-0.034,5.638-0.124,7.991-0.137
		c1.587,1.125,4,0.984,4.813-0.654c1.034-0.593,2.539-0.083,4.154,0.049c-0.617-1.838-2.321-2.775-4.442-2.241
		c-1.34-1.164-3.012-1.109-4.719,0.713c-1.851,0.246-4.445,0.518-7.969,0.726c1.089-0.778,2.631-1.946,4.453-3.121
		c1.69,0.501,3.433-0.207,3.946-1.524c1.171-1.155,2.574-0.922,4.255-0.698c-0.274-2.688-2.327-2.898-5.168-1.689
		c-1.702-0.873-4.271,0.14-4.575,2.288c-1.062,1.616-3.26,2.617-5.712,4.372c-3.202-1.197-7.237-2.366-11.108-4.19
		c0.807-0.864,1.611-1.913,2.508-2.872c-6.291-2.892-11.102-5.958-13.426-12.575c-0.773-2.202,0.5-1.752,1.104-0.348
		c1.106,2.574,2.804,4.248,5.443,5.338c1.873,0.774,2.871-1.334,1.467-2.527c-1.403-1.194-2.71-3.257-2.855-5.794
		c-0.103-1.797,1.953-1.63,2.332-0.696c3.236,7.951,7.069,13.341,10.121,11.878c3.051-1.464,1.531-3.215-0.13-3.962
		c-3.208-1.445-5.157-6.091-5.422-8.5c-0.264-2.41,1.225-2.395,2.275-0.571c1.052,1.826,3.89,5.266,8.51,10.072
		c4.62,4.807,10.848,5.718,14.156,2.634c2.919-2.72-0.025-4.274-2.963-3.436c-5.65,1.611-11.725-4.077-15.552-13.063
		c-0.591-1.387,0.444-1.642,1.085-0.903c8.244,9.459,14.897,10.109,18.565,6.705c1.287-1.193,2.692-4.923-3.4-3.545
		c-6.581,1.488-10.708-3.369-15.575-10.025c-2.163-2.96-0.287-3.09,1.63-1.355c1.915,1.734,4.771,3.748,7.926,5.504
		c3.156,1.756,9.4,1.303,10.086-2.438c0.681-3.742-2.101-3.526-5.102-2.437c-5.215,1.895-9.225-1.618-13.144-5.829
		c-1.749-1.877-1.093-3.062,0.416-2.43c1.509,0.631,5.093,2.187,7.422,3.351c2.332,1.164,7.376,1.865,9.68-1.559
		c2.305-3.422-1.536-5.28-4.498-3.013c-2.962,2.267-10.459,0.53-13.493-3.213c-3.035-3.745,0.27-3.108,2.096-2.238
		c4.627,2.204,10.301,2.264,15.077-1.425c2.167-1.674,1.784-2.841,0.979-4.124c-0.458-0.728-1.949-0.866-3.831,0.375
		c-6.378,4.204-11.599,3.541-15.674-1.718c-1.626-2.094,0.295-2.303,2.12-1.495c7.701,3.412,15.399,0.858,17.512-4.665
		c0.991-2.591-1.541-5.404-3.911-2.104c-3.073,4.276-8.221,4.548-13.508,3.978c-2.538-0.274-2.667-3.473,0-3.905
		c5.733-0.932,14.711-5.008,17.284-9.74c2.136-3.929-2.563-8.283-4.829-3.624c-2.264,4.663-7.244,7.799-12.76,9.716
		c-1.947,0.676-2.643,0.646-2.726,0.028c-0.118-0.88-0.823-2.391-1.428-1.938c-1.52,0.918-7.028,3.021-9.719,4.101
		c-2.692,1.079-3.848,3.597-3.65,5.883c0.198,2.288,0.95,6.292-3.075,6.423c-6.439,0.211-4.087-10.277-0.381-13.549
		c2.861-2.526,6.011-3.804,8.428-3.82c2.416-0.018,5.263-1.104,5.471-3.298c0.583-0.144,1.688-0.458,2.834-0.496
		c0.865-0.028,2.477-0.98,3.26-1.719c0.781-0.739,1.702-1.915,0.875-2.569c-0.829-0.655-2.061,0.531-2.523,1.508
		c-0.464,0.975-1.509,1.692-2.049,1.772c-0.799,0.117-2.173,0.381-2.91,0.59s-1.951,0.063-2.272-0.296
		c-0.627-0.708,0.024-1.164,0.835-1.484c0.929-0.368,1.927-0.297,2.242,0.298c0.22,0.417,0.6,0.786,1.266,0.826
		c0.607-4.173-3.41-3.855-6.748-3.559c-2.085-3.094-7.153-0.759-10.626,1.029c-1.659,0.428-4.514,0.335-5.958-0.238
		c-1.443-0.573-1.357,0.169-0.84,0.835c0.518,0.664,2.354,1.842,3.103,2.003c0.749,0.162,0.513,0.542,0.276,0.86
		c-0.751,1.003-2.477,2.003-3.277,2.152c-0.8,0.151-1.036,0.529-0.593,0.824c0.443,0.296,1.073,0.646,1.699,0.812
		c0.627,0.165,0.573,0.416,0.218,0.923c-0.734,1.045-2.721,2.135-3.406,2.032c-0.685-0.102-0.734,0.272-0.477,0.574
		c0.258,0.301,1.199,0.703,1.696,0.688c0.495-0.017,0.541,0.077,0.143,0.615c-0.43,0.584-1.398,1.851-2.3,1.622
		c-1.219-0.309-1.511,0-1.125,0.501c0.915,1.174,0.885,1.701-0.84,2.046l0,0L2392.837-2537.427z"/>
	<path id="_148171544" fill="#CE2028" d="M2375.977-2550.758c-1.035-0.476-2.189-0.608-3.045-0.21
		c-0.854,0.399-1.01,1.273-0.011,1.551c1.001,0.276,2.302,0.233,2.976,0.024C2376.573-2549.601,2376.857-2550.353,2375.977-2550.758
		L2375.977-2550.758L2375.977-2550.758z"/>
	<path id="_148172312" fill="#CE2028" d="M2408.79-2551.835c1.002-0.542,2.146-0.751,3.024-0.409
		c0.878,0.341,1.093,1.204,0.112,1.545c-0.981,0.343-2.28,0.386-2.967,0.222C2408.274-2550.642,2407.939-2551.372,2408.79-2551.835
		L2408.79-2551.835z"/>
</g>
</svg>
