<?xml version="1.0" encoding="utf-8"?>
<!-- Generator: Adobe Illustrator 16.0.1, SVG Export Plug-In . SVG Version: 6.00 Build 0)  -->
<!DOCTYPE svg PUBLIC "-//W3C//DTD SVG 1.1//EN" "http://www.w3.org/Graphics/SVG/1.1/DTD/svg11.dtd">
<svg version="1.1" id="Layer_1" xmlns="http://www.w3.org/2000/svg" xmlns:xlink="http://www.w3.org/1999/xlink" x="0px" y="0px"
	 width="960px" height="705px" viewBox="0 0 960 705" enable-background="new 0 0 960 705" xml:space="preserve">
<path display="none" fill-rule="evenodd" clip-rule="evenodd" d="M-1531.261,9926.119c-19.55,12.807-36.655,24.707-54.579,35.549
	c-15.477,9.354-31.77,17.678-47.918,26.143c-20.032,10.488-40.495,20.342-60.389,31.029c-24.486,13.17-49.824,25.24-76.854,33.211
	c-17.899,5.281-36.635,9.9-56.168,10.695c-20.64,0.842-41.221,3.027-61.802,4.811c-24.136,2.086-47.374-1.328-70.095-8.248
	c-24.861-7.561-49.778-15.006-74.49-22.928c-7.009-2.242-13.642-5.639-20.053-9.068c-13.438-7.174-26.665-14.666-39.898-22.148
	c-12.277-6.943-24.837-13.57-36.559-21.178c-13.809-8.975-26.857-18.857-40.244-28.326c-6.73-4.773-13.589-9.406-20.209-14.295
	c-11.721-8.648-23.243-17.516-34.979-26.15c-5.695-4.201-11.701-8.078-19.301-13.297c-0.938,5.336-2.187,9.057-2.14,12.756
	c0.172,13.555,0.56,27.109,1.269,40.639c1.459,28.396,2.781,56.801,4.928,85.152c1.223,16.141,3.813,32.205,6.06,48.275
	c2.069,14.744,4.347,29.479,6.818,44.174c1.368,8.158,3.39,16.229,5.021,24.359c5.104,25.379,10.354,50.732,15.172,76.156
	c4.881,25.732,8.985,51.588,14.146,77.283c1.734,8.641,5.053,17.158,8.781,25.33c3.447,7.561,2.629,14.574-2.123,20.789
	c-2.371,3.105-7.638,4.502-13.373,7.662c0.127,2.055-0.463,6.117,0.779,9.693c2.465,7.072,1.586,13.404-4.814,18.031
	c-7.469,5.398-16.084,3.291-23.484-0.201c-6.957-3.266-12.195-7.822-11.753-16.303c1.163-22.018-4.815-43.371-9.585-64.787
	c-9.41-42.236-16.533-84.766-21.871-127.551c-5.261-42.15-7.797-84.404-9.025-126.764c-1.309-45.195-3.146-90.379-5.008-135.568
	c-0.41-9.906-0.793-20.002-3.237-29.602c-2.3-9.041,2.277-14.402,8.694-19.816c1.862-1.574,4.791-3.043,5.221-4.91
	c1.367-6.041,6.473-9.021,11.944-8.805c5.12,0.207,10.961,2.695,14.907,5.738c7.597,5.885,13.965,12.951,21.035,19.367
	c23.053,20.93,48.49,39.541,73.562,58.555c33.908,25.711,72.196,45.504,110.75,64.936c11.214,5.654,24.295,8.494,36.584,12.48
	c9.5,3.088,19.238,5.66,28.615,9.004c22.801,8.125,46.039,11.662,70.801,8.951c26.562-2.91,53.414-3.754,79.967-6.664
	c19.115-2.094,37.721-6.982,55.064-14.582c21.229-9.291,42.268-18.93,63.145-28.814c12.592-5.961,24.791-12.588,37.038-19.09
	c21.923-11.639,44.407-22.582,65.437-35.355c21.039-12.781,40.65-27.369,60.693-41.387c2.498-1.738,3.781-4.805,5.67-7.236
	c3.904-5.021,7.394-6.465,13.426-3.646c16.531,7.748,26.706,15.307,26.402,32.111c-0.332,18.088,2.867,36.23,4.592,54.332
	c2.135,22.391,4.129,44.793,6.587,67.158c1.229,11.166,3.039,22.318,5.155,33.393c2.345,12.32,4.359,24.799,8.277,36.762
	c6.014,18.342,12.468,36.699,20.666,54.361c10.078,21.703,21.838,42.824,33.486,63.938c5.365,9.74,11.607,19.207,18.572,28.127
	c3.688,4.719,9.621,8.162,14.84,11.855c3.488,2.471,7.617,4.238,11.245,6.58c6.356,4.086,11.728,9.027,9.533,16.611
	c-2.134,7.375-8.925,11.352-16.671,13.469c-9.499,2.594-18.248,0.609-24.081-6.719c-12.487-15.678-26.015-30.945-36.366-47.682
	c-15.07-24.35-28.63-49.52-41.181-74.965c-15.265-30.953-27.434-62.85-31.676-96.723c-1.638-13.105-5.411-26.01-6.898-39.117
	c-1.48-13.09-0.923-26.334-1.981-39.471c-1.091-13.461-3.172-26.859-4.578-40.305c-0.438-4.195,0.053-8.449-0.166-12.666
	C-1530.156,9936.668-1530.705,9932.143-1531.261,9926.119z"/>
<path display="none" fill-rule="evenodd" clip-rule="evenodd" d="M-1333.02,10345.078c-15.032-1.072-25.055,7.367-35.243,14.18
	c-21.532,14.387-41.995,29.973-63.131,44.824c-21.137,14.859-42.28,29.74-63.937,44.012c-23.785,15.686-47.664,31.348-72.434,45.797
	c-26.932,15.709-53.775,31.711-83.615,43.193c-29.963,11.539-61.432,18.057-93.688,21.918c-14.549,1.738-29.27,4.264-43.805,3.854
	c-28.875-0.818-58.092,0.633-86.35-7.012c-7.842-2.123-16.246-2.602-24.293-4.232c-5.797-1.182-11.459-2.949-17.125-4.588
	c-13.224-3.807-26.497-7.506-39.584-11.637c-6.271-1.979-12.133-4.92-18.248-7.285c-17.174-6.633-34.643-12.719-51.497-19.908
	c-22.881-9.754-45.339-20.256-66.356-32.961c-12.36-7.469-25.099-14.449-37.441-21.941c-9.258-5.613-17.873-12.078-27.295-17.461
	c-8.068-4.611-16.935-8.125-25.344-12.295c-4.532-2.256-10.955-3.992-12.818-7.484c-3.396-6.363-5.655-13.9-5.425-20.875
	c0.299-9.166,16.327-13.205,25.073-6.865c3.74,2.711,7.102,5.832,10.459,8.912c12.025,11.051,26.118,19.787,40.482,28.273
	c7.439,4.387,14.438,9.354,21.691,13.994c17.633,11.275,35.5,22.018,55.242,30.613c11.707,5.098,23.732,9.754,35.125,15.152
	c17.271,8.188,35.055,15.238,53.114,21.57c15.592,5.477,32.263,8.611,48.515,12.596c7.969,1.955,16.076,3.445,24.104,5.197
	c32.19,7.014,64.85,6.75,97.679,5.414c23.884-0.965,47.122-4.973,70.194-9.814c25.458-5.338,49.527-14.311,72.164-25.586
	c38.029-18.938,74.243-40.383,109.069-63.645c27.268-18.203,55.263-35.58,82.338-53.992c16.688-11.352,32.21-24.002,48.337-35.979
	c7.758-5.756,15.766-11.262,23.535-17c3.719-2.748,7.341-5.637,10.691-8.719c8.408-7.746,14.893-8.023,24.143-1.02
	c2.834,2.146,6.038,3.932,9.184,5.738C-1327.761,10326.783-1325.898,10333.131-1333.02,10345.078z"/>
<g>
	<path fill-rule="evenodd" clip-rule="evenodd" d="M35.648,96.403c-2.547-0.705-3.462-1.208-4.357-1.17
		C11.889,96.042,5.903,91.201,0.977,70.627c-3.073-12.83,1.074-21.124,12.868-23.25c29-5.234,58.077-9.911,87.138-14.711
		c22.404-3.702,44.789-7.724,67.264-10.738c24.303-3.249,48.674-5.893,73.062-8.079c42.51-3.812,85.002-8.57,127.597-10.205
		c61.534-2.361,123.155-2.379,184.731-3.202c25.124-0.334,50.271-0.773,75.378-0.059c43.558,1.243,87.103,3.547,130.661,4.9
		c7.388,0.227,15.002-1.297,22.201-3.394c8.072-2.357,15.234-1.62,23.468,0.523c14.603,3.8,29.827,4.959,44.847,6.045
		c6.91,0.494,13.35,0.109,17.345,7.808c5.261,10.141,11.735,20.04,8.489,32.847c-2.177,8.613-8.982,12.689-17.873,11.641
		c-7.936-0.94-15.859-1.818-24.586-2.811c-0.545,4.511-1.588,7.645-1.162,10.49c11.103,73.298,10.898,147.487,14.492,221.418
		c3.014,62.125,6.746,124.394,18.881,185.451c4.26,21.458,8.009,43.046,11.922,64.592c1.393,7.662,4.737,13.501,10.059,18.757
		c9.591,9.475,15.21,21.462,14.49,36.546c-1.289,27.073-0.621,34.969,29.967,30.771c4.379-0.599,9.768,0.049,13.406,2.534
		c8.121,5.543,16.121,32.31,14.046,43.302c-1.996,10.557-10.902,18.158-19.845,14.885c-10.162-3.715-21.408-1.402-31.049-9.377
		c-4.201-3.472-11.947-1.5-18.095-1.885c-14.124-0.89-28.258-1.843-42.397-2.516c-22.205-1.053-44.414-1.923-66.633-2.828
		c-46.867-1.904-93.729-5.103-140.611-5.325c-53.482-0.255-107.014,1.176-160.454,3.71c-40.161,1.904-80.236,6.509-120.319,10.296
		c-35.883,3.387-71.766,6.952-107.588,11.114c-24.491,2.835-48.846,7.122-73.328,10.159c-11.656,1.451-23.465,1.315-35.2,2.245
		c-8.42,0.666-16.806,2.648-25.216,2.716c-16.702,0.131-21.723-5.062-26.098-22.709c-9.742-39.303-18.451-78.835-22.578-119.477
		c-1.682-16.522-3.039-33.077-4.482-49.628c-0.232-2.664-0.018-5.376-0.17-8.056c-3.178-52.426-6.492-104.842-9.514-157.282
		c-2.684-46.557-4.406-93.193-7.711-139.694c-2.394-33.666-6.629-67.164-10.172-100.721
		C37.833,103.807,36.577,100.306,35.648,96.403z M850.867,621.708c-0.554-4.942-0.65-8.084-1.289-11.079
		c-6.738-31.282-14.883-62.274-20.083-93.881c-9.198-55.917-18.396-111.895-21.171-168.921
		c-2.648-54.086-6.098-108.118-9.264-162.167c-2.357-40.149-3.383-80.468-13.04-119.627c-3.657-14.836-5.38-16.985-19.352-17.786
		c-10.402-0.6-20.837-0.426-31.246-1.045c-31.186-1.859-62.353-5.078-93.565-5.668c-51.61-0.971-103.249-0.599-154.869-0.221
		c-36.455,0.264-72.91,1.184-109.348,2.359c-23.663,0.764-47.385,1.575-70.938,4.056c-31.1,3.271-62.115,7.739-93.071,12.512
		C173.777,66.381,134.012,73.22,94.236,80c-11.803,2.011-12.562,3.71-10.957,16.768c0.648,5.31,1.169,10.658,1.485,16.007
		c1.494,25.146,2.919,50.298,4.346,75.449c2.435,42.814,5.057,85.619,7.217,128.448c1.494,29.467,1.726,59.03,3.639,88.451
		c3.201,49.187,6.71,98.368,11.307,147.405c1.809,19.326,3.123,39.385,16.456,55.207c3.986,4.737,4.107,13.817,5.602,21.008
		c1.031,4.972,1.373,10.124,1.953,14.639c9.259,0.846,16.787,2.347,24.271,2.076c24.583-0.887,49.168-2.011,73.711-3.788
		c39.666-2.858,79.279-6.449,118.936-9.474c40.152-3.064,80.295-6.761,120.51-8.473c55.403-2.354,110.857-3.549,166.296-4.395
		c39.313-0.6,78.655-0.14,117.979,0.493c26.515,0.431,53.012,2.055,79.528,2.954C841.03,622.932,845.557,622.129,850.867,621.708z"
		/>
	<g>
		<defs>
			<path id="SVGID_1_" d="M850.867,621.708c-5.311,0.421-9.837,1.225-14.353,1.068c-26.517-0.898-53.014-2.522-79.528-2.954
				c-39.324-0.633-78.666-1.093-117.979-0.493c-55.438,0.846-110.893,2.041-166.296,4.395c-40.215,1.711-80.357,5.408-120.51,8.473
				c-39.656,3.025-79.27,6.615-118.936,9.474c-24.543,1.777-49.128,2.901-73.711,3.788c-7.484,0.271-15.013-1.23-24.271-2.076
				c-0.58-4.515-0.922-9.667-1.953-14.639c-1.494-7.191-1.615-16.271-5.602-21.008c-13.333-15.822-14.647-35.881-16.456-55.207
				c-4.597-49.037-8.105-98.218-11.307-147.405c-1.913-29.421-2.145-58.984-3.639-88.451c-2.16-42.83-4.782-85.634-7.217-128.448
				c-1.427-25.151-2.852-50.303-4.346-75.449c-0.316-5.349-0.837-10.698-1.485-16.007C81.674,83.71,82.434,82.011,94.236,80
				c39.775-6.78,79.541-13.619,119.396-19.76c30.956-4.773,61.972-9.241,93.071-12.512c23.553-2.48,47.274-3.292,70.938-4.056
				c36.438-1.176,72.893-2.095,109.348-2.359c51.62-0.377,103.259-0.75,154.869,0.221c31.213,0.59,62.38,3.809,93.565,5.668
				c10.409,0.62,20.844,0.446,31.246,1.045c13.972,0.801,15.694,2.949,19.352,17.786c9.657,39.159,10.683,79.478,13.04,119.627
				c3.166,54.049,6.615,108.081,9.264,162.167c2.775,57.026,11.973,113.004,21.171,168.921c5.2,31.607,13.345,62.599,20.083,93.881
				C850.217,613.624,850.313,616.765,850.867,621.708z"/>
		</defs>
		<clipPath id="SVGID_2_">
			<use xlink:href="#SVGID_1_"  overflow="visible"/>
		</clipPath>
		<g clip-path="url(#SVGID_2_)">
			<polygon fill="#ED2224" points="890.268,210.006 878.365,0.63 36.851,62.015 48.754,271.389 890.268,210.006 			"/>
			<polygon fill="#37499F" points="902.189,419.708 890.286,210.335 48.771,271.713 60.685,481.088 902.189,419.708 			"/>
			<polygon fill="#FCB116" points="914.153,630.079 902.205,420.033 60.7,481.413 72.64,691.462 914.153,630.079 			"/>
			<path fill="none" stroke="#000000" stroke-width="0.5" d="M914.383,629.735L878.611,0.618L36.851,62.015l35.771,629.118
				L914.383,629.735L914.383,629.735z M475.569,345.201"/>
		</g>
		<path clip-path="url(#SVGID_2_)" fill-rule="evenodd" clip-rule="evenodd" d="M873.079,230.824
			c-33.638,1.884-67.216,3.908-100.809,5.931c-34.61,2.09-69.237,4.168-103.806,6.383c-38.546,2.466-76.955,5.362-115.57,7.563
			c-68.846,3.921-137.809,7.442-206.715,11.181c-29.263,1.58-58.476,3.386-87.75,4.902c-26.317,1.369-52.723,2.351-79.014,3.75
			c-33.193,1.765-66.335,3.737-99.449,5.749c-4.373,0.262-8.574,1.176-12.74,1.909c-16.55,2.927-27.926-4.667-26.098-10.372
			c0.837-2.628,1.281-5.288,1.655-7.942c0.529-3.742,4.065-5.769,12.436-6.522c3.892-0.347,7.966-0.27,11.937-0.444
			c29.326-1.289,58.648-2.599,87.957-3.884c21.384-0.938,42.781-1.806,64.146-2.809c31.273-1.482,62.501-3.115,93.778-4.576
			c29.249-1.363,58.566-2.455,87.786-3.921c34.732-1.742,69.408-3.65,104.053-5.685c23.253-1.357,46.411-3.007,69.588-4.606
			c20.733-1.437,41.396-3.027,62.107-4.493c37.904-2.681,75.89-5.146,113.719-8.028c25.986-1.979,51.671-4.724,77.656-6.717
			c21.162-1.62,42.545-2.592,63.842-3.902"/>
		<path clip-path="url(#SVGID_2_)" fill-rule="evenodd" clip-rule="evenodd" d="M873.079,436.344
			c-33.638,1.881-67.216,3.903-100.809,5.929c-34.61,2.089-69.237,4.17-103.806,6.38c-38.546,2.464-76.955,5.368-115.57,7.562
			c-68.846,3.926-137.809,7.448-206.715,11.185c-29.263,1.583-58.476,3.385-87.75,4.899c-26.317,1.374-52.723,2.354-79.014,3.753
			c-33.193,1.765-66.335,3.74-99.449,5.745c-4.373,0.266-8.574,1.176-12.74,1.91c-16.55,2.931-27.926-4.66-26.098-10.369
			c0.837-2.625,1.281-5.284,1.655-7.938c0.529-3.745,4.065-5.776,12.436-6.526c3.892-0.347,7.966-0.271,11.937-0.444
			c29.326-1.292,58.648-2.595,87.957-3.884c21.384-0.943,42.781-1.809,64.146-2.812c31.273-1.477,62.501-3.111,93.778-4.571
			c29.249-1.368,58.566-2.458,87.786-3.928c34.732-1.737,69.408-3.646,104.053-5.677c23.253-1.363,46.411-3.007,69.588-4.612
			c20.733-1.432,41.396-3.029,62.107-4.489c37.904-2.684,75.89-5.15,113.719-8.027c25.986-1.979,51.671-4.726,77.656-6.719
			c21.162-1.62,42.545-2.595,63.842-3.901"/>
	</g>
</g>
<g display="none">
	<path display="inline" fill-rule="evenodd" clip-rule="evenodd" d="M-1661.47,4712.531c1.108,75.055,1.695,150.116,3.528,225.15
		c1.056,42.388,4.082,84.733,6.426,127.086c0.661,11.884-1.014,14.903-15.055,19.178c-40.836,12.449-81.859,24.209-122.613,36.935
		c-47.971,14.992-96.782,25.663-146.262,33.433c-65.633,10.306-131.581,18.604-197.86,10.767
		c-35.872-4.239-71.478-12.56-106.592-21.576c-56.278-14.448-113.128-24.513-170.88-28.221
		c-47.315-3.033-94.728-4.302-142.099-6.418c-10.657-0.476-20.196,0.876-29.021,8.81c-9.298,8.376-20.831,4.129-22.665-8.733
		c-3.315-23.142-6.094-46.571-6.479-69.927c-0.745-44.889-0.234-89.813,0.806-134.702c1.593-68.706,3.826-137.405,6.273-206.084
		c1.758-49.08,4.584-98.099-0.696-147.166c-1.048-9.623,0.083-19.611,1.075-29.331c1.296-12.602,10.514-21.018,21.756-16.806
		c32.371,12.125,64.35,3.212,96.604,1.075c93.529-6.19,185.845-2.585,275.375,32.04c24.457,9.458,51.549,13.663,77.743,15.669
		c42.187,3.219,84.843,5.811,126.893,2.626c35.129-2.654,70.009-12.498,104.338-21.817c48.64-13.194,96.438-29.8,145.07-43.049
		c25.657-6.997,51.411-12.422,74.738-26.657c10.926-6.679,20.735,0.648,20.741,13.967c0.042,77.915,0.014,155.824,0.014,233.739
		C-1660.691,4712.524-1661.079,4712.524-1661.47,4712.531z M-1680.275,4488.153c-4.791,2.288-7.632,3.777-10.575,5.018
		c-8.961,3.757-17.723,8.286-26.967,10.905c-14.737,4.164-30.062,6.136-44.689,10.616c-27.814,8.521-55.14,18.791-82.988,27.167
		c-27.85,8.375-55.892,16.323-84.23,22.609c-26.05,5.784-52.527,12.14-78.936,12.843c-43.614,1.165-87.422-0.469-130.933-3.964
		c-25.72-2.061-51.603-7.92-76.351-15.717c-34.75-10.939-68.905-24.678-105.193-27.966c-39.416-3.571-79.053-4.729-118.619-5.825
		c-19.584-0.538-39.754-1.248-58.725,2.854c-27.87,6.012-54.851,7.452-81.887-1.93c-8.064-2.799-8.438,0.345-7.638,7.293
		c1.861,16.289,4.067,32.619,4.48,48.984c0.711,28.718,0.725,57.477,0.015,86.201c-0.746,30.316-2.854,60.6-4.047,90.909
		c-1.475,37.734-3.288,75.476-3.764,113.224c-0.627,50.866-0.275,101.745-0.027,152.618c0.104,23.3,0.972,46.593,1.523,71.236
		c7.418-2.082,12.925-4.798,18.516-4.998c24.65-0.903,49.424-2.646,73.98-1.172c46.411,2.792,92.881,6.204,139.016,11.974
		c36.955,4.633,73.56,12.615,110.143,20.039c35.908,7.286,71.299,18.916,107.494,22.817c37.184,4.005,75.172,2.695,112.632,0.496
		c34.611-2.033,69.078-7.631,103.428-12.932c39.03-6.025,77.405-15.166,115.505-26.381c43.316-12.746,87.504-22.328,129.602-39.402
		c2.861-1.158,6.48-4.061,7.037-6.77c1.193-5.68,0.986-11.795,0.643-17.682c-2.096-35.921-4.888-71.808-6.488-107.757
		c-1.385-31.006-2.019-62.081-2.066-93.122c-0.193-96.858,0.034-193.71,0.11-290.568
		C-1680.261,4529.913-1680.275,4510.059-1680.275,4488.153z"/>
	<g display="inline">
		<path fill="none" d="M-1661.47,4712.531c1.108,75.055,1.695,150.116,3.528,225.15c1.056,42.388,4.082,84.733,6.426,127.086
			c0.661,11.884-1.014,14.903-15.055,19.178c-40.836,12.449-81.859,24.209-122.613,36.935
			c-47.971,14.992-96.782,25.663-146.262,33.433c-65.633,10.306-131.581,18.604-197.86,10.767
			c-35.872-4.239-71.478-12.56-106.592-21.576c-56.278-14.448-113.128-24.513-170.88-28.221
			c-47.315-3.033-94.728-4.302-142.099-6.418c-10.657-0.476-20.196,0.876-29.021,8.81c-9.298,8.376-20.831,4.129-22.665-8.733
			c-3.315-23.142-6.094-46.571-6.479-69.927c-0.745-44.889-0.234-89.813,0.806-134.702c1.593-68.706,3.826-137.405,6.273-206.084
			c1.758-49.08,4.584-98.099-0.696-147.166c-1.048-9.623,0.083-19.611,1.075-29.331c1.296-12.602,10.514-21.018,21.756-16.806
			c32.371,12.125,64.35,3.212,96.604,1.075c93.529-6.19,185.845-2.585,275.375,32.04c24.457,9.458,51.549,13.663,77.743,15.669
			c42.187,3.219,84.843,5.811,126.893,2.626c35.129-2.654,70.009-12.498,104.338-21.817c48.64-13.194,96.438-29.8,145.07-43.049
			c25.657-6.997,51.411-12.422,74.738-26.657c10.926-6.679,20.735,0.648,20.741,13.967c0.042,77.915,0.014,155.824,0.014,233.739
			C-1660.691,4712.524-1661.079,4712.524-1661.47,4712.531z M-1680.275,4488.153c-4.791,2.288-7.632,3.777-10.575,5.018
			c-8.961,3.757-17.723,8.286-26.967,10.905c-14.737,4.164-30.062,6.136-44.689,10.616c-27.814,8.521-55.14,18.791-82.988,27.167
			c-27.85,8.375-55.892,16.323-84.23,22.609c-26.05,5.784-52.527,12.14-78.936,12.843c-43.614,1.165-87.422-0.469-130.933-3.964
			c-25.72-2.061-51.603-7.92-76.351-15.717c-34.75-10.939-68.905-24.678-105.193-27.966c-39.416-3.571-79.053-4.729-118.619-5.825
			c-19.584-0.538-39.754-1.248-58.725,2.854c-27.87,6.012-54.851,7.452-81.887-1.93c-8.064-2.799-8.438,0.345-7.638,7.293
			c1.861,16.289,4.067,32.619,4.48,48.984c0.711,28.718,0.725,57.477,0.015,86.201c-0.746,30.316-2.854,60.6-4.047,90.909
			c-1.475,37.734-3.288,75.476-3.764,113.224c-0.627,50.866-0.275,101.745-0.027,152.618c0.104,23.3,0.972,46.593,1.523,71.236
			c7.418-2.082,12.925-4.798,18.516-4.998c24.65-0.903,49.424-2.646,73.98-1.172c46.411,2.792,92.881,6.204,139.016,11.974
			c36.955,4.633,73.56,12.615,110.143,20.039c35.908,7.286,71.299,18.916,107.494,22.817c37.184,4.005,75.172,2.695,112.632,0.496
			c34.611-2.033,69.078-7.631,103.428-12.932c39.03-6.025,77.405-15.166,115.505-26.381c43.316-12.746,87.504-22.328,129.602-39.402
			c2.861-1.158,6.48-4.061,7.037-6.77c1.193-5.68,0.986-11.795,0.643-17.682c-2.096-35.921-4.888-71.808-6.488-107.757
			c-1.385-31.006-2.019-62.081-2.066-93.122c-0.193-96.858,0.034-193.71,0.11-290.568
			C-1680.261,4529.913-1680.275,4510.059-1680.275,4488.153z"/>
		<g>
			<path fill-rule="evenodd" clip-rule="evenodd" d="M-1680.624,4488.153c0.018,0,0.034,0.168,0.049,0.502
				c0.009,0.334,0.024,0.833,0.042,1.497c0.016,1.328,0.039,3.311,0.069,5.933c0.022,5.244,0.055,13.045,0.099,23.272
				c0.048,20.455,0.118,50.615,0.208,89.436c-0.437,38.803-0.349,86.25,0.205,141.327c0.256,27.529,0.372,56.952,0.351,88.144
				c0.132,15.59,0.268,31.623,0.407,48.081c0.223,8.227,0.448,16.559,0.676,24.997c0.11,4.219,0.222,8.464,0.333,12.736
				c0.138,4.27,0.15,8.572,0.409,12.889c0.903,17.269,1.841,34.951,2.898,53.021c0.581,9.033,1.168,18.164,1.762,27.392
				c0.302,4.613,0.606,9.251,0.911,13.912c0.291,4.664,0.661,9.339,0.865,14.064c0.136,4.734,0.079,9.496-1.018,14.258
				c-0.435,1.195-1.204,2.204-2.077,3.055c-0.854,0.883-1.841,1.612-2.872,2.27c-1.031,0.661-2.193,1.14-3.302,1.555l-3.364,1.301
				c-2.246,0.869-4.497,1.74-6.753,2.613c-2.26,0.864-4.506,1.784-6.814,2.546c-4.592,1.594-9.206,3.196-13.841,4.805
				c-18.647,6.125-37.896,11.503-57.463,16.926c-4.901,1.322-9.823,2.65-14.766,3.984c-4.942,1.329-9.91,2.649-14.872,4.055
				c-9.928,2.793-19.99,5.498-30.106,8.28c-20.252,5.514-40.988,10.432-62.104,15.229l-3.982,0.785
				c-1.329,0.261-2.674,0.442-4.012,0.669c-2.678,0.437-5.362,0.873-8.05,1.311c-5.372,0.896-10.763,1.794-16.172,2.697
				c-10.837,1.651-21.75,3.314-32.736,4.988c-5.497,0.815-11.014,1.633-16.547,2.453l-4.154,0.619l-4.174,0.529
				c-2.785,0.355-5.574,0.71-8.368,1.066c-2.794,0.359-5.592,0.719-8.395,1.079l-4.208,0.543c-1.405,0.169-2.819,0.27-4.229,0.408
				c-5.649,0.521-11.315,1.045-16.998,1.569c-22.766,1.427-45.839,2.352-69.202,2.245c-11.682,0.001-23.426-0.527-35.219-1.284
				c-2.943-0.263-5.892-0.526-8.843-0.789l-4.431-0.396c-1.475-0.165-2.946-0.381-4.421-0.57c-2.948-0.391-5.901-0.782-8.857-1.174
				c-2.944-0.463-5.877-1.022-8.821-1.531c-5.897-0.956-11.723-2.322-17.602-3.507c-2.933-0.623-5.848-1.333-8.779-1.994
				c-2.928-0.677-5.865-1.331-8.787-2.051c-11.714-2.8-23.452-5.709-35.289-8.4c-2.953-0.706-5.934-1.278-8.904-1.926
				c-2.977-0.621-5.941-1.285-8.941-1.868c-5.985-1.206-11.985-2.414-17.999-3.624c-12.024-2.402-24.104-4.814-36.235-7.238
				c-6.093-1.051-12.198-2.104-18.315-3.159c-3.062-0.506-6.111-1.116-9.189-1.542c-3.077-0.437-6.157-0.874-9.24-1.312
				c-6.17-0.851-12.333-1.822-18.54-2.594c-6.219-0.695-12.451-1.391-18.695-2.088c-3.122-0.353-6.246-0.706-9.374-1.059
				l-4.693-0.533l-4.709-0.438c-6.281-0.59-12.574-1.181-18.88-1.774c-3.153-0.3-6.308-0.601-9.467-0.901
				c-3.158-0.305-6.328-0.519-9.497-0.785c-6.339-0.514-12.689-1.028-19.052-1.543c-6.345-0.645-12.715-1.148-19.098-1.618
				c-6.385-0.45-12.781-0.901-19.188-1.353c-1.602-0.101-3.205-0.227-4.809-0.303l-4.811-0.148c-3.208-0.094-6.42-0.188-9.634-0.281
				c-3.212-0.152-6.434-0.047-9.657,0.008c-3.223,0.059-6.448,0.118-9.676,0.177c-12.911,0.412-25.869,1.076-38.883,1.606
				c-0.832,0.018-1.58,0.108-2.356,0.171c-0.772,0.053-1.542,0.258-2.313,0.377c-0.77,0.169-1.538,0.381-2.308,0.572l-2.305,0.699
				l-4.634,1.53l-2.345,0.75l-3.25,0.958l-0.471,0.138l-0.235,0.069l-0.059,0.017c-0.008-0.011-0.003-0.039-0.005-0.057
				l-0.003-0.124l-0.021-0.987l-0.042-1.965l-0.044-2.492l-0.079-4.9c-0.041-3.268-0.081-6.539-0.122-9.811
				c-0.222-12.838-0.444-25.638-0.665-38.397c-0.323-12.762-0.414-25.479-0.589-38.153c-0.302-25.349-0.84-50.52-0.564-75.5
				c0.284-12.5,0.566-24.951,0.847-37.35c0.064-3.1,0.128-6.196,0.192-9.289c0.067-3.093,0.091-6.183,0.243-9.268
				c0.225-6.171,0.45-12.329,0.674-18.473c0.416-12.289,0.691-24.528,0.888-36.719c0.312-12.186,0.467-24.323,0.403-36.416
				c0.753-24.144,2.409-53.064,3.381-79.005c0.278-6.485,0.547-12.788,0.804-18.788c0.251-6,0.603-11.694,0.645-16.974
				c0.227-10.556,0.491-19.419,0.807-25.632c-0.027-2.334-0.054-4.742-0.082-7.215c-0.025-2.473-0.017-5.012-0.121-7.609
				c-0.135-5.194-0.275-10.622-0.42-16.224c-0.111-5.601-0.226-11.375-0.343-17.265c-0.024-1.472-0.049-2.952-0.074-4.437
				l-0.035-2.233l-0.113-2.229c-0.153-2.976-0.307-5.972-0.461-8.982c-0.885-12.038-2.292-24.278-3.62-36.298
				c-0.162-1.493-0.344-3.013-0.407-4.598c-0.039-0.787-0.019-1.614,0.075-2.473c0.14-0.866,0.34-1.842,1.064-2.762
				c0.201-0.213,0.409-0.424,0.629-0.613c0.243-0.154,0.495-0.299,0.75-0.433c0.5-0.187,1.035-0.345,1.493-0.354
				c0.964-0.096,1.785,0.051,2.588,0.198c1.573,0.326,3.036,0.889,4.383,1.322c5.459,1.931,10.964,3.342,16.349,4.401
				c10.781,2.13,21.793,2.592,32.654,2.029c5.433-0.325,10.835-0.905,16.194-1.681c5.366-0.763,10.646-1.848,15.944-2.894
				c10.648-2.152,21.431-2.858,32.087-3.014c10.667-0.14,21.232,0.231,31.712,0.498c5.242,0.133,10.466,0.267,15.67,0.399
				c5.204,0.127,10.388,0.291,15.552,0.496c5.164,0.193,10.308,0.385,15.431,0.576c2.562,0.101,5.118,0.201,7.67,0.302
				c2.551,0.134,5.095,0.268,7.636,0.402c10.159,0.576,20.248,0.917,30.227,1.723c4.994,0.337,9.967,0.672,14.919,1.007
				c4.944,0.291,9.903,0.685,14.81,1.292c19.594,2.946,37.97,8.453,55.664,14.28c17.71,5.828,34.802,12.132,52.07,17.091
				c8.618,2.537,17.301,4.611,25.98,6.522c2.181,0.425,4.359,0.849,6.536,1.273l3.266,0.627l3.28,0.533l6.556,1.046l6.579,0.839
				c2.189,0.308,4.389,0.503,6.589,0.696c2.2,0.189,4.395,0.423,6.599,0.57c4.413,0.26,8.826,0.52,13.243,0.78
				c4.417,0.247,8.837,0.494,13.263,0.741c2.214,0.106,4.426,0.271,6.646,0.324c2.219,0.062,4.44,0.123,6.664,0.185
				c7.271,0.247,14.406,0.489,21.467,0.729c3.527,0.175,7.042,0.153,10.542,0.218c3.501,0.053,6.991,0.106,10.478,0.16
				c3.486,0.062,6.97,0.124,10.458,0.186c1.744,0.023,3.489,0.087,5.236,0.081c1.747-0.016,3.497-0.033,5.249-0.049
				c7.01-0.054,14.068-0.109,21.238-0.164c1.792-0.012,3.592-0.025,5.399-0.037c1.797-0.084,3.602-0.169,5.416-0.254
				c1.812-0.105,3.639-0.131,5.466-0.303c1.828-0.172,3.666-0.345,5.514-0.519c7.395-0.696,14.92-1.869,22.655-3.191
				c3.859-0.722,7.775-1.456,11.748-2.261c3.967-0.84,8.004-1.657,12.1-2.583c8.195-1.806,16.694-3.711,25.469-5.873
				c24.472-6.023,48.188-12.672,70.232-19.207c1.38-0.401,2.753-0.8,4.121-1.197c1.359-0.421,2.711-0.84,4.057-1.257
				c2.691-0.835,5.355-1.663,7.991-2.481c2.637-0.817,5.244-1.625,7.822-2.425c2.577-0.802,5.103-1.667,7.608-2.481
				c10.008-3.315,19.497-6.458,28.342-9.388c2.216-0.716,4.401-1.423,6.555-2.119c2.165-0.667,4.298-1.325,6.399-1.973
				c4.201-1.299,8.276-2.56,12.222-3.78c0.99-0.295,1.955-0.635,2.943-0.886c0.986-0.255,1.965-0.508,2.935-0.758
				c1.939-0.502,3.845-0.995,5.719-1.48c1.865-0.522,3.729-0.877,5.549-1.27c1.822-0.388,3.61-0.769,5.364-1.142
				c7.008-1.512,13.513-2.722,19.347-4.274c1.465-0.363,2.896-0.718,4.292-1.063c0.349-0.087,0.695-0.173,1.04-0.259
				c0.336-0.111,0.67-0.222,1.002-0.332c0.664-0.22,1.32-0.438,1.966-0.653c1.294-0.43,2.555-0.849,3.78-1.256
				c1.199-0.487,2.364-0.961,3.496-1.422c1.131-0.462,2.229-0.911,3.292-1.346c1.052-0.468,2.07-0.922,3.054-1.36
				c1.971-0.876,3.807-1.692,5.506-2.448c1.704-0.753,3.271-1.446,4.698-2.077c1.406-0.658,2.677-1.252,3.809-1.782
				c4.51-2.187,6.805-3.363,6.805-3.363c-0.028-0.059-0.626,0.181-1.782,0.71c-1.147,0.542-2.862,1.353-5.131,2.424
				c-1.131,0.523-2.399,1.111-3.805,1.762c-1.429,0.632-2.997,1.326-4.701,2.081c-1.697,0.762-3.53,1.584-5.498,2.467
				c-0.981,0.443-1.997,0.902-3.046,1.376c-1.059,0.441-2.151,0.897-3.278,1.366c-1.127,0.468-2.288,0.95-3.481,1.446
				c-1.22,0.417-2.474,0.845-3.762,1.285c-0.644,0.22-1.297,0.443-1.958,0.669c-0.33,0.113-0.663,0.227-0.998,0.341
				c-0.344,0.089-0.689,0.179-1.037,0.269c-1.392,0.36-2.818,0.728-4.279,1.105c-5.817,1.612-12.309,2.897-19.296,4.498
				c-1.749,0.396-3.531,0.8-5.346,1.211c-1.814,0.417-3.672,0.796-5.527,1.343c-1.863,0.51-3.758,1.029-5.686,1.556
				c-0.964,0.264-1.936,0.529-2.916,0.797c-0.981,0.265-1.943,0.619-2.928,0.928c-3.925,1.279-7.978,2.599-12.157,3.96
				c-2.089,0.68-4.21,1.37-6.362,2.07c-2.142,0.73-4.314,1.471-6.519,2.223c-8.871,2.855-18.219,5.929-28.035,9.194
				c-2.455,0.816-4.938,1.642-7.453,2.478c-2.525,0.8-5.08,1.61-7.665,2.43c-2.583,0.823-5.197,1.656-7.839,2.499
				c-2.64,0.851-5.311,1.705-8.033,2.5c-21.698,6.616-45.369,13.543-71.134,19.757c-8.457,1.916-16.547,3.639-24.341,5.31
				c-7.79,1.69-15.299,3.245-22.628,4.644c-14.652,2.784-28.651,4.78-42.686,5.194c-7.008,0.141-13.996,0.281-21.058,0.423
				c-3.532,0.064-7.083,0.128-10.664,0.192c-3.581-0.047-7.192-0.094-10.845-0.142c-7.306-0.114-14.782-0.214-22.517-0.416
				c-7.729-0.37-15.719-0.782-24.061-1.25c-8.354-0.241-16.921-0.937-25.685-1.488c-4.381-0.293-8.808-0.59-13.274-0.889
				c-2.234-0.119-4.473-0.402-6.724-0.6c-2.249-0.231-4.515-0.396-6.769-0.729c-2.259-0.298-4.525-0.597-6.799-0.896
				c-2.271-0.324-4.535-0.733-6.813-1.098l-3.42-0.564l-3.411-0.662c-2.275-0.45-4.556-0.902-6.841-1.354
				c-9.106-1.977-18.222-4.266-27.271-6.871c-18.086-5.272-35.871-11.703-53.562-17.262c-17.668-5.585-35.304-10.299-52.551-12.591
				c-8.061-1.183-17.155-1.635-26.812-2.36c-2.416-0.17-4.869-0.342-7.354-0.518c-2.485-0.177-5.003-0.363-7.555-0.458
				c-5.1-0.239-10.31-0.482-15.593-0.73c-10.56-0.573-21.425-0.854-32.259-1.276c-10.837-0.408-21.651-0.815-32.129-1.209
				c-10.479-0.351-21.034-0.808-31.652-0.735c-10.61,0.088-21.325,0.747-31.87,2.876c-5.291,1.043-10.613,2.147-16,2.938
				c-5.385,0.805-10.818,1.427-16.291,1.81c-10.943,0.679-22.071,0.396-33.069-1.498c-5.484-0.995-10.929-2.344-16.243-4.146
				c-1.352-0.415-2.644-0.907-3.933-1.214c-0.324-0.095-0.645-0.144-0.966-0.198c-0.324-0.07-0.638-0.093-0.947-0.106
				c-0.625-0.047-1.206,0.041-1.627,0.265c-0.853,0.385-1.114,1.709-1.135,3.013c-0.026,1.324,0.11,2.704,0.262,4.084
				c0.632,5.572,1.308,11.152,1.906,16.77c0.302,2.808,0.605,5.619,0.908,8.435c0.247,2.824,0.494,5.651,0.742,8.483
				c0.294,2.828,0.397,5.678,0.54,8.527l0.212,4.279c0.073,1.427,0.155,2.855,0.151,4.283c0.075,5.71,0.151,11.437,0.227,17.179
				c0.085,5.742,0.17,11.5,0.256,17.274c0.027,2.887,0.134,5.778,0.1,8.673c-0.021,2.895-0.042,5.794-0.064,8.697
				c-0.166,5.808-0.294,11.631-0.393,17.47c-0.043,2.919-0.086,5.843-0.129,8.77c-0.062,2.926-0.008,5.86-0.159,8.792
				c-0.392,11.734-0.785,23.529-1.181,35.382c-0.345,11.861-0.891,23.75-1.412,35.708c-0.295,5.977-0.591,11.967-0.887,17.972
				c-0.274,6.007-0.577,12.027-0.921,18.059c-0.373,12.075-0.747,24.204-1.123,36.386c-0.252,12.179-0.505,24.412-0.759,36.698
				c-0.153,6.141-0.307,12.295-0.46,18.463c-0.114,3.083-0.1,6.172-0.129,9.264c-0.028,3.092-0.056,6.188-0.084,9.286
				c-0.13,12.394-0.336,24.839-0.648,37.336c0.307,24.966,0.419,50.138,0.298,75.485c-0.037,12.674-0.156,25.395,0.082,38.141
				c0.103,6.375,0.207,12.76,0.31,19.155c0.143,6.396,0.378,12.803,0.611,19.218c0.034,3.273,0.068,6.544,0.102,9.813l0.063,4.901
				l0.033,2.41l0.001,0.583l0.001,0.3c-0.019,0.077,0.042,0.043,0.088,0.032l0.139-0.038l1.591-0.452l2.322-0.731l4.658-1.513
				l2.366-0.704c0.805-0.197,1.604-0.412,2.416-0.586c0.826-0.126,1.634-0.333,2.474-0.39c0.835-0.066,1.683-0.156,2.486-0.168
				c13.002-0.461,25.968-1.053,38.906-1.44c3.237-0.056,6.471-0.112,9.703-0.168c3.232-0.055,6.461-0.164,9.689-0.02
				c3.229,0.081,6.455,0.163,9.678,0.244l4.834,0.12c1.608,0.065,3.21,0.178,4.815,0.265c6.415,0.368,12.819,0.736,19.212,1.103
				c6.394,0.359,12.775,0.721,19.14,1.19c6.364,0.575,12.715,1.149,19.055,1.722c3.169,0.288,6.34,0.519,9.5,0.837
				c3.161,0.312,6.319,0.623,9.474,0.933c6.312,0.596,12.612,1.191,18.899,1.785l4.715,0.432l4.701,0.524
				c3.133,0.345,6.263,0.69,9.389,1.035c6.255,0.675,12.499,1.349,18.73,2.021c6.223,0.748,12.411,1.696,18.602,2.526
				c3.094,0.428,6.186,0.855,9.274,1.282c3.09,0.418,6.145,1.02,9.214,1.52c6.132,1.05,12.25,2.099,18.357,3.145
				c12.12,2.532,24.187,5.054,36.2,7.563c6.006,1.247,11.998,2.49,17.976,3.731c2.992,0.598,5.972,1.278,8.954,1.912
				c2.976,0.661,5.968,1.246,8.923,1.961c11.854,2.729,23.599,5.645,35.305,8.416c2.923,0.713,5.854,1.357,8.778,2.022
				c2.927,0.649,5.84,1.347,8.767,1.953c5.864,1.152,11.682,2.478,17.552,3.381c2.928,0.513,5.845,1.079,8.771,1.551
				c2.935,0.403,5.866,0.805,8.793,1.207c1.465,0.195,2.924,0.418,4.39,0.591l4.409,0.421c2.937,0.282,5.87,0.563,8.799,0.845
				c11.742,0.835,23.445,1.456,35.099,1.525c23.302,0.248,46.373-0.626,69.082-2.365c5.667-0.534,11.316-1.066,16.948-1.596
				c1.407-0.139,2.816-0.239,4.218-0.408l4.2-0.541c2.797-0.357,5.591-0.713,8.379-1.068c2.789-0.352,5.574-0.702,8.354-1.053
				l4.167-0.521l4.15-0.611c5.529-0.813,11.041-1.624,16.534-2.432c5.496-0.779,10.963-1.664,16.417-2.503
				c5.449-0.861,10.894-1.656,16.294-2.561c5.389-0.947,10.76-1.892,16.111-2.833c2.675-0.472,5.346-0.943,8.011-1.414
				c1.331-0.246,2.668-0.448,3.989-0.73l3.959-0.854c21.186-4.174,41.945-8.935,62.15-14.511
				c10.096-2.814,20.105-5.601,30.024-8.517c4.955-1.466,9.907-2.852,14.834-4.25c4.925-1.404,9.829-2.802,14.713-4.194
				c19.593-5.327,38.845-10.56,57.488-16.53c4.633-1.569,9.246-3.131,13.836-4.686c2.309-0.742,4.553-1.641,6.812-2.486
				c2.255-0.853,4.505-1.704,6.75-2.553l3.363-1.271c1.163-0.429,2.148-0.825,3.107-1.427c0.947-0.594,1.87-1.265,2.64-2.053
				c0.799-0.759,1.458-1.654,1.786-2.547c0.187-0.39,0.251-1.019,0.341-1.585l0.266-1.721c0.075-0.576,0.209-1.141,0.236-1.725
				l0.103-1.746c0.201-2.32,0.113-4.668,0.097-7.003c-2.209-37.677-4.331-73.852-6.356-108.379c-0.304-4.317-0.359-8.62-0.54-12.891
				c-0.153-4.272-0.305-8.519-0.456-12.74c-0.302-8.441-0.601-16.778-0.895-25.008c-0.24-16.469-0.474-32.511-0.702-48.112
				c-0.099-31.191-0.17-60.616-0.118-88.146c0.533-57.157,0.121-102.525,0.544-141.328c0.212-38.821,0.377-68.981,0.489-89.436
				c0.023-10.227,0.041-18.028,0.053-23.272c-0.012-2.622-0.021-4.605-0.027-5.933c-0.012-0.664-0.021-1.163-0.028-1.497
				C-1680.597,4488.321-1680.609,4488.153-1680.624,4488.153z"/>
		</g>
		<g>
			<path fill-rule="evenodd" clip-rule="evenodd" d="M-1661.464,4712.879c-0.001-0.024,0.345-0.051,1.156-0.08l0.286-0.011
				l-0.009-0.271c-0.21-7.023-0.206-51.066-0.431-125.353c0.21-20.346,0.288-42.958,0.241-67.703
				c-0.052-12.373-0.106-25.278-0.163-38.701c-0.007-1.678-0.02-3.366-0.24-5.037c-0.132-0.833-0.222-1.676-0.473-2.488
				l-0.321-1.229l-0.457-1.188c-1.196-3.155-3.538-5.999-6.689-7.365l-1.197-0.46l-1.257-0.265
				c-0.415-0.118-0.849-0.105-1.276-0.133c-0.429-0.005-0.858-0.084-1.287-0.008l-1.286,0.132c-0.428,0.052-0.842,0.197-1.264,0.29
				c-0.855,0.16-1.644,0.55-2.457,0.857c-1.562,0.749-3.08,1.667-4.649,2.554c-1.559,0.89-3.123,1.784-4.695,2.682
				c-1.548,0.945-3.201,1.701-4.848,2.487c-1.647,0.788-3.301,1.58-4.962,2.374c-0.822,0.417-1.677,0.762-2.536,1.104
				c-0.856,0.347-1.714,0.695-2.574,1.043c-1.721,0.696-3.449,1.395-5.185,2.096c-3.538,1.21-7.079,2.522-10.701,3.672
				c-3.639,1.091-7.278,2.304-11.003,3.304c-7.417,2.128-15,4.082-22.657,6.168c-3.843,0.996-7.667,2.174-11.542,3.272
				c-3.871,1.115-7.77,2.238-11.697,3.369c-15.743,4.396-31.795,9.417-48.329,14.379c-8.268,2.484-16.644,5-25.124,7.548
				c-4.242,1.268-8.51,2.543-12.804,3.827c-4.291,1.294-8.655,2.443-13.019,3.68c-8.728,2.469-17.56,4.967-26.493,7.495
				c-8.962,2.417-18.025,4.87-27.209,7.272c-18.369,4.776-37.276,9.287-56.88,12.172c-2.451,0.344-4.9,0.761-7.372,1.05
				c-2.476,0.255-4.958,0.512-7.446,0.769c-4.971,0.605-9.994,0.796-15.032,1.139c-5.037,0.381-10.109,0.498-15.204,0.665
				c-2.547,0.066-5.1,0.202-7.66,0.213c-2.561,0.016-5.127,0.032-7.699,0.048c-20.579,0.099-41.526-0.771-62.79-2.077
				c-5.316-0.34-10.65-0.735-16.003-1.166c-2.677-0.213-5.359-0.428-8.047-0.642c-2.688-0.251-5.381-0.502-8.08-0.755
				c-10.784-1.126-21.615-2.671-32.425-4.805c-10.815-2.1-21.564-5.012-32.132-8.698c-10.58-3.659-21.059-7.693-31.979-10.744
				c-21.456-7.164-43.84-12.631-66.795-16.505c-22.958-3.882-46.482-6.18-70.325-7.222c-23.825-1.471-48.02-1.589-72.453-0.778
				c-6.11,0.165-12.231,0.52-18.373,0.774c-6.14,0.3-12.292,0.722-18.463,1.079c-12.317,0.767-24.625,2.538-37.087,3.844
				c-6.227,0.634-12.492,1.142-18.797,1.368c-6.307,0.179-12.652,0.001-18.979-0.65c-6.333-0.639-12.604-1.995-18.739-3.828
				l-4.568-1.508l-2.167-0.664c-0.734-0.117-1.465-0.29-2.203-0.349c-2.943-0.225-5.957,0.452-8.383,2.164
				c-2.43,1.682-4.384,4.092-5.636,6.854c-1.292,2.771-1.926,5.755-2.21,8.89c-0.622,6.37-1.281,12.732-1.311,19.089
				c-0.063,3.186,0.154,6.333,0.446,9.504c0.283,3.219,0.566,6.442,0.85,9.668c0.259,3.228,0.609,6.454,0.787,9.694
				c0.159,3.24,0.319,6.484,0.478,9.732c1.472,25.979,1.102,52.223,0.221,78.596c-0.503,13.181-1.007,26.414-1.514,39.698
				c-0.462,13.284-0.925,26.619-1.39,40.004c-2.717,53.451-2.94,107.761-5.441,162.629c-0.442,13.453-0.623,26.873-0.818,40.249
				c-0.074,6.688-0.147,13.366-0.221,20.033c-0.028,3.333-0.056,6.664-0.084,9.992c0.041,3.328,0.082,6.652,0.123,9.974
				c0.166,13.286,0.332,26.525,0.497,39.716c0.034,3.297,0.067,6.591,0.101,9.882l0.044,4.934c0.003,1.645,0.023,3.287,0.117,4.921
				c0.139,3.272,0.278,6.542,0.417,9.807l0.198,4.896c0.082,1.631,0.248,3.257,0.366,4.885c0.449,6.521,0.739,13.045,1.45,19.527
				c0.31,3.246,0.62,6.487,0.93,9.726c0.318,3.239,0.746,6.463,1.115,9.691c0.396,3.22,0.743,6.464,1.184,9.654
				c0.46,3.132,1.647,6.195,3.721,8.584c1.075,1.135,2.295,2.192,3.755,2.804c0.351,0.182,0.708,0.348,1.093,0.441l1.133,0.341
				c0.782,0.087,1.559,0.293,2.354,0.229c1.591,0.069,3.151-0.363,4.653-0.863c1.462-0.625,2.882-1.382,4.131-2.383
				c1.276-0.952,2.445-2.1,3.768-3.026c1.284-0.982,2.669-1.822,4.076-2.612c2.844-1.533,5.917-2.606,9.063-3.285
				c3.156-0.645,6.375-0.917,9.584-0.952c3.214-0.017,6.409,0.148,9.604,0.214c12.779,0.342,25.508,0.525,38.188,0.491
				c25.32,0.845,55.63,2.367,82.861,3.719c3.404,0.174,6.759,0.346,10.051,0.514c1.646,0.086,3.276,0.171,4.888,0.255
				c1.611,0.127,3.205,0.252,4.778,0.376c6.293,0.52,12.269,0.999,17.795,1.508c5.511,0.649,10.581,1.246,15.084,1.776
				c2.249,0.281,4.357,0.533,6.303,0.808c1.94,0.314,3.725,0.603,5.337,0.864c4.875,0.538,10.057,1.109,15.483,1.708
				c5.405,0.77,11.053,1.575,16.882,2.405c1.457,0.214,2.925,0.429,4.403,0.646c1.473,0.25,2.956,0.501,4.449,0.754
				c2.983,0.52,6.003,1.045,9.053,1.577c3.048,0.543,6.132,1.058,9.224,1.648c3.086,0.623,6.193,1.25,9.314,1.88
				c3.12,0.636,6.254,1.275,9.395,1.915c3.141,0.638,6.26,1.403,9.392,2.103c3.128,0.719,6.254,1.437,9.372,2.153
				c1.558,0.364,3.112,0.727,4.664,1.089c1.545,0.391,3.086,0.781,4.624,1.17c6.143,1.573,12.219,3.129,18.167,4.653
				c5.93,1.555,11.733,3.077,17.348,4.55c11.24,2.907,22.474,5.523,33.666,7.99c11.216,2.338,22.381,4.587,33.557,6.291
				c11.157,1.829,22.311,3.147,33.406,4.151c5.558,0.398,11.089,0.881,16.618,1.07c2.764,0.11,5.519,0.293,8.274,0.341
				c2.755,0.056,5.504,0.111,8.249,0.167c2.744,0.076,5.486,0.015,8.221,0.011c2.735-0.029,5.466,0.004,8.191-0.071
				c5.449-0.156,10.88-0.228,16.283-0.521c10.813-0.417,21.524-1.248,32.14-2.141c21.22-1.949,42.021-4.688,62.35-8.022
				c20.434-2.791,40.193-5.727,59.419-9.16c19.215-3.49,37.902-7.407,56.228-11.795c18.298-4.501,36.221-9.496,53.918-15.061
				c17.73-5.48,35.39-11.042,53.167-16.764c14.556-4.641,28.616-8.903,42.633-13.137c7.015-2.097,14.016-4.189,21.065-6.297
				c3.521-1.069,7.109-2.027,10.504-3.282c3.323-1.288,6.823-2.799,8.307-5.741c1.505-2.938,1.297-6.837,1.157-10.572
				c-0.207-3.824-0.415-7.685-0.626-11.591c-0.429-7.812-0.868-15.805-1.321-24.044c-0.475-8.239-0.963-16.725-1.47-25.521
				c-0.478-8.799-0.973-17.91-1.488-27.396c-0.447-6.604-0.679-13.184-0.952-19.706c-0.249-6.522-0.495-12.989-0.739-19.383
				c-0.211-12.787-0.418-25.28-0.617-37.341c-0.321-24.123-0.62-46.516-0.88-66.059c-0.121-39.069-0.358-69.386-0.667-89.935
				c-0.29-20.549-0.574-31.331-0.574-31.331c-0.065,0.001-0.101,0.676-0.112,2.008c-0.011,1.333,0.004,3.323,0.04,5.955
				c0.1,5.265,0.248,13.097,0.442,23.371c0.403,20.547,0.997,50.86,1.762,89.919c0.09,19.543,0.473,41.273,0.996,65.06
				c0.277,11.893,0.567,24.301,0.869,37.208c0.211,6.452,0.524,13.025,0.788,19.722c0.29,6.696,0.507,13.517,0.942,20.45
				c0.348,9.083,0.703,17.751,1.104,26.101c0.477,8.345,0.936,16.375,1.383,24.187c0.491,7.81,0.969,15.402,1.439,22.875
				c0.246,3.736,0.489,7.442,0.732,11.131c0.115,1.846,0.263,3.68,0.35,5.525c0.092,1.842,0.146,3.693-0.049,5.545
				c-0.182,1.839-0.634,3.722-1.679,5.319c-1.031,1.606-2.57,2.797-4.182,3.723c-1.616,0.947-3.346,1.641-5.081,2.293
				c-1.739,0.642-3.509,1.211-5.277,1.756c-7.082,2.166-14.238,4.355-21.562,6.595c-14.655,4.46-30.028,8.995-46.846,13.894
				c-16.748,5.122-34.459,10.539-52.698,16.117c-18.232,5.647-37.158,10.917-56.323,15.628c-19.173,4.68-38.591,8.731-57.725,12.324
				c-4.789,0.869-9.556,1.734-14.294,2.593c-4.75,0.788-9.471,1.571-14.156,2.349c-9.37,1.553-18.612,2.947-27.655,4.324
				c-16.98,2.451-37.772,5.407-59.886,7.596c-11.057,1.068-22.44,1.982-33.825,2.45c-5.689,0.3-11.381,0.386-17.023,0.491
				c-2.821,0.066-5.632-0.004-8.425-0.007c-2.793-0.031-5.569-0.011-8.321-0.138c-2.752-0.077-5.509-0.153-8.272-0.23
				c-2.762-0.069-5.525-0.273-8.296-0.404c-5.543-0.23-11.089-0.752-16.659-1.185c-11.123-1.072-22.298-2.44-33.476-4.274
				c-11.2-1.709-22.389-3.92-33.647-6.153c-11.23-2.362-22.522-4.808-33.84-7.457c-11.27-2.814-22.612-5.647-34.023-8.498
				c-2.856-0.69-5.7-1.453-8.578-2.088c-2.875-0.652-5.753-1.305-8.636-1.958c-5.766-1.311-11.543-2.65-17.381-3.789
				c-2.914-0.594-5.832-1.189-8.754-1.785c-2.923-0.589-5.844-1.218-8.792-1.719c-5.888-1.056-11.792-2.115-17.712-3.176
				c-5.944-0.918-11.905-1.838-17.883-2.762l-4.488-0.674l-4.509-0.572c-3.008-0.379-6.02-0.759-9.036-1.139
				c-24.099-3.438-48.653-5.241-73.506-5.988c-24.839-1.008-49.905-2.144-75.22-3.472c-12.663-0.402-25.384-0.805-38.161-1.21
				c-3.195-0.084-6.408-0.255-9.53-0.239c-3.137,0.035-6.252,0.308-9.276,0.939c-3.012,0.665-5.926,1.703-8.616,3.179
				c-1.331,0.762-2.641,1.569-3.858,2.518l-0.919,0.701l-0.88,0.755c-0.553,0.483-1.244,1.043-1.919,1.588
				c-1.344,1.095-2.897,1.955-4.523,2.663c-1.677,0.586-3.439,1.085-5.278,1.036c-0.913,0.073-1.822-0.136-2.731-0.24
				c-0.444-0.115-0.885-0.25-1.326-0.379c-0.449-0.109-0.87-0.294-1.282-0.499c-1.711-0.705-3.148-1.904-4.397-3.201
				c-2.418-2.712-3.759-6.129-4.303-9.531c-0.492-3.276-0.867-6.46-1.3-9.701c-0.404-3.23-0.864-6.455-1.21-9.7
				c-0.334-3.247-0.668-6.498-1.003-9.751c-0.75-6.497-1.059-13.057-1.494-19.608c-3.35-52.426-0.523-105.643-0.229-159.496
				c2.562-54.875,3.668-109.159,4.969-162.662c0.641-13.382,1.182-26.715,1.651-40c0.552-13.283,1.068-26.515,1.481-39.696
				c0.802-26.357,1.013-52.539-0.448-78.415c-0.127-3.237-0.255-6.47-0.382-9.7c-0.146-3.229-0.467-6.441-0.698-9.658
				c-0.257-3.215-0.513-6.426-0.769-9.634c-0.275-3.236-0.475-6.498-0.389-9.734c0.075-6.484,0.779-12.892,1.43-19.259
				c0.304-3.211,1.002-6.495,2.413-9.47c1.372-2.989,3.524-5.664,6.276-7.552c2.742-1.923,6.215-2.706,9.521-2.434
				c0.828,0.068,1.64,0.257,2.458,0.395l2.357,0.726l4.482,1.482c6.022,1.799,12.18,3.127,18.417,3.743
				c6.231,0.627,12.492,0.783,18.732,0.576c6.241-0.253,12.457-0.795,18.65-1.472c12.408-1.274,24.771-2.981,37.172-3.672
				c6.183-0.316,12.345-0.695,18.496-0.953c6.153-0.213,12.284-0.526,18.404-0.657c24.476-0.671,48.696-0.503,72.59,0.656
				c23.904,0.967,47.486,3.362,70.509,7.266c23.023,3.896,45.479,9.306,67.15,16.112c10.85,3.356,21.369,7.613,31.841,11.348
				c10.451,3.759,21.136,6.678,31.906,8.732c10.764,2.088,21.563,3.535,32.316,4.537c2.692,0.219,5.378,0.438,8.059,0.657
				c2.688,0.18,5.37,0.36,8.047,0.54c5.355,0.359,10.689,0.681,16.003,0.948c21.231,1.402,42.128,2.411,62.655,2.459
				c2.566,0.003,5.126,0.006,7.68,0.008c2.554,0.008,5.1-0.109,7.641-0.157c5.082-0.129,10.143-0.208,15.166-0.553
				c5.024-0.306,10.042-0.461,14.987-1.03c2.479-0.239,4.951-0.477,7.418-0.715c2.463-0.271,4.905-0.671,7.35-0.999
				c19.549-2.753,38.448-7.164,56.808-11.912c9.18-2.389,18.24-4.845,27.196-7.287c8.914-2.572,17.727-5.115,26.435-7.628
				c4.349-1.279,8.695-2.468,12.973-3.802c4.281-1.323,8.536-2.637,12.765-3.944c8.457-2.617,16.809-5.202,25.054-7.754
				c16.501-5.09,32.524-10.208,48.276-14.67c3.929-1.145,7.829-2.281,11.702-3.41c3.878-1.109,7.705-2.295,11.552-3.296
				c7.673-2.099,15.248-4.046,22.641-6.149c3.718-0.99,7.332-2.183,10.957-3.253c3.604-1.127,7.118-2.41,10.637-3.589
				c1.722-0.683,3.438-1.364,5.146-2.042c0.854-0.338,1.707-0.677,2.557-1.014c0.853-0.331,1.703-0.666,2.518-1.071
				c1.648-0.771,3.29-1.539,4.925-2.303c1.636-0.762,3.279-1.493,4.815-2.41c1.628-0.892,3.245-1.777,4.851-2.657
				c0.81-0.442,1.617-0.883,2.421-1.323l1.29-0.681l0.645-0.335l0.685-0.263l1.368-0.518c0.472-0.13,0.955-0.232,1.43-0.347
				l0.715-0.166l0.736-0.07c0.492-0.036,0.98-0.105,1.472-0.106c1.981,0.008,3.941,0.497,5.695,1.367
				c1.758,0.893,3.186,2.248,4.373,3.718c0.535,0.779,1.102,1.538,1.485,2.389c0.466,0.814,0.768,1.685,1.083,2.547
				c0.327,0.859,0.475,1.76,0.715,2.635c0.13,0.891,0.28,1.78,0.362,2.668c0.033,0.884,0.096,1.792,0.099,2.647
				c-0.002,0.851-0.005,1.699-0.007,2.544c-0.017,13.525-0.032,26.363-0.047,38.599c-0.006,24.472,0,46.539-0.202,66.885
				c-0.403,74.287-0.611,118.33-0.471,125.354l0.006,0.287l-0.299,0.011c-0.405,0.016-0.694,0.026-0.883,0.033
				C-1661.378,4712.859-1661.464,4712.87-1661.464,4712.879z"/>
		</g>
	</g>
</g>
<g>
	<path stroke="#000000" stroke-width="0.25" stroke-miterlimit="10" d="M-1348.092,11288.576c0.992-33.742,1.856-67.5,3.086-101.256
		c0.849-22.502,2.191-45.004,3.298-67.508c1.079-22.348,1.925-44.729,1.814-67.525c-0.073-15.15-0.366-30.301-0.757-45.568
		c-0.414-15.264-0.959-29.893-1.469-46.271c-0.564-14.637-1.091-31.104-1.605-45.932c-0.491-15.627-0.918-31.219-1.178-45.932
		c-0.221-15.244-9.751-18.572-31.536-17.938c-15.988,0.939-32.294-0.266-48.446-0.271c-23.478-0.201-46.976,0.189-70.443-0.426
		c-23.466-0.535-46.97,0.037-70.457,0.078c-23.479-0.25-46.969-0.023-70.458,0.053c-23.509,0.785-46.969,0.682-70.412,0.031
		c-29.042,0.25-58.098,0.926-87.105,0.734c-29.051,0.504-58.062,0.49-87.071,0.361c-29.026,0.432-58.08,1.08-87.059,0.732
		c-29.016,0.059-58.042,0.48-87.066,0.857c-29.607-0.27-59.242,0.396-88.857,1.129c-29.58-0.441-59.184,0.568-88.795,1.775
		c0,0-129.461-7.5-123.195,16.088c6.265,23.586,22.734,313.523,13.998,440.41c-2.74,39.797-59.548,179.344,144.659,174.631
		c62.796-1.449,126.001,1.561,188.918,1.262c84.62-0.424,169.121-2.492,253.768-3.078c54.985-0.387,110.142,1.203,165.149,0.736
		c67.786-0.553,135.461-3.119,203.273-3.139c24.281-0.01,33.339-3.471,33.42-19.516
		C-1352.369,11404.883-1349.801,11346.744-1348.092,11288.576z M-2281.188,11070.152c-0.917-21.1-2.061-41.129-3.423-62.494
		c-1.388-21.133-2.986-42.477-4.906-62.484c-1.312-13.424-6.516-28.252-10.406-43.129c-3.329-11.553,2.372-19.01,24.485-19.133
		c27.742,0.039,55.523-1.129,83.257-0.828c27.768-0.75,55.474-0.262,83.234-1.422c30.698-1.008,61.365-1.6,92.027-2.068
		c30.664-0.545,61.354-1.916,92.035-2.326c30.648,0.025,61.349-1.666,92.051-2.02c30.698-0.955,61.391-1.02,92.097-0.898
		c28.296-0.42,56.583,0.033,84.9,0.301c28.296,0.852,56.622,0.809,84.95,1.393c28.346-0.088,56.659,1.004,84.988,1.527
		c28.307,0.582,56.631,1.205,84.937,1.789c20.501-0.139,21.351,7.566,21.554,17.979c0.745,27.225,1.466,55.119,2.42,82.457
		c0.926,27.49,2.062,54.637,3.536,82.482l-11.199,206.889l0.389,0.084c-1.727,27.715-4.203,55.424-5.883,83.135
		c-1.579,26.496-3.566,52.996-3.274,79.527c0.127,14.225-6.826,19.758-30.841,20.201c-124.575,2.264-248.939,6.006-373.513,8.299
		c-44.374,0.824-89.057-1.443-133.552-1.529c-74.622-0.162-149.25-0.115-223.817,0.631c-37.09,0.373-74.209,1.719-111.022,4.137
		c-22.392,1.479-28.381-3.602-28.391-16.707c-0.098-55.484-1.182-111.008-2.16-166.518c-0.079-4.303-2.113-8.625-4.069-16.059
		l16.645-161.074l2.562-27.691"/>
	<line stroke="#000000" stroke-width="0.25" stroke-miterlimit="10" x1="-1384.814" y1="11271.17" x2="-1384.651" y2="11268.166"/>
</g>
</svg>
