<?xml version="1.0" encoding="utf-8"?>
<!-- Generator: Adobe Illustrator 16.0.1, SVG Export Plug-In . SVG Version: 6.00 Build 0)  -->
<!DOCTYPE svg PUBLIC "-//W3C//DTD SVG 1.1//EN" "http://www.w3.org/Graphics/SVG/1.1/DTD/svg11.dtd">
<svg version="1.1" id="Layer_1" xmlns="http://www.w3.org/2000/svg" xmlns:xlink="http://www.w3.org/1999/xlink" x="0px" y="0px"
	 width="960px" height="705px" viewBox="0 0 960 705" enable-background="new 0 0 960 705" xml:space="preserve">
<g>
	<path d="M35.648,96.403c-2.547-0.704-3.462-1.208-4.357-1.17C11.889,96.042,5.903,91.201,0.977,70.627
		c-3.073-12.83,1.074-21.124,12.868-23.25c29-5.234,58.077-9.911,87.138-14.711c22.404-3.702,44.789-7.725,67.264-10.738
		c24.303-3.249,48.674-5.893,73.062-8.079c42.51-3.812,85.001-8.571,127.597-10.205c61.534-2.36,123.154-2.379,184.73-3.201
		c25.124-0.335,50.272-0.775,75.378-0.06c43.559,1.243,87.103,3.547,130.661,4.899c7.389,0.228,15.002-1.296,22.201-3.394
		c8.071-2.357,15.234-1.62,23.468,0.522c14.604,3.8,29.828,4.96,44.849,6.045c6.908,0.495,13.349,0.11,17.344,7.808
		c5.261,10.141,11.735,20.041,8.489,32.847c-2.178,8.612-8.982,12.688-17.873,11.641c-7.937-0.94-15.859-1.818-24.586-2.81
		c-0.545,4.511-1.588,7.645-1.162,10.489c11.103,73.299,10.897,147.487,14.492,221.418c3.014,62.125,6.745,124.393,18.881,185.451
		c4.26,21.458,8.009,43.047,11.921,64.591c1.394,7.662,4.738,13.502,10.06,18.758c9.591,9.474,15.21,21.463,14.49,36.546
		c-1.288,27.071-0.621,34.969,29.967,30.771c4.379-0.6,9.769,0.048,13.406,2.534c8.121,5.542,16.121,32.309,14.046,43.302
		c-1.996,10.557-10.902,18.158-19.845,14.886c-10.162-3.716-21.408-1.403-31.049-9.378c-4.201-3.471-11.947-1.5-18.096-1.886
		c-14.124-0.889-28.258-1.843-42.396-2.515c-22.205-1.053-44.415-1.923-66.633-2.828c-46.867-1.905-93.729-5.104-140.611-5.325
		c-53.481-0.255-107.014,1.176-160.454,3.709c-40.161,1.904-80.235,6.509-120.318,10.297c-35.884,3.389-71.767,6.953-107.588,11.113
		c-24.491,2.836-48.846,7.122-73.328,10.159c-11.656,1.452-23.465,1.314-35.2,2.245c-8.42,0.667-16.806,2.648-25.216,2.716
		c-16.702,0.131-21.723-5.062-26.098-22.709c-9.742-39.303-18.451-78.835-22.577-119.479c-1.683-16.521-3.04-33.077-4.482-49.628
		c-0.233-2.663-0.018-5.376-0.171-8.055c-3.178-52.427-6.492-104.842-9.514-157.283c-2.684-46.556-4.406-93.192-7.711-139.693
		c-2.394-33.667-6.629-67.165-10.171-100.722C37.833,103.807,36.577,100.305,35.648,96.403z M850.867,621.708
		c-0.555-4.942-0.65-8.083-1.289-11.079c-6.737-31.282-14.883-62.272-20.083-93.88c-9.198-55.917-18.396-111.895-21.171-168.921
		c-2.647-54.085-6.099-108.118-9.265-162.166c-2.356-40.149-3.383-80.469-13.04-119.627c-3.656-14.836-5.38-16.984-19.352-17.786
		c-10.402-0.6-20.837-0.425-31.246-1.044c-31.186-1.859-62.353-5.079-93.563-5.668c-51.611-0.972-103.25-0.6-154.87-0.222
		c-36.455,0.265-72.91,1.184-109.349,2.36c-23.663,0.764-47.385,1.575-70.938,4.055c-31.1,3.271-62.115,7.738-93.071,12.512
		C173.777,66.382,134.012,73.22,94.236,80c-11.803,2.011-12.562,3.709-10.957,16.768c0.648,5.309,1.169,10.658,1.485,16.007
		c1.494,25.146,2.919,50.298,4.346,75.449c2.435,42.815,5.057,85.618,7.217,128.449c1.494,29.466,1.726,59.03,3.639,88.451
		c3.201,49.187,6.71,98.368,11.307,147.405c1.809,19.324,3.123,39.385,16.456,55.207c3.986,4.736,4.107,13.816,5.602,21.009
		c1.031,4.971,1.373,10.123,1.953,14.638c9.259,0.846,16.787,2.347,24.271,2.076c24.583-0.887,49.168-2.012,73.711-3.788
		c39.666-2.858,79.279-6.45,118.936-9.474c40.151-3.064,80.295-6.762,120.51-8.473c55.403-2.354,110.857-3.549,166.296-4.396
		c39.313-0.601,78.655-0.141,117.979,0.493c26.515,0.431,53.012,2.055,79.527,2.955C841.03,622.932,845.558,622.128,850.867,621.708
		z"/>
	<g>
		<g>
			<defs>
				<path id="SVGID_1_" d="M850.867,621.708c-5.311,0.421-9.837,1.225-14.354,1.069c-26.517-0.9-53.014-2.523-79.527-2.955
					c-39.324-0.633-78.666-1.094-117.979-0.493c-55.438,0.847-110.893,2.041-166.296,4.396c-40.215,1.711-80.357,5.408-120.51,8.473
					c-39.656,3.023-79.27,6.615-118.936,9.474c-24.543,1.776-49.128,2.901-73.711,3.788c-7.484,0.271-15.013-1.23-24.271-2.076
					c-0.58-4.516-0.922-9.667-1.953-14.638c-1.494-7.192-1.615-16.272-5.602-21.009c-13.333-15.821-14.647-35.881-16.456-55.207
					c-4.597-49.037-8.105-98.219-11.307-147.405c-1.913-29.421-2.145-58.985-3.639-88.451c-2.16-42.831-4.782-85.634-7.217-128.449
					c-1.427-25.151-2.852-50.303-4.346-75.449c-0.316-5.35-0.837-10.698-1.485-16.007C81.674,83.709,82.434,82.011,94.236,80
					c39.775-6.78,79.541-13.618,119.396-19.76c30.956-4.773,61.972-9.241,93.071-12.512c23.553-2.48,47.273-3.292,70.938-4.055
					c36.438-1.176,72.894-2.095,109.349-2.36c51.62-0.377,103.259-0.75,154.87,0.222c31.212,0.589,62.379,3.809,93.563,5.668
					c10.409,0.619,20.844,0.445,31.246,1.044c13.972,0.801,15.694,2.949,19.353,17.786c9.656,39.159,10.683,79.479,13.039,119.627
					c3.166,54.048,6.616,108.081,9.265,162.166c2.774,57.026,11.973,113.004,21.171,168.921c5.2,31.606,13.346,62.598,20.083,93.88
					C850.217,613.624,850.312,616.766,850.867,621.708z"/>
			</defs>
			<clipPath id="SVGID_2_">
				<use xlink:href="#SVGID_1_"  overflow="visible"/>
			</clipPath>
			<g clip-path="url(#SVGID_2_)">
				<polygon fill="#ED1C24" points="890.268,210.006 878.365,0.631 36.851,62.016 48.754,271.389 				"/>
				<polygon fill="#FFFFFF" points="902.189,419.709 890.286,210.336 48.771,271.712 60.685,481.088 				"/>
				<polygon fill="#ED1C24" points="914.153,630.079 902.205,420.033 60.7,481.413 72.64,691.462 				"/>
				<path fill="none" stroke="#000000" stroke-width="0.5" d="M914.383,629.735L878.611,0.618L36.851,62.016l35.771,629.118
					L914.383,629.735L914.383,629.735z"/>
			</g>
		</g>
		<g>
			<defs>
				<path id="SVGID_3_" d="M850.867,621.708c-5.311,0.421-9.837,1.225-14.354,1.069c-26.517-0.9-53.014-2.523-79.527-2.955
					c-39.324-0.633-78.666-1.094-117.979-0.493c-55.438,0.847-110.893,2.041-166.296,4.396c-40.215,1.711-80.357,5.408-120.51,8.473
					c-39.656,3.023-79.27,6.615-118.936,9.474c-24.543,1.776-49.128,2.901-73.711,3.788c-7.484,0.271-15.013-1.23-24.271-2.076
					c-0.58-4.516-0.922-9.667-1.953-14.638c-1.494-7.192-1.615-16.272-5.602-21.009c-13.333-15.821-14.647-35.881-16.456-55.207
					c-4.597-49.037-8.105-98.219-11.307-147.405c-1.913-29.421-2.145-58.985-3.639-88.451c-2.16-42.831-4.782-85.634-7.217-128.449
					c-1.427-25.151-2.852-50.303-4.346-75.449c-0.316-5.35-0.837-10.698-1.485-16.007C81.674,83.709,82.434,82.011,94.236,80
					c39.775-6.78,79.541-13.618,119.396-19.76c30.956-4.773,61.972-9.241,93.071-12.512c23.553-2.48,47.273-3.292,70.938-4.055
					c36.438-1.176,72.894-2.095,109.349-2.36c51.62-0.377,103.259-0.75,154.87,0.222c31.212,0.589,62.379,3.809,93.563,5.668
					c10.409,0.619,20.844,0.445,31.246,1.044c13.972,0.801,15.694,2.949,19.353,17.786c9.656,39.159,10.683,79.479,13.039,119.627
					c3.166,54.048,6.616,108.081,9.265,162.166c2.774,57.026,11.973,113.004,21.171,168.921c5.2,31.606,13.346,62.598,20.083,93.88
					C850.217,613.624,850.312,616.766,850.867,621.708z"/>
			</defs>
			<clipPath id="SVGID_4_">
				<use xlink:href="#SVGID_3_"  overflow="visible"/>
			</clipPath>
			<path clip-path="url(#SVGID_4_)" d="M873.079,230.824c-33.637,1.884-67.216,3.909-100.81,5.931
				c-34.609,2.089-69.236,4.167-103.806,6.382c-38.546,2.467-76.955,5.363-115.57,7.564c-68.846,3.921-137.809,7.441-206.715,11.181
				c-29.263,1.58-58.476,3.386-87.75,4.901c-26.317,1.37-52.722,2.352-79.014,3.751c-33.193,1.765-66.335,3.736-99.449,5.748
				c-4.373,0.262-8.574,1.176-12.74,1.909c-16.55,2.928-27.926-4.666-26.098-10.371c0.837-2.628,1.281-5.288,1.655-7.942
				c0.529-3.742,4.065-5.77,12.436-6.522c3.892-0.348,7.966-0.271,11.937-0.445c29.326-1.289,58.649-2.598,87.957-3.884
				c21.384-0.938,42.781-1.805,64.146-2.81c31.273-1.481,62.501-3.115,93.778-4.576c29.249-1.363,58.565-2.456,87.786-3.921
				c34.731-1.741,69.408-3.65,104.053-5.684c23.253-1.357,46.411-3.007,69.588-4.606c20.733-1.436,41.396-3.027,62.107-4.493
				c37.903-2.681,75.89-5.146,113.72-8.027c25.985-1.98,51.67-4.725,77.655-6.718c21.162-1.621,42.545-2.593,63.842-3.903"/>
		</g>
		<g>
			<defs>
				<path id="SVGID_5_" d="M850.867,621.708c-5.311,0.421-9.837,1.225-14.354,1.069c-26.517-0.9-53.014-2.523-79.527-2.955
					c-39.324-0.633-78.666-1.094-117.979-0.493c-55.438,0.847-110.893,2.041-166.296,4.396c-40.215,1.711-80.357,5.408-120.51,8.473
					c-39.656,3.023-79.27,6.615-118.936,9.474c-24.543,1.776-49.128,2.901-73.711,3.788c-7.484,0.271-15.013-1.23-24.271-2.076
					c-0.58-4.516-0.922-9.667-1.953-14.638c-1.494-7.192-1.615-16.272-5.602-21.009c-13.333-15.821-14.647-35.881-16.456-55.207
					c-4.597-49.037-8.105-98.219-11.307-147.405c-1.913-29.421-2.145-58.985-3.639-88.451c-2.16-42.831-4.782-85.634-7.217-128.449
					c-1.427-25.151-2.852-50.303-4.346-75.449c-0.316-5.35-0.837-10.698-1.485-16.007C81.674,83.709,82.434,82.011,94.236,80
					c39.775-6.78,79.541-13.618,119.396-19.76c30.956-4.773,61.972-9.241,93.071-12.512c23.553-2.48,47.273-3.292,70.938-4.055
					c36.438-1.176,72.894-2.095,109.349-2.36c51.62-0.377,103.259-0.75,154.87,0.222c31.212,0.589,62.379,3.809,93.563,5.668
					c10.409,0.619,20.844,0.445,31.246,1.044c13.972,0.801,15.694,2.949,19.353,17.786c9.656,39.159,10.683,79.479,13.039,119.627
					c3.166,54.048,6.616,108.081,9.265,162.166c2.774,57.026,11.973,113.004,21.171,168.921c5.2,31.606,13.346,62.598,20.083,93.88
					C850.217,613.624,850.312,616.766,850.867,621.708z"/>
			</defs>
			<clipPath id="SVGID_6_">
				<use xlink:href="#SVGID_5_"  overflow="visible"/>
			</clipPath>
			<path clip-path="url(#SVGID_6_)" d="M873.079,436.345c-33.637,1.88-67.216,3.903-100.81,5.929
				c-34.609,2.089-69.236,4.17-103.806,6.38c-38.546,2.464-76.955,5.368-115.57,7.562c-68.846,3.926-137.809,7.449-206.715,11.186
				c-29.263,1.583-58.476,3.386-87.75,4.898c-26.317,1.374-52.722,2.354-79.014,3.752c-33.193,1.766-66.335,3.74-99.449,5.746
				c-4.373,0.267-8.574,1.176-12.74,1.91c-16.55,2.931-27.926-4.661-26.098-10.369c0.837-2.625,1.281-5.285,1.655-7.938
				c0.529-3.745,4.065-5.776,12.436-6.525c3.892-0.348,7.966-0.271,11.937-0.445c29.326-1.292,58.649-2.595,87.957-3.883
				c21.384-0.943,42.781-1.809,64.146-2.812c31.273-1.477,62.501-3.11,93.778-4.57c29.249-1.368,58.565-2.458,87.786-3.929
				c34.731-1.736,69.408-3.646,104.053-5.678c23.253-1.362,46.411-3.007,69.588-4.611c20.733-1.434,41.396-3.029,62.107-4.489
				c37.903-2.684,75.89-5.15,113.72-8.027c25.985-1.978,51.67-4.726,77.655-6.719c21.162-1.62,42.545-2.595,63.842-3.902"/>
		</g>
	</g>
</g>
</svg>
