<?xml version="1.0" encoding="utf-8"?>
<!-- Generator: Adobe Illustrator 16.0.1, SVG Export Plug-In . SVG Version: 6.00 Build 0)  -->
<!DOCTYPE svg PUBLIC "-//W3C//DTD SVG 1.1//EN" "http://www.w3.org/Graphics/SVG/1.1/DTD/svg11.dtd">
<svg version="1.1"
	 id="Layer_1" xmlns:dc="http://purl.org/dc/elements/1.1/" xmlns:cc="http://creativecommons.org/ns#" xmlns:rdf="http://www.w3.org/1999/02/22-rdf-syntax-ns#" xmlns:svg="http://www.w3.org/2000/svg"
	 xmlns="http://www.w3.org/2000/svg" xmlns:xlink="http://www.w3.org/1999/xlink" x="0px" y="0px" width="960.004px"
	 height="704.995px" viewBox="7292.966 -7627.931 960.004 704.995" enable-background="new 7292.966 -7627.931 960.004 704.995"
	 xml:space="preserve">
<g id="g867">
	<path id="path869" d="M7328.613-7531.528c-2.547-0.705-3.463-1.207-4.356-1.17c-19.401,0.812-25.39-4.03-30.313-24.604
		c-3.074-12.83,1.074-21.125,12.867-23.25c29-5.233,58.078-9.912,87.139-14.711c22.404-3.703,44.789-7.725,67.266-10.74
		c24.304-3.248,48.674-5.893,73.062-8.078c42.51-3.811,85.002-8.569,127.599-10.205c61.533-2.358,123.153-2.379,184.731-3.201
		c25.123-0.334,50.271-0.772,75.377-0.059c43.56,1.242,87.104,3.547,130.662,4.9c7.388,0.227,15.002-1.297,22.201-3.396
		c8.071-2.356,15.233-1.619,23.467,0.521c14.604,3.801,29.828,4.961,44.849,6.045c6.91,0.496,13.35,0.111,17.344,7.81
		c5.262,10.142,11.736,20.041,8.49,32.849c-2.178,8.61-8.982,12.688-17.873,11.641c-7.936-0.939-15.859-1.818-24.586-2.811
		c-0.545,4.512-1.588,7.646-1.162,10.49c11.102,73.299,10.898,147.486,14.492,221.417c3.014,62.125,6.746,124.393,18.881,185.451
		c4.26,21.457,8.008,43.047,11.922,64.592c1.393,7.662,4.736,13.5,10.059,18.756c9.59,9.475,15.21,21.463,14.49,36.547
		c-1.289,27.072-0.621,34.969,29.967,30.77c4.379-0.6,9.768,0.049,13.406,2.535c8.121,5.543,16.121,32.311,14.045,43.301
		c-1.996,10.559-10.902,18.158-19.844,14.885c-10.162-3.715-21.408-1.4-31.049-9.377c-4.201-3.471-11.947-1.5-18.096-1.885
		c-14.123-0.891-28.258-1.844-42.396-2.518c-22.205-1.053-44.414-1.922-66.633-2.828c-46.867-1.902-93.73-5.102-140.611-5.324
		c-53.481-0.256-107.014,1.176-160.455,3.709c-40.16,1.904-80.235,6.51-120.317,10.297c-35.883,3.389-71.767,6.951-107.588,11.113
		c-24.492,2.836-48.847,7.121-73.328,10.158c-11.655,1.451-23.465,1.314-35.201,2.246c-8.42,0.666-16.806,2.646-25.215,2.715
		c-16.703,0.131-21.724-5.062-26.099-22.709c-9.742-39.303-18.451-78.834-22.578-119.479c-1.684-16.52-3.039-33.076-4.481-49.627
		c-0.231-2.664-0.019-5.377-0.17-8.057c-3.179-52.426-6.492-104.842-9.515-157.281c-2.686-46.559-4.405-93.193-7.711-139.695
		c-2.395-33.667-6.629-67.165-10.172-100.722C7330.799-7524.125,7329.543-7527.625,7328.613-7531.528L7328.613-7531.528z
		 M8143.833-7006.222c-0.556-4.943-0.649-8.084-1.289-11.08c-6.737-31.283-14.883-62.273-20.084-93.881
		c-9.196-55.916-18.396-111.895-21.17-168.92c-2.647-54.086-6.099-108.119-9.265-162.168c-2.356-40.149-3.383-80.467-13.041-119.627
		c-3.655-14.836-5.379-16.983-19.352-17.785c-10.402-0.601-20.836-0.426-31.246-1.045c-31.186-1.858-62.352-5.078-93.564-5.668
		c-51.61-0.972-103.25-0.601-154.869-0.222c-36.455,0.265-72.91,1.185-109.35,2.359c-23.662,0.764-47.385,1.574-70.938,4.055
		c-31.101,3.271-62.115,7.738-93.07,12.515c-39.854,6.142-79.621,12.979-119.396,19.76c-11.803,2.013-12.562,3.709-10.957,16.769
		c0.648,5.311,1.17,10.658,1.484,16.008c1.494,25.146,2.92,50.297,4.348,75.449c2.435,42.814,5.058,85.618,7.217,128.447
		c1.494,29.467,1.726,59.029,3.64,88.451c3.201,49.188,6.709,98.369,11.308,147.404c1.809,19.326,3.123,39.385,16.455,55.207
		c3.985,4.738,4.106,13.818,5.604,21.008c1.029,4.973,1.373,10.123,1.953,14.641c9.258,0.846,16.787,2.346,24.271,2.076
		c24.582-0.889,49.168-2.012,73.711-3.789c39.666-2.857,79.277-6.449,118.937-9.475c40.151-3.062,80.295-6.762,120.51-8.473
		c55.401-2.354,110.856-3.549,166.295-4.396c39.313-0.6,78.655-0.139,117.979,0.494c26.515,0.432,53.013,2.055,79.527,2.953
		c4.518,0.156,9.044-0.646,14.355-1.066L8143.833-7006.222L8143.833-7006.222z"/>
	<g id="g871">
		<g>
			<g>
				<defs>
					<path id="SVGID_1_" d="M8143.833-7006.222c-5.312,0.42-9.838,1.225-14.354,1.066c-26.516-0.898-53.014-2.521-79.526-2.953
						c-39.324-0.633-78.666-1.094-117.979-0.494c-55.438,0.848-110.894,2.041-166.295,4.396
						c-40.215,1.711-80.357,5.408-120.51,8.473c-39.656,3.025-79.271,6.615-118.937,9.475c-24.543,1.777-49.129,2.9-73.711,3.789
						c-7.483,0.27-15.015-1.23-24.271-2.076c-0.58-4.518-0.922-9.668-1.953-14.641c-1.494-7.189-1.615-16.27-5.603-21.008
						c-13.334-15.82-14.647-35.881-16.457-55.207c-4.597-49.037-8.104-98.217-11.308-147.404
						c-1.912-29.42-2.145-58.984-3.639-88.451c-2.16-42.83-4.783-85.633-7.217-128.446c-1.428-25.153-2.854-50.306-4.348-75.451
						c-0.314-5.35-0.836-10.699-1.484-16.008c-1.604-13.059-0.846-14.756,10.957-16.77c39.775-6.777,79.541-13.617,119.396-19.76
						c30.955-4.771,61.973-9.24,93.069-12.512c23.554-2.48,47.274-3.291,70.938-4.058c36.438-1.176,72.894-2.095,109.349-2.356
						c51.619-0.379,103.258-0.75,154.869,0.221c31.213,0.59,62.379,3.809,93.563,5.668c10.41,0.619,20.845,0.445,31.246,1.045
						c13.974,0.801,15.695,2.949,19.353,17.785c9.658,39.158,10.685,79.479,13.041,119.627c3.166,54.049,6.615,108.08,9.265,162.166
						c2.774,57.027,11.973,113.004,21.17,168.922c5.201,31.607,13.346,62.6,20.084,93.881c0.637,2.994,0.732,6.137,1.287,11.078
						L8143.833-7006.222z"/>
				</defs>
				<clipPath id="SVGID_2_">
					<use xlink:href="#SVGID_1_"  overflow="visible"/>
				</clipPath>
				<g id="g879" clip-path="url(#SVGID_2_)">
					<polygon id="polygon881" fill="#0499C4" points="8171.331,-7627.299 7329.816,-7565.916 7341.721,-7356.542 
						8183.232,-7417.924 8183.232,-7417.924 					"/>
					<polygon id="polygon883" fill="#DF1D37" points="8183.251,-7417.595 7341.736,-7356.217 7353.65,-7146.84 8195.155,-7208.222 
						8195.155,-7208.222 					"/>
					<polygon id="polygon885" fill="#04AE65" points="8195.171,-7207.896 7353.665,-7146.517 7365.605,-6936.467 
						8207.118,-6997.851 8207.118,-6997.851 					"/>
					<path id="path887" fill="none" stroke="#000000" stroke-width="0.5" d="M8207.349-6998.195l-35.771-629.116l-841.762,61.396
						l35.771,629.119l841.762-61.396l0,0L8207.349-6998.195L8207.349-6998.195z"/>
				</g>
			</g>
		</g>
		<g>
			<g>
				<defs>
					<path id="SVGID_3_" d="M8143.833-7006.222c-5.312,0.42-9.838,1.225-14.354,1.066c-26.516-0.898-53.014-2.521-79.526-2.953
						c-39.324-0.633-78.666-1.094-117.979-0.494c-55.438,0.848-110.894,2.041-166.295,4.396
						c-40.215,1.711-80.357,5.408-120.51,8.473c-39.656,3.025-79.271,6.615-118.937,9.475c-24.543,1.777-49.129,2.9-73.711,3.789
						c-7.483,0.27-15.015-1.23-24.271-2.076c-0.58-4.518-0.922-9.668-1.953-14.641c-1.494-7.189-1.615-16.27-5.603-21.008
						c-13.334-15.82-14.647-35.881-16.457-55.207c-4.597-49.037-8.104-98.217-11.308-147.404
						c-1.912-29.42-2.145-58.984-3.639-88.451c-2.16-42.83-4.783-85.633-7.217-128.446c-1.428-25.153-2.854-50.306-4.348-75.451
						c-0.314-5.35-0.836-10.699-1.484-16.008c-1.604-13.059-0.846-14.756,10.957-16.77c39.775-6.777,79.541-13.617,119.396-19.76
						c30.955-4.771,61.973-9.24,93.069-12.512c23.554-2.48,47.274-3.291,70.938-4.058c36.438-1.176,72.894-2.095,109.349-2.356
						c51.619-0.379,103.258-0.75,154.869,0.221c31.213,0.59,62.379,3.809,93.563,5.668c10.41,0.619,20.845,0.445,31.246,1.045
						c13.974,0.801,15.695,2.949,19.353,17.785c9.658,39.158,10.685,79.479,13.041,119.627c3.166,54.049,6.615,108.08,9.265,162.166
						c2.774,57.027,11.973,113.004,21.17,168.922c5.201,31.607,13.346,62.6,20.084,93.881c0.637,2.994,0.732,6.137,1.287,11.078
						L8143.833-7006.222z"/>
				</defs>
				<clipPath id="SVGID_4_">
					<use xlink:href="#SVGID_3_"  overflow="visible"/>
				</clipPath>
				<path id="path889" clip-path="url(#SVGID_4_)" d="M8166.044-7397.105c-33.638,1.883-67.215,3.908-100.81,5.932
					c-34.608,2.09-69.235,4.168-103.805,6.383c-38.547,2.465-76.955,5.361-115.57,7.562c-68.846,3.92-137.809,7.441-206.715,11.182
					c-29.264,1.58-58.477,3.385-87.75,4.9c-26.315,1.369-52.723,2.352-79.014,3.75c-33.193,1.766-66.336,3.738-99.449,5.75
					c-4.373,0.262-8.574,1.176-12.74,1.908c-16.551,2.93-27.926-4.666-26.1-10.371c0.838-2.627,1.28-5.287,1.655-7.941
					c0.528-3.742,4.063-5.77,12.437-6.521c3.893-0.348,7.965-0.271,11.938-0.443c29.326-1.289,58.646-2.6,87.957-3.885
					c21.383-0.938,42.779-1.807,64.146-2.811c31.271-1.48,62.5-3.115,93.777-4.576c29.248-1.361,58.564-2.455,87.785-3.92
					c34.732-1.742,69.408-3.65,104.055-5.686c23.252-1.355,46.41-3.006,69.588-4.605c20.731-1.437,41.396-3.024,62.106-4.492
					c37.903-2.683,75.89-5.146,113.72-8.026c25.985-1.98,51.67-4.726,77.655-6.717c21.162-1.621,42.544-2.592,63.841-3.902"/>
			</g>
		</g>
		<g>
			<g>
				<defs>
					<path id="SVGID_5_" d="M8143.833-7006.222c-5.312,0.42-9.838,1.225-14.354,1.066c-26.516-0.898-53.014-2.521-79.526-2.953
						c-39.324-0.633-78.666-1.094-117.979-0.494c-55.438,0.848-110.894,2.041-166.295,4.396
						c-40.215,1.711-80.357,5.408-120.51,8.473c-39.656,3.025-79.271,6.615-118.937,9.475c-24.543,1.777-49.129,2.9-73.711,3.789
						c-7.483,0.27-15.015-1.23-24.271-2.076c-0.58-4.518-0.922-9.668-1.953-14.641c-1.494-7.189-1.615-16.27-5.603-21.008
						c-13.334-15.82-14.647-35.881-16.457-55.207c-4.597-49.037-8.104-98.217-11.308-147.404
						c-1.912-29.42-2.145-58.984-3.639-88.451c-2.16-42.83-4.783-85.633-7.217-128.446c-1.428-25.153-2.854-50.306-4.348-75.451
						c-0.314-5.35-0.836-10.699-1.484-16.008c-1.604-13.059-0.846-14.756,10.957-16.77c39.775-6.777,79.541-13.617,119.396-19.76
						c30.955-4.771,61.973-9.24,93.069-12.512c23.554-2.48,47.274-3.291,70.938-4.058c36.438-1.176,72.894-2.095,109.349-2.356
						c51.619-0.379,103.258-0.75,154.869,0.221c31.213,0.59,62.379,3.809,93.563,5.668c10.41,0.619,20.845,0.445,31.246,1.045
						c13.974,0.801,15.695,2.949,19.353,17.785c9.658,39.158,10.685,79.479,13.041,119.627c3.166,54.049,6.615,108.08,9.265,162.166
						c2.774,57.027,11.973,113.004,21.17,168.922c5.201,31.607,13.346,62.6,20.084,93.881c0.637,2.994,0.732,6.137,1.287,11.078
						L8143.833-7006.222z"/>
				</defs>
				<clipPath id="SVGID_6_">
					<use xlink:href="#SVGID_5_"  overflow="visible"/>
				</clipPath>
				<path id="path891" clip-path="url(#SVGID_6_)" d="M8166.044-7191.586c-33.638,1.881-67.215,3.902-100.81,5.93
					c-34.608,2.088-69.235,4.17-103.805,6.379c-38.547,2.465-76.955,5.369-115.57,7.562c-68.846,3.926-137.809,7.449-206.715,11.186
					c-29.264,1.582-58.477,3.387-87.75,4.898c-26.315,1.375-52.723,2.354-79.014,3.754c-33.193,1.764-66.336,3.738-99.449,5.744
					c-4.373,0.266-8.574,1.176-12.74,1.91c-16.551,2.932-27.926-4.66-26.1-10.369c0.838-2.625,1.28-5.283,1.655-7.938
					c0.528-3.746,4.063-5.775,12.437-6.525c3.893-0.348,7.965-0.271,11.938-0.443c29.326-1.293,58.646-2.596,87.957-3.885
					c21.383-0.941,42.779-1.809,64.146-2.811c31.271-1.479,62.5-3.111,93.777-4.57c29.248-1.369,58.564-2.459,87.785-3.928
					c34.732-1.738,69.408-3.646,104.055-5.678c23.252-1.363,46.41-3.008,69.588-4.611c20.731-1.432,41.396-3.029,62.106-4.488
					c37.903-2.686,75.89-5.15,113.72-8.027c25.985-1.979,51.67-4.727,77.655-6.719c21.162-1.621,42.544-2.596,63.841-3.902"/>
			</g>
		</g>
	</g>
</g>
<circle id="circle3949" fill="#FFFFFF" cx="7720.88" cy="-7274.804" r="68.857"/>
<circle id="circle3951" fill="#DF1D37" cx="7735.417" cy="-7274.802" r="57.382"/>
<path id="path3953" fill="#FFFFFF" d="M7824.458-7247.771l-19.735-9.365l-7.306,20.588l-7.336-20.578l-19.724,9.393l9.365-19.736
	l-20.59-7.305l20.58-7.334l-9.395-19.725l19.736,9.365l7.305-20.59l7.334,20.58l19.727-9.393l-9.365,19.736l20.588,7.305
	l-20.578,7.334L7824.458-7247.771z"/>
</svg>
