<?xml version="1.0" encoding="utf-8"?>
<!-- Generator: Adobe Illustrator 16.0.1, SVG Export Plug-In . SVG Version: 6.00 Build 0)  -->
<!DOCTYPE svg PUBLIC "-//W3C//DTD SVG 1.1//EN" "http://www.w3.org/Graphics/SVG/1.1/DTD/svg11.dtd">
<svg version="1.1" id="Layer_1" xmlns="http://www.w3.org/2000/svg" xmlns:xlink="http://www.w3.org/1999/xlink" x="0px" y="0px"
	 width="959.25px" height="705.25px" viewBox="4.375 0.558 959.25 705.25" enable-background="new 4.375 0.558 959.25 705.25"
	 xml:space="preserve">
<rect x="45.615" y="28.655" fill="#FFFFFF" width="171.236" height="657.121"/>
<rect x="215.182" y="21.156" fill="#ED3424" stroke="#000000" stroke-width="0.25" width="721.156" height="445.64"/>
<rect x="215.182" y="466.795" fill="#00B084" stroke="#000000" stroke-width="0.25" width="721.156" height="218.98"/>
<g>
	<g>
		<g>
			<polygon fill="#ED3424" points="95.427,143.394 95.427,151.514 98.914,151.514 98.914,160.732 102.953,160.732 102.953,170.127 
				98.914,170.127 98.914,179.343 95.427,179.343 95.427,187.466 89.922,187.466 89.922,179.343 86.434,179.343 86.434,170.127 
				82.112,170.127 82.112,160.732 86.434,160.732 86.434,151.514 89.922,151.514 89.922,143.394 			"/>
			<polygon fill="#ED3424" points="95.427,570.95 95.427,562.829 98.914,562.829 98.914,553.61 102.953,553.61 102.953,544.217 
				98.914,544.217 98.914,534.999 95.427,534.999 95.427,526.879 89.922,526.879 89.922,534.999 86.434,534.999 86.434,544.217 
				82.112,544.217 82.112,553.61 86.434,553.61 86.434,562.829 89.922,562.829 89.922,570.95 			"/>
			<polygon fill="#ED3424" points="136.445,108.934 136.445,121.225 141.859,121.225 141.859,134.393 148.099,134.393 
				148.099,144.051 155.072,144.051 155.072,156.341 160.211,156.341 160.211,144.051 167.187,144.051 167.187,134.393 
				173.424,134.393 173.424,121.225 178.84,121.225 178.84,108.934 184.356,108.934 184.356,92.252 178.84,92.252 178.84,78.206 
				173.424,78.206 173.424,61.304 167.187,61.304 167.187,50.866 148.099,50.866 148.099,61.304 141.859,61.304 141.859,78.206 
				136.445,78.206 136.445,92.252 130.023,92.252 130.023,78.206 124.609,78.206 124.609,61.304 118.369,61.304 118.369,50.866 
				99.282,50.866 99.282,61.304 93.042,61.304 93.042,78.206 87.628,78.206 87.628,92.252 82.112,92.252 82.112,108.934 
				87.628,108.934 87.628,121.225 93.042,121.225 93.042,134.393 99.282,134.393 99.282,144.051 106.257,144.051 106.257,156.341 
				111.394,156.341 111.394,144.051 118.369,144.051 118.369,134.393 124.609,134.393 124.609,121.225 130.023,121.225 
				130.023,108.934 			"/>
			<polygon fill="#ED3424" points="171.039,143.394 171.039,151.514 167.552,151.514 167.552,160.732 163.515,160.732 
				163.515,170.127 167.552,170.127 167.552,179.343 171.039,179.343 171.039,187.466 176.545,187.466 176.545,179.343 
				180.032,179.343 180.032,170.127 184.356,170.127 184.356,160.732 180.032,160.732 180.032,151.514 176.545,151.514 
				176.545,143.394 			"/>
			<polygon fill="#ED3424" points="135.069,170.127 135.069,179.343 138.555,179.343 138.555,187.466 144.062,187.466 
				144.062,179.343 147.548,179.343 147.548,170.127 151.585,170.127 151.585,160.732 147.548,160.732 147.548,151.514 
				144.062,151.514 144.062,143.394 138.555,143.394 138.555,151.514 135.069,151.514 135.069,160.732 131.399,160.732 
				131.399,151.514 127.913,151.514 127.913,143.394 122.406,143.394 122.406,151.514 118.919,151.514 118.919,160.732 
				114.88,160.732 114.88,170.127 118.919,170.127 118.919,179.343 122.406,179.343 122.406,187.466 127.913,187.466 
				127.913,179.343 131.399,179.343 131.399,170.127 			"/>
			<polygon fill="#ED3424" points="136.445,605.411 136.445,593.118 141.859,593.118 141.859,579.95 148.099,579.95 
				148.099,570.292 155.072,570.292 155.072,558 160.211,558 160.211,570.292 167.187,570.292 167.187,579.95 173.424,579.95 
				173.424,593.118 178.84,593.118 178.84,605.411 184.356,605.411 184.356,622.09 178.84,622.09 178.84,636.135 173.424,636.135 
				173.424,653.038 167.187,653.038 167.187,663.567 148.099,663.567 148.099,653.038 141.859,653.038 141.859,636.135 
				136.445,636.135 136.445,622.09 130.023,622.09 130.023,636.135 124.609,636.135 124.609,653.038 118.369,653.038 
				118.369,663.567 99.282,663.567 99.282,653.038 93.042,653.038 93.042,636.135 87.628,636.135 87.628,622.09 82.112,622.09 
				82.112,605.411 87.628,605.411 87.628,593.118 93.042,593.118 93.042,579.95 99.282,579.95 99.282,570.292 106.257,570.292 
				106.257,558 111.394,558 111.394,570.292 118.369,570.292 118.369,579.95 124.609,579.95 124.609,593.118 130.023,593.118 
				130.023,605.411 			"/>
			<polygon fill="#ED3424" points="171.039,570.95 171.039,562.829 167.552,562.829 167.552,553.61 163.515,553.61 163.515,544.217 
				167.552,544.217 167.552,534.999 171.039,534.999 171.039,526.879 176.545,526.879 176.545,534.999 180.032,534.999 
				180.032,544.217 184.356,544.217 184.356,553.61 180.032,553.61 180.032,562.829 176.545,562.829 176.545,570.95 			"/>
			<polygon fill="#ED3424" points="135.069,553.61 135.069,562.829 138.555,562.829 138.555,570.95 144.062,570.95 144.062,562.829 
				147.548,562.829 147.548,553.61 151.585,553.61 151.585,544.217 147.548,544.217 147.548,534.999 144.062,534.999 
				144.062,526.879 138.555,526.879 138.555,534.999 135.069,534.999 135.069,544.217 131.399,544.217 131.399,534.999 
				127.913,534.999 127.913,526.879 122.406,526.879 122.406,534.999 118.919,534.999 118.919,544.217 114.88,544.217 
				114.88,553.61 118.919,553.61 118.919,562.829 122.406,562.829 122.406,570.95 127.913,570.95 127.913,562.829 131.399,562.829 
				131.399,553.61 			"/>
			<polygon fill="#ED3424" points="137.455,485.79 137.455,501.153 143.512,501.153 143.512,515.202 150.118,515.202 
				150.118,528.59 154.339,528.59 154.339,536.709 160.579,536.709 160.579,528.59 164.798,528.59 164.798,516.079 173.424,516.079 
				173.424,501.153 180.214,501.153 180.214,488.534 184.356,488.534 184.356,469.987 180.214,469.987 180.214,457.038 
				174.342,457.038 174.342,439.04 168.837,439.04 168.837,426.09 162.597,426.09 162.597,439.04 156.357,439.04 156.357,457.038 
				152.321,457.038 152.321,469.987 158.193,469.987 158.193,488.534 150.853,488.534 150.853,476.35 145.713,476.35 
				145.713,454.184 139.105,454.184 139.105,437.502 145.345,437.502 145.345,424.774 151.22,424.774 151.22,409.409 
				157.458,409.409 157.458,393.168 162.965,393.168 162.965,378.241 169.02,378.241 169.02,392.729 173.792,392.729 
				173.792,404.581 178.196,404.581 178.196,419.944 181.317,419.944 181.317,431.795 184.356,431.795 184.356,387.022 
				179.849,387.022 179.849,372.098 174.527,372.098 174.527,362.219 169.57,362.219 169.57,352.124 174.527,352.124 
				174.527,342.245 179.849,342.245 179.849,327.321 184.356,327.321 184.356,282.547 181.317,282.547 181.317,294.398 
				178.196,294.398 178.196,309.762 173.792,309.762 173.792,321.613 169.02,321.613 169.02,336.101 162.965,336.101 
				162.965,321.175 157.458,321.175 157.458,304.934 151.22,304.934 151.22,289.569 145.345,289.569 145.345,276.84 139.105,276.84 
				139.105,260.158 145.713,260.158 145.713,237.989 150.853,237.989 150.853,225.81 158.193,225.81 158.193,244.356 
				152.321,244.356 152.321,257.307 156.357,257.307 156.357,275.303 162.597,275.303 162.597,288.252 168.837,288.252 
				168.837,275.303 174.342,275.303 174.342,257.307 180.214,257.307 180.214,244.356 184.356,244.356 184.356,225.81 
				180.214,225.81 180.214,213.189 173.424,213.189 173.424,198.264 164.798,198.264 164.798,185.752 160.579,185.752 
				160.579,177.632 154.339,177.632 154.339,185.752 150.118,185.752 150.118,199.142 143.512,199.142 143.512,213.189 
				137.455,213.189 137.455,228.553 129.013,228.553 129.013,213.189 122.957,213.189 122.957,199.142 116.349,199.142 
				116.349,185.752 112.129,185.752 112.129,177.632 105.889,177.632 105.889,185.752 101.667,185.752 101.667,198.264 
				93.042,198.264 93.042,213.189 86.251,213.189 86.251,225.81 82.112,225.81 82.112,244.356 86.251,244.356 86.251,257.307 
				92.124,257.307 92.124,275.303 97.631,275.303 97.631,288.252 103.871,288.252 103.871,275.303 110.111,275.303 110.111,257.307 
				114.147,257.307 114.147,244.356 108.273,244.356 108.273,225.81 115.616,225.81 115.616,237.989 120.753,237.989 
				120.753,260.158 127.361,260.158 127.361,276.84 121.121,276.84 121.121,289.569 115.248,289.569 115.248,304.934 
				109.008,304.934 109.008,321.175 103.503,321.175 103.503,336.101 97.446,336.101 97.446,321.613 92.674,321.613 92.674,309.762 
				88.27,309.762 88.27,294.398 85.151,294.398 85.151,282.547 82.112,282.547 82.112,327.321 86.619,327.321 86.619,342.245 
				91.941,342.245 91.941,352.124 96.896,352.124 96.896,362.219 91.941,362.219 91.941,372.098 86.619,372.098 86.619,387.022 
				82.112,387.022 82.112,431.795 85.151,431.795 85.151,419.944 88.27,419.944 88.27,404.581 92.674,404.581 92.674,392.729 
				97.446,392.729 97.446,378.241 103.503,378.241 103.503,393.168 109.008,393.168 109.008,409.409 115.248,409.409 
				115.248,424.774 121.121,424.774 121.121,437.502 127.361,437.502 127.361,454.184 120.753,454.184 120.753,476.35 
				115.616,476.35 115.616,488.534 108.273,488.534 108.273,469.987 114.147,469.987 114.147,457.038 110.111,457.038 
				110.111,439.04 103.871,439.04 103.871,426.09 97.631,426.09 97.631,439.04 92.124,439.04 92.124,457.038 86.251,457.038 
				86.251,469.987 82.112,469.987 82.112,488.534 86.251,488.534 86.251,501.153 93.042,501.153 93.042,516.079 101.667,516.079 
				101.667,528.59 105.889,528.59 105.889,536.709 112.129,536.709 112.129,528.59 116.349,528.59 116.349,515.202 122.957,515.202 
				122.957,501.153 129.013,501.153 129.013,485.79 			"/>
			<polygon fill="#FFFFFF" points="137.455,429.163 137.455,415.993 142.227,415.993 142.227,402.825 147.181,402.825 
				147.181,387.022 153.421,387.022 153.421,371.659 159.661,371.659 159.661,362.219 164.065,362.219 164.065,352.124 
				159.661,352.124 159.661,342.687 153.421,342.687 153.421,327.321 147.181,327.321 147.181,311.518 142.227,311.518 
				142.227,298.349 137.455,298.349 137.455,285.181 129.013,285.181 129.013,298.349 124.242,298.349 124.242,311.518 
				119.287,311.518 119.287,327.321 113.047,327.321 113.047,342.687 106.807,342.687 106.807,352.124 102.403,352.124 
				102.403,362.219 106.807,362.219 106.807,371.659 113.047,371.659 113.047,387.022 119.287,387.022 119.287,402.825 
				124.242,402.825 124.242,415.993 129.013,415.993 129.013,429.163 			"/>
			<polygon fill="#ED3424" points="136.169,369.461 136.169,376.487 140.941,376.487 140.941,384.387 145.345,384.387 
				145.345,369.461 140.941,369.461 140.941,362 136.904,362 136.904,352.34 140.941,352.34 140.941,344.881 145.345,344.881 
				145.345,329.954 140.941,329.954 140.941,337.856 136.169,337.856 136.169,344.881 130.296,344.881 130.296,337.856 
				125.527,337.856 125.527,329.954 121.121,329.954 121.121,344.881 125.527,344.881 125.527,352.34 129.564,352.34 129.564,362 
				125.527,362 125.527,369.461 121.121,369.461 121.121,384.387 125.527,384.387 125.527,376.487 130.296,376.487 130.296,369.461 
							"/>
		</g>
		<g>
			<polygon fill="#FFFFFF" points="111.579,132.198 111.579,121.004 116.716,121.004 116.716,107.836 122.221,107.836 
				122.221,93.351 116.716,93.351 116.716,80.18 111.579,80.18 111.579,68.987 106.072,68.987 106.072,80.18 100.935,80.18 
				100.935,93.351 95.427,93.351 95.427,107.836 100.935,107.836 100.935,121.004 106.072,121.004 106.072,132.198 			"/>
			<polygon fill="#FFFFFF" points="111.579,582.143 111.579,593.338 116.716,593.338 116.716,606.506 122.221,606.506 
				122.221,620.995 116.716,620.995 116.716,634.163 111.579,634.163 111.579,645.354 106.072,645.354 106.072,634.163 
				100.935,634.163 100.935,620.995 95.427,620.995 95.427,606.506 100.935,606.506 100.935,593.338 106.072,593.338 
				106.072,582.143 			"/>
			<polygon fill="#FFFFFF" points="154.889,132.198 154.889,121.004 149.75,121.004 149.75,107.836 144.245,107.836 144.245,93.351 
				149.75,93.351 149.75,80.18 154.889,80.18 154.889,68.987 160.394,68.987 160.394,80.18 165.534,80.18 165.534,93.351 
				171.039,93.351 171.039,107.836 165.534,107.836 165.534,121.004 160.394,121.004 160.394,132.198 			"/>
			<polygon fill="#FFFFFF" points="154.889,582.143 154.889,593.338 149.75,593.338 149.75,606.506 144.245,606.506 
				144.245,620.995 149.75,620.995 149.75,634.163 154.889,634.163 154.889,645.354 160.394,645.354 160.394,634.163 
				165.534,634.163 165.534,620.995 171.039,620.995 171.039,606.506 165.534,606.506 165.534,593.338 160.394,593.338 
				160.394,582.143 			"/>
		</g>
		<g>
			<rect x="82.112" y="61.444" fill="#ED3424" width="4.681" height="13.469"/>
			<rect x="131.214" y="126.144" fill="#ED3424" width="4.039" height="13.397"/>
			<rect x="131.214" y="50.866" fill="#ED3424" width="4.039" height="14.722"/>
			<rect x="131.214" y="312.556" fill="#ED3424" width="4.039" height="14.794"/>
			<rect x="82.112" y="126.344" fill="#ED3424" width="4.681" height="13.396"/>
			<rect x="82.112" y="192.206" fill="#ED3424" width="4.681" height="13.213"/>
			<rect x="82.112" y="261.822" fill="#ED3424" width="4.681" height="12.937"/>
			<rect x="82.112" y="640.229" fill="#ED3424" width="4.681" height="12.67"/>
			<rect x="106.852" y="606.393" fill="#ED3424" width="4.037" height="14.797"/>
			<rect x="131.214" y="574.645" fill="#ED3424" width="4.039" height="13.785"/>
			<rect x="131.214" y="648.754" fill="#ED3424" width="4.039" height="14.812"/>
			<rect x="131.214" y="386.993" fill="#ED3424" width="4.039" height="14.797"/>
			<rect x="82.112" y="574.44" fill="#ED3424" width="4.681" height="13.785"/>
			<rect x="82.112" y="508.063" fill="#ED3424" width="4.681" height="14.797"/>
			<rect x="82.112" y="439.995" fill="#ED3424" width="4.681" height="13.988"/>
			<rect x="82.112" y="350.113" fill="#ED3424" width="4.681" height="14.194"/>
			<rect x="114.147" y="350.113" fill="#ED3424" width="4.037" height="14.194"/>
			<rect x="179.673" y="61.444" fill="#ED3424" width="4.683" height="13.469"/>
			<rect x="155.578" y="93.152" fill="#ED3424" width="4.037" height="14.797"/>
			<rect x="179.673" y="126.344" fill="#ED3424" width="4.683" height="13.396"/>
			<rect x="179.673" y="192.206" fill="#ED3424" width="4.683" height="13.213"/>
			<rect x="179.673" y="261.822" fill="#ED3424" width="4.683" height="12.937"/>
			<rect x="179.673" y="640.229" fill="#ED3424" width="4.683" height="12.67"/>
			<rect x="155.578" y="606.393" fill="#ED3424" width="4.037" height="14.797"/>
			<rect x="179.673" y="574.44" fill="#ED3424" width="4.683" height="13.785"/>
			<rect x="179.673" y="508.063" fill="#ED3424" width="4.683" height="14.797"/>
			<rect x="179.673" y="439.995" fill="#ED3424" width="4.683" height="13.988"/>
			<rect x="179.673" y="350.113" fill="#ED3424" width="4.683" height="14.194"/>
			<rect x="148.282" y="350.113" fill="#ED3424" width="4.039" height="14.194"/>
			<rect x="131.214" y="191.3" fill="#ED3424" width="4.039" height="13.215"/>
			<rect x="131.214" y="509.079" fill="#ED3424" width="4.039" height="14.795"/>
		</g>
		<g>
			<rect x="91.166" y="161.157" fill="#FFFFFF" width="3.019" height="8.542"/>
			<rect x="123.649" y="161.157" fill="#FFFFFF" width="3.019" height="8.542"/>
			<rect x="91.166" y="544.643" fill="#FFFFFF" width="3.019" height="8.541"/>
			<rect x="123.649" y="544.643" fill="#FFFFFF" width="3.019" height="8.541"/>
			<rect x="172.284" y="161.157" fill="#FFFFFF" width="3.017" height="8.542"/>
			<rect x="139.8" y="161.157" fill="#FFFFFF" width="3.019" height="8.542"/>
			<rect x="172.284" y="544.643" fill="#FFFFFF" width="3.017" height="8.541"/>
			<rect x="139.8" y="544.643" fill="#FFFFFF" width="3.019" height="8.541"/>
		</g>
	</g>
	<rect x="106.852" y="93.152" fill="#FFFFFF" width="4.037" height="14.797"/>
</g>
<path fill-rule="evenodd" clip-rule="evenodd" stroke="#231F20" stroke-width="0.25" stroke-miterlimit="10" d="M949.325,469.473
	c-28.578,1.174-57.071,2.522-85.832,3.1c-30.896,0.077-61.809,0.104-92.743,0.33c-30.93,0.037-61.876-0.045-92.816-0.434
	c-37.328-0.204-74.663-0.936-112.018-1.64c-37.34-0.426-74.672-1.316-112.015-1.719c-22.248-0.425-44.507-0.324-66.749-0.33
	c-22.242,0.095-44.445-0.016-66.622,0.461c-35.312,0.161-70.417,2.173-108.373,3.152l-1.256-14.634
	c17.929-0.289,35.854-0.589,53.812-0.506c35.217,0.318,70.449-0.308,105.666,0.095c35.218,0.14,70.435,0.371,105.671,0.44
	c38.295,0.668,76.622,0.635,114.935,1.202c38.319,0.326,76.641,0.576,114.954,1.15c26.121,0.203,52.238,0.483,78.352,0.058
	c26.1,0.359,52.209-0.711,78.262-0.654c27.938-0.396,55.731-1.312,83.178-2.231L949.325,469.473z"/>
<path fill-rule="evenodd" clip-rule="evenodd" stroke="#231F20" stroke-width="0.25" stroke-miterlimit="10" d="M216.067,15.48
	c1.227,26.32,2.628,52.563,3.259,79.051c0.135,28.452,0.218,56.921,0.502,85.41c0.095,28.484,0.07,56.983-0.261,85.477
	c-0.135,34.375-0.797,68.757-1.432,103.156c-0.356,34.387-1.177,68.766-1.51,103.153c-0.384,20.488-0.242,40.988-0.207,61.471
	c0.137,20.483,0.067,40.93,0.585,61.354c0.227,32.519,2.304,64.853,3.354,99.809l-14.63,1.131
	c-0.323-16.513-0.656-33.021-0.606-49.557c0.253-32.433-0.438-64.88-0.102-97.312c0.074-32.433,0.24-64.864,0.244-97.314
	c0.597-35.266,0.493-70.562,0.989-105.843c0.255-35.289,0.434-70.58,0.937-105.862c0.154-24.056,0.386-48.106-0.088-72.156
	c0.311-24.035-0.808-48.082-0.8-72.074c-0.447-25.729-1.415-51.327-2.386-76.604L216.067,15.48z"/>
<g>
	<path stroke="#231F20" stroke-width="0.25" stroke-miterlimit="10" d="M955.753,485.328c0.937-37.265,1.753-74.542,2.912-111.821
		c0.802-24.852,2.068-49.7,3.113-74.552c1.018-24.68,1.815-49.396,1.712-74.571c-0.069-16.731-0.346-33.462-0.715-50.323
		c-0.391-16.856-0.905-33.012-1.386-51.1c-0.533-16.164-1.03-34.35-1.516-50.725c-0.464-17.257-0.866-34.475-1.111-50.725
		C958.554,4.679,949.559,1.003,929,1.703c-15.089,1.039-30.478-0.293-45.722-0.298c-22.158-0.223-44.334,0.209-66.481-0.47
		c-22.147-0.591-44.329,0.041-66.495,0.086c-22.159-0.277-44.328-0.026-66.497,0.059c-22.186,0.867-44.327,0.752-66.451,0.034
		c-27.409,0.276-54.832,1.023-82.207,0.812c-27.417,0.557-54.797,0.541-82.175,0.398c-27.394,0.476-54.814,1.193-82.163,0.808
		c-27.384,0.065-54.778,0.532-82.171,0.948c-27.942-0.298-55.911,0.437-83.86,1.247c-27.917-0.487-55.855,0.628-83.802,1.961
		c0,0-122.181-8.283-116.268,17.765C10.62,51.1,26.163,371.289,17.918,511.414c-2.586,43.951-56.2,198.058,136.524,192.852
		c59.265-1.602,118.916,1.726,178.294,1.395c79.862-0.467,159.612-2.754,239.498-3.398c51.893-0.429,103.947,1.328,155.862,0.813
		c63.974-0.61,127.845-3.444,191.843-3.469c22.916-0.009,31.465-3.831,31.541-21.551
		C951.716,613.767,954.14,549.564,955.753,485.328z M75.128,244.112c-0.865-23.302-1.944-45.421-3.23-69.015
		c-1.31-23.337-2.818-46.909-4.63-69.003c-1.238-14.824-6.149-31.201-9.821-47.629c-3.142-12.758,2.239-20.992,23.108-21.129
		c26.182,0.044,52.401-1.247,78.576-0.914c26.206-0.829,52.354-0.29,78.554-1.57c28.972-1.114,57.915-1.767,86.853-2.285
		c28.939-0.602,57.903-2.115,86.86-2.568c28.924,0.028,57.899-1.84,86.875-2.231c28.972-1.054,57.938-1.126,86.918-0.992
		c26.705-0.464,53.401,0.036,80.125,0.333c26.706,0.94,53.439,0.893,80.174,1.538c26.752-0.098,53.473,1.109,80.208,1.686
		c26.715,0.644,53.447,1.332,80.161,1.977c19.348-0.153,20.151,8.356,20.343,19.855c0.702,30.063,1.383,60.869,2.283,91.06
		c0.874,30.359,1.945,60.337,3.337,91.088L921.25,462.788l0.366,0.09c-1.629,30.606-3.966,61.21-5.552,91.812
		c-1.489,29.26-3.365,58.523-3.089,87.823c0.119,15.71-6.442,21.82-29.108,22.31c-117.568,2.501-234.94,6.633-352.51,9.165
		c-41.877,0.91-84.048-1.593-126.041-1.688c-70.426-0.179-140.858-0.128-211.231,0.696c-35.004,0.413-70.036,1.897-104.779,4.568
		c-21.133,1.633-26.785-3.978-26.794-18.452c-0.093-61.271-1.116-122.588-2.039-183.892c-0.075-4.752-1.995-9.523-3.84-17.732
		l15.709-177.881l2.417-30.582"/>
	<line stroke="#231F20" stroke-width="0.25" stroke-miterlimit="10" x1="921.096" y1="466.105" x2="921.25" y2="462.788"/>
</g>
</svg>
