<?xml version="1.0" encoding="utf-8"?>
<!-- Generator: Adobe Illustrator 16.0.1, SVG Export Plug-In . SVG Version: 6.00 Build 0)  -->
<!DOCTYPE svg PUBLIC "-//W3C//DTD SVG 1.1//EN" "http://www.w3.org/Graphics/SVG/1.1/DTD/svg11.dtd">
<svg version="1.1" id="Layer_1" xmlns="http://www.w3.org/2000/svg" xmlns:xlink="http://www.w3.org/1999/xlink" x="0px" y="0px"
	 width="960px" height="705px" viewBox="0 0 960 705" enable-background="new 0 0 960 705" xml:space="preserve">
<g>
	<g>
		<defs>
			<path id="SVGID_1_" d="M33.036,122.952c-2.886,3.109,35.082,518.608,35.082,518.608l838.303-63.703L887.263,25.502
				C887.263,25.502,36.634,125.285,33.036,122.952z"/>
		</defs>
		<clipPath id="SVGID_2_">
			<use xlink:href="#SVGID_1_"  overflow="visible"/>
		</clipPath>
		<g clip-path="url(#SVGID_2_)">
			<g>
				<path fill="none" stroke="#000000" stroke-width="0.5" d="M924.861,585.412L870.767,19.973l-852.11,94.793l54.102,565.436
					L924.861,585.412L924.861,585.412z"/>
				<polygon points="356.786,647.668 302.775,83.163 18.657,114.766 72.668,679.289 				"/>
				<path d="M187.721,381.216"/>
				<polygon fill="#FFF200" points="640.693,616.561 586.691,52.039 302.556,83.644 356.575,648.161 				"/>
				<path fill="#FFF200" d="M471.618,350.103"/>
				<polygon fill="#ED1C24" points="924.517,584.52 870.507,20.003 586.378,51.611 640.373,616.128 				"/>
				<path fill="#ED1C24" d="M755.455,318.056"/>
				<path fill="none" stroke="#000000" stroke-width="0.5" d="M924.861,585.412L870.767,19.973l-852.11,94.793l54.102,565.436
					L924.861,585.412L924.861,585.412z"/>
			</g>
			<path d="M360.482,605.484c1.521,9.711,0.957,14.218-2.341,16.85c-1.175,0.925-2.431,1.454-3.688,1.738
				c-8.516,1.876-10.036-4.743-11.84-23.342c-4.79-49.938-9.485-99.895-14.434-149.783c-4.099-41.327-8.541-82.569-12.704-123.881
				c-3.352-33.21-6.521-66.5-9.75-99.74c-3.397-34.989-6.785-69.964-10.108-104.967c-0.457-4.876-0.813-10.092-0.655-14.756
				c0.345-10.26,3.139-17.709,5.964-17.192c5.153,0.97,9.252,8.566,10.673,20.679c1.081,9.35,1.896,18.854,2.632,28.326
				c2.432,31.565,4.533,63.185,7.229,94.71c2.696,31.498,5.856,62.915,8.952,94.318c4.426,44.896,8.878,89.792,13.558,134.61
				c3.455,33.15,7.287,66.18,10.957,99.242"/>
			<path d="M649.498,605.484c1.52,9.711,0.955,14.218-2.342,16.85c-1.166,0.925-2.422,1.454-3.688,1.738
				c-8.516,1.876-10.035-4.743-11.832-23.342c-4.789-49.938-9.504-99.895-14.441-149.783c-4.096-41.327-8.543-82.569-12.693-123.881
				c-3.361-33.21-6.529-66.5-9.762-99.74c-3.389-34.989-6.775-69.964-10.107-104.967c-0.457-4.876-0.803-10.092-0.658-14.756
				c0.348-10.26,3.15-17.709,5.977-17.192c5.15,0.97,9.25,8.566,10.664,20.679c1.084,9.35,1.893,18.854,2.631,28.326
				c2.441,31.565,4.537,63.185,7.232,94.71c2.691,31.498,5.852,62.915,8.941,94.318c4.443,44.896,8.889,89.792,13.568,134.61
				c3.459,33.15,7.285,66.18,10.965,99.242"/>
		</g>
	</g>
</g>
<path d="M808.06,604.463c-17.756,0-35.777-0.412-53.773,0.098c-24.803,0.698-49.604,2.022-74.4,3.202
	c-50.084,2.396-100.162,5.057-150.26,7.286c-63.144,2.798-125.913,9.524-188.56,18.324c-38.411,5.4-77.021,8.924-115.472,14.061
	c-34.611,4.625-69.107,10.243-103.641,15.584c-3.744,0.579-7.367,2.092-10.975,3.397c-8.65,3.132-16.909,4.743-22.811-7.629
	c-4.044,8.327-1.594,14.601-0.247,20.799c2.424,11.164-0.256,16.241-10.591,18.893c-3.706,0.942-7.551,1.434-11.354,1.621
	c-25.699,1.306-28.833-6.354-30.099-27.633c-3.404-57.123-6.539-114.271-10.391-171.37c-3.17-47.301-7.423-94.52-10.818-141.806
	c-2.731-38.027-4.936-76.094-7.304-114.14c-2.485-40.025-4.972-80.051-7.22-120.095c-0.312-5.578-0.221-11.534,1.256-16.801
	c3.249-11.613,13.214-19.81,21.466-18.934c15.098,1.599,25.641,10.606,27.208,24.489c1.213,10.72,1.569,21.585,1.677,32.397
	c0.381,36.058-0.236,72.153,0.912,108.182c1.146,35.999,3.705,71.954,6.101,107.894c3.423,51.377,6.883,102.759,11.038,154.073
	c3.077,37.947,7.283,75.791,11.036,113.678c0.13,1.286,0.909,2.494,1.983,5.294c0.904-3.369,1.459-5.234,1.904-7.12
	c2.533-10.801,6.584-15.201,16.108-16.3c11.888-1.355,23.843-2.063,35.728-3.437c6.629-0.768,13.158-2.554,19.787-3.467
	c5.919-0.815,9.397-3.438,10.599-10.321c0.858-4.831,3.646-9.278,5.467-13.654c33.692,4.876,66.532,1.885,99.315,0.318
	c47.3-2.264,94.609-4.812,141.825-8.401c40.024-3.048,79.956-7.59,119.897-11.768c44.221-4.632,88.389-9.87,132.629-14.312
	c29.029-2.922,58.207-4.385,87.242-7.459c28.977-3.062,57.871-7.323,86.803-11.081c1.43-0.177,2.832-0.479,4.254-0.679
	c16.189-2.381,18.037-1.359,26.115,14.945c3.799-0.305,7.924-0.628,13.625-1.085c-0.895-14.459-1.648-28.158-2.623-41.848
	c-0.811-11.174-2.375-22.315-2.76-33.51c-1.969-57.681-4.041-115.366-5.336-173.068c-1.129-50.488-1.76-100.997-1.623-151.495
	c0.057-20.538,2.797-41.059,4.162-61.602c0.34-5.015,0.057-10.071,0.057-16.14c-6.775,0-12.895-0.702-18.842,0.122
	c-32.184,4.45-64.33,9.217-96.477,13.995c-33.131,4.92-66.27,9.823-99.359,15.028c-36.885,5.798-73.646,12.586-110.592,17.786
	c-65.902,9.268-131.919,17.614-197.867,26.458c-28.003,3.75-55.961,7.987-83.98,11.594c-25.18,3.239-50.451,5.602-75.623,8.912
	c-31.762,4.183-63.48,8.835-95.182,13.57c-4.18,0.617-8.203,2.714-12.194,4.413c-15.825,6.75-26.734-10.492-25.005-23.504
	c0.802-5.994,1.239-12.059,1.584-18.107c0.51-8.528,3.89-13.165,11.904-14.916c3.713-0.821,7.61-0.664,11.426-1.077
	c28.059-3.073,56.116-6.184,84.182-9.268c20.464-2.238,40.945-4.31,61.389-6.706c29.926-3.516,59.821-7.386,89.755-10.867
	c27.993-3.25,56.049-5.872,84.024-9.353c33.23-4.131,66.424-8.656,99.588-13.445c22.246-3.209,44.412-7.06,66.592-10.829
	c19.842-3.369,39.621-7.09,59.455-10.527c36.27-6.284,72.621-12.087,108.83-18.83c24.861-4.631,49.449-11.017,74.318-15.672
	c20.244-3.791,40.727-6.122,61.098-9.201c7.076-1.065,14.088-3.005,21.186-3.407c3.238-0.183,7.965,1.373,9.65,3.946
	c4.605,7.046,8.141,14.957,11.791,22.694c4.182,8.871,6.037,18.131,5.201,28.351c-2.387,29.202-4.754,58.431-6.004,87.704
	c-1.238,28.815-1.127,57.696-1.537,86.556c-0.146,10.234-0.254,20.48-0.037,30.717c0.801,38.582,1.166,77.188,2.77,115.742
	c2.25,53.498,4.426,107.048,8.625,160.396c3.061,38.92,5.582,78.303,18.869,115.381c3.232,9.014,7.875,17.449,11.838,26.16
	c6.281,13.807,1.037,25.57-12.932,26.907c-16.803,1.591-29.354-0.206-35.48-22.438c-6.236-22.615-11.229-45.642-16.711-68.493
	c-0.82-3.476-1.357-7.011-2.604-13.57c-22.695,0.834-44.434,1.63-65.613,2.396"/>
</svg>
