<?xml version="1.0" encoding="utf-8"?>
<!-- Generator: Adobe Illustrator 16.0.1, SVG Export Plug-In . SVG Version: 6.00 Build 0)  -->
<!DOCTYPE svg PUBLIC "-//W3C//DTD SVG 1.1//EN" "http://www.w3.org/Graphics/SVG/1.1/DTD/svg11.dtd">
<svg version="1.1" id="Layer_1" xmlns="http://www.w3.org/2000/svg" xmlns:xlink="http://www.w3.org/1999/xlink" x="0px" y="0px"
	 width="961.432px" height="707.911px" viewBox="0 0 961.432 707.911" enable-background="new 0 0 961.432 707.911"
	 xml:space="preserve">
<g>
	<path fill-rule="evenodd" clip-rule="evenodd" d="M951.139,251.366c1.108,75.055,1.695,150.116,3.528,225.15
		c1.056,42.388,4.082,84.733,6.426,127.086c0.661,11.884-1.014,14.903-15.055,19.178c-40.836,12.449-81.859,24.209-122.613,36.935
		c-47.971,14.992-96.782,25.663-146.262,33.433c-65.633,10.306-131.581,18.604-197.86,10.767
		c-35.872-4.239-71.478-12.56-106.592-21.576c-56.278-14.448-113.128-24.513-170.88-28.221
		c-47.315-3.033-94.728-4.302-142.099-6.418c-10.657-0.476-20.196,0.876-29.021,8.81c-9.298,8.376-20.831,4.129-22.665-8.733
		c-3.315-23.142-6.094-46.571-6.479-69.927c-0.745-44.889-0.234-89.813,0.806-134.702c1.593-68.706,3.826-137.405,6.273-206.084
		c1.758-49.08,4.584-98.099-0.696-147.166c-1.048-9.623,0.083-19.611,1.075-29.331C10.32,47.964,19.538,39.548,30.78,43.76
		c32.371,12.125,64.35,3.212,96.604,1.075c93.529-6.19,185.845-2.585,275.375,32.04c24.457,9.458,51.549,13.663,77.743,15.669
		c42.187,3.219,84.843,5.811,126.893,2.626c35.129-2.654,70.009-12.498,104.338-21.817c48.64-13.194,96.438-29.8,145.07-43.049
		c25.657-6.997,51.411-12.422,74.738-26.657c10.926-6.679,20.735,0.648,20.741,13.967c0.042,77.915,0.014,155.824,0.014,233.739
		C951.918,251.359,951.53,251.359,951.139,251.366z M932.334,26.988c-4.791,2.288-7.632,3.777-10.575,5.018
		c-8.961,3.757-17.723,8.286-26.967,10.905c-14.737,4.164-30.062,6.136-44.689,10.616c-27.814,8.521-55.14,18.791-82.988,27.167
		c-27.85,8.375-55.892,16.323-84.23,22.609c-26.05,5.784-52.527,12.14-78.936,12.843c-43.614,1.165-87.422-0.469-130.933-3.964
		c-25.72-2.061-51.603-7.92-76.351-15.717C361.915,85.526,327.76,71.788,291.472,68.5c-39.416-3.571-79.053-4.729-118.619-5.825
		c-19.584-0.538-39.754-1.248-58.725,2.854c-27.87,6.012-54.851,7.452-81.887-1.93c-8.064-2.799-8.438,0.345-7.638,7.293
		c1.861,16.289,4.067,32.619,4.48,48.984c0.711,28.718,0.725,57.477,0.015,86.201c-0.746,30.316-2.854,60.6-4.047,90.909
		c-1.475,37.734-3.288,75.476-3.764,113.224c-0.627,50.866-0.275,101.745-0.027,152.618c0.104,23.3,0.972,46.593,1.523,71.236
		c7.418-2.082,12.925-4.798,18.516-4.998c24.65-0.903,49.424-2.646,73.98-1.172c46.411,2.792,92.881,6.204,139.016,11.974
		c36.955,4.633,73.56,12.615,110.143,20.039c35.908,7.286,71.299,18.916,107.494,22.817c37.184,4.005,75.172,2.695,112.632,0.496
		c34.611-2.033,69.078-7.631,103.428-12.932c39.03-6.025,77.405-15.166,115.505-26.381c43.316-12.746,87.504-22.328,129.602-39.402
		c2.861-1.158,6.48-4.061,7.037-6.77c1.193-5.68,0.986-11.795,0.643-17.682c-2.096-35.921-4.888-71.808-6.488-107.757
		c-1.385-31.006-2.019-62.081-2.066-93.122c-0.193-96.858,0.034-193.71,0.11-290.568C932.348,68.748,932.334,48.895,932.334,26.988z
		"/>
	<g>
		<path fill="none" d="M951.139,251.366c1.108,75.055,1.695,150.116,3.528,225.15c1.056,42.388,4.082,84.733,6.426,127.086
			c0.661,11.884-1.014,14.903-15.055,19.178c-40.836,12.449-81.859,24.209-122.613,36.935
			c-47.971,14.992-96.782,25.663-146.262,33.433c-65.633,10.306-131.581,18.604-197.86,10.767
			c-35.872-4.239-71.478-12.56-106.592-21.576c-56.278-14.448-113.128-24.513-170.88-28.221
			c-47.315-3.033-94.728-4.302-142.099-6.418c-10.657-0.476-20.196,0.876-29.021,8.81c-9.298,8.376-20.831,4.129-22.665-8.733
			c-3.315-23.142-6.094-46.571-6.479-69.927c-0.745-44.889-0.234-89.813,0.806-134.702c1.593-68.706,3.826-137.405,6.273-206.084
			c1.758-49.08,4.584-98.099-0.696-147.166c-1.048-9.623,0.083-19.611,1.075-29.331C10.32,47.964,19.538,39.548,30.78,43.76
			c32.371,12.125,64.35,3.212,96.604,1.075c93.529-6.19,185.845-2.585,275.375,32.04c24.457,9.458,51.549,13.663,77.743,15.669
			c42.187,3.219,84.843,5.811,126.893,2.626c35.129-2.654,70.009-12.498,104.338-21.817c48.64-13.194,96.438-29.8,145.07-43.049
			c25.657-6.997,51.411-12.422,74.738-26.657c10.926-6.679,20.735,0.648,20.741,13.967c0.042,77.915,0.014,155.824,0.014,233.739
			C951.918,251.359,951.53,251.359,951.139,251.366z M932.334,26.988c-4.791,2.288-7.632,3.777-10.575,5.018
			c-8.961,3.757-17.723,8.286-26.967,10.905c-14.737,4.164-30.062,6.136-44.689,10.616c-27.814,8.521-55.14,18.791-82.988,27.167
			c-27.85,8.375-55.892,16.323-84.23,22.609c-26.05,5.784-52.527,12.14-78.936,12.843c-43.614,1.165-87.422-0.469-130.933-3.964
			c-25.72-2.061-51.603-7.92-76.351-15.717C361.915,85.526,327.76,71.788,291.472,68.5c-39.416-3.571-79.053-4.729-118.619-5.825
			c-19.584-0.538-39.754-1.248-58.725,2.854c-27.87,6.012-54.851,7.452-81.887-1.93c-8.064-2.799-8.438,0.345-7.638,7.293
			c1.861,16.289,4.067,32.619,4.48,48.984c0.711,28.718,0.725,57.477,0.015,86.201c-0.746,30.316-2.854,60.6-4.047,90.909
			c-1.475,37.734-3.288,75.476-3.764,113.224c-0.627,50.866-0.275,101.745-0.027,152.618c0.104,23.3,0.972,46.593,1.523,71.236
			c7.418-2.082,12.925-4.798,18.516-4.998c24.65-0.903,49.424-2.646,73.98-1.172c46.411,2.792,92.881,6.204,139.016,11.974
			c36.955,4.633,73.56,12.615,110.143,20.039c35.908,7.286,71.299,18.916,107.494,22.817c37.184,4.005,75.172,2.695,112.632,0.496
			c34.611-2.033,69.078-7.631,103.428-12.932c39.03-6.025,77.405-15.166,115.505-26.381c43.316-12.746,87.504-22.328,129.602-39.402
			c2.861-1.158,6.48-4.061,7.037-6.77c1.193-5.68,0.986-11.795,0.643-17.682c-2.096-35.921-4.888-71.808-6.488-107.757
			c-1.385-31.006-2.019-62.081-2.066-93.122c-0.193-96.858,0.034-193.71,0.11-290.568C932.348,68.748,932.334,48.895,932.334,26.988
			z"/>
		<g>
			<path fill-rule="evenodd" clip-rule="evenodd" d="M931.985,26.988c0.018,0,0.034,0.168,0.049,0.502
				c0.009,0.334,0.023,0.833,0.042,1.497c0.016,1.327,0.039,3.311,0.069,5.933c0.022,5.244,0.055,13.045,0.099,23.272
				c0.048,20.454,0.118,50.614,0.208,89.436c-0.437,38.803-0.349,86.25,0.205,141.326c0.256,27.529,0.373,56.953,0.351,88.144
				c0.132,15.591,0.268,31.623,0.407,48.081c0.223,8.227,0.448,16.56,0.677,24.996c0.11,4.22,0.221,8.465,0.333,12.736
				c0.138,4.27,0.15,8.572,0.409,12.889c0.903,17.27,1.841,34.951,2.898,53.021c0.581,9.033,1.168,18.164,1.762,27.392
				c0.302,4.613,0.606,9.251,0.911,13.912c0.291,4.663,0.661,9.339,0.865,14.064c0.136,4.734,0.079,9.495-1.018,14.258
				c-0.435,1.195-1.205,2.204-2.077,3.056c-0.854,0.883-1.841,1.612-2.872,2.27c-1.031,0.661-2.193,1.14-3.302,1.555l-3.364,1.301
				c-2.246,0.869-4.497,1.74-6.753,2.613c-2.26,0.864-4.506,1.784-6.814,2.545c-4.592,1.595-9.206,3.196-13.841,4.806
				c-18.646,6.126-37.896,11.504-57.464,16.926c-4.901,1.323-9.823,2.65-14.765,3.984c-4.942,1.329-9.91,2.649-14.873,4.055
				c-9.927,2.793-19.989,5.497-30.106,8.28c-20.251,5.513-40.988,10.431-62.104,15.229l-3.982,0.785
				c-1.329,0.261-2.674,0.442-4.012,0.669c-2.679,0.437-5.362,0.873-8.05,1.312c-5.372,0.896-10.762,1.794-16.172,2.696
				c-10.837,1.651-21.75,3.314-32.736,4.988c-5.498,0.815-11.014,1.633-16.548,2.453l-4.154,0.618l-4.174,0.529
				c-2.785,0.354-5.574,0.71-8.368,1.066c-2.794,0.359-5.592,0.719-8.395,1.078l-4.207,0.544c-1.405,0.169-2.819,0.269-4.23,0.407
				c-5.649,0.522-11.315,1.045-16.999,1.57c-22.765,1.427-45.838,2.352-69.202,2.244c-11.681,0.002-23.426-0.527-35.219-1.283
				c-2.943-0.263-5.891-0.525-8.842-0.789l-4.431-0.396c-1.475-0.165-2.946-0.381-4.421-0.569c-2.949-0.392-5.901-0.782-8.857-1.175
				c-2.944-0.463-5.877-1.022-8.822-1.531c-5.897-0.956-11.722-2.322-17.602-3.507c-2.933-0.623-5.848-1.333-8.779-1.995
				c-2.927-0.676-5.865-1.331-8.787-2.051c-11.713-2.8-23.451-5.709-35.288-8.4c-2.953-0.705-5.934-1.277-8.904-1.926
				c-2.978-0.62-5.941-1.284-8.941-1.868c-5.986-1.205-11.985-2.413-17.999-3.624c-12.024-2.401-24.104-4.814-36.235-7.237
				c-6.093-1.051-12.198-2.104-18.315-3.159c-3.062-0.506-6.111-1.116-9.19-1.543c-3.077-0.437-6.157-0.873-9.24-1.311
				c-6.17-0.852-12.332-1.822-18.539-2.595c-6.22-0.694-12.452-1.391-18.696-2.088c-3.122-0.353-6.246-0.706-9.374-1.059
				l-4.693-0.533l-4.709-0.438c-6.281-0.59-12.574-1.182-18.88-1.773c-3.152-0.301-6.308-0.601-9.467-0.901
				c-3.158-0.306-6.328-0.519-9.497-0.785c-6.338-0.514-12.689-1.028-19.052-1.543c-6.345-0.646-12.715-1.148-19.098-1.618
				c-6.385-0.45-12.781-0.901-19.188-1.353c-1.602-0.101-3.206-0.228-4.809-0.304l-4.811-0.148c-3.209-0.094-6.42-0.188-9.634-0.281
				c-3.212-0.151-6.434-0.047-9.657,0.008c-3.223,0.06-6.448,0.118-9.676,0.178c-12.911,0.412-25.869,1.076-38.883,1.606
				c-0.832,0.018-1.58,0.108-2.356,0.172c-0.771,0.053-1.542,0.257-2.313,0.376c-0.77,0.17-1.538,0.381-2.308,0.572l-2.305,0.699
				l-4.634,1.529l-2.345,0.75l-3.25,0.958l-0.471,0.139l-0.235,0.068l-0.059,0.018c-0.008-0.011-0.003-0.038-0.005-0.057
				l-0.003-0.124l-0.021-0.987l-0.042-1.965l-0.044-2.493l-0.079-4.899c-0.041-3.269-0.081-6.539-0.122-9.812
				c-0.222-12.838-0.443-25.638-0.664-38.396c-0.323-12.763-0.414-25.479-0.589-38.153c-0.302-25.349-0.84-50.52-0.564-75.499
				c0.283-12.501,0.566-24.951,0.847-37.351c0.064-3.099,0.128-6.195,0.191-9.288c0.067-3.093,0.091-6.183,0.243-9.268
				c0.225-6.171,0.45-12.329,0.674-18.474c0.416-12.289,0.69-24.528,0.888-36.719c0.312-12.186,0.466-24.323,0.403-36.416
				c0.753-24.144,2.409-53.063,3.381-79.004c0.277-6.485,0.547-12.788,0.804-18.788c0.251-6,0.603-11.694,0.645-16.975
				c0.227-10.556,0.491-19.419,0.807-25.632c-0.026-2.334-0.054-4.741-0.082-7.215c-0.025-2.474-0.017-5.013-0.121-7.609
				c-0.134-5.194-0.275-10.622-0.42-16.224c-0.111-5.601-0.226-11.376-0.343-17.265c-0.025-1.473-0.049-2.952-0.074-4.438
				l-0.035-2.232l-0.113-2.229c-0.153-2.976-0.307-5.972-0.461-8.982c-0.885-12.038-2.292-24.277-3.62-36.298
				c-0.162-1.493-0.345-3.014-0.407-4.598c-0.039-0.788-0.019-1.614,0.076-2.474c0.14-0.866,0.34-1.842,1.063-2.762
				c0.201-0.212,0.409-0.424,0.629-0.612c0.243-0.153,0.495-0.299,0.75-0.433c0.5-0.187,1.035-0.345,1.493-0.354
				c0.964-0.096,1.785,0.052,2.588,0.199c1.573,0.325,3.037,0.888,4.384,1.321c5.458,1.932,10.964,3.343,16.349,4.401
				c10.782,2.13,21.792,2.592,32.654,2.028c5.433-0.325,10.835-0.905,16.193-1.681c5.366-0.764,10.646-1.848,15.944-2.894
				c10.648-2.152,21.431-2.858,32.086-3.014c10.667-0.14,21.232,0.231,31.712,0.498c5.243,0.134,10.466,0.267,15.67,0.399
				c5.204,0.127,10.388,0.29,15.552,0.496c5.164,0.192,10.308,0.384,15.431,0.575c2.562,0.101,5.119,0.201,7.67,0.302
				c2.551,0.134,5.096,0.269,7.636,0.402c10.159,0.575,20.248,0.917,30.227,1.722c4.995,0.337,9.967,0.673,14.918,1.007
				c4.945,0.291,9.904,0.685,14.811,1.293c19.594,2.946,37.969,8.453,55.664,14.28c17.709,5.828,34.801,12.132,52.069,17.091
				c8.617,2.537,17.301,4.611,25.98,6.521c2.181,0.426,4.359,0.85,6.537,1.273l3.265,0.628l3.28,0.532l6.556,1.046l6.579,0.839
				c2.188,0.309,4.389,0.503,6.589,0.696c2.201,0.188,4.395,0.423,6.6,0.57c4.413,0.26,8.826,0.52,13.243,0.78
				c4.417,0.246,8.836,0.493,13.263,0.74c2.213,0.106,4.426,0.271,6.646,0.323c2.219,0.062,4.44,0.123,6.664,0.185
				c7.271,0.247,14.406,0.489,21.466,0.729c3.528,0.175,7.042,0.153,10.543,0.218c3.501,0.054,6.991,0.107,10.478,0.16
				c3.487,0.062,6.97,0.124,10.458,0.186c1.744,0.023,3.489,0.087,5.236,0.08c1.747-0.016,3.497-0.032,5.249-0.048
				c7.01-0.055,14.068-0.109,21.238-0.165c1.792-0.012,3.592-0.024,5.399-0.036c1.797-0.085,3.602-0.169,5.416-0.254
				c1.812-0.105,3.638-0.132,5.466-0.303c1.828-0.172,3.666-0.345,5.514-0.519c7.395-0.696,14.92-1.869,22.655-3.191
				c3.859-0.722,7.775-1.456,11.748-2.261c3.967-0.84,8.004-1.657,12.1-2.583c8.195-1.807,16.694-3.711,25.469-5.873
				c24.473-6.023,48.188-12.672,70.232-19.207c1.38-0.4,2.753-0.8,4.121-1.197c1.359-0.421,2.711-0.84,4.057-1.257
				c2.691-0.835,5.355-1.663,7.991-2.481c2.636-0.817,5.244-1.626,7.822-2.425c2.577-0.802,5.103-1.667,7.608-2.481
				c10.008-3.314,19.497-6.458,28.342-9.388c2.216-0.717,4.401-1.423,6.555-2.119c2.165-0.667,4.298-1.325,6.399-1.973
				c4.201-1.299,8.276-2.56,12.222-3.78c0.99-0.294,1.955-0.635,2.943-0.886c0.986-0.255,1.964-0.507,2.935-0.758
				c1.939-0.502,3.845-0.995,5.718-1.48c1.865-0.521,3.729-0.877,5.55-1.27c1.822-0.388,3.61-0.769,5.364-1.143
				c7.007-1.512,13.512-2.722,19.347-4.274c1.465-0.363,2.896-0.718,4.292-1.063c0.349-0.087,0.696-0.173,1.041-0.259
				c0.336-0.111,0.67-0.223,1.002-0.333c0.664-0.22,1.319-0.438,1.967-0.652c1.294-0.43,2.554-0.849,3.78-1.256
				c1.199-0.487,2.364-0.962,3.496-1.422c1.131-0.462,2.229-0.911,3.292-1.347c1.052-0.468,2.07-0.921,3.054-1.359
				c1.971-0.876,3.807-1.692,5.507-2.447c1.703-0.754,3.27-1.446,4.698-2.078c1.406-0.658,2.676-1.252,3.808-1.781
				c4.51-2.188,6.805-3.363,6.805-3.363c-0.028-0.059-0.625,0.182-1.782,0.711c-1.148,0.542-2.863,1.352-5.131,2.424
				c-1.131,0.523-2.399,1.111-3.805,1.762c-1.429,0.633-2.997,1.326-4.701,2.08c-1.697,0.762-3.53,1.585-5.498,2.468
				c-0.982,0.443-1.998,0.902-3.046,1.376c-1.059,0.441-2.152,0.896-3.278,1.366c-1.127,0.468-2.288,0.95-3.481,1.446
				c-1.22,0.417-2.474,0.846-3.762,1.285c-0.645,0.221-1.297,0.443-1.958,0.67c-0.331,0.112-0.664,0.227-0.999,0.341
				c-0.343,0.089-0.689,0.179-1.037,0.269c-1.392,0.359-2.818,0.729-4.279,1.105c-5.817,1.612-12.309,2.897-19.296,4.498
				c-1.749,0.396-3.531,0.799-5.346,1.21c-1.814,0.417-3.672,0.797-5.527,1.344c-1.862,0.51-3.758,1.028-5.686,1.556
				c-0.963,0.264-1.936,0.529-2.916,0.798c-0.981,0.264-1.943,0.618-2.928,0.927c-3.925,1.279-7.978,2.6-12.157,3.961
				c-2.089,0.68-4.21,1.37-6.362,2.07c-2.142,0.73-4.314,1.472-6.519,2.223c-8.871,2.855-18.219,5.93-28.035,9.194
				c-2.454,0.815-4.938,1.642-7.453,2.478c-2.525,0.8-5.08,1.609-7.665,2.429c-2.583,0.823-5.196,1.656-7.839,2.499
				c-2.64,0.851-5.312,1.705-8.034,2.5c-21.698,6.615-45.369,13.543-71.133,19.757c-8.457,1.916-16.547,3.64-24.341,5.31
				c-7.79,1.69-15.299,3.245-22.628,4.645c-14.652,2.783-28.652,4.779-42.686,5.193c-7.008,0.141-13.996,0.281-21.058,0.423
				c-3.532,0.063-7.083,0.128-10.664,0.192c-3.581-0.047-7.192-0.094-10.845-0.142c-7.306-0.113-14.782-0.215-22.517-0.415
				c-7.729-0.37-15.719-0.782-24.061-1.251c-8.354-0.241-16.921-0.937-25.685-1.488c-4.38-0.293-8.808-0.59-13.274-0.889
				c-2.234-0.118-4.474-0.402-6.725-0.6c-2.249-0.231-4.515-0.396-6.769-0.729c-2.258-0.298-4.525-0.597-6.799-0.896
				c-2.27-0.324-4.535-0.733-6.813-1.098l-3.42-0.564l-3.411-0.662c-2.275-0.451-4.556-0.902-6.841-1.354
				c-9.107-1.977-18.222-4.266-27.271-6.871c-18.086-5.272-35.871-11.703-53.562-17.262c-17.668-5.585-35.304-10.3-52.55-12.592
				c-8.061-1.183-17.155-1.635-26.812-2.36c-2.416-0.17-4.868-0.342-7.354-0.517c-2.485-0.178-5.002-0.363-7.554-0.458
				c-5.1-0.239-10.311-0.482-15.593-0.729c-10.56-0.573-21.425-0.854-32.26-1.276c-10.837-0.408-21.651-0.815-32.129-1.21
				c-10.478-0.351-21.033-0.808-31.652-0.734c-10.61,0.088-21.326,0.747-31.87,2.876c-5.291,1.044-10.613,2.147-16,2.938
				c-5.386,0.805-10.818,1.428-16.291,1.811c-10.943,0.678-22.072,0.396-33.069-1.498c-5.483-0.994-10.929-2.344-16.243-4.146
				c-1.352-0.415-2.644-0.907-3.932-1.214c-0.325-0.096-0.646-0.144-0.966-0.198c-0.325-0.07-0.638-0.094-0.948-0.105
				c-0.625-0.048-1.206,0.04-1.626,0.265c-0.853,0.385-1.114,1.709-1.136,3.014c-0.025,1.323,0.11,2.703,0.263,4.084
				c0.631,5.572,1.308,11.151,1.906,16.77c0.302,2.807,0.605,5.619,0.908,8.435c0.247,2.823,0.494,5.651,0.742,8.483
				c0.294,2.828,0.397,5.678,0.541,8.527l0.212,4.278c0.073,1.428,0.155,2.856,0.151,4.283c0.076,5.71,0.151,11.437,0.227,17.179
				c0.085,5.742,0.17,11.5,0.256,17.274c0.027,2.888,0.134,5.778,0.1,8.673c-0.021,2.896-0.042,5.794-0.063,8.697
				c-0.166,5.809-0.294,11.632-0.394,17.471c-0.043,2.919-0.086,5.842-0.129,8.77c-0.063,2.926-0.008,5.859-0.16,8.791
				c-0.392,11.734-0.785,23.529-1.181,35.383c-0.345,11.861-0.891,23.75-1.412,35.708c-0.295,5.977-0.59,11.967-0.887,17.972
				c-0.274,6.007-0.578,12.027-0.921,18.06c-0.373,12.074-0.747,24.203-1.123,36.386c-0.252,12.18-0.505,24.412-0.759,36.697
				c-0.153,6.142-0.307,12.296-0.46,18.463c-0.114,3.083-0.1,6.173-0.129,9.265c-0.028,3.093-0.056,6.188-0.084,9.286
				c-0.13,12.395-0.335,24.84-0.647,37.336c0.307,24.966,0.419,50.138,0.298,75.485c-0.037,12.674-0.156,25.395,0.082,38.142
				c0.103,6.375,0.207,12.76,0.31,19.155c0.143,6.396,0.378,12.803,0.611,19.218c0.034,3.273,0.068,6.545,0.102,9.813l0.063,4.9
				l0.033,2.41l0.001,0.584l0.001,0.299c-0.019,0.077,0.042,0.043,0.087,0.032l0.139-0.038l1.591-0.452l2.321-0.73l4.658-1.513
				l2.366-0.704c0.805-0.197,1.604-0.412,2.416-0.586c0.826-0.127,1.634-0.334,2.474-0.391c0.834-0.066,1.683-0.156,2.485-0.168
				c13.002-0.461,25.967-1.054,38.907-1.441c3.236-0.056,6.471-0.111,9.702-0.168c3.232-0.055,6.461-0.163,9.689-0.02
				c3.229,0.081,6.455,0.162,9.678,0.244l4.834,0.119c1.608,0.065,3.21,0.178,4.814,0.265c6.416,0.368,12.819,0.736,19.212,1.104
				c6.394,0.358,12.776,0.721,19.14,1.189c6.364,0.575,12.715,1.149,19.055,1.723c3.169,0.287,6.34,0.519,9.5,0.837
				c3.161,0.312,6.319,0.622,9.474,0.933c6.312,0.597,12.611,1.191,18.899,1.786l4.714,0.432l4.701,0.524
				c3.133,0.346,6.263,0.69,9.389,1.034c6.256,0.676,12.499,1.35,18.73,2.021c6.223,0.748,12.411,1.696,18.602,2.526
				c3.094,0.428,6.186,0.855,9.273,1.282c3.09,0.418,6.145,1.02,9.215,1.52c6.131,1.051,12.25,2.099,18.356,3.145
				c12.12,2.532,24.188,5.054,36.201,7.563c6.005,1.246,11.998,2.49,17.976,3.731c2.992,0.597,5.972,1.278,8.954,1.912
				c2.977,0.66,5.968,1.245,8.923,1.96c11.854,2.729,23.599,5.646,35.305,8.416c2.923,0.714,5.854,1.357,8.778,2.022
				c2.927,0.649,5.84,1.347,8.767,1.953c5.863,1.151,11.681,2.478,17.552,3.381c2.928,0.513,5.844,1.079,8.77,1.551
				c2.935,0.402,5.866,0.805,8.793,1.207c1.465,0.195,2.924,0.418,4.39,0.591l4.408,0.421c2.938,0.282,5.871,0.564,8.8,0.846
				c11.742,0.834,23.445,1.455,35.099,1.524c23.301,0.247,46.373-0.626,69.082-2.364c5.667-0.534,11.316-1.066,16.948-1.597
				c1.407-0.139,2.816-0.238,4.218-0.407l4.2-0.541c2.797-0.356,5.591-0.713,8.379-1.068c2.789-0.352,5.573-0.702,8.354-1.053
				l4.167-0.521l4.15-0.611c5.529-0.813,11.041-1.624,16.534-2.433c5.496-0.779,10.963-1.664,16.417-2.502
				c5.449-0.861,10.894-1.657,16.294-2.561c5.389-0.948,10.76-1.893,16.111-2.833c2.675-0.472,5.346-0.943,8.011-1.414
				c1.331-0.246,2.668-0.448,3.99-0.73l3.958-0.854c21.187-4.174,41.946-8.935,62.151-14.511
				c10.096-2.814,20.105-5.601,30.024-8.517c4.955-1.466,9.907-2.852,14.834-4.249c4.924-1.404,9.829-2.802,14.713-4.194
				c19.593-5.327,38.845-10.561,57.488-16.529c4.633-1.569,9.246-3.132,13.836-4.687c2.309-0.742,4.553-1.642,6.812-2.485
				c2.255-0.854,4.505-1.704,6.75-2.554l3.363-1.271c1.163-0.429,2.148-0.825,3.107-1.427c0.947-0.595,1.87-1.265,2.64-2.054
				c0.799-0.758,1.458-1.653,1.786-2.547c0.187-0.39,0.251-1.019,0.341-1.586l0.266-1.721c0.075-0.576,0.209-1.142,0.236-1.725
				l0.103-1.746c0.201-2.319,0.113-4.668,0.097-7.003c-2.209-37.678-4.331-73.852-6.356-108.38
				c-0.304-4.316-0.359-8.619-0.54-12.891c-0.153-4.272-0.305-8.519-0.456-12.739c-0.302-8.441-0.601-16.778-0.895-25.008
				c-0.24-16.469-0.474-32.512-0.701-48.112c-0.1-31.191-0.17-60.615-0.119-88.146c0.533-57.157,0.121-102.524,0.543-141.328
				c0.213-38.821,0.378-68.981,0.49-89.436c0.023-10.228,0.041-18.028,0.053-23.272c-0.012-2.622-0.021-4.605-0.027-5.933
				c-0.012-0.664-0.021-1.163-0.028-1.497C932.012,27.156,932,26.988,931.985,26.988z"/>
		</g>
		<g>
			<path fill-rule="evenodd" clip-rule="evenodd" d="M951.145,251.715c0-0.024,0.346-0.051,1.156-0.08l0.285-0.011l-0.008-0.271
				c-0.21-7.023-0.206-51.066-0.431-125.354c0.21-20.346,0.288-42.957,0.241-67.702c-0.052-12.372-0.106-25.278-0.163-38.7
				c-0.007-1.678-0.02-3.366-0.24-5.037c-0.132-0.834-0.222-1.677-0.474-2.488l-0.321-1.229l-0.457-1.188
				c-1.197-3.155-3.539-5.999-6.69-7.365l-1.197-0.46l-1.257-0.265c-0.415-0.118-0.849-0.105-1.277-0.133
				c-0.429-0.005-0.858-0.084-1.287-0.008l-1.287,0.132c-0.428,0.052-0.842,0.196-1.263,0.289c-0.855,0.16-1.644,0.55-2.457,0.857
				c-1.562,0.749-3.08,1.667-4.65,2.554c-1.558,0.89-3.123,1.784-4.695,2.682c-1.548,0.944-3.201,1.701-4.849,2.487
				c-1.646,0.788-3.3,1.579-4.961,2.374c-0.822,0.417-1.677,0.762-2.536,1.104c-0.856,0.347-1.715,0.695-2.575,1.044
				c-1.721,0.695-3.449,1.395-5.185,2.096c-3.538,1.211-7.08,2.522-10.702,3.672c-3.638,1.091-7.278,2.304-11.002,3.305
				c-7.417,2.128-15,4.081-22.658,6.167c-3.842,0.997-7.666,2.175-11.542,3.272c-3.871,1.115-7.77,2.238-11.697,3.369
				c-15.743,4.396-31.795,9.416-48.329,14.379c-8.268,2.484-16.644,5-25.124,7.548c-4.242,1.268-8.51,2.544-12.805,3.827
				c-4.291,1.295-8.655,2.443-13.019,3.68c-8.728,2.469-17.56,4.968-26.493,7.494c-8.962,2.418-18.025,4.87-27.209,7.273
				c-18.369,4.775-37.276,9.286-56.88,12.172c-2.452,0.345-4.901,0.761-7.373,1.05c-2.476,0.256-4.958,0.512-7.446,0.769
				c-4.971,0.605-9.994,0.797-15.032,1.14c-5.037,0.38-10.109,0.497-15.204,0.664c-2.548,0.066-5.101,0.202-7.661,0.213
				c-2.56,0.016-5.126,0.032-7.699,0.048c-20.579,0.1-41.527-0.771-62.79-2.077c-5.316-0.34-10.65-0.735-16.003-1.165
				c-2.677-0.213-5.359-0.428-8.047-0.643c-2.688-0.25-5.381-0.502-8.08-0.754c-10.784-1.127-21.615-2.672-32.424-4.806
				c-10.816-2.1-21.565-5.011-32.133-8.697c-10.58-3.659-21.059-7.692-31.979-10.744c-21.457-7.163-43.841-12.632-66.796-16.506
				c-22.959-3.882-46.482-6.18-70.325-7.222c-23.826-1.471-48.02-1.59-72.454-0.778c-6.11,0.165-12.231,0.52-18.373,0.774
				c-6.14,0.3-12.292,0.722-18.463,1.078c-12.317,0.768-24.625,2.538-37.087,3.845c-6.227,0.634-12.492,1.142-18.797,1.368
				c-6.308,0.178-12.652,0.001-18.98-0.65c-6.333-0.64-12.604-1.995-18.739-3.828l-4.568-1.508l-2.167-0.664
				c-0.734-0.117-1.465-0.291-2.203-0.35c-2.943-0.225-5.958,0.452-8.383,2.164c-2.43,1.682-4.384,4.092-5.636,6.854
				c-1.292,2.771-1.926,5.756-2.21,8.891c-0.622,6.37-1.282,12.732-1.312,19.089c-0.063,3.186,0.154,6.332,0.446,9.504
				c0.283,3.22,0.566,6.442,0.85,9.669c0.259,3.228,0.61,6.453,0.787,9.693c0.159,3.24,0.318,6.484,0.478,9.732
				c1.472,25.979,1.102,52.223,0.22,78.596c-0.502,13.182-1.007,26.414-1.514,39.698c-0.461,13.284-0.925,26.619-1.39,40.005
				c-2.717,53.451-2.94,107.761-5.441,162.628c-0.442,13.454-0.623,26.873-0.817,40.25c-0.074,6.688-0.147,13.366-0.221,20.032
				c-0.028,3.333-0.056,6.664-0.084,9.991c0.042,3.328,0.083,6.652,0.124,9.975c0.166,13.286,0.332,26.525,0.497,39.716
				c0.034,3.297,0.067,6.591,0.101,9.882l0.043,4.935c0.004,1.645,0.023,3.287,0.117,4.921c0.139,3.272,0.278,6.541,0.417,9.808
				l0.197,4.896c0.082,1.631,0.249,3.257,0.366,4.885c0.449,6.52,0.739,13.045,1.45,19.527c0.311,3.245,0.621,6.487,0.93,9.726
				c0.318,3.239,0.745,6.464,1.115,9.69c0.396,3.22,0.743,6.464,1.185,9.654c0.46,3.132,1.646,6.195,3.721,8.584
				c1.075,1.135,2.295,2.192,3.755,2.805c0.351,0.182,0.708,0.348,1.093,0.44l1.133,0.342c0.782,0.086,1.559,0.292,2.354,0.229
				c1.591,0.069,3.151-0.362,4.653-0.862c1.462-0.625,2.881-1.383,4.13-2.384c1.276-0.951,2.445-2.1,3.768-3.026
				c1.285-0.981,2.669-1.822,4.076-2.611c2.843-1.533,5.917-2.606,9.063-3.285c3.156-0.646,6.375-0.917,9.584-0.953
				c3.214-0.016,6.409,0.148,9.604,0.215c12.779,0.342,25.508,0.525,38.188,0.49c25.319,0.846,55.63,2.367,82.861,3.719
				c3.404,0.175,6.759,0.346,10.051,0.515c1.646,0.086,3.276,0.171,4.888,0.255c1.611,0.127,3.205,0.253,4.778,0.377
				c6.293,0.52,12.27,0.999,17.795,1.508c5.512,0.648,10.582,1.246,15.084,1.776c2.249,0.28,4.357,0.532,6.303,0.808
				c1.94,0.313,3.725,0.603,5.337,0.864c4.875,0.537,10.057,1.109,15.483,1.708c5.405,0.77,11.053,1.574,16.882,2.404
				c1.457,0.214,2.925,0.43,4.403,0.646c1.473,0.25,2.956,0.501,4.449,0.755c2.983,0.52,6.003,1.045,9.053,1.576
				c3.048,0.544,6.132,1.058,9.224,1.648c3.086,0.623,6.193,1.25,9.314,1.88c3.12,0.636,6.254,1.274,9.395,1.915
				c3.141,0.638,6.26,1.403,9.392,2.104c3.128,0.718,6.254,1.437,9.372,2.152c1.557,0.364,3.112,0.728,4.664,1.09
				c1.545,0.391,3.086,0.781,4.624,1.17c6.143,1.573,12.219,3.13,18.168,4.652c5.93,1.556,11.733,3.078,17.348,4.551
				c11.24,2.906,22.475,5.522,33.666,7.989c11.216,2.338,22.381,4.587,33.557,6.291c11.157,1.829,22.311,3.147,33.406,4.151
				c5.557,0.397,11.089,0.881,16.619,1.069c2.763,0.11,5.519,0.294,8.273,0.341c2.755,0.056,5.505,0.111,8.249,0.167
				c2.745,0.076,5.486,0.016,8.222,0.011c2.735-0.028,5.466,0.005,8.191-0.07c5.449-0.156,10.879-0.229,16.283-0.521
				c10.813-0.417,21.524-1.248,32.139-2.141c21.22-1.949,42.021-4.688,62.351-8.021c20.434-2.792,40.193-5.728,59.419-9.161
				c19.215-3.489,37.902-7.407,56.228-11.795c18.298-4.501,36.221-9.496,53.918-15.061c17.73-5.48,35.39-11.041,53.167-16.765
				c14.556-4.641,28.616-8.902,42.633-13.137c7.014-2.097,14.016-4.189,21.066-6.297c3.521-1.069,7.109-2.027,10.503-3.282
				c3.324-1.288,6.824-2.798,8.308-5.74c1.505-2.938,1.296-6.837,1.157-10.572c-0.207-3.824-0.415-7.685-0.625-11.591
				c-0.43-7.812-0.869-15.806-1.321-24.044c-0.475-8.239-0.964-16.725-1.47-25.521c-0.478-8.8-0.973-17.909-1.488-27.396
				c-0.447-6.604-0.679-13.184-0.953-19.705c-0.249-6.522-0.495-12.99-0.739-19.384c-0.211-12.786-0.417-25.28-0.617-37.341
				c-0.321-24.123-0.62-46.516-0.88-66.059c-0.121-39.069-0.359-69.386-0.667-89.935c-0.29-20.55-0.574-31.331-0.574-31.331
				c-0.065,0.001-0.101,0.676-0.112,2.008c-0.011,1.333,0.003,3.323,0.039,5.955c0.1,5.265,0.248,13.097,0.442,23.371
				c0.403,20.547,0.997,50.859,1.762,89.919c0.09,19.543,0.473,41.273,0.996,65.061c0.278,11.893,0.568,24.301,0.87,37.207
				c0.211,6.452,0.524,13.025,0.788,19.723c0.29,6.696,0.507,13.517,0.942,20.45c0.348,9.083,0.703,17.752,1.104,26.101
				c0.477,8.346,0.936,16.375,1.383,24.188c0.491,7.81,0.969,15.401,1.439,22.874c0.246,3.736,0.489,7.442,0.732,11.132
				c0.115,1.846,0.263,3.681,0.35,5.525c0.092,1.842,0.146,3.693-0.048,5.545c-0.183,1.839-0.635,3.722-1.68,5.319
				c-1.031,1.606-2.57,2.798-4.182,3.723c-1.617,0.948-3.346,1.642-5.082,2.293c-1.739,0.643-3.508,1.211-5.276,1.757
				c-7.082,2.166-14.237,4.354-21.562,6.595c-14.656,4.46-30.028,8.995-46.846,13.894c-16.748,5.122-34.459,10.539-52.698,16.117
				c-18.233,5.647-37.159,10.918-56.323,15.628c-19.173,4.68-38.591,8.73-57.724,12.324c-4.789,0.869-9.556,1.733-14.294,2.594
				c-4.75,0.787-9.472,1.571-14.156,2.349c-9.37,1.553-18.612,2.946-27.654,4.323c-16.981,2.451-37.773,5.407-59.886,7.596
				c-11.057,1.067-22.441,1.982-33.825,2.449c-5.689,0.301-11.381,0.387-17.023,0.491c-2.821,0.065-5.632-0.005-8.425-0.008
				c-2.793-0.03-5.569-0.011-8.321-0.137c-2.752-0.077-5.509-0.153-8.271-0.23c-2.763-0.069-5.526-0.273-8.296-0.404
				c-5.543-0.229-11.089-0.752-16.659-1.185c-11.124-1.072-22.298-2.44-33.477-4.273c-11.199-1.71-22.389-3.92-33.646-6.153
				c-11.231-2.362-22.523-4.809-33.841-7.457c-11.27-2.814-22.611-5.647-34.023-8.498c-2.856-0.69-5.7-1.452-8.578-2.088
				c-2.875-0.651-5.753-1.305-8.636-1.959c-5.766-1.31-11.543-2.649-17.381-3.788c-2.914-0.594-5.832-1.189-8.754-1.785
				c-2.924-0.589-5.844-1.217-8.793-1.719c-5.888-1.056-11.792-2.114-17.713-3.176c-5.944-0.918-11.905-1.839-17.882-2.762
				l-4.488-0.674l-4.509-0.572c-3.008-0.379-6.02-0.759-9.036-1.139c-24.099-3.439-48.653-5.241-73.506-5.989
				c-24.838-1.007-49.905-2.144-75.22-3.472c-12.664-0.401-25.384-0.805-38.162-1.211c-3.194-0.084-6.408-0.255-9.53-0.238
				c-3.138,0.034-6.252,0.308-9.276,0.938c-3.012,0.665-5.925,1.703-8.616,3.179c-1.331,0.763-2.641,1.57-3.858,2.519l-0.919,0.701
				l-0.88,0.755c-0.554,0.483-1.244,1.043-1.919,1.588c-1.344,1.096-2.897,1.955-4.524,2.663c-1.676,0.587-3.439,1.085-5.278,1.035
				c-0.913,0.073-1.822-0.136-2.731-0.239c-0.444-0.115-0.885-0.251-1.327-0.38c-0.449-0.108-0.869-0.294-1.282-0.498
				c-1.711-0.705-3.148-1.904-4.397-3.202c-2.418-2.712-3.759-6.129-4.303-9.53c-0.493-3.276-0.868-6.46-1.3-9.7
				c-0.404-3.23-0.864-6.455-1.21-9.701c-0.334-3.246-0.668-6.497-1.003-9.75c-0.75-6.497-1.059-13.058-1.493-19.608
				c-3.35-52.427-0.523-105.644-0.229-159.497c2.562-54.874,3.668-109.158,4.969-162.662c0.641-13.381,1.182-26.715,1.651-40
				c0.552-13.283,1.068-26.516,1.482-39.695c0.802-26.357,1.013-52.539-0.448-78.415c-0.127-3.237-0.254-6.471-0.382-9.7
				c-0.146-3.229-0.467-6.441-0.698-9.658c-0.256-3.215-0.513-6.426-0.769-9.634c-0.274-3.236-0.475-6.498-0.389-9.735
				c0.075-6.483,0.779-12.892,1.431-19.259c0.304-3.212,1.001-6.495,2.413-9.471c1.373-2.988,3.523-5.663,6.276-7.551
				c2.742-1.924,6.215-2.706,9.521-2.434c0.828,0.067,1.641,0.257,2.458,0.395l2.357,0.725l4.482,1.482
				c6.021,1.799,12.18,3.128,18.416,3.742c6.231,0.628,12.492,0.783,18.732,0.577c6.241-0.254,12.457-0.795,18.65-1.472
				c12.408-1.274,24.771-2.981,37.172-3.672c6.183-0.317,12.345-0.695,18.496-0.953c6.153-0.213,12.284-0.526,18.404-0.656
				c24.476-0.672,48.695-0.504,72.59,0.655c23.905,0.968,47.486,3.363,70.509,7.267c23.023,3.896,45.479,9.306,67.15,16.112
				c10.85,3.355,21.369,7.613,31.841,11.348c10.451,3.76,21.136,6.678,31.906,8.732c10.764,2.088,21.564,3.534,32.317,4.537
				c2.691,0.219,5.377,0.438,8.058,0.656c2.688,0.181,5.371,0.36,8.047,0.54c5.355,0.359,10.689,0.681,16.003,0.948
				c21.231,1.402,42.127,2.411,62.655,2.459c2.566,0.003,5.126,0.006,7.68,0.009c2.554,0.007,5.1-0.109,7.641-0.157
				c5.082-0.129,10.143-0.209,15.166-0.553c5.024-0.306,10.042-0.461,14.988-1.03c2.479-0.239,4.951-0.478,7.417-0.716
				c2.463-0.271,4.906-0.671,7.351-0.999c19.55-2.753,38.448-7.163,56.808-11.911c9.18-2.389,18.24-4.845,27.196-7.287
				c8.914-2.572,17.727-5.115,26.435-7.628c4.349-1.279,8.695-2.468,12.973-3.803c4.281-1.322,8.536-2.637,12.765-3.943
				c8.457-2.617,16.809-5.202,25.054-7.754c16.501-5.091,32.524-10.209,48.276-14.671c3.929-1.145,7.829-2.281,11.702-3.409
				c3.878-1.109,7.704-2.295,11.552-3.297c7.673-2.099,15.248-4.045,22.641-6.149c3.719-0.99,7.332-2.182,10.957-3.252
				c3.604-1.128,7.118-2.41,10.637-3.59c1.722-0.684,3.438-1.363,5.146-2.041c0.854-0.339,1.707-0.677,2.557-1.015
				c0.853-0.331,1.703-0.666,2.518-1.071c1.648-0.771,3.29-1.539,4.925-2.304c1.636-0.762,3.279-1.493,4.815-2.409
				c1.627-0.892,3.245-1.777,4.851-2.657c0.81-0.442,1.617-0.883,2.421-1.322l1.29-0.682l0.646-0.335l0.685-0.263l1.368-0.519
				c0.472-0.13,0.955-0.232,1.43-0.347l0.715-0.166l0.736-0.069c0.492-0.036,0.979-0.105,1.471-0.106
				c1.981,0.008,3.941,0.497,5.695,1.367c1.758,0.893,3.186,2.247,4.374,3.718c0.535,0.778,1.102,1.538,1.485,2.389
				c0.465,0.813,0.768,1.685,1.083,2.547c0.327,0.859,0.474,1.761,0.715,2.635c0.13,0.891,0.28,1.78,0.362,2.668
				c0.033,0.885,0.095,1.792,0.099,2.648c-0.002,0.851-0.005,1.698-0.007,2.544c-0.016,13.524-0.032,26.362-0.046,38.599
				c-0.006,24.473,0,46.539-0.202,66.885c-0.403,74.287-0.611,118.33-0.47,125.354l0.005,0.287l-0.299,0.012
				c-0.405,0.015-0.695,0.025-0.882,0.033C951.231,251.694,951.145,251.705,951.145,251.715z"/>
		</g>
	</g>
</g>
<g>
	<defs>
		<path id="SVGID_1_" d="M935.267,26.275c-4.826,2.293-7.688,3.785-10.654,5.028c-9.029,3.765-17.857,8.304-27.172,10.929
			c-14.85,4.173-30.291,6.149-45.029,10.64c-28.025,8.539-55.559,18.831-83.619,27.226c-28.062,8.394-56.318,16.358-84.871,22.658
			c-26.248,5.797-52.93,12.166-79.537,12.87c-43.947,1.168-88.088-0.469-131.93-3.972c-25.914-2.065-51.994-7.938-76.932-15.751
			C360.511,84.94,326.095,71.172,289.53,67.877c-39.717-3.579-79.654-4.74-119.523-5.838c-19.732-0.539-40.055-1.251-59.17,2.859
			c-28.082,6.025-55.268,7.469-82.51-1.934c-8.125-2.805-8.502,0.346-7.696,7.309c1.876,16.324,4.099,32.69,4.515,49.091
			c0.717,28.779,0.73,57.601,0.016,86.388c-0.752,30.382-2.877,60.731-4.078,91.106c-1.485,37.816-3.312,75.639-3.793,113.469
			c-0.631,50.977-0.277,101.966-0.027,152.949c0.105,23.35,0.98,46.693,1.535,71.391c7.473-2.087,13.023-4.809,18.658-5.01
			c24.836-0.904,49.801-2.652,74.541-1.174c46.766,2.798,93.588,6.217,140.076,12c37.236,4.643,74.117,12.643,110.979,20.082
			c36.182,7.302,71.841,18.957,108.313,22.867c37.464,4.014,75.743,2.701,113.487,0.496c34.875-2.037,69.604-7.646,104.215-12.959
			c39.328-6.039,77.994-15.199,116.385-26.438c43.645-12.774,88.168-22.377,130.586-39.488c2.883-1.16,6.529-4.069,7.092-6.784
			c1.201-5.692,0.992-11.82,0.646-17.72c-2.111-35.999-4.926-71.963-6.537-107.99c-1.396-31.073-2.035-62.216-2.084-93.324
			c-0.193-97.068,0.035-194.13,0.111-291.197C935.28,68.125,935.267,48.229,935.267,26.275z"/>
	</defs>
	<clipPath id="SVGID_2_">
		<use xlink:href="#SVGID_1_"  overflow="visible"/>
	</clipPath>
	<rect x="7.631" y="-7.487" clip-path="url(#SVGID_2_)" fill="#0066B3" width="959" height="714.097"/>
	<path clip-path="url(#SVGID_2_)" fill="#FFFFFF" d="M551.835,348.796"/>
	<polygon clip-path="url(#SVGID_2_)" fill="#FFFFFF" points="201.178,-12.701 191.427,26.792 215.756,2.11 239.352,26.446 
		229.957,-12.588 	"/>
	<g clip-path="url(#SVGID_2_)">
		<polygon fill="#FFFFFF" points="317.528,52.897 288.749,52.897 279.731,15.665 270.983,52.897 241.827,52.897 265.29,76.785 
			255.544,116.279 279.868,91.596 303.464,115.939 294.069,76.899 		"/>
	</g>
	<g clip-path="url(#SVGID_2_)">
		<polygon fill="#FFFFFF" points="381.645,142.385 352.861,142.385 343.844,105.151 335.101,142.385 305.94,142.385 
			329.403,166.272 319.657,205.766 343.981,181.082 367.577,205.425 358.182,166.385 		"/>
	</g>
	<g clip-path="url(#SVGID_2_)">
		<polygon fill="#FFFFFF" points="445.758,231.871 416.979,231.871 407.961,194.638 399.213,231.871 370.053,231.871 
			393.52,255.758 383.77,295.251 408.094,270.569 431.689,294.911 422.295,255.873 		"/>
	</g>
	<g clip-path="url(#SVGID_2_)">
		<polygon fill="#FFFFFF" points="509.87,321.356 481.091,321.356 472.073,284.13 463.326,321.356 434.165,321.356 457.633,345.245 
			447.882,384.738 472.211,360.062 495.802,384.397 486.407,345.364 		"/>
	</g>
	<g clip-path="url(#SVGID_2_)">
		<polygon fill="#FFFFFF" points="573.983,410.844 545.204,410.844 536.187,373.616 527.438,410.844 498.282,410.844 
			521.745,434.736 511.995,474.231 536.323,449.547 559.919,473.883 550.521,434.85 		"/>
	</g>
	<g clip-path="url(#SVGID_2_)">
		<polygon fill="#FFFFFF" points="638.096,500.336 609.316,500.336 600.299,463.103 591.552,500.336 562.396,500.336 
			585.858,524.224 576.112,563.717 600.437,539.033 624.032,563.369 614.637,524.337 		"/>
	</g>
	<g clip-path="url(#SVGID_2_)">
		<polygon fill="#FFFFFF" points="702.213,589.822 673.429,589.822 664.411,552.589 655.668,589.822 626.508,589.822 
			649.971,613.709 640.225,653.203 664.549,628.521 688.145,652.862 678.75,613.824 		"/>
	</g>
	<polygon clip-path="url(#SVGID_2_)" fill="#FFFFFF" points="742.862,703.31 766.325,679.308 737.546,679.308 728.524,642.075 
		719.78,679.308 690.62,679.308 714.088,703.197 	"/>
	<polygon clip-path="url(#SVGID_2_)" fill="#FFDD00" points="319.562,-9.873 808.046,703.896 808.046,-9.873 	"/>
	
		<rect x="7.631" y="-7.487" clip-path="url(#SVGID_2_)" fill="none" stroke="#000000" stroke-width="0.5" width="959" height="714.097"/>
	
		<path clip-path="url(#SVGID_2_)" fill-rule="evenodd" clip-rule="evenodd" stroke="#000000" stroke-width="6" stroke-linecap="round" stroke-linejoin="round" stroke-miterlimit="10" d="
		M822.662,731.149c-21.89-29.941-43.882-59.679-65.343-90.196c-22.543-33.127-45.05-66.305-67.764-99.378
		c-22.531-33.188-44.96-66.471-67.099-99.943c-26.958-40.212-53.423-80.768-79.93-121.326
		c-26.757-40.367-53.07-81.02-79.854-121.375c-15.781-24.159-32.064-47.998-48.235-71.885
		c-16.266-23.822-32.312-47.734-48.89-71.244c-25.833-37.817-53.258-74.234-81.785-114.369l12.852-10.651
		c13.313,19.069,26.634,38.125,39.615,57.461c25.314,38.018,51.527,75.452,76.763,113.523
		c25.483,37.907,50.878,75.87,76.442,113.751c27.224,41.546,55.132,82.68,82.463,124.182c27.562,41.355,55.2,82.662,82.525,124.168
		c18.808,28.18,37.54,56.401,56.933,84.171c18.644,28.254,38.641,55.611,57.535,83.621c20.692,29.749,41.769,59.012,62.597,87.9
		L822.662,731.149z"/>
	
		<path clip-path="url(#SVGID_2_)" fill-rule="evenodd" clip-rule="evenodd" stroke="#000000" stroke-width="6" stroke-linecap="round" stroke-linejoin="round" stroke-miterlimit="10" d="
		M816.282-142.17c1.354,37.065,2.906,74.019,3.583,111.32c0.111,40.069,0.163,80.161,0.443,120.282
		c0.067,40.113-0.006,80.248-0.424,120.377c-0.204,48.412-1.007,96.832-1.776,145.277c-0.456,48.428-1.441,96.844-1.868,145.275
		c-0.465,28.854-0.336,57.723-0.326,86.568c0.124,28.846,0.017,57.643,0.574,86.404c0.207,45.797,2.519,91.328,3.657,140.555
		l-16.612,1.621c-0.342-23.254-0.696-46.502-0.615-69.791c0.336-45.674-0.401-91.367,0.028-137.041
		c0.133-45.676,0.37-91.35,0.422-137.049c0.731-49.666,0.663-99.373,1.28-149.062c0.344-49.697,0.596-99.396,1.221-149.086
		c0.211-33.879,0.51-67.75,0.006-101.617c0.39-33.849-0.844-67.713-0.8-101.5c-0.47-36.234-1.531-72.281-2.597-107.879
		L816.282-142.17z"/>
</g>
</svg>
