<?xml version="1.0" encoding="utf-8"?>
<!-- Generator: Adobe Illustrator 16.0.1, SVG Export Plug-In . SVG Version: 6.00 Build 0)  -->
<!DOCTYPE svg PUBLIC "-//W3C//DTD SVG 1.1//EN" "http://www.w3.org/Graphics/SVG/1.1/DTD/svg11.dtd">
<svg version="1.1" id="Layer_1" xmlns="http://www.w3.org/2000/svg" xmlns:xlink="http://www.w3.org/1999/xlink" x="0px" y="0px"
	 width="1164.067px" height="827.684px" viewBox="0 0 1164.067 827.684" enable-background="new 0 0 1164.067 827.684"
	 xml:space="preserve">
<g>
	<path d="M991.491,484.564c17.422,15.696,34.846,31.396,53.012,47.765c1.135-5.711,0.83-10.129-1.049-14.514
		c-3.469-8.106-8.127-15.452-13.627-22.323c-2.811-3.521-1.875-7.274,2.068-9.1c0.846-0.395,1.812-0.617,2.746-0.73
		c9.139-1.07,18.311-1.911,27.412-3.23c4.797-0.695,10.943,0.634,12.959-7.571c-4.41-4.726-9.029-10.048-14.064-14.95
		c-5.029-4.895-10.527-9.292-15.707-14.032c-2.205-2.022-1.561-5.055,1.84-6.886c5.203-2.812,10.658-5.155,16.014-7.691
		c1.664-0.786,3.34-1.562,5.896-2.755c-2.209-2.926-3.705-5.604-5.846-7.574c-4.697-4.312-9.699-8.304-14.617-12.377
		c-2.881-2.381-5.984-4.26-7.25-8.393c-0.57-1.855-3.768-3.312-6.061-4.167c-8.381-3.121-8.238-3.724-9.092-12.854
		c-0.795-8.519,0.084-16.601,2.965-24.439c7.984-21.678,20.51-40.125,40.355-52.566c7.342-4.612,15.412-8.245,24.469-8.99
		c4.654-0.385,9.242-1.769,13.832-2.835c10.732-2.486,21.027,0.047,30.117,4.972c12.783,6.924,21.797,17.126,24.859,32.507
		c3.588,17.978-0.725,34.868-4.535,51.882c-2.84,12.684-6.592,25.189-10.537,37.586c-2.643,8.298-6.393,16.243-9.545,24.381
		c-2.82,7.285-5.785,14.531-8.166,21.962c-2.465,7.689-5.502,14.979-9.381,22.12c-4.617,8.499-7.641,17.85-11.607,26.711
		c-2.596,5.793-5.678,11.363-8.484,17.058c-4.078,8.259-8.055,16.562-12.172,24.801c-3.812,7.607-7.568,15.256-11.693,22.698
		c-5.02,9.072-10.604,17.838-15.52,26.962c-1.729,3.206-2.465,7.035-3.16,10.673c-0.529,2.75-1.068,4.723-4.158,5.827
		c-2.568,0.917-4.715,3.051-7.002,4.712c-5.051,3.675-7.869,2.365-11.189-2.797c-4.797-7.433-10.062-14.552-18.395-18.931
		c-10.838-5.691-21.693-11.546-31.783-18.436c-8.91-6.084-17.311-13.005-24.438-21.396c-19.008-22.374-38.607-44.254-57.412-66.794
		c-12.885-15.455-24.713-31.713-34.928-49.186c-8.014-13.707-15.131-27.832-21.082-42.434
		c-6.795-16.667-11.395-33.962-11.646-52.359c-0.176-12.733,0.633-25.122,4.455-37.224c3.305-10.462,9.631-18.732,18.531-25.268
		c9.531-7.002,19.924-10.941,31.783-10.414c4.227,0.188,8.582,0.521,12.592,1.724c12.721,3.813,25.406,7.802,37.889,12.312
		c4.104,1.483,7.832,4.439,11.25,7.299c11.1,9.28,21.221,19.545,29.549,31.441c1.482,2.12,2.508,4.565,3.699,6.885
		c0.645,1.25,0.869,2.896,1.826,3.771c8.758,7.977,9.02,19.384,11.793,29.669c0.879,3.246,1.664,6.139,3.525,9.006
		c1.855,2.868,3.215,6.271,3.904,9.625c0.654,3.17-1.016,5.576-4.764,5.472c-5.246-0.147-8.988,1.742-12.789,5.817
		c-4.598,4.933-10.926,8.229-16.375,12.408c-4.311,3.301-4.414,4.795-0.203,8.254c6.209,5.102,13.129,9.417,18.926,14.929
		c8.027,7.625,15.465,15.897,22.832,24.183c5.096,5.729,3.043,11.119-4.51,12.428c-3.936,0.688-7.996,0.653-11.955,1.245
		c-2.105,0.308-4.127,1.259-6.186,1.92C991.604,483.089,991.547,483.821,991.491,484.564z M970.645,334.986
		c-2.594-0.443-4.328-0.348-5.596-1.074c-1.119-0.644-1.646-2.264-2.566-3.341c-6.602-7.729-12.934-15.604-22.117-20.742
		c-10.812-6.055-21.842-11.182-34.248-12.902c-2.088-0.292-4.086-1.224-6.137-1.804c-6.188-1.759-12.221-0.734-18.162,1.169
		c-2.441,0.783-4.9,1.639-7.189,2.782c-7.213,3.6-14.574,8.064-18.137,14.955c-2.717,5.247-5.592,10.855-7.004,17.171
		c-4.012,17.915-2.975,35.375,2.348,52.575c4.115,13.309,8.846,26.485,14.338,39.28c3.947,9.19,9.061,18.004,14.631,26.326
		c7.756,11.587,16.09,22.816,24.791,33.707c10.91,13.654,22.334,26.897,33.74,40.143c7.557,8.777,15.689,17.062,23.152,25.916
		c6.879,8.163,13.895,16.135,22.186,22.89c5.127,4.188,9.816,9.442,15.668,12.057c6.764,3.02,12.725,7.209,19.203,10.57
		c7.084,3.679,14.426,7.133,19.672,13.56c0.262,0.321,1.182,0.098,2.438,0.154c-2.699-6.066-4.959-11.762-7.725-17.201
		c-2.986-5.88-6.688-11.395-9.645-17.292c-3.836-7.648-8.086-14.854-14.633-20.629c-3.658-3.227-6.959-6.989-9.816-10.942
		c-2.281-3.146-1.004-5.925,2.613-7.161c1.307-0.449,2.797-0.679,4.172-0.572c5.934,0.449,10.965-1.959,16.521-4.649
		c-1.396-1.785-2.34-3.428-3.68-4.632c-7.93-7.089-15.975-14.039-23.924-21.106c-2.828-2.511-5.648-5.052-8.174-7.858
		c-3.75-4.175-6.926-8.91-10.949-12.768c-2.07-1.98-3.791-3.374-2.996-6.419c0.818-3.119,3.42-3.736,5.98-4.26
		c5.752-1.186,11.541-2.181,17.287-3.385c1.189-0.248,2.252-1.069,4.256-2.064c-9.613-8.947-18.232-17.703-27.668-25.486
		c-6.271-5.166-12.109-11.312-20.523-13.576c-1.479-0.397-3.031-2.999-3.307-4.775c-0.389-2.442,1.209-4.236,3.811-5.277
		c3.496-1.394,7.146-2.843,10.08-5.111c7.523-5.812,15.068-11.466,23.818-15.366c2.979-1.321,5.426-3.666,4.805-7.154
		c-0.764-4.284,1.246-7.149,4.182-9.846c-0.912-1.049-1.6-2.395-2.115-2.334c-5.281,0.612-5.615-2.63-6.52-6.734
		C984.469,357.967,977.475,345.885,970.645,334.986z M1048.202,494.128c-1.416,3.028-0.904,5.124,0.27,7.763
		c2.781,6.229,5.584,12.625,6.994,19.243c1.512,7.104,1.621,14.536,2.014,21.841c0.602,11.329,0.77,22.684,1.449,34
		c0.195,3.271-1.021,6.95,1.453,10.393c4.701-4.112,6.512-9.267,8.932-14.104c6.236-12.494,12.812-24.818,19.047-37.315
		c3.379-6.77,6.291-13.765,9.494-20.622c4.311-9.22,8.795-18.356,13.025-27.614c5.594-12.241,11.016-24.559,16.49-36.85
		c1.525-3.438,3.322-6.802,4.41-10.376c2.686-8.813,4.996-17.746,7.545-26.602c0.521-1.808,1.537-3.466,2.193-5.242
		c0.895-2.422,1.879-4.841,2.445-7.344c2.256-9.904,4.232-19.87,6.568-29.756c2.229-9.411,4.572-18.576,4.139-28.575
		c-0.643-14.833-5.43-26.448-18.627-34.194c-6.533-3.832-13.059-6.475-20.775-5.202c-2.787,0.464-5.648,0.613-8.482,0.691
		c-9.977,0.285-19.27,4.101-27.65,8.372c-17.922,9.135-29.299,25.041-37.418,43.071c-3.484,7.745-5.162,16.014-4.221,24.88
		c0.852,7.981,3.256,12.13,10.693,14.439c1.498,0.465,2.805,1.713,4.051,2.767c5.604,4.736,10.979,9.763,16.771,14.243
		c6.502,5.027,11.381,11.313,15.744,18.128c1.34,2.086,2.703,4.53,0.809,6.478c-1.234,1.268-3.98,2.111-5.678,1.679
		c-6.035-1.539-10.594,1.944-15.453,4.05c-3.332,1.441-3.172,4.141-0.354,6.676c4.746,4.267,9.748,8.31,14.047,12.992
		c2.816,3.071,5,6.921,6.711,10.756c1.42,3.205,1.859,6.913-0.18,10.294c-3.85,6.391-9.225,9.378-16.965,9.216
		C1061.184,492.158,1054.647,493.469,1048.202,494.128z M1018.354,545.208c1.234,1.857,2.326,3.887,3.779,5.609
		c2.707,3.218,6.312,5.873,8.312,9.444c4.002,7.169,7.227,14.774,10.66,22.252c1.24,2.691,1.963,5.719,6.49,6.655
		c1.039-15.256,0.387-29.918-1.025-44.398C1033.45,541.176,1024.083,541.238,1018.354,545.208z"/>
	<path fill="#F4827B" d="M970.645,334.986c6.83,10.898,13.824,22.98,16.863,36.787c0.902,4.104,1.236,7.347,6.518,6.734
		c0.518-0.061,1.205,1.285,2.115,2.334c-2.934,2.696-4.943,5.562-4.18,9.846c0.621,3.488-1.826,5.832-4.805,7.154
		c-8.75,3.9-16.295,9.553-23.818,15.366c-2.934,2.27-6.584,3.719-10.08,5.111c-2.604,1.041-4.199,2.835-3.812,5.277
		c0.275,1.776,1.828,4.378,3.309,4.775c8.412,2.264,14.25,8.41,20.523,13.576c9.434,7.783,18.053,16.539,27.666,25.486
		c-2.002,0.995-3.066,1.816-4.254,2.064c-5.748,1.204-11.537,2.199-17.289,3.385c-2.561,0.522-5.16,1.141-5.98,4.26
		c-0.795,3.045,0.926,4.438,2.998,6.418c4.023,3.857,7.199,8.594,10.947,12.769c2.525,2.808,5.346,5.349,8.176,7.858
		c7.947,7.067,15.992,14.019,23.922,21.106c1.342,1.204,2.283,2.847,3.68,4.632c-5.557,2.69-10.588,5.1-16.52,4.649
		c-1.375-0.105-2.867,0.123-4.174,0.572c-3.615,1.236-4.895,4.016-2.611,7.161c2.855,3.953,6.158,7.717,9.816,10.942
		c6.545,5.774,10.797,12.979,14.633,20.629c2.955,5.897,6.656,11.412,9.645,17.292c2.764,5.439,5.023,11.135,7.723,17.201
		c-1.254-0.058-2.174,0.167-2.436-0.154c-5.246-6.427-12.588-9.881-19.672-13.56c-6.48-3.361-12.439-7.552-19.203-10.57
		c-5.854-2.612-10.543-7.869-15.67-12.057c-8.289-6.755-15.307-14.727-22.186-22.891c-7.461-8.854-15.594-17.138-23.152-25.916
		c-11.404-13.243-22.828-26.486-33.74-40.142c-8.699-10.891-17.033-22.12-24.791-33.707c-5.568-8.322-10.684-17.136-14.629-26.326
		c-5.492-12.795-10.223-25.972-14.34-39.28c-5.32-17.2-6.357-34.66-2.346-52.575c1.41-6.315,4.285-11.924,7.004-17.171
		c3.561-6.891,10.924-11.355,18.137-14.955c2.287-1.144,4.746-1.999,7.189-2.782c5.939-1.903,11.975-2.928,18.16-1.169
		c2.053,0.58,4.051,1.512,6.139,1.804c12.406,1.721,23.436,6.848,34.248,12.902c9.184,5.139,15.516,13.014,22.117,20.742
		c0.92,1.077,1.447,2.697,2.566,3.341C966.317,334.639,968.051,334.543,970.645,334.986z"/>
	<path fill="#F4827B" d="M1048.202,494.128c6.445-0.659,12.982-1.97,19.492-1.828c7.74,0.162,13.115-2.825,16.965-9.216
		c2.039-3.381,1.6-7.089,0.182-10.294c-1.711-3.835-3.895-7.685-6.713-10.756c-4.299-4.684-9.301-8.727-14.047-12.992
		c-2.818-2.535-2.979-5.233,0.354-6.676c4.859-2.104,9.418-5.589,15.453-4.05c1.697,0.434,4.443-0.411,5.68-1.679
		c1.895-1.946,0.529-4.392-0.811-6.478c-4.363-6.813-9.242-13.101-15.744-18.128c-5.795-4.48-11.168-9.507-16.771-14.243
		c-1.244-1.054-2.553-2.302-4.049-2.767c-7.439-2.31-9.846-6.458-10.693-14.439c-0.943-8.866,0.734-17.135,4.219-24.88
		c8.119-18.03,19.496-33.937,37.418-43.071c8.383-4.271,17.676-8.087,27.652-8.372c2.834-0.078,5.693-0.228,8.48-0.691
		c7.719-1.272,14.244,1.37,20.775,5.202c13.197,7.746,17.984,19.361,18.627,34.194c0.436,9.999-1.908,19.164-4.137,28.575
		c-2.338,9.886-4.314,19.852-6.57,29.756c-0.566,2.503-1.551,4.922-2.445,7.344c-0.654,1.776-1.674,3.436-2.191,5.242
		c-2.549,8.854-4.859,17.787-7.545,26.602c-1.088,3.574-2.887,6.938-4.412,10.376c-5.477,12.291-10.896,24.607-16.49,36.85
		c-4.23,9.258-8.713,18.395-13.025,27.614c-3.203,6.857-6.115,13.854-9.492,20.622c-6.236,12.497-12.811,24.821-19.049,37.315
		c-2.42,4.839-4.229,9.992-8.93,14.104c-2.477-3.441-1.258-7.121-1.453-10.393c-0.682-11.316-0.85-22.671-1.451-34
		c-0.391-7.305-0.502-14.737-2.014-21.841c-1.408-6.618-4.211-13.015-6.994-19.243
		C1047.295,499.252,1046.786,497.156,1048.202,494.128z"/>
</g>
<g>
	<polygon fill="#F4827B" points="338.385,280.515 362.876,302.115 393.127,320.385 362.876,333.678 328.266,371.887 
		352.792,405.109 383.045,443.319 410.414,503.126 355.671,489.834 397.448,567.915 371.519,606.126 385.921,639.348 
		390.245,660.948 406.091,720.754 411.853,777.234 424.816,758.96 478.119,664.267 506.926,612.77 527.093,566.255 555.905,504.785 
		577.513,453.288 596.241,376.872 600.563,315.401 603.444,270.548 596.241,194.13 578.954,140.968 547.264,89.47 508.37,49.6 
		478.119,34.649 449.307,37.968 404.652,67.872 388.805,87.811 345.589,131 328.266,169.212 318.221,215.725 323.524,267.683 	"/>
	<path d="M278.283,507.509c8.048,10.955,12.277,23.649,17.746,35.516c2.642,5.733,5.521,10.377,10.687,13.947
		c6.318,4.376,11.543,10.868,17.162,16.548c2.656,2.68,5.18,5.534,7.666,8.42c2.662,3.093,5.448,6.104,7.709,9.563
		c1.035,1.593,1.854,4.878,1.13,6.129c-1.027,1.768-3.535,2.462-5.486,3.387c-0.604,0.287-1.604,0.097-2.204-0.307
		c-7.068-4.769-12.683,0.481-18.271,3.957c-2,1.246-2.887,4.882-4.692,8.177c4.076,3.11,7.323,5.729,10.691,8.122
		c5.777,4.1,11.647,8.021,17.44,12.081c10.958,7.671,21.997,15.194,32.782,23.177c5.214,3.854,10.181,8.326,12.907,15.068
		c-2.661,4.599-5.965,5.698-10.081,5.109c-3.931-0.56-7.897,0.05-9.451,4.979c-1.84,5.812-4.961,11.652-0.6,18.028
		c4.348,6.371,8.315,13.087,12.4,19.697c0.708,1.146,1.204,2.484,1.719,3.775c1.985,4.959,3.985,9.904,5.877,14.908
		c1.098,2.909,2.379,5.84,2.865,8.91c0.527,3.397,0.756,7.854-2.528,9.231c-2.752,1.154-6.179,0.226-9.3,0.117
		c-0.425-0.014-0.836-0.612-1.229-0.979c-9.955-9.247-19.771-18.693-29.904-27.664c-5.545-4.906-11.238-10.002-17.539-13.277
		c-13.646-7.096-27.791-12.888-41.583-19.604c-5.056-2.464-9.689-6.074-14.543-9.086c-4.405-2.73-8.838-5.408-13.29-8.031
		c-16.438-9.671-31.345-22.258-45.054-36.088c-20.596-20.773-39.676-43.506-56.35-68.752
		c-11.125-16.841-22.908-33.102-34.138-49.854c-11.074-16.514-21.7-33.427-32.74-49.975c-13.421-20.11-25.665-41.203-38.384-61.884
		c-7.528-12.246-12.631-26.434-19.535-39.232c-9.508-17.633-15.547-37.053-21.017-56.442c-4.212-14.928-7.909-30.405-8.302-46.642
		c-0.257-10.711-1.426-21.365-0.477-32.131c1.587-18.091,5.681-35.32,12.758-51.576c1.911-4.391,4.119-8.609,5.862-13.082
		c5.512-14.124,15.547-23.308,25.972-32.094c8.854-7.461,18.974-10.497,29.765-11.252c3.499-0.243,6.985-0.88,10.454-1.484
		c6.554-1.147,12.98-1.139,19.501,0.805c10.23,3.04,20.663,5.188,30.862,8.331c19.519,6.025,38.269,14.718,55.658,26.384
		c8.064,5.418,14.471,14.313,21.199,22.13c6.902,8.025,13.457,16.48,19.838,25.076c5.191,7.002,9.859,14.531,14.837,21.754
		c8.426,12.227,16.745,24.563,25.417,36.558c10.66,14.731,19.043,31.147,27.16,47.744c3.893,7.952,0.729,14.626-7.25,16.28
		c-3.372,0.701-6.874,0.691-10.179,1.645c-1.638,0.473-3.991,2.17-4.244,3.703c-1.232,7.5-6.339,11.691-10.185,16.884
		c-5.194,7.028-10.775,13.677-16.178,20.496c-1.713,2.152-3.07,4.201-2.869,7.632c0.136,2.325-1.164,4.943-2.25,7.147
		c-2.645,5.375-2.177,8.484,2.064,11.316c6.438,4.293,29.514,26.418,34.302,32.226c4.993,6.054,9.987,12.27,15.704,17.315
		c7.533,6.654,12.277,15.881,18.413,23.8c2.827,3.646,5.411,7.639,8.608,10.791c2.417,2.378,4.302,4.936,2.507,7.985
		c-1.146,1.943-4.641,4.031-6.153,3.34c-4.899-2.233-8.727,0.608-12.986,1.889c-8.521,2.562-17.126,4.75-25.677,7.188
		C281.672,505.801,280.153,506.682,278.283,507.509z M241.994,405.949c-4.45-2.352-9.539-3.279-11.903-6.706
		c-3.4-4.92,1.736-8.805,4.068-12.654c5.901-9.729,11.262-20.052,18.117-28.798c8.075-10.299,17.419-19.298,26.369-28.652
		c5.99-6.255,6.716-10.245,2.959-17.987c-3.753-7.744-7.19-15.688-10.956-23.42c-2.332-4.795-4.708-9.643-7.612-13.979
		c-5.96-8.896-12.426-17.346-18.435-26.203c-13.007-19.152-24.772-39.312-39.315-57.222c-10.97-13.5-23.38-23.27-37.755-30.559
		c-9.023-4.575-18.637-7.02-27.836-10.693c-12.058-4.819-24.065-7.808-36.692-8.547c-3.191-0.19-6.47-1.251-9.437-2.667
		c-4.368-2.088-8.715-1.826-12.349,0.832c-4.79,3.499-9.791,4.735-15.125,4.011c-3.351-0.451-5.553,0.861-6.828,3.943
		c-3.174,7.631-7.698,12.015-15.64,9.09c-3.883,12.829-15.093,20.666-15.176,35.115c0,0.233-0.389,0.433-0.436,0.691
		c-1.156,6.05-6.224,7.802-9.677,11.248c0.734,2.9,1.393,5.495,2.145,8.483c-6.854,2.16-8.749,7.661-9.142,14.585
		c-0.261,4.6-1.138,9.151-1.498,11.892c1.469,4.335,3.66,7.514,3.106,9.826c-1.375,5.771-0.502,11.378-0.797,17.02
		c-0.465,8.814,0.177,17.089,2.144,25.649c1.046,4.555,3.033,5.704,6.904,6.186c-4.457,8.454-1.131,15.734,0.894,22.919
		c1.621,5.749,4.229,11.12,6.381,16.669c3.883,10.026,7.479,20.208,11.707,30.029c3.127,7.247,6.872,14.178,10.704,20.977
		c10.534,18.729,20.882,37.617,32.022,55.863c10.116,16.572,21.219,32.337,31.804,48.529c12.55,19.194,24.638,38.814,37.624,57.601
		c11.424,16.52,23.123,32.94,35.985,47.938c11.016,12.833,20.462,27.939,34.853,36.599c0.405,0.243,0.737,0.734,0.995,1.188
		c3.795,6.686,9.387,11.199,15.342,14.473c6.304,3.467,10.959,10.484,18.463,11.283c0.622,0.062,1.244,0.963,1.757,1.595
		c5.3,6.586,12.524,9.452,19.253,13.293c2.681,1.538,5.273,3.294,7.949,4.857c4.908,2.866,9.652,6.298,14.804,8.365
		c19.085,7.677,37.182,17.22,52.119,33.432c3.06,3.319,6.146,6.624,9.399,9.675c1.161,1.086,2.867,1.389,5.25,2.469
		c-0.535-2.899-0.425-4.848-1.192-6.069c-4-6.386-7.62-12.882-9.125-20.775c-0.324-1.725-2.107-3.174-3.393-4.543
		c-6.279-6.71-7.397-12.293-3.119-20.64c3.009-5.874,6.816-11.208,10.573-17.277c-1.775-1.437-3.489-3.076-5.396-4.328
		c-6.065-3.965-12.38-7.47-18.274-11.738c-8.488-6.146-16.769-12.691-24.973-19.33c-1.833-1.484-2.988-4.069-4.188-5.759
		c-2.935-0.921-5.983-1.627-8.878-2.817c-7.174-2.945-8.006-7.885-2.212-13.848c6.145-6.338,11.383-14.042,19.392-17.705
		c0.521-0.234,0.738-1.324,1.524-2.844c-4.71-5.465-9.301-11.136-14.231-16.391c-2.897-3.103-6.648-5.165-9.452-8.358
		c-9.023-10.298-16.382-21.793-18.448-36.833c-0.188-1.361-1.742-2.529-2.759-3.675c-3.698-4.155-7.441-8.264-10.784-11.967
		c1.682-7.219,5.538-7.189,9.838-6.862c2.943,0.219,6.461,0.56,8.768-1.022c2.209-1.518,3.197-5.433,4.159-7.237
		c4.687-1.383,8.603-2.549,12.529-3.68c4.031-1.158,8.066-2.276,13.088-3.692c-6.432-10.274-11.96-19.729-20.225-26.822
		c-4.793-4.113-8.81-9.441-13.168-14.24c-4.715-5.188-9.186-10.718-14.2-15.49c-4.435-4.227-9.714-7.278-14.171-11.478
		C246.315,415.109,240.71,412.399,241.994,405.949z"/>
	<path d="M324.26,256.891c0.815,1.022,2.698,2.691,3.729,4.892c1.008,2.151,1.857,4.978,1.533,7.275
		c-0.714,5.105-4.302,6.133-7.749,2.809c-3.217-3.095-4.436-6.926-3.688-11.623c0.747-4.691,0.644-9.08-1.702-13.394
		c-0.963-1.781-0.899-4.488-0.868-6.765c0.154-11.053,0.011-22.142,0.786-33.14c1.371-19.365,7.487-37.082,14.694-54.524
		c6.354-15.361,15.104-28.662,24.681-41.22c10.365-13.584,21.245-26.632,34.529-36.804c8.329-6.376,15.53-14.684,23.724-21.343
		c16.909-13.744,35.293-23.775,56.388-24.598c13.588-0.529,26.417,3.295,37.759,12.538c4.519,3.686,9.178,7.154,13.776,10.717
		c0.625,0.486,1.353,0.843,1.883,1.437c9.767,10.854,19.54,21.691,29.207,32.657c1.398,1.585,2.134,3.927,3.383,5.729
		c3.929,5.645,8.187,10.999,11.875,16.84c3.377,5.334,5.894,11.384,9.268,16.703c8.475,13.351,11.684,29.387,17.233,44.207
		c2.562,6.834,3.934,14.356,5.193,21.717c2.436,14.188,4.465,28.467,6.533,42.731c0.457,3.135,0.582,6.386,0.465,9.56
		c-0.453,12.187-1.141,24.354-1.592,36.541c-0.111,3.154,0.604,6.348,0.459,9.495c-0.787,17.089-0.961,34.282-2.801,51.225
		c-2.633,24.185-5.939,48.32-10.111,72.203c-2.262,12.966-7.273,25.26-10.407,38.064c-4.068,16.615-11.506,31.439-17.315,47.105
		c-3.584,9.662-7.618,18.765-12.088,27.808c-2.217,4.481-3.202,9.758-5.271,14.356c-9.708,21.594-19.306,43.269-29.529,64.537
		c-6.093,12.658-13.277,24.617-19.946,36.901c-4.257,7.83-8.268,15.855-12.762,23.497c-7.611,12.927-15.779,25.429-23.241,38.47
		c-7.455,13.028-14.045,26.724-21.624,39.649c-2.791,4.75-4.228,11.687-11.428,12.349c3.255,8.361-2.007,13.881-4.283,20.314
		c-1.983,5.592-4.671,10.849-6.944,16.31c-1.527,3.674-3.438,6.564-7.462,5.655c-3.938-0.893-5.062-4.188-5.231-8.361
		c-0.855-21.161-1.712-42.324-2.722-63.476c-0.164-3.423-0.979-6.832-1.708-10.188c-1.835-8.414-2.976-17.193-5.876-25.104
		c-4.616-12.609-8.373-25.359-10.479-38.832c-0.52-3.328-2.198-6.449-3.49-9.59c-1.194-2.88-3.045-5.504-3.789-8.511
		c-1.735-7.034-4.826-12.062-11.028-14.929c-3.774-1.746-4.074-6.107-1.403-10.229c7.344-11.354,14.713-22.7,22.282-33.855
		c5.062-7.443,5.442-9.737,0.533-17.607c-7.174-11.479-14.709-22.67-21.786-34.229c-2.279-3.714-3.254-8.47-5.436-12.285
		c-3.854-6.741-8.33-13.01-12.214-19.731c-1.099-1.901-1.924-5.104-1.268-6.955c0.674-1.894,3.291-3.932,5.104-3.984
		c3.432-0.107,6.944,0.938,10.345,1.893c10.027,2.824,19.994,5.914,30.022,8.709c2.354,0.655,4.861,0.563,9.047,0.997
		c-4.198-8.076-7.24-14.897-11.074-21.069c-5.956-9.598-12.419-18.786-18.75-28.078c-2.948-4.325-6.006-8.569-9.157-12.701
		c-9.626-12.612-19.436-25.042-28.921-37.793c-2.345-3.148-4.685-5.641-8.001-7.455c-7.962-4.357-8.336-9.18-2.913-16.859
		c9.635-13.648,21.961-23.84,33.252-35.345c6.216-6.332,13.313-11.438,22.061-12.157c0.64-0.054,1.229-0.906,2.384-1.801
		c-2.611-3.423-5.914-5.32-9.031-7.481c-8.631-5.996-17.385-11.777-25.833-18.09c-3.321-2.482-6.288-5.855-8.812-9.39
		c-1.566-2.194-5.941-7.039-7.577-11.895c3.885,1.2,10.108,2.91,11.822,4.112c11.175,7.807,22.064,16.192,33.392,23.679
		c6.255,4.131,13.205,6.858,19.815,10.279c3.411,1.761,7.023,3.228,10.097,5.597c4.102,3.164,3.344,8.609-1.248,10.454
		c-1.626,0.652-3.497,0.419-5.216,0.812c-6.88,1.583-13.943,2.525-20.559,5.053c-12.041,4.595-20.966,14.444-29.04,25.348
		c-3.883,5.246-7.697,10.545-12.065,16.537c2.644,4.099,4.993,8.134,7.686,11.841c7.9,10.893,15.92,21.658,23.925,32.45
		c1.304,1.751,2.762,3.348,4.143,5.031c3.621,4.42,7.573,8.541,10.775,13.33c6.12,9.164,12.163,18.447,17.597,28.155
		c7.068,12.636,13.618,25.649,21.68,37.52c0.62,0.91,1.452,1.929,1.526,2.965c0.169,2.171,0.625,5.17-0.362,6.386
		c-1.296,1.593-3.865,2.347-5.909,2.395c-1.56,0.04-3.437-1.206-4.678-2.506c-8.91-9.28-19.452-12.207-31.121-11.208
		c-0.945,0.082-2.412-0.049-2.823-0.73c-4.719-7.786-11.134-4.221-17.106-3.587c-0.223,0.025-0.433,0.233-1.1,0.623
		c1.441,1.31,2.641,2.638,4.025,3.599c5.873,4.049,8.39,11.031,12.001,17.218c8.703,14.914,18.006,29.368,27.138,43.944
		c4.896,7.812,4.744,8.702-2.371,14.183c-4.068,3.134-9.503,4.22-11.708,10.22c-0.489,1.321-1.844,2.736-1.629,3.791
		c1.531,7.502-3.029,11.844-6.397,16.627c-2.076,2.945-2.313,4.828-0.507,8.316c4.33,8.354,8.644,16.885,11.648,25.922
		c3.296,9.926,5.08,20.516,7.596,30.79c0.665,2.721,1.25,5.601,2.489,7.976c2.509,4.795,4.166,9.817,4.979,15.322
		c2.358,15.974,7.032,31.543,6.555,48.009c-0.188,6.561-0.28,13.032,1.244,19.651c7.996-3.235,11.265-11.146,15.236-17.909
		c6.61-11.243,12.507-23.041,18.87-34.479c13.982-25.133,28.062-50.188,42.109-75.268c3.686-6.581,7.775-12.899,11.066-19.727
		c9.77-20.269,19.392-40.636,28.771-61.145c9.852-21.553,19.442-43.264,28.945-65.023c2.134-4.891,2.906-10.61,5.213-15.354
		c6.944-14.295,10.482-30.03,14.487-45.452c5.836-22.481,10.737-45.27,12.26-68.883c0.869-13.535,3.135-26.94,4.354-40.451
		c0.727-8.049,0.777-16.192,0.883-24.296c0.146-11.33-0.959-22.82,0.301-33.967c2.387-21.294-1.994-41.568-5.096-62.094
		c-1.033-6.856-2.018-13.803-3.826-20.415c-2.559-9.33-5.857-18.389-8.851-27.562c-0.179-0.546-0.444-1.048-0.613-1.598
		c-7.327-24.321-22.938-42.095-37.092-60.773c-9.025-11.92-19.72-22.326-30.427-32.331c-5.727-5.351-12.885-8.854-19.722-12.349
		c-4.505-2.302-9.589-3.105-14.416-4.584c-6.632-2.024-13.186,0.326-19.239,2.19c-9.383,2.896-18.743,6.361-27.337,12.278
		c-17.383,11.978-32.072,27.737-47.488,42.587c-12.371,11.914-21.896,26.579-31.146,41.2
		c-11.271,17.807-17.781,38.909-23.674,59.818c-2.083,7.423-0.884,16.12-0.962,24.233c-0.073,8.43,0.447,16.884,0.054,25.289
		C327.863,248.753,325.944,251.969,324.26,256.891z"/>
	<path fill="#F4827B" d="M241.994,405.949c-1.283,6.45,4.321,9.16,8.19,12.812c4.457,4.198,9.736,7.251,14.171,11.478
		c5.015,4.772,9.485,10.303,14.2,15.489c4.358,4.8,8.375,10.128,13.168,14.241c8.265,7.092,13.793,16.548,20.225,26.822
		c-5.021,1.416-9.057,2.534-13.088,3.692c-3.927,1.131-7.843,2.297-12.529,3.68c-0.962,1.806-1.95,5.721-4.159,7.237
		c-2.307,1.582-5.824,1.241-8.768,1.022c-4.3-0.327-8.156-0.355-9.838,6.862c3.343,3.703,7.086,7.812,10.784,11.967
		c1.017,1.145,2.571,2.312,2.759,3.675c2.066,15.04,9.425,26.535,18.448,36.833c2.804,3.193,6.555,5.257,9.452,8.358
		c4.932,5.255,9.521,10.926,14.231,16.391c-0.786,1.52-1.003,2.608-1.524,2.843c-8.009,3.664-13.247,11.368-19.392,17.706
		c-5.794,5.962-4.962,10.901,2.212,13.848c2.895,1.19,5.942,1.896,8.878,2.817c1.199,1.688,2.354,4.273,4.188,5.758
		c8.204,6.64,16.483,13.186,24.973,19.331c5.896,4.27,12.209,7.773,18.274,11.738c1.907,1.252,3.621,2.892,5.396,4.328
		c-3.757,6.069-7.564,11.403-10.573,17.277c-4.278,8.347-3.16,13.93,3.119,20.64c1.284,1.369,3.067,2.818,3.393,4.543
		c1.504,7.894,5.125,14.391,9.125,20.775c0.769,1.223,0.657,3.17,1.192,6.069c-2.383-1.08-4.089-1.383-5.25-2.469
		c-3.255-3.051-6.341-6.354-9.399-9.675c-14.938-16.212-33.033-25.755-52.119-33.432c-5.151-2.067-9.896-5.5-14.804-8.365
		c-2.676-1.563-5.269-3.319-7.949-4.857c-6.729-3.841-13.953-6.707-19.253-13.293c-0.513-0.632-1.135-1.532-1.757-1.595
		c-7.504-0.799-12.159-7.816-18.463-11.283c-5.955-3.272-11.547-7.787-15.342-14.473c-0.258-0.454-0.59-0.945-0.995-1.188
		c-14.391-8.658-23.836-23.766-34.853-36.599c-12.862-14.996-24.562-31.418-35.985-47.938
		c-12.986-18.786-25.074-38.405-37.624-57.601c-10.585-16.192-21.688-31.957-31.804-48.529
		c-11.141-18.246-21.489-37.134-32.022-55.863c-3.832-6.799-7.577-13.729-10.704-20.977c-4.229-9.821-7.824-20.003-11.707-30.029
		c-2.152-5.549-4.76-10.92-6.381-16.669c-2.025-7.185-5.351-14.465-0.894-22.919c-3.871-0.481-5.857-1.631-6.904-6.186
		c-1.967-8.561-2.609-16.835-2.144-25.649c0.294-5.642-0.579-11.248,0.797-17.02c0.553-2.312-1.637-5.491-3.106-9.826
		c0.36-2.74,1.237-7.292,1.498-11.892c0.394-6.924,2.288-12.425,9.142-14.585c-0.752-2.988-1.411-5.583-2.145-8.483
		c3.453-3.446,8.521-5.198,9.677-11.248c0.047-0.259,0.436-0.458,0.436-0.691c0.083-14.449,11.293-22.286,15.176-35.115
		c7.942,2.925,12.466-1.459,15.64-9.09c1.275-3.082,3.477-4.395,6.828-3.943c5.334,0.725,10.335-0.512,15.125-4.011
		c3.634-2.658,7.981-2.92,12.349-0.832c2.967,1.416,6.246,2.477,9.437,2.667c12.627,0.739,24.634,3.728,36.692,8.547
		c9.199,3.674,18.812,6.118,27.836,10.693c14.375,7.289,26.785,17.059,37.755,30.559c14.543,17.91,26.309,38.069,39.315,57.222
		c6.009,8.857,12.475,17.307,18.435,26.203c2.904,4.337,5.28,9.185,7.612,13.979c3.766,7.732,7.203,15.676,10.956,23.42
		c3.757,7.742,3.031,11.732-2.959,17.987c-8.95,9.354-18.294,18.354-26.369,28.652c-6.855,8.746-12.216,19.068-18.117,28.798
		c-2.332,3.85-7.469,7.734-4.068,12.654C232.455,402.67,237.543,403.599,241.994,405.949z"/>
</g>
<g>
	<path fill="#F4827B" d="M767.202,775.479c1.492-7.943-3.309-14.021-5.268-20.94c-0.705-2.473-2.32-4.737-2.709-7.229
		c-0.928-6.038,2.545-11.521,8.787-14.765c2.605-1.354,5.131-2.918,7.84-3.999c1.484-0.592,3.281-0.625,4.904-0.5
		c2.502,0.195,5.822,1.349,6.695-1.649c0.795-2.75-0.189-6.128-0.639-9.186c-0.139-0.933-1.416-1.634-1.686-2.591
		c-2.57-9.294-6.795-17.771-11.832-25.774c1.674-3.701,4.936-4.195,7.986-4.734c3.098-0.547,6.32-0.368,9.414-0.915
		c3.432-0.604,6.781-1.664,10.107-2.515c0.162-3.802,0.084-6.548-2.773-8.254c-0.332-0.206-0.664-0.597-0.814-0.978
		c-3.912-9.677-11.51-15.968-18.842-22.55c-3.598-3.234-3.754-6.466,0.297-8.973c4.869-3.007,9.555-6.752,15.961-6.389
		c6.383,0.362,8.414-3.422,5.076-9.161c-3.246-5.588-6.822-11.012-10.682-16.173c-1.609-2.137-4.23-3.513-6.529-4.996
		c-5.318-3.443-5.357-3.386-6.1-10.007c-5.092-0.36-6.029-4.194-6.18-8.72c-0.213-6.127-0.158-12.325-4.395-17.402
		c-0.586-0.703-0.758-2.154-0.576-3.141c2.141-10.96,4.273-22.188,12.787-29.91c9.697-8.803,21.236-14.934,34.219-14.453
		c8.594,0.317,17.566,2.86,25.453,6.536c8.109,3.781,13.479,11.387,16.217,20.704c2.869,9.796,2.9,19.777,2.916,29.833
		c0.029,12.571-1.115,24.897-5.252,36.845c-0.74,2.126,0.031,4.775-0.223,7.144c-0.311,2.745-0.68,5.563-1.568,8.139
		c-1.203,3.455-3.123,6.645-4.395,10.083c-3.83,10.394-7.648,20.793-11.193,31.3c-5.312,15.769-13.346,30.144-21.018,44.657
		c-4.645,8.778-10.385,16.952-15.848,25.234c-4.762,7.2-9.562,14.42-14.85,21.199c-4.178,5.339-9.127,10.021-13.734,14.995
		C768.233,775.991,767.719,775.736,767.202,775.479z"/>
	<path d="M702.727,697.636c4.297,4.286,8.08,8.104,11.9,11.878c5.082,5.006,10.129,10.045,15.32,14.926
		c1.652,1.559,3.648,2.816,5.645,3.934c2.492,1.384,3.758,3.043,3.133,6.092c-0.643,3.149-2.805,3.913-5.461,4.209
		c-8.748,0.957-17.391,3.046-26.285,2.21c-0.59-0.051-1.205,0.267-1.98,0.449c-0.729,3.076,1.016,5.25,2.787,7.229
		c5.74,6.42,11.127,13.039,15.35,20.644c2.51,4.519,5.945,8.548,9.174,12.631c1.262,1.594,3.115,2.711,4.662,4.096
		c1.855,1.656,3.977,3.137,5.434,5.099c2.508,3.379,1.018,6.677-3.025,7.372c-0.412,0.068-0.85,0.089-1.26,0.031
		c-12.398-1.646-23.664,4.86-36.586,4.307c0.686,3.169,1.262,5.548,1.703,7.941c0.85,4.619-2.525,7.959-6.977,6.516
		c-3.367-1.083-6.572-2.793-9.668-4.549c-2.939-1.673-16.35-9.616-18.117-10.733c-10.07-6.293-17.746-15.214-25.969-23.561
		c-6.785-6.889-12.854-14.205-17.527-22.798c-3.072-5.646-7.826-10.362-11.174-15.891c-5.09-8.397-9.723-17.086-14.342-25.76
		c-3.551-6.654-7.074-13.356-10.068-20.274c-4.527-10.479-8.653-21.139-12.829-31.77c-4.22-10.767-7.887-21.747-9.161-33.278
		c-0.867-7.905-0.677-15.92-1.279-23.858c-0.716-9.382,0.575-18.642,3.312-27.392c4.279-13.692,10.72-26.436,22.577-35.509
		c2.322-1.776,4.678-3.52,7.076-5.188c10.242-7.138,21.664-5.468,32.936-4.128c4.564,0.543,9.332,1.29,13.451,3.16
		c8.143,3.688,16.941,6.025,24.307,11.414c1.504,1.1,3.398,1.627,5.016,2.597c12.398,7.438,24.975,14.68,34.729,25.684
		c4.584,5.177,9.113,10.426,13.354,15.882c4.818,6.188,9.281,12.646,13.793,18.839c-1.545,3.367-4.508,3.499-7.125,3.865
		c-3.213,0.445-5.158,2.191-7,4.693c-3.594,4.888-7.645,9.435-11.229,14.318c-2.711,3.684-5.045,7.652-7.451,11.549
		c-1.521,2.471-2.865,5.034-4.596,8.098c1.203,1.203,2.271,2.878,3.805,3.705c7.52,4.091,13.004,10.565,19.336,16.056
		c2.338,2.028,4.9,3.877,7.604,5.385c2.662,1.479,3.395,3.527,3.033,6.274c-0.379,2.915-2.57,3.955-4.959,3.843
		C718.426,687.407,710.872,692.193,702.727,697.636z M724.875,789.234c-1.703-6.473-6.43-10.871-9.979-15.933
		c-4.545-6.479-9.518-12.665-14.373-18.92c-4.488-5.773-7.48-12.778-13.715-17.089c-2.812-1.947-4-4.267-3.014-7.473
		c0.83-2.708,3.277-3.87,7.369-3.092c4.109,0.779,8.113,2.125,12.156,3.229c5.391,1.477,10.793,2.34,17.664,0.842
		c-2.502-2.853-3.955-4.856-5.746-6.49c-7.887-7.183-15.857-14.277-23.818-21.369c-4.107-3.657-4.311-5.164-0.082-8.321
		c4.016-2.995,8.273-5.729,12.652-8.157c3.402-1.884,7.158-3.132,10.633-4.612c-0.342-4.342-2.781-6.579-5.52-8.652
		c-3.521-2.663-6.883-5.541-10.516-8.025c-2.727-1.86-5.664-3.523-8.717-4.763c-3.736-1.529-4.912-3.566-2.982-7.175
		c5.746-10.763,12.195-21.149,21.137-29.508c5.34-4.986,9.52-10.512,12.982-17.569c-1.307-1.659-2.824-3.607-4.354-5.54
		c-2.586-3.284-5.207-6.525-7.736-9.85c-0.871-1.151-1.275-2.71-2.266-3.712c-6.047-6.1-11.811-12.57-18.402-18.021
		c-11.695-9.672-24.863-17.275-38.58-23.637c-11.139-5.166-23.076-7.738-35.525-5.267c-2.006,0.396-3.91,1.293-5.863,1.969
		c-6.33,2.195-10.43,7.411-15.123,11.675c-2.814,2.546-5.146,6.094-6.436,9.649c-0.668,1.845-0.82,3.595-2.289,5.322
		c-3.749,4.418-6.388,9.34-4.408,15.567c0.392,1.231,0.168,3.022-0.477,4.148c-2.549,4.401-2.99,9.004-2.414,13.951
		c0.368,3.116,0.375,6.33,0.08,9.461c-0.858,9.179,1.316,17.962,3.521,26.672c5.093,20.131,13.433,39.08,21.728,58.043
		c8.539,19.512,19.168,37.777,31.672,55.024c12.398,17.095,26.156,32.616,44.426,43.849c4.051,2.487,7.682,3.099,11.807,2.498
		c5.111-0.741,10.084-1.728,15.025-3.856C711.247,791.578,717.889,790.884,724.875,789.234z"/>
	<path d="M787.538,674.261c-1.596-2.775-2.158-4.598-3.342-5.673c-6.74-6.085-12.025-13.997-20.941-17.334
		c-4.234-1.59-4.805-5.575-1.494-8.727c2.471-2.353,5.217-4.449,8.029-6.332c4.729-3.166,9.611-6.094,14.449-9.101
		c3.771-2.347,4.285-4.458,1.551-7.87c-3.891-4.882-7.969-9.607-11.9-14.468c-1.523-1.885-3.311-2.55-5.596-1.979
		c-2.744,0.677-4.311-0.703-5.422-3.216c-1.654-3.751-3.527-7.396-5.227-11.124c-0.811-1.763-2.053-3.621-2.027-5.416
		c0.197-15.976-0.279-32.31,9.434-45.962c5.955-8.371,12.979-15.725,22.484-20.345c9.227-4.479,18.232-6.912,28.576-5.188
		c8.328,1.376,16.832,2.113,24.309,6.23c8.236,4.538,14.551,11.058,18.49,20.52c5.777,13.89,7.854,28.264,6.752,42.98
		c-0.779,10.399-3.234,20.693-5.373,30.94c-1.598,7.646-3.762,15.171-5.885,22.688c-2.309,8.142-4.652,16.294-7.363,24.294
		c-2.861,8.428-6.084,16.729-9.346,24.998c-1.836,4.64-3.885,9.207-6.188,13.604c-5.816,11.104-11.525,22.297-17.875,33.072
		c-4.717,8.002-10.332,15.432-15.637,23.036c-3.061,4.389-6.148,8.776-9.516,12.917c-7.719,9.459-15.41,18.93-24.367,27.239
		c-3.707,3.434-6.445,8.003-9.607,12.063c-0.262,0.337-0.361,0.799-0.588,1.169c-2.523,4.218-8.121,5.631-10.061,9.295
		c-2.262,4.298-5.154,7.256-8.543,10.036c-2.277,1.873-5.484,1.195-7.92-1.279c-2.094-2.129-1.205-4.44-0.057-6.59
		c0.605-1.137,1.49-2.139,2.377-3.063c6.068-6.356,12.072-12.796,18.316-18.969c5.938-5.876,10.971-24.927,8.229-32.386
		c-2.689-7.312-5.461-14.612-8.137-21.936c-1.459-3.979-0.883-6.191,2.451-8.404c7.219-4.797,14.51-9.501,21.818-14.154
		c2.75-1.757,3.74-5.986,1.539-9.797c-3.727-6.482-6.553-13.526-12.109-18.858c-3.539-3.396-2.805-7.154,1.602-9.396
		c3.541-1.785,7.439-2.837,11.234-4.012C778.61,676.559,782.627,675.59,787.538,674.261z M767.202,775.479
		c0.52,0.259,1.031,0.514,1.561,0.769c4.607-4.975,9.559-9.656,13.734-14.995c5.285-6.779,10.088-13.999,14.85-21.199
		c5.463-8.283,11.203-16.456,15.848-25.234c7.672-14.515,15.705-28.89,21.018-44.657c3.545-10.507,7.363-20.906,11.193-31.3
		c1.271-3.438,3.189-6.628,4.395-10.083c0.891-2.574,1.26-5.394,1.568-8.139c0.254-2.367-0.52-5.018,0.223-7.144
		c4.137-11.946,5.281-24.271,5.252-36.845c-0.016-10.056-0.047-20.037-2.916-29.833c-2.736-9.317-8.105-16.923-16.217-20.704
		c-7.887-3.676-16.859-6.219-25.453-6.536c-12.982-0.479-24.52,5.65-34.219,14.453c-8.514,7.724-10.646,18.95-12.787,29.91
		c-0.182,0.985-0.01,2.438,0.576,3.141c4.234,5.077,4.182,11.275,4.395,17.402c0.15,4.524,1.088,8.358,6.18,8.72
		c0.742,6.621,0.781,6.562,6.1,10.007c2.299,1.483,4.92,2.859,6.529,4.996c3.859,5.161,7.436,10.585,10.682,16.173
		c3.338,5.739,1.307,9.523-5.076,9.161c-6.406-0.363-11.092,3.382-15.961,6.389c-4.051,2.508-3.895,5.737-0.297,8.973
		c7.332,6.582,14.932,12.873,18.842,22.55c0.15,0.381,0.482,0.771,0.814,0.978c2.857,1.706,2.936,4.452,2.773,8.254
		c-3.326,0.851-6.676,1.911-10.107,2.515c-3.094,0.547-6.316,0.368-9.414,0.915c-3.053,0.539-6.312,1.033-7.986,4.734
		c5.037,8.004,9.264,16.48,11.832,25.774c0.27,0.957,1.547,1.658,1.686,2.591c0.447,3.058,1.434,6.436,0.639,9.186
		c-0.873,2.998-4.193,1.846-6.695,1.649c-1.623-0.125-3.42-0.092-4.904,0.5c-2.709,1.081-5.234,2.646-7.84,3.999
		c-6.242,3.243-9.715,8.727-8.787,14.765c0.389,2.49,2.004,4.756,2.709,7.229C763.893,761.456,768.694,767.534,767.202,775.479z"/>
	<path fill="#F4827B" d="M724.875,789.234c-6.986,1.648-13.629,2.344-19.479,4.869c-4.943,2.13-9.916,3.115-15.027,3.856
		c-4.125,0.6-7.756-0.011-11.807-2.498c-18.268-11.231-32.025-26.754-44.424-43.849c-12.506-17.247-23.133-35.515-31.672-55.024
		c-8.297-18.963-16.637-37.912-21.729-58.043c-2.204-8.71-4.38-17.493-3.521-26.672c0.295-3.131,0.288-6.345-0.08-9.461
		c-0.576-4.947-0.135-9.55,2.414-13.951c0.645-1.126,0.867-2.917,0.477-4.148c-1.979-6.229,0.659-11.149,4.409-15.567
		c1.467-1.729,1.621-3.479,2.289-5.322c1.289-3.557,3.619-7.104,6.434-9.649c4.693-4.264,8.793-9.479,15.125-11.675
		c1.951-0.676,3.855-1.572,5.863-1.969c12.447-2.473,24.387,0.1,35.523,5.266c13.719,6.361,26.887,13.966,38.582,23.638
		c6.592,5.451,12.355,11.923,18.4,18.021c0.988,1.002,1.395,2.561,2.268,3.712c2.529,3.323,5.148,6.564,7.736,9.85
		c1.525,1.933,3.047,3.881,4.354,5.54c-3.465,7.059-7.645,12.583-12.984,17.569c-8.939,8.357-15.389,18.745-21.135,29.508
		c-1.93,3.607-0.754,5.646,2.982,7.175c3.053,1.237,5.99,2.901,8.717,4.763c3.633,2.484,6.994,5.362,10.514,8.025
		c2.74,2.072,5.18,4.312,5.521,8.652c-3.475,1.48-7.23,2.729-10.633,4.612c-4.381,2.429-8.639,5.162-12.652,8.157
		c-4.229,3.157-4.027,4.664,0.082,8.32c7.961,7.093,15.932,14.188,23.816,21.37c1.793,1.634,3.244,3.639,5.746,6.49
		c-6.869,1.498-12.271,0.635-17.662-0.842c-4.045-1.104-8.047-2.449-12.156-3.229c-4.092-0.777-6.539,0.385-7.371,3.093
		c-0.984,3.206,0.201,5.524,3.016,7.473c6.232,4.31,9.227,11.314,13.713,17.089c4.855,6.255,9.83,12.44,14.373,18.92
		C718.446,778.363,723.172,782.763,724.875,789.234z"/>
</g>
<g>
	<path fill="#F4827B" d="M722.143,280.435c-2.293-8.406,0.545-15.271,1.074-22.83c0.186-2.701,1.109-5.241,1.051-7.938
		c-0.145-6.533-3.617-12.161-8.914-15.179c-2.209-1.26-4.387-2.746-6.635-3.713c-1.234-0.528-2.629-0.435-3.873-0.183
		c-1.902,0.396-4.309,1.871-5.406-1.275c-1.014-2.898-0.742-6.581-0.83-9.892c-0.025-1.01,0.867-1.856,0.932-2.899
		c0.654-10.146,2.711-19.534,5.455-28.479c-1.822-3.841-4.424-4.136-6.859-4.488c-2.473-0.356-4.938,0.064-7.414-0.293
		c-2.734-0.397-5.482-1.297-8.186-1.962c-0.662-4.062-0.998-7.01,0.965-9.041c0.234-0.247,0.43-0.691,0.492-1.109
		c1.635-10.655,6.617-17.946,11.344-25.533c2.318-3.724,1.971-7.198-1.521-9.589c-4.195-2.871-8.355-6.537-13.266-5.683
		c-4.885,0.855-7-3.06-5.244-9.446c1.715-6.229,3.703-12.295,5.949-18.104c0.936-2.405,2.762-4.067,4.328-5.832
		c3.623-4.072,3.662-4.015,3.287-11.167c3.883-0.755,4.062-4.929,3.531-9.797c-0.719-6.574-1.65-13.207,0.891-18.959
		c0.357-0.797,0.283-2.359-0.004-3.404c-3.223-11.592-6.484-23.464-14.182-31.117c-8.762-8.729-18.568-14.451-28.543-12.996
		c-6.598,0.961-13.174,4.344-18.748,8.853c-5.73,4.643-8.795,13.178-9.568,23.362c-0.818,10.703,0.59,21.403,2.021,32.177
		c1.777,13.471,4.436,26.596,9.352,39.096c0.875,2.227,0.658,5.122,1.201,7.634c0.629,2.921,1.32,5.912,2.379,8.603
		c1.426,3.622,3.369,6.898,4.844,10.49c4.451,10.857,8.902,21.723,13.15,32.722c6.373,16.506,14.645,31.324,22.662,46.32
		c4.854,9.071,10.469,17.405,15.887,25.879c4.715,7.376,9.461,14.762,14.531,21.638c3.996,5.416,8.5,10.071,12.771,15.065
		C721.413,281.056,721.784,280.743,722.143,280.435z"/>
	<path d="M765.971,201.965c-3.18,3.712-5.979,7.025-8.807,10.279c-3.756,4.313-7.49,8.677-11.312,12.828
		c-1.221,1.331-2.641,2.252-4.055,3.018c-1.764,0.944-2.727,2.473-2.537,5.941c0.197,3.585,1.58,4.91,3.328,5.834
		c5.76,3.021,11.377,7.258,17.369,8.354c0.395,0.079,0.781,0.562,1.281,0.938c0.262,3.524-1.062,5.501-2.387,7.267
		c-4.305,5.71-8.383,11.717-11.754,19.064c-2.008,4.369-4.596,7.986-7.047,11.716c-0.963,1.457-2.277,2.256-3.406,3.417
		c-1.363,1.391-2.889,2.525-4.004,4.337c-1.918,3.121-1.168,7.062,1.477,8.733c0.266,0.172,0.559,0.287,0.838,0.324
		c8.391,1.002,11.156,13.408,19.809,15.726c-0.689,3.309,3.021,3.015,2.551,5.53c-0.908,4.849,1.096,9.259,4.168,8.688
		c2.328-0.418,4.592-1.562,6.785-2.779c2.084-1.162,11.607-6.803,12.867-7.617c7.182-4.597,12.955-12.602,19.049-19.854
		c5.031-5.988,9.615-12.603,13.365-20.926c2.465-5.468,5.98-9.547,8.621-14.827c4.008-8.015,7.74-16.448,11.459-24.874
		c2.855-6.467,5.703-12.985,8.203-19.86c3.795-10.417,7.334-21.12,10.895-31.786c3.607-10.797,6.859-21.957,8.559-34.26
		c1.16-8.432,1.621-17.229,2.613-25.763c1.168-10.079,0.984-20.476-0.193-30.648c-1.848-15.92-5.203-31.288-12.439-43.874
		c-1.416-2.466-2.857-4.898-4.336-7.266c-6.305-10.109-14.047-10.867-21.656-11.952c-3.084-0.442-6.312-0.698-9.201,0.408
		c-5.699,2.187-11.742,2.749-17.047,6.966c-1.082,0.86-2.387,1.007-3.533,1.703c-8.818,5.312-17.736,10.377-25.045,20.182
		c-3.439,4.617-6.846,9.327-10.078,14.326c-3.664,5.665-7.117,11.701-10.582,17.444c0.781,4.024,2.748,4.839,4.467,5.831
		c2.107,1.213,3.279,3.561,4.32,6.708c2.039,6.146,4.402,12.027,6.436,18.171c1.531,4.64,2.797,9.497,4.117,14.298
		c0.832,3.034,1.543,6.143,2.467,9.874c-0.893,1.042-1.729,2.628-2.811,3.188c-5.312,2.763-9.445,8.595-14.074,13.156
		c-1.705,1.685-3.557,3.126-5.467,4.158c-1.879,1.014-2.521,3.084-2.48,6.168c0.037,3.266,1.424,4.897,3.018,5.314
		C756.258,187.25,760.944,194.189,765.971,201.965z M744.459,296.966c1.617-6.686,5.092-10.418,7.828-15.14
		c3.506-6.048,7.279-11.675,10.979-17.404c3.414-5.294,5.932-12.263,10.4-15.555c2.021-1.495,2.986-3.757,2.557-7.481
		c-0.354-3.143-1.896-4.963-4.686-5.041c-2.795-0.077-5.561,0.487-8.338,0.776c-3.707,0.393-7.369,0.113-11.846-3.078
		c1.883-2.543,2.998-4.404,4.311-5.782c5.789-6.06,11.623-12.006,17.457-17.945c3.01-3.067,3.256-4.667,0.668-9.066
		c-2.457-4.181-5.092-8.122-7.838-11.766c-2.125-2.831-4.541-5.044-6.75-7.439c0.549-4.67,2.342-6.559,4.318-8.199
		c2.537-2.116,4.996-4.5,7.604-6.391c1.953-1.412,4.037-2.561,6.16-3.227c2.607-0.827,3.537-2.782,2.516-7.158
		c-3.037-13.051-6.574-25.85-11.92-36.994c-3.191-6.65-5.57-13.625-7.363-22.117c0.994-1.52,2.156-3.297,3.314-5.066
		c1.965-2.996,3.955-5.947,5.883-9.002c0.662-1.062,1.049-2.668,1.783-3.536c4.479-5.302,8.801-11.061,13.596-15.519
		c8.514-7.914,17.854-13.244,27.465-17.08c7.805-3.121,15.957-3.236,24.074,2.277c1.311,0.888,2.518,2.299,3.768,3.48
		c4.057,3.83,6.406,10.447,9.223,16.162c1.688,3.42,2.982,7.822,3.58,11.996c0.311,2.162,0.283,4.106,1.135,6.326
		c2.174,5.669,3.568,11.644,1.791,17.991c-0.352,1.257-0.336,3.269,0.016,4.638c1.371,5.381,1.33,10.511,0.578,15.779
		c-0.473,3.317-0.715,6.823-0.75,10.312c-0.098,10.212-2.193,19.312-4.305,28.319c-4.881,20.83-11.836,39.631-18.766,58.459
		c-7.129,19.37-15.564,36.909-25.17,52.911c-9.525,15.864-19.84,29.697-32.854,37.832c-2.883,1.8-5.346,1.642-8.051,0.056
		c-3.355-1.968-6.594-4.169-9.734-7.609C753.379,302.605,748.999,300.343,744.459,296.966z"/>
	<path d="M691.885,173.46c0.84-3.093,1.012-5.087,1.771-6.32c4.336-7.005,7.291-15.868,13.711-20.104
		c3.045-2.005,2.916-6.316-0.096-9.45c-2.254-2.341-4.676-4.386-7.125-6.2c-4.111-3.05-8.307-5.836-12.475-8.697
		c-3.262-2.244-3.959-4.472-2.34-8.327c2.316-5.51,4.789-10.869,7.131-16.363c0.914-2.134,2.199-2.971,4.047-2.529
		c2.215,0.529,3.234-1.062,3.734-3.841c0.738-4.139,1.666-8.179,2.449-12.296c0.367-1.944,1.062-4.028,0.785-5.953
		c-2.443-17.097-4.416-34.641-13.893-48.56c-5.809-8.535-12.297-15.903-20.312-20.158c-7.781-4.131-15.096-6.084-22.846-3.486
		c-6.256,2.088-12.721,3.494-17.908,8.448c-5.727,5.467-9.676,12.909-11.361,23.332c-2.479,15.305-2.021,30.852,0.945,46.538
		c2.092,11.089,5.473,21.943,8.598,32.759c2.33,8.079,5.088,15.986,7.809,23.884c2.953,8.557,5.934,17.114,9.182,25.49
		c3.43,8.825,7.104,17.485,10.82,26.114c2.08,4.828,4.318,9.576,6.732,14.12c6.098,11.473,12.115,23.053,18.578,34.132
		c4.799,8.229,10.199,15.782,15.4,23.547c2.996,4.479,6.014,8.966,9.211,13.149c7.326,9.57,14.639,19.162,22.764,27.407
		c3.357,3.413,6.133,8.112,9.162,12.235c0.25,0.337,0.395,0.826,0.621,1.21c2.561,4.331,7.086,5.435,9.113,9.222
		c2.373,4.436,5.029,7.401,8.049,10.134c2.029,1.837,4.414,0.883,5.939-1.949c1.314-2.431,0.299-4.845-0.895-7.066
		c-0.639-1.17-1.459-2.18-2.279-3.105c-5.615-6.372-11.174-12.836-16.889-18.995c-5.439-5.86-12.066-25.902-11.014-34.094
		c1.031-8.034,2.119-16.055,3.143-24.099c0.557-4.37-0.205-6.694-3.102-8.827c-6.271-4.616-12.588-9.127-18.91-13.578
		c-2.381-1.683-3.752-6.14-2.602-10.391c1.957-7.209,3.137-14.967,6.662-21.08c2.248-3.895,1.145-7.868-2.592-9.946
		c-2.986-1.662-6.154-2.503-9.262-3.485C699.122,175.273,695.877,174.522,691.885,173.46z M722.143,280.435
		c-0.359,0.309-0.73,0.621-1.096,0.928c-4.273-4.994-8.777-9.649-12.773-15.065c-5.068-6.876-9.816-14.262-14.531-21.638
		c-5.418-8.474-11.031-16.808-15.885-25.879c-8.018-14.996-16.291-29.814-22.664-46.32c-4.248-10.999-8.697-21.864-13.15-32.722
		c-1.475-3.592-3.418-6.868-4.842-10.49c-1.061-2.69-1.752-5.682-2.381-8.603c-0.543-2.512-0.326-5.407-1.201-7.634
		c-4.914-12.5-7.572-25.625-9.352-39.096c-1.43-10.773-2.838-21.474-2.02-32.177c0.771-10.185,3.838-18.72,9.568-23.362
		c5.572-4.509,12.15-7.892,18.746-8.853c9.977-1.455,19.781,4.267,28.545,12.996c7.695,7.653,10.957,19.525,14.18,31.117
		c0.287,1.045,0.363,2.607,0.006,3.404c-2.541,5.752-1.609,12.385-0.891,18.959c0.529,4.868,0.352,9.042-3.531,9.797
		c0.375,7.152,0.336,7.095-3.289,11.167c-1.566,1.765-3.393,3.427-4.326,5.832c-2.246,5.81-4.236,11.875-5.949,18.104
		c-1.756,6.387,0.359,10.302,5.244,9.446c4.908-0.854,9.068,2.812,13.264,5.683c3.494,2.391,3.842,5.865,1.523,9.589
		c-4.729,7.587-9.709,14.878-11.344,25.533c-0.062,0.418-0.26,0.862-0.494,1.109c-1.963,2.031-1.625,4.979-0.963,9.041
		c2.701,0.665,5.449,1.564,8.186,1.962c2.475,0.357,4.939-0.063,7.414,0.293c2.436,0.353,5.037,0.647,6.859,4.488
		c-2.746,8.945-4.801,18.334-5.455,28.479c-0.064,1.043-0.957,1.89-0.932,2.899c0.088,3.311-0.184,6.993,0.83,9.892
		c1.098,3.146,3.504,1.671,5.404,1.275c1.246-0.252,2.639-0.346,3.875,0.183c2.246,0.967,4.424,2.453,6.633,3.713
		c5.299,3.018,8.771,8.646,8.914,15.179c0.061,2.697-0.863,5.237-1.051,7.938C722.688,265.164,719.85,272.028,722.143,280.435z"/>
	<path fill="#F4827B" d="M744.459,296.966c4.539,3.377,8.92,5.64,12.633,9.719c3.143,3.44,6.381,5.642,9.734,7.609
		c2.707,1.586,5.17,1.744,8.053-0.056c13.014-8.135,23.326-21.968,32.854-37.832c9.604-16.002,18.039-33.541,25.17-52.911
		c6.928-18.828,13.885-37.629,18.764-58.459c2.111-9.008,4.207-18.107,4.305-28.319c0.035-3.488,0.277-6.994,0.75-10.312
		c0.752-5.27,0.795-10.398-0.578-15.779c-0.35-1.369-0.365-3.381-0.016-4.638c1.779-6.348,0.385-12.322-1.791-17.991
		c-0.852-2.22-0.824-4.164-1.135-6.326c-0.598-4.174-1.893-8.576-3.578-11.996c-2.816-5.715-5.168-12.332-9.225-16.162
		c-1.25-1.182-2.457-2.593-3.768-3.48c-8.115-5.514-16.27-5.398-24.072-2.277c-9.611,3.836-18.953,9.166-27.465,17.08
		c-4.795,4.458-9.117,10.217-13.596,15.519c-0.734,0.868-1.121,2.474-1.783,3.536c-1.928,3.055-3.918,6.006-5.883,9.002
		c-1.158,1.77-2.32,3.547-3.314,5.066c1.793,8.492,4.172,15.467,7.361,22.117c5.348,11.145,8.885,23.943,11.922,36.994
		c1.021,4.376,0.092,6.331-2.516,7.158c-2.125,0.666-4.209,1.814-6.16,3.227c-2.607,1.891-5.066,4.274-7.604,6.391
		c-1.979,1.641-3.771,3.529-4.318,8.199c2.209,2.396,4.625,4.608,6.75,7.439c2.746,3.644,5.381,7.585,7.838,11.766
		c2.588,4.399,2.342,5.999-0.668,9.066c-5.836,5.939-11.67,11.886-17.457,17.945c-1.312,1.378-2.43,3.239-4.312,5.782
		c4.477,3.191,8.141,3.471,11.846,3.078c2.777-0.289,5.545-0.854,8.338-0.776c2.789,0.078,4.332,1.898,4.688,5.041
		c0.43,3.725-0.535,5.986-2.557,7.481c-4.471,3.292-6.988,10.261-10.4,15.555c-3.701,5.729-7.475,11.356-10.979,17.404
		C749.551,286.548,746.077,290.28,744.459,296.966z"/>
</g>
</svg>
