<?xml version="1.0" encoding="utf-8"?>
<!-- Generator: Adobe Illustrator 16.0.1, SVG Export Plug-In . SVG Version: 6.00 Build 0)  -->
<!DOCTYPE svg PUBLIC "-//W3C//DTD SVG 1.1//EN" "http://www.w3.org/Graphics/SVG/1.1/DTD/svg11.dtd">
<svg version="1.1" id="Layer_1" xmlns="http://www.w3.org/2000/svg" xmlns:xlink="http://www.w3.org/1999/xlink" x="0px" y="0px"
	 width="960px" height="705px" viewBox="0 0 960 705" enable-background="new 0 0 960 705" xml:space="preserve">
<g>
	<path d="M35.646,96.395c-2.545-0.696-3.457-1.2-4.357-1.161c-19.4,0.813-25.386-4.043-30.312-24.605
		c-3.073-12.825,1.077-21.125,12.868-23.252c29-5.242,58.077-9.905,87.138-14.721c22.407-3.694,44.789-7.717,67.266-10.735
		c24.301-3.25,48.672-5.88,73.061-8.067c42.51-3.811,85.002-8.57,127.597-10.214c61.534-2.359,123.152-2.379,184.73-3.191
		c25.121-0.348,50.271-0.774,75.375-0.059c43.562,1.239,87.104,3.541,130.662,4.894c7.388,0.232,15.006-1.295,22.205-3.405
		c8.069-2.34,15.232-1.605,23.463,0.522c14.605,3.812,29.831,4.971,44.854,6.056c6.907,0.502,13.346,0.116,17.341,7.813
		c5.262,10.137,11.735,20.042,8.489,32.848c-2.18,8.607-8.982,12.688-17.873,11.625c-7.934-0.928-15.856-1.819-24.585-2.805
		c-0.547,4.508-1.588,7.641-1.162,10.484c11.101,73.314,10.897,147.499,14.492,221.432c3.016,62.115,6.748,124.382,18.883,185.452
		c4.258,21.453,8.009,43.041,11.919,64.591c1.394,7.66,4.738,13.503,10.06,18.764c9.59,9.459,15.207,21.453,14.492,36.542
		c-1.293,27.062-0.624,34.974,29.963,30.775c4.383-0.6,9.771,0.038,13.406,2.535c8.121,5.531,16.125,32.304,14.048,43.292
		c-1.999,10.562-10.905,18.165-19.845,14.896c-10.16-3.715-21.409-1.412-31.051-9.382c-4.199-3.481-11.943-1.509-18.094-1.896
		c-14.127-0.889-28.258-1.837-42.396-2.514c-22.203-1.044-44.413-1.915-66.634-2.824c-46.864-1.895-93.729-5.106-140.61-5.319
		c-53.48-0.251-107.014,1.181-160.454,3.714c-40.161,1.896-80.236,6.5-120.319,10.291c-35.883,3.386-71.766,6.943-107.589,11.104
		c-24.491,2.844-48.844,7.138-73.325,10.176c-11.657,1.451-23.468,1.315-35.199,2.245c-8.421,0.656-16.805,2.649-25.218,2.708
		c-16.704,0.135-21.725-5.068-26.098-22.711c-9.742-39.306-18.451-78.826-22.577-119.468c-1.685-16.521-3.042-33.079-4.484-49.638
		c-0.229-2.67-0.016-5.378-0.171-8.047c-3.174-52.442-6.487-104.846-9.512-157.287c-2.681-46.561-4.406-93.2-7.711-139.703
		c-2.391-33.659-6.627-67.163-10.171-100.726C37.831,103.803,36.579,100.301,35.646,96.395z M850.867,621.702
		c-0.558-4.933-0.648-8.086-1.287-11.064c-6.739-31.299-14.885-62.288-20.088-93.896c-9.195-55.903-18.395-111.886-21.166-168.913
		c-2.649-54.085-6.101-108.113-9.269-162.161c-2.356-40.157-3.381-80.47-13.039-119.642c-3.653-14.838-5.381-16.984-19.351-17.778
		c-10.4-0.6-20.837-0.426-31.244-1.045c-31.188-1.857-62.354-5.087-93.566-5.667c-51.613-0.967-103.25-0.6-154.871-0.232
		c-36.455,0.271-72.908,1.199-109.347,2.359c-23.663,0.774-47.387,1.587-70.938,4.063c-31.098,3.268-62.115,7.736-93.071,12.514
		c-39.854,6.134-79.62,12.979-119.397,19.752c-11.801,2.012-12.559,3.712-10.957,16.771c0.65,5.319,1.172,10.658,1.487,16.018
		c1.497,25.147,2.921,50.293,4.348,75.441c2.435,42.808,5.055,85.617,7.215,128.445c1.494,29.48,1.726,59.039,3.637,88.46
		c3.204,49.191,6.712,98.365,11.307,147.402c1.811,19.322,3.125,39.384,16.455,55.208c3.989,4.737,4.108,13.811,5.604,21.007
		c1.031,4.971,1.373,10.117,1.956,14.644c9.256,0.852,16.787,2.339,24.267,2.069c24.583-0.889,49.17-2.011,73.713-3.79
		c39.663-2.845,79.279-6.443,118.936-9.461c40.153-3.075,80.295-6.771,120.508-8.472c55.402-2.36,110.856-3.561,166.295-4.411
		c39.318-0.599,78.658-0.135,117.982,0.503c26.515,0.426,53.011,2.052,79.524,2.959C841.03,622.939,845.555,622.128,850.867,621.702
		z"/>
	<g>
		<g>
			<defs>
				<path id="SVGID_1_" d="M850.867,621.702c-5.312,0.426-9.837,1.238-14.355,1.083c-26.515-0.908-53.011-2.534-79.524-2.959
					c-39.324-0.637-78.664-1.102-117.982-0.503c-55.438,0.851-110.893,2.051-166.295,4.411
					c-40.213,1.702-80.354,5.396-120.508,8.472c-39.656,3.019-79.272,6.617-118.936,9.461c-24.543,1.778-49.13,2.9-73.713,3.79
					c-7.479,0.271-15.011-1.218-24.267-2.069c-0.583-4.526-0.925-9.673-1.956-14.644c-1.496-7.196-1.615-16.27-5.604-21.007
					c-13.33-15.825-14.645-35.886-16.455-55.208c-4.595-49.037-8.103-98.21-11.307-147.402c-1.911-29.421-2.143-58.98-3.637-88.46
					c-2.16-42.828-4.78-85.637-7.215-128.445c-1.427-25.147-2.851-50.294-4.348-75.441c-0.315-5.36-0.837-10.698-1.487-16.018
					c-1.602-13.059-0.844-14.759,10.957-16.771c39.777-6.771,79.544-13.618,119.397-19.752c30.956-4.778,61.974-9.247,93.071-12.514
					c23.551-2.477,47.273-3.289,70.938-4.063c36.438-1.16,72.892-2.089,109.347-2.359c51.622-0.367,103.258-0.734,154.871,0.232
					c31.213,0.58,62.38,3.81,93.566,5.667c10.407,0.619,20.844,0.445,31.244,1.045c13.97,0.793,15.696,2.94,19.352,17.778
					c9.657,39.172,10.682,79.485,13.039,119.642c3.168,54.048,6.617,108.076,9.268,162.161
					c2.771,57.028,11.971,113.01,21.166,168.913c5.203,31.609,13.349,62.598,20.088,93.896
					C850.219,613.615,850.311,616.769,850.867,621.702z"/>
			</defs>
			<clipPath id="SVGID_2_">
				<use xlink:href="#SVGID_1_"  overflow="visible"/>
			</clipPath>
			<g clip-path="url(#SVGID_2_)">
				<polygon fill="#FFFFFF" points="890.27,210.001 878.364,0.621 36.851,62.021 48.756,271.38 				"/>
				<polygon fill="#00A651" points="902.189,419.71 890.286,210.331 48.772,271.709 60.685,481.089 				"/>
				<polygon fill="#ED1C24" points="914.153,630.078 902.207,420.04 60.7,481.419 72.64,691.456 				"/>
				<path fill="none" stroke="#000000" stroke-width="0.5" d="M914.385,629.729L878.613,0.621l-841.762,61.4l35.771,629.107
					L914.385,629.729L914.385,629.729z"/>
			</g>
		</g>
		<g>
			<defs>
				<path id="SVGID_3_" d="M850.867,621.702c-5.312,0.426-9.837,1.238-14.355,1.083c-26.515-0.908-53.011-2.534-79.524-2.959
					c-39.324-0.637-78.664-1.102-117.982-0.503c-55.438,0.851-110.893,2.051-166.295,4.411
					c-40.213,1.702-80.354,5.396-120.508,8.472c-39.656,3.019-79.272,6.617-118.936,9.461c-24.543,1.778-49.13,2.9-73.713,3.79
					c-7.479,0.271-15.011-1.218-24.267-2.069c-0.583-4.526-0.925-9.673-1.956-14.644c-1.496-7.196-1.615-16.27-5.604-21.007
					c-13.33-15.825-14.645-35.886-16.455-55.208c-4.595-49.037-8.103-98.21-11.307-147.402c-1.911-29.421-2.143-58.98-3.637-88.46
					c-2.16-42.828-4.78-85.637-7.215-128.445c-1.427-25.147-2.851-50.294-4.348-75.441c-0.315-5.36-0.837-10.698-1.487-16.018
					c-1.602-13.059-0.844-14.759,10.957-16.771c39.777-6.771,79.544-13.618,119.397-19.752c30.956-4.778,61.974-9.247,93.071-12.514
					c23.551-2.477,47.273-3.289,70.938-4.063c36.438-1.16,72.892-2.089,109.347-2.359c51.622-0.367,103.258-0.734,154.871,0.232
					c31.213,0.58,62.38,3.81,93.566,5.667c10.407,0.619,20.844,0.445,31.244,1.045c13.97,0.793,15.696,2.94,19.352,17.778
					c9.657,39.172,10.682,79.485,13.039,119.642c3.168,54.048,6.617,108.076,9.268,162.161
					c2.771,57.028,11.971,113.01,21.166,168.913c5.203,31.609,13.349,62.598,20.088,93.896
					C850.219,613.615,850.311,616.769,850.867,621.702z"/>
			</defs>
			<clipPath id="SVGID_4_">
				<use xlink:href="#SVGID_3_"  overflow="visible"/>
			</clipPath>
			<path clip-path="url(#SVGID_4_)" d="M873.079,230.817c-33.638,1.894-67.214,3.907-100.81,5.938
				c-34.607,2.089-69.236,4.158-103.804,6.383c-38.548,2.457-76.959,5.359-115.572,7.564c-68.846,3.927-137.809,7.446-206.715,11.18
				c-29.263,1.585-58.476,3.386-87.75,4.894c-26.319,1.375-52.72,2.36-79.014,3.753c-33.193,1.759-66.335,3.734-99.452,5.745
				c-4.37,0.271-8.571,1.18-12.737,1.916c-16.55,2.92-27.926-4.663-26.098-10.369c0.837-2.631,1.281-5.281,1.658-7.95
				c0.527-3.734,4.062-5.764,12.433-6.52c3.895-0.348,7.966-0.271,11.937-0.445c29.326-1.276,58.649-2.593,87.957-3.887
				c21.381-0.928,42.783-1.799,64.146-2.806c31.271-1.469,62.501-3.114,93.781-4.564c29.246-1.375,58.561-2.457,87.783-3.927
				c34.729-1.741,69.409-3.656,104.053-5.687c23.253-1.355,46.411-2.999,69.588-4.604c20.732-1.432,41.398-3.038,62.107-4.489
				c37.905-2.688,75.89-5.146,113.717-8.027c25.987-1.992,51.672-4.74,77.657-6.733c21.161-1.604,42.546-2.591,63.841-3.886"/>
		</g>
		<g>
			<defs>
				<path id="SVGID_5_" d="M850.867,621.702c-5.312,0.426-9.837,1.238-14.355,1.083c-26.515-0.908-53.011-2.534-79.524-2.959
					c-39.324-0.637-78.664-1.102-117.982-0.503c-55.438,0.851-110.893,2.051-166.295,4.411
					c-40.213,1.702-80.354,5.396-120.508,8.472c-39.656,3.019-79.272,6.617-118.936,9.461c-24.543,1.778-49.13,2.9-73.713,3.79
					c-7.479,0.271-15.011-1.218-24.267-2.069c-0.583-4.526-0.925-9.673-1.956-14.644c-1.496-7.196-1.615-16.27-5.604-21.007
					c-13.33-15.825-14.645-35.886-16.455-55.208c-4.595-49.037-8.103-98.21-11.307-147.402c-1.911-29.421-2.143-58.98-3.637-88.46
					c-2.16-42.828-4.78-85.637-7.215-128.445c-1.427-25.147-2.851-50.294-4.348-75.441c-0.315-5.36-0.837-10.698-1.487-16.018
					c-1.602-13.059-0.844-14.759,10.957-16.771c39.777-6.771,79.544-13.618,119.397-19.752c30.956-4.778,61.974-9.247,93.071-12.514
					c23.551-2.477,47.273-3.289,70.938-4.063c36.438-1.16,72.892-2.089,109.347-2.359c51.622-0.367,103.258-0.734,154.871,0.232
					c31.213,0.58,62.38,3.81,93.566,5.667c10.407,0.619,20.844,0.445,31.244,1.045c13.97,0.793,15.696,2.94,19.352,17.778
					c9.657,39.172,10.682,79.485,13.039,119.642c3.168,54.048,6.617,108.076,9.268,162.161
					c2.771,57.028,11.971,113.01,21.166,168.913c5.203,31.609,13.349,62.598,20.088,93.896
					C850.219,613.615,850.311,616.769,850.867,621.702z"/>
			</defs>
			<clipPath id="SVGID_6_">
				<use xlink:href="#SVGID_5_"  overflow="visible"/>
			</clipPath>
			<path clip-path="url(#SVGID_6_)" d="M873.079,436.347c-33.638,1.876-67.214,3.908-100.81,5.92
				c-34.607,2.09-69.236,4.18-103.804,6.384c-38.548,2.475-76.959,5.379-115.572,7.563c-68.846,3.927-137.809,7.446-206.715,11.18
				c-29.263,1.587-58.476,3.387-87.75,4.913c-26.319,1.374-52.72,2.343-79.014,3.753c-33.193,1.762-66.335,3.734-99.452,5.745
				c-4.37,0.252-8.571,1.16-12.737,1.897c-16.55,2.939-27.926-4.664-26.098-10.369c0.837-2.611,1.281-5.281,1.658-7.931
				c0.527-3.753,4.062-5.783,12.433-6.521c3.895-0.348,7.966-0.271,11.937-0.445c29.326-1.296,58.649-2.611,87.957-3.888
				c21.381-0.947,42.783-1.817,64.146-2.825c31.271-1.469,62.501-3.094,93.781-4.563c29.246-1.375,58.561-2.456,87.783-3.927
				c34.729-1.741,69.409-3.638,104.053-5.667c23.253-1.375,46.411-3.02,69.588-4.624c20.732-1.433,41.398-3.02,62.107-4.488
				c37.905-2.688,75.89-5.146,113.717-8.027c25.987-1.973,51.672-4.721,77.657-6.713c21.161-1.624,42.546-2.592,63.841-3.907"/>
		</g>
	</g>
</g>
</svg>
