<?xml version="1.0" encoding="utf-8"?>
<!-- Generator: Adobe Illustrator 16.0.1, SVG Export Plug-In . SVG Version: 6.00 Build 0)  -->
<!DOCTYPE svg PUBLIC "-//W3C//DTD SVG 1.1//EN" "http://www.w3.org/Graphics/SVG/1.1/DTD/svg11.dtd">
<svg version="1.1" id="Layer_1" xmlns="http://www.w3.org/2000/svg" xmlns:xlink="http://www.w3.org/1999/xlink" x="0px" y="0px"
	 width="960px" height="705px" viewBox="0 0 960 705" enable-background="new 0 0 960 705" xml:space="preserve">
<g>
	<g>
		<defs>
			<path id="SVGID_1_" d="M26.799,22.539c-4.916,3.444,22.609,481.421,60.945,519.339c0,0,19.654,13.787,124.834,71.237
				c105.186,57.458,273.275,89.632,368.625,56.308c95.354-33.324,321.441-172.352,338.15-199.931c0,0-72.737-42.516-119.927-220.604
				c-2.952-4.603-46.194-205.676-46.194-205.676s-85.522,48.26-88.478,50.561c-2.947,2.295-180.869,81.578-183.813,81.578
				c-2.949,0-130.738,9.19-130.738,9.19l-127.788-41.364L61.203,42.062L26.799,22.539z"/>
		</defs>
		<clipPath id="SVGID_2_">
			<use xlink:href="#SVGID_1_"  overflow="visible"/>
		</clipPath>
		<path clip-path="url(#SVGID_2_)" fill="#FFFFFF" stroke="#000000" stroke-miterlimit="10" d="M26.799,22.539
			c-4.916,3.444,22.609,481.421,60.945,519.339c0,0,19.654,13.787,124.834,71.237c105.186,57.458,273.275,89.632,368.625,56.308
			c95.354-33.324,321.441-172.352,338.15-199.931c0,0-72.737-42.516-119.927-220.604c-2.952-4.603-46.194-205.676-46.194-205.676
			s-85.522,48.26-88.478,50.561c-2.947,2.295-180.869,81.578-183.813,81.578c-2.949,0-130.738,9.19-130.738,9.19l-127.788-41.364
			L61.203,42.062L26.799,22.539z"/>
	</g>
	<g>
		<defs>
			<path id="SVGID_3_" d="M26.799,22.539c-4.916,3.444,22.609,481.421,60.945,519.339c0,0,19.654,13.787,124.834,71.237
				c105.186,57.458,273.275,89.632,368.625,56.308c95.354-33.324,321.441-172.352,338.15-199.931c0,0-72.737-42.516-119.927-220.604
				c-2.952-4.603-46.194-205.676-46.194-205.676s-85.522,48.26-88.478,50.561c-2.947,2.295-180.869,81.578-183.813,81.578
				c-2.949,0-130.738,9.19-130.738,9.19l-127.788-41.364L61.203,42.062L26.799,22.539z"/>
		</defs>
		<clipPath id="SVGID_4_">
			<use xlink:href="#SVGID_3_"  overflow="visible"/>
		</clipPath>
		<g clip-path="url(#SVGID_4_)">
			<polygon fill="#FFFFFF" points="761.464,637.805 761.464,177.629 121.717,177.629 121.717,637.805 			"/>
			<path fill="#FFFFFF" stroke="#000000" stroke-width="0.5" d="M441.588,407.709"/>
			<path fill="#FFCB05" d="M577.574,285.132c2.729-0.449,7.408-1.822,7.797-4.541c4.68,0.448,8.563-2.286,14.417-7.29
				c5.848-5.02,9.349,0,12.857-3.646c1.94-2.287,2.339-4.108,1.94-5.932c2.34-1.823,10.528-7.738,11.696-10.008
				c3.897,1.359,10.135,0.448,13.643,2.27c3.503,1.822,12.858-3.182,11.688-14.565c4.288-2.287,10.128-9.114,9.349-15.044
				c1.559-2.27,5.459-7.738,1.559-10.92c-3.896-3.198-9.736-2.286-17.923,11.831c-4.287-0.447-13.638-2.733-21.428,5.931
				c-8.966-1.374-21.824-1.822-34.297,15.478c-6.229,0-17.14,0.463-25.327,15.492c-2.338-0.911-7.788-4.557-16.755,12.758
				c-5.062,0-8.766,2.271-10.518,8.649c-2.729-1.374-10.916-0.463-14.809,5.469c-5.068-1.375-17.536-6.38-27.662,4.556
				c-10.137,10.921-14.813,8.649-19.877,7.738c-5.065-0.911-11.693,2.271-13.636,1.824c-1.949-0.463-7.017-5.468-21.044,2.734
				c-3.117,2.269-7.01,5.916-11.312-0.912c-4.281-6.827-11.675-2.734-15.188-0.911c-3.503,1.823-5.841,0.911-7.792-1.823
				c-1.947-2.733-10.523,2.271-15.977-4.093c-5.449-6.379-9.75-12.99-15.196-13.221c-0.188,2.518-0.969,5.02,0.192,6.842
				c1.178,1.822,1.956,4.773,3.117,5.916c-4.278,4.556-4.09,11.151-0.382,16.619c-0.779,2.734-2.735,4.108-2.543,8.666
				c0,3.861,2.925,5.683,2.925,13.206c-0.188,4.093-7.986,12.743-11.496,11.152c-6.229-2.733-10.907-9.561-18.704-7.739
				c-2.722-4.092-9.736-10.023-13.63-3.196c-1.963,1.823-5.459,4.556-7.804,6.843c-2.331,2.27-0.772,7.29-4.28,9.559
				c-1.751,1.145-6.819,8.203-5.261,15.941c-3.507,1.822-8.766,4.557-7.986,8.201c0.779,2.27,0,4.094-2.34,1.823
				c-2.331-2.287-6.236,1.358-8.569,2.733c-2.338,1.359-5.066,1.821-7.018-4.557c-1.947-6.379-6.626-20.049-16.365-18.674
				c-2.722,2.27-4.678,8.648-3.117,14.115c-2.34,1.824-1.165,10.025,0,12.76c-1.944,2.734-3.126,11.832-1.561,15.477
				c1.561,3.646,7.408,10.024,9.349,11.384c-2.722,4.557-2.722,22.781,7.024,28.697c0.383,6.38,5.061,17.764,14.41,20.05
				c1.948,4.094,7.796,10.472,17.924,6.379c3.51,5.452,15.197,16.852,24.943,11.832c3.892,1.374,18.314,0.91,26.493-6.38
				c-1.553,3.646-0.772,9.113,4.677,12.759c-3.117,3.182-3.507,5.468-5.449,7.737l-0.587,2.286c1.559,0.23,3.697-0.23,7.201-2.055
				c4.387-2.271,6.824-0.679,9.36-1.358c2.525-0.695,6.417-5.699,6.622-12.079c2.338-13.205,5.062-15.478,14.417-16.389
				c4.676,0,14.804-3.645,16.748-6.842c4.294,0.911,15.204,0.464,20.271-3.645c4.289,4.108,15.976,4.556,21.822-8.188
				c3.503-0.911,7.788-4.108,8.18-8.664c4.282,0,15.977,0.911,13.639-13.207c3.898-2.733,8.616-1.822,7.797-18.21
				c-0.396-7.754,7.788-9.113,10.517-11.849c4.282,5.006,17.146,15.94,27.282,3.646c5.451,3.184,15.39,9.562,21.036,4.556
				c1.751-7.969-4.089-13.898-6.634-16.401c0.786-5.006,0-11.383-11.291-20.497c-0.391-1.823-0.779-7.291-4.28-10.474
				c-2.34-2.732-0.396-11.381,1.94-13.667c2.34-2.27,4.289-5.452,6.629-10.92c4.287-0.464,8.179-2.734,10.126-5.467
				c4.68,2.733,11.3,5.467,12.857,2.733c1.56-2.733-0.389-5.93,0-11.847c0.392-5.916,3.898-8.649,6.238-11.383
				c2.338-2.734,0-7.739,1.56-10.473c1.559-2.734,3.117-1.375,5.45-3.198C577.574,289.688,577.186,286.955,577.574,285.132
				c0.391-1.822-0.779,2.734-0.39,1.374"/>
			<path fill="#00A651" d="M396.534,576.13c-1.29,2.796-2.975,4.912-5.649,6.843c-6.079,5.266-9.1,2.192-11.094,0.447
				c-2.008-1.729-0.688-3.15,1.441-3.706c2.317-0.771,6.863-5.283,7.604-6.457c-1.381-0.634-6.705-2.92-8.291-3.769
				c-0.768,0.726-2.77,5.358-7.143,8.959c-6.211,5.097-10.446-0.604-12.767-3.121c-1.814-1.979-0.494-3.46,1.871-2.594
				c2.946,0.879,10.334-5.623,11.092-6.827c-1.769-0.834-13.112-8.806-14.903-9.871c-0.358,1.143-1.236,4.373-3.285,7.415
				c-2.061,3.058-7.373,1.22-8.574,0.123c-1.205-1.08-4.032-3.29-2.689-5.128c1.03-1.405,3.139,0.789,4.876,0.262
				c1.743-0.524,4.633-4.865,4.987-6.021c-1.201-1.082-4.9-4.465-6.5-5.763c-8.398,6.256-14.392,1.267-17.417-2.022
				c-3.021-3.306,1.68-2.58,3.421-2.89c2.319-0.771,5.42-1.574,6.967-1.867c-0.215-0.264-0.26-0.449-0.411-0.665
				c-4.34-6.302-10.043-10.069-11.655-11.831c-1.618-1.762-2.293-4.695-2.786-8.325c-0.496-3.629,0.275-3.661,2.271-2.363
				c1.837,1.189,3.149,1.236,5.984,4.756c2.835,3.538,2.354,6.982,7.625,13.594c0.847,0.864,1.389,1.482,2.215,2.302
				c0.767-0.711,0.323-1.947-0.173-5.577c-0.495-3.613-3.007-9.437-4.854-12.557c-1.857-3.121-1.507-4.728,2.034-3.506
				c3.548,1.22,7.051,7.46,9.494,11.014c2.443,3.537,1.956,6.749,1.023,8.155c-0.938,1.404-2.794,4.68-3.727,5.853
				c0.417,0.897,1.811,1.977,2.608,2.627c0.84-1.406,1.48-2.796,3.383-4.017c1.47-0.927,2.679-2.147,2.388-5.329
				c-0.292-3.182,1.465-3.028,2.265-2.379c1.797,1.298,3.63,3.955,4.389,9.854c0.768,5.884-2.465,8.757-3.818,9.268
				c0.806,0.647,5.385,3.876,6.785,4.958c-0.087-2.719,1.931-7.136,3.079-7.862c1.143-0.741,1.287-2.115,1.235-4.155
				c-0.06-2.054,0.714-2.317,1.921-0.989c1.006,1.099,4.05,5.067,4.32,7.801c0.28,2.719-1.082,9.16-1.637,10.317
				c1.6,1.297,8.905,4.418,11.865,5.668c-1.804-1.745-4.068-5.761-4.13-7.813c-0.059-2.04,0.045-5.005,0.344-7.755
				c0.316-2.748,1.885-2.362,3.277-1.497c4.976,3.212,5.299,7.983,5.563,10.023c0.257,2.039-1.368,6.44-2.095,8.062
				c0.792,0.648,5.332,2.286,6.903,2.902c-0.245-1.591,0.264-4.339,1.407-5.297c1.136-0.958,2.246-2.827,2.326-6.704
				c0.072-3.877,1.891-2.132,3.276-1.266c5.577,3.875,3.526,13.529,2.63,16.295c24.396,7.212,41.83,10.146,54.384,19.198
				l-5.28,6.146C437.828,586.586,415.898,582.479,396.534,576.13L396.534,576.13z"/>
			<path fill="#00A651" d="M500.107,548.776c1.94-0.187,3.178,2.146,1.955,3.459c-1.229,1.297-4.691,6.225-9.17,6.302
				c-4.486,0.062-4.521-6.256-5.796-9.622c-2.161,2.702-10.427,8.231-12.436,9.561c3.871,5.545,8.888,7.043,10.849,7.414
				c1.964,0.387,1.897,1.406,1.146,2.348c-0.952,0.959-4.407,5.886-9.714,4.495c-5.307-1.375-6.805-9.282-6.972-11.446
				c-0.661,0.711-8.521,5.021-9.864,5.872c1.053,2.578,6.079,7.612,8.928,8.417c2.849,0.789,1.938,2.764,1.17,3.368
				c-0.76,0.602-3.146,2.285-5.967,2.409c-6.728,0.155-9.892-8.032-10.559-10.519c-13.962,8-25.722,14.627-30.095,16.96
				c-5.564,2.965-20.953,9.962-28.787,21.9c-2.016-2.408-1.805-8.355-1.489-10.873c5.579-3.815,28.452-14.982,50.467-27.122
				c-0.146-1.36-3.138-3.739-3.692-5.993c-1.328-5.313,2.847-12.436,3.865-14.071c1.023-1.638,1.964-2.919,3.064-1.823
				c1.109,1.097,0.597,3.383,0.443,5.099c-0.141,1.729,2.048,6.533,3.063,8.202c1.038,1.668,0.622,4.077-0.032,5.02
				c1.248-0.633,8.716-5.143,10.058-6.009c-2.338-3.197-2.914-6.146-2.373-10.487c0.562-4.354,5.505-7.414,7.263-8.448
				c1.248-0.727,1.657,0.664,1.32,1.651c-0.364,1.05-0.402,2.92,0.213,3.815c1.425,2.225,1.756,6.766,2.088,8.108
				c1.201-0.556,4.115-2.672,4.968-3.382c-3.354-4.758-0.826-11.369,0.978-13.146c1.792-1.776,2.545,0.354,2.46,0.928
				c-0.082,0.572,0.018,1.93,0.275,2.486c0.397,0.864,2.748,4,3.543,4.648c1.288-1.019,3.713-3.121,4.467-4.062
				c-1.693-4.265-1.123-15.322-0.881-16.25c0.528-1.961,1.759-3.258,2.385-5.003c1.064-2.92,1.877-2.349,2.59-1.469
				c1.137,1.406,1.013,4.511,1.276,7.014c0.271,2.486,2.55,6.902,2.083,8.974c0.751-0.603,4.968-4.818,5.819-5.652
				c-0.694-0.311-3.276-1.808-3.588-9.189c-0.317-7.399,5.562-12.759,7.479-13.979c1.91-1.22,1.69,1.065,1.137,2.226
				c-1.115,2.101,0.396,11.213,1.533,13.453c1.031-1.313,1.717-2.41,2.364-3.583c0.641-4.587,0.99-9.5,3.258-11.862
				c2.267-2.379,8.911-5.036,8.911-5.036c2.665-1.93,4.052-1.544,4.521,1.175c0.477,2.718,1.265,9.638-1.929,13.763
				c-3.19,4.107-6.468,5.267-12.686,5.977c-0.749,0.835-2.043,2.271-3.729,4.079c1.878,4.139,4.613,2.719,7.144,2.732
				c1.361-0.169,2.229,1.112,2.688,1.716c0.59,0.786,0.054,1.822-0.422,2.302c-0.938,1.064-4.36,4.046-7.34,5.528
				c-2.98,1.5-5.709-1.932-5.763-3.397c-0.032-1.482,0.078-2.456-0.401-3.985c-0.647,1.066-9.165,9.9-10.004,10.952
				c0.687,0.31,2.523,1.375,3.071,2.101C495.832,547.524,497.292,549.069,500.107,548.776L500.107,548.776z"/>
		</g>
	</g>
</g>
<path d="M757.579,68.219c-19.55,12.805-36.655,24.706-54.579,35.549c-15.477,9.352-31.77,17.678-47.918,26.142
	c-20.032,10.488-40.495,20.343-60.389,31.03c-24.486,13.168-49.824,25.239-76.854,33.209c-17.898,5.283-36.635,9.9-56.168,10.696
	c-20.64,0.842-41.221,3.027-61.802,4.812c-24.136,2.085-47.374-1.328-70.095-8.249c-24.861-7.561-49.778-15.005-74.49-22.928
	c-7.009-2.241-13.642-5.638-20.052-9.068c-13.438-7.173-26.666-14.665-39.899-22.148c-12.277-6.942-24.837-13.569-36.559-21.176
	c-13.809-8.975-26.857-18.859-40.244-28.327c-6.73-4.772-13.589-9.406-20.209-14.294c-11.722-8.65-23.243-17.517-34.979-26.151
	c-5.695-4.2-11.701-8.078-19.301-13.297c-0.938,5.336-2.187,9.059-2.14,12.758c0.172,13.555,0.561,27.108,1.269,40.638
	c1.46,28.397,2.781,56.802,4.928,85.152c1.223,16.14,3.813,32.205,6.06,48.276c2.069,14.743,4.347,29.479,6.818,44.174
	c1.368,8.157,3.39,16.228,5.021,24.359c5.102,25.377,10.353,50.731,15.171,76.155c4.881,25.731,8.985,51.588,14.146,77.283
	c1.735,8.641,5.053,17.158,8.781,25.33c3.447,7.562,2.629,14.573-2.123,20.789c-2.371,3.105-7.638,4.502-13.373,7.661
	c0.127,2.057-0.463,6.117,0.779,9.693c2.465,7.072,1.587,13.405-4.814,18.031c-7.469,5.398-16.084,3.291-23.483-0.201
	c-6.958-3.267-12.196-7.823-11.754-16.302c1.163-22.02-4.815-43.372-9.585-64.788c-9.41-42.237-16.533-84.767-21.871-127.55
	c-5.261-42.151-7.797-84.404-9.025-126.764C7.537,153.519,5.7,108.334,3.838,63.146c-0.41-9.907-0.793-20.003-3.237-29.602
	c-2.3-9.043,2.277-14.403,8.694-19.817c1.862-1.575,4.791-3.042,5.22-4.911c1.368-6.04,6.474-9.021,11.945-8.804
	C31.58,0.22,37.421,2.708,41.367,5.75c7.597,5.885,13.965,12.952,21.035,19.369c23.053,20.93,48.49,39.541,73.563,58.555
	c33.907,25.711,72.195,45.504,110.75,64.935c11.213,5.654,24.294,8.496,36.583,12.481c9.501,3.088,19.238,5.66,28.615,9.004
	c22.801,8.124,46.039,11.662,70.802,8.951c26.562-2.911,53.413-3.753,79.966-6.665c19.115-2.094,37.722-6.982,55.064-14.581
	c21.229-9.291,42.268-18.929,63.145-28.814c12.593-5.961,24.79-12.588,37.038-19.091c21.924-11.638,44.407-22.582,65.438-35.355
	c21.038-12.781,40.647-27.369,60.692-41.386c2.497-1.738,3.78-4.804,5.67-7.236c3.904-5.021,7.394-6.465,13.426-3.646
	c16.531,7.746,26.706,15.307,26.401,32.111c-0.331,18.088,2.867,36.229,4.593,54.332c2.135,22.389,4.129,44.792,6.587,67.157
	c1.229,11.167,3.039,22.318,5.154,33.393c2.346,12.319,4.359,24.799,8.277,36.761c6.013,18.342,12.468,36.699,20.666,54.362
	c10.078,21.702,21.838,42.823,33.486,63.937c5.364,9.74,11.606,19.208,18.571,28.126c3.688,4.719,9.62,8.164,14.841,11.854
	c3.487,2.473,7.616,4.239,11.245,6.58c6.355,4.086,11.728,9.028,9.532,16.611c-2.134,7.376-8.925,11.353-16.671,13.469
	c-9.499,2.596-18.248,0.61-24.081-6.719c-12.486-15.678-26.015-30.944-36.366-47.682c-15.069-24.35-28.63-49.519-41.181-74.965
	c-15.265-30.953-27.434-62.848-31.676-96.721c-1.637-13.105-5.411-26.011-6.898-39.117c-1.479-13.089-0.923-26.335-1.98-39.471
	c-1.091-13.46-3.172-26.86-4.578-40.306c-0.438-4.194,0.053-8.448-0.166-12.666C758.684,78.768,758.135,74.243,757.579,68.219z"/>
<path d="M955.82,487.178c-15.032-1.072-25.057,7.367-35.243,14.181c-21.532,14.387-41.995,29.973-63.131,44.822
	c-21.138,14.859-42.28,29.741-63.938,44.014c-23.785,15.685-47.664,31.347-72.434,45.796
	c-26.933,15.708-53.775,31.711-83.615,43.193c-29.963,11.539-61.432,18.057-93.688,21.918c-14.55,1.737-29.271,4.264-43.806,3.854
	c-28.875-0.818-58.092,0.633-86.35-7.012c-7.842-2.124-16.246-2.604-24.293-4.233c-5.796-1.181-11.458-2.949-17.125-4.587
	c-13.225-3.807-26.497-7.506-39.584-11.638c-6.271-1.979-12.132-4.92-18.248-7.284c-17.174-6.633-34.643-12.719-51.497-19.908
	c-22.881-9.755-45.338-20.257-66.356-32.962c-12.36-7.467-25.099-14.449-37.441-21.94c-9.257-5.613-17.873-12.078-27.295-17.461
	c-8.068-4.61-16.935-8.125-25.344-12.295c-4.532-2.255-10.955-3.991-12.818-7.482c-3.396-6.363-5.655-13.9-5.425-20.875
	c0.299-9.166,16.327-13.206,25.073-6.865c3.74,2.711,7.103,5.831,10.459,8.913c12.025,11.051,26.118,19.786,40.482,28.273
	c7.439,4.386,14.438,9.352,21.691,13.992c17.633,11.276,35.5,22.02,55.242,30.614c11.707,5.097,23.732,9.754,35.125,15.152
	c17.271,8.187,35.055,15.237,53.114,21.568c15.592,5.478,32.263,8.612,48.516,12.597c7.969,1.954,16.075,3.444,24.104,5.197
	c32.19,7.014,64.85,6.75,97.679,5.413c23.884-0.965,47.122-4.973,70.194-9.814c25.458-5.336,49.527-14.312,72.164-25.586
	c38.03-18.938,74.243-40.383,109.069-63.645c27.268-18.203,55.263-35.58,82.338-53.992c16.688-11.353,32.21-24.002,48.337-35.979
	c7.758-5.754,15.766-11.26,23.535-16.998c3.72-2.75,7.341-5.638,10.69-8.719c8.409-7.747,14.894-8.024,24.144-1.021
	c2.834,2.147,6.038,3.933,9.184,5.739C961.079,468.882,962.941,475.229,955.82,487.178z"/>
</svg>
