<?xml version="1.0" encoding="utf-8"?>
<!-- Generator: Adobe Illustrator 16.0.1, SVG Export Plug-In . SVG Version: 6.00 Build 0)  -->
<!DOCTYPE svg PUBLIC "-//W3C//DTD SVG 1.1//EN" "http://www.w3.org/Graphics/SVG/1.1/DTD/svg11.dtd">
<svg version="1.1"
	 id="Layer_1" xmlns:dc="http://purl.org/dc/elements/1.1/" xmlns:cc="http://creativecommons.org/ns#" xmlns:rdf="http://www.w3.org/1999/02/22-rdf-syntax-ns#" xmlns:svg="http://www.w3.org/2000/svg"
	 xmlns="http://www.w3.org/2000/svg" xmlns:xlink="http://www.w3.org/1999/xlink" x="0px" y="0px" width="960.003px" height="705px"
	 viewBox="6156.731 -4053.03 960.003 705" enable-background="new 6156.731 -4053.03 960.003 705" xml:space="preserve">
<path id="path893" d="M6192.378-3956.628c-2.547-0.705-3.462-1.208-4.356-1.17c-19.401,0.809-25.389-4.032-30.313-24.605
	c-3.073-12.83,1.074-21.124,12.868-23.25c29-5.233,58.077-9.911,87.139-14.711c22.403-3.702,44.789-7.725,67.265-10.738
	c24.304-3.249,48.674-5.894,73.062-8.079c42.51-3.812,85.002-8.57,127.599-10.204c61.534-2.361,123.153-2.379,184.729-3.201
	c25.125-0.334,50.271-0.774,75.379-0.061c43.559,1.243,87.104,3.547,130.66,4.9c7.39,0.227,15.002-1.297,22.201-3.395
	c8.072-2.356,15.234-1.62,23.47,0.522c14.603,3.8,29.826,4.96,44.847,6.045c6.91,0.495,13.352,0.11,17.346,7.809
	c5.262,10.142,11.734,20.04,8.488,32.847c-2.176,8.612-8.98,12.688-17.873,11.641c-7.937-0.938-15.857-1.818-24.586-2.81
	c-0.545,4.511-1.588,7.645-1.162,10.489c11.104,73.299,10.897,147.488,14.492,221.418c3.016,62.125,6.746,124.395,18.881,185.451
	c4.26,21.458,8.01,43.047,11.922,64.592c1.395,7.662,4.737,13.502,10.061,18.758c9.59,9.474,15.209,21.462,14.49,36.546
	c-1.289,27.073-0.621,34.969,29.967,30.771c4.379-0.6,9.768,0.049,13.404,2.534c8.121,5.543,16.121,32.31,14.047,43.302
	c-1.996,10.557-10.902,18.158-19.847,14.885c-10.162-3.715-21.408-1.402-31.049-9.377c-4.201-3.472-11.946-1.5-18.095-1.886
	c-14.125-0.89-28.258-1.843-42.397-2.516c-22.205-1.053-44.414-1.923-66.633-2.828c-46.867-1.904-93.729-5.104-140.61-5.325
	c-53.48-0.255-107.015,1.176-160.453,3.711c-40.162,1.903-80.236,6.508-120.318,10.296c-35.883,3.388-71.768,6.952-107.588,11.113
	c-24.492,2.836-48.848,7.122-73.328,10.159c-11.656,1.451-23.465,1.314-35.201,2.245c-8.42,0.666-16.807,2.647-25.215,2.716
	c-16.703,0.131-21.725-5.062-26.1-22.709c-9.742-39.303-18.451-78.835-22.578-119.479c-1.683-16.521-3.039-33.077-4.48-49.628
	c-0.232-2.663-0.02-5.376-0.17-8.056c-3.18-52.427-6.492-104.842-9.516-157.282c-2.685-46.557-4.404-93.193-7.711-139.694
	c-2.394-33.666-6.629-67.164-10.172-100.722C6194.562-3949.226,6193.309-3952.727,6192.378-3956.628L6192.378-3956.628z
	 M7007.598-3431.324c-0.555-4.941-0.649-8.084-1.289-11.079c-6.737-31.282-14.883-62.272-20.084-93.881
	c-9.197-55.917-18.396-111.896-21.17-168.921c-2.647-54.086-6.1-108.118-9.266-162.167c-2.355-40.149-3.383-80.468-13.039-119.627
	c-3.658-14.836-5.381-16.984-19.354-17.785c-10.4-0.6-20.836-0.426-31.246-1.045c-31.187-1.858-62.353-5.078-93.564-5.668
	c-51.609-0.971-103.248-0.599-154.869-0.221c-36.455,0.264-72.91,1.184-109.348,2.358c-23.664,0.764-47.385,1.575-70.938,4.056
	c-31.101,3.271-62.115,7.738-93.071,12.512c-39.854,6.142-79.619,12.979-119.396,19.76c-11.804,2.012-12.562,3.71-10.957,16.769
	c0.647,5.31,1.168,10.659,1.483,16.008c1.494,25.146,2.92,50.298,4.347,75.449c2.437,42.813,5.058,85.618,7.217,128.448
	c1.494,29.467,1.728,59.03,3.64,88.451c3.201,49.188,6.711,98.368,11.309,147.405c1.809,19.326,3.123,39.385,16.455,55.207
	c3.986,4.736,4.107,13.815,5.604,21.008c1.029,4.972,1.373,10.123,1.953,14.639c9.258,0.846,16.787,2.347,24.271,2.076
	c24.584-0.887,49.168-2.012,73.711-3.788c39.666-2.857,79.278-6.448,118.937-9.474c40.151-3.064,80.295-6.762,120.51-8.473
	c55.403-2.354,110.856-3.549,166.297-4.396c39.312-0.601,78.653-0.14,117.979,0.493c26.516,0.432,53.014,2.055,79.527,2.954
	C6997.76-3430.101,7002.286-3430.903,7007.598-3431.324L7007.598-3431.324z"/>
<g id="g4233">
	<g>
		<g>
			<defs>
				<path id="SVGID_1_" d="M7007.598-3431.324c-5.312,0.421-9.838,1.226-14.354,1.068c-26.518-0.899-53.014-2.522-79.527-2.954
					c-39.324-0.633-78.666-1.093-117.979-0.493c-55.438,0.847-110.895,2.041-166.296,4.396c-40.215,1.711-80.356,5.408-120.51,8.473
					c-39.655,3.024-79.271,6.615-118.937,9.474c-24.543,1.776-49.129,2.901-73.711,3.788c-7.483,0.271-15.014-1.229-24.271-2.076
					c-0.58-4.517-0.922-9.667-1.953-14.639c-1.494-7.19-1.615-16.271-5.603-21.008c-13.334-15.822-14.646-35.881-16.457-55.207
					c-4.597-49.037-8.104-98.219-11.307-147.405c-1.913-29.421-2.145-58.983-3.639-88.451c-2.16-42.83-4.783-85.634-7.217-128.448
					c-1.429-25.151-2.854-50.303-4.348-75.449c-0.314-5.349-0.837-10.698-1.484-16.008c-1.604-13.059-0.847-14.756,10.957-16.769
					c39.774-6.779,79.541-13.618,119.396-19.76c30.956-4.772,61.974-9.241,93.069-12.512c23.555-2.48,47.274-3.292,70.938-4.056
					c36.438-1.176,72.894-2.095,109.349-2.359c51.619-0.378,103.258-0.75,154.869,0.221c31.213,0.59,62.379,3.81,93.564,5.668
					c10.409,0.62,20.844,0.446,31.246,1.045c13.973,0.801,15.693,2.949,19.352,17.785c9.658,39.159,10.685,79.479,13.041,119.627
					c3.166,54.049,6.615,108.081,9.265,162.167c2.774,57.026,11.974,113.004,21.171,168.921c5.2,31.607,13.346,62.599,20.083,93.881
					C7006.947-3439.408,7007.043-3436.268,7007.598-3431.324L7007.598-3431.324z"/>
			</defs>
			<clipPath id="SVGID_2_">
				<use xlink:href="#SVGID_1_"  overflow="visible"/>
			</clipPath>
			<polygon id="polygon4241" clip-path="url(#SVGID_2_)" fill="#D72027" points="7019.428,-4046.219 7047.132,-3429.788 
				6254.793,-3381.294 6227.089,-3997.725 			"/>
		</g>
	</g>
	<g>
		<g>
			<defs>
				<path id="SVGID_3_" d="M7007.598-3431.324c-5.312,0.421-9.838,1.226-14.354,1.068c-26.518-0.899-53.014-2.522-79.527-2.954
					c-39.324-0.633-78.666-1.093-117.979-0.493c-55.438,0.847-110.895,2.041-166.296,4.396c-40.215,1.711-80.356,5.408-120.51,8.473
					c-39.655,3.024-79.271,6.615-118.937,9.474c-24.543,1.776-49.129,2.901-73.711,3.788c-7.483,0.271-15.014-1.229-24.271-2.076
					c-0.58-4.517-0.922-9.667-1.953-14.639c-1.494-7.19-1.615-16.271-5.603-21.008c-13.334-15.822-14.646-35.881-16.457-55.207
					c-4.597-49.037-8.104-98.219-11.307-147.405c-1.913-29.421-2.145-58.983-3.639-88.451c-2.16-42.83-4.783-85.634-7.217-128.448
					c-1.429-25.151-2.854-50.303-4.348-75.449c-0.314-5.349-0.837-10.698-1.484-16.008c-1.604-13.059-0.847-14.756,10.957-16.769
					c39.774-6.779,79.541-13.618,119.396-19.76c30.956-4.772,61.974-9.241,93.069-12.512c23.555-2.48,47.274-3.292,70.938-4.056
					c36.438-1.176,72.894-2.095,109.349-2.359c51.619-0.378,103.258-0.75,154.869,0.221c31.213,0.59,62.379,3.81,93.564,5.668
					c10.409,0.62,20.844,0.446,31.246,1.045c13.973,0.801,15.693,2.949,19.352,17.785c9.658,39.159,10.685,79.479,13.041,119.627
					c3.166,54.049,6.615,108.081,9.265,162.167c2.774,57.026,11.974,113.004,21.171,168.921c5.2,31.607,13.346,62.599,20.083,93.881
					C7006.947-3439.408,7007.043-3436.268,7007.598-3431.324L7007.598-3431.324z"/>
			</defs>
			<clipPath id="SVGID_4_">
				<use xlink:href="#SVGID_3_"  overflow="visible"/>
			</clipPath>
			<polygon id="polygon4243" clip-path="url(#SVGID_4_)" fill="#FFFFFF" points="7019.428,-4046.219 7033.279,-3738.004 
				6240.939,-3689.509 6227.089,-3997.725 			"/>
		</g>
	</g>
	<g>
		<g>
			<defs>
				<path id="SVGID_5_" d="M7007.598-3431.324c-5.312,0.421-9.838,1.226-14.354,1.068c-26.518-0.899-53.014-2.522-79.527-2.954
					c-39.324-0.633-78.666-1.093-117.979-0.493c-55.438,0.847-110.895,2.041-166.296,4.396c-40.215,1.711-80.356,5.408-120.51,8.473
					c-39.655,3.024-79.271,6.615-118.937,9.474c-24.543,1.776-49.129,2.901-73.711,3.788c-7.483,0.271-15.014-1.229-24.271-2.076
					c-0.58-4.517-0.922-9.667-1.953-14.639c-1.494-7.19-1.615-16.271-5.603-21.008c-13.334-15.822-14.646-35.881-16.457-55.207
					c-4.597-49.037-8.104-98.219-11.307-147.405c-1.913-29.421-2.145-58.983-3.639-88.451c-2.16-42.83-4.783-85.634-7.217-128.448
					c-1.429-25.151-2.854-50.303-4.348-75.449c-0.314-5.349-0.837-10.698-1.484-16.008c-1.604-13.059-0.847-14.756,10.957-16.769
					c39.774-6.779,79.541-13.618,119.396-19.76c30.956-4.772,61.974-9.241,93.069-12.512c23.555-2.48,47.274-3.292,70.938-4.056
					c36.438-1.176,72.894-2.095,109.349-2.359c51.619-0.378,103.258-0.75,154.869,0.221c31.213,0.59,62.379,3.81,93.564,5.668
					c10.409,0.62,20.844,0.446,31.246,1.045c13.973,0.801,15.693,2.949,19.352,17.785c9.658,39.159,10.685,79.479,13.041,119.627
					c3.166,54.049,6.615,108.081,9.265,162.167c2.774,57.026,11.974,113.004,21.171,168.921c5.2,31.607,13.346,62.599,20.083,93.881
					C7006.947-3439.408,7007.043-3436.268,7007.598-3431.324L7007.598-3431.324z"/>
			</defs>
			<clipPath id="SVGID_6_">
				<use xlink:href="#SVGID_5_"  overflow="visible"/>
			</clipPath>
			<path id="path4245" clip-path="url(#SVGID_6_)" fill="#16467D" d="M6637.109-3713.756l-410.021-283.968l27.704,616.43
				L6637.109-3713.756z"/>
		</g>
	</g>
	<g>
		<g>
			<defs>
				<path id="SVGID_7_" d="M7007.598-3431.324c-5.312,0.421-9.838,1.226-14.354,1.068c-26.518-0.899-53.014-2.522-79.527-2.954
					c-39.324-0.633-78.666-1.093-117.979-0.493c-55.438,0.847-110.895,2.041-166.296,4.396c-40.215,1.711-80.356,5.408-120.51,8.473
					c-39.655,3.024-79.271,6.615-118.937,9.474c-24.543,1.776-49.129,2.901-73.711,3.788c-7.483,0.271-15.014-1.229-24.271-2.076
					c-0.58-4.517-0.922-9.667-1.953-14.639c-1.494-7.19-1.615-16.271-5.603-21.008c-13.334-15.822-14.646-35.881-16.457-55.207
					c-4.597-49.037-8.104-98.219-11.307-147.405c-1.913-29.421-2.145-58.983-3.639-88.451c-2.16-42.83-4.783-85.634-7.217-128.448
					c-1.429-25.151-2.854-50.303-4.348-75.449c-0.314-5.349-0.837-10.698-1.484-16.008c-1.604-13.059-0.847-14.756,10.957-16.769
					c39.774-6.779,79.541-13.618,119.396-19.76c30.956-4.772,61.974-9.241,93.069-12.512c23.555-2.48,47.274-3.292,70.938-4.056
					c36.438-1.176,72.894-2.095,109.349-2.359c51.619-0.378,103.258-0.75,154.869,0.221c31.213,0.59,62.379,3.81,93.564,5.668
					c10.409,0.62,20.844,0.446,31.246,1.045c13.973,0.801,15.693,2.949,19.352,17.785c9.658,39.159,10.685,79.479,13.041,119.627
					c3.166,54.049,6.615,108.081,9.265,162.167c2.774,57.026,11.974,113.004,21.171,168.921c5.2,31.607,13.346,62.599,20.083,93.881
					C7006.947-3439.408,7007.043-3436.268,7007.598-3431.324L7007.598-3431.324z"/>
			</defs>
			<clipPath id="SVGID_8_">
				<use xlink:href="#SVGID_7_"  overflow="visible"/>
			</clipPath>
			<path id="path4247" clip-path="url(#SVGID_8_)" d="M7356.12-3754.133c-29.646,2.15-59.233,4.445-88.838,6.74
				c-30.5,2.369-61.015,4.727-91.478,7.225c-33.967,2.781-67.812,6.003-101.842,8.514c-60.672,4.469-121.447,8.528-182.174,12.812
				c-25.789,1.812-51.53,3.853-77.33,5.599c-23.192,1.575-46.467,2.752-69.638,4.358c-29.252,2.025-58.459,4.265-87.642,6.543
				c-3.854,0.297-7.553,1.264-11.222,2.045c-14.573,3.116-24.644-4.625-23.063-10.505c0.726-2.709,1.104-5.449,1.418-8.182
				c0.445-3.853,3.551-5.96,10.926-6.788c3.431-0.382,7.021-0.329,10.521-0.533c25.846-1.512,51.689-3.045,77.52-4.552
				c18.848-1.1,37.705-2.129,56.535-3.297c27.562-1.722,55.08-3.601,82.646-5.301c25.777-1.587,51.618-2.897,77.368-4.59
				c30.608-2.012,61.17-4.195,91.699-6.507c20.492-1.543,40.897-3.387,61.321-5.179c18.271-1.608,36.479-3.377,54.729-5.016
				c33.398-2.999,66.874-5.774,100.208-8.979c22.897-2.201,45.524-5.187,68.422-7.402c18.646-1.801,37.492-2.937,56.26-4.419"/>
		</g>
	</g>
	<g>
		<g>
			<defs>
				<path id="SVGID_9_" d="M7007.598-3431.324c-5.312,0.421-9.838,1.226-14.354,1.068c-26.518-0.899-53.014-2.522-79.527-2.954
					c-39.324-0.633-78.666-1.093-117.979-0.493c-55.438,0.847-110.895,2.041-166.296,4.396c-40.215,1.711-80.356,5.408-120.51,8.473
					c-39.655,3.024-79.271,6.615-118.937,9.474c-24.543,1.776-49.129,2.901-73.711,3.788c-7.483,0.271-15.014-1.229-24.271-2.076
					c-0.58-4.517-0.922-9.667-1.953-14.639c-1.494-7.19-1.615-16.271-5.603-21.008c-13.334-15.822-14.646-35.881-16.457-55.207
					c-4.597-49.037-8.104-98.219-11.307-147.405c-1.913-29.421-2.145-58.983-3.639-88.451c-2.16-42.83-4.783-85.634-7.217-128.448
					c-1.429-25.151-2.854-50.303-4.348-75.449c-0.314-5.349-0.837-10.698-1.484-16.008c-1.604-13.059-0.847-14.756,10.957-16.769
					c39.774-6.779,79.541-13.618,119.396-19.76c30.956-4.772,61.974-9.241,93.069-12.512c23.555-2.48,47.274-3.292,70.938-4.056
					c36.438-1.176,72.894-2.095,109.349-2.359c51.619-0.378,103.258-0.75,154.869,0.221c31.213,0.59,62.379,3.81,93.564,5.668
					c10.409,0.62,20.844,0.446,31.246,1.045c13.973,0.801,15.693,2.949,19.352,17.785c9.658,39.159,10.685,79.479,13.041,119.627
					c3.166,54.049,6.615,108.081,9.265,162.167c2.774,57.026,11.974,113.004,21.171,168.921c5.2,31.607,13.346,62.599,20.083,93.881
					C7006.947-3439.408,7007.043-3436.268,7007.598-3431.324L7007.598-3431.324z"/>
			</defs>
			<clipPath id="SVGID_10_">
				<use xlink:href="#SVGID_9_"  overflow="visible"/>
			</clipPath>
			<path id="path4249" clip-path="url(#SVGID_10_)" d="M6014.376-4152.368c25.438,17.89,50.903,35.626,76.38,53.372
				c26.249,18.278,52.506,36.577,78.786,54.724c29.304,20.239,58.72,40.034,87.942,60.538
				c52.099,36.561,104.082,73.528,156.135,110.277c22.102,15.613,44.275,31.006,66.354,46.68
				c19.852,14.086,39.573,28.551,59.42,42.597c25.057,17.732,50.18,35.262,75.298,52.739c3.315,2.313,6.83,3.969,10.229,5.759
				c13.51,7.103,18.023,20.146,13.86,23.939c-1.915,1.748-3.562,3.752-5.147,5.793c-2.244,2.873-5.826,2.547-12.299-1.663
				c-3.006-1.959-5.938-4.385-8.916-6.538c-22.002-15.897-44.015-31.775-66-47.667c-16.043-11.594-32.062-23.254-48.123-34.781
				c-23.519-16.862-47.076-33.568-70.586-50.45c-21.982-15.791-43.881-31.851-65.896-47.535
				c-26.165-18.646-52.373-37.116-78.62-55.461c-17.609-12.321-35.301-24.338-52.979-36.408
				c-15.816-10.792-31.66-21.415-47.476-32.17c-28.942-19.684-57.837-39.6-86.825-59.069
				c-19.912-13.376-39.982-25.925-59.902-39.288c-16.221-10.885-32.279-22.449-48.443-33.676"/>
		</g>
	</g>
	<g>
		<g>
			<defs>
				<path id="SVGID_11_" d="M7007.598-3431.324c-5.312,0.421-9.838,1.226-14.354,1.068c-26.518-0.899-53.014-2.522-79.527-2.954
					c-39.324-0.633-78.666-1.093-117.979-0.493c-55.438,0.847-110.895,2.041-166.296,4.396c-40.215,1.711-80.356,5.408-120.51,8.473
					c-39.655,3.024-79.271,6.615-118.937,9.474c-24.543,1.776-49.129,2.901-73.711,3.788c-7.483,0.271-15.014-1.229-24.271-2.076
					c-0.58-4.517-0.922-9.667-1.953-14.639c-1.494-7.19-1.615-16.271-5.603-21.008c-13.334-15.822-14.646-35.881-16.457-55.207
					c-4.597-49.037-8.104-98.219-11.307-147.405c-1.913-29.421-2.145-58.983-3.639-88.451c-2.16-42.83-4.783-85.634-7.217-128.448
					c-1.429-25.151-2.854-50.303-4.348-75.449c-0.314-5.349-0.837-10.698-1.484-16.008c-1.604-13.059-0.847-14.756,10.957-16.769
					c39.774-6.779,79.541-13.618,119.396-19.76c30.956-4.772,61.974-9.241,93.069-12.512c23.555-2.48,47.274-3.292,70.938-4.056
					c36.438-1.176,72.894-2.095,109.349-2.359c51.619-0.378,103.258-0.75,154.869,0.221c31.213,0.59,62.379,3.81,93.564,5.668
					c10.409,0.62,20.844,0.446,31.246,1.045c13.973,0.801,15.693,2.949,19.352,17.785c9.658,39.159,10.685,79.479,13.041,119.627
					c3.166,54.049,6.615,108.081,9.265,162.167c2.774,57.026,11.974,113.004,21.171,168.921c5.2,31.607,13.346,62.599,20.083,93.881
					C7006.947-3439.408,7007.043-3436.268,7007.598-3431.324L7007.598-3431.324z"/>
			</defs>
			<clipPath id="SVGID_12_">
				<use xlink:href="#SVGID_11_"  overflow="visible"/>
			</clipPath>
			<path id="path4251" clip-path="url(#SVGID_12_)" d="M6045.032-3211.677c23.819-20.701,47.528-41.494,71.248-62.289
				c24.437-21.432,48.89-42.863,73.233-64.379c27.146-23.988,53.981-48.267,81.31-72.066
				c48.722-42.43,97.726-84.582,146.578-126.889c20.75-17.961,41.354-36.086,62.146-53.998
				c18.688-16.107,37.629-31.935,56.281-48.052c23.551-20.348,46.967-40.847,70.338-61.362c3.09-2.706,5.732-5.874,8.439-8.869
				c10.748-11.9,22.805-11.84,24.235-5.907c0.66,2.729,1.627,5.265,2.644,7.756c1.43,3.511-0.187,7.257-5.974,12.653
				c-2.692,2.505-5.728,4.753-8.562,7.154c-20.939,17.746-41.865,35.509-62.795,53.24c-15.271,12.939-30.582,25.826-45.806,38.811
				c-22.276,19.017-44.446,38.137-66.737,57.137c-20.847,17.768-41.875,35.34-62.648,53.178
				c-24.693,21.201-49.268,42.516-73.754,63.92c-16.439,14.356-32.668,28.914-48.934,43.438
				c-14.549,12.996-28.972,26.086-43.488,39.096c-26.57,23.807-53.307,47.475-79.725,71.416
				c-18.146,16.443-35.699,33.371-53.84,49.828c-14.773,13.398-30.025,26.363-45.051,39.572"/>
		</g>
	</g>
</g>
</svg>
