<?xml version="1.0" encoding="utf-8"?>
<!-- Generator: Adobe Illustrator 16.0.1, SVG Export Plug-In . SVG Version: 6.00 Build 0)  -->
<!DOCTYPE svg PUBLIC "-//W3C//DTD SVG 1.1//EN" "http://www.w3.org/Graphics/SVG/1.1/DTD/svg11.dtd">
<svg version="1.1" id="Layer_1" xmlns="http://www.w3.org/2000/svg" xmlns:xlink="http://www.w3.org/1999/xlink" x="0px" y="0px"
	 width="960px" height="705px" viewBox="0 0 960 705" enable-background="new 0 0 960 705" xml:space="preserve">
<g>
	<path d="M35.646,96.4c-2.544-0.696-3.459-1.2-4.356-1.161c-19.4,0.802-25.386-4.044-30.312-24.605
		C-2.097,57.8,2.051,49.509,13.845,47.383c29-5.242,58.077-9.914,87.138-14.721c22.404-3.695,44.789-7.719,67.261-10.736
		c24.306-3.249,48.675-5.891,73.065-8.076c42.51-3.811,85.001-8.569,127.597-10.205c61.534-2.359,123.152-2.379,184.73-3.202
		c25.121-0.337,50.271-0.772,75.376-0.058c43.561,1.249,87.103,3.551,130.661,4.903c7.389,0.223,15.004-1.295,22.203-3.404
		c8.071-2.349,15.234-1.615,23.466,0.522c14.604,3.812,29.828,4.971,44.849,6.056c6.91,0.493,13.348,0.105,17.346,7.806
		c5.259,10.145,11.735,20.039,8.486,32.844c-2.177,8.618-8.982,12.691-17.87,11.636c-7.937-0.929-15.859-1.819-24.586-2.805
		c-0.547,4.507-1.591,7.641-1.162,10.484c11.101,73.304,10.897,147.498,14.492,221.43c3.014,62.113,6.745,124.382,18.879,185.45
		c4.262,21.452,8.011,43.041,11.923,64.59c1.392,7.66,4.738,13.502,10.06,18.754c9.591,9.469,15.208,21.462,14.49,36.55
		c-1.29,27.062-0.621,34.964,29.965,30.766c4.381-0.6,9.771,0.048,13.406,2.534c8.121,5.542,16.123,32.314,14.049,43.302
		c-2,10.562-10.905,18.163-19.848,14.886c-10.16-3.714-21.406-1.401-31.049-9.373c-4.199-3.481-11.945-1.509-18.094-1.896
		c-14.126-0.889-28.258-1.837-42.396-2.514c-22.205-1.045-44.417-1.916-66.636-2.825c-46.864-1.906-93.727-5.106-140.608-5.32
		c-53.482-0.261-107.014,1.169-160.454,3.703c-40.161,1.907-80.236,6.511-120.319,10.302c-35.883,3.387-71.766,6.944-107.589,11.104
		c-24.492,2.845-48.846,7.129-73.326,10.166c-11.656,1.452-23.468,1.314-35.203,2.244c-8.417,0.667-16.805,2.648-25.213,2.719
		c-16.704,0.134-21.725-5.069-26.098-22.712c-9.742-39.305-18.454-78.835-22.577-119.477c-1.685-16.519-3.042-33.078-4.484-49.625
		c-0.231-2.671-0.016-5.379-0.171-8.058c-3.177-52.432-6.49-104.834-9.514-157.276c-2.682-46.56-4.404-93.198-7.709-139.701
		c-2.394-33.659-6.629-67.162-10.171-100.725C37.831,103.809,36.574,100.308,35.646,96.4z M850.867,621.703
		c-0.557-4.935-0.65-8.086-1.292-11.076c-6.734-31.289-14.88-62.277-20.083-93.885c-9.195-55.913-18.394-111.885-21.17-168.911
		c-2.646-54.085-6.097-108.123-9.265-162.169c-2.356-40.148-3.381-80.471-13.038-119.633c-3.656-14.837-5.382-16.983-19.354-17.776
		c-10.4-0.6-20.835-0.426-31.244-1.044c-31.188-1.857-62.354-5.088-93.563-5.667c-51.614-0.979-103.25-0.601-154.872-0.233
		c-36.455,0.271-72.91,1.189-109.347,2.36c-23.663,0.773-47.387,1.587-70.938,4.062c-31.103,3.269-62.115,7.737-93.071,12.515
		c-39.854,6.133-79.622,12.98-119.397,19.751c-11.801,2.012-12.563,3.713-10.957,16.771c0.65,5.309,1.171,10.657,1.485,16.007
		c1.494,25.146,2.921,50.303,4.348,75.451c2.434,42.807,5.057,85.616,7.217,128.444c1.492,29.469,1.726,59.038,3.637,88.459
		c3.203,49.182,6.712,98.363,11.307,147.4c1.811,19.323,3.125,39.383,16.455,55.208c3.989,4.738,4.107,13.812,5.604,21.007
		c1.029,4.972,1.373,10.117,1.951,14.643c9.259,0.842,16.789,2.341,24.271,2.07c24.583-0.889,49.17-2.012,73.713-3.792
		c39.663-2.854,79.279-6.44,118.936-9.468c40.151-3.066,80.295-6.762,120.508-8.474c55.402-2.35,110.857-3.551,166.296-4.399
		c39.315-0.602,78.657-0.137,117.981,0.502c26.515,0.426,53.012,2.052,79.524,2.95C841.03,622.93,845.556,622.129,850.867,621.703z"
		/>
	<g>
		<g>
			<defs>
				<path id="SVGID_1_" d="M850.867,621.703c-5.312,0.426-9.837,1.227-14.355,1.073c-26.514-0.898-53.011-2.524-79.524-2.95
					c-39.324-0.639-78.666-1.104-117.981-0.502c-55.438,0.85-110.894,2.05-166.296,4.399c-40.213,1.712-80.355,5.407-120.508,8.474
					c-39.656,3.027-79.272,6.615-118.936,9.468c-24.543,1.78-49.13,2.903-73.713,3.792c-7.482,0.271-15.013-1.229-24.271-2.07
					c-0.578-4.524-0.922-9.671-1.951-14.643c-1.497-7.195-1.615-16.269-5.604-21.007c-13.33-15.825-14.645-35.884-16.455-55.208
					c-4.595-49.037-8.104-98.22-11.307-147.4c-1.911-29.421-2.145-58.99-3.637-88.459c-2.16-42.828-4.783-85.637-7.217-128.444
					c-1.427-25.147-2.854-50.304-4.348-75.451c-0.314-5.35-0.835-10.698-1.485-16.007c-1.606-13.058-0.844-14.759,10.957-16.771
					c39.775-6.771,79.543-13.619,119.397-19.751c30.956-4.777,61.969-9.246,93.071-12.515c23.551-2.476,47.273-3.289,70.938-4.062
					c36.437-1.171,72.892-2.09,109.347-2.36c51.622-0.367,103.258-0.745,154.872,0.233c31.21,0.579,62.377,3.81,93.563,5.667
					c10.409,0.619,20.844,0.445,31.244,1.044c13.972,0.793,15.696,2.939,19.354,17.776c9.656,39.162,10.681,79.485,13.037,119.633
					c3.168,54.046,6.618,108.083,9.265,162.169c2.776,57.026,11.975,112.998,21.17,168.911
					c5.203,31.607,13.349,62.596,20.083,93.885C850.217,613.616,850.312,616.769,850.867,621.703z"/>
			</defs>
			<clipPath id="SVGID_2_">
				<use xlink:href="#SVGID_1_"  overflow="visible"/>
			</clipPath>
			<g clip-path="url(#SVGID_2_)">
				<polygon fill="#17479E" points="890.266,210.006 878.365,0.628 36.851,62.016 48.752,271.385 				"/>
				<polygon points="902.188,419.713 890.286,210.335 48.771,271.713 60.685,481.092 				"/>
				<polygon fill="#FFFFFF" points="914.153,630.079 902.205,420.031 60.7,481.411 72.637,691.457 				"/>
				<path fill="none" stroke="#000000" stroke-width="0.5" d="M914.383,629.73L878.609,0.618L36.851,62.016l35.771,629.112
					L914.383,629.73L914.383,629.73z"/>
			</g>
		</g>
		<g>
			<defs>
				<path id="SVGID_3_" d="M850.867,621.703c-5.312,0.426-9.837,1.227-14.355,1.073c-26.514-0.898-53.011-2.524-79.524-2.95
					c-39.324-0.639-78.666-1.104-117.981-0.502c-55.438,0.85-110.894,2.05-166.296,4.399c-40.213,1.712-80.355,5.407-120.508,8.474
					c-39.656,3.027-79.272,6.615-118.936,9.468c-24.543,1.78-49.13,2.903-73.713,3.792c-7.482,0.271-15.013-1.229-24.271-2.07
					c-0.578-4.524-0.922-9.671-1.951-14.643c-1.497-7.195-1.615-16.269-5.604-21.007c-13.33-15.825-14.645-35.884-16.455-55.208
					c-4.595-49.037-8.104-98.22-11.307-147.4c-1.911-29.421-2.145-58.99-3.637-88.459c-2.16-42.828-4.783-85.637-7.217-128.444
					c-1.427-25.147-2.854-50.304-4.348-75.451c-0.314-5.35-0.835-10.698-1.485-16.007c-1.606-13.058-0.844-14.759,10.957-16.771
					c39.775-6.771,79.543-13.619,119.397-19.751c30.956-4.777,61.969-9.246,93.071-12.515c23.551-2.476,47.273-3.289,70.938-4.062
					c36.437-1.171,72.892-2.09,109.347-2.36c51.622-0.367,103.258-0.745,154.872,0.233c31.21,0.579,62.377,3.81,93.563,5.667
					c10.409,0.619,20.844,0.445,31.244,1.044c13.972,0.793,15.696,2.939,19.354,17.776c9.656,39.162,10.681,79.485,13.037,119.633
					c3.168,54.046,6.618,108.083,9.265,162.169c2.776,57.026,11.975,112.998,21.17,168.911
					c5.203,31.607,13.349,62.596,20.083,93.885C850.217,613.616,850.312,616.769,850.867,621.703z"/>
			</defs>
			<clipPath id="SVGID_4_">
				<use xlink:href="#SVGID_3_"  overflow="visible"/>
			</clipPath>
			<path clip-path="url(#SVGID_4_)" d="M873.079,230.821c-33.64,1.886-67.216,3.906-100.81,5.938
				c-34.609,2.089-69.236,4.159-103.806,6.383c-38.546,2.456-76.957,5.358-115.57,7.564c-68.846,3.916-137.812,7.437-206.715,11.18
				c-29.263,1.577-58.476,3.386-87.75,4.895c-26.319,1.374-52.724,2.359-79.017,3.753c-33.19,1.759-66.332,3.734-99.449,5.745
				c-4.372,0.271-8.571,1.18-12.737,1.915c-16.553,2.919-27.926-4.662-26.098-10.369c0.837-2.63,1.278-5.29,1.655-7.95
				c0.529-3.733,4.065-5.764,12.433-6.52c3.895-0.348,7.969-0.271,11.939-0.444c29.326-1.286,58.646-2.593,87.957-3.888
				c21.381-0.929,42.779-1.799,64.146-2.807c31.271-1.478,62.499-3.113,93.778-4.575c29.249-1.363,58.562-2.456,87.786-3.916
				c34.729-1.742,69.406-3.656,104.053-5.687c23.253-1.355,46.411-3.009,69.588-4.604c20.733-1.441,41.396-3.037,62.105-4.498
				c37.905-2.679,75.892-5.145,113.72-8.027c25.985-1.981,51.672-4.73,77.657-6.723c21.162-1.615,42.543-2.592,63.84-3.897"/>
		</g>
		<g>
			<defs>
				<path id="SVGID_5_" d="M850.867,621.703c-5.312,0.426-9.837,1.227-14.355,1.073c-26.514-0.898-53.011-2.524-79.524-2.95
					c-39.324-0.639-78.666-1.104-117.981-0.502c-55.438,0.85-110.894,2.05-166.296,4.399c-40.213,1.712-80.355,5.407-120.508,8.474
					c-39.656,3.027-79.272,6.615-118.936,9.468c-24.543,1.78-49.13,2.903-73.713,3.792c-7.482,0.271-15.013-1.229-24.271-2.07
					c-0.578-4.524-0.922-9.671-1.951-14.643c-1.497-7.195-1.615-16.269-5.604-21.007c-13.33-15.825-14.645-35.884-16.455-55.208
					c-4.595-49.037-8.104-98.22-11.307-147.4c-1.911-29.421-2.145-58.99-3.637-88.459c-2.16-42.828-4.783-85.637-7.217-128.444
					c-1.427-25.147-2.854-50.304-4.348-75.451c-0.314-5.35-0.835-10.698-1.485-16.007c-1.606-13.058-0.844-14.759,10.957-16.771
					c39.775-6.771,79.543-13.619,119.397-19.751c30.956-4.777,61.969-9.246,93.071-12.515c23.551-2.476,47.273-3.289,70.938-4.062
					c36.437-1.171,72.892-2.09,109.347-2.36c51.622-0.367,103.258-0.745,154.872,0.233c31.21,0.579,62.377,3.81,93.563,5.667
					c10.409,0.619,20.844,0.445,31.244,1.044c13.972,0.793,15.696,2.939,19.354,17.776c9.656,39.162,10.681,79.485,13.037,119.633
					c3.168,54.046,6.618,108.083,9.265,162.169c2.776,57.026,11.975,112.998,21.17,168.911
					c5.203,31.607,13.349,62.596,20.083,93.885C850.217,613.616,850.312,616.769,850.867,621.703z"/>
			</defs>
			<clipPath id="SVGID_6_">
				<use xlink:href="#SVGID_5_"  overflow="visible"/>
			</clipPath>
			<path clip-path="url(#SVGID_6_)" d="M873.079,436.349c-33.64,1.877-67.216,3.898-100.81,5.921
				c-34.609,2.089-69.236,4.179-103.806,6.384c-38.546,2.467-76.957,5.366-115.57,7.563c-68.846,3.926-137.812,7.446-206.715,11.18
				c-29.263,1.586-58.476,3.387-87.75,4.902c-26.319,1.374-52.724,2.353-79.017,3.753c-33.19,1.771-66.332,3.744-99.449,5.746
				c-4.372,0.261-8.571,1.169-12.737,1.905c-16.553,2.939-27.926-4.663-26.098-10.369c0.837-2.622,1.278-5.282,1.655-7.931
				c0.529-3.753,4.065-5.783,12.433-6.528c3.895-0.349,7.969-0.271,11.939-0.446c29.326-1.288,58.646-2.603,87.957-3.878
				c21.381-0.947,42.779-1.816,64.146-2.825c31.271-1.47,62.499-3.104,93.778-4.563c29.249-1.374,58.562-2.456,87.786-3.926
				c34.729-1.741,69.406-3.647,104.053-5.68c23.253-1.362,46.411-3.008,69.588-4.611c20.733-1.432,41.396-3.027,62.105-4.488
				c37.905-2.689,75.892-5.146,113.72-8.027c25.985-1.973,51.672-4.721,77.657-6.713c21.162-1.625,42.543-2.603,63.84-3.906"/>
		</g>
	</g>
</g>
</svg>
