<?xml version="1.0" encoding="utf-8"?>
<!-- Generator: Adobe Illustrator 16.0.1, SVG Export Plug-In . SVG Version: 6.00 Build 0)  -->
<!DOCTYPE svg PUBLIC "-//W3C//DTD SVG 1.1//EN" "http://www.w3.org/Graphics/SVG/1.1/DTD/svg11.dtd">
<svg version="1.1"
	 id="Layer_1" xmlns:dc="http://purl.org/dc/elements/1.1/" xmlns:cc="http://creativecommons.org/ns#" xmlns:rdf="http://www.w3.org/1999/02/22-rdf-syntax-ns#" xmlns:svg="http://www.w3.org/2000/svg"
	 xmlns="http://www.w3.org/2000/svg" xmlns:xlink="http://www.w3.org/1999/xlink" x="0px" y="0px" width="961.424px"
	 height="707.91px" viewBox="6235.993 -2960.883 961.424 707.91" enable-background="new 6235.993 -2960.883 961.424 707.91"
	 xml:space="preserve">
<g id="g495">
	<path id="path497" d="M7187.12-2709.511c1.108,75.055,1.694,150.116,3.528,225.148c1.056,42.388,4.082,84.733,6.426,127.086
		c0.66,11.884-1.016,14.903-15.057,19.178c-40.836,12.449-81.857,24.209-122.611,36.935
		c-47.973,14.992-96.783,25.663-146.264,33.433c-65.633,10.306-131.581,18.604-197.859,10.767
		c-35.871-4.239-71.479-12.56-106.592-21.576c-56.277-14.448-113.127-24.513-170.879-28.221
		c-47.315-3.033-94.729-4.302-142.101-6.418c-10.657-0.476-20.194,0.876-29.021,8.81c-9.297,8.376-20.83,4.129-22.664-8.733
		c-3.315-23.142-6.096-46.571-6.479-69.927c-0.745-44.889-0.233-89.813,0.806-134.702c1.595-68.706,3.826-137.405,6.273-206.084
		c1.758-49.08,4.584-98.099-0.695-147.166c-1.049-9.623,0.082-19.611,1.074-29.331c1.297-12.602,10.516-21.018,21.756-16.806
		c32.371,12.125,64.352,3.212,96.604,1.075c93.528-6.19,185.845-2.585,275.375,32.04c24.457,9.458,51.549,13.663,77.743,15.669
		c42.188,3.219,84.843,5.811,126.893,2.626c35.129-2.654,70.01-12.498,104.338-21.817c48.642-13.194,96.438-29.8,145.07-43.049
		c25.657-6.997,51.411-12.422,74.738-26.657c10.926-6.679,20.733,0.648,20.74,13.967c0.043,77.915,0.015,155.824,0.015,233.739
		C7187.898-2709.513,7187.512-2709.513,7187.12-2709.511L7187.12-2709.511z M7168.314-2933.889
		c-4.791,2.288-7.631,3.777-10.574,5.018c-8.961,3.757-17.725,8.286-26.967,10.905c-14.737,4.164-30.062,6.136-44.689,10.616
		c-27.814,8.521-55.141,18.791-82.988,27.167c-27.85,8.375-55.892,16.323-84.229,22.607c-26.05,5.784-52.525,12.14-78.938,12.843
		c-43.612,1.165-87.422-0.469-130.933-3.964c-25.72-2.061-51.603-7.92-76.351-15.717c-34.75-10.939-68.905-24.678-105.193-27.966
		c-39.416-3.571-79.053-4.729-118.619-5.825c-19.584-0.538-39.754-1.248-58.725,2.854c-27.871,6.012-54.853,7.452-81.889-1.93
		c-8.062-2.799-8.438,0.345-7.639,7.293c1.86,16.289,4.066,32.619,4.479,48.984c0.711,28.718,0.726,57.477,0.015,86.201
		c-0.746,30.316-2.854,60.6-4.047,90.909c-1.475,37.734-3.287,75.478-3.764,113.224c-0.627,50.866-0.275,101.745-0.027,152.618
		c0.104,23.3,0.974,46.593,1.523,71.236c7.418-2.082,12.925-4.798,18.516-4.998c24.65-0.903,49.424-2.646,73.98-1.172
		c46.411,2.792,92.881,6.204,139.016,11.974c36.955,4.633,73.562,12.615,110.145,20.039c35.908,7.286,71.299,18.916,107.494,22.817
		c37.186,4.005,75.172,2.695,112.632,0.496c34.61-2.033,69.078-7.631,103.429-12.932c39.029-6.025,77.404-15.166,115.506-26.381
		c43.314-12.746,87.504-22.328,129.602-39.402c2.861-1.158,6.48-4.061,7.037-6.77c1.193-5.68,0.986-11.795,0.643-17.682
		c-2.096-35.921-4.888-71.81-6.486-107.757c-1.385-31.006-2.02-62.081-2.064-93.122c-0.193-96.858,0.033-193.71,0.108-290.568
		c0.015-19.857,0-39.71,0-61.617L7168.314-2933.889z"/>
	<g id="g499">
		<path id="path501" fill="none" d="M7187.12-2709.511c1.108,75.055,1.694,150.116,3.528,225.148
			c1.056,42.388,4.082,84.733,6.426,127.086c0.66,11.884-1.016,14.903-15.057,19.178c-40.836,12.449-81.857,24.209-122.611,36.935
			c-47.973,14.992-96.783,25.663-146.264,33.433c-65.633,10.306-131.581,18.604-197.859,10.767
			c-35.871-4.239-71.479-12.56-106.592-21.576c-56.277-14.448-113.127-24.513-170.879-28.221
			c-47.315-3.033-94.729-4.302-142.101-6.418c-10.657-0.476-20.194,0.876-29.021,8.81c-9.297,8.376-20.83,4.129-22.664-8.733
			c-3.315-23.142-6.096-46.571-6.479-69.927c-0.745-44.889-0.233-89.813,0.806-134.702c1.595-68.706,3.826-137.405,6.273-206.084
			c1.758-49.08,4.584-98.099-0.695-147.166c-1.049-9.623,0.082-19.611,1.074-29.331c1.297-12.602,10.516-21.018,21.756-16.806
			c32.371,12.125,64.352,3.212,96.604,1.075c93.528-6.19,185.845-2.585,275.375,32.04c24.457,9.458,51.549,13.663,77.743,15.669
			c42.188,3.219,84.843,5.811,126.893,2.626c35.129-2.654,70.01-12.498,104.338-21.817c48.642-13.194,96.438-29.8,145.07-43.049
			c25.657-6.997,51.411-12.422,74.738-26.657c10.926-6.679,20.733,0.648,20.74,13.967c0.043,77.915,0.015,155.824,0.015,233.739
			C7187.898-2709.513,7187.512-2709.513,7187.12-2709.511L7187.12-2709.511z M7168.314-2933.889
			c-4.791,2.288-7.631,3.777-10.574,5.018c-8.961,3.757-17.725,8.286-26.967,10.905c-14.737,4.164-30.062,6.136-44.689,10.616
			c-27.814,8.521-55.141,18.791-82.988,27.167c-27.85,8.375-55.892,16.323-84.229,22.607c-26.05,5.784-52.525,12.14-78.938,12.843
			c-43.612,1.165-87.422-0.469-130.933-3.964c-25.72-2.061-51.603-7.92-76.351-15.717c-34.75-10.939-68.905-24.678-105.193-27.966
			c-39.416-3.571-79.053-4.729-118.619-5.825c-19.584-0.538-39.754-1.248-58.725,2.854c-27.871,6.012-54.853,7.452-81.889-1.93
			c-8.062-2.799-8.438,0.345-7.639,7.293c1.86,16.289,4.066,32.619,4.479,48.984c0.711,28.718,0.726,57.477,0.015,86.201
			c-0.746,30.316-2.854,60.6-4.047,90.909c-1.475,37.734-3.287,75.478-3.764,113.224c-0.627,50.866-0.275,101.745-0.027,152.618
			c0.104,23.3,0.974,46.593,1.523,71.236c7.418-2.082,12.925-4.798,18.516-4.998c24.65-0.903,49.424-2.646,73.98-1.172
			c46.411,2.792,92.881,6.204,139.016,11.974c36.955,4.633,73.562,12.615,110.145,20.039c35.908,7.286,71.299,18.916,107.494,22.817
			c37.186,4.005,75.172,2.695,112.632,0.496c34.61-2.033,69.078-7.631,103.429-12.932c39.029-6.025,77.404-15.166,115.506-26.381
			c43.314-12.746,87.504-22.328,129.602-39.402c2.861-1.158,6.48-4.061,7.037-6.77c1.193-5.68,0.986-11.795,0.643-17.682
			c-2.096-35.921-4.888-71.81-6.486-107.757c-1.385-31.006-2.02-62.081-2.064-93.122c-0.193-96.858,0.033-193.71,0.108-290.568
			c0.015-19.857,0-39.71,0-61.617L7168.314-2933.889z"/>
		<g id="g503">
			<path id="path505" d="M7167.966-2933.889c0.019,0,0.033,0.168,0.049,0.502c0.01,0.334,0.022,0.833,0.043,1.497
				c0.017,1.327,0.038,3.311,0.067,5.933c0.021,5.244,0.057,13.045,0.101,23.272c0.047,20.454,0.117,50.614,0.207,89.436
				c-0.437,38.803-0.349,86.25,0.205,141.326c0.257,27.529,0.373,56.953,0.353,88.144c0.131,15.591,0.269,31.623,0.405,48.081
				c0.224,8.227,0.448,16.56,0.677,24.996c0.109,4.22,0.223,8.465,0.333,12.736c0.138,4.271,0.149,8.572,0.408,12.889
				c0.903,17.27,1.842,34.951,2.897,53.021c0.582,9.033,1.168,18.164,1.763,27.392c0.304,4.613,0.604,9.251,0.912,13.912
				c0.29,4.663,0.66,9.339,0.862,14.064c0.138,4.733,0.08,9.495-1.019,14.258c-0.437,1.195-1.204,2.204-2.077,3.056
				c-0.854,0.883-1.841,1.612-2.872,2.27c-1.03,0.66-2.192,1.14-3.301,1.555l-3.365,1.301c-2.246,0.868-4.496,1.739-6.753,2.612
				c-2.259,0.864-4.505,1.784-6.812,2.546c-4.595,1.594-9.207,3.195-13.842,4.805c-18.646,6.125-37.896,11.503-57.465,16.925
				c-4.899,1.323-9.821,2.649-14.766,3.982c-4.941,1.329-9.909,2.649-14.872,4.056c-9.929,2.793-19.99,5.498-30.104,8.28
				c-20.252,5.514-40.987,10.435-62.104,15.229l-3.981,0.785c-1.328,0.261-2.674,0.442-4.013,0.669
				c-2.681,0.437-5.36,0.873-8.051,1.312c-5.371,0.896-10.763,1.794-16.172,2.696c-10.836,1.649-21.75,3.312-32.733,4.988
				c-5.498,0.815-11.016,1.633-16.549,2.453l-4.153,0.618l-4.174,0.529c-2.785,0.354-5.574,0.711-8.367,1.064
				c-2.795,0.359-5.593,0.719-8.396,1.078l-4.209,0.544c-1.403,0.169-2.817,0.269-4.229,0.407
				c-5.647,0.521-11.313,1.045-16.999,1.57c-22.766,1.427-45.839,2.352-69.202,2.244c-11.683,0-23.426-0.527-35.22-1.283
				c-2.942-0.263-5.892-0.525-8.842-0.789l-4.433-0.396c-1.476-0.165-2.944-0.381-4.42-0.569c-2.949-0.392-5.901-0.782-8.856-1.175
				c-2.944-0.463-5.877-1.022-8.821-1.531c-5.896-0.955-11.724-2.321-17.603-3.507c-2.935-0.622-5.849-1.333-8.778-1.994
				c-2.929-0.676-5.865-1.331-8.787-2.051c-11.713-2.8-23.451-5.709-35.288-8.399c-2.953-0.706-5.936-1.279-8.902-1.927
				c-2.979-0.62-5.941-1.284-8.94-1.868c-5.985-1.205-11.985-2.414-17.999-3.625c-12.023-2.401-24.104-4.814-36.234-7.237
				c-6.092-1.051-12.196-2.104-18.313-3.159c-3.062-0.506-6.11-1.116-9.188-1.543c-3.078-0.437-6.158-0.873-9.24-1.311
				c-6.17-0.852-12.332-1.822-18.539-2.595c-6.222-0.694-12.453-1.391-18.696-2.088c-3.121-0.353-6.246-0.706-9.373-1.059
				l-4.692-0.533l-4.709-0.438c-6.28-0.59-12.574-1.182-18.881-1.773c-3.151-0.301-6.309-0.601-9.467-0.901
				c-3.158-0.306-6.328-0.519-9.496-0.785c-6.338-0.514-12.688-1.028-19.053-1.543c-6.346-0.646-12.713-1.148-19.098-1.618
				c-6.385-0.45-12.779-0.901-19.188-1.353c-1.604-0.101-3.207-0.228-4.81-0.304l-4.812-0.146c-3.209-0.094-6.42-0.188-9.633-0.281
				c-3.213-0.152-6.436-0.047-9.658,0.01c-3.223,0.062-6.447,0.119-9.676,0.178c-12.91,0.412-25.869,1.076-38.883,1.606
				c-0.832,0.018-1.58,0.108-2.355,0.172c-0.771,0.053-1.541,0.257-2.312,0.376c-0.771,0.17-1.537,0.381-2.31,0.572l-2.305,0.699
				l-4.635,1.529l-2.346,0.75l-3.25,0.958l-0.472,0.138l-0.235,0.069l-0.06,0.018c-0.01-0.011,0-0.038,0-0.057v-0.124l-0.021-0.987
				l-0.043-1.966l-0.045-2.492l-0.078-4.899c-0.041-3.269-0.08-6.539-0.121-9.812c-0.223-12.838-0.442-25.638-0.666-38.396
				c-0.321-12.763-0.412-25.479-0.588-38.153c-0.303-25.351-0.842-50.521-0.565-75.499c0.283-12.501,0.565-24.951,0.849-37.353
				c0.063-3.099,0.129-6.195,0.192-9.288c0.065-3.093,0.09-6.183,0.242-9.268c0.226-6.171,0.451-12.329,0.674-18.476
				c0.416-12.289,0.69-24.528,0.89-36.719c0.312-12.186,0.467-24.323,0.403-36.416c0.752-24.144,2.408-53.063,3.381-79.004
				c0.276-6.485,0.547-12.788,0.804-18.788c0.252-6,0.604-11.694,0.646-16.975c0.227-10.556,0.492-19.419,0.809-25.632
				c-0.026-2.334-0.055-4.741-0.082-7.215c-0.024-2.474-0.018-5.013-0.121-7.609c-0.135-5.194-0.274-10.622-0.42-16.224
				c-0.11-5.601-0.227-11.376-0.344-17.265c-0.024-1.473-0.049-2.952-0.074-4.438l-0.035-2.23l-0.112-2.229
				c-0.151-2.976-0.308-5.972-0.461-8.98c-0.885-12.038-2.291-24.277-3.619-36.298c-0.162-1.493-0.347-3.014-0.408-4.598
				c-0.037-0.788-0.019-1.614,0.076-2.474c0.142-0.866,0.34-1.842,1.063-2.762c0.199-0.212,0.408-0.424,0.629-0.612
				c0.242-0.153,0.494-0.299,0.75-0.435c0.5-0.187,1.035-0.345,1.492-0.354c0.965-0.096,1.785,0.052,2.588,0.199
				c1.572,0.325,3.037,0.888,4.385,1.321c5.457,1.932,10.963,3.343,16.349,4.401c10.783,2.129,21.793,2.591,32.653,2.027
				c5.435-0.325,10.836-0.905,16.193-1.681c5.367-0.764,10.646-1.849,15.941-2.894c10.647-2.151,21.434-2.858,32.088-3.014
				c10.666-0.14,21.231,0.232,31.713,0.499c5.242,0.134,10.465,0.267,15.67,0.399c5.203,0.127,10.389,0.29,15.551,0.496
				c5.164,0.192,10.309,0.384,15.434,0.575c2.562,0.101,5.117,0.201,7.67,0.302c2.551,0.134,5.096,0.269,7.637,0.402
				c10.158,0.575,20.246,0.917,30.228,1.722c4.994,0.337,9.967,0.673,14.918,1.007c4.944,0.291,9.903,0.687,14.812,1.293
				c19.596,2.946,37.971,8.453,55.664,14.28c17.709,5.828,34.801,12.133,52.069,17.092c8.617,2.536,17.301,4.611,25.979,6.522
				c2.182,0.424,4.358,0.849,6.537,1.271l3.266,0.627l3.279,0.532l6.557,1.046l6.578,0.839c2.188,0.31,4.391,0.503,6.59,0.696
				c2.199,0.188,4.396,0.423,6.6,0.57c4.414,0.26,8.826,0.52,13.244,0.779c4.416,0.247,8.836,0.494,13.263,0.741
				c2.215,0.105,4.426,0.271,6.646,0.323c2.221,0.061,4.44,0.123,6.664,0.184c7.271,0.247,14.405,0.489,21.467,0.729
				c3.526,0.175,7.041,0.153,10.543,0.218c3.5,0.054,6.99,0.107,10.479,0.16c3.484,0.062,6.971,0.124,10.459,0.186
				c1.742,0.023,3.486,0.087,5.234,0.08c1.746-0.016,3.496-0.032,5.248-0.048c7.01-0.055,14.067-0.107,21.237-0.165
				c1.791-0.012,3.592-0.022,5.397-0.036c1.797-0.085,3.603-0.169,5.416-0.254c1.812-0.105,3.64-0.132,5.467-0.303
				c1.828-0.172,3.664-0.345,5.515-0.519c7.396-0.696,14.92-1.869,22.653-3.191c3.859-0.722,7.775-1.456,11.748-2.261
				c3.967-0.84,8.004-1.657,12.101-2.583c8.194-1.807,16.694-3.711,25.472-5.873c24.473-6.023,48.188-12.672,70.229-19.207
				c1.381-0.4,2.754-0.8,4.121-1.197c1.358-0.421,2.711-0.84,4.058-1.257c2.69-0.835,5.354-1.663,7.992-2.481
				c2.637-0.817,5.244-1.626,7.821-2.425c2.576-0.802,5.103-1.667,7.606-2.479c10.008-3.314,19.496-6.458,28.342-9.388
				c2.217-0.717,4.4-1.423,6.556-2.119c2.164-0.667,4.299-1.325,6.399-1.973c4.201-1.299,8.275-2.56,12.222-3.78
				c0.99-0.294,1.955-0.635,2.942-0.886c0.986-0.255,1.965-0.507,2.937-0.758c1.938-0.502,3.847-0.995,5.72-1.479
				c1.865-0.521,3.729-0.877,5.549-1.271c1.821-0.388,3.608-0.769,5.363-1.143c7.007-1.512,13.514-2.722,19.348-4.274
				c1.465-0.363,2.896-0.718,4.293-1.062c0.349-0.087,0.694-0.173,1.039-0.259c0.338-0.111,0.672-0.223,1.004-0.333
				c0.664-0.22,1.317-0.438,1.967-0.652c1.293-0.43,2.554-0.851,3.778-1.256c1.198-0.487,2.362-0.962,3.496-1.422
				c1.131-0.462,2.229-0.911,3.291-1.347c1.054-0.468,2.069-0.921,3.056-1.359c1.972-0.876,3.808-1.692,5.508-2.447
				c1.703-0.754,3.27-1.446,4.696-2.078c1.405-0.658,2.676-1.252,3.81-1.781c4.512-2.188,6.807-3.363,6.805-3.363
				c-0.027-0.059-0.625,0.182-1.781,0.711c-1.146,0.542-2.861,1.352-5.131,2.424c-1.131,0.521-2.397,1.111-3.806,1.762
				c-1.429,0.633-2.996,1.326-4.701,2.08c-1.696,0.762-3.528,1.585-5.497,2.468c-0.98,0.443-1.997,0.902-3.046,1.376
				c-1.06,0.441-2.151,0.896-3.278,1.366c-1.127,0.468-2.287,0.95-3.479,1.446c-1.222,0.417-2.476,0.846-3.763,1.285
				c-0.646,0.221-1.297,0.443-1.959,0.67c-0.33,0.112-0.662,0.227-0.998,0.341c-0.344,0.089-0.688,0.179-1.037,0.269
				c-1.393,0.359-2.817,0.729-4.278,1.105c-5.815,1.612-12.31,2.896-19.296,4.498c-1.749,0.396-3.529,0.799-5.348,1.21
				c-1.813,0.417-3.672,0.797-5.525,1.344c-1.861,0.51-3.758,1.028-5.688,1.556c-0.963,0.264-1.937,0.529-2.916,0.798
				c-0.979,0.264-1.94,0.618-2.928,0.927c-3.925,1.279-7.979,2.6-12.157,3.961c-2.089,0.68-4.209,1.37-6.36,2.07
				c-2.144,0.73-4.313,1.472-6.521,2.223c-8.87,2.854-18.22,5.93-28.034,9.194c-2.454,0.815-4.938,1.642-7.452,2.478
				c-2.524,0.8-5.08,1.609-7.665,2.429c-2.583,0.823-5.195,1.656-7.839,2.499c-2.642,0.853-5.312,1.705-8.034,2.5
				c-21.698,6.615-45.369,13.543-71.134,19.757c-8.456,1.916-16.547,3.64-24.341,5.31c-7.79,1.689-15.3,3.244-22.628,4.644
				c-14.651,2.784-28.651,4.78-42.687,5.193c-7.008,0.143-13.996,0.281-21.06,0.423c-3.533,0.063-7.083,0.128-10.664,0.192
				c-3.58-0.047-7.19-0.094-10.847-0.142c-7.307-0.113-14.78-0.215-22.518-0.415c-7.729-0.37-15.721-0.781-24.062-1.25
				c-8.354-0.241-16.92-0.937-25.684-1.488c-4.381-0.293-8.809-0.59-13.273-0.889c-2.233-0.118-4.475-0.402-6.726-0.6
				c-2.249-0.231-4.515-0.396-6.769-0.729c-2.26-0.298-4.525-0.597-6.801-0.896c-2.271-0.324-4.535-0.733-6.812-1.098l-3.42-0.564
				l-3.41-0.662c-2.275-0.451-4.557-0.902-6.842-1.354c-9.105-1.979-18.223-4.268-27.271-6.871
				c-18.086-5.272-35.871-11.703-53.561-17.262c-17.669-5.585-35.305-10.3-52.551-12.592c-8.062-1.183-17.154-1.636-26.812-2.361
				c-2.416-0.17-4.867-0.342-7.354-0.517c-2.486-0.178-5.003-0.363-7.555-0.458c-5.102-0.239-10.312-0.482-15.595-0.729
				c-10.56-0.573-21.424-0.854-32.26-1.276c-10.836-0.407-21.649-0.814-32.129-1.209c-10.478-0.351-21.033-0.808-31.649-0.734
				c-10.609,0.088-21.326,0.747-31.871,2.876c-5.291,1.044-10.613,2.147-16,2.938c-5.385,0.805-10.816,1.428-16.291,1.811
				c-10.941,0.678-22.07,0.396-33.068-1.498c-5.482-0.994-10.93-2.344-16.242-4.146c-1.354-0.415-2.645-0.907-3.934-1.214
				c-0.324-0.096-0.646-0.146-0.967-0.198c-0.324-0.07-0.638-0.094-0.947-0.105c-0.625-0.048-1.205,0.04-1.627,0.265
				c-0.853,0.385-1.113,1.709-1.135,3.014c-0.025,1.323,0.108,2.703,0.264,4.084c0.631,5.572,1.309,11.151,1.904,16.77
				c0.303,2.807,0.604,5.619,0.908,8.435c0.248,2.823,0.494,5.651,0.742,8.483c0.293,2.828,0.396,5.678,0.541,8.527l0.211,4.278
				c0.072,1.428,0.153,2.856,0.149,4.283c0.076,5.71,0.151,11.437,0.229,17.179c0.084,5.742,0.17,11.5,0.256,17.274
				c0.026,2.888,0.133,5.778,0.1,8.673c-0.021,2.896-0.043,5.794-0.062,8.697c-0.166,5.809-0.293,11.632-0.395,17.471
				c-0.043,2.919-0.086,5.842-0.129,8.77c-0.062,2.926-0.01,5.859-0.16,8.791c-0.391,11.734-0.785,23.529-1.18,35.383
				c-0.347,11.861-0.894,23.75-1.412,35.708c-0.295,5.977-0.59,11.967-0.888,17.972c-0.272,6.007-0.578,12.027-0.922,18.06
				c-0.371,12.074-0.746,24.203-1.121,36.386c-0.252,12.18-0.506,24.412-0.76,36.697c-0.151,6.144-0.308,12.296-0.461,18.463
				c-0.112,3.083-0.101,6.173-0.129,9.265c-0.026,3.093-0.056,6.188-0.082,9.286c-0.131,12.396-0.336,24.84-0.647,37.336
				c0.307,24.966,0.418,50.138,0.297,75.485c-0.035,12.674-0.154,25.395,0.084,38.142c0.104,6.375,0.207,12.76,0.311,19.154
				c0.145,6.396,0.379,12.804,0.611,19.219c0.033,3.273,0.067,6.545,0.102,9.813l0.062,4.9l0.033,2.41v0.582v0.299
				c-0.021,0.077,0.043,0.043,0.088,0.032l0.141-0.038l1.588-0.451l2.32-0.731l4.658-1.512l2.365-0.705
				c0.807-0.196,1.604-0.411,2.418-0.586c0.826-0.125,1.633-0.333,2.475-0.39c0.834-0.066,1.684-0.156,2.484-0.168
				c13.002-0.461,25.967-1.054,38.905-1.44c3.235-0.056,6.472-0.111,9.703-0.168c3.229-0.055,6.461-0.164,9.688-0.02
				c3.229,0.081,6.455,0.162,9.679,0.244l4.834,0.119c1.606,0.064,3.211,0.178,4.813,0.265c6.416,0.368,12.818,0.736,19.213,1.104
				c6.394,0.356,12.775,0.721,19.14,1.188c6.364,0.575,12.717,1.149,19.056,1.723c3.17,0.287,6.34,0.519,9.502,0.837
				c3.16,0.312,6.317,0.622,9.475,0.933c6.312,0.597,12.609,1.191,18.898,1.786l4.713,0.432l4.701,0.524
				c3.133,0.345,6.266,0.69,9.391,1.034c6.256,0.676,12.5,1.352,18.729,2.021c6.225,0.748,12.412,1.696,18.604,2.524
				c3.096,0.428,6.188,0.855,9.273,1.282c3.09,0.418,6.146,1.02,9.215,1.52c6.131,1.051,12.25,2.099,18.354,3.145
				c12.121,2.532,24.188,5.054,36.201,7.563c6.006,1.246,11.998,2.49,17.976,3.731c2.992,0.597,5.975,1.278,8.955,1.912
				c2.977,0.66,5.967,1.246,8.922,1.96c11.854,2.729,23.602,5.646,35.307,8.416c2.924,0.714,5.854,1.358,8.777,2.022
				c2.926,0.649,5.84,1.347,8.768,1.953c5.863,1.151,11.682,2.479,17.553,3.381c2.929,0.513,5.845,1.079,8.771,1.551
				c2.937,0.402,5.866,0.805,8.793,1.207c1.465,0.195,2.925,0.418,4.392,0.591l4.408,0.421c2.938,0.282,5.871,0.564,8.801,0.846
				c11.74,0.834,23.442,1.455,35.099,1.524c23.302,0.247,46.373-0.626,69.082-2.364c5.667-0.534,11.315-1.066,16.949-1.598
				c1.405-0.139,2.815-0.238,4.218-0.407l4.2-0.541c2.797-0.356,5.59-0.713,8.379-1.068c2.789-0.352,5.573-0.702,8.354-1.053
				l4.166-0.521l4.148-0.611c5.527-0.813,11.041-1.624,16.534-2.435c5.495-0.778,10.964-1.663,16.417-2.502
				c5.448-0.86,10.895-1.656,16.293-2.56c5.391-0.948,10.76-1.895,16.109-2.833c2.676-0.472,5.348-0.943,8.014-1.414
				c1.33-0.246,2.668-0.448,3.986-0.73l3.959-0.854c21.188-4.174,41.945-8.937,62.15-14.511c10.098-2.814,20.105-5.601,30.025-8.517
				c4.953-1.466,9.904-2.852,14.834-4.25c4.924-1.403,9.828-2.801,14.713-4.193c19.592-5.327,38.844-10.561,57.486-16.529
				c4.633-1.569,9.245-3.132,13.836-4.687c2.311-0.742,4.555-1.642,6.812-2.485c2.256-0.854,4.506-1.704,6.752-2.554l3.361-1.271
				c1.162-0.429,2.146-0.825,3.105-1.427c0.946-0.595,1.869-1.265,2.641-2.054c0.8-0.758,1.459-1.653,1.787-2.547
				c0.188-0.39,0.25-1.021,0.34-1.586l0.268-1.721c0.074-0.576,0.209-1.142,0.234-1.725l0.104-1.746
				c0.201-2.319,0.112-4.668,0.097-7.003c-2.209-37.678-4.33-73.852-6.354-108.38c-0.305-4.316-0.358-8.619-0.539-12.891
				c-0.152-4.272-0.307-8.519-0.457-12.739c-0.301-8.441-0.601-16.778-0.896-25.008c-0.24-16.469-0.476-32.512-0.701-48.112
				c-0.101-31.191-0.169-60.615-0.117-88.146c0.528-57.157,0.119-102.522,0.542-141.328c0.213-38.821,0.378-68.981,0.488-89.436
				c0.022-10.228,0.041-18.028,0.055-23.272c-0.014-2.622-0.021-4.605-0.025-5.933c-0.015-0.664-0.021-1.163-0.028-1.497
				c-0.01-0.332-0.024-0.5-0.038-0.5h-0.009V-2933.889z"/>
		</g>
		<g id="g507">
			<path id="path509" d="M7187.125-2709.162c0-0.024,0.346-0.051,1.156-0.08l0.285-0.011l-0.01-0.271
				c-0.211-7.021-0.207-51.064-0.433-125.354c0.21-20.346,0.287-42.957,0.24-67.702c-0.052-12.372-0.104-25.278-0.162-38.7
				c-0.01-1.678-0.021-3.366-0.24-5.037c-0.133-0.834-0.224-1.677-0.476-2.488l-0.319-1.229l-0.456-1.188
				c-1.195-3.155-3.538-5.999-6.689-7.365l-1.196-0.46l-1.256-0.265c-0.415-0.118-0.851-0.105-1.276-0.133
				c-0.43,0-0.856-0.084-1.287-0.01l-1.287,0.132c-0.428,0.052-0.842,0.196-1.263,0.289c-0.854,0.16-1.646,0.55-2.457,0.857
				c-1.562,0.749-3.08,1.667-4.649,2.554c-1.559,0.89-3.123,1.784-4.693,2.682c-1.548,0.944-3.201,1.701-4.85,2.487
				c-1.646,0.788-3.301,1.579-4.961,2.374c-0.821,0.417-1.679,0.762-2.537,1.104c-0.854,0.347-1.715,0.695-2.574,1.044
				c-1.722,0.695-3.449,1.395-5.185,2.096c-3.539,1.211-7.08,2.521-10.702,3.672c-3.639,1.091-7.277,2.304-11.003,3.305
				c-7.417,2.128-15,4.081-22.657,6.167c-3.843,0.997-7.666,2.175-11.542,3.272c-3.871,1.115-7.771,2.238-11.696,3.369
				c-15.742,4.396-31.795,9.416-48.328,14.379c-8.269,2.484-16.644,5-25.123,7.548c-4.242,1.268-8.51,2.544-12.806,3.827
				c-4.291,1.295-8.653,2.443-13.021,3.68c-8.729,2.469-17.56,4.968-26.492,7.494c-8.963,2.418-18.024,4.87-27.209,7.273
				c-18.369,4.775-37.276,9.286-56.881,12.172c-2.451,0.344-4.9,0.761-7.373,1.05c-2.477,0.255-4.957,0.511-7.444,0.768
				c-4.972,0.606-9.994,0.797-15.032,1.14c-5.037,0.381-10.109,0.498-15.204,0.664c-2.548,0.066-5.101,0.202-7.661,0.213
				c-2.561,0.018-5.126,0.032-7.698,0.048c-20.58,0.099-41.526-0.772-62.79-2.078c-5.314-0.34-10.648-0.735-16.003-1.164
				c-2.677-0.214-5.358-0.428-8.047-0.645c-2.688-0.251-5.381-0.502-8.08-0.754c-10.783-1.127-21.614-2.671-32.424-4.805
				c-10.815-2.1-21.563-5.012-32.133-8.697c-10.58-3.659-21.06-7.69-31.979-10.744c-21.457-7.163-43.84-12.632-66.795-16.506
				c-22.959-3.882-46.48-6.18-70.326-7.222c-23.824-1.471-48.02-1.59-72.453-0.778c-6.107,0.165-12.229,0.521-18.373,0.774
				c-6.141,0.3-12.291,0.722-18.463,1.078c-12.314,0.768-24.625,2.538-37.086,3.845c-6.228,0.634-12.492,1.143-18.797,1.368
				c-6.309,0.179-12.651,0-18.979-0.649c-6.334-0.64-12.604-1.995-18.74-3.828l-4.566-1.508l-2.166-0.665
				c-0.734-0.116-1.465-0.29-2.203-0.348c-2.943-0.228-5.957,0.451-8.383,2.163c-2.432,1.681-4.383,4.091-5.638,6.854
				c-1.292,2.771-1.925,5.755-2.21,8.89c-0.622,6.37-1.279,12.732-1.312,19.089c-0.062,3.186,0.152,6.332,0.445,9.504
				c0.282,3.22,0.564,6.44,0.85,9.669c0.258,3.228,0.609,6.453,0.787,9.693c0.158,3.24,0.317,6.484,0.479,9.732
				c1.475,25.979,1.104,52.223,0.223,78.596c-0.502,13.182-1.008,26.414-1.516,39.698c-0.461,13.284-0.925,26.619-1.393,40.005
				c-2.715,53.451-2.938,107.761-5.438,162.628c-0.44,13.454-0.623,26.873-0.815,40.25c-0.074,6.688-0.146,13.366-0.223,20.032
				c-0.025,3.333-0.059,6.664-0.084,9.991c0.041,3.328,0.082,6.652,0.123,9.975c0.167,13.286,0.332,26.525,0.498,39.716
				c0.033,3.297,0.066,6.591,0.104,9.882l0.043,4.935c0,1.645,0.021,3.287,0.117,4.921c0.141,3.272,0.277,6.541,0.418,9.808
				l0.195,4.896c0.082,1.63,0.248,3.257,0.367,4.885c0.449,6.521,0.736,13.045,1.449,19.526c0.311,3.245,0.619,6.487,0.93,9.727
				c0.316,3.239,0.746,6.463,1.113,9.69c0.396,3.22,0.743,6.464,1.188,9.654c0.459,3.132,1.646,6.195,3.721,8.584
				c1.074,1.135,2.294,2.191,3.754,2.804c0.352,0.183,0.708,0.348,1.094,0.438l1.133,0.342c0.781,0.087,1.56,0.293,2.354,0.229
				c1.591,0.069,3.149-0.362,4.651-0.862c1.463-0.625,2.881-1.383,4.131-2.384c1.274-0.952,2.444-2.1,3.77-3.026
				c1.283-0.981,2.668-1.822,4.075-2.612c2.843-1.532,5.917-2.605,9.062-3.285c3.156-0.645,6.375-0.916,9.584-0.952
				c3.213-0.016,6.408,0.148,9.604,0.215c12.778,0.342,25.508,0.525,38.188,0.49c25.318,0.846,55.631,2.367,82.859,3.719
				c3.402,0.175,6.76,0.346,10.052,0.515c1.646,0.086,3.274,0.171,4.89,0.255c1.609,0.127,3.205,0.253,4.776,0.377
				c6.293,0.52,12.271,0.999,17.795,1.508c5.513,0.648,10.581,1.246,15.084,1.775c2.249,0.281,4.356,0.533,6.306,0.809
				c1.938,0.313,3.725,0.603,5.336,0.863c4.875,0.538,10.058,1.107,15.482,1.709c5.402,0.77,11.055,1.574,16.882,2.404
				c1.456,0.214,2.925,0.43,4.401,0.646c1.475,0.25,2.955,0.502,4.449,0.755c2.982,0.519,6.002,1.045,9.055,1.576
				c3.047,0.544,6.131,1.058,9.225,1.646c3.086,0.623,6.191,1.25,9.312,1.88c3.121,0.636,6.254,1.274,9.396,1.915
				c3.141,0.638,6.261,1.403,9.393,2.104c3.128,0.718,6.254,1.437,9.371,2.153c1.559,0.363,3.113,0.727,4.664,1.089
				c1.545,0.391,3.087,0.781,4.624,1.17c6.144,1.573,12.22,3.13,18.168,4.653c5.931,1.555,11.733,3.077,17.349,4.55
				c11.24,2.906,22.476,5.521,33.666,7.988c11.215,2.338,22.381,4.587,33.558,6.291c11.157,1.829,22.312,3.148,33.403,4.151
				c5.56,0.398,11.09,0.882,16.619,1.07c2.766,0.11,5.521,0.293,8.273,0.342c2.755,0.055,5.505,0.11,8.249,0.166
				c2.745,0.076,5.485,0.016,8.222,0.012c2.735-0.029,5.467,0,8.191-0.071c5.448-0.156,10.879-0.229,16.283-0.521
				c10.812-0.417,21.523-1.248,32.139-2.141c21.223-1.949,42.021-4.688,62.353-8.022c20.435-2.791,40.19-5.727,59.419-9.16
				c19.215-3.488,37.9-7.406,56.229-11.794c18.297-4.501,36.222-9.496,53.918-15.061c17.729-5.48,35.392-11.042,53.166-16.768
				c14.558-4.641,28.617-8.902,42.633-13.137c7.016-2.097,14.017-4.189,21.065-6.297c3.521-1.069,7.108-2.027,10.503-3.282
				c3.323-1.288,6.824-2.798,8.309-5.74c1.504-2.938,1.297-6.837,1.155-10.572c-0.206-3.824-0.414-7.685-0.625-11.591
				c-0.431-7.812-0.869-15.806-1.321-24.044c-0.476-8.239-0.963-16.725-1.47-25.521c-0.479-8.8-0.974-17.909-1.487-27.396
				c-0.446-6.604-0.681-13.184-0.953-19.705c-0.248-6.521-0.496-12.99-0.737-19.384c-0.212-12.786-0.418-25.28-0.617-37.341
				c-0.321-24.123-0.62-46.518-0.881-66.061c-0.121-39.069-0.356-69.386-0.666-89.935c-0.29-20.55-0.574-31.331-0.574-31.331
				c-0.063,0-0.103,0.676-0.11,2.008c-0.013,1.333,0,3.323,0.039,5.955c0.1,5.265,0.248,13.097,0.44,23.371
				c0.401,20.547,0.996,50.859,1.763,89.919c0.092,19.543,0.475,41.273,0.996,65.061c0.277,11.893,0.567,24.301,0.869,37.207
				c0.213,6.452,0.523,13.025,0.789,19.723c0.289,6.696,0.506,13.517,0.94,20.45c0.349,9.083,0.703,17.752,1.104,26.101
				c0.479,8.346,0.938,16.375,1.383,24.188c0.492,7.81,0.969,15.401,1.438,22.874c0.246,3.736,0.488,7.443,0.73,11.132
				c0.113,1.846,0.264,3.681,0.352,5.523c0.092,1.842,0.146,3.693-0.049,5.545c-0.184,1.839-0.635,3.722-1.682,5.319
				c-1.028,1.605-2.568,2.797-4.182,3.723c-1.616,0.947-3.346,1.643-5.081,2.293c-1.739,0.644-3.509,1.211-5.276,1.756
				c-7.082,2.166-14.236,4.354-21.562,6.595c-14.655,4.46-30.026,8.995-46.847,13.895c-16.748,5.122-34.459,10.539-52.696,16.117
				c-18.233,5.647-37.159,10.918-56.324,15.628c-19.172,4.68-38.59,8.73-57.724,12.324c-4.789,0.869-9.558,1.731-14.295,2.594
				c-4.75,0.787-9.473,1.571-14.155,2.349c-9.369,1.553-18.612,2.946-27.653,4.323c-16.979,2.449-37.772,5.406-59.888,7.595
				c-11.058,1.067-22.44,1.983-33.824,2.45c-5.688,0.301-11.381,0.387-17.022,0.491c-2.819,0.065-5.633,0-8.426-0.01
				c-2.793-0.03-5.567-0.011-8.319-0.137c-2.752-0.077-5.51-0.153-8.271-0.23c-2.764-0.069-5.524-0.273-8.295-0.404
				c-5.545-0.229-11.09-0.752-16.66-1.185c-11.123-1.072-22.299-2.44-33.478-4.273c-11.199-1.709-22.39-3.92-33.646-6.153
				c-11.229-2.362-22.522-4.809-33.84-7.457c-11.271-2.814-22.611-5.647-34.022-8.498c-2.856-0.69-5.701-1.452-8.578-2.088
				c-2.875-0.651-5.754-1.305-8.638-1.958c-5.767-1.311-11.543-2.65-17.381-3.789c-2.914-0.594-5.832-1.189-8.754-1.785
				c-2.924-0.589-5.845-1.217-8.793-1.719c-5.889-1.056-11.791-2.114-17.713-3.176c-5.943-0.918-11.903-1.839-17.883-2.762
				l-4.487-0.674l-4.508-0.572c-3.008-0.379-6.021-0.759-9.037-1.139c-24.099-3.439-48.651-5.241-73.506-5.989
				c-24.838-1.007-49.903-2.144-75.22-3.472c-12.664-0.401-25.385-0.805-38.162-1.211c-3.194-0.084-6.408-0.255-9.529-0.238
				c-3.139,0.034-6.252,0.308-9.275,0.938c-3.013,0.665-5.926,1.703-8.617,3.179c-1.33,0.763-2.642,1.57-3.856,2.519l-0.92,0.701
				l-0.88,0.755c-0.555,0.483-1.244,1.043-1.919,1.588c-1.345,1.096-2.896,1.955-4.522,2.663c-1.676,0.587-3.438,1.085-5.277,1.035
				c-0.913,0.073-1.82-0.136-2.73-0.239c-0.442-0.115-0.885-0.251-1.326-0.379c-0.449-0.109-0.869-0.295-1.283-0.5
				c-1.711-0.704-3.146-1.903-4.396-3.201c-2.418-2.712-3.759-6.129-4.304-9.53c-0.492-3.276-0.867-6.46-1.301-9.7
				c-0.403-3.23-0.862-6.455-1.209-9.701c-0.334-3.246-0.67-6.497-1.004-9.75c-0.75-6.497-1.06-13.057-1.494-19.609
				c-3.35-52.426-0.521-105.643-0.229-159.496c2.563-54.874,3.671-109.158,4.972-162.662c0.643-13.381,1.183-26.715,1.65-40
				c0.552-13.283,1.066-26.516,1.48-39.695c0.804-26.357,1.015-52.539-0.446-78.415c-0.128-3.237-0.256-6.471-0.383-9.7
				c-0.146-3.229-0.467-6.441-0.696-9.658c-0.256-3.215-0.514-6.426-0.77-9.634c-0.273-3.236-0.477-6.498-0.391-9.735
				c0.076-6.481,0.779-12.892,1.433-19.259c0.306-3.212,1.002-6.495,2.413-9.471c1.372-2.988,3.521-5.663,6.275-7.551
				c2.742-1.924,6.215-2.706,9.521-2.434c0.828,0.067,1.643,0.257,2.457,0.395l2.355,0.725l4.482,1.482
				c6.021,1.799,12.18,3.128,18.416,3.742c6.23,0.628,12.492,0.783,18.732,0.577c6.24-0.254,12.455-0.795,18.647-1.472
				c12.408-1.274,24.771-2.981,37.173-3.672c6.184-0.317,12.346-0.695,18.495-0.953c6.151-0.213,12.284-0.526,18.403-0.656
				c24.477-0.672,48.694-0.504,72.59,0.655c23.904,0.966,47.485,3.361,70.508,7.266c23.023,3.896,45.48,9.307,67.15,16.113
				c10.852,3.355,21.369,7.613,31.842,11.348c10.45,3.76,21.137,6.678,31.904,8.732c10.765,2.088,21.562,3.534,32.316,4.537
				c2.689,0.219,5.377,0.438,8.061,0.656c2.688,0.181,5.369,0.36,8.047,0.54c5.354,0.359,10.688,0.681,16.004,0.948
				c21.229,1.402,42.127,2.411,62.652,2.459c2.564,0,5.127,0.01,7.682,0.01c2.555,0.01,5.101-0.109,7.643-0.157
				c5.081-0.129,10.143-0.209,15.166-0.553c5.023-0.306,10.041-0.461,14.986-1.03c2.479-0.239,4.951-0.479,7.418-0.716
				c2.463-0.271,4.904-0.671,7.351-0.999c19.55-2.753,38.448-7.163,56.808-11.911c9.182-2.389,18.24-4.845,27.195-7.287
				c8.914-2.572,17.727-5.115,26.436-7.628c4.352-1.279,8.695-2.468,12.975-3.803c4.279-1.322,8.536-2.637,12.768-3.943
				c8.455-2.617,16.809-5.202,25.054-7.754c16.501-5.091,32.524-10.208,48.276-14.67c3.928-1.146,7.828-2.281,11.701-3.41
				c3.879-1.108,7.705-2.294,11.553-3.296c7.672-2.099,15.248-4.045,22.641-6.149c3.721-0.989,7.332-2.182,10.957-3.252
				c3.604-1.128,7.117-2.41,10.639-3.589c1.725-0.684,3.438-1.364,5.146-2.042c0.854-0.339,1.707-0.677,2.558-1.014
				c0.854-0.331,1.703-0.666,2.519-1.071c1.647-0.771,3.291-1.539,4.926-2.304c1.635-0.762,3.278-1.493,4.814-2.409
				c1.628-0.892,3.244-1.777,4.852-2.657c0.811-0.442,1.617-0.884,2.422-1.323l1.289-0.681l0.646-0.335l0.687-0.263l1.367-0.519
				c0.474-0.131,0.955-0.232,1.432-0.348l0.715-0.165l0.736-0.07c0.49-0.035,0.979-0.104,1.472-0.106
				c1.979,0.01,3.94,0.496,5.694,1.367c1.758,0.892,3.186,2.247,4.373,3.717c0.535,0.779,1.103,1.538,1.483,2.389
				c0.466,0.813,0.769,1.685,1.084,2.547c0.326,0.857,0.476,1.761,0.714,2.635c0.13,0.891,0.279,1.78,0.361,2.668
				c0.033,0.885,0.097,1.792,0.101,2.648c0,0.851-0.01,1.698-0.01,2.544c-0.017,13.524-0.03,26.362-0.046,38.599
				c-0.01,24.473,0,46.539-0.202,66.885c-0.403,74.287-0.61,118.33-0.472,125.354l0.01,0.287l-0.299,0.012
				c-0.405,0.015-0.694,0.025-0.883,0.033c-0.194,0.01-0.283,0.016-0.283,0.024v0.011H7187.125z"/>
		</g>
	</g>
</g>
<g id="g4253">
	<g>
		<g>
			<defs>
				<path id="SVGID_1_" d="M7171.247-2934.602c-4.826,2.293-7.688,3.785-10.653,5.028c-9.028,3.765-17.856,8.304-27.172,10.929
					c-14.851,4.173-30.291,6.149-45.028,10.64c-28.024,8.539-55.56,18.831-83.619,27.226c-28.062,8.396-56.317,16.358-84.871,22.658
					c-26.248,5.797-52.931,12.166-79.537,12.87c-43.946,1.168-88.088-0.469-131.931-3.972c-25.914-2.065-51.994-7.938-76.933-15.751
					c-35.013-10.963-69.429-24.731-105.992-28.026c-39.717-3.579-79.653-4.74-119.522-5.838c-19.731-0.539-40.056-1.251-59.17,2.859
					c-28.082,6.023-55.269,7.469-82.51-1.936c-8.125-2.805-8.502,0.346-7.695,7.311c1.876,16.324,4.1,32.688,4.516,49.091
					c0.717,28.779,0.729,57.601,0.017,86.388c-0.752,30.382-2.877,60.731-4.078,91.106c-1.485,37.814-3.312,75.639-3.793,113.469
					c-0.631,50.977-0.276,101.966-0.026,152.949c0.104,23.35,0.979,46.693,1.535,71.391c7.474-2.087,13.022-4.809,18.658-5.01
					c24.836-0.904,49.801-2.652,74.541-1.174c46.767,2.798,93.588,6.217,140.076,12c37.235,4.643,74.117,12.643,110.979,20.082
					c36.183,7.302,71.841,18.957,108.312,22.867c37.465,4.014,75.744,2.701,113.487,0.496c34.875-2.037,69.604-7.646,104.215-12.959
					c39.328-6.039,77.994-15.199,116.385-26.438c43.646-12.774,88.168-22.377,130.586-39.488c2.883-1.16,6.528-4.069,7.092-6.784
					c1.201-5.692,0.992-11.82,0.646-17.72c-2.109-35.999-4.926-71.963-6.537-107.99c-1.396-31.073-2.035-62.216-2.084-93.324
					c-0.191-97.068,0.035-194.13,0.111-291.197C7171.262-2892.752,7171.247-2912.647,7171.247-2934.602L7171.247-2934.602z"/>
			</defs>
			<clipPath id="SVGID_2_">
				<use xlink:href="#SVGID_1_"  overflow="visible"/>
			</clipPath>
			<rect id="rect4261" x="6033.215" y="-2935.524" clip-path="url(#SVGID_2_)" fill="#D12026" width="1342.994" height="671.498"/>
		</g>
	</g>
	<g>
		<g>
			<defs>
				<path id="SVGID_3_" d="M7171.247-2934.602c-4.826,2.293-7.688,3.785-10.653,5.028c-9.028,3.765-17.856,8.304-27.172,10.929
					c-14.851,4.173-30.291,6.149-45.028,10.64c-28.024,8.539-55.56,18.831-83.619,27.226c-28.062,8.396-56.317,16.358-84.871,22.658
					c-26.248,5.797-52.931,12.166-79.537,12.87c-43.946,1.168-88.088-0.469-131.931-3.972c-25.914-2.065-51.994-7.938-76.933-15.751
					c-35.013-10.963-69.429-24.731-105.992-28.026c-39.717-3.579-79.653-4.74-119.522-5.838c-19.731-0.539-40.056-1.251-59.17,2.859
					c-28.082,6.023-55.269,7.469-82.51-1.936c-8.125-2.805-8.502,0.346-7.695,7.311c1.876,16.324,4.1,32.688,4.516,49.091
					c0.717,28.779,0.729,57.601,0.017,86.388c-0.752,30.382-2.877,60.731-4.078,91.106c-1.485,37.814-3.312,75.639-3.793,113.469
					c-0.631,50.977-0.276,101.966-0.026,152.949c0.104,23.35,0.979,46.693,1.535,71.391c7.474-2.087,13.022-4.809,18.658-5.01
					c24.836-0.904,49.801-2.652,74.541-1.174c46.767,2.798,93.588,6.217,140.076,12c37.235,4.643,74.117,12.643,110.979,20.082
					c36.183,7.302,71.841,18.957,108.312,22.867c37.465,4.014,75.744,2.701,113.487,0.496c34.875-2.037,69.604-7.646,104.215-12.959
					c39.328-6.039,77.994-15.199,116.385-26.438c43.646-12.774,88.168-22.377,130.586-39.488c2.883-1.16,6.528-4.069,7.092-6.784
					c1.201-5.692,0.992-11.82,0.646-17.72c-2.109-35.999-4.926-71.963-6.537-107.99c-1.396-31.073-2.035-62.216-2.084-93.324
					c-0.191-97.068,0.035-194.13,0.111-291.197C7171.262-2892.752,7171.247-2912.647,7171.247-2934.602L7171.247-2934.602z"/>
			</defs>
			<clipPath id="SVGID_4_">
				<use xlink:href="#SVGID_3_"  overflow="visible"/>
			</clipPath>
			<g id="g4263" clip-path="url(#SVGID_4_)">
				<path id="path4265" fill="#FEE600" d="M6033.215-2935.524h201.449l470.048,323.758l470.048-323.758h201.449l-1342.994,671.498
					h201.449l470.048-323.758l470.048,323.758h201.449L6033.215-2935.524z M7376.209-2666.925v134.299l-1342.994-134.299l0,0
					v134.299L7376.209-2666.925z M6637.562-2935.524l67.148,287.785l67.148-287.785H6637.562z M6637.562-2264.026l67.148-287.785
					l67.148,287.785H6637.562z"/>
				<circle id="circle4267" fill="#FEE600" stroke="#D12026" cx="6704.712" cy="-2599.775" r="107.919"/>
			</g>
		</g>
	</g>
</g>
</svg>
