<?xml version="1.0" encoding="utf-8"?>
<!-- Generator: Adobe Illustrator 16.0.1, SVG Export Plug-In . SVG Version: 6.00 Build 0)  -->
<!DOCTYPE svg PUBLIC "-//W3C//DTD SVG 1.1//EN" "http://www.w3.org/Graphics/SVG/1.1/DTD/svg11.dtd">
<svg version="1.1" id="Layer_1" xmlns="http://www.w3.org/2000/svg" xmlns:xlink="http://www.w3.org/1999/xlink" x="0px" y="0px"
	 width="961.432px" height="707.911px" viewBox="0 0 961.432 707.911" enable-background="new 0 0 961.432 707.911"
	 xml:space="preserve">
<g>
	<path fill="#FFFFFF" d="M932.334,26.988c-4.791,2.288-7.632,3.777-10.575,5.018c-8.961,3.757-17.723,8.286-26.967,10.905
		c-14.737,4.164-30.062,6.136-44.689,10.616c-27.813,8.521-55.14,18.791-82.987,27.167c-27.851,8.375-55.893,16.323-84.23,22.609
		c-26.05,5.784-52.526,12.14-78.936,12.843c-43.614,1.165-87.422-0.469-130.934-3.964c-25.719-2.061-51.604-7.92-76.351-15.717
		C361.916,85.526,327.76,71.788,291.473,68.5c-39.416-3.571-79.053-4.729-118.62-5.825c-19.584-0.538-39.754-1.248-58.725,2.854
		c-27.87,6.012-54.851,7.452-81.887-1.93c-8.064-2.799-8.438,0.345-7.638,7.293c1.861,16.289,4.067,32.619,4.48,48.984
		c0.711,28.718,0.725,57.477,0.015,86.201c-0.745,30.316-2.854,60.6-4.047,90.909c-1.475,37.734-3.288,75.476-3.764,113.224
		c-0.627,50.867-0.275,101.746-0.027,152.619c0.104,23.299,0.972,46.592,1.523,71.236c7.417-2.082,12.925-4.799,18.516-4.998
		c24.65-0.904,49.425-2.646,73.979-1.172c46.412,2.791,92.881,6.203,139.018,11.973c36.955,4.633,73.56,12.615,110.142,20.039
		c35.908,7.287,71.3,18.916,107.495,22.816c37.184,4.006,75.173,2.695,112.632,0.496c34.61-2.031,69.077-7.631,103.428-12.932
		c39.029-6.025,77.404-15.166,115.505-26.381c43.317-12.746,87.504-22.328,129.602-39.402c2.861-1.158,6.479-4.061,7.038-6.77
		c1.192-5.68,0.985-11.795,0.643-17.682c-2.097-35.922-4.889-71.809-6.487-107.758c-1.386-31.006-2.021-62.08-2.067-93.121
		c-0.192-96.858,0.034-193.71,0.11-290.568C932.348,68.748,932.334,48.895,932.334,26.988z"/>
	<g>
		<path fill="#1880C1" d="M16.897,639.448c0-22.072,0.007-46.164,0-70.256c0-52.5-0.938-105.027,0.213-157.5
			c1.331-61.634,5.356-123.219,6.556-184.846c1.034-52.038-0.192-104.138-0.689-156.196c-0.075-6.349-1.896-12.684-2.55-16.848
			c21.775,1.606,42.904,4.363,63.997,4.322c15.297-0.027,30.545-4.694,45.89-5.68c54.14-3.475,108.308-3.867,162.241,2.998
			c17.647,2.247,35.108,6.576,52.396,11.016c2.488,0.655,5.081,7.259,5.095,11.133c0.214,46.634,0.062,93.281-0.193,139.921
			c-0.481,86.312-1.014,172.604-1.675,258.895c-0.462,59.117-1.172,118.229-1.812,177.346c-0.048,2.846-0.448,5.68-0.703,8.615
			C237.622,644.053,129.796,632.885,16.897,639.448z"/>
		<g>
			<g>
				<path d="M16.926,639.942c-0.006-0.1,1.634-0.236,4.838-0.418c3.206-0.158,7.976-0.393,14.229-0.697
					c6.255-0.279,13.994-0.625,23.138-1.033c9.153-0.08,19.712-0.176,31.596-0.281c2.97,0.055,6.021,0.107,9.154,0.164
					c3.132,0.096,6.345,0.275,9.638,0.396c6.586,0.266,13.492,0.494,20.713,0.689c3.61,0.086,7.299,0.176,11.063,0.268
					c3.762,0.182,7.6,0.367,11.513,0.557c7.828,0.375,15.962,0.727,24.394,1.055c2.106,0.092,4.233,0.164,6.374,0.281
					c2.138,0.16,4.294,0.32,6.467,0.48c4.348,0.344,8.765,0.691,13.252,1.047c4.486,0.381,9.042,0.768,13.666,1.158
					c2.312,0.205,4.641,0.412,6.986,0.621c2.338,0.273,4.693,0.551,7.066,0.826c9.487,1.127,19.238,2.336,29.241,3.621
					c5.009,0.588,10.046,1.455,15.159,2.229c5.107,0.809,10.279,1.625,15.512,2.453c5.236,0.793,10.534,1.596,15.894,2.408
					c5.35,0.875,10.76,1.762,16.229,2.656c5.475,0.871,11.007,1.752,16.598,2.645c1.377,0.215,2.756,0.432,4.139,0.646l0.884,0.139
					l0.44,0.068l0.22,0.033c0.044-0.027,0.023-0.137,0.039-0.199l0.167-1.793c0.151-1.428,0.247-2.852,0.318-4.273
					c0.037-0.713,0.095-1.422,0.113-2.141l0.009-2.164c0.087-23.109,0.054-47.143,0.03-72.008
					c0.295-24.863,1.747-50.551,0.692-77.041c1.271-26.447,0.916-53.691,0.434-81.604c0.707-27.904,0.611-56.484,0.812-85.693
					c0.224-29.176-0.43-58.965,0.085-89.271c-0.23-30.318-0.318-61.117,0.192-92.394c0.792-15.618,0.693-31.354,0.549-47.189
					c-0.071-7.918-0.154-15.862-0.145-23.83l0.009-2.989l0.008-1.495c-0.002-0.507-0.01-0.874-0.064-1.341
					c-0.197-1.787-0.73-3.646-1.452-5.355c-0.36-0.855-0.789-1.681-1.284-2.378c-0.241-0.343-0.522-0.657-0.757-0.865
					c-0.096-0.041-0.03-0.116-0.341-0.226l-0.172-0.075l-0.043-0.019l-0.021-0.01c0.291,0.094,0.067,0.022,0.127,0.042l-0.091-0.025
					l-0.36-0.101l-5.774-1.646c-15.125-4.213-30.426-7.513-45.786-9.201c-3.857-0.346-7.708-0.691-11.552-1.035
					c-1.921-0.173-3.84-0.345-5.758-0.517l-2.873-0.263l-2.878-0.186c-3.834-0.255-7.661-0.51-11.48-0.764
					c-1.908-0.143-3.813-0.284-5.719-0.427c-1.907-0.104-3.812-0.209-5.716-0.313c-30.383-2.989-60.691-4.597-90.086-0.234
					c-1.844,0.084-3.733,0.17-5.659,0.258c-1.925,0.121-3.886,0.243-5.873,0.368c-3.976,0.251-8.059,0.509-12.177,0.77
					c-2.075,0.101-4.095,0.313-6.12,0.512c-2.026,0.155-4.057,0.497-6.076,0.763c-4.04,0.582-8.054,1.29-11.98,1.951
					c-7.847,1.342-15.429,2.395-22.059,2.393c-0.825,0.006-1.64,0.039-2.424,0.017c-0.779-0.043-1.542-0.085-2.285-0.126
					c-1.485-0.095-2.897-0.186-4.226-0.27c-2.653-0.188-4.969-0.392-6.872-0.614c-0.72,0.021-1.45,0.044-2.192,0.065
					c-0.738-0.012-1.488-0.024-2.248-0.037c-1.521-0.039-3.081-0.08-4.678-0.121c-3.191-0.104-6.533-0.214-9.971-0.404
					c-6.852-0.437-14.146-1.037-21.52-1.633c-1.846-0.157-3.699-0.315-5.557-0.475l-1.394-0.122
					c-0.168-0.015-0.097-0.01-0.114-0.012l-0.005-0.002l-0.012-0.005l-0.03-0.013c-0.009,0.013,0.019,0.15,0.027,0.222l0.038,0.268
					c0.022,0.137-0.009,0.014,0.114,0.643l0.527,2.775c0.346,1.849,0.58,3.775,0.852,5.649c0.055,0.967,0.108,1.932,0.162,2.893
					c0.041,0.953,0.129,1.938,0.096,2.831c-0.018,1.825-0.036,3.635-0.055,5.426c-0.057,3.582-0.111,7.087-0.165,10.479
					c-0.169,13.565-0.17,26.963-0.079,40.18c0.122,13.217,0.242,26.252,0.361,39.092c0.108,6.422,0.162,12.798,0.198,19.125
					c0.003,6.327-0.112,12.607-0.149,18.836c-0.052,6.229-0.081,12.408-0.051,18.537c0.038,3.064,0.005,6.115-0.007,9.152
					c-0.008,3.037,0.005,6.062,0.042,9.074c-0.658,12.037-1.297,23.696-1.921,35.096c-0.706,11.391-1.343,22.521-1.876,33.514
					c-0.531,10.992-0.973,21.843-1.272,32.674c-0.276,10.83-0.533,21.639-0.358,32.543c0.029,8.918-0.104,17.492-0.333,26.033
					c-0.089,4.271-0.308,8.529-0.351,12.824c-0.062,4.295-0.126,8.617-0.19,13.01c-0.288,17.562-0.667,36.221-0.545,58.385
					c0.788,30.896,0.12,60.377,0.067,83.195c-1.356,45.613-0.576,70.801-0.576,70.801c0.367,0,0.284-6.297,0.064-18.295
					s-0.571-29.699-0.75-52.506c0.676-22.818-0.206-50.75-0.647-83.191c0.801-21.229,0.581-38.576,0.329-55.744
					c-0.431-17.168-0.126-34.145,1.005-54.577c0.146-10.229,0.613-21.034,1.028-32.164c0.455-11.128,0.922-22.577,1.393-34.082
					c0.473-11.504,0.949-23.063,1.417-34.414c0.354-11.353,0.622-22.497,0.858-33.167c0.164-5.002,0.334-10.564,0.353-16.496
					c-0.026-5.933-0.055-12.232-0.084-18.709c-0.032-6.476-0.001-13.126,0.028-19.764c-0.025-6.638,0.022-13.262,0.195-19.681
					c0.059-6.418,0.117-12.885,0.176-19.398c-0.013-6.515-0.026-13.077-0.04-19.684c-0.087-13.214-0.332-26.608-0.927-40.167
					c-0.035-3.392-0.07-6.793-0.106-10.206c-0.016-1.706-0.031-3.415-0.046-5.127c0.033-1.735-0.177-3.354-0.262-5.037
					c-0.025-0.834-0.17-1.67-0.304-2.507l-0.392-2.512c-0.13-0.838-0.322-1.682-0.481-2.523l-0.536-2.748l-0.664-3.545l-0.084-0.442
					l-0.021-0.11c0.027-0.008,0.076,0.003,0.113,0.004l0.239,0.021l0.955,0.082l1.908,0.163c1.836,0.158,3.675,0.316,5.517,0.476
					c6.925,0.597,13.89,1.198,20.895,1.802c3.5,0.326,7.011,0.536,10.53,0.755c3.52,0.195,7.049,0.483,10.588,0.58
					c3.532,0.231,7.082,0.408,10.643,0.546c3.571,0.206,7.107,0.084,10.655-0.195c7.103-0.604,14.155-2.062,21.294-3.431
					c1.792-0.329,3.586-0.658,5.383-0.987c1.8-0.32,3.624-0.573,5.44-0.858c3.651-0.493,7.369-0.851,11.011-1.046
					c3.661-0.229,7.334-0.43,11.017-0.59c1.842-0.077,3.685-0.154,5.532-0.201c1.849-0.015,3.699-0.029,5.553-0.043
					c29.535-1.868,59.843-3.013,90.413,0.172c1.917,0.011,3.837,0.014,5.757,0.07c1.918,0.101,3.837,0.201,5.758,0.301
					c3.842,0.225,7.688,0.495,11.539,0.797l2.889,0.24l2.883,0.332c1.922,0.23,3.846,0.461,5.771,0.691
					c3.847,0.488,7.699,0.978,11.56,1.468c15.479,2.311,30.672,6.203,46.038,9.608l5.778,1.678l0.361,0.104l0.09,0.025l0.179,0.058
					l0.021,0.01l0.042,0.019l0.172,0.077c0.169,0.05,0.617,0.329,0.932,0.566c0.525,0.446,0.896,0.892,1.23,1.359
					c0.654,0.931,1.133,1.89,1.539,2.866c0.804,1.956,1.367,3.962,1.588,6.09c0.06,0.517,0.069,1.109,0.062,1.601l-0.024,1.496
					l-0.045,2.989c-0.109,7.97-0.127,15.915-0.091,23.834c0.07,15.839,0.357,31.575,0.568,47.197
					c-1.393,31.281-0.405,62.092-0.191,92.409c-1.257,30.304-0.87,60.091-0.567,89.271c-0.35,29.209-1.42,57.781-1.238,85.693
					c0.705,27.914,0.32,55.152,0.199,81.611c-0.719,26.477-1.289,52.172-0.765,77.049c-0.252,24.863-0.739,48.893-1.174,72
					l-0.041,2.162c-0.03,0.729-0.1,1.471-0.147,2.203l-0.158,2.197l-0.223,2.135l-0.342,3.285c-0.03,0.117,0.005,0.318-0.078,0.367
					l-0.412-0.068l-0.822-0.137l-1.637-0.271c-1.48-0.248-2.958-0.496-4.432-0.742c-5.581-0.93-11.104-1.85-16.567-2.76
					c-5.468-0.887-10.876-1.764-16.223-2.633c-5.354-0.812-10.667-1.492-15.911-2.203c-5.244-0.707-10.428-1.406-15.547-2.096
					c-5.123-0.662-10.169-1.426-15.183-1.92c-10.011-1.098-19.764-2.164-29.247-3.201c-2.371-0.262-4.725-0.52-7.061-0.775
					c-2.343-0.197-4.668-0.395-6.977-0.59c-4.615-0.396-9.162-0.789-13.639-1.176c-4.477-0.398-8.882-0.789-13.217-1.176
					c-2.167-0.199-4.316-0.396-6.447-0.594c-2.136-0.143-4.253-0.285-6.352-0.428c-8.707-0.729-16.973-1.35-24.841-1.9
					c-3.936-0.258-7.769-0.574-11.514-0.738c-3.747-0.123-7.401-0.244-10.967-0.361c-7.132-0.238-13.913-0.467-20.395-0.684
					c-3.24-0.107-6.405-0.275-9.502-0.355c-3.098-0.047-6.126-0.094-9.093-0.141c-11.875-0.121-22.426-0.229-31.572-0.322
					c-9.145,0.256-16.885,0.473-23.14,0.648c-6.256,0.213-11.028,0.373-14.235,0.482c-1.604,0.066-2.815,0.127-3.626,0.18
					C17.333,639.854,16.924,639.901,16.926,639.942z"/>
			</g>
		</g>
	</g>
	<g>
		<path fill="#ED2226" d="M933.698,25.947c0.097,7.279,0.469,11.553,0.44,10.408c-0.083,17.654-0.192,36.515-0.316,48.833
			c-0.11,24.816-0.229,20.853-0.338,46.992c-0.117,8.672-0.206,21.569-0.275,46.371c-0.083,27.821-0.11,49.853-0.11,49.453
			c0,28.104,0.151,35.328,0.407,78.232c0.262,21.114,0.606,48.13,0.999,78.231c0.304,19.475,0.676,38.549,1.179,60.365
			c0.496,10.602,1.098,40.484,1.861,60.346c1.104,28.684,3.322,57.316,5.418,85.945c0.6,8.299-2.288,11.457-10.029,13.85
			c-20.693,6.402-40.678,15.412-61.495,21.252c-21.88,6.143-43.821,12.043-65.817,17.771c-21.977,5.727-44.014,13.771-66.08,16.682
			c-18.735,9.326-37.989,9.904-57.008,10.242c-5.59,2.812-11.141,5.398-17.916,3.791c-0.358,1.566-0.868-12.869-0.916-10.523
			c-0.373-19.316-0.759-48.641-1.139-63.15c-0.371-26.215-0.743-45.014-1.123-62.469c-0.387-12.324-0.759-44.771-1.123-61.543
			c-0.388-26.332-0.752-41.229-1.124-64.066c-0.387-23.604-0.771-47.785-1.139-60.482c-0.372-36.238-0.751-50.396-1.123-65.128
			c-0.372-32.544-0.759-49.963-1.138-62.295c-0.372-24.81-0.737-43.125-1.123-63.315c-0.276-15.642-0.462-40.354-1.269-45.751
			c-0.346-29.049,1.108-13.938,7.65-10.692c16.311,4.137,32.626-4.783,48.896-12.373c16.269-8.1,32.48-3.488,48.646-13.339
			c26.98-22.045,53.423-1.943,80.335-25.912c17.874-28.808,36.267-4.963,54.224-14.083
			C906.656,31.358,919.829,30.187,933.698,25.947z"/>
		<g>
			<g>
				<path d="M933.615,25.678c0.007,0.021-0.213,0.104-0.656,0.247c-0.444,0.138-1.109,0.343-1.991,0.614
					c-1.76,0.558-4.421,1.257-7.933,2.155c-1.757,0.449-3.732,0.919-5.902,1.496c-1.085,0.287-2.222,0.588-3.409,0.902
					c-1.186,0.324-2.405,0.719-3.685,1.098c-5.081,1.599-10.906,3.785-16.882,7.408h-0.001c-1.773,0.885-3.732,1.558-5.824,1.913
					c-2.091,0.362-4.297,0.41-6.543,0.235c-4.508-0.332-9.146-1.562-14.1-2.282c-2.766-0.46-5.667-0.708-8.62-0.37
					c-2.956,0.29-5.9,1.349-8.557,2.996c-2.664,1.649-5.016,3.898-7.069,6.447c-1.014,1.288-2.008,2.616-2.902,4.034l-0.684,1.04
					L837.9,54.42c-0.654,0.534-1.275,1.117-1.966,1.62c-5.355,4.236-11.87,7.5-19.101,9.232c-7.227,1.809-15.003,2.078-22.942,2.677
					c-3.973,0.303-8.004,0.708-12.028,1.483c-4.026,0.754-8.021,1.983-11.854,3.722c-3.833,1.739-7.48,4.026-10.846,6.772
					c-0.072,0.064-0.319,0.243-0.411,0.278l-0.365,0.204l-0.729,0.409l-1.468,0.818c-0.991,0.523-2.035,0.953-3.058,1.436
					c-1.037,0.448-2.114,0.805-3.177,1.212c-1.077,0.36-2.177,0.661-3.271,0.995c-8.857,2.384-18.283,2.443-27.463,4.772
					c-1.131,0.34-2.283,0.631-3.408,1.011c-1.107,0.425-2.261,0.75-3.346,1.26c-2.186,0.95-4.405,1.984-6.625,3.011
					c-4.443,2.052-8.95,4.137-13.625,5.986c-4.656,1.877-9.514,3.486-14.582,4.426c-1.26,0.275-2.55,0.389-3.834,0.557
					c-0.641,0.103-1.294,0.089-1.94,0.137c-0.649,0.022-1.3,0.093-1.95,0.076c-1.302-0.058-2.614-0.006-3.914-0.204l-1.957-0.225
					l-1.936-0.397l-0.975-0.199c-0.365-0.104-0.628-0.305-0.915-0.481c-0.562-0.37-1.067-0.815-1.54-1.288
					c-0.94-0.951-1.729-2.033-2.496-3.114c-0.409-0.569-0.712-1.018-1.096-1.441c-0.187-0.181-0.43-0.464-0.72-0.34
					c-0.245,0.163-0.309,0.478-0.385,0.741c-0.067,0.279-0.108,0.557-0.147,0.846c-0.036,0.301-0.07,0.639-0.095,0.969
					c-0.052,0.662-0.083,1.329-0.108,1.997c-0.09,2.673-0.075,5.367-0.057,8.073c0.017,1.354,0.032,2.711,0.049,4.071
					c0.037,1.299,0.28,2.713,0.333,4.066c0.607,10.94,0.723,22.101,0.993,33.467c0.271,11.364,0.547,22.936,0.828,34.705
					c0.391,23.544,0.146,47.89,1.367,72.947c-0.078,25.063,0.625,50.849,1.469,77.267c0.146,26.431,0.861,53.487,1.35,81.146
					c0.469,27.625,1.433,55.816,1.782,84.514c0.812,28.689,1.348,57.861,1.628,87.488c-0.141,11.994,0.055,24.051,0.327,36.182
					c0.146,6.066,0.291,12.148,0.438,18.252c0.067,3.051,0.136,6.107,0.202,9.168c0.053,3.008,0.104,6.02,0.156,9.035
					c0.001,0.023,0.001,0.137,0.002,0.053c0.004-0.002-0.007-0.082,0.013-0.023c0.03,0.166,0.026,0.195,0.036,0.271l0.049,0.742
					l0.075,1.447c0.046,0.961,0.092,1.926,0.139,2.893c0.051,0.965,0.101,1.93,0.149,2.896l0.099,1.438l0.064,0.699l0.044,0.311
					c-0.031,0.064,0.201-0.018-0.459,0.229c-0.081,0.012-0.146,0.107-0.145,0.096c0.004-0.014-0.042-0.041-0.146-0.096
					c-0.088-0.045-0.184-0.057-0.353-0.121l-0.113-0.033c-0.015-0.004-0.005,0-0.008-0.002l0.001,0.004l0.835-0.52
					c0.867,0.141,1.737,0.352,2.624,0.451l1.343,0.062l0.674,0.035c0.226-0.006,0.449-0.033,0.674-0.049
					c3.611-0.217,7.097-1.541,10.405-3.146l1.244-0.609l0.312-0.152c0.133-0.051,0.277-0.166,0.432-0.18l0.782-0.014l2.777-0.053
					l5.545-0.162c7.379-0.27,14.729-0.844,21.924-2.119c7.19-1.268,14.223-3.25,20.837-6.127c0.835-0.342,1.657-0.709,2.462-1.111
					l1.217-0.584l0.609-0.291l0.311-0.148l0.299-0.139l0.329-0.055c1.786-0.297,3.569-0.594,5.353-0.889l2.671-0.436l2.649-0.553
					c1.769-0.363,3.533-0.727,5.297-1.09c14.152-2.867,28.015-6.814,41.767-10.562c13.791-3.625,27.395-7.465,40.684-11.973
					c6.754-1.854,14.172-3.887,21.718-5.953c3.773-1.031,7.579-2.07,11.35-3.102c3.712-1.174,7.389-2.338,10.965-3.469
					c1.785-0.578,3.562-1.084,5.275-1.689c1.713-0.609,3.393-1.209,5.029-1.795c3.282-1.152,6.398-2.248,9.284-3.262
					c5.779-2.043,10.652-3.707,14.104-4.77c5.036-2.008,10.812-4.035,16.954-6.225c1.503-0.496,2.994-1.066,4.354-1.814
					c1.364-0.74,2.551-1.695,3.334-2.926c0.814-1.213,1.216-2.713,1.353-4.314c0.149-1.619,0.041-3.242-0.1-5.027
					c-1.013-14.025-1.9-28.566-2.577-41.396c-0.515-12.846-1.106-25.521-1.754-38.023c-0.081-1.562-0.162-3.123-0.243-4.68
					c-0.05-1.561-0.1-3.113-0.148-4.666c-0.097-3.105-0.191-6.201-0.287-9.285c-0.202-6.166-0.403-12.287-0.604-18.363
					c-0.21-6.076-0.418-12.107-0.625-18.096c-0.195-5.986-0.377-11.928-0.474-17.824c-0.244-11.793-0.533-23.391-1.041-34.783
					c-0.021-5.705-0.045-11.322-0.066-16.862c0.005-5.54,0.009-11.004,0.012-16.405c0-10.805-0.031-21.361-0.115-31.782
					c-0.085-10.42-0.223-20.704-0.438-30.962c-0.145-10.259-0.354-20.493-0.669-30.812c-0.422-16.44-0.464-31.679-0.456-47.857
					c0.13-17.003,0.295-35.061,0.242-56.615c-0.273-29.268,0.405-57.18,0.645-78.781c0.741-29.743,0.822-50.317,0.784-56.254
					l0.686-0.007l0.002,0.107l-0.001,0.062l-0.009,0.082l-0.005,0.021c0.187-0.25-0.193,0.534-0.641,0.075
					c-0.043-0.096-0.018-0.047-0.029-0.077c-0.032-0.151-0.026-0.173-0.037-0.254l-0.036-0.39c-0.021-0.254-0.038-0.502-0.058-0.744
					c-0.028-0.482-0.059-0.943-0.086-1.381c-0.044-0.875-0.083-1.661-0.117-2.366c-0.055-1.409-0.095-2.494-0.124-3.313
					c-0.052-1.64-0.068-2.218-0.068-2.218c-0.081,0.001-0.117,0.921-0.088,2.73c0.016,0.905,0.048,2.034,0.107,3.381
					c0.036,0.674,0.075,1.403,0.116,2.187c0.027,0.392,0.056,0.798,0.084,1.217c0.019,0.211,0.035,0.426,0.053,0.644l0.035,0.339
					l0.014,0.099l0.015,0.082l0.021,0.08c-0.528-0.066,0.951,0.621,1.005,0.012c0.03-0.093,0.012-0.04,0.02-0.067l0.01-0.053
					c0.017-0.19,0.005-0.178,0.007-0.261l-1.062,0.01c0.028,10.898,0.188,30.007,0.124,56.262
					c-0.593,21.603-0.376,48.059-0.312,78.779c-0.513,21.59-0.267,38.957-0.076,56.613c0.271,14.816,0.526,29.916,0.339,47.849
					c0.087,9.684,0.178,19.923,0.271,30.468c0.138,10.545,0.277,21.395,0.419,32.297c0.299,21.804,0.447,43.828,1.003,64.035
					c0.145,9.48,0.519,21.074,0.858,33.336c0.083,3.064,0.167,6.174,0.251,9.299c0.104,3.127,0.209,6.273,0.313,9.416
					c0.19,6.285,0.342,12.559,0.415,18.641c0.136,6.076,0.272,12.201,0.41,18.369c0.073,3.084,0.147,6.18,0.223,9.285
					c0.043,1.553,0.065,3.109,0.131,4.666c0.078,1.557,0.156,3.117,0.234,4.678c0.644,12.494,1.376,25.158,2.326,37.963
					c0.898,12.812,1.81,25.787,2.729,38.916c0.104,1.65,0.256,3.262,0.323,4.953c0.054,1.682-0.021,3.4-0.467,5.088
					c-0.205,0.848-0.562,1.66-0.981,2.439c-0.47,0.748-1.001,1.473-1.658,2.061c-1.289,1.211-2.834,2.047-4.4,2.705
					c-1.572,0.662-3.203,1.131-4.763,1.686c-1.577,0.539-3.155,1.078-4.735,1.619c-3.157,1.092-6.334,2.152-9.495,3.287
					c-6.373,2.172-12.712,4.523-19.113,6.852c-3.192,1.184-6.395,2.369-9.604,3.559c-3.217,1.17-6.507,2.172-9.771,3.275
					c-6.52,2.279-13.194,4.045-19.885,5.895c-6.695,1.834-13.44,3.613-20.248,5.277c-13.479,3.803-27.078,7.641-40.795,11.512
					c-13.666,3.932-27.441,8.236-41.723,11.08c-1.771,0.412-3.543,0.824-5.316,1.236l-2.668,0.602l-2.7,0.471
					c-1.804,0.305-3.606,0.607-5.413,0.912l-2.175,1.035c-0.829,0.408-1.677,0.777-2.534,1.119
					c-6.812,2.885-14.051,4.738-21.37,5.854c-7.327,1.125-14.742,1.527-22.149,1.732l-5.56,0.133l-2.78,0.053l-0.557,0.012
					c-0.051,0.008-0.071,0.031-0.135,0.059l-0.312,0.156l-1.253,0.623c-3.337,1.648-6.94,3.125-10.836,3.486
					c-0.243,0.016-0.484,0.043-0.729,0.049l-0.729-0.035l-1.455-0.072c-0.961-0.107-1.901-0.334-2.838-0.494
					c0.3-0.188,0.6-0.373,0.895-0.557c-0.024,0.078-0.012,0.084-0.091,0.256c-0.009-0.025-0.105,0.381-0.665,0.436
					c-0.178,0.008-0.371-0.066-0.481-0.154c-0.062-0.049-0.07-0.062-0.105-0.098c-0.052-0.055-0.115-0.158-0.128-0.188
					c-0.101-0.23-0.083-0.258-0.109-0.357c-0.028-0.154-0.045-0.281-0.061-0.414l-0.068-0.752l-0.093-1.473
					c-0.045-0.973-0.091-1.945-0.137-2.916c-0.039-0.969-0.08-1.934-0.119-2.896l-0.065-1.438l-0.042-0.701
					c0.013-0.049-0.043-0.121,0.021-0.117c-0.068-0.014-0.008,0.137,0,0.191l0.037,0.109l0.004,0.014l0.002,0.004
					c-0.094,0.041,0.822-0.354,0.432-0.188l-0.013-0.002l-0.048-0.014l-0.097-0.023l-0.385-0.1c-0.03-3.109-0.062-6.215-0.094-9.312
					c-0.047-3.062-0.094-6.117-0.141-9.17c-0.129-6.104-0.258-12.188-0.387-18.252c-0.326-12.129-0.65-24.184-0.973-36.166
					c0.225-29.633-0.826-58.787-1.628-87.486c0.072-28.715-0.738-56.908-1.508-84.527c-0.402-27.659-0.45-54.725-1.105-81.147
					c-0.971-26.416-1.25-52.212-1.829-77.258c-0.206-25.074-0.468-49.411-1.326-72.949c-0.202-11.772-0.396-23.344-0.518-34.718
					c-0.15-11.36-0.144-22.539-0.648-33.425c-0.02-0.686-0.092-1.347-0.149-2.013c-0.042-0.675-0.157-1.287-0.148-2.104
					c-0.006-1.363-0.011-2.722-0.016-4.077c0.003-2.713,0.008-5.41,0.115-8.11c0.028-0.676,0.065-1.352,0.122-2.032
					c0.027-0.345,0.061-0.655,0.117-1.096c0.069-0.475,0.162-0.995,0.328-1.405c0.179-0.404,0.37-0.737,0.756-0.914
					c0.436-0.152,0.786,0.054,1.121,0.281c0.338,0.252,0.659,0.639,0.959,1.037l0.659,0.92c0.761,1.081,1.52,2.127,2.401,3.024
					c0.441,0.444,0.907,0.856,1.411,1.189c0.239,0.155,0.552,0.358,0.692,0.38l0.929,0.192l1.889,0.392l1.913,0.221
					c1.27,0.196,2.557,0.143,3.831,0.2c0.638,0.017,1.275-0.055,1.912-0.077c0.635-0.049,1.272-0.035,1.903-0.138
					c1.263-0.17,2.527-0.283,3.769-0.56c4.986-0.945,9.781-2.57,14.383-4.488c4.614-1.903,9.075-4.042,13.491-6.152
					c2.211-1.057,4.381-2.103,6.631-3.114c1.104-0.533,2.283-0.884,3.416-1.333c1.15-0.402,2.324-0.715,3.479-1.074
					c9.372-2.478,18.803-2.624,27.397-5.001c1.061-0.331,2.127-0.629,3.17-0.982c1.024-0.4,2.066-0.748,3.065-1.185
					c0.982-0.471,1.989-0.887,2.943-1.394l1.412-0.794l0.704-0.395l0.353-0.197l0.126-0.07c-0.029,0.021,0.057-0.044,0.105-0.083
					c3.456-2.829,7.231-5.193,11.199-6.979c3.968-1.783,8.102-3.024,12.226-3.759c4.125-0.755,8.22-1.115,12.218-1.357
					c8.293-0.382,16.135-0.542,23.312-2.309c7.185-1.678,13.505-4.958,18.736-9.083c0.639-0.535,1.273-1.067,1.904-1.596
					l0.474-0.396c0.13-0.104,0.083-0.069,0.245-0.308l0.691-1.052c0.455-0.703,0.914-1.396,1.427-2.051
					c0.507-0.657,0.961-1.346,1.515-1.957c2.079-2.536,4.459-4.786,7.173-6.452c2.703-1.669,5.727-2.732,8.744-3.035
					c3.018-0.348,5.969-0.098,8.768,0.365c5.006,0.793,9.604,2.069,14.037,2.448c2.211,0.197,4.369,0.174,6.416-0.156
					c2.047-0.324,3.966-0.958,5.713-1.805l-0.027,0.016c6.056-3.584,11.928-5.718,17.033-7.271c1.285-0.368,2.513-0.751,3.701-1.064
					c1.192-0.304,2.333-0.594,3.422-0.871c2.178-0.558,4.155-1.009,5.916-1.442c3.52-0.866,6.187-1.543,7.949-2.082
					c0.885-0.263,1.552-0.46,1.998-0.593C933.399,25.772,933.621,25.694,933.615,25.678z"/>
			</g>
		</g>
	</g>
	<g>
		<path d="M951.139,251.366c1.109,75.055,1.695,150.117,3.529,225.15c1.055,42.389,4.081,84.732,6.425,127.086
			c0.661,11.885-1.014,14.902-15.056,19.178c-40.836,12.449-81.858,24.209-122.611,36.936
			c-47.971,14.992-96.783,25.662-146.264,33.434c-65.631,10.305-131.58,18.604-197.859,10.766
			c-35.873-4.238-71.478-12.559-106.592-21.576c-56.277-14.447-113.127-24.512-170.879-28.221
			c-47.316-3.033-94.729-4.301-142.1-6.418c-10.657-0.477-20.197,0.877-29.021,8.811c-9.299,8.375-20.831,4.129-22.665-8.732
			c-3.315-23.143-6.094-46.572-6.479-69.928c-0.745-44.889-0.234-89.812,0.807-134.701c1.592-68.707,3.825-137.406,6.272-206.085
			c1.758-49.08,4.584-98.099-0.696-147.166c-1.048-9.623,0.083-19.611,1.075-29.331C10.32,47.964,19.537,39.548,30.78,43.76
			c32.371,12.125,64.35,3.212,96.604,1.075c93.528-6.19,185.845-2.585,275.375,32.04c24.458,9.458,51.549,13.663,77.743,15.669
			c42.188,3.219,84.844,5.811,126.893,2.626c35.13-2.654,70.01-12.498,104.339-21.817c48.64-13.194,96.438-29.8,145.069-43.049
			c25.657-6.997,51.411-12.422,74.738-26.657c10.926-6.679,20.735,0.648,20.742,13.967c0.041,77.915,0.014,155.824,0.014,233.739
			C951.918,251.359,951.531,251.359,951.139,251.366z M932.334,26.988c-4.791,2.288-7.632,3.777-10.575,5.018
			c-8.961,3.757-17.723,8.286-26.967,10.905c-14.737,4.164-30.062,6.136-44.689,10.616c-27.813,8.521-55.14,18.791-82.987,27.167
			c-27.851,8.375-55.893,16.323-84.23,22.609c-26.05,5.784-52.526,12.14-78.936,12.843c-43.614,1.165-87.422-0.469-130.934-3.964
			c-25.719-2.061-51.604-7.92-76.351-15.717C361.916,85.526,327.76,71.788,291.473,68.5c-39.416-3.571-79.053-4.729-118.62-5.825
			c-19.584-0.538-39.754-1.248-58.725,2.854c-27.87,6.012-54.851,7.452-81.887-1.93c-8.064-2.799-8.438,0.345-7.638,7.293
			c1.861,16.289,4.067,32.619,4.48,48.984c0.711,28.718,0.725,57.477,0.015,86.201c-0.745,30.316-2.854,60.6-4.047,90.909
			c-1.475,37.734-3.288,75.476-3.764,113.224c-0.627,50.867-0.275,101.746-0.027,152.619c0.104,23.299,0.972,46.592,1.523,71.236
			c7.417-2.082,12.925-4.799,18.516-4.998c24.65-0.904,49.425-2.646,73.979-1.172c46.412,2.791,92.881,6.203,139.018,11.973
			c36.955,4.633,73.56,12.615,110.142,20.039c35.908,7.287,71.3,18.916,107.495,22.816c37.184,4.006,75.173,2.695,112.632,0.496
			c34.61-2.031,69.077-7.631,103.428-12.932c39.029-6.025,77.404-15.166,115.505-26.381c43.317-12.746,87.504-22.328,129.602-39.402
			c2.861-1.158,6.479-4.061,7.038-6.77c1.192-5.68,0.985-11.795,0.643-17.682c-2.097-35.922-4.889-71.809-6.487-107.758
			c-1.386-31.006-2.021-62.08-2.067-93.121c-0.192-96.858,0.034-193.71,0.11-290.568C932.348,68.748,932.334,48.895,932.334,26.988z
			"/>
		<g>
			<path fill="none" d="M951.139,251.366c1.109,75.055,1.695,150.117,3.529,225.15c1.055,42.389,4.081,84.732,6.425,127.086
				c0.661,11.885-1.014,14.902-15.056,19.178c-40.836,12.449-81.858,24.209-122.611,36.936
				c-47.971,14.992-96.783,25.662-146.264,33.434c-65.631,10.305-131.58,18.604-197.859,10.766
				c-35.873-4.238-71.478-12.559-106.592-21.576c-56.277-14.447-113.127-24.512-170.879-28.221
				c-47.316-3.033-94.729-4.301-142.1-6.418c-10.657-0.477-20.197,0.877-29.021,8.811c-9.299,8.375-20.831,4.129-22.665-8.732
				c-3.315-23.143-6.094-46.572-6.479-69.928c-0.745-44.889-0.234-89.812,0.807-134.701c1.592-68.707,3.825-137.406,6.272-206.085
				c1.758-49.08,4.584-98.099-0.696-147.166c-1.048-9.623,0.083-19.611,1.075-29.331C10.32,47.964,19.537,39.548,30.78,43.76
				c32.371,12.125,64.35,3.212,96.604,1.075c93.528-6.19,185.845-2.585,275.375,32.04c24.458,9.458,51.549,13.663,77.743,15.669
				c42.188,3.219,84.844,5.811,126.893,2.626c35.13-2.654,70.01-12.498,104.339-21.817c48.64-13.194,96.438-29.8,145.069-43.049
				c25.657-6.997,51.411-12.422,74.738-26.657c10.926-6.679,20.735,0.648,20.742,13.967c0.041,77.915,0.014,155.824,0.014,233.739
				C951.918,251.359,951.531,251.359,951.139,251.366z M932.334,26.988c-4.791,2.288-7.632,3.777-10.575,5.018
				c-8.961,3.757-17.723,8.286-26.967,10.905c-14.737,4.164-30.062,6.136-44.689,10.616c-27.813,8.521-55.14,18.791-82.987,27.167
				c-27.851,8.375-55.893,16.323-84.23,22.609c-26.05,5.784-52.526,12.14-78.936,12.843c-43.614,1.165-87.422-0.469-130.934-3.964
				c-25.719-2.061-51.604-7.92-76.351-15.717C361.916,85.526,327.76,71.788,291.473,68.5c-39.416-3.571-79.053-4.729-118.62-5.825
				c-19.584-0.538-39.754-1.248-58.725,2.854c-27.87,6.012-54.851,7.452-81.887-1.93c-8.064-2.799-8.438,0.345-7.638,7.293
				c1.861,16.289,4.067,32.619,4.48,48.984c0.711,28.718,0.725,57.477,0.015,86.201c-0.745,30.316-2.854,60.6-4.047,90.909
				c-1.475,37.734-3.288,75.476-3.764,113.224c-0.627,50.867-0.275,101.746-0.027,152.619c0.104,23.299,0.972,46.592,1.523,71.236
				c7.417-2.082,12.925-4.799,18.516-4.998c24.65-0.904,49.425-2.646,73.979-1.172c46.412,2.791,92.881,6.203,139.018,11.973
				c36.955,4.633,73.56,12.615,110.142,20.039c35.908,7.287,71.3,18.916,107.495,22.816c37.184,4.006,75.173,2.695,112.632,0.496
				c34.61-2.031,69.077-7.631,103.428-12.932c39.029-6.025,77.404-15.166,115.505-26.381
				c43.317-12.746,87.504-22.328,129.602-39.402c2.861-1.158,6.479-4.061,7.038-6.77c1.192-5.68,0.985-11.795,0.643-17.682
				c-2.097-35.922-4.889-71.809-6.487-107.758c-1.386-31.006-2.021-62.08-2.067-93.121c-0.192-96.858,0.034-193.71,0.11-290.568
				C932.348,68.748,932.334,48.895,932.334,26.988z"/>
			<g>
				<path d="M931.985,26.988c0.018,0,0.032,0.168,0.049,0.502c0.01,0.334,0.022,0.833,0.042,1.497
					c0.016,1.327,0.039,3.311,0.07,5.933c0.021,5.244,0.055,13.045,0.098,23.272c0.048,20.454,0.118,50.614,0.209,89.436
					c-0.438,38.803-0.35,86.25,0.204,141.326c0.257,27.529,0.373,56.953,0.351,88.144c0.133,15.591,0.269,31.623,0.407,48.08
					c0.223,8.229,0.448,16.561,0.677,24.996c0.11,4.221,0.223,8.465,0.334,12.736c0.139,4.27,0.149,8.572,0.408,12.889
					c0.903,17.271,1.841,34.951,2.898,53.021c0.58,9.033,1.168,18.164,1.762,27.393c0.303,4.613,0.605,9.25,0.912,13.912
					c0.29,4.662,0.66,9.338,0.863,14.064c0.137,4.732,0.08,9.494-1.018,14.258c-0.436,1.195-1.205,2.203-2.078,3.055
					c-0.853,0.885-1.841,1.613-2.872,2.271c-1.03,0.66-2.192,1.141-3.302,1.555l-3.364,1.301c-2.246,0.869-4.496,1.74-6.753,2.613
					c-2.26,0.865-4.506,1.785-6.813,2.547c-4.594,1.594-9.206,3.195-13.842,4.805c-18.646,6.125-37.896,11.502-57.465,16.926
					c-4.899,1.322-9.821,2.65-14.765,3.982c-4.942,1.33-9.91,2.65-14.872,4.055c-9.928,2.793-19.99,5.498-30.106,8.281
					c-20.252,5.514-40.987,10.432-62.104,15.23l-3.981,0.783c-1.329,0.264-2.675,0.443-4.013,0.67
					c-2.679,0.438-5.362,0.873-8.05,1.311c-5.371,0.896-10.763,1.795-16.172,2.697c-10.837,1.65-21.75,3.312-32.736,4.986
					c-5.498,0.814-11.014,1.633-16.548,2.453l-4.153,0.617l-4.174,0.529c-2.785,0.354-5.574,0.711-8.368,1.066
					c-2.794,0.359-5.593,0.719-8.396,1.078l-4.207,0.543c-1.405,0.17-2.819,0.27-4.23,0.408c-5.647,0.52-11.313,1.045-16.998,1.57
					c-22.766,1.426-45.838,2.352-69.2,2.244c-11.683,0.002-23.427-0.527-35.221-1.283c-2.942-0.264-5.891-0.525-8.843-0.789
					l-4.43-0.396c-1.476-0.166-2.946-0.381-4.422-0.568c-2.948-0.393-5.9-0.783-8.857-1.176c-2.943-0.463-5.876-1.021-8.821-1.531
					c-5.896-0.955-11.722-2.322-17.602-3.508c-2.934-0.621-5.848-1.332-8.779-1.994c-2.927-0.676-5.864-1.33-8.787-2.051
					c-11.713-2.801-23.451-5.709-35.288-8.4c-2.952-0.705-5.934-1.277-8.903-1.926c-2.979-0.619-5.941-1.283-8.941-1.867
					c-5.985-1.205-11.984-2.414-17.998-3.625c-12.023-2.4-24.104-4.814-36.233-7.236c-6.094-1.051-12.198-2.104-18.316-3.16
					c-3.061-0.506-6.11-1.115-9.189-1.543c-3.076-0.436-6.156-0.873-9.24-1.311c-6.17-0.852-12.332-1.822-18.539-2.596
					c-6.22-0.693-12.451-1.391-18.695-2.088c-3.122-0.352-6.246-0.705-9.374-1.059l-4.694-0.533l-4.708-0.438
					c-6.281-0.59-12.575-1.182-18.88-1.773c-3.152-0.301-6.309-0.6-9.467-0.9c-3.158-0.307-6.328-0.52-9.497-0.785
					c-6.338-0.514-12.688-1.027-19.052-1.543c-6.346-0.646-12.715-1.148-19.098-1.617c-6.385-0.451-12.78-0.9-19.188-1.354
					c-1.602-0.102-3.205-0.227-4.809-0.305l-4.811-0.148c-3.209-0.094-6.42-0.188-9.634-0.279c-3.212-0.152-6.435-0.049-9.657,0.008
					c-3.223,0.059-6.448,0.119-9.676,0.178c-12.911,0.412-25.869,1.076-38.883,1.605c-0.832,0.018-1.58,0.107-2.355,0.172
					c-0.771,0.053-1.542,0.258-2.313,0.377c-0.77,0.17-1.538,0.381-2.308,0.57l-2.305,0.699l-4.635,1.529l-2.345,0.75l-3.25,0.959
					l-0.472,0.137l-0.234,0.07l-0.059,0.018c-0.008-0.012-0.004-0.039-0.006-0.057l-0.002-0.125l-0.021-0.986l-0.042-1.965
					l-0.044-2.494l-0.079-4.898c-0.04-3.27-0.081-6.539-0.122-9.812c-0.222-12.838-0.443-25.637-0.664-38.395
					c-0.322-12.764-0.414-25.48-0.589-38.154c-0.303-25.348-0.841-50.52-0.564-75.498c0.283-12.502,0.565-24.951,0.847-37.352
					c0.064-3.1,0.128-6.195,0.192-9.287c0.066-3.094,0.091-6.184,0.243-9.27c0.225-6.17,0.449-12.328,0.674-18.473
					c0.416-12.289,0.69-24.529,0.888-36.72c0.312-12.186,0.467-24.323,0.403-36.415c0.753-24.145,2.409-53.064,3.381-79.005
					c0.277-6.485,0.547-12.788,0.804-18.788c0.251-6,0.603-11.694,0.646-16.975c0.227-10.555,0.49-19.419,0.807-25.632
					c-0.026-2.334-0.054-4.741-0.082-7.215c-0.025-2.474-0.018-5.013-0.121-7.609c-0.135-5.194-0.275-10.622-0.42-16.224
					c-0.111-5.601-0.227-11.376-0.343-17.265c-0.024-1.472-0.05-2.951-0.074-4.438l-0.035-2.232l-0.113-2.229
					c-0.153-2.976-0.307-5.972-0.461-8.982c-0.885-12.038-2.292-24.277-3.62-36.298c-0.161-1.493-0.344-3.014-0.406-4.598
					c-0.039-0.787-0.02-1.614,0.075-2.474c0.14-0.866,0.34-1.842,1.063-2.761c0.201-0.213,0.409-0.425,0.629-0.613
					c0.243-0.153,0.496-0.299,0.75-0.433c0.5-0.187,1.035-0.345,1.493-0.354c0.964-0.096,1.785,0.052,2.588,0.199
					c1.573,0.325,3.036,0.888,4.384,1.321c5.459,1.931,10.964,3.343,16.35,4.4c10.781,2.131,21.792,2.593,32.653,2.029
					c5.434-0.325,10.835-0.905,16.194-1.681c5.365-0.764,10.646-1.848,15.943-2.894c10.647-2.152,21.432-2.858,32.087-3.014
					c10.667-0.14,21.231,0.231,31.712,0.498c5.242,0.134,10.466,0.267,15.67,0.399c5.204,0.127,10.388,0.29,15.552,0.496
					c5.163,0.192,10.308,0.384,15.432,0.575c2.562,0.101,5.118,0.201,7.669,0.302c2.551,0.134,5.097,0.268,7.637,0.402
					c10.158,0.575,20.248,0.917,30.227,1.722c4.995,0.337,9.968,0.673,14.919,1.007c4.944,0.291,9.903,0.685,14.811,1.293
					c19.594,2.946,37.969,8.453,55.664,14.279c17.71,5.828,34.802,12.133,52.069,17.092c8.617,2.537,17.301,4.611,25.979,6.521
					c2.182,0.426,4.36,0.85,6.537,1.273l3.266,0.628l3.279,0.532l6.556,1.046l6.579,0.839c2.188,0.308,4.39,0.503,6.59,0.696
					c2.2,0.188,4.395,0.423,6.6,0.57c4.413,0.26,8.826,0.52,13.243,0.78c4.416,0.246,8.836,0.493,13.263,0.74
					c2.214,0.106,4.426,0.271,6.646,0.323c2.22,0.062,4.439,0.123,6.663,0.185c7.271,0.247,14.406,0.489,21.467,0.729
					c3.526,0.175,7.042,0.153,10.543,0.218c3.501,0.054,6.991,0.107,10.479,0.16c3.486,0.062,6.971,0.123,10.457,0.186
					c1.744,0.023,3.489,0.087,5.236,0.08c1.747-0.016,3.496-0.032,5.248-0.049c7.01-0.054,14.067-0.108,21.238-0.164
					c1.793-0.012,3.592-0.024,5.398-0.037c1.797-0.084,3.602-0.169,5.415-0.254c1.812-0.105,3.639-0.132,5.467-0.303
					c1.828-0.172,3.666-0.345,5.515-0.519c7.396-0.696,14.921-1.869,22.654-3.191c3.859-0.722,7.776-1.456,11.748-2.262
					c3.967-0.84,8.004-1.656,12.101-2.583c8.194-1.807,16.693-3.711,25.47-5.873c24.473-6.021,48.188-12.671,70.231-19.205
					c1.38-0.401,2.753-0.801,4.12-1.197c1.358-0.421,2.711-0.84,4.058-1.257c2.69-0.836,5.354-1.663,7.99-2.481
					c2.638-0.817,5.245-1.626,7.822-2.425c2.576-0.803,5.104-1.667,7.608-2.481c10.007-3.314,19.497-6.458,28.341-9.388
					c2.217-0.717,4.402-1.423,6.556-2.119c2.165-0.667,4.298-1.325,6.399-1.973c4.201-1.299,8.274-2.56,12.223-3.78
					c0.99-0.294,1.955-0.635,2.942-0.886c0.987-0.255,1.965-0.507,2.935-0.758c1.939-0.502,3.847-0.995,5.72-1.48
					c1.864-0.521,3.729-0.877,5.55-1.27c1.82-0.388,3.608-0.769,5.364-1.143c7.007-1.512,13.512-2.722,19.347-4.274
					c1.465-0.363,2.896-0.718,4.292-1.063c0.35-0.087,0.695-0.173,1.041-0.259c0.336-0.111,0.67-0.223,1.002-0.333
					c0.664-0.22,1.318-0.438,1.967-0.652c1.294-0.43,2.554-0.849,3.779-1.256c1.199-0.487,2.365-0.962,3.496-1.422
					c1.132-0.462,2.229-0.911,3.293-1.347c1.051-0.468,2.068-0.921,3.054-1.359c1.971-0.876,3.808-1.692,5.507-2.447
					c1.703-0.754,3.271-1.446,4.698-2.078c1.406-0.658,2.676-1.252,3.808-1.781c4.511-2.188,6.806-3.363,6.806-3.363
					c-0.027-0.059-0.626,0.182-1.781,0.711c-1.148,0.542-2.863,1.352-5.131,2.424c-1.131,0.523-2.4,1.111-3.806,1.762
					c-1.43,0.633-2.996,1.326-4.7,2.08c-1.697,0.762-3.53,1.585-5.498,2.468c-0.982,0.443-1.997,0.902-3.046,1.376
					c-1.061,0.441-2.152,0.896-3.278,1.366c-1.127,0.468-2.287,0.95-3.481,1.446c-1.22,0.417-2.474,0.846-3.762,1.285
					c-0.645,0.221-1.297,0.443-1.958,0.67c-0.331,0.112-0.664,0.227-0.998,0.341c-0.344,0.089-0.688,0.179-1.037,0.269
					c-1.393,0.359-2.817,0.729-4.278,1.105c-5.817,1.612-12.311,2.897-19.298,4.498c-1.748,0.396-3.53,0.799-5.347,1.211
					c-1.812,0.416-3.672,0.796-5.526,1.343c-1.861,0.51-3.758,1.028-5.686,1.556c-0.964,0.264-1.936,0.529-2.916,0.798
					c-0.981,0.264-1.943,0.618-2.928,0.927c-3.927,1.279-7.979,2.6-12.156,3.961c-2.09,0.68-4.211,1.37-6.362,2.07
					c-2.142,0.73-4.314,1.472-6.519,2.223c-8.871,2.855-18.22,5.93-28.035,9.194c-2.454,0.815-4.938,1.642-7.452,2.478
					c-2.524,0.8-5.08,1.609-7.665,2.429c-2.583,0.823-5.195,1.656-7.839,2.499c-2.64,0.851-5.312,1.705-8.034,2.5
					c-21.696,6.615-45.369,13.543-71.133,19.757c-8.457,1.916-16.547,3.64-24.342,5.31c-7.79,1.69-15.3,3.245-22.628,4.645
					c-14.652,2.783-28.652,4.779-42.688,5.193c-7.008,0.141-13.996,0.281-21.059,0.423c-3.531,0.063-7.082,0.128-10.663,0.192
					c-3.581-0.047-7.192-0.094-10.845-0.142c-7.308-0.113-14.783-0.215-22.519-0.416c-7.729-0.369-15.719-0.781-24.062-1.25
					c-8.354-0.241-16.921-0.937-25.686-1.488c-4.38-0.293-8.807-0.59-13.272-0.889c-2.234-0.118-4.475-0.402-6.726-0.6
					c-2.249-0.231-4.515-0.396-6.77-0.729c-2.258-0.298-4.524-0.597-6.799-0.896c-2.271-0.324-4.535-0.733-6.813-1.098l-3.419-0.564
					l-3.411-0.662c-2.274-0.451-4.556-0.902-6.841-1.354c-9.106-1.977-18.223-4.266-27.271-6.871
					c-18.087-5.272-35.871-11.703-53.562-17.262c-17.668-5.585-35.304-10.3-52.551-12.592c-8.061-1.183-17.154-1.635-26.812-2.36
					c-2.415-0.17-4.868-0.342-7.354-0.517c-2.484-0.178-5.002-0.363-7.554-0.458c-5.1-0.239-10.311-0.482-15.593-0.729
					c-10.561-0.573-21.426-0.854-32.26-1.276c-10.838-0.408-21.65-0.815-32.129-1.21c-10.479-0.351-21.033-0.808-31.652-0.734
					c-10.609,0.088-21.325,0.747-31.87,2.876c-5.29,1.044-10.612,2.146-15.999,2.938c-5.386,0.805-10.818,1.428-16.291,1.811
					c-10.943,0.678-22.071,0.396-33.069-1.498c-5.483-0.994-10.929-2.344-16.243-4.146c-1.352-0.415-2.644-0.907-3.933-1.214
					c-0.324-0.096-0.646-0.144-0.966-0.198c-0.324-0.07-0.638-0.094-0.947-0.105c-0.625-0.048-1.206,0.04-1.627,0.265
					c-0.854,0.385-1.114,1.709-1.136,3.014c-0.025,1.323,0.11,2.703,0.263,4.084c0.632,5.572,1.308,11.151,1.905,16.77
					c0.303,2.807,0.605,5.619,0.909,8.435c0.246,2.823,0.494,5.651,0.741,8.483c0.294,2.828,0.397,5.678,0.54,8.527l0.213,4.279
					c0.072,1.427,0.154,2.855,0.15,4.282c0.075,5.71,0.151,11.437,0.228,17.179c0.085,5.742,0.17,11.501,0.256,17.274
					c0.026,2.888,0.134,5.778,0.1,8.673c-0.021,2.896-0.042,5.794-0.063,8.697c-0.166,5.809-0.294,11.632-0.394,17.471
					c-0.043,2.919-0.086,5.842-0.129,8.77c-0.062,2.926-0.009,5.859-0.159,8.791c-0.393,11.734-0.786,23.529-1.182,35.383
					c-0.345,11.861-0.892,23.75-1.412,35.708c-0.295,5.977-0.591,11.967-0.888,17.972c-0.273,6.007-0.577,12.027-0.921,18.06
					c-0.373,12.074-0.746,24.203-1.121,36.386c-0.252,12.18-0.505,24.413-0.759,36.697c-0.153,6.142-0.307,12.296-0.46,18.464
					c-0.113,3.082-0.1,6.172-0.129,9.264c-0.027,3.094-0.056,6.189-0.084,9.287c-0.13,12.395-0.336,24.84-0.647,37.336
					c0.308,24.965,0.419,50.139,0.298,75.484c-0.037,12.674-0.156,25.395,0.082,38.143c0.104,6.375,0.207,12.76,0.31,19.154
					c0.144,6.396,0.378,12.803,0.611,19.219c0.034,3.273,0.067,6.545,0.102,9.812l0.062,4.9l0.033,2.41l0.001,0.582l0.002,0.301
					c-0.02,0.076,0.042,0.043,0.087,0.031l0.14-0.037l1.59-0.453l2.322-0.729l4.658-1.516l2.365-0.701
					c0.805-0.197,1.604-0.412,2.416-0.588c0.826-0.127,1.635-0.334,2.475-0.391c0.834-0.064,1.683-0.156,2.484-0.168
					c13.002-0.461,25.968-1.053,38.907-1.441c3.236-0.055,6.471-0.109,9.702-0.168c3.232-0.055,6.461-0.162,9.689-0.02
					c3.229,0.082,6.455,0.162,9.679,0.244l4.834,0.119c1.608,0.064,3.21,0.178,4.814,0.266c6.415,0.367,12.819,0.736,19.212,1.104
					c6.394,0.357,12.775,0.721,19.141,1.189c6.363,0.574,12.715,1.148,19.055,1.723c3.169,0.287,6.34,0.52,9.5,0.838
					c3.161,0.311,6.319,0.621,9.475,0.932c6.312,0.598,12.611,1.191,18.898,1.787l4.715,0.432l4.701,0.523
					c3.133,0.346,6.262,0.689,9.389,1.035c6.256,0.676,12.499,1.35,18.73,2.02c6.223,0.748,12.411,1.697,18.602,2.527
					c3.095,0.428,6.186,0.854,9.273,1.281c3.09,0.418,6.145,1.02,9.215,1.52c6.131,1.051,12.25,2.1,18.356,3.145
					c12.12,2.533,24.188,5.055,36.199,7.564c6.007,1.246,11.998,2.49,17.978,3.73c2.992,0.598,5.972,1.277,8.953,1.912
					c2.977,0.66,5.969,1.246,8.924,1.959c11.854,2.73,23.599,5.646,35.305,8.416c2.923,0.715,5.854,1.359,8.777,2.023
					c2.928,0.648,5.841,1.346,8.768,1.953c5.863,1.15,11.683,2.477,17.553,3.381c2.928,0.512,5.845,1.078,8.77,1.551
					c2.937,0.402,5.866,0.807,8.794,1.207c1.464,0.195,2.924,0.418,4.391,0.592l4.407,0.42c2.938,0.283,5.871,0.564,8.801,0.846
					c11.741,0.836,23.444,1.457,35.1,1.525c23.301,0.246,46.372-0.627,69.082-2.365c5.666-0.533,11.314-1.066,16.948-1.598
					c1.406-0.139,2.814-0.238,4.218-0.406l4.199-0.541c2.798-0.355,5.592-0.713,8.38-1.068c2.789-0.352,5.573-0.701,8.354-1.053
					l4.167-0.521l4.15-0.611c5.529-0.812,11.04-1.623,16.533-2.432c5.496-0.779,10.963-1.664,16.416-2.502
					c5.448-0.861,10.895-1.658,16.295-2.561c5.389-0.947,10.76-1.895,16.109-2.834c2.677-0.473,5.347-0.943,8.012-1.414
					c1.331-0.246,2.669-0.447,3.989-0.73l3.958-0.854c21.188-4.174,41.946-8.936,62.151-14.51
					c10.096-2.814,20.104-5.602,30.024-8.518c4.953-1.465,9.906-2.852,14.834-4.248c4.925-1.404,9.828-2.801,14.713-4.193
					c19.593-5.328,38.845-10.561,57.487-16.531c4.635-1.568,9.245-3.131,13.837-4.686c2.31-0.742,4.554-1.643,6.812-2.486
					c2.256-0.854,4.506-1.703,6.751-2.553l3.363-1.271c1.162-0.43,2.147-0.826,3.106-1.428c0.946-0.594,1.87-1.266,2.64-2.053
					c0.8-0.76,1.459-1.654,1.787-2.549c0.188-0.389,0.251-1.018,0.342-1.586l0.265-1.721c0.075-0.574,0.21-1.141,0.236-1.725
					l0.103-1.746c0.201-2.318,0.113-4.668,0.097-7.004c-2.209-37.678-4.331-73.852-6.354-108.379
					c-0.304-4.316-0.359-8.619-0.54-12.891c-0.153-4.273-0.305-8.52-0.456-12.74c-0.303-8.441-0.601-16.777-0.896-25.008
					c-0.24-16.469-0.475-32.512-0.701-48.111c-0.101-31.191-0.171-60.615-0.119-88.146c0.534-57.157,0.121-102.524,0.544-141.328
					c0.213-38.821,0.378-68.981,0.49-89.436c0.021-10.228,0.041-18.028,0.053-23.272c-0.012-2.622-0.021-4.605-0.027-5.933
					c-0.012-0.664-0.021-1.163-0.026-1.497C932.012,27.156,932,26.988,931.985,26.988z"/>
			</g>
			<g>
				<path d="M951.145,251.715c0-0.024,0.347-0.051,1.157-0.08l0.285-0.011l-0.008-0.271c-0.21-7.026-0.206-51.068-0.431-125.353
					c0.21-20.346,0.286-42.957,0.239-67.702c-0.052-12.373-0.105-25.278-0.163-38.701c-0.006-1.678-0.02-3.365-0.238-5.037
					c-0.134-0.833-0.224-1.676-0.475-2.487l-0.32-1.229l-0.456-1.188c-1.197-3.155-3.538-5.999-6.689-7.365l-1.197-0.46
					l-1.257-0.266c-0.415-0.118-0.849-0.105-1.277-0.133c-0.429-0.005-0.856-0.084-1.285-0.008l-1.287,0.132
					c-0.429,0.051-0.842,0.196-1.264,0.289c-0.854,0.16-1.644,0.55-2.457,0.857c-1.562,0.748-3.08,1.666-4.649,2.553
					c-1.559,0.891-3.123,1.784-4.694,2.683c-1.548,0.944-3.201,1.701-4.849,2.487c-1.646,0.787-3.301,1.579-4.961,2.373
					c-0.822,0.418-1.679,0.763-2.536,1.104c-0.856,0.347-1.715,0.694-2.575,1.043c-1.721,0.696-3.449,1.395-5.184,2.097
					c-3.538,1.21-7.08,2.521-10.702,3.672c-3.639,1.091-7.278,2.304-11.002,3.304c-7.418,2.129-15.001,4.082-22.657,6.168
					c-3.843,0.996-7.667,2.174-11.542,3.272c-3.871,1.115-7.771,2.238-11.697,3.369c-15.742,4.396-31.795,9.416-48.328,14.379
					c-8.269,2.483-16.644,5-25.124,7.547c-4.241,1.269-8.51,2.544-12.805,3.828c-4.291,1.294-8.654,2.442-13.021,3.68
					c-8.728,2.469-17.559,4.967-26.491,7.494c-8.963,2.418-18.025,4.87-27.21,7.273c-18.369,4.776-37.275,9.287-56.881,12.173
					c-2.451,0.345-4.899,0.761-7.372,1.05c-2.477,0.256-4.957,0.512-7.445,0.769c-4.971,0.605-9.994,0.797-15.032,1.14
					c-5.037,0.381-10.109,0.498-15.204,0.664c-2.548,0.066-5.101,0.202-7.661,0.213c-2.56,0.016-5.126,0.032-7.697,0.048
					c-20.58,0.099-41.527-0.771-62.79-2.077c-5.316-0.341-10.649-0.736-16.003-1.166c-2.678-0.213-5.359-0.428-8.048-0.642
					c-2.688-0.251-5.381-0.503-8.079-0.755c-10.783-1.127-21.614-2.672-32.425-4.805c-10.815-2.101-21.563-5.012-32.133-8.697
					c-10.58-3.658-21.06-7.691-31.979-10.742c-21.456-7.165-43.84-12.634-66.795-16.508c-22.959-3.883-46.481-6.181-70.325-7.223
					c-23.825-1.471-48.02-1.59-72.453-0.778c-6.109,0.165-12.231,0.52-18.373,0.774c-6.141,0.3-12.291,0.722-18.463,1.078
					c-12.317,0.768-24.625,2.538-37.087,3.845c-6.228,0.634-12.492,1.142-18.798,1.368c-6.307,0.178-12.651,0.001-18.979-0.65
					c-6.334-0.64-12.605-1.995-18.74-3.828l-4.567-1.508l-2.167-0.664c-0.734-0.117-1.466-0.29-2.203-0.349
					c-2.943-0.226-5.957,0.451-8.383,2.162c-2.431,1.682-4.385,4.092-5.637,6.854c-1.293,2.771-1.926,5.755-2.211,8.89
					c-0.621,6.37-1.281,12.732-1.311,19.089c-0.064,3.186,0.154,6.332,0.445,9.504c0.283,3.22,0.566,6.442,0.85,9.669
					c0.26,3.228,0.609,6.453,0.787,9.693c0.159,3.24,0.318,6.484,0.478,9.732c1.472,25.979,1.103,52.223,0.221,78.596
					c-0.503,13.182-1.007,26.415-1.514,39.698c-0.461,13.284-0.925,26.619-1.39,40.005c-2.717,53.451-2.939,107.761-5.44,162.63
					c-0.442,13.453-0.623,26.873-0.817,40.248c-0.074,6.688-0.148,13.365-0.222,20.031c-0.028,3.334-0.056,6.664-0.084,9.992
					c0.041,3.328,0.082,6.652,0.123,9.975c0.166,13.287,0.332,26.525,0.497,39.717c0.033,3.297,0.067,6.592,0.102,9.883l0.043,4.934
					c0.004,1.646,0.023,3.287,0.117,4.922c0.139,3.271,0.278,6.541,0.417,9.807l0.197,4.896c0.081,1.631,0.248,3.258,0.366,4.885
					c0.449,6.521,0.738,13.045,1.449,19.527c0.311,3.244,0.621,6.486,0.931,9.727c0.317,3.238,0.745,6.463,1.114,9.689
					c0.396,3.221,0.743,6.465,1.185,9.654c0.46,3.133,1.646,6.195,3.722,8.584c1.074,1.135,2.294,2.191,3.754,2.805
					c0.351,0.184,0.708,0.35,1.094,0.441l1.132,0.342c0.782,0.086,1.559,0.291,2.354,0.229c1.591,0.068,3.151-0.363,4.653-0.863
					c1.463-0.625,2.881-1.381,4.131-2.383c1.275-0.951,2.444-2.1,3.768-3.025c1.284-0.982,2.669-1.824,4.075-2.613
					c2.844-1.531,5.917-2.605,9.063-3.283c3.156-0.646,6.375-0.918,9.584-0.953c3.214-0.018,6.409,0.146,9.604,0.215
					c12.779,0.342,25.508,0.525,38.188,0.49c25.319,0.846,55.63,2.365,82.861,3.719c3.403,0.174,6.759,0.346,10.051,0.514
					c1.646,0.086,3.276,0.172,4.888,0.256c1.611,0.127,3.205,0.252,4.778,0.377c6.293,0.52,12.27,0.998,17.796,1.508
					c5.511,0.648,10.58,1.246,15.083,1.775c2.249,0.281,4.357,0.533,6.304,0.809c1.94,0.312,3.725,0.604,5.337,0.863
					c4.875,0.537,10.057,1.109,15.483,1.707c5.404,0.771,11.053,1.576,16.882,2.406c1.457,0.213,2.925,0.43,4.403,0.646
					c1.473,0.25,2.956,0.5,4.448,0.754c2.983,0.52,6.004,1.045,9.054,1.576c3.048,0.543,6.132,1.059,9.225,1.648
					c3.086,0.621,6.192,1.248,9.313,1.879c3.12,0.637,6.254,1.275,9.396,1.914c3.141,0.641,6.26,1.404,9.392,2.105
					c3.129,0.719,6.255,1.438,9.372,2.152c1.558,0.363,3.112,0.729,4.664,1.09c1.545,0.391,3.086,0.779,4.624,1.17
					c6.143,1.572,12.219,3.129,18.168,4.652c5.93,1.557,11.731,3.076,17.348,4.551c11.239,2.906,22.475,5.521,33.665,7.988
					c11.216,2.338,22.381,4.588,33.559,6.291c11.155,1.828,22.311,3.148,33.404,4.152c5.559,0.396,11.089,0.881,16.618,1.068
					c2.764,0.109,5.519,0.293,8.274,0.342c2.755,0.055,5.504,0.109,8.249,0.166c2.743,0.076,5.484,0.016,8.221,0.012
					c2.736-0.029,5.467,0.004,8.19-0.07c5.449-0.156,10.881-0.229,16.283-0.521c10.812-0.416,21.523-1.248,32.14-2.141
					c21.221-1.949,42.021-4.688,62.352-8.021c20.435-2.791,40.192-5.727,59.418-9.16c19.216-3.49,37.902-7.406,56.229-11.795
					c18.298-4.502,36.221-9.496,53.919-15.061c17.729-5.48,35.39-11.041,53.166-16.766c14.556-4.641,28.616-8.902,42.633-13.137
					c7.015-2.098,14.016-4.189,21.064-6.297c3.521-1.07,7.109-2.027,10.505-3.283c3.322-1.287,6.822-2.799,8.307-5.74
					c1.506-2.938,1.297-6.836,1.157-10.57c-0.206-3.824-0.415-7.686-0.626-11.592c-0.431-7.811-0.869-15.805-1.321-24.045
					c-0.476-8.238-0.964-16.725-1.471-25.52c-0.479-8.799-0.975-17.91-1.489-27.396c-0.446-6.604-0.678-13.184-0.951-19.705
					c-0.248-6.521-0.494-12.988-0.738-19.383c-0.211-12.787-0.417-25.281-0.615-37.342c-0.321-24.123-0.62-46.517-0.881-66.06
					c-0.12-39.069-0.358-69.386-0.668-89.935c-0.289-20.55-0.573-31.331-0.573-31.331c-0.064,0.001-0.102,0.676-0.111,2.008
					c-0.011,1.333,0.003,3.323,0.039,5.955c0.1,5.265,0.248,13.097,0.442,23.371c0.402,20.547,0.996,50.859,1.763,89.919
					c0.091,19.543,0.474,41.273,0.996,65.061c0.277,11.893,0.567,24.301,0.87,37.209c0.211,6.451,0.522,13.023,0.787,19.721
					c0.289,6.697,0.507,13.52,0.941,20.451c0.348,9.082,0.703,17.752,1.104,26.102c0.478,8.346,0.937,16.373,1.383,24.188
					c0.491,7.809,0.969,15.4,1.438,22.875c0.245,3.734,0.488,7.441,0.731,11.131c0.114,1.846,0.263,3.68,0.351,5.525
					c0.092,1.842,0.146,3.691-0.049,5.545c-0.183,1.838-0.635,3.723-1.68,5.318c-1.031,1.605-2.57,2.797-4.184,3.723
					c-1.615,0.947-3.346,1.643-5.08,2.293c-1.739,0.643-3.51,1.211-5.276,1.756c-7.082,2.166-14.238,4.355-21.562,6.596
					c-14.654,4.461-30.027,8.996-46.846,13.895c-16.748,5.123-34.459,10.539-52.698,16.117
					c-18.231,5.646-37.157,10.918-56.322,15.629c-19.174,4.68-38.592,8.729-57.725,12.322c-4.79,0.869-9.557,1.734-14.295,2.596
					c-4.75,0.785-9.471,1.57-14.156,2.348c-9.368,1.553-18.61,2.947-27.653,4.324c-16.98,2.449-37.772,5.406-59.886,7.596
					c-11.059,1.066-22.44,1.982-33.825,2.449c-5.689,0.301-11.381,0.387-17.023,0.49c-2.82,0.064-5.632-0.006-8.424-0.008
					c-2.793-0.029-5.569-0.012-8.322-0.137c-2.752-0.078-5.509-0.154-8.271-0.23c-2.763-0.068-5.525-0.273-8.296-0.404
					c-5.543-0.229-11.09-0.752-16.659-1.186c-11.123-1.07-22.298-2.439-33.478-4.271c-11.198-1.709-22.389-3.92-33.646-6.154
					c-11.23-2.361-22.522-4.809-33.84-7.457c-11.271-2.814-22.612-5.646-34.023-8.498c-2.854-0.689-5.7-1.451-8.578-2.088
					c-2.875-0.65-5.754-1.305-8.637-1.959c-5.766-1.311-11.543-2.648-17.381-3.787c-2.914-0.596-5.832-1.189-8.754-1.785
					c-2.924-0.59-5.845-1.219-8.793-1.719c-5.887-1.057-11.791-2.115-17.713-3.176c-5.943-0.918-11.904-1.84-17.882-2.762
					l-4.488-0.676l-4.509-0.57c-3.008-0.379-6.02-0.76-9.036-1.141c-24.099-3.438-48.653-5.24-73.507-5.988
					c-24.838-1.008-49.904-2.145-75.22-3.475c-12.663-0.4-25.384-0.805-38.161-1.209c-3.194-0.084-6.408-0.256-9.53-0.238
					c-3.138,0.033-6.252,0.309-9.276,0.938c-3.012,0.666-5.926,1.703-8.616,3.18c-1.331,0.764-2.642,1.57-3.858,2.52l-0.919,0.701
					l-0.881,0.756c-0.554,0.482-1.244,1.043-1.919,1.588c-1.345,1.096-2.897,1.955-4.523,2.662
					c-1.677,0.586-3.439,1.086-5.278,1.035c-0.913,0.072-1.821-0.137-2.73-0.24c-0.444-0.115-0.886-0.25-1.327-0.379
					c-0.449-0.109-0.869-0.293-1.281-0.498c-1.712-0.705-3.148-1.904-4.397-3.201c-2.419-2.713-3.759-6.129-4.303-9.531
					c-0.492-3.275-0.867-6.461-1.3-9.701c-0.404-3.229-0.864-6.455-1.211-9.699c-0.334-3.248-0.668-6.498-1.003-9.752
					c-0.75-6.496-1.059-13.057-1.493-19.607c-3.35-52.426-0.523-105.643-0.229-159.496C3.964,385.364,5.07,331.08,6.371,277.577
					c0.641-13.382,1.182-26.716,1.65-40.001c0.553-13.283,1.068-26.515,1.481-39.695c0.802-26.356,1.013-52.539-0.448-78.415
					c-0.127-3.237-0.254-6.471-0.381-9.7c-0.146-3.229-0.468-6.441-0.698-9.658c-0.257-3.215-0.513-6.427-0.769-9.634
					c-0.274-3.236-0.475-6.498-0.389-9.735c0.075-6.483,0.779-12.892,1.431-19.259c0.304-3.212,1.002-6.495,2.413-9.471
					c1.373-2.988,3.524-5.663,6.277-7.551c2.742-1.923,6.215-2.705,9.521-2.433c0.827,0.068,1.64,0.257,2.457,0.395l2.357,0.726
					l4.482,1.481c6.021,1.799,12.18,3.128,18.416,3.743c6.231,0.627,12.492,0.782,18.731,0.576
					c6.241-0.254,12.457-0.795,18.65-1.473c12.408-1.273,24.771-2.98,37.173-3.67c6.183-0.316,12.344-0.695,18.495-0.953
					c6.153-0.213,12.284-0.526,18.404-0.656c24.476-0.672,48.695-0.505,72.591,0.655c23.904,0.967,47.485,3.362,70.508,7.266
					c23.023,3.896,45.479,9.307,67.15,16.112c10.851,3.355,21.369,7.613,31.842,11.348c10.45,3.76,21.136,6.678,31.905,8.732
					c10.764,2.088,21.562,3.535,32.316,4.538c2.691,0.22,5.377,0.438,8.059,0.657c2.688,0.18,5.371,0.36,8.048,0.54
					c5.354,0.359,10.688,0.681,16.003,0.948c21.231,1.401,42.128,2.41,62.656,2.458c2.564,0.003,5.126,0.006,7.68,0.009
					c2.555,0.007,5.1-0.109,7.642-0.158c5.081-0.129,10.144-0.209,15.166-0.553c5.023-0.306,10.041-0.461,14.987-1.03
					c2.479-0.239,4.951-0.478,7.417-0.715c2.463-0.271,4.906-0.672,7.352-0.999c19.55-2.754,38.447-7.165,56.808-11.912
					c9.18-2.389,18.24-4.845,27.195-7.287c8.914-2.572,17.727-5.115,26.436-7.628c4.351-1.279,8.695-2.468,12.974-3.803
					c4.28-1.322,8.535-2.638,12.766-3.943c8.456-2.618,16.809-5.202,25.054-7.755c16.502-5.09,32.524-10.208,48.276-14.67
					c3.928-1.145,7.829-2.281,11.701-3.41c3.879-1.108,7.705-2.294,11.553-3.296c7.672-2.099,15.247-4.046,22.641-6.149
					c3.719-0.99,7.332-2.183,10.957-3.253c3.604-1.128,7.117-2.41,10.637-3.589c1.724-0.684,3.438-1.364,5.146-2.042
					c0.854-0.339,1.706-0.677,2.558-1.014c0.854-0.332,1.702-0.667,2.519-1.072c1.647-0.771,3.29-1.538,4.924-2.303
					c1.637-0.762,3.28-1.493,4.816-2.41c1.627-0.891,3.243-1.776,4.851-2.656c0.81-0.442,1.617-0.884,2.421-1.323l1.291-0.681
					l0.646-0.335l0.686-0.263l1.367-0.519c0.473-0.13,0.955-0.232,1.431-0.348l0.715-0.165l0.736-0.07
					C938.53,0.07,939.018,0.001,939.51,0c1.98,0.008,3.941,0.497,5.695,1.367c1.758,0.893,3.185,2.248,4.373,3.718
					c0.535,0.779,1.102,1.539,1.484,2.389c0.467,0.814,0.769,1.686,1.084,2.548c0.325,0.859,0.474,1.761,0.714,2.635
					c0.13,0.891,0.279,1.78,0.361,2.668c0.033,0.884,0.097,1.792,0.101,2.647c-0.003,0.852-0.005,1.699-0.008,2.545
					c-0.017,13.524-0.031,26.362-0.048,38.599c-0.006,24.472,0.001,46.539-0.2,66.885c-0.404,74.284-0.611,118.326-0.472,125.353
					l0.006,0.287l-0.299,0.012c-0.406,0.015-0.694,0.025-0.884,0.033C951.23,251.694,951.145,251.705,951.145,251.715z"/>
			</g>
		</g>
	</g>
</g>
<path stroke="#000000" stroke-width="0.25" stroke-miterlimit="10" d="M362.098,68.68c-0.103,19.366-0.283,38.551-0.418,57.647
	c-0.125,19.083,0.044,38.08-0.125,56.966c-0.979,18.85-0.766,37.685-0.31,56.506c-0.024,18.791-0.79,37.489-0.123,56.276
	c-0.228,17.167-0.975,34.282-0.265,51.506c-0.252,17.149-0.384,34.302,0.479,51.537c-0.425,17.137-0.39,34.316-0.36,51.498
	c-0.397,17.139-0.061,34.338-0.616,51.496c-1.064,28.27-9.047,56.387-11.264,84.734c-1.499,25.748,2.073,51.771,2.349,77.66
	l-26.589,3.568c0.71-19.256,1.47-38.539,2.863-57.795c0.637-19.289,2.938-38.49,3.106-57.793c1.116-22.74,0.951-45.545,2.067-68.285
	c0.422-22.783,0.656-45.562,1.849-68.285c0.09-22.789,1.487-45.512,1.847-68.282c0.311-22.776,0.786-45.541,1.056-68.305
	c0.986-29.007,0.679-58.066,0.206-84.551c-0.86-26.525-0.545-50.376-0.601-69.11c4.078-31.471,5.504-47.619,1.021-55.923
	L362.098,68.68z"/>
<path stroke="#000000" stroke-width="0.25" stroke-miterlimit="10" d="M668.697,101.825c1.927,22.394,4.168,44.741,5.019,67.21
	c-0.066,24.074-0.23,48.155-0.025,72.276c-0.14,24.097-0.497,48.191-1.406,72.246c-0.62,29.053-2.191,58.05-3.708,87.064
	c-1.021,29.035-2.88,58.012-3.853,87.053c-0.918,17.281-0.886,34.631-1.046,51.953c0.021,17.336-0.325,34.615,0.387,51.945
	c0.05,27.523,3.446,55.098,4.957,84.773l-26.407-0.697c-0.405-13.998-0.826-27.996-0.558-41.975
	c0.812-27.393-0.082-54.908,0.88-82.291c0.489-27.418,1.144-54.82,1.503-82.262c1.466-29.75,1.66-59.607,2.941-89.386
	c0.849-29.81,1.552-59.629,2.848-89.407c0.542-20.321,1.223-40.633,0.63-61.022c0.823-20.287-0.933-40.747-0.654-61.033
	c-0.527-21.808-1.994-43.56-3.474-65.046L668.697,101.825z"/>
</svg>
