<?xml version="1.0" encoding="utf-8"?>
<!-- Generator: Adobe Illustrator 16.0.1, SVG Export Plug-In . SVG Version: 6.00 Build 0)  -->
<!DOCTYPE svg PUBLIC "-//W3C//DTD SVG 1.1//EN" "http://www.w3.org/Graphics/SVG/1.1/DTD/svg11.dtd">
<svg version="1.1"
	 id="Layer_1" xmlns:dc="http://purl.org/dc/elements/1.1/" xmlns:cc="http://creativecommons.org/ns#" xmlns:rdf="http://www.w3.org/1999/02/22-rdf-syntax-ns#" xmlns:svg="http://www.w3.org/2000/svg"
	 xmlns="http://www.w3.org/2000/svg" xmlns:xlink="http://www.w3.org/1999/xlink" x="0px" y="0px" width="961.424px"
	 height="707.908px" viewBox="6043.993 -1936.875 961.424 707.908" enable-background="new 6043.993 -1936.875 961.424 707.908"
	 xml:space="preserve">
<g id="g537">
	<path id="path539" d="M6995.12-1685.511c1.108,75.055,1.694,150.116,3.528,225.15c1.056,42.388,4.082,84.733,6.426,127.086
		c0.66,11.884-1.016,14.903-15.057,19.178c-40.836,12.449-81.857,24.209-122.611,36.935
		c-47.973,14.992-96.783,25.663-146.264,33.433c-65.633,10.306-131.581,18.604-197.859,10.767
		c-35.871-4.239-71.479-12.56-106.592-21.576c-56.277-14.448-113.127-24.513-170.879-28.221
		c-47.315-3.033-94.729-4.302-142.101-6.418c-10.657-0.476-20.194,0.876-29.021,8.81c-9.297,8.376-20.83,4.129-22.664-8.733
		c-3.315-23.142-6.096-46.571-6.479-69.927c-0.745-44.889-0.233-89.813,0.806-134.702c1.595-68.706,3.826-137.405,6.273-206.084
		c1.758-49.08,4.584-98.099-0.695-147.166c-1.049-9.623,0.082-19.611,1.074-29.331c1.297-12.602,10.516-21.018,21.756-16.806
		c32.371,12.125,64.352,3.212,96.604,1.075c93.528-6.19,185.845-2.585,275.375,32.04c24.457,9.458,51.549,13.663,77.743,15.669
		c42.188,3.219,84.843,5.811,126.893,2.626c35.129-2.654,70.01-12.498,104.338-21.817c48.642-13.194,96.438-29.8,145.07-43.049
		c25.657-6.997,51.411-12.422,74.738-26.657c10.926-6.679,20.733,0.648,20.74,13.967c0.043,77.915,0.015,155.824,0.015,233.739
		C6995.898-1685.523,6995.512-1685.523,6995.12-1685.511z M6976.314-1909.889c-4.791,2.288-7.631,3.777-10.574,5.018
		c-8.961,3.757-17.725,8.286-26.967,10.905c-14.737,4.164-30.062,6.136-44.689,10.616c-27.814,8.521-55.141,18.791-82.988,27.167
		c-27.85,8.375-55.892,16.323-84.229,22.609c-26.05,5.784-52.525,12.14-78.938,12.843c-43.612,1.165-87.422-0.469-130.933-3.964
		c-25.72-2.061-51.603-7.92-76.351-15.717c-34.75-10.939-68.905-24.678-105.193-27.966c-39.416-3.571-79.053-4.729-118.619-5.825
		c-19.584-0.538-39.754-1.248-58.725,2.854c-27.871,6.012-54.853,7.452-81.889-1.93c-8.062-2.799-8.438,0.345-7.639,7.293
		c1.86,16.289,4.066,32.619,4.479,48.984c0.711,28.718,0.726,57.477,0.015,86.201c-0.746,30.316-2.854,60.6-4.047,90.909
		c-1.475,37.734-3.287,75.476-3.764,113.224c-0.627,50.866-0.275,101.745-0.027,152.618c0.104,23.3,0.974,46.593,1.523,71.236
		c7.418-2.082,12.925-4.798,18.516-4.998c24.65-0.903,49.424-2.646,73.98-1.172c46.411,2.792,92.881,6.204,139.016,11.974
		c36.955,4.633,73.562,12.615,110.145,20.039c35.908,7.286,71.299,18.916,107.494,22.817c37.186,4.005,75.172,2.695,112.632,0.496
		c34.61-2.033,69.078-7.631,103.429-12.932c39.029-6.025,77.404-15.166,115.506-26.381c43.314-12.746,87.504-22.328,129.602-39.402
		c2.861-1.158,6.48-4.061,7.037-6.77c1.193-5.68,0.986-11.795,0.643-17.682c-2.096-35.921-4.888-71.808-6.486-107.757
		c-1.385-31.006-2.02-62.081-2.064-93.122c-0.193-96.858,0.033-193.71,0.108-290.568c0.015-19.857,0-39.71,0-61.617H6976.314z"/>
	<g id="g541">
		<path id="path543" fill="none" d="M6995.12-1685.511c1.108,75.055,1.694,150.116,3.528,225.15
			c1.056,42.388,4.082,84.733,6.426,127.086c0.66,11.884-1.016,14.903-15.057,19.178c-40.836,12.449-81.857,24.209-122.611,36.935
			c-47.973,14.992-96.783,25.663-146.264,33.433c-65.633,10.306-131.581,18.604-197.859,10.767
			c-35.871-4.239-71.479-12.56-106.592-21.576c-56.277-14.448-113.127-24.513-170.879-28.221
			c-47.315-3.033-94.729-4.302-142.101-6.418c-10.657-0.476-20.194,0.876-29.021,8.81c-9.297,8.376-20.83,4.129-22.664-8.733
			c-3.315-23.142-6.096-46.571-6.479-69.927c-0.745-44.889-0.233-89.813,0.806-134.702c1.595-68.706,3.826-137.405,6.273-206.084
			c1.758-49.08,4.584-98.099-0.695-147.166c-1.049-9.623,0.082-19.611,1.074-29.331c1.297-12.602,10.516-21.018,21.756-16.806
			c32.371,12.125,64.352,3.212,96.604,1.075c93.528-6.19,185.845-2.585,275.375,32.04c24.457,9.458,51.549,13.663,77.743,15.669
			c42.188,3.219,84.843,5.811,126.893,2.626c35.129-2.654,70.01-12.498,104.338-21.817c48.642-13.194,96.438-29.8,145.07-43.049
			c25.657-6.997,51.411-12.422,74.738-26.657c10.926-6.679,20.733,0.648,20.74,13.967c0.043,77.915,0.015,155.824,0.015,233.739
			C6995.898-1685.523,6995.512-1685.523,6995.12-1685.511z M6976.314-1909.889c-4.791,2.288-7.631,3.777-10.574,5.018
			c-8.961,3.757-17.725,8.286-26.967,10.905c-14.737,4.164-30.062,6.136-44.689,10.616c-27.814,8.521-55.141,18.791-82.988,27.167
			c-27.85,8.375-55.892,16.323-84.229,22.609c-26.05,5.784-52.525,12.14-78.938,12.843c-43.612,1.165-87.422-0.469-130.933-3.964
			c-25.72-2.061-51.603-7.92-76.351-15.717c-34.75-10.939-68.905-24.678-105.193-27.966c-39.416-3.571-79.053-4.729-118.619-5.825
			c-19.584-0.538-39.754-1.248-58.725,2.854c-27.871,6.012-54.853,7.452-81.889-1.93c-8.062-2.799-8.438,0.345-7.639,7.293
			c1.86,16.289,4.066,32.619,4.479,48.984c0.711,28.718,0.726,57.477,0.015,86.201c-0.746,30.316-2.854,60.6-4.047,90.909
			c-1.475,37.734-3.287,75.476-3.764,113.224c-0.627,50.866-0.275,101.745-0.027,152.618c0.104,23.3,0.974,46.593,1.523,71.236
			c7.418-2.082,12.925-4.798,18.516-4.998c24.65-0.903,49.424-2.646,73.98-1.172c46.411,2.792,92.881,6.204,139.016,11.974
			c36.955,4.633,73.562,12.615,110.145,20.039c35.908,7.286,71.299,18.916,107.494,22.817c37.186,4.005,75.172,2.695,112.632,0.496
			c34.61-2.033,69.078-7.631,103.429-12.932c39.029-6.025,77.404-15.166,115.506-26.381c43.314-12.746,87.504-22.328,129.602-39.402
			c2.861-1.158,6.48-4.061,7.037-6.77c1.193-5.68,0.986-11.795,0.643-17.682c-2.096-35.921-4.888-71.808-6.486-107.757
			c-1.385-31.006-2.02-62.081-2.064-93.122c-0.193-96.858,0.033-193.71,0.108-290.568c0.015-19.857,0-39.71,0-61.617H6976.314z"/>
		<g id="g545">
			<path id="path547" d="M6975.966-1909.889c0.019,0,0.033,0.168,0.049,0.502c0.01,0.334,0.022,0.833,0.043,1.497
				c0.017,1.327,0.038,3.311,0.067,5.933c0.021,5.244,0.057,13.045,0.101,23.272c0.047,20.454,0.117,50.614,0.207,89.436
				c-0.437,38.803-0.349,86.25,0.205,141.326c0.257,27.529,0.373,56.953,0.353,88.145c0.131,15.59,0.269,31.622,0.405,48.08
				c0.224,8.227,0.448,16.56,0.677,24.996c0.109,4.22,0.223,8.465,0.333,12.736c0.138,4.27,0.149,8.572,0.408,12.889
				c0.903,17.27,1.842,34.951,2.897,53.021c0.582,9.033,1.168,18.164,1.763,27.392c0.304,4.613,0.604,9.251,0.912,13.912
				c0.29,4.663,0.66,9.339,0.862,14.062c0.138,4.733,0.08,9.495-1.019,14.258c-0.437,1.195-1.204,2.204-2.077,3.056
				c-0.854,0.883-1.841,1.612-2.872,2.27c-1.03,0.66-2.192,1.14-3.301,1.555l-3.365,1.301c-2.246,0.868-4.496,1.739-6.753,2.612
				c-2.259,0.864-4.505,1.784-6.812,2.546c-4.595,1.594-9.207,3.195-13.842,4.805c-18.646,6.125-37.896,11.503-57.465,16.925
				c-4.899,1.323-9.821,2.651-14.766,3.984c-4.941,1.329-9.909,2.649-14.872,4.056c-9.929,2.793-19.99,5.498-30.104,8.28
				c-20.252,5.514-40.987,10.433-62.104,15.229l-3.981,0.785c-1.328,0.261-2.674,0.442-4.013,0.669
				c-2.681,0.437-5.36,0.873-8.051,1.312c-5.371,0.896-10.763,1.794-16.172,2.696c-10.836,1.651-21.75,3.314-32.733,4.988
				c-5.498,0.815-11.016,1.633-16.549,2.453l-4.153,0.618l-4.174,0.529c-2.785,0.354-5.574,0.711-8.367,1.066
				c-2.795,0.359-5.593,0.719-8.396,1.078l-4.207,0.544c-1.405,0.169-2.819,0.269-4.229,0.407
				c-5.649,0.521-11.315,1.045-16.999,1.57c-22.766,1.427-45.839,2.352-69.202,2.244c-11.681,0-23.426-0.527-35.22-1.283
				c-2.942-0.263-5.892-0.525-8.842-0.789l-4.433-0.396c-1.476-0.165-2.944-0.381-4.42-0.569c-2.949-0.392-5.899-0.782-8.856-1.175
				c-2.944-0.463-5.877-1.022-8.821-1.531c-5.896-0.955-11.722-2.321-17.603-3.507c-2.935-0.622-5.849-1.333-8.778-1.994
				c-2.929-0.676-5.865-1.331-8.787-2.051c-11.713-2.8-23.451-5.709-35.288-8.399c-2.953-0.706-5.936-1.279-8.904-1.927
				c-2.978-0.62-5.939-1.284-8.938-1.868c-5.985-1.205-11.985-2.414-17.999-3.625c-12.023-2.401-24.104-4.814-36.234-7.237
				c-6.092-1.051-12.196-2.104-18.313-3.159c-3.062-0.506-6.11-1.116-9.19-1.543c-3.076-0.437-6.155-0.873-9.24-1.311
				c-6.17-0.852-12.332-1.822-18.539-2.595c-6.22-0.694-12.451-1.391-18.694-2.088c-3.121-0.353-6.246-0.706-9.373-1.059
				l-4.692-0.533l-4.709-0.438c-6.28-0.59-12.574-1.182-18.881-1.773c-3.151-0.301-6.309-0.601-9.467-0.901
				c-3.158-0.306-6.328-0.519-9.496-0.785c-6.338-0.514-12.688-1.028-19.051-1.543c-6.347-0.646-12.715-1.148-19.1-1.618
				c-6.385-0.45-12.779-0.901-19.188-1.353c-1.604-0.101-3.205-0.228-4.81-0.304l-4.812-0.148c-3.209-0.094-6.42-0.188-9.635-0.281
				c-3.213-0.152-6.435-0.047-9.655,0.01c-3.224,0.06-6.449,0.119-9.676,0.178c-12.912,0.412-25.869,1.076-38.883,1.606
				c-0.832,0.018-1.58,0.108-2.356,0.172c-0.771,0.053-1.541,0.257-2.312,0.376c-0.771,0.17-1.539,0.381-2.31,0.572l-2.307,0.699
				l-4.633,1.529l-2.346,0.75l-3.25,0.958l-0.472,0.138l-0.235,0.069l-0.06,0.018c-0.01-0.011,0-0.038,0-0.057v-0.124l-0.021-0.987
				l-0.043-1.966l-0.045-2.492l-0.078-4.899c-0.041-3.269-0.08-6.539-0.121-9.812c-0.224-12.838-0.443-25.638-0.666-38.396
				c-0.32-12.763-0.412-25.479-0.588-38.153c-0.304-25.349-0.842-50.52-0.564-75.499c0.283-12.501,0.564-24.951,0.848-37.351
				c0.064-3.099,0.129-6.195,0.191-9.288c0.066-3.093,0.092-6.183,0.244-9.268c0.225-6.171,0.449-12.329,0.674-18.474
				c0.416-12.289,0.689-24.528,0.889-36.719c0.312-12.186,0.467-24.323,0.402-36.416c0.754-24.144,2.41-53.062,3.381-79.004
				c0.277-6.485,0.549-12.788,0.805-18.788c0.252-6,0.604-11.694,0.646-16.975c0.228-10.555,0.492-19.419,0.81-25.632
				c-0.025-2.334-0.056-4.741-0.082-7.215c-0.023-2.474-0.019-5.013-0.121-7.609c-0.135-5.194-0.273-10.622-0.42-16.224
				c-0.111-5.601-0.228-11.376-0.344-17.265c-0.023-1.472-0.049-2.952-0.074-4.438l-0.035-2.232l-0.111-2.229
				c-0.152-2.976-0.309-5.972-0.461-8.982c-0.885-12.038-2.293-24.277-3.619-36.298c-0.162-1.493-0.348-3.014-0.408-4.598
				c-0.039-0.787-0.02-1.614,0.076-2.474c0.141-0.866,0.34-1.842,1.062-2.761c0.199-0.213,0.408-0.425,0.629-0.613
				c0.242-0.153,0.494-0.299,0.75-0.433c0.5-0.188,1.035-0.345,1.492-0.354c0.965-0.096,1.785,0.052,2.588,0.199
				c1.571,0.325,3.037,0.889,4.385,1.321c5.457,1.931,10.963,3.343,16.35,4.401c10.781,2.129,21.793,2.591,32.652,2.027
				c5.436-0.325,10.836-0.905,16.192-1.681c5.367-0.763,10.646-1.849,15.944-2.894c10.646-2.152,21.431-2.858,32.086-3.014
				c10.666-0.139,21.232,0.232,31.713,0.499c5.242,0.134,10.465,0.267,15.67,0.399c5.203,0.127,10.388,0.29,15.551,0.496
				c5.164,0.192,10.31,0.385,15.433,0.575c2.562,0.101,5.119,0.201,7.67,0.302c2.551,0.134,5.097,0.268,7.638,0.402
				c10.158,0.575,20.246,0.917,30.229,1.722c4.994,0.337,9.967,0.673,14.918,1.007c4.943,0.291,9.902,0.686,14.811,1.293
				c19.595,2.946,37.97,8.453,55.664,14.28c17.709,5.828,34.801,12.133,52.068,17.092c8.617,2.536,17.301,4.611,25.979,6.522
				c2.184,0.424,4.358,0.849,6.537,1.273l3.268,0.627l3.277,0.533l6.559,1.045l6.578,0.839c2.188,0.308,4.389,0.503,6.588,0.696
				c2.201,0.188,4.396,0.423,6.602,0.57c4.412,0.26,8.826,0.52,13.242,0.779c4.416,0.247,8.836,0.494,13.265,0.74
				c2.213,0.106,4.426,0.271,6.646,0.324c2.221,0.061,4.44,0.123,6.664,0.184c7.271,0.247,14.405,0.489,21.467,0.729
				c3.526,0.175,7.041,0.153,10.543,0.218c3.5,0.054,6.99,0.107,10.479,0.16c3.486,0.062,6.971,0.123,10.457,0.186
				c1.744,0.023,3.488,0.087,5.236,0.08c1.746-0.016,3.496-0.032,5.248-0.049c7.01-0.054,14.067-0.108,21.237-0.164
				c1.791-0.012,3.592-0.024,5.397-0.037c1.797-0.084,3.603-0.168,5.416-0.253c1.812-0.105,3.64-0.132,5.467-0.303
				c1.828-0.173,3.664-0.345,5.515-0.519c7.396-0.696,14.92-1.869,22.653-3.191c3.859-0.722,7.775-1.456,11.748-2.261
				c3.967-0.84,8.004-1.657,12.101-2.583c8.194-1.807,16.694-3.711,25.472-5.873c24.473-6.023,48.188-12.672,70.229-19.207
				c1.381-0.4,2.754-0.8,4.121-1.197c1.358-0.421,2.711-0.84,4.058-1.257c2.69-0.835,5.354-1.663,7.992-2.481
				c2.637-0.817,5.244-1.626,7.821-2.425c2.576-0.802,5.103-1.667,7.606-2.481c10.008-3.314,19.496-6.458,28.342-9.388
				c2.217-0.717,4.4-1.423,6.556-2.119c2.164-0.667,4.299-1.325,6.399-1.973c4.201-1.299,8.275-2.56,12.222-3.78
				c0.99-0.294,1.955-0.635,2.942-0.886c0.986-0.255,1.965-0.507,2.937-0.758c1.938-0.502,3.847-0.995,5.72-1.48
				c1.865-0.522,3.729-0.877,5.549-1.27c1.82-0.388,3.608-0.769,5.363-1.143c7.007-1.512,13.514-2.722,19.348-4.274
				c1.465-0.363,2.896-0.718,4.293-1.063c0.349-0.087,0.694-0.173,1.039-0.259c0.338-0.111,0.672-0.223,1.004-0.332
				c0.664-0.221,1.317-0.438,1.967-0.653c1.293-0.43,2.554-0.849,3.778-1.256c1.198-0.487,2.362-0.962,3.496-1.422
				c1.131-0.462,2.229-0.911,3.291-1.347c1.054-0.468,2.069-0.921,3.056-1.359c1.972-0.876,3.808-1.692,5.508-2.447
				c1.703-0.754,3.27-1.446,4.696-2.078c1.405-0.658,2.676-1.252,3.81-1.781c4.512-2.188,6.807-3.363,6.805-3.363
				c-0.027-0.059-0.625,0.182-1.781,0.711c-1.146,0.542-2.861,1.354-5.131,2.424c-1.131,0.523-2.397,1.111-3.806,1.762
				c-1.429,0.633-2.996,1.326-4.701,2.08c-1.696,0.762-3.528,1.585-5.497,2.468c-0.98,0.443-1.997,0.902-3.046,1.376
				c-1.06,0.441-2.151,0.896-3.278,1.366c-1.127,0.468-2.287,0.95-3.479,1.446c-1.222,0.417-2.476,0.846-3.763,1.285
				c-0.646,0.221-1.297,0.443-1.959,0.67c-0.33,0.112-0.662,0.229-0.998,0.341c-0.344,0.089-0.688,0.179-1.037,0.269
				c-1.393,0.359-2.817,0.729-4.278,1.105c-5.815,1.612-12.31,2.897-19.296,4.498c-1.749,0.396-3.529,0.799-5.348,1.211
				c-1.813,0.416-3.672,0.796-5.525,1.342c-1.861,0.511-3.758,1.029-5.688,1.557c-0.963,0.264-1.937,0.529-2.916,0.798
				c-0.979,0.264-1.94,0.618-2.928,0.927c-3.925,1.279-7.979,2.6-12.157,3.961c-2.089,0.68-4.209,1.37-6.36,2.07
				c-2.144,0.73-4.313,1.472-6.52,2.223c-8.871,2.855-18.221,5.93-28.035,9.194c-2.454,0.815-4.938,1.642-7.452,2.479
				c-2.524,0.8-5.08,1.609-7.665,2.429c-2.583,0.823-5.195,1.656-7.839,2.499c-2.642,0.851-5.312,1.705-8.034,2.5
				c-21.698,6.615-45.369,13.543-71.134,19.757c-8.456,1.916-16.547,3.64-24.341,5.31c-7.79,1.689-15.3,3.244-22.628,4.644
				c-14.651,2.784-28.651,4.78-42.687,5.193c-7.008,0.141-13.996,0.281-21.06,0.423c-3.532,0.063-7.083,0.128-10.664,0.192
				c-3.58-0.047-7.19-0.094-10.847-0.142c-7.307-0.113-14.78-0.215-22.518-0.415c-7.729-0.37-15.721-0.781-24.062-1.25
				c-8.354-0.241-16.92-0.937-25.684-1.488c-4.381-0.293-8.809-0.59-13.273-0.889c-2.233-0.118-4.475-0.402-6.726-0.6
				c-2.249-0.231-4.515-0.396-6.769-0.729c-2.26-0.298-4.525-0.597-6.801-0.896c-2.271-0.324-4.535-0.733-6.812-1.098l-3.42-0.562
				l-3.41-0.662c-2.275-0.451-4.557-0.902-6.842-1.354c-9.105-1.977-18.223-4.266-27.271-6.871
				c-18.086-5.272-35.871-11.703-53.562-17.262c-17.668-5.585-35.304-10.3-52.55-12.591c-8.062-1.184-17.154-1.637-26.812-2.361
				c-2.416-0.17-4.867-0.343-7.354-0.518c-2.486-0.178-5.003-0.363-7.555-0.458c-5.102-0.239-10.312-0.482-15.595-0.729
				c-10.56-0.573-21.424-0.854-32.26-1.276c-10.836-0.407-21.649-0.814-32.129-1.209c-10.478-0.351-21.033-0.808-31.649-0.734
				c-10.609,0.088-21.326,0.747-31.871,2.876c-5.291,1.043-10.613,2.147-16,2.938c-5.386,0.805-10.816,1.428-16.291,1.811
				c-10.941,0.678-22.07,0.396-33.068-1.498c-5.482-0.994-10.93-2.344-16.242-4.146c-1.354-0.415-2.645-0.907-3.934-1.214
				c-0.324-0.096-0.646-0.146-0.967-0.198c-0.324-0.07-0.638-0.093-0.947-0.106c-0.625-0.047-1.205,0.041-1.627,0.266
				c-0.854,0.385-1.113,1.709-1.136,3.014c-0.024,1.323,0.108,2.703,0.263,4.084c0.633,5.572,1.309,11.151,1.905,16.771
				c0.304,2.807,0.604,5.619,0.908,8.435c0.246,2.823,0.494,5.651,0.742,8.483c0.293,2.828,0.396,5.678,0.539,8.527l0.213,4.279
				c0.071,1.427,0.153,2.855,0.149,4.282c0.076,5.71,0.15,11.437,0.229,17.179c0.084,5.742,0.17,11.5,0.256,17.274
				c0.026,2.888,0.133,5.778,0.101,8.673c-0.021,2.896-0.043,5.794-0.062,8.697c-0.166,5.809-0.295,11.631-0.395,17.471
				c-0.043,2.919-0.086,5.842-0.129,8.77c-0.062,2.926-0.01,5.859-0.16,8.791c-0.392,11.734-0.785,23.529-1.181,35.383
				c-0.347,11.861-0.894,23.75-1.412,35.708c-0.295,5.977-0.59,11.967-0.888,17.972c-0.272,6.007-0.578,12.027-0.922,18.06
				c-0.371,12.074-0.746,24.203-1.121,36.386c-0.252,12.18-0.506,24.412-0.76,36.697c-0.151,6.142-0.309,12.296-0.461,18.463
				c-0.112,3.083-0.1,6.173-0.129,9.265c-0.026,3.093-0.057,6.188-0.084,9.286c-0.129,12.395-0.334,24.84-0.646,37.336
				c0.308,24.966,0.418,50.139,0.297,75.485c-0.035,12.674-0.153,25.395,0.084,38.142c0.104,6.375,0.207,12.76,0.312,19.154
				c0.143,6.396,0.379,12.804,0.61,19.219c0.033,3.273,0.067,6.545,0.103,9.813l0.062,4.9l0.033,2.41v0.582v0.299
				c-0.021,0.077,0.043,0.043,0.088,0.032l0.14-0.038l1.588-0.451l2.321-0.731l4.658-1.512l2.365-0.705
				c0.806-0.196,1.604-0.411,2.416-0.586c0.826-0.125,1.635-0.333,2.476-0.39c0.834-0.066,1.684-0.156,2.485-0.168
				c13.002-0.461,25.967-1.054,38.905-1.44c3.234-0.056,6.472-0.111,9.701-0.168c3.23-0.055,6.461-0.164,9.689-0.02
				c3.229,0.081,6.455,0.162,9.68,0.244l4.834,0.119c1.605,0.062,3.209,0.178,4.812,0.265c6.416,0.368,12.818,0.736,19.213,1.104
				c6.395,0.358,12.775,0.721,19.141,1.189c6.363,0.575,12.715,1.149,19.056,1.723c3.17,0.287,6.34,0.519,9.5,0.837
				c3.162,0.312,6.319,0.622,9.476,0.933c6.312,0.597,12.61,1.191,18.897,1.786l4.715,0.432l4.701,0.524
				c3.133,0.345,6.265,0.69,9.39,1.034c6.256,0.676,12.5,1.35,18.729,2.021c6.224,0.748,12.412,1.696,18.603,2.526
				c3.096,0.428,6.188,0.855,9.272,1.282c3.092,0.418,6.146,1.02,9.215,1.52c6.131,1.051,12.25,2.099,18.356,3.145
				c12.119,2.532,24.188,5.054,36.201,7.563c6.004,1.246,11.996,2.49,17.976,3.731c2.992,0.597,5.974,1.278,8.953,1.912
				c2.978,0.66,5.97,1.246,8.924,1.96c11.854,2.729,23.601,5.646,35.306,8.416c2.924,0.714,5.854,1.358,8.778,2.022
				c2.926,0.649,5.84,1.347,8.767,1.953c5.862,1.151,11.682,2.478,17.553,3.381c2.928,0.513,5.844,1.079,8.77,1.551
				c2.938,0.402,5.867,0.805,8.793,1.207c1.465,0.195,2.926,0.418,4.393,0.591l4.408,0.421c2.938,0.282,5.871,0.564,8.799,0.846
				c11.742,0.834,23.443,1.455,35.101,1.524c23.301,0.247,46.373-0.626,69.082-2.364c5.666-0.534,11.315-1.066,16.949-1.598
				c1.405-0.139,2.815-0.238,4.217-0.407l4.201-0.541c2.797-0.356,5.59-0.713,8.379-1.068c2.789-0.352,5.571-0.702,8.354-1.053
				l4.166-0.521l4.149-0.611c5.528-0.813,11.041-1.624,16.533-2.433c5.496-0.778,10.965-1.663,16.418-2.502
				c5.446-0.86,10.894-1.656,16.293-2.56c5.39-0.948,10.76-1.893,16.11-2.833c2.676-0.472,5.347-0.943,8.013-1.414
				c1.33-0.246,2.668-0.448,3.987-0.73l3.959-0.854c21.187-4.174,41.943-8.937,62.148-14.511
				c10.098-2.814,20.105-5.601,30.025-8.517c4.953-1.466,9.905-2.852,14.834-4.25c4.924-1.403,9.828-2.801,14.713-4.193
				c19.592-5.327,38.844-10.561,57.487-16.529c4.633-1.569,9.244-3.132,13.836-4.688c2.31-0.742,4.554-1.642,6.812-2.485
				c2.256-0.854,4.506-1.704,6.752-2.554l3.362-1.271c1.162-0.429,2.147-0.825,3.106-1.427c0.945-0.595,1.869-1.265,2.64-2.054
				c0.799-0.758,1.459-1.653,1.787-2.547c0.187-0.39,0.25-1.019,0.34-1.586l0.267-1.721c0.074-0.576,0.209-1.142,0.235-1.725
				l0.104-1.746c0.201-2.319,0.112-4.668,0.096-7.003c-2.209-37.678-4.33-73.852-6.354-108.38c-0.305-4.316-0.358-8.619-0.539-12.89
				c-0.153-4.273-0.307-8.52-0.457-12.74c-0.303-8.441-0.602-16.777-0.896-25.008c-0.24-16.469-0.475-32.512-0.701-48.112
				c-0.1-31.191-0.168-60.615-0.117-88.146c0.529-57.157,0.119-102.525,0.543-141.328c0.213-38.821,0.377-68.981,0.488-89.436
				c0.022-10.228,0.041-18.028,0.055-23.272c-0.014-2.622-0.021-4.605-0.027-5.933c-0.014-0.664-0.021-1.163-0.026-1.497
				c-0.013-0.332-0.026-0.5-0.041-0.5L6975.966-1909.889z"/>
		</g>
		<g id="g549">
			<path id="path551" d="M6995.125-1685.162c0-0.024,0.346-0.051,1.156-0.08l0.285-0.011l-0.01-0.271
				c-0.211-7.023-0.207-51.066-0.433-125.354c0.21-20.346,0.287-42.957,0.24-67.702c-0.052-12.372-0.104-25.278-0.162-38.7
				c-0.01-1.678-0.021-3.366-0.24-5.037c-0.133-0.834-0.224-1.677-0.476-2.488l-0.319-1.229l-0.456-1.188
				c-1.195-3.155-3.538-5.999-6.689-7.365l-1.196-0.46l-1.256-0.265c-0.415-0.118-0.851-0.105-1.276-0.133
				c-0.43-0.01-0.856-0.084-1.287-0.01l-1.287,0.132c-0.428,0.052-0.842,0.196-1.263,0.289c-0.854,0.16-1.646,0.55-2.457,0.857
				c-1.562,0.749-3.08,1.667-4.649,2.554c-1.559,0.89-3.123,1.784-4.693,2.682c-1.548,0.944-3.201,1.701-4.85,2.487
				c-1.646,0.788-3.301,1.579-4.961,2.374c-0.821,0.417-1.679,0.762-2.537,1.104c-0.854,0.347-1.715,0.695-2.574,1.044
				c-1.722,0.695-3.449,1.395-5.185,2.096c-3.539,1.211-7.08,2.522-10.702,3.672c-3.639,1.091-7.277,2.304-11.003,3.305
				c-7.417,2.128-15,4.081-22.657,6.168c-3.843,0.996-7.666,2.174-11.542,3.271c-3.871,1.115-7.771,2.238-11.696,3.369
				c-15.742,4.396-31.795,9.416-48.328,14.379c-8.269,2.484-16.644,5-25.123,7.548c-4.242,1.268-8.51,2.544-12.806,3.827
				c-4.291,1.295-8.653,2.443-13.021,3.68c-8.729,2.469-17.56,4.968-26.492,7.494c-8.963,2.418-18.024,4.87-27.209,7.273
				c-18.369,4.775-37.276,9.286-56.881,12.172c-2.451,0.344-4.9,0.761-7.373,1.05c-2.477,0.255-4.957,0.511-7.444,0.768
				c-4.972,0.606-9.994,0.797-15.032,1.14c-5.037,0.381-10.109,0.498-15.204,0.664c-2.548,0.066-5.101,0.202-7.661,0.213
				c-2.561,0.016-5.126,0.031-7.698,0.048c-20.58,0.099-41.526-0.772-62.79-2.078c-5.314-0.341-10.648-0.735-16.003-1.165
				c-2.677-0.213-5.358-0.427-8.047-0.642c-2.688-0.251-5.381-0.502-8.08-0.754c-10.783-1.127-21.614-2.671-32.424-4.805
				c-10.815-2.1-21.563-5.012-32.133-8.697c-10.58-3.659-21.06-7.692-31.979-10.744c-21.457-7.163-43.84-12.632-66.795-16.506
				c-22.959-3.882-46.48-6.18-70.326-7.222c-23.824-1.471-48.02-1.59-72.453-0.778c-6.107,0.165-12.229,0.52-18.373,0.774
				c-6.14,0.3-12.291,0.722-18.463,1.078c-12.314,0.768-24.625,2.538-37.086,3.845c-6.228,0.634-12.492,1.143-18.797,1.368
				c-6.309,0.18-12.651,0-18.979-0.649c-6.334-0.64-12.604-1.995-18.74-3.828l-4.566-1.508l-2.166-0.665
				c-0.734-0.116-1.465-0.289-2.203-0.348c-2.943-0.226-5.957,0.451-8.383,2.163c-2.432,1.681-4.383,4.091-5.638,6.854
				c-1.292,2.771-1.925,5.755-2.21,8.89c-0.622,6.37-1.279,12.732-1.312,19.089c-0.062,3.186,0.153,6.332,0.444,9.504
				c0.283,3.22,0.565,6.442,0.851,9.669c0.258,3.228,0.609,6.453,0.787,9.693c0.158,3.24,0.317,6.484,0.479,9.732
				c1.475,25.979,1.104,52.223,0.223,78.596c-0.502,13.182-1.008,26.414-1.516,39.698c-0.461,13.284-0.925,26.619-1.391,40.005
				c-2.717,53.451-2.939,107.761-5.44,162.629c-0.44,13.453-0.623,26.872-0.815,40.249c-0.074,6.688-0.147,13.366-0.223,20.032
				c-0.025,3.334-0.059,6.664-0.084,9.991c0.041,3.328,0.082,6.652,0.123,9.975c0.167,13.286,0.333,26.525,0.498,39.716
				c0.033,3.297,0.066,6.591,0.104,9.882l0.043,4.935c0,1.645,0.021,3.287,0.117,4.921c0.141,3.272,0.277,6.541,0.418,9.808
				l0.195,4.896c0.082,1.63,0.249,3.257,0.367,4.885c0.448,6.521,0.736,13.045,1.448,19.526c0.312,3.245,0.62,6.487,0.931,9.727
				c0.316,3.239,0.746,6.463,1.115,9.69c0.396,3.22,0.742,6.464,1.185,9.654c0.46,3.132,1.646,6.195,3.722,8.584
				c1.074,1.135,2.295,2.191,3.754,2.804c0.353,0.183,0.709,0.348,1.095,0.44l1.133,0.342c0.78,0.087,1.56,0.293,2.354,0.229
				c1.59,0.069,3.149-0.362,4.651-0.862c1.463-0.625,2.881-1.383,4.131-2.384c1.274-0.952,2.444-2.1,3.769-3.026
				c1.285-0.981,2.668-1.822,4.076-2.612c2.842-1.532,5.916-2.605,9.062-3.285c3.155-0.645,6.375-0.916,9.584-0.952
				c3.213-0.016,6.408,0.148,9.604,0.215c12.777,0.342,25.508,0.525,38.188,0.49c25.318,0.846,55.631,2.367,82.859,3.719
				c3.403,0.175,6.76,0.346,10.053,0.515c1.646,0.086,3.274,0.171,4.889,0.255c1.609,0.127,3.205,0.253,4.777,0.377
				c6.293,0.52,12.27,0.999,17.795,1.508c5.512,0.648,10.58,1.246,15.084,1.775c2.248,0.281,4.356,0.533,6.305,0.809
				c1.938,0.313,3.725,0.603,5.336,0.863c4.875,0.538,10.059,1.109,15.482,1.709c5.403,0.77,11.055,1.574,16.883,2.404
				c1.455,0.214,2.924,0.43,4.401,0.646c1.474,0.25,2.955,0.502,4.449,0.755c2.981,0.519,6.002,1.045,9.054,1.576
				c3.047,0.544,6.131,1.058,9.225,1.648c3.086,0.623,6.191,1.25,9.312,1.88c3.121,0.636,6.256,1.274,9.396,1.915
				c3.141,0.638,6.262,1.403,9.393,2.104c3.129,0.718,6.254,1.437,9.371,2.153c1.56,0.363,3.113,0.727,4.664,1.089
				c1.545,0.391,3.088,0.781,4.625,1.17c6.144,1.573,12.22,3.13,18.168,4.653c5.931,1.555,11.732,3.077,17.349,4.55
				c11.24,2.906,22.476,5.521,33.666,7.988c11.215,2.338,22.381,4.587,33.558,6.291c11.156,1.829,22.311,3.148,33.403,4.151
				c5.56,0.398,11.09,0.882,16.619,1.07c2.765,0.11,5.521,0.293,8.272,0.342c2.756,0.055,5.506,0.11,8.25,0.166
				c2.744,0.076,5.484,0.016,8.222,0.012c2.735-0.029,5.467,0,8.19-0.071c5.449-0.156,10.879-0.229,16.283-0.521
				c10.812-0.417,21.523-1.248,32.14-2.141c21.222-1.949,42.021-4.688,62.353-8.022c20.434-2.791,40.19-5.727,59.418-9.16
				c19.215-3.488,37.901-7.406,56.229-11.794c18.297-4.501,36.222-9.496,53.918-15.061c17.729-5.48,35.392-11.042,53.166-16.766
				c14.558-4.641,28.617-8.902,42.633-13.137c7.015-2.097,14.017-4.189,21.065-6.297c3.521-1.069,7.107-2.027,10.502-3.282
				c3.324-1.288,6.824-2.798,8.31-5.74c1.504-2.938,1.297-6.837,1.155-10.572c-0.207-3.824-0.414-7.687-0.625-11.591
				c-0.432-7.812-0.869-15.806-1.321-24.044c-0.476-8.239-0.963-16.725-1.47-25.521c-0.479-8.8-0.975-17.909-1.487-27.396
				c-0.446-6.604-0.681-13.184-0.953-19.705c-0.248-6.523-0.496-12.99-0.737-19.383c-0.213-12.787-0.418-25.281-0.617-37.342
				c-0.322-24.123-0.621-46.516-0.881-66.059c-0.121-39.069-0.357-69.386-0.666-89.935c-0.291-20.55-0.574-31.331-0.574-31.331
				c-0.064,0.001-0.103,0.676-0.111,2.008c-0.012,1.333,0,3.323,0.039,5.955c0.1,5.265,0.248,13.097,0.441,23.371
				c0.401,20.547,0.996,50.859,1.762,89.919c0.092,19.543,0.475,41.273,0.996,65.061c0.277,11.893,0.568,24.301,0.869,37.208
				c0.213,6.451,0.523,13.024,0.789,19.722c0.289,6.696,0.506,13.517,0.941,20.45c0.348,9.083,0.703,17.752,1.104,26.101
				c0.479,8.346,0.938,16.375,1.383,24.188c0.492,7.81,0.969,15.401,1.438,22.874c0.246,3.736,0.489,7.443,0.731,11.132
				c0.112,1.846,0.263,3.681,0.351,5.525c0.092,1.842,0.146,3.693-0.049,5.545c-0.183,1.839-0.635,3.722-1.681,5.319
				c-1.028,1.605-2.569,2.797-4.183,3.723c-1.615,0.947-3.346,1.641-5.08,2.293c-1.739,0.642-3.51,1.211-5.276,1.756
				c-7.082,2.166-14.237,4.354-21.562,6.595c-14.655,4.46-30.026,8.995-46.848,13.896c-16.748,5.122-34.459,10.539-52.695,16.117
				c-18.233,5.647-37.16,10.918-56.324,15.628c-19.172,4.68-38.59,8.73-57.725,12.324c-4.789,0.869-9.557,1.733-14.295,2.594
				c-4.75,0.787-9.473,1.571-14.154,2.349c-9.369,1.553-18.612,2.946-27.653,4.323c-16.979,2.449-37.772,5.406-59.888,7.595
				c-11.059,1.067-22.44,1.983-33.824,2.45c-5.688,0.301-11.381,0.387-17.022,0.491c-2.819,0.065-5.633-0.01-8.426-0.01
				c-2.793-0.03-5.567-0.011-8.319-0.137c-2.752-0.077-5.51-0.153-8.271-0.23c-2.764-0.069-5.523-0.273-8.295-0.404
				c-5.545-0.229-11.09-0.752-16.66-1.187c-11.123-1.072-22.299-2.438-33.477-4.271c-11.199-1.709-22.39-3.92-33.646-6.153
				c-11.229-2.362-22.521-4.809-33.84-7.457c-11.271-2.814-22.611-5.647-34.021-8.498c-2.856-0.69-5.701-1.452-8.578-2.088
				c-2.875-0.651-5.754-1.305-8.639-1.958c-5.766-1.311-11.543-2.65-17.381-3.789c-2.914-0.594-5.832-1.189-8.754-1.785
				c-2.924-0.589-5.844-1.217-8.793-1.719c-5.889-1.056-11.791-2.114-17.713-3.176c-5.943-0.918-11.904-1.839-17.883-2.762
				l-4.486-0.674l-4.508-0.572c-3.008-0.379-6.021-0.759-9.037-1.139c-24.1-3.438-48.651-5.241-73.506-5.989
				c-24.838-1.007-49.903-2.144-75.221-3.472c-12.664-0.401-25.385-0.805-38.162-1.211c-3.193-0.084-6.408-0.255-9.529-0.238
				c-3.139,0.034-6.252,0.308-9.274,0.938c-3.013,0.665-5.926,1.703-8.617,3.179c-1.33,0.763-2.642,1.57-3.856,2.519l-0.92,0.701
				l-0.881,0.755c-0.554,0.483-1.244,1.043-1.918,1.588c-1.347,1.096-2.896,1.955-4.523,2.663c-1.676,0.587-3.438,1.085-5.277,1.035
				c-0.912,0.073-1.821-0.136-2.729-0.239c-0.442-0.115-0.885-0.251-1.326-0.379c-0.449-0.109-0.869-0.295-1.283-0.5
				c-1.711-0.704-3.147-1.903-4.396-3.201c-2.418-2.712-3.76-6.129-4.304-9.53c-0.492-3.276-0.867-6.46-1.301-9.7
				c-0.403-3.23-0.862-6.455-1.209-9.701c-0.334-3.246-0.67-6.497-1.004-9.75c-0.75-6.497-1.06-13.057-1.494-19.609
				c-3.351-52.426-0.522-105.643-0.229-159.496c2.563-54.874,3.67-109.158,4.971-162.662c0.643-13.381,1.184-26.715,1.65-40
				c0.553-13.283,1.067-26.516,1.481-39.695c0.804-26.357,1.015-52.539-0.446-78.415c-0.129-3.237-0.256-6.471-0.383-9.7
				c-0.146-3.229-0.467-6.441-0.697-9.658c-0.256-3.215-0.514-6.426-0.77-9.635c-0.273-3.235-0.476-6.497-0.39-9.734
				c0.076-6.484,0.778-12.892,1.433-19.259c0.305-3.212,1.002-6.495,2.412-9.471c1.373-2.988,3.522-5.663,6.276-7.552
				c2.742-1.923,6.215-2.705,9.521-2.434c0.828,0.068,1.643,0.258,2.457,0.396l2.356,0.726l4.481,1.481
				c6.021,1.799,12.181,3.128,18.416,3.743c6.23,0.627,12.492,0.782,18.732,0.576c6.24-0.254,12.455-0.795,18.648-1.473
				c12.408-1.273,24.771-2.98,37.172-3.672c6.184-0.316,12.346-0.694,18.496-0.952c6.151-0.213,12.283-0.526,18.403-0.657
				c24.476-0.671,48.694-0.503,72.59,0.656c23.903,0.966,47.485,3.361,70.508,7.266c23.024,3.896,45.479,9.307,67.149,16.113
				c10.853,3.355,21.369,7.613,31.842,11.348c10.451,3.76,21.138,6.678,31.904,8.732c10.766,2.088,21.562,3.534,32.316,4.537
				c2.69,0.219,5.377,0.438,8.061,0.656c2.688,0.181,5.369,0.36,8.047,0.54c5.354,0.359,10.688,0.681,16.004,0.948
				c21.229,1.402,42.127,2.411,62.652,2.459c2.565,0,5.127,0.01,7.682,0.01c2.555,0.01,5.102-0.108,7.643-0.156
				c5.082-0.129,10.144-0.209,15.166-0.553c5.023-0.306,10.041-0.461,14.986-1.031c2.479-0.238,4.951-0.477,7.418-0.715
				c2.463-0.271,4.904-0.671,7.352-0.998c19.549-2.754,38.447-7.164,56.808-11.912c9.181-2.389,18.24-4.845,27.194-7.287
				c8.914-2.572,17.728-5.115,26.437-7.628c4.351-1.279,8.694-2.468,12.974-3.802c4.28-1.323,8.537-2.638,12.768-3.944
				c8.455-2.617,16.809-5.202,25.055-7.754c16.5-5.091,32.523-10.208,48.275-14.671c3.928-1.145,7.828-2.28,11.701-3.409
				c3.879-1.108,7.705-2.294,11.553-3.296c7.672-2.099,15.248-4.045,22.642-6.149c3.72-0.989,7.332-2.182,10.957-3.252
				c3.604-1.128,7.117-2.41,10.638-3.589c1.725-0.684,3.438-1.364,5.146-2.042c0.854-0.339,1.707-0.677,2.559-1.014
				c0.854-0.331,1.703-0.666,2.519-1.071c1.647-0.771,3.291-1.539,4.926-2.303c1.635-0.763,3.278-1.494,4.813-2.41
				c1.629-0.892,3.244-1.777,4.853-2.657c0.81-0.442,1.617-0.884,2.422-1.323l1.289-0.681l0.646-0.335l0.686-0.263l1.367-0.519
				c0.475-0.131,0.955-0.232,1.432-0.348l0.715-0.165l0.736-0.07c0.49-0.036,0.979-0.104,1.473-0.106
				c1.979,0.01,3.939,0.496,5.693,1.367c1.758,0.893,3.186,2.247,4.373,3.717c0.535,0.779,1.104,1.538,1.484,2.389
				c0.465,0.813,0.768,1.685,1.084,2.547c0.326,0.859,0.475,1.761,0.713,2.635c0.131,0.891,0.28,1.78,0.362,2.668
				c0.033,0.885,0.097,1.792,0.101,2.648c0,0.851-0.01,1.698-0.01,2.544c-0.017,13.524-0.031,26.362-0.047,38.599
				c-0.01,24.473,0,46.539-0.201,66.885c-0.404,74.287-0.611,118.33-0.472,125.354l0.01,0.287l-0.299,0.012
				c-0.405,0.015-0.694,0.025-0.883,0.033c-0.194,0.01-0.283,0.016-0.283,0.026v0.002H6995.125z"/>
		</g>
	</g>
</g>
<g id="g4269">
	<g>
		<g>
			<defs>
				<path id="SVGID_1_" d="M6979.247-1910.602c-4.826,2.293-7.688,3.785-10.653,5.028c-9.028,3.765-17.856,8.304-27.172,10.929
					c-14.851,4.173-30.291,6.149-45.028,10.64c-28.024,8.539-55.56,18.831-83.619,27.226c-28.062,8.394-56.317,16.358-84.871,22.658
					c-26.248,5.797-52.931,12.166-79.537,12.87c-43.946,1.168-88.088-0.469-131.931-3.972c-25.914-2.065-51.994-7.938-76.933-15.751
					c-35.013-10.963-69.429-24.731-105.992-28.026c-39.717-3.579-79.653-4.74-119.522-5.838c-19.731-0.539-40.056-1.251-59.17,2.859
					c-28.082,6.025-55.269,7.469-82.51-1.934c-8.125-2.805-8.502,0.346-7.695,7.309c1.876,16.324,4.1,32.69,4.516,49.091
					c0.717,28.779,0.729,57.601,0.017,86.388c-0.752,30.382-2.877,60.729-4.078,91.104c-1.485,37.816-3.312,75.639-3.793,113.469
					c-0.631,50.977-0.276,101.966-0.026,152.949c0.104,23.35,0.979,46.693,1.535,71.391c7.474-2.087,13.022-4.809,18.658-5.01
					c24.836-0.904,49.801-2.652,74.541-1.174c46.767,2.798,93.588,6.217,140.076,12c37.235,4.643,74.117,12.643,110.979,20.082
					c36.183,7.302,71.841,18.957,108.312,22.867c37.465,4.014,75.744,2.701,113.487,0.496c34.875-2.037,69.604-7.646,104.215-12.959
					c39.328-6.039,77.994-15.199,116.385-26.438c43.646-12.774,88.168-22.377,130.586-39.488c2.883-1.16,6.528-4.069,7.092-6.784
					c1.201-5.692,0.992-11.82,0.646-17.72c-2.109-35.999-4.926-71.963-6.537-107.99c-1.396-31.073-2.035-62.216-2.084-93.324
					c-0.191-97.068,0.035-194.13,0.111-291.197C6979.262-1868.753,6979.247-1888.649,6979.247-1910.602L6979.247-1910.602z"/>
			</defs>
			<clipPath id="SVGID_2_">
				<use xlink:href="#SVGID_1_"  overflow="visible"/>
			</clipPath>
			<path id="path4277" clip-path="url(#SVGID_2_)" fill="#FFFFFF" d="M6979.247-1910.602c-4.826,2.293-7.688,3.785-10.653,5.028
				c-9.028,3.765-17.856,8.304-27.172,10.929c-14.851,4.173-30.291,6.149-45.028,10.64c-28.024,8.539-55.56,18.831-83.619,27.226
				c-28.062,8.394-56.317,16.358-84.871,22.658c-26.248,5.797-52.931,12.166-79.537,12.87c-43.946,1.168-88.088-0.469-131.931-3.972
				c-25.914-2.065-51.994-7.938-76.933-15.751c-35.013-10.963-69.429-24.731-105.992-28.026
				c-39.717-3.579-79.653-4.74-119.522-5.838c-19.731-0.539-40.056-1.251-59.17,2.859c-28.082,6.025-55.269,7.469-82.51-1.934
				c-8.125-2.805-8.502,0.346-7.695,7.309c1.876,16.324,4.1,32.69,4.516,49.091c0.717,28.779,0.729,57.601,0.017,86.388
				c-0.752,30.382-2.877,60.729-4.078,91.104c-1.485,37.816-3.312,75.639-3.793,113.469c-0.631,50.977-0.276,101.966-0.026,152.949
				c0.104,23.35,0.979,46.693,1.535,71.391c7.474-2.087,13.022-4.809,18.658-5.01c24.836-0.904,49.801-2.652,74.541-1.174
				c46.767,2.798,93.588,6.217,140.076,12c37.235,4.643,74.117,12.643,110.979,20.082c36.183,7.302,71.841,18.957,108.312,22.867
				c37.465,4.014,75.744,2.701,113.487,0.496c34.875-2.037,69.604-7.646,104.215-12.959c39.328-6.039,77.994-15.199,116.385-26.438
				c43.646-12.774,88.168-22.377,130.586-39.488c2.883-1.16,6.528-4.069,7.092-6.784c1.201-5.692,0.992-11.82,0.646-17.72
				c-2.109-35.999-4.926-71.963-6.537-107.99c-1.396-31.073-2.035-62.216-2.084-93.324c-0.191-97.068,0.035-194.13,0.111-291.197
				C6979.262-1868.753,6979.247-1888.649,6979.247-1910.602L6979.247-1910.602z"/>
		</g>
	</g>
	<g>
		<g>
			<defs>
				<path id="SVGID_3_" d="M6979.247-1910.602c-4.826,2.293-7.688,3.785-10.653,5.028c-9.028,3.765-17.856,8.304-27.172,10.929
					c-14.851,4.173-30.291,6.149-45.028,10.64c-28.024,8.539-55.56,18.831-83.619,27.226c-28.062,8.394-56.317,16.358-84.871,22.658
					c-26.248,5.797-52.931,12.166-79.537,12.87c-43.946,1.168-88.088-0.469-131.931-3.972c-25.914-2.065-51.994-7.938-76.933-15.751
					c-35.013-10.963-69.429-24.731-105.992-28.026c-39.717-3.579-79.653-4.74-119.522-5.838c-19.731-0.539-40.056-1.251-59.17,2.859
					c-28.082,6.025-55.269,7.469-82.51-1.934c-8.125-2.805-8.502,0.346-7.695,7.309c1.876,16.324,4.1,32.69,4.516,49.091
					c0.717,28.779,0.729,57.601,0.017,86.388c-0.752,30.382-2.877,60.729-4.078,91.104c-1.485,37.816-3.312,75.639-3.793,113.469
					c-0.631,50.977-0.276,101.966-0.026,152.949c0.104,23.35,0.979,46.693,1.535,71.391c7.474-2.087,13.022-4.809,18.658-5.01
					c24.836-0.904,49.801-2.652,74.541-1.174c46.767,2.798,93.588,6.217,140.076,12c37.235,4.643,74.117,12.643,110.979,20.082
					c36.183,7.302,71.841,18.957,108.312,22.867c37.465,4.014,75.744,2.701,113.487,0.496c34.875-2.037,69.604-7.646,104.215-12.959
					c39.328-6.039,77.994-15.199,116.385-26.438c43.646-12.774,88.168-22.377,130.586-39.488c2.883-1.16,6.528-4.069,7.092-6.784
					c1.201-5.692,0.992-11.82,0.646-17.72c-2.109-35.999-4.926-71.963-6.537-107.99c-1.396-31.073-2.035-62.216-2.084-93.324
					c-0.191-97.068,0.035-194.13,0.111-291.197C6979.262-1868.753,6979.247-1888.649,6979.247-1910.602L6979.247-1910.602z"/>
			</defs>
			<clipPath id="SVGID_4_">
				<use xlink:href="#SVGID_3_"  overflow="visible"/>
			</clipPath>
			<g id="g4279" clip-path="url(#SVGID_4_)">
				<rect id="rect4281" x="6060.999" y="-1853.546" fill="#FFFFFF" width="943.075" height="610.673"/>
				<path id="path4283" fill="#ED2224" d="M6469.665-1853.546v244.268h-408.666v122.136h408.666v244.27h125.743v-244.27h408.666
					v-122.136h-408.666v-244.268H6469.665L6469.665-1853.546z"/>
				<path id="path4285" stroke="#000000" stroke-width="0.25" stroke-miterlimit="10" d="M6472.023-1602.54
					c-38.84,1.379-77.562,2.958-116.647,3.647c-41.987,0.113-83.998,0.165-126.039,0.451c-42.033,0.067-84.09-0.01-126.14-0.431
					c-50.729-0.208-101.467-1.025-152.229-1.81c-50.746-0.464-101.479-1.466-152.229-1.9c-30.232-0.474-60.483-0.343-90.711-0.332
					c-30.228,0.125-60.4,0.017-90.541,0.584c-47.986,0.211-95.699,2.563-147.279,3.722l-1.699-16.906
					c24.367-0.349,48.729-0.71,73.132-0.627c47.858,0.343,95.74-0.408,143.603,0.028c47.859,0.136,95.721,0.378,143.605,0.429
					c52.043,0.746,104.129,0.676,156.195,1.305c52.076,0.35,104.153,0.604,156.223,1.241c35.5,0.216,70.992,0.52,106.479,0.01
					c35.471,0.396,70.955-0.859,106.358-0.815c37.97-0.476,75.741-1.556,113.042-2.642l4.879,14.049V-1602.54L6472.023-1602.54z"/>
				<path id="path4287" stroke="#000000" stroke-width="0.25" stroke-miterlimit="10" d="M6472.023-1480.405
					c-38.84,1.38-77.562,2.957-116.647,3.646c-41.987,0.115-83.998,0.166-126.039,0.452c-42.033,0.067-84.09-0.01-126.14-0.431
					c-50.729-0.208-101.467-1.025-152.229-1.81c-50.746-0.463-101.479-1.466-152.229-1.9c-30.232-0.474-60.483-0.342-90.711-0.333
					c-30.228,0.126-60.4,0.018-90.541,0.585c-47.986,0.212-95.699,2.562-147.279,3.723l-1.699-16.907
					c24.367-0.349,48.729-0.711,73.132-0.627c47.858,0.342,95.74-0.408,143.603,0.029c47.859,0.135,95.721,0.377,143.605,0.428
					c52.043,0.745,104.129,0.677,156.195,1.305c52.076,0.35,104.153,0.606,156.223,1.241c35.5,0.215,70.992,0.52,106.479,0.01
					c35.471,0.396,70.955-0.858,106.358-0.814c37.97-0.478,75.741-1.559,113.042-2.643l4.879,14.049V-1480.405L6472.023-1480.405z"
					/>
				<path id="path4289" stroke="#000000" stroke-width="0.25" stroke-miterlimit="10" d="M7596.38-1602.54
					c-38.84,1.379-77.562,2.958-116.647,3.647c-41.986,0.113-83.998,0.165-126.039,0.451c-42.033,0.067-84.09-0.01-126.14-0.431
					c-50.729-0.208-101.467-1.025-152.229-1.81c-50.746-0.464-101.479-1.466-152.229-1.9c-30.232-0.474-60.484-0.343-90.711-0.332
					c-30.229,0.125-60.4,0.017-90.541,0.584c-47.986,0.211-95.699,2.563-147.281,3.722l-1.699-16.906
					c24.367-0.349,48.729-0.71,73.132-0.627c47.858,0.343,95.74-0.408,143.603,0.028c47.859,0.136,95.722,0.378,143.605,0.429
					c52.043,0.746,104.129,0.676,156.195,1.305c52.076,0.35,104.153,0.604,156.223,1.241c35.5,0.216,70.993,0.52,106.479,0.01
					c35.472,0.396,70.955-0.859,106.358-0.815c37.97-0.476,75.741-1.556,113.042-2.642l4.879,14.049L7596.38-1602.54z"/>
				<path id="path4291" stroke="#000000" stroke-width="0.25" stroke-miterlimit="10" d="M7596.38-1480.405
					c-38.84,1.38-77.562,2.957-116.647,3.646c-41.986,0.115-83.998,0.166-126.039,0.452c-42.033,0.067-84.09-0.01-126.14-0.431
					c-50.729-0.208-101.467-1.025-152.229-1.81c-50.746-0.463-101.479-1.466-152.229-1.9c-30.232-0.474-60.484-0.342-90.711-0.333
					c-30.229,0.126-60.4,0.018-90.541,0.585c-47.986,0.212-95.699,2.562-147.281,3.723l-1.699-16.907
					c24.367-0.349,48.729-0.711,73.132-0.627c47.858,0.342,95.74-0.408,143.603,0.029c47.859,0.135,95.722,0.377,143.605,0.428
					c52.043,0.745,104.129,0.677,156.195,1.305c52.076,0.35,104.153,0.606,156.223,1.241c35.5,0.215,70.993,0.52,106.479,0.01
					c35.472,0.396,70.955-0.858,106.358-0.814c37.97-0.478,75.741-1.559,113.042-2.643l4.879,14.049L7596.38-1480.405z"/>
				<path id="path4293" stroke="#000000" stroke-width="0.25" stroke-miterlimit="10" d="M6463.841-1601.719
					c-1.419-37.725-3.045-75.335-3.756-113.3c-0.115-40.783-0.169-81.588-0.463-122.423c-0.069-40.827,0.01-81.675,0.442-122.519
					c0.215-49.273,1.056-98.555,1.862-147.861c0.478-49.289,1.509-98.564,1.956-147.857c0.486-29.367,0.354-58.75,0.343-88.108
					c-0.13-29.357-0.019-58.668-0.603-87.939c-0.22-46.611-2.64-92.953-3.834-143.056l17.408-1.649
					c0.358,23.667,0.729,47.329,0.646,71.032c-0.354,46.486,0.419,92.992-0.029,139.479c-0.141,46.488-0.388,92.977-0.44,139.487
					c-0.769,50.549-0.694,101.141-1.342,151.713c-0.36,50.582-0.625,101.165-1.278,151.738c-0.222,34.479-0.535,68.955-0.01,103.425
					c-0.408,34.451,0.887,68.918,0.84,103.306c0.492,36.88,1.604,73.567,2.722,109.799L6463.841-1601.719L6463.841-1601.719z"/>
				<path id="path4295" stroke="#000000" stroke-width="0.25" stroke-miterlimit="10" d="M6591.682-1601.719
					c-1.42-37.725-3.045-75.335-3.756-113.3c-0.115-40.783-0.17-81.588-0.465-122.423c-0.067-40.827,0.01-81.675,0.444-122.519
					c0.213-49.273,1.056-98.555,1.86-147.861c0.479-49.289,1.51-98.564,1.957-147.857c0.487-29.367,0.354-58.75,0.344-88.108
					c-0.131-29.357-0.018-58.668-0.604-87.939c-0.217-46.611-2.64-92.953-3.832-143.056l17.406-1.649
					c0.358,23.667,0.729,47.329,0.646,71.032c-0.352,46.486,0.42,92.992-0.027,139.479c-0.143,46.488-0.391,92.977-0.442,139.487
					c-0.767,50.549-0.694,101.141-1.34,151.713c-0.36,50.582-0.625,101.165-1.278,151.738c-0.224,34.479-0.535,68.955-0.01,103.425
					c-0.408,34.451,0.885,68.918,0.838,103.306c0.492,36.88,1.604,73.567,2.723,109.799l-14.465,4.737l0,0V-1601.719z"/>
				<path id="path4297" stroke="#000000" stroke-width="0.25" stroke-miterlimit="10" d="M6463.841-516.755
					c-1.419-37.726-3.045-75.336-3.756-113.301c-0.115-40.782-0.169-81.588-0.463-122.422c-0.069-40.826,0.01-81.676,0.442-122.519
					c0.215-49.273,1.056-98.555,1.862-147.861c0.478-49.29,1.509-98.567,1.956-147.86c0.486-29.366,0.354-58.749,0.343-88.108
					c-0.13-29.359-0.019-58.668-0.603-87.94c-0.22-46.612-2.64-92.953-3.834-143.056l17.408-1.649
					c0.358,23.667,0.729,47.329,0.646,71.031c-0.354,46.487,0.419,92.994-0.029,139.479c-0.141,46.489-0.388,92.976-0.44,139.488
					c-0.769,50.55-0.694,101.141-1.342,151.714c-0.36,50.582-0.625,101.165-1.278,151.739c-0.222,34.48-0.535,68.954-0.01,103.424
					c-0.408,34.45,0.887,68.918,0.84,103.306c0.492,36.88,1.604,73.566,2.722,109.798L6463.841-516.755L6463.841-516.755z"/>
				<path id="path4299" stroke="#000000" stroke-width="0.25" stroke-miterlimit="10" d="M6591.682-516.755
					c-1.42-37.726-3.045-75.336-3.756-113.301c-0.115-40.782-0.17-81.588-0.465-122.422c-0.067-40.826,0.01-81.676,0.444-122.519
					c0.213-49.273,1.056-98.555,1.86-147.861c0.479-49.29,1.51-98.567,1.957-147.86c0.487-29.366,0.354-58.749,0.344-88.108
					c-0.131-29.359-0.018-58.668-0.604-87.94c-0.217-46.612-2.64-92.953-3.832-143.056l17.406-1.649
					c0.358,23.667,0.729,47.329,0.646,71.031c-0.352,46.487,0.42,92.994-0.027,139.479c-0.143,46.489-0.391,92.976-0.442,139.488
					c-0.767,50.55-0.694,101.141-1.34,151.714c-0.36,50.582-0.625,101.165-1.278,151.739c-0.224,34.48-0.535,68.954-0.01,103.424
					c-0.408,34.45,0.885,68.918,0.838,103.306c0.492,36.88,1.604,73.566,2.723,109.798L6591.682-516.755L6591.682-516.755
					L6591.682-516.755z"/>
				<path id="path4301" fill="#ED2224" stroke="#000000" stroke-width="8" stroke-miterlimit="10" d="M6707.109-1712.965
					c8.276-0.01,16.541,2.271,24.847,2.571c7.54,0.163,15.108-0.732,22.681-1.127c7.537-0.445,11.521-0.283,13.524,1.543
					c2,1.869,2.026,5.354,1.629,12.119c-0.056,0.913-0.067,1.374-0.171,2.136c-0.602,4.376-0.872,8.474-0.902,12.665
					c-0.026,3.966,0.17,8.575,0.562,12.473c0.383,4.153,0.931,8.646,1.587,12.723c0.648,4.3,1.393,8.799,2.182,12.84
					c5.828-0.98,11.567-0.78,17.321-1.508c5.744-0.502,11.442-0.829,17.125-1.494c0.244-0.475,0.524-0.812,0.485-1.269
					c-1.502-9.802-1.037-19.49-0.853-29.334c0.181-9.65,0.085-19.696-2.571-29.288c-0.918-3.358,0.461-5.723,5.51-5.678
					c5.311,0.245,10.674-0.434,15.951-0.584c6.699-0.647,13.375-1.049,20.082-1.741c6.701-0.579,13.424-1.271,20.174-1.823
					c0.338-8.252,0.653-15.56,0.931-23.098c0.14-3.83-1.735-5.879-6.155-5.775c-6.498,0.155-13.008,0.292-19.467,0.795
					c-8.688,0.679-17.318,1.863-26.014,2.473c-2.12,0.147-5.525-0.541-6.367-1.814c-2.477-3.776-5.418-8.006-5.581-12.117
					c-0.547-13.67,0.013-27.359,0.208-41.049c0.061-4.196,0.329-8.392,0.516-12.941c-9.979,0.344-19.297,0.665-28.248,0.971
					c-0.896,21.942-1.756,43.062-2.633,64.521c-6.304,0.258-12.605,0.671-18.912,0.746c-8.672,0.232-17.334,0.185-26.004,0.398
					c-8.67,0.095-11.01,0.269-19.687,0.471L6707.109-1712.965L6707.109-1712.965z"/>
				<path id="path4303" fill="#ED2224" stroke="#000000" stroke-width="12" stroke-miterlimit="10" d="M6195.753-1712.965
					c8.276-0.01,16.541,2.271,24.849,2.571c7.539,0.163,15.106-0.732,22.68-1.127c7.538-0.445,11.521-0.283,13.523,1.543
					c2,1.869,2.027,5.354,1.629,12.119c-0.054,0.913-0.067,1.374-0.17,2.136c-0.603,4.376-0.871,8.474-0.903,12.665
					c-0.026,3.966,0.171,8.575,0.562,12.473c0.385,4.153,0.931,8.646,1.588,12.723c0.647,4.3,1.392,8.799,2.182,12.84
					c5.829-0.98,11.568-0.78,17.322-1.508c5.742-0.502,11.442-0.829,17.125-1.494c0.244-0.475,0.523-0.812,0.484-1.269
					c-1.501-9.802-1.036-19.49-0.854-29.334c0.182-9.65,0.086-19.696-2.569-29.288c-0.918-3.358,0.459-5.723,5.51-5.678
					c5.31,0.245,10.674-0.434,15.951-0.584c6.696-0.647,13.375-1.049,20.082-1.741c6.701-0.579,13.422-1.271,20.174-1.823
					c0.337-8.252,0.651-15.56,0.931-23.098c0.139-3.83-1.736-5.879-6.158-5.775c-6.498,0.155-13.006,0.292-19.467,0.795
					c-8.688,0.679-17.317,1.863-26.013,2.473c-2.119,0.147-5.524-0.541-6.367-1.814c-2.478-3.776-5.418-8.006-5.582-12.117
					c-0.546-13.67,0.013-27.359,0.209-41.049c0.062-4.196,0.33-8.392,0.517-12.941c-9.979,0.344-19.299,0.665-28.25,0.971
					c-0.895,21.942-1.754,43.062-2.631,64.521c-6.305,0.258-12.606,0.671-18.912,0.746c-8.672,0.232-17.334,0.185-26.006,0.398
					c-8.668,0.095-11.008,0.269-19.686,0.471L6195.753-1712.965z"/>
				<path id="path4305" fill="#ED2224" stroke="#000000" stroke-width="12" stroke-miterlimit="10" d="M6707.109-1340.454
					c8.276-0.01,16.541,2.271,24.847,2.57c7.54,0.164,15.108-0.731,22.681-1.126c7.537-0.445,11.521-0.283,13.524,1.544
					c2,1.868,2.026,5.354,1.629,12.119c-0.056,0.912-0.067,1.373-0.171,2.135c-0.602,4.377-0.872,8.475-0.902,12.666
					c-0.026,3.965,0.17,8.574,0.562,12.471c0.383,4.154,0.931,8.648,1.587,12.725c0.648,4.3,1.393,8.798,2.182,12.84
					c5.828-0.98,11.567-0.782,17.321-1.509c5.744-0.503,11.442-0.829,17.125-1.494c0.244-0.474,0.524-0.812,0.485-1.269
					c-1.502-9.801-1.037-19.49-0.853-29.334c0.181-9.65,0.085-19.697-2.571-29.287c-0.918-3.358,0.461-5.723,5.51-5.679
					c5.311,0.245,10.674-0.433,15.951-0.583c6.699-0.647,13.375-1.05,20.082-1.741c6.701-0.579,13.424-1.271,20.174-1.824
					c0.338-8.253,0.653-15.56,0.931-23.098c0.14-3.829-1.735-5.88-6.155-5.776c-6.498,0.156-13.008,0.294-19.467,0.797
					c-8.688,0.678-17.318,1.862-26.014,2.473c-2.12,0.146-5.525-0.541-6.367-1.816c-2.477-3.775-5.418-8.005-5.581-12.115
					c-0.547-13.67,0.013-27.359,0.208-41.051c0.061-4.195,0.329-8.391,0.516-12.938c-9.979,0.343-19.297,0.665-28.248,0.971
					c-0.896,21.942-1.756,43.062-2.633,64.521c-6.304,0.257-12.605,0.671-18.912,0.746c-8.672,0.231-17.334,0.186-26.004,0.398
					c-8.67,0.096-11.01,0.269-19.687,0.471L6707.109-1340.454L6707.109-1340.454z"/>
				<path id="path4307" fill="#ED2224" stroke="#000000" stroke-width="12" stroke-miterlimit="10" d="M6195.753-1340.454
					c8.276-0.01,16.541,2.271,24.849,2.57c7.539,0.164,15.106-0.731,22.68-1.126c7.538-0.445,11.521-0.283,13.523,1.544
					c2,1.868,2.027,5.354,1.629,12.119c-0.054,0.912-0.067,1.373-0.17,2.135c-0.603,4.377-0.871,8.475-0.903,12.666
					c-0.026,3.965,0.171,8.574,0.562,12.471c0.385,4.154,0.931,8.648,1.588,12.725c0.647,4.3,1.392,8.798,2.182,12.84
					c5.829-0.98,11.568-0.782,17.322-1.509c5.742-0.503,11.442-0.829,17.125-1.494c0.244-0.474,0.523-0.812,0.484-1.269
					c-1.501-9.801-1.036-19.49-0.854-29.334c0.182-9.65,0.086-19.697-2.569-29.287c-0.918-3.358,0.459-5.723,5.51-5.679
					c5.31,0.245,10.674-0.433,15.951-0.583c6.696-0.647,13.375-1.05,20.082-1.741c6.701-0.579,13.422-1.271,20.174-1.824
					c0.337-8.253,0.651-15.56,0.931-23.098c0.139-3.829-1.736-5.88-6.158-5.776c-6.498,0.156-13.006,0.294-19.467,0.797
					c-8.688,0.678-17.317,1.862-26.013,2.473c-2.119,0.146-5.524-0.541-6.367-1.816c-2.478-3.775-5.418-8.005-5.582-12.115
					c-0.546-13.67,0.013-27.359,0.209-41.051c0.062-4.195,0.33-8.391,0.517-12.938c-9.979,0.343-19.299,0.665-28.25,0.971
					c-0.895,21.942-1.754,43.062-2.631,64.521c-6.305,0.257-12.606,0.671-18.912,0.746c-8.672,0.231-17.334,0.186-26.006,0.398
					c-8.668,0.096-11.008,0.269-19.686,0.471L6195.753-1340.454L6195.753-1340.454z"/>
				<path id="path4309" fill="#ED2224" stroke="#000000" stroke-width="12" stroke-miterlimit="10" d="M6694.766-1708.698
					c9.608-0.01,19.203,2.637,28.847,2.986c8.754,0.189,17.539-0.85,26.329-1.31c8.751-0.516,13.376-0.327,15.702,1.792
					c2.319,2.171,2.354,6.217,1.892,14.071c-0.062,1.058-0.08,1.594-0.199,2.478c-0.696,5.081-1.013,9.838-1.049,14.703
					c-0.03,4.604,0.199,9.955,0.649,14.479c0.444,4.821,1.08,10.037,1.845,14.771c0.752,4.991,1.613,10.213,2.53,14.905
					c6.769-1.14,13.431-0.907,20.108-1.751c6.668-0.583,13.285-0.963,19.881-1.735c0.283-0.551,0.609-0.943,0.563-1.472
					c-1.742-11.379-1.203-22.626-0.987-34.055c0.207-11.203,0.101-22.867-2.984-34c-1.064-3.898,0.534-6.644,6.396-6.593
					c6.164,0.285,12.393-0.502,18.519-0.677c7.776-0.753,15.526-1.218,23.313-2.022c7.777-0.671,15.582-1.473,23.42-2.117
					c0.391-9.578,0.758-18.062,1.08-26.813c0.158-4.445-2.019-6.825-7.15-6.704c-7.543,0.18-15.1,0.339-22.598,0.923
					c-10.086,0.787-20.107,2.163-30.197,2.87c-2.462,0.172-6.416-0.626-7.393-2.108c-2.873-4.382-6.291-9.293-6.48-14.063
					c-0.633-15.871,0.016-31.763,0.243-47.656c0.069-4.871,0.382-9.742,0.599-15.023c-11.584,0.399-22.402,0.771-32.795,1.127
					c-1.039,25.474-2.039,49.99-3.056,74.904c-7.317,0.299-14.636,0.778-21.956,0.864c-10.066,0.271-20.123,0.216-30.189,0.463
					c-10.062,0.112-12.778,0.312-22.852,0.547L6694.766-1708.698L6694.766-1708.698z"/>
			</g>
		</g>
	</g>
</g>
</svg>
