<?xml version="1.0" encoding="utf-8"?>
<!-- Generator: Adobe Illustrator 16.0.1, SVG Export Plug-In . SVG Version: 6.00 Build 0)  -->
<!DOCTYPE svg PUBLIC "-//W3C//DTD SVG 1.1//EN" "http://www.w3.org/Graphics/SVG/1.1/DTD/svg11.dtd">
<svg version="1.1" id="Layer_1" xmlns="http://www.w3.org/2000/svg" xmlns:xlink="http://www.w3.org/1999/xlink" x="0px" y="0px"
	 width="961.432px" height="707.911px" viewBox="0 0 961.432 707.911" enable-background="new 0 0 961.432 707.911"
	 xml:space="preserve">
<g>
	<path d="M951.139,251.366c1.109,75.055,1.695,150.117,3.529,225.15c1.055,42.389,4.081,84.732,6.425,127.086
		c0.661,11.885-1.014,14.902-15.056,19.178c-40.836,12.449-81.858,24.209-122.611,36.936
		c-47.971,14.992-96.783,25.662-146.264,33.434c-65.631,10.305-131.58,18.604-197.859,10.766
		c-35.873-4.238-71.478-12.559-106.592-21.576c-56.277-14.447-113.127-24.512-170.879-28.221
		c-47.316-3.033-94.729-4.301-142.1-6.418c-10.657-0.477-20.197,0.877-29.021,8.811c-9.299,8.375-20.831,4.129-22.665-8.732
		c-3.315-23.143-6.094-46.572-6.479-69.928c-0.745-44.889-0.234-89.812,0.807-134.701c1.592-68.707,3.825-137.406,6.272-206.085
		c1.758-49.08,4.584-98.099-0.696-147.166c-1.048-9.623,0.083-19.611,1.075-29.331C10.32,47.964,19.537,39.548,30.78,43.76
		c32.371,12.125,64.35,3.212,96.604,1.075c93.528-6.19,185.845-2.585,275.375,32.04c24.458,9.458,51.549,13.663,77.743,15.669
		c42.188,3.219,84.844,5.811,126.893,2.626c35.13-2.654,70.01-12.498,104.339-21.817c48.64-13.194,96.438-29.8,145.069-43.049
		c25.657-6.997,51.411-12.422,74.738-26.657c10.926-6.679,20.735,0.648,20.742,13.967c0.041,77.915,0.014,155.824,0.014,233.739
		C951.918,251.359,951.531,251.359,951.139,251.366z M932.334,26.988c-4.791,2.288-7.632,3.777-10.575,5.018
		c-8.961,3.757-17.723,8.286-26.967,10.905c-14.737,4.164-30.062,6.136-44.689,10.616c-27.813,8.521-55.14,18.791-82.987,27.167
		c-27.851,8.375-55.893,16.323-84.23,22.609c-26.05,5.784-52.526,12.14-78.936,12.843c-43.614,1.165-87.422-0.469-130.934-3.964
		c-25.719-2.061-51.604-7.92-76.351-15.717C361.916,85.526,327.76,71.788,291.473,68.5c-39.416-3.571-79.053-4.729-118.62-5.825
		c-19.584-0.538-39.754-1.248-58.725,2.854c-27.87,6.012-54.851,7.452-81.887-1.93c-8.064-2.799-8.438,0.345-7.638,7.293
		c1.861,16.289,4.067,32.619,4.48,48.984c0.711,28.718,0.725,57.477,0.015,86.201c-0.745,30.316-2.854,60.6-4.047,90.909
		c-1.475,37.734-3.288,75.476-3.764,113.224c-0.627,50.867-0.275,101.746-0.027,152.619c0.104,23.299,0.972,46.592,1.523,71.236
		c7.417-2.082,12.925-4.799,18.516-4.998c24.65-0.904,49.425-2.646,73.979-1.172c46.412,2.791,92.881,6.203,139.018,11.973
		c36.955,4.633,73.56,12.615,110.142,20.039c35.908,7.287,71.3,18.916,107.495,22.816c37.184,4.006,75.173,2.695,112.632,0.496
		c34.61-2.031,69.077-7.631,103.428-12.932c39.029-6.025,77.404-15.166,115.505-26.381c43.317-12.746,87.504-22.328,129.602-39.402
		c2.861-1.158,6.479-4.061,7.038-6.77c1.192-5.68,0.985-11.795,0.643-17.682c-2.097-35.922-4.889-71.809-6.487-107.758
		c-1.386-31.006-2.021-62.08-2.067-93.121c-0.192-96.858,0.034-193.71,0.11-290.568C932.348,68.748,932.334,48.895,932.334,26.988z"
		/>
	<g>
		<path fill="none" d="M951.139,251.366c1.109,75.055,1.695,150.117,3.529,225.15c1.055,42.389,4.081,84.732,6.425,127.086
			c0.661,11.885-1.014,14.902-15.056,19.178c-40.836,12.449-81.858,24.209-122.611,36.936
			c-47.971,14.992-96.783,25.662-146.264,33.434c-65.631,10.305-131.58,18.604-197.859,10.766
			c-35.873-4.238-71.478-12.559-106.592-21.576c-56.277-14.447-113.127-24.512-170.879-28.221
			c-47.316-3.033-94.729-4.301-142.1-6.418c-10.657-0.477-20.197,0.877-29.021,8.811c-9.299,8.375-20.831,4.129-22.665-8.732
			c-3.315-23.143-6.094-46.572-6.479-69.928c-0.745-44.889-0.234-89.812,0.807-134.701c1.592-68.707,3.825-137.406,6.272-206.085
			c1.758-49.08,4.584-98.099-0.696-147.166c-1.048-9.623,0.083-19.611,1.075-29.331C10.32,47.964,19.537,39.548,30.78,43.76
			c32.371,12.125,64.35,3.212,96.604,1.075c93.528-6.19,185.845-2.585,275.375,32.04c24.458,9.458,51.549,13.663,77.743,15.669
			c42.188,3.219,84.844,5.811,126.893,2.626c35.13-2.654,70.01-12.498,104.339-21.817c48.64-13.194,96.438-29.8,145.069-43.049
			c25.657-6.997,51.411-12.422,74.738-26.657c10.926-6.679,20.735,0.648,20.742,13.967c0.041,77.915,0.014,155.824,0.014,233.739
			C951.918,251.359,951.531,251.359,951.139,251.366z M932.334,26.988c-4.791,2.288-7.632,3.777-10.575,5.018
			c-8.961,3.757-17.723,8.286-26.967,10.905c-14.737,4.164-30.062,6.136-44.689,10.616c-27.813,8.521-55.14,18.791-82.987,27.167
			c-27.851,8.375-55.893,16.323-84.23,22.609c-26.05,5.784-52.526,12.14-78.936,12.843c-43.614,1.165-87.422-0.469-130.934-3.964
			c-25.719-2.061-51.604-7.92-76.351-15.717C361.916,85.526,327.76,71.788,291.473,68.5c-39.416-3.571-79.053-4.729-118.62-5.825
			c-19.584-0.538-39.754-1.248-58.725,2.854c-27.87,6.012-54.851,7.452-81.887-1.93c-8.064-2.799-8.438,0.345-7.638,7.293
			c1.861,16.289,4.067,32.619,4.48,48.984c0.711,28.718,0.725,57.477,0.015,86.201c-0.745,30.316-2.854,60.6-4.047,90.909
			c-1.475,37.734-3.288,75.476-3.764,113.224c-0.627,50.867-0.275,101.746-0.027,152.619c0.104,23.299,0.972,46.592,1.523,71.236
			c7.417-2.082,12.925-4.799,18.516-4.998c24.65-0.904,49.425-2.646,73.979-1.172c46.412,2.791,92.881,6.203,139.018,11.973
			c36.955,4.633,73.56,12.615,110.142,20.039c35.908,7.287,71.3,18.916,107.495,22.816c37.184,4.006,75.173,2.695,112.632,0.496
			c34.61-2.031,69.077-7.631,103.428-12.932c39.029-6.025,77.404-15.166,115.505-26.381c43.317-12.746,87.504-22.328,129.602-39.402
			c2.861-1.158,6.479-4.061,7.038-6.77c1.192-5.68,0.985-11.795,0.643-17.682c-2.097-35.922-4.889-71.809-6.487-107.758
			c-1.386-31.006-2.021-62.08-2.067-93.121c-0.192-96.858,0.034-193.71,0.11-290.568C932.348,68.748,932.334,48.895,932.334,26.988z
			"/>
		<g>
			<path d="M931.985,26.988c0.018,0,0.032,0.168,0.049,0.502c0.01,0.334,0.022,0.833,0.042,1.497
				c0.016,1.327,0.039,3.311,0.07,5.933c0.021,5.244,0.055,13.045,0.098,23.272c0.048,20.454,0.118,50.614,0.209,89.436
				c-0.438,38.803-0.35,86.25,0.204,141.326c0.257,27.529,0.373,56.953,0.351,88.144c0.133,15.591,0.269,31.623,0.407,48.08
				c0.223,8.229,0.448,16.561,0.677,24.996c0.11,4.221,0.223,8.465,0.334,12.736c0.139,4.27,0.149,8.572,0.408,12.889
				c0.903,17.271,1.841,34.951,2.898,53.021c0.58,9.033,1.168,18.164,1.762,27.393c0.303,4.613,0.605,9.25,0.912,13.912
				c0.29,4.662,0.66,9.338,0.863,14.064c0.137,4.732,0.08,9.494-1.018,14.258c-0.436,1.195-1.205,2.203-2.078,3.055
				c-0.853,0.885-1.841,1.613-2.872,2.271c-1.03,0.66-2.192,1.141-3.302,1.555l-3.364,1.301c-2.246,0.869-4.496,1.74-6.753,2.613
				c-2.26,0.865-4.506,1.785-6.813,2.547c-4.594,1.594-9.206,3.195-13.842,4.805c-18.646,6.125-37.896,11.502-57.465,16.926
				c-4.899,1.322-9.821,2.65-14.765,3.982c-4.942,1.33-9.91,2.65-14.872,4.055c-9.928,2.793-19.99,5.498-30.106,8.281
				c-20.252,5.514-40.987,10.432-62.104,15.23l-3.981,0.783c-1.329,0.264-2.675,0.443-4.013,0.67
				c-2.679,0.438-5.362,0.873-8.05,1.311c-5.371,0.896-10.763,1.795-16.172,2.697c-10.837,1.65-21.75,3.312-32.736,4.986
				c-5.498,0.814-11.014,1.633-16.548,2.453l-4.153,0.617l-4.174,0.529c-2.785,0.354-5.574,0.711-8.368,1.066
				c-2.794,0.359-5.593,0.719-8.396,1.078l-4.207,0.543c-1.405,0.17-2.819,0.27-4.23,0.408c-5.647,0.52-11.313,1.045-16.998,1.57
				c-22.766,1.426-45.838,2.352-69.2,2.244c-11.683,0.002-23.427-0.527-35.221-1.283c-2.942-0.264-5.891-0.525-8.843-0.789
				l-4.43-0.396c-1.476-0.166-2.946-0.381-4.422-0.568c-2.948-0.393-5.9-0.783-8.857-1.176c-2.943-0.463-5.876-1.021-8.821-1.531
				c-5.896-0.955-11.722-2.322-17.602-3.508c-2.934-0.621-5.848-1.332-8.779-1.994c-2.927-0.676-5.864-1.33-8.787-2.051
				c-11.713-2.801-23.451-5.709-35.288-8.4c-2.952-0.705-5.934-1.277-8.903-1.926c-2.979-0.619-5.941-1.283-8.941-1.867
				c-5.985-1.205-11.984-2.414-17.998-3.625c-12.023-2.4-24.104-4.814-36.233-7.236c-6.094-1.051-12.198-2.104-18.316-3.16
				c-3.061-0.506-6.11-1.115-9.189-1.543c-3.076-0.436-6.156-0.873-9.24-1.311c-6.17-0.852-12.332-1.822-18.539-2.596
				c-6.22-0.693-12.451-1.391-18.695-2.088c-3.122-0.352-6.246-0.705-9.374-1.059l-4.694-0.533l-4.708-0.438
				c-6.281-0.59-12.575-1.182-18.88-1.773c-3.152-0.301-6.309-0.6-9.467-0.9c-3.158-0.307-6.328-0.52-9.497-0.785
				c-6.338-0.514-12.688-1.027-19.052-1.543c-6.346-0.646-12.715-1.148-19.098-1.617c-6.385-0.451-12.78-0.9-19.188-1.354
				c-1.602-0.102-3.205-0.227-4.809-0.305l-4.811-0.148c-3.209-0.094-6.42-0.188-9.634-0.279c-3.212-0.152-6.435-0.049-9.657,0.008
				c-3.223,0.059-6.448,0.119-9.676,0.178c-12.911,0.412-25.869,1.076-38.883,1.605c-0.832,0.018-1.58,0.107-2.355,0.172
				c-0.771,0.053-1.542,0.258-2.313,0.377c-0.77,0.17-1.538,0.381-2.308,0.57l-2.305,0.699l-4.635,1.529l-2.345,0.75l-3.25,0.959
				l-0.472,0.137l-0.234,0.07l-0.059,0.018c-0.008-0.012-0.004-0.039-0.006-0.057l-0.002-0.125l-0.021-0.986l-0.042-1.965
				l-0.044-2.494l-0.079-4.898c-0.04-3.27-0.081-6.539-0.122-9.812c-0.222-12.838-0.443-25.637-0.664-38.395
				c-0.322-12.764-0.414-25.48-0.589-38.154c-0.303-25.348-0.841-50.52-0.564-75.498c0.283-12.502,0.565-24.951,0.847-37.352
				c0.064-3.1,0.128-6.195,0.192-9.287c0.066-3.094,0.091-6.184,0.243-9.27c0.225-6.17,0.449-12.328,0.674-18.473
				c0.416-12.289,0.69-24.529,0.888-36.72c0.312-12.186,0.467-24.323,0.403-36.415c0.753-24.145,2.409-53.064,3.381-79.005
				c0.277-6.485,0.547-12.788,0.804-18.788c0.251-6,0.603-11.694,0.646-16.975c0.227-10.555,0.49-19.419,0.807-25.632
				c-0.026-2.334-0.054-4.741-0.082-7.215c-0.025-2.474-0.018-5.013-0.121-7.609c-0.135-5.194-0.275-10.622-0.42-16.224
				c-0.111-5.601-0.227-11.376-0.343-17.265c-0.024-1.472-0.05-2.951-0.074-4.438l-0.035-2.232l-0.113-2.229
				c-0.153-2.976-0.307-5.972-0.461-8.982c-0.885-12.038-2.292-24.277-3.62-36.298c-0.161-1.493-0.344-3.014-0.406-4.598
				c-0.039-0.787-0.02-1.614,0.075-2.474c0.14-0.866,0.34-1.842,1.063-2.761c0.201-0.213,0.409-0.425,0.629-0.613
				c0.243-0.153,0.496-0.299,0.75-0.433c0.5-0.187,1.035-0.345,1.493-0.354c0.964-0.096,1.785,0.052,2.588,0.199
				c1.573,0.325,3.036,0.888,4.384,1.321c5.459,1.931,10.964,3.343,16.35,4.4c10.781,2.131,21.792,2.593,32.653,2.029
				c5.434-0.325,10.835-0.905,16.194-1.681c5.365-0.764,10.646-1.848,15.943-2.894c10.647-2.152,21.432-2.858,32.087-3.014
				c10.667-0.14,21.231,0.231,31.712,0.498c5.242,0.134,10.466,0.267,15.67,0.399c5.204,0.127,10.388,0.29,15.552,0.496
				c5.163,0.192,10.308,0.384,15.432,0.575c2.562,0.101,5.118,0.201,7.669,0.302c2.551,0.134,5.097,0.268,7.637,0.402
				c10.158,0.575,20.248,0.917,30.227,1.722c4.995,0.337,9.968,0.673,14.919,1.007c4.944,0.291,9.903,0.685,14.811,1.293
				c19.594,2.946,37.969,8.453,55.664,14.279c17.71,5.828,34.802,12.133,52.069,17.092c8.617,2.537,17.301,4.611,25.979,6.521
				c2.182,0.426,4.36,0.85,6.537,1.273l3.266,0.628l3.279,0.532l6.556,1.046l6.579,0.839c2.188,0.308,4.39,0.503,6.59,0.696
				c2.2,0.188,4.395,0.423,6.6,0.57c4.413,0.26,8.826,0.52,13.243,0.78c4.416,0.246,8.836,0.493,13.263,0.74
				c2.214,0.106,4.426,0.271,6.646,0.323c2.22,0.062,4.439,0.123,6.663,0.185c7.271,0.247,14.406,0.489,21.467,0.729
				c3.526,0.175,7.042,0.153,10.543,0.218c3.501,0.054,6.991,0.107,10.479,0.16c3.486,0.062,6.971,0.123,10.457,0.186
				c1.744,0.023,3.489,0.087,5.236,0.08c1.747-0.016,3.496-0.032,5.248-0.049c7.01-0.054,14.067-0.108,21.238-0.164
				c1.793-0.012,3.592-0.024,5.398-0.037c1.797-0.084,3.602-0.169,5.415-0.254c1.812-0.105,3.639-0.132,5.467-0.303
				c1.828-0.172,3.666-0.345,5.515-0.519c7.396-0.696,14.921-1.869,22.654-3.191c3.859-0.722,7.776-1.456,11.748-2.262
				c3.967-0.84,8.004-1.656,12.101-2.583c8.194-1.807,16.693-3.711,25.47-5.873c24.473-6.021,48.188-12.671,70.231-19.205
				c1.38-0.401,2.753-0.801,4.12-1.197c1.358-0.421,2.711-0.84,4.058-1.257c2.69-0.836,5.354-1.663,7.99-2.481
				c2.638-0.817,5.245-1.626,7.822-2.425c2.576-0.803,5.104-1.667,7.608-2.481c10.007-3.314,19.497-6.458,28.341-9.388
				c2.217-0.717,4.402-1.423,6.556-2.119c2.165-0.667,4.298-1.325,6.399-1.973c4.201-1.299,8.274-2.56,12.223-3.78
				c0.99-0.294,1.955-0.635,2.942-0.886c0.987-0.255,1.965-0.507,2.935-0.758c1.939-0.502,3.847-0.995,5.72-1.48
				c1.864-0.521,3.729-0.877,5.55-1.27c1.82-0.388,3.608-0.769,5.364-1.143c7.007-1.512,13.512-2.722,19.347-4.274
				c1.465-0.363,2.896-0.718,4.292-1.063c0.35-0.087,0.695-0.173,1.041-0.259c0.336-0.111,0.67-0.223,1.002-0.333
				c0.664-0.22,1.318-0.438,1.967-0.652c1.294-0.43,2.554-0.849,3.779-1.256c1.199-0.487,2.365-0.962,3.496-1.422
				c1.132-0.462,2.229-0.911,3.293-1.347c1.051-0.468,2.068-0.921,3.054-1.359c1.971-0.876,3.808-1.692,5.507-2.447
				c1.703-0.754,3.271-1.446,4.698-2.078c1.406-0.658,2.676-1.252,3.808-1.781c4.511-2.188,6.806-3.363,6.806-3.363
				c-0.027-0.059-0.626,0.182-1.781,0.711c-1.148,0.542-2.863,1.352-5.131,2.424c-1.131,0.523-2.4,1.111-3.806,1.762
				c-1.43,0.633-2.996,1.326-4.7,2.08c-1.697,0.762-3.53,1.585-5.498,2.468c-0.982,0.443-1.997,0.902-3.046,1.376
				c-1.061,0.441-2.152,0.896-3.278,1.366c-1.127,0.468-2.287,0.95-3.481,1.446c-1.22,0.417-2.474,0.846-3.762,1.285
				c-0.645,0.221-1.297,0.443-1.958,0.67c-0.331,0.112-0.664,0.227-0.998,0.341c-0.344,0.089-0.688,0.179-1.037,0.269
				c-1.393,0.359-2.817,0.729-4.278,1.105c-5.817,1.612-12.311,2.897-19.298,4.498c-1.748,0.396-3.53,0.799-5.347,1.211
				c-1.812,0.416-3.672,0.796-5.526,1.343c-1.861,0.51-3.758,1.028-5.686,1.556c-0.964,0.264-1.936,0.529-2.916,0.798
				c-0.981,0.264-1.943,0.618-2.928,0.927c-3.927,1.279-7.979,2.6-12.156,3.961c-2.09,0.68-4.211,1.37-6.362,2.07
				c-2.142,0.73-4.314,1.472-6.519,2.223c-8.871,2.855-18.22,5.93-28.035,9.194c-2.454,0.815-4.938,1.642-7.452,2.478
				c-2.524,0.8-5.08,1.609-7.665,2.429c-2.583,0.823-5.195,1.656-7.839,2.499c-2.64,0.851-5.312,1.705-8.034,2.5
				c-21.696,6.615-45.369,13.543-71.133,19.757c-8.457,1.916-16.547,3.64-24.342,5.31c-7.79,1.69-15.3,3.245-22.628,4.645
				c-14.652,2.783-28.652,4.779-42.688,5.193c-7.008,0.141-13.996,0.281-21.059,0.423c-3.531,0.063-7.082,0.128-10.663,0.192
				c-3.581-0.047-7.192-0.094-10.845-0.142c-7.308-0.113-14.783-0.215-22.519-0.416c-7.729-0.369-15.719-0.781-24.062-1.25
				c-8.354-0.241-16.921-0.937-25.686-1.488c-4.38-0.293-8.807-0.59-13.272-0.889c-2.234-0.118-4.475-0.402-6.726-0.6
				c-2.249-0.231-4.515-0.396-6.77-0.729c-2.258-0.298-4.524-0.597-6.799-0.896c-2.271-0.324-4.535-0.733-6.813-1.098l-3.419-0.564
				l-3.411-0.662c-2.274-0.451-4.556-0.902-6.841-1.354c-9.106-1.977-18.223-4.266-27.271-6.871
				c-18.087-5.272-35.871-11.703-53.562-17.262c-17.668-5.585-35.304-10.3-52.551-12.592c-8.061-1.183-17.154-1.635-26.812-2.36
				c-2.415-0.17-4.868-0.342-7.354-0.517c-2.484-0.178-5.002-0.363-7.554-0.458c-5.1-0.239-10.311-0.482-15.593-0.729
				c-10.561-0.573-21.426-0.854-32.26-1.276c-10.838-0.408-21.65-0.815-32.129-1.21c-10.479-0.351-21.033-0.808-31.652-0.734
				c-10.609,0.088-21.325,0.747-31.87,2.876c-5.29,1.044-10.612,2.146-15.999,2.938c-5.386,0.805-10.818,1.428-16.291,1.811
				c-10.943,0.678-22.071,0.396-33.069-1.498c-5.483-0.994-10.929-2.344-16.243-4.146c-1.352-0.415-2.644-0.907-3.933-1.214
				c-0.324-0.096-0.646-0.144-0.966-0.198c-0.324-0.07-0.638-0.094-0.947-0.105c-0.625-0.048-1.206,0.04-1.627,0.265
				c-0.854,0.385-1.114,1.709-1.136,3.014c-0.025,1.323,0.11,2.703,0.263,4.084c0.632,5.572,1.308,11.151,1.905,16.77
				c0.303,2.807,0.605,5.619,0.909,8.435c0.246,2.823,0.494,5.651,0.741,8.483c0.294,2.828,0.397,5.678,0.54,8.527l0.213,4.279
				c0.072,1.427,0.154,2.855,0.15,4.282c0.075,5.71,0.151,11.437,0.228,17.179c0.085,5.742,0.17,11.501,0.256,17.274
				c0.026,2.888,0.134,5.778,0.1,8.673c-0.021,2.896-0.042,5.794-0.063,8.697c-0.166,5.809-0.294,11.632-0.394,17.471
				c-0.043,2.919-0.086,5.842-0.129,8.77c-0.062,2.926-0.009,5.859-0.159,8.791c-0.393,11.734-0.786,23.529-1.182,35.383
				c-0.345,11.861-0.892,23.75-1.412,35.708c-0.295,5.977-0.591,11.967-0.888,17.972c-0.273,6.007-0.577,12.027-0.921,18.06
				c-0.373,12.074-0.746,24.203-1.121,36.386c-0.252,12.18-0.505,24.413-0.759,36.697c-0.153,6.142-0.307,12.296-0.46,18.464
				c-0.113,3.082-0.1,6.172-0.129,9.264c-0.027,3.094-0.056,6.189-0.084,9.287c-0.13,12.395-0.336,24.84-0.647,37.336
				c0.308,24.965,0.419,50.139,0.298,75.484c-0.037,12.674-0.156,25.395,0.082,38.143c0.104,6.375,0.207,12.76,0.31,19.154
				c0.144,6.396,0.378,12.803,0.611,19.219c0.034,3.273,0.067,6.545,0.102,9.812l0.062,4.9l0.033,2.41l0.001,0.582l0.002,0.301
				c-0.02,0.076,0.042,0.043,0.087,0.031l0.14-0.037l1.59-0.453l2.322-0.729l4.658-1.516l2.365-0.701
				c0.805-0.197,1.604-0.412,2.416-0.588c0.826-0.127,1.635-0.334,2.475-0.391c0.834-0.064,1.683-0.156,2.484-0.168
				c13.002-0.461,25.968-1.053,38.907-1.441c3.236-0.055,6.471-0.109,9.702-0.168c3.232-0.055,6.461-0.162,9.689-0.02
				c3.229,0.082,6.455,0.162,9.679,0.244l4.834,0.119c1.608,0.064,3.21,0.178,4.814,0.266c6.415,0.367,12.819,0.736,19.212,1.104
				c6.394,0.357,12.775,0.721,19.141,1.189c6.363,0.574,12.715,1.148,19.055,1.723c3.169,0.287,6.34,0.52,9.5,0.838
				c3.161,0.311,6.319,0.621,9.475,0.932c6.312,0.598,12.611,1.191,18.898,1.787l4.715,0.432l4.701,0.523
				c3.133,0.346,6.262,0.689,9.389,1.035c6.256,0.676,12.499,1.35,18.73,2.02c6.223,0.748,12.411,1.697,18.602,2.527
				c3.095,0.428,6.186,0.854,9.273,1.281c3.09,0.418,6.145,1.02,9.215,1.52c6.131,1.051,12.25,2.1,18.356,3.145
				c12.12,2.533,24.188,5.055,36.199,7.564c6.007,1.246,11.998,2.49,17.978,3.73c2.992,0.598,5.972,1.277,8.953,1.912
				c2.977,0.66,5.969,1.246,8.924,1.959c11.854,2.73,23.599,5.646,35.305,8.416c2.923,0.715,5.854,1.359,8.777,2.023
				c2.928,0.648,5.841,1.346,8.768,1.953c5.863,1.15,11.683,2.477,17.553,3.381c2.928,0.512,5.845,1.078,8.77,1.551
				c2.937,0.402,5.866,0.807,8.794,1.207c1.464,0.195,2.924,0.418,4.391,0.592l4.407,0.42c2.938,0.283,5.871,0.564,8.801,0.846
				c11.741,0.836,23.444,1.457,35.1,1.525c23.301,0.246,46.372-0.627,69.082-2.365c5.666-0.533,11.314-1.066,16.948-1.598
				c1.406-0.139,2.814-0.238,4.218-0.406l4.199-0.541c2.798-0.355,5.592-0.713,8.38-1.068c2.789-0.352,5.573-0.701,8.354-1.053
				l4.167-0.521l4.15-0.611c5.529-0.812,11.04-1.623,16.533-2.432c5.496-0.779,10.963-1.664,16.416-2.502
				c5.448-0.861,10.895-1.658,16.295-2.561c5.389-0.947,10.76-1.895,16.109-2.834c2.677-0.473,5.347-0.943,8.012-1.414
				c1.331-0.246,2.669-0.447,3.989-0.73l3.958-0.854c21.188-4.174,41.946-8.936,62.151-14.51
				c10.096-2.814,20.104-5.602,30.024-8.518c4.953-1.465,9.906-2.852,14.834-4.248c4.925-1.404,9.828-2.801,14.713-4.193
				c19.593-5.328,38.845-10.561,57.487-16.531c4.635-1.568,9.245-3.131,13.837-4.686c2.31-0.742,4.554-1.643,6.812-2.486
				c2.256-0.854,4.506-1.703,6.751-2.553l3.363-1.271c1.162-0.43,2.147-0.826,3.106-1.428c0.946-0.594,1.87-1.266,2.64-2.053
				c0.8-0.76,1.459-1.654,1.787-2.549c0.188-0.389,0.251-1.018,0.342-1.586l0.265-1.721c0.075-0.574,0.21-1.141,0.236-1.725
				l0.103-1.746c0.201-2.318,0.113-4.668,0.097-7.004c-2.209-37.678-4.331-73.852-6.354-108.379
				c-0.304-4.316-0.359-8.619-0.54-12.891c-0.153-4.273-0.305-8.52-0.456-12.74c-0.303-8.441-0.601-16.777-0.896-25.008
				c-0.24-16.469-0.475-32.512-0.701-48.111c-0.101-31.191-0.171-60.615-0.119-88.146c0.534-57.157,0.121-102.524,0.544-141.328
				c0.213-38.821,0.378-68.981,0.49-89.436c0.021-10.228,0.041-18.028,0.053-23.272c-0.012-2.622-0.021-4.605-0.027-5.933
				c-0.012-0.664-0.021-1.163-0.026-1.497C932.012,27.156,932,26.988,931.985,26.988z"/>
		</g>
		<g>
			<path d="M951.145,251.715c0-0.024,0.347-0.051,1.157-0.08l0.285-0.011l-0.008-0.271c-0.21-7.026-0.206-51.068-0.431-125.353
				c0.21-20.346,0.286-42.957,0.239-67.702c-0.052-12.373-0.105-25.278-0.163-38.701c-0.006-1.678-0.02-3.365-0.238-5.037
				c-0.134-0.833-0.224-1.676-0.475-2.487l-0.32-1.229l-0.456-1.188c-1.197-3.155-3.538-5.999-6.689-7.365l-1.197-0.46l-1.257-0.266
				c-0.415-0.118-0.849-0.105-1.277-0.133c-0.429-0.005-0.856-0.084-1.285-0.008l-1.287,0.132c-0.429,0.051-0.842,0.196-1.264,0.289
				c-0.854,0.16-1.644,0.55-2.457,0.857c-1.562,0.748-3.08,1.666-4.649,2.553c-1.559,0.891-3.123,1.784-4.694,2.683
				c-1.548,0.944-3.201,1.701-4.849,2.487c-1.646,0.787-3.301,1.579-4.961,2.373c-0.822,0.418-1.679,0.763-2.536,1.104
				c-0.856,0.347-1.715,0.694-2.575,1.043c-1.721,0.696-3.449,1.395-5.184,2.097c-3.538,1.21-7.08,2.521-10.702,3.672
				c-3.639,1.091-7.278,2.304-11.002,3.304c-7.418,2.129-15.001,4.082-22.657,6.168c-3.843,0.996-7.667,2.174-11.542,3.272
				c-3.871,1.115-7.771,2.238-11.697,3.369c-15.742,4.396-31.795,9.416-48.328,14.379c-8.269,2.483-16.644,5-25.124,7.547
				c-4.241,1.269-8.51,2.544-12.805,3.828c-4.291,1.294-8.654,2.442-13.021,3.68c-8.728,2.469-17.559,4.967-26.491,7.494
				c-8.963,2.418-18.025,4.87-27.21,7.273c-18.369,4.776-37.275,9.287-56.881,12.173c-2.451,0.345-4.899,0.761-7.372,1.05
				c-2.477,0.256-4.957,0.512-7.445,0.769c-4.971,0.605-9.994,0.797-15.032,1.14c-5.037,0.381-10.109,0.498-15.204,0.664
				c-2.548,0.066-5.101,0.202-7.661,0.213c-2.56,0.016-5.126,0.032-7.697,0.048c-20.58,0.099-41.527-0.771-62.79-2.077
				c-5.316-0.341-10.649-0.736-16.003-1.166c-2.678-0.213-5.359-0.428-8.048-0.642c-2.688-0.251-5.381-0.503-8.079-0.755
				c-10.783-1.127-21.614-2.672-32.425-4.805c-10.815-2.101-21.563-5.012-32.133-8.697c-10.58-3.658-21.06-7.691-31.979-10.742
				c-21.456-7.165-43.84-12.634-66.795-16.508c-22.959-3.883-46.481-6.181-70.325-7.223c-23.825-1.471-48.02-1.59-72.453-0.778
				c-6.109,0.165-12.231,0.52-18.373,0.774c-6.141,0.3-12.291,0.722-18.463,1.078c-12.317,0.768-24.625,2.538-37.087,3.845
				c-6.228,0.634-12.492,1.142-18.798,1.368c-6.307,0.178-12.651,0.001-18.979-0.65c-6.334-0.64-12.605-1.995-18.74-3.828
				l-4.567-1.508l-2.167-0.664c-0.734-0.117-1.466-0.29-2.203-0.349c-2.943-0.226-5.957,0.451-8.383,2.162
				c-2.431,1.682-4.385,4.092-5.637,6.854c-1.293,2.771-1.926,5.755-2.211,8.89c-0.621,6.37-1.281,12.732-1.311,19.089
				c-0.064,3.186,0.154,6.332,0.445,9.504c0.283,3.22,0.566,6.442,0.85,9.669c0.26,3.228,0.609,6.453,0.787,9.693
				c0.159,3.24,0.318,6.484,0.478,9.732c1.472,25.979,1.103,52.223,0.221,78.596c-0.503,13.182-1.007,26.415-1.514,39.698
				c-0.461,13.284-0.925,26.619-1.39,40.005c-2.717,53.451-2.939,107.761-5.44,162.63c-0.442,13.453-0.623,26.873-0.817,40.248
				c-0.074,6.688-0.148,13.365-0.222,20.031c-0.028,3.334-0.056,6.664-0.084,9.992c0.041,3.328,0.082,6.652,0.123,9.975
				c0.166,13.287,0.332,26.525,0.497,39.717c0.033,3.297,0.067,6.592,0.102,9.883l0.043,4.934c0.004,1.646,0.023,3.287,0.117,4.922
				c0.139,3.271,0.278,6.541,0.417,9.807l0.197,4.896c0.081,1.631,0.248,3.258,0.366,4.885c0.449,6.521,0.738,13.045,1.449,19.527
				c0.311,3.244,0.621,6.486,0.931,9.727c0.317,3.238,0.745,6.463,1.114,9.689c0.396,3.221,0.743,6.465,1.185,9.654
				c0.46,3.133,1.646,6.195,3.722,8.584c1.074,1.135,2.294,2.191,3.754,2.805c0.351,0.184,0.708,0.35,1.094,0.441l1.132,0.342
				c0.782,0.086,1.559,0.291,2.354,0.229c1.591,0.068,3.151-0.363,4.653-0.863c1.463-0.625,2.881-1.381,4.131-2.383
				c1.275-0.951,2.444-2.1,3.768-3.025c1.284-0.982,2.669-1.824,4.075-2.613c2.844-1.531,5.917-2.605,9.063-3.283
				c3.156-0.646,6.375-0.918,9.584-0.953c3.214-0.018,6.409,0.146,9.604,0.215c12.779,0.342,25.508,0.525,38.188,0.49
				c25.319,0.846,55.63,2.365,82.861,3.719c3.403,0.174,6.759,0.346,10.051,0.514c1.646,0.086,3.276,0.172,4.888,0.256
				c1.611,0.127,3.205,0.252,4.778,0.377c6.293,0.52,12.27,0.998,17.796,1.508c5.511,0.648,10.58,1.246,15.083,1.775
				c2.249,0.281,4.357,0.533,6.304,0.809c1.94,0.312,3.725,0.604,5.337,0.863c4.875,0.537,10.057,1.109,15.483,1.707
				c5.404,0.771,11.053,1.576,16.882,2.406c1.457,0.213,2.925,0.43,4.403,0.646c1.473,0.25,2.956,0.5,4.448,0.754
				c2.983,0.52,6.004,1.045,9.054,1.576c3.048,0.543,6.132,1.059,9.225,1.648c3.086,0.621,6.192,1.248,9.313,1.879
				c3.12,0.637,6.254,1.275,9.396,1.914c3.141,0.641,6.26,1.404,9.392,2.105c3.129,0.719,6.255,1.438,9.372,2.152
				c1.558,0.363,3.112,0.729,4.664,1.09c1.545,0.391,3.086,0.779,4.624,1.17c6.143,1.572,12.219,3.129,18.168,4.652
				c5.93,1.557,11.731,3.076,17.348,4.551c11.239,2.906,22.475,5.521,33.665,7.988c11.216,2.338,22.381,4.588,33.559,6.291
				c11.155,1.828,22.311,3.148,33.404,4.152c5.559,0.396,11.089,0.881,16.618,1.068c2.764,0.109,5.519,0.293,8.274,0.342
				c2.755,0.055,5.504,0.109,8.249,0.166c2.743,0.076,5.484,0.016,8.221,0.012c2.736-0.029,5.467,0.004,8.19-0.07
				c5.449-0.156,10.881-0.229,16.283-0.521c10.812-0.416,21.523-1.248,32.14-2.141c21.221-1.949,42.021-4.688,62.352-8.021
				c20.435-2.791,40.192-5.727,59.418-9.16c19.216-3.49,37.902-7.406,56.229-11.795c18.298-4.502,36.221-9.496,53.919-15.061
				c17.729-5.48,35.39-11.041,53.166-16.766c14.556-4.641,28.616-8.902,42.633-13.137c7.015-2.098,14.016-4.189,21.064-6.297
				c3.521-1.07,7.109-2.027,10.505-3.283c3.322-1.287,6.822-2.799,8.307-5.74c1.506-2.938,1.297-6.836,1.157-10.57
				c-0.206-3.824-0.415-7.686-0.626-11.592c-0.431-7.811-0.869-15.805-1.321-24.045c-0.476-8.238-0.964-16.725-1.471-25.52
				c-0.479-8.799-0.975-17.91-1.489-27.396c-0.446-6.604-0.678-13.184-0.951-19.705c-0.248-6.521-0.494-12.988-0.738-19.383
				c-0.211-12.787-0.417-25.281-0.615-37.342c-0.321-24.123-0.62-46.517-0.881-66.06c-0.12-39.069-0.358-69.386-0.668-89.935
				c-0.289-20.55-0.573-31.331-0.573-31.331c-0.064,0.001-0.102,0.676-0.111,2.008c-0.011,1.333,0.003,3.323,0.039,5.955
				c0.1,5.265,0.248,13.097,0.442,23.371c0.402,20.547,0.996,50.859,1.763,89.919c0.091,19.543,0.474,41.273,0.996,65.061
				c0.277,11.893,0.567,24.301,0.87,37.209c0.211,6.451,0.522,13.023,0.787,19.721c0.289,6.697,0.507,13.52,0.941,20.451
				c0.348,9.082,0.703,17.752,1.104,26.102c0.478,8.346,0.937,16.373,1.383,24.188c0.491,7.809,0.969,15.4,1.438,22.875
				c0.245,3.734,0.488,7.441,0.731,11.131c0.114,1.846,0.263,3.68,0.351,5.525c0.092,1.842,0.146,3.691-0.049,5.545
				c-0.183,1.838-0.635,3.723-1.68,5.318c-1.031,1.605-2.57,2.797-4.184,3.723c-1.615,0.947-3.346,1.643-5.08,2.293
				c-1.739,0.643-3.51,1.211-5.276,1.756c-7.082,2.166-14.238,4.355-21.562,6.596c-14.654,4.461-30.027,8.996-46.846,13.895
				c-16.748,5.123-34.459,10.539-52.698,16.117c-18.231,5.646-37.157,10.918-56.322,15.629c-19.174,4.68-38.592,8.729-57.725,12.322
				c-4.79,0.869-9.557,1.734-14.295,2.596c-4.75,0.785-9.471,1.57-14.156,2.348c-9.368,1.553-18.61,2.947-27.653,4.324
				c-16.98,2.449-37.772,5.406-59.886,7.596c-11.059,1.066-22.44,1.982-33.825,2.449c-5.689,0.301-11.381,0.387-17.023,0.49
				c-2.82,0.064-5.632-0.006-8.424-0.008c-2.793-0.029-5.569-0.012-8.322-0.137c-2.752-0.078-5.509-0.154-8.271-0.23
				c-2.763-0.068-5.525-0.273-8.296-0.404c-5.543-0.229-11.09-0.752-16.659-1.186c-11.123-1.07-22.298-2.439-33.478-4.271
				c-11.198-1.709-22.389-3.92-33.646-6.154c-11.23-2.361-22.522-4.809-33.84-7.457c-11.271-2.814-22.612-5.646-34.023-8.498
				c-2.854-0.689-5.7-1.451-8.578-2.088c-2.875-0.65-5.754-1.305-8.637-1.959c-5.766-1.311-11.543-2.648-17.381-3.787
				c-2.914-0.596-5.832-1.189-8.754-1.785c-2.924-0.59-5.845-1.219-8.793-1.719c-5.887-1.057-11.791-2.115-17.713-3.176
				c-5.943-0.918-11.904-1.84-17.882-2.762l-4.488-0.676l-4.509-0.57c-3.008-0.379-6.02-0.76-9.036-1.141
				c-24.099-3.438-48.653-5.24-73.507-5.988c-24.838-1.008-49.904-2.145-75.22-3.475c-12.663-0.4-25.384-0.805-38.161-1.209
				c-3.194-0.084-6.408-0.256-9.53-0.238c-3.138,0.033-6.252,0.309-9.276,0.938c-3.012,0.666-5.926,1.703-8.616,3.18
				c-1.331,0.764-2.642,1.57-3.858,2.52l-0.919,0.701l-0.881,0.756c-0.554,0.482-1.244,1.043-1.919,1.588
				c-1.345,1.096-2.897,1.955-4.523,2.662c-1.677,0.586-3.439,1.086-5.278,1.035c-0.913,0.072-1.821-0.137-2.73-0.24
				c-0.444-0.115-0.886-0.25-1.327-0.379c-0.449-0.109-0.869-0.293-1.281-0.498c-1.712-0.705-3.148-1.904-4.397-3.201
				c-2.419-2.713-3.759-6.129-4.303-9.531c-0.492-3.275-0.867-6.461-1.3-9.701c-0.404-3.229-0.864-6.455-1.211-9.699
				c-0.334-3.248-0.668-6.498-1.003-9.752c-0.75-6.496-1.059-13.057-1.493-19.607c-3.35-52.426-0.523-105.643-0.229-159.496
				C3.964,385.364,5.07,331.08,6.371,277.577c0.641-13.382,1.182-26.716,1.65-40.001c0.553-13.283,1.068-26.515,1.481-39.695
				c0.802-26.356,1.013-52.539-0.448-78.415c-0.127-3.237-0.254-6.471-0.381-9.7c-0.146-3.229-0.468-6.441-0.698-9.658
				c-0.257-3.215-0.513-6.427-0.769-9.634c-0.274-3.236-0.475-6.498-0.389-9.735c0.075-6.483,0.779-12.892,1.431-19.259
				c0.304-3.212,1.002-6.495,2.413-9.471c1.373-2.988,3.524-5.663,6.277-7.551c2.742-1.923,6.215-2.705,9.521-2.433
				c0.827,0.068,1.64,0.257,2.457,0.395l2.357,0.726l4.482,1.481c6.021,1.799,12.18,3.128,18.416,3.743
				c6.231,0.627,12.492,0.782,18.731,0.576c6.241-0.254,12.457-0.795,18.65-1.473c12.408-1.273,24.771-2.98,37.173-3.67
				c6.183-0.316,12.344-0.695,18.495-0.953c6.153-0.213,12.284-0.526,18.404-0.656c24.476-0.672,48.695-0.505,72.591,0.655
				c23.904,0.967,47.485,3.362,70.508,7.266c23.023,3.896,45.479,9.307,67.15,16.112c10.851,3.355,21.369,7.613,31.842,11.348
				c10.45,3.76,21.136,6.678,31.905,8.732c10.764,2.088,21.562,3.535,32.316,4.538c2.691,0.22,5.377,0.438,8.059,0.657
				c2.688,0.18,5.371,0.36,8.048,0.54c5.354,0.359,10.688,0.681,16.003,0.948c21.231,1.401,42.128,2.41,62.656,2.458
				c2.564,0.003,5.126,0.006,7.68,0.009c2.555,0.007,5.1-0.109,7.642-0.158c5.081-0.129,10.144-0.209,15.166-0.553
				c5.023-0.306,10.041-0.461,14.987-1.03c2.479-0.239,4.951-0.478,7.417-0.715c2.463-0.271,4.906-0.672,7.352-0.999
				c19.55-2.754,38.447-7.165,56.808-11.912c9.18-2.389,18.24-4.845,27.195-7.287c8.914-2.572,17.727-5.115,26.436-7.628
				c4.351-1.279,8.695-2.468,12.974-3.803c4.28-1.322,8.535-2.638,12.766-3.943c8.456-2.618,16.809-5.202,25.054-7.755
				c16.502-5.09,32.524-10.208,48.276-14.67c3.928-1.145,7.829-2.281,11.701-3.41c3.879-1.108,7.705-2.294,11.553-3.296
				c7.672-2.099,15.247-4.046,22.641-6.149c3.719-0.99,7.332-2.183,10.957-3.253c3.604-1.128,7.117-2.41,10.637-3.589
				c1.724-0.684,3.438-1.364,5.146-2.042c0.854-0.339,1.706-0.677,2.558-1.014c0.854-0.332,1.702-0.667,2.519-1.072
				c1.647-0.771,3.29-1.538,4.924-2.303c1.637-0.762,3.28-1.493,4.816-2.41c1.627-0.891,3.243-1.776,4.851-2.656
				c0.81-0.442,1.617-0.884,2.421-1.323l1.291-0.681l0.646-0.335l0.686-0.263l1.367-0.519c0.473-0.13,0.955-0.232,1.431-0.348
				l0.715-0.165l0.736-0.07C938.53,0.07,939.018,0.001,939.51,0c1.98,0.008,3.941,0.497,5.695,1.367
				c1.758,0.893,3.185,2.248,4.373,3.718c0.535,0.779,1.102,1.539,1.484,2.389c0.467,0.814,0.769,1.686,1.084,2.548
				c0.325,0.859,0.474,1.761,0.714,2.635c0.13,0.891,0.279,1.78,0.361,2.668c0.033,0.884,0.097,1.792,0.101,2.647
				c-0.003,0.852-0.005,1.699-0.008,2.545c-0.017,13.524-0.031,26.362-0.048,38.599c-0.006,24.472,0.001,46.539-0.2,66.885
				c-0.404,74.284-0.611,118.326-0.472,125.353l0.006,0.287l-0.299,0.012c-0.406,0.015-0.694,0.025-0.884,0.033
				C951.23,251.694,951.145,251.705,951.145,251.715z"/>
		</g>
	</g>
</g>
<g>
	<g>
		<defs>
			<path id="SVGID_1_" d="M932.334,26.988c-4.791,2.288-7.632,3.777-10.575,5.018c-8.961,3.757-17.723,8.286-26.967,10.905
				c-14.737,4.164-30.062,6.136-44.689,10.616c-27.813,8.521-55.14,18.791-82.987,27.167c-27.851,8.375-55.893,16.323-84.23,22.609
				c-26.05,5.784-52.526,12.14-78.936,12.843c-43.614,1.165-87.422-0.469-130.934-3.964c-25.719-2.061-51.604-7.92-76.351-15.717
				C361.916,85.526,327.76,71.788,291.473,68.5c-39.416-3.571-79.053-4.729-118.62-5.825c-19.584-0.538-39.754-1.248-58.725,2.854
				c-27.87,6.012-54.851,7.452-81.887-1.93c-8.064-2.799-8.438,0.345-7.638,7.293c1.861,16.289,4.067,32.619,4.48,48.984
				c0.711,28.718,0.725,57.477,0.015,86.201c-0.745,30.316-2.854,60.6-4.047,90.909c-1.475,37.734-3.288,75.476-3.764,113.224
				c-0.627,50.867-0.275,101.746-0.027,152.619c0.104,23.299,0.972,46.592,1.523,71.236c7.417-2.082,12.925-4.799,18.516-4.998
				c24.65-0.904,49.425-2.646,73.979-1.172c46.412,2.791,92.881,6.203,139.018,11.973c36.955,4.633,73.56,12.615,110.142,20.039
				c35.908,7.287,71.3,18.916,107.495,22.816c37.184,4.006,75.173,2.695,112.632,0.496c34.61-2.031,69.077-7.631,103.428-12.932
				c39.029-6.025,77.404-15.166,115.505-26.381c43.317-12.746,87.504-22.328,129.602-39.402c2.861-1.158,6.479-4.061,7.038-6.77
				c1.192-5.68,0.985-11.795,0.643-17.682c-2.097-35.922-4.889-71.809-6.487-107.758c-1.386-31.006-2.021-62.08-2.067-93.121
				c-0.192-96.858,0.034-193.71,0.11-290.568C932.348,68.748,932.334,48.895,932.334,26.988z"/>
		</defs>
		<clipPath id="SVGID_2_">
			<use xlink:href="#SVGID_1_"  overflow="visible"/>
		</clipPath>
		
			<rect x="5.393" y="19.825" clip-path="url(#SVGID_2_)" stroke="#000000" stroke-width="0.25" stroke-miterlimit="10" width="946.904" height="231.527"/>
	</g>
	<g>
		<defs>
			<path id="SVGID_3_" d="M932.334,26.988c-4.791,2.288-7.632,3.777-10.575,5.018c-8.961,3.757-17.723,8.286-26.967,10.905
				c-14.737,4.164-30.062,6.136-44.689,10.616c-27.813,8.521-55.14,18.791-82.987,27.167c-27.851,8.375-55.893,16.323-84.23,22.609
				c-26.05,5.784-52.526,12.14-78.936,12.843c-43.614,1.165-87.422-0.469-130.934-3.964c-25.719-2.061-51.604-7.92-76.351-15.717
				C361.916,85.526,327.76,71.788,291.473,68.5c-39.416-3.571-79.053-4.729-118.62-5.825c-19.584-0.538-39.754-1.248-58.725,2.854
				c-27.87,6.012-54.851,7.452-81.887-1.93c-8.064-2.799-8.438,0.345-7.638,7.293c1.861,16.289,4.067,32.619,4.48,48.984
				c0.711,28.718,0.725,57.477,0.015,86.201c-0.745,30.316-2.854,60.6-4.047,90.909c-1.475,37.734-3.288,75.476-3.764,113.224
				c-0.627,50.867-0.275,101.746-0.027,152.619c0.104,23.299,0.972,46.592,1.523,71.236c7.417-2.082,12.925-4.799,18.516-4.998
				c24.65-0.904,49.425-2.646,73.979-1.172c46.412,2.791,92.881,6.203,139.018,11.973c36.955,4.633,73.56,12.615,110.142,20.039
				c35.908,7.287,71.3,18.916,107.495,22.816c37.184,4.006,75.173,2.695,112.632,0.496c34.61-2.031,69.077-7.631,103.428-12.932
				c39.029-6.025,77.404-15.166,115.505-26.381c43.317-12.746,87.504-22.328,129.602-39.402c2.861-1.158,6.479-4.061,7.038-6.77
				c1.192-5.68,0.985-11.795,0.643-17.682c-2.097-35.922-4.889-71.809-6.487-107.758c-1.386-31.006-2.021-62.08-2.067-93.121
				c-0.192-96.858,0.034-193.71,0.11-290.568C932.348,68.748,932.334,48.895,932.334,26.988z"/>
		</defs>
		<clipPath id="SVGID_4_">
			<use xlink:href="#SVGID_3_"  overflow="visible"/>
		</clipPath>
		<rect x="5.393" y="249.825" clip-path="url(#SVGID_4_)" fill="#ED1C24" width="946.904" height="211.527"/>
	</g>
	<g>
		<defs>
			<path id="SVGID_5_" d="M932.334,26.988c-4.791,2.288-7.632,3.777-10.575,5.018c-8.961,3.757-17.723,8.286-26.967,10.905
				c-14.737,4.164-30.062,6.136-44.689,10.616c-27.813,8.521-55.14,18.791-82.987,27.167c-27.851,8.375-55.893,16.323-84.23,22.609
				c-26.05,5.784-52.526,12.14-78.936,12.843c-43.614,1.165-87.422-0.469-130.934-3.964c-25.719-2.061-51.604-7.92-76.351-15.717
				C361.916,85.526,327.76,71.788,291.473,68.5c-39.416-3.571-79.053-4.729-118.62-5.825c-19.584-0.538-39.754-1.248-58.725,2.854
				c-27.87,6.012-54.851,7.452-81.887-1.93c-8.064-2.799-8.438,0.345-7.638,7.293c1.861,16.289,4.067,32.619,4.48,48.984
				c0.711,28.718,0.725,57.477,0.015,86.201c-0.745,30.316-2.854,60.6-4.047,90.909c-1.475,37.734-3.288,75.476-3.764,113.224
				c-0.627,50.867-0.275,101.746-0.027,152.619c0.104,23.299,0.972,46.592,1.523,71.236c7.417-2.082,12.925-4.799,18.516-4.998
				c24.65-0.904,49.425-2.646,73.979-1.172c46.412,2.791,92.881,6.203,139.018,11.973c36.955,4.633,73.56,12.615,110.142,20.039
				c35.908,7.287,71.3,18.916,107.495,22.816c37.184,4.006,75.173,2.695,112.632,0.496c34.61-2.031,69.077-7.631,103.428-12.932
				c39.029-6.025,77.404-15.166,115.505-26.381c43.317-12.746,87.504-22.328,129.602-39.402c2.861-1.158,6.479-4.061,7.038-6.77
				c1.192-5.68,0.985-11.795,0.643-17.682c-2.097-35.922-4.889-71.809-6.487-107.758c-1.386-31.006-2.021-62.08-2.067-93.121
				c-0.192-96.858,0.034-193.71,0.11-290.568C932.348,68.748,932.334,48.895,932.334,26.988z"/>
		</defs>
		<clipPath id="SVGID_6_">
			<use xlink:href="#SVGID_5_"  overflow="visible"/>
		</clipPath>
		<rect x="5.393" y="461.825" clip-path="url(#SVGID_6_)" fill="#F1E636" width="946.904" height="227.527"/>
	</g>
	<g>
		<defs>
			<path id="SVGID_7_" d="M932.334,26.988c-4.791,2.288-7.632,3.777-10.575,5.018c-8.961,3.757-17.723,8.286-26.967,10.905
				c-14.737,4.164-30.062,6.136-44.689,10.616c-27.813,8.521-55.14,18.791-82.987,27.167c-27.851,8.375-55.893,16.323-84.23,22.609
				c-26.05,5.784-52.526,12.14-78.936,12.843c-43.614,1.165-87.422-0.469-130.934-3.964c-25.719-2.061-51.604-7.92-76.351-15.717
				C361.916,85.526,327.76,71.788,291.473,68.5c-39.416-3.571-79.053-4.729-118.62-5.825c-19.584-0.538-39.754-1.248-58.725,2.854
				c-27.87,6.012-54.851,7.452-81.887-1.93c-8.064-2.799-8.438,0.345-7.638,7.293c1.861,16.289,4.067,32.619,4.48,48.984
				c0.711,28.718,0.725,57.477,0.015,86.201c-0.745,30.316-2.854,60.6-4.047,90.909c-1.475,37.734-3.288,75.476-3.764,113.224
				c-0.627,50.867-0.275,101.746-0.027,152.619c0.104,23.299,0.972,46.592,1.523,71.236c7.417-2.082,12.925-4.799,18.516-4.998
				c24.65-0.904,49.425-2.646,73.979-1.172c46.412,2.791,92.881,6.203,139.018,11.973c36.955,4.633,73.56,12.615,110.142,20.039
				c35.908,7.287,71.3,18.916,107.495,22.816c37.184,4.006,75.173,2.695,112.632,0.496c34.61-2.031,69.077-7.631,103.428-12.932
				c39.029-6.025,77.404-15.166,115.505-26.381c43.317-12.746,87.504-22.328,129.602-39.402c2.861-1.158,6.479-4.061,7.038-6.77
				c1.192-5.68,0.985-11.795,0.643-17.682c-2.097-35.922-4.889-71.809-6.487-107.758c-1.386-31.006-2.021-62.08-2.067-93.121
				c-0.192-96.858,0.034-193.71,0.11-290.568C932.348,68.748,932.334,48.895,932.334,26.988z"/>
		</defs>
		<clipPath id="SVGID_8_">
			<use xlink:href="#SVGID_7_"  overflow="visible"/>
		</clipPath>
		<path clip-path="url(#SVGID_8_)" stroke="#000000" stroke-width="0.25" stroke-miterlimit="10" d="M965.396,262.759
			c-30.982-0.07-61.683-0.221-92.234-0.322c-30.531-0.094-60.907,0.107-91.125-0.029c-30.214-0.95-60.326-0.703-90.402-0.215
			c-30.059,0.008-60.014-0.728-90.023-0.028c-27.473-0.198-54.895-0.919-82.399-0.179c-27.446-0.223-54.893-0.325-82.404,0.567
			c-27.436-0.396-54.913-0.332-82.396-0.272c-27.438-0.37-54.925-0.004-82.406-0.532c-45.284-1.018-90.759-8.962-136.237-11.133
			c-41.279-1.457-82.68,2.162-124.075,2.481l-7.368-26.613c30.843,0.678,61.734,1.406,92.624,2.771
			c30.893,0.604,61.747,2.876,92.633,3.013c36.442,1.079,72.911,0.875,109.353,1.955c36.471,0.383,72.92,0.581,109.338,1.735
			c36.459,0.051,72.891,1.413,109.337,1.733c36.451,0.272,72.894,0.71,109.318,0.941c46.459,0.939,92.922,0.581,135.254,0.064
			c42.375-0.907,80.545-0.631,110.507-0.718c50.594,4.03,76.511,5.43,89.514,0.928L965.396,262.759z"/>
	</g>
	<g>
		<defs>
			<path id="SVGID_9_" d="M932.334,26.988c-4.791,2.288-7.632,3.777-10.575,5.018c-8.961,3.757-17.723,8.286-26.967,10.905
				c-14.737,4.164-30.062,6.136-44.689,10.616c-27.813,8.521-55.14,18.791-82.987,27.167c-27.851,8.375-55.893,16.323-84.23,22.609
				c-26.05,5.784-52.526,12.14-78.936,12.843c-43.614,1.165-87.422-0.469-130.934-3.964c-25.719-2.061-51.604-7.92-76.351-15.717
				C361.916,85.526,327.76,71.788,291.473,68.5c-39.416-3.571-79.053-4.729-118.62-5.825c-19.584-0.538-39.754-1.248-58.725,2.854
				c-27.87,6.012-54.851,7.452-81.887-1.93c-8.064-2.799-8.438,0.345-7.638,7.293c1.861,16.289,4.067,32.619,4.48,48.984
				c0.711,28.718,0.725,57.477,0.015,86.201c-0.745,30.316-2.854,60.6-4.047,90.909c-1.475,37.734-3.288,75.476-3.764,113.224
				c-0.627,50.867-0.275,101.746-0.027,152.619c0.104,23.299,0.972,46.592,1.523,71.236c7.417-2.082,12.925-4.799,18.516-4.998
				c24.65-0.904,49.425-2.646,73.979-1.172c46.412,2.791,92.881,6.203,139.018,11.973c36.955,4.633,73.56,12.615,110.142,20.039
				c35.908,7.287,71.3,18.916,107.495,22.816c37.184,4.006,75.173,2.695,112.632,0.496c34.61-2.031,69.077-7.631,103.428-12.932
				c39.029-6.025,77.404-15.166,115.505-26.381c43.317-12.746,87.504-22.328,129.602-39.402c2.861-1.158,6.479-4.061,7.038-6.77
				c1.192-5.68,0.985-11.795,0.643-17.682c-2.097-35.922-4.889-71.809-6.487-107.758c-1.386-31.006-2.021-62.08-2.067-93.121
				c-0.192-96.858,0.034-193.71,0.11-290.568C932.348,68.748,932.334,48.895,932.334,26.988z"/>
		</defs>
		<clipPath id="SVGID_10_">
			<use xlink:href="#SVGID_9_"  overflow="visible"/>
		</clipPath>
		<path clip-path="url(#SVGID_10_)" stroke="#000000" stroke-width="0.25" stroke-miterlimit="10" d="M954.404,483.76
			c-36.896,1.688-73.693,3.707-110.776,4.248c-39.791-0.463-79.599-1.025-119.45-1.201c-39.833-0.535-79.674-1.309-119.482-2.666
			c-48.053-1.129-96.067-3.27-144.11-5.354c-48.048-1.555-96.048-4.002-144.102-5.506c-28.613-1.256-57.286-1.504-85.924-1.955
			c-28.648-0.258-57.228-0.906-85.826-0.432c-45.484-0.393-90.852,2.771-139.807,3.898l-0.424-28.072
			c23.11-0.203,46.22-0.424,69.334,0.09c45.32,1.309,90.742,0.805,136.055,2.271c45.34,0.963,90.67,2.102,136.039,2.932
			c49.256,2.039,98.61,2.73,147.9,4.576c49.315,1.385,98.641,2.617,147.932,4.477c33.617,0.906,67.227,1.959,100.889,1.658
			c33.575,1.205,67.285-0.33,100.827,0.293c36.011-0.207,71.871-1.414,107.292-2.637L954.404,483.76z"/>
	</g>
</g>
</svg>
