<?xml version="1.0" encoding="utf-8"?>
<!-- Generator: Adobe Illustrator 16.0.1, SVG Export Plug-In . SVG Version: 6.00 Build 0)  -->
<!DOCTYPE svg PUBLIC "-//W3C//DTD SVG 1.1//EN" "http://www.w3.org/Graphics/SVG/1.1/DTD/svg11.dtd">
<svg version="1.1" id="Layer_1" xmlns="http://www.w3.org/2000/svg" xmlns:xlink="http://www.w3.org/1999/xlink" x="0px" y="0px"
	 width="961.432px" height="707.911px" viewBox="0 0 961.432 707.911" enable-background="new 0 0 961.432 707.911"
	 xml:space="preserve">
<g>
	<g>
		<defs>
			<path id="SVGID_1_" d="M935.267,26.275c-4.825,2.293-7.688,3.785-10.653,5.028c-9.029,3.765-17.857,8.304-27.172,10.929
				c-14.851,4.173-30.291,6.149-45.029,10.64c-28.025,8.539-55.559,18.831-83.619,27.226c-28.062,8.394-56.318,16.358-84.871,22.658
				c-26.248,5.797-52.93,12.166-79.537,12.87c-43.947,1.168-88.088-0.469-131.93-3.972c-25.914-2.065-51.994-7.938-76.932-15.751
				C360.511,84.94,326.095,71.172,289.53,67.877c-39.717-3.579-79.654-4.74-119.522-5.838c-19.733-0.539-40.056-1.251-59.171,2.859
				c-28.082,6.025-55.268,7.469-82.51-1.934c-8.126-2.805-8.502,0.346-7.696,7.309c1.876,16.324,4.099,32.69,4.515,49.091
				c0.717,28.779,0.73,57.601,0.016,86.388c-0.752,30.382-2.877,60.731-4.078,91.106c-1.485,37.816-3.312,75.639-3.792,113.469
				c-0.632,50.977-0.278,101.967-0.028,152.949c0.105,23.35,0.98,46.693,1.535,71.391c7.473-2.086,13.023-4.809,18.658-5.01
				c24.836-0.904,49.801-2.652,74.541-1.174c46.766,2.799,93.588,6.217,140.076,12c37.236,4.643,74.117,12.643,110.979,20.082
				c36.183,7.303,71.841,18.957,108.313,22.867c37.464,4.014,75.743,2.701,113.486,0.496c34.875-2.037,69.604-7.646,104.216-12.959
				c39.328-6.039,77.994-15.199,116.384-26.438c43.646-12.775,88.169-22.377,130.587-39.488c2.883-1.16,6.529-4.07,7.092-6.785
				c1.201-5.691,0.992-11.818,0.646-17.719c-2.111-36-4.927-71.963-6.537-107.99c-1.396-31.074-2.035-62.217-2.084-93.324
				c-0.193-97.068,0.035-194.13,0.111-291.197C935.28,68.125,935.267,48.229,935.267,26.275z"/>
		</defs>
		<clipPath id="SVGID_2_">
			<use xlink:href="#SVGID_1_"  overflow="visible"/>
		</clipPath>
		<polygon clip-path="url(#SVGID_2_)" fill="#007DC5" points="940.31,711.629 940.31,593.153 11.833,593.153 11.833,711.629 		"/>
	</g>
	<g>
		<defs>
			<path id="SVGID_3_" d="M935.267,26.275c-4.825,2.293-7.688,3.785-10.653,5.028c-9.029,3.765-17.857,8.304-27.172,10.929
				c-14.851,4.173-30.291,6.149-45.029,10.64c-28.025,8.539-55.559,18.831-83.619,27.226c-28.062,8.394-56.318,16.358-84.871,22.658
				c-26.248,5.797-52.93,12.166-79.537,12.87c-43.947,1.168-88.088-0.469-131.93-3.972c-25.914-2.065-51.994-7.938-76.932-15.751
				C360.511,84.94,326.095,71.172,289.53,67.877c-39.717-3.579-79.654-4.74-119.522-5.838c-19.733-0.539-40.056-1.251-59.171,2.859
				c-28.082,6.025-55.268,7.469-82.51-1.934c-8.126-2.805-8.502,0.346-7.696,7.309c1.876,16.324,4.099,32.69,4.515,49.091
				c0.717,28.779,0.73,57.601,0.016,86.388c-0.752,30.382-2.877,60.731-4.078,91.106c-1.485,37.816-3.312,75.639-3.792,113.469
				c-0.632,50.977-0.278,101.967-0.028,152.949c0.105,23.35,0.98,46.693,1.535,71.391c7.473-2.086,13.023-4.809,18.658-5.01
				c24.836-0.904,49.801-2.652,74.541-1.174c46.766,2.799,93.588,6.217,140.076,12c37.236,4.643,74.117,12.643,110.979,20.082
				c36.183,7.303,71.841,18.957,108.313,22.867c37.464,4.014,75.743,2.701,113.486,0.496c34.875-2.037,69.604-7.646,104.216-12.959
				c39.328-6.039,77.994-15.199,116.384-26.438c43.646-12.775,88.169-22.377,130.587-39.488c2.883-1.16,6.529-4.07,7.092-6.785
				c1.201-5.691,0.992-11.818,0.646-17.719c-2.111-36-4.927-71.963-6.537-107.99c-1.396-31.074-2.035-62.217-2.084-93.324
				c-0.193-97.068,0.035-194.13,0.111-291.197C935.28,68.125,935.267,48.229,935.267,26.275z"/>
		</defs>
		<clipPath id="SVGID_4_">
			<use xlink:href="#SVGID_3_"  overflow="visible"/>
		</clipPath>
		<path clip-path="url(#SVGID_4_)" fill="none" stroke="#000000" stroke-width="0.5" d="M476.069,357.522"/>
	</g>
	<g>
		<defs>
			<path id="SVGID_5_" d="M935.267,26.275c-4.825,2.293-7.688,3.785-10.653,5.028c-9.029,3.765-17.857,8.304-27.172,10.929
				c-14.851,4.173-30.291,6.149-45.029,10.64c-28.025,8.539-55.559,18.831-83.619,27.226c-28.062,8.394-56.318,16.358-84.871,22.658
				c-26.248,5.797-52.93,12.166-79.537,12.87c-43.947,1.168-88.088-0.469-131.93-3.972c-25.914-2.065-51.994-7.938-76.932-15.751
				C360.511,84.94,326.095,71.172,289.53,67.877c-39.717-3.579-79.654-4.74-119.522-5.838c-19.733-0.539-40.056-1.251-59.171,2.859
				c-28.082,6.025-55.268,7.469-82.51-1.934c-8.126-2.805-8.502,0.346-7.696,7.309c1.876,16.324,4.099,32.69,4.515,49.091
				c0.717,28.779,0.73,57.601,0.016,86.388c-0.752,30.382-2.877,60.731-4.078,91.106c-1.485,37.816-3.312,75.639-3.792,113.469
				c-0.632,50.977-0.278,101.967-0.028,152.949c0.105,23.35,0.98,46.693,1.535,71.391c7.473-2.086,13.023-4.809,18.658-5.01
				c24.836-0.904,49.801-2.652,74.541-1.174c46.766,2.799,93.588,6.217,140.076,12c37.236,4.643,74.117,12.643,110.979,20.082
				c36.183,7.303,71.841,18.957,108.313,22.867c37.464,4.014,75.743,2.701,113.486,0.496c34.875-2.037,69.604-7.646,104.216-12.959
				c39.328-6.039,77.994-15.199,116.384-26.438c43.646-12.775,88.169-22.377,130.587-39.488c2.883-1.16,6.529-4.07,7.092-6.785
				c1.201-5.691,0.992-11.818,0.646-17.719c-2.111-36-4.927-71.963-6.537-107.99c-1.396-31.074-2.035-62.217-2.084-93.324
				c-0.193-97.068,0.035-194.13,0.111-291.197C935.28,68.125,935.267,48.229,935.267,26.275z"/>
		</defs>
		<clipPath id="SVGID_6_">
			<use xlink:href="#SVGID_5_"  overflow="visible"/>
		</clipPath>
		<polygon clip-path="url(#SVGID_6_)" fill="#007DC5" points="940.31,125.738 940.31,25.304 11.833,25.304 11.833,125.738 		"/>
	</g>
	<g>
		<defs>
			<path id="SVGID_7_" d="M935.267,26.275c-4.825,2.293-7.688,3.785-10.653,5.028c-9.029,3.765-17.857,8.304-27.172,10.929
				c-14.851,4.173-30.291,6.149-45.029,10.64c-28.025,8.539-55.559,18.831-83.619,27.226c-28.062,8.394-56.318,16.358-84.871,22.658
				c-26.248,5.797-52.93,12.166-79.537,12.87c-43.947,1.168-88.088-0.469-131.93-3.972c-25.914-2.065-51.994-7.938-76.932-15.751
				C360.511,84.94,326.095,71.172,289.53,67.877c-39.717-3.579-79.654-4.74-119.522-5.838c-19.733-0.539-40.056-1.251-59.171,2.859
				c-28.082,6.025-55.268,7.469-82.51-1.934c-8.126-2.805-8.502,0.346-7.696,7.309c1.876,16.324,4.099,32.69,4.515,49.091
				c0.717,28.779,0.73,57.601,0.016,86.388c-0.752,30.382-2.877,60.731-4.078,91.106c-1.485,37.816-3.312,75.639-3.792,113.469
				c-0.632,50.977-0.278,101.967-0.028,152.949c0.105,23.35,0.98,46.693,1.535,71.391c7.473-2.086,13.023-4.809,18.658-5.01
				c24.836-0.904,49.801-2.652,74.541-1.174c46.766,2.799,93.588,6.217,140.076,12c37.236,4.643,74.117,12.643,110.979,20.082
				c36.183,7.303,71.841,18.957,108.313,22.867c37.464,4.014,75.743,2.701,113.486,0.496c34.875-2.037,69.604-7.646,104.216-12.959
				c39.328-6.039,77.994-15.199,116.384-26.438c43.646-12.775,88.169-22.377,130.587-39.488c2.883-1.16,6.529-4.07,7.092-6.785
				c1.201-5.691,0.992-11.818,0.646-17.719c-2.111-36-4.927-71.963-6.537-107.99c-1.396-31.074-2.035-62.217-2.084-93.324
				c-0.193-97.068,0.035-194.13,0.111-291.197C935.28,68.125,935.267,48.229,935.267,26.275z"/>
		</defs>
		<clipPath id="SVGID_8_">
			<use xlink:href="#SVGID_7_"  overflow="visible"/>
		</clipPath>
		<path clip-path="url(#SVGID_8_)" fill="#007DC5" d="M476.069,92.558"/>
	</g>
	<g>
		<defs>
			<path id="SVGID_9_" d="M935.267,26.275c-4.825,2.293-7.688,3.785-10.653,5.028c-9.029,3.765-17.857,8.304-27.172,10.929
				c-14.851,4.173-30.291,6.149-45.029,10.64c-28.025,8.539-55.559,18.831-83.619,27.226c-28.062,8.394-56.318,16.358-84.871,22.658
				c-26.248,5.797-52.93,12.166-79.537,12.87c-43.947,1.168-88.088-0.469-131.93-3.972c-25.914-2.065-51.994-7.938-76.932-15.751
				C360.511,84.94,326.095,71.172,289.53,67.877c-39.717-3.579-79.654-4.74-119.522-5.838c-19.733-0.539-40.056-1.251-59.171,2.859
				c-28.082,6.025-55.268,7.469-82.51-1.934c-8.126-2.805-8.502,0.346-7.696,7.309c1.876,16.324,4.099,32.69,4.515,49.091
				c0.717,28.779,0.73,57.601,0.016,86.388c-0.752,30.382-2.877,60.731-4.078,91.106c-1.485,37.816-3.312,75.639-3.792,113.469
				c-0.632,50.977-0.278,101.967-0.028,152.949c0.105,23.35,0.98,46.693,1.535,71.391c7.473-2.086,13.023-4.809,18.658-5.01
				c24.836-0.904,49.801-2.652,74.541-1.174c46.766,2.799,93.588,6.217,140.076,12c37.236,4.643,74.117,12.643,110.979,20.082
				c36.183,7.303,71.841,18.957,108.313,22.867c37.464,4.014,75.743,2.701,113.486,0.496c34.875-2.037,69.604-7.646,104.216-12.959
				c39.328-6.039,77.994-15.199,116.384-26.438c43.646-12.775,88.169-22.377,130.587-39.488c2.883-1.16,6.529-4.07,7.092-6.785
				c1.201-5.691,0.992-11.818,0.646-17.719c-2.111-36-4.927-71.963-6.537-107.99c-1.396-31.074-2.035-62.217-2.084-93.324
				c-0.193-97.068,0.035-194.13,0.111-291.197C935.28,68.125,935.267,48.229,935.267,26.275z"/>
		</defs>
		<clipPath id="SVGID_10_">
			<use xlink:href="#SVGID_9_"  overflow="visible"/>
		</clipPath>
		<polygon clip-path="url(#SVGID_10_)" fill="#FFFFFF" points="940.31,192.459 940.31,126.087 11.833,126.087 11.833,192.459 		"/>
	</g>
	<g>
		<defs>
			<path id="SVGID_11_" d="M935.267,26.275c-4.825,2.293-7.688,3.785-10.653,5.028c-9.029,3.765-17.857,8.304-27.172,10.929
				c-14.851,4.173-30.291,6.149-45.029,10.64c-28.025,8.539-55.559,18.831-83.619,27.226c-28.062,8.394-56.318,16.358-84.871,22.658
				c-26.248,5.797-52.93,12.166-79.537,12.87c-43.947,1.168-88.088-0.469-131.93-3.972c-25.914-2.065-51.994-7.938-76.932-15.751
				C360.511,84.94,326.095,71.172,289.53,67.877c-39.717-3.579-79.654-4.74-119.522-5.838c-19.733-0.539-40.056-1.251-59.171,2.859
				c-28.082,6.025-55.268,7.469-82.51-1.934c-8.126-2.805-8.502,0.346-7.696,7.309c1.876,16.324,4.099,32.69,4.515,49.091
				c0.717,28.779,0.73,57.601,0.016,86.388c-0.752,30.382-2.877,60.731-4.078,91.106c-1.485,37.816-3.312,75.639-3.792,113.469
				c-0.632,50.977-0.278,101.967-0.028,152.949c0.105,23.35,0.98,46.693,1.535,71.391c7.473-2.086,13.023-4.809,18.658-5.01
				c24.836-0.904,49.801-2.652,74.541-1.174c46.766,2.799,93.588,6.217,140.076,12c37.236,4.643,74.117,12.643,110.979,20.082
				c36.183,7.303,71.841,18.957,108.313,22.867c37.464,4.014,75.743,2.701,113.486,0.496c34.875-2.037,69.604-7.646,104.216-12.959
				c39.328-6.039,77.994-15.199,116.384-26.438c43.646-12.775,88.169-22.377,130.587-39.488c2.883-1.16,6.529-4.07,7.092-6.785
				c1.201-5.691,0.992-11.818,0.646-17.719c-2.111-36-4.927-71.963-6.537-107.99c-1.396-31.074-2.035-62.217-2.084-93.324
				c-0.193-97.068,0.035-194.13,0.111-291.197C935.28,68.125,935.267,48.229,935.267,26.275z"/>
		</defs>
		<clipPath id="SVGID_12_">
			<use xlink:href="#SVGID_11_"  overflow="visible"/>
		</clipPath>
		<path clip-path="url(#SVGID_12_)" fill="#FFFFFF" d="M476.069,159.28"/>
	</g>
	<g>
		<defs>
			<path id="SVGID_13_" d="M935.267,26.275c-4.825,2.293-7.688,3.785-10.653,5.028c-9.029,3.765-17.857,8.304-27.172,10.929
				c-14.851,4.173-30.291,6.149-45.029,10.64c-28.025,8.539-55.559,18.831-83.619,27.226c-28.062,8.394-56.318,16.358-84.871,22.658
				c-26.248,5.797-52.93,12.166-79.537,12.87c-43.947,1.168-88.088-0.469-131.93-3.972c-25.914-2.065-51.994-7.938-76.932-15.751
				C360.511,84.94,326.095,71.172,289.53,67.877c-39.717-3.579-79.654-4.74-119.522-5.838c-19.733-0.539-40.056-1.251-59.171,2.859
				c-28.082,6.025-55.268,7.469-82.51-1.934c-8.126-2.805-8.502,0.346-7.696,7.309c1.876,16.324,4.099,32.69,4.515,49.091
				c0.717,28.779,0.73,57.601,0.016,86.388c-0.752,30.382-2.877,60.731-4.078,91.106c-1.485,37.816-3.312,75.639-3.792,113.469
				c-0.632,50.977-0.278,101.967-0.028,152.949c0.105,23.35,0.98,46.693,1.535,71.391c7.473-2.086,13.023-4.809,18.658-5.01
				c24.836-0.904,49.801-2.652,74.541-1.174c46.766,2.799,93.588,6.217,140.076,12c37.236,4.643,74.117,12.643,110.979,20.082
				c36.183,7.303,71.841,18.957,108.313,22.867c37.464,4.014,75.743,2.701,113.486,0.496c34.875-2.037,69.604-7.646,104.216-12.959
				c39.328-6.039,77.994-15.199,116.384-26.438c43.646-12.775,88.169-22.377,130.587-39.488c2.883-1.16,6.529-4.07,7.092-6.785
				c1.201-5.691,0.992-11.818,0.646-17.719c-2.111-36-4.927-71.963-6.537-107.99c-1.396-31.074-2.035-62.217-2.084-93.324
				c-0.193-97.068,0.035-194.13,0.111-291.197C935.28,68.125,935.267,48.229,935.267,26.275z"/>
		</defs>
		<clipPath id="SVGID_14_">
			<use xlink:href="#SVGID_13_"  overflow="visible"/>
		</clipPath>
		<polygon clip-path="url(#SVGID_14_)" fill="#007DC5" points="940.31,259.183 940.31,192.819 11.833,192.819 11.833,259.183 		"/>
	</g>
	<g>
		<defs>
			<path id="SVGID_15_" d="M935.267,26.275c-4.825,2.293-7.688,3.785-10.653,5.028c-9.029,3.765-17.857,8.304-27.172,10.929
				c-14.851,4.173-30.291,6.149-45.029,10.64c-28.025,8.539-55.559,18.831-83.619,27.226c-28.062,8.394-56.318,16.358-84.871,22.658
				c-26.248,5.797-52.93,12.166-79.537,12.87c-43.947,1.168-88.088-0.469-131.93-3.972c-25.914-2.065-51.994-7.938-76.932-15.751
				C360.511,84.94,326.095,71.172,289.53,67.877c-39.717-3.579-79.654-4.74-119.522-5.838c-19.733-0.539-40.056-1.251-59.171,2.859
				c-28.082,6.025-55.268,7.469-82.51-1.934c-8.126-2.805-8.502,0.346-7.696,7.309c1.876,16.324,4.099,32.69,4.515,49.091
				c0.717,28.779,0.73,57.601,0.016,86.388c-0.752,30.382-2.877,60.731-4.078,91.106c-1.485,37.816-3.312,75.639-3.792,113.469
				c-0.632,50.977-0.278,101.967-0.028,152.949c0.105,23.35,0.98,46.693,1.535,71.391c7.473-2.086,13.023-4.809,18.658-5.01
				c24.836-0.904,49.801-2.652,74.541-1.174c46.766,2.799,93.588,6.217,140.076,12c37.236,4.643,74.117,12.643,110.979,20.082
				c36.183,7.303,71.841,18.957,108.313,22.867c37.464,4.014,75.743,2.701,113.486,0.496c34.875-2.037,69.604-7.646,104.216-12.959
				c39.328-6.039,77.994-15.199,116.384-26.438c43.646-12.775,88.169-22.377,130.587-39.488c2.883-1.16,6.529-4.07,7.092-6.785
				c1.201-5.691,0.992-11.818,0.646-17.719c-2.111-36-4.927-71.963-6.537-107.99c-1.396-31.074-2.035-62.217-2.084-93.324
				c-0.193-97.068,0.035-194.13,0.111-291.197C935.28,68.125,935.267,48.229,935.267,26.275z"/>
		</defs>
		<clipPath id="SVGID_16_">
			<use xlink:href="#SVGID_15_"  overflow="visible"/>
		</clipPath>
		<path clip-path="url(#SVGID_16_)" fill="#007DC5" d="M476.069,226.001"/>
	</g>
	<g>
		<defs>
			<path id="SVGID_17_" d="M935.267,26.275c-4.825,2.293-7.688,3.785-10.653,5.028c-9.029,3.765-17.857,8.304-27.172,10.929
				c-14.851,4.173-30.291,6.149-45.029,10.64c-28.025,8.539-55.559,18.831-83.619,27.226c-28.062,8.394-56.318,16.358-84.871,22.658
				c-26.248,5.797-52.93,12.166-79.537,12.87c-43.947,1.168-88.088-0.469-131.93-3.972c-25.914-2.065-51.994-7.938-76.932-15.751
				C360.511,84.94,326.095,71.172,289.53,67.877c-39.717-3.579-79.654-4.74-119.522-5.838c-19.733-0.539-40.056-1.251-59.171,2.859
				c-28.082,6.025-55.268,7.469-82.51-1.934c-8.126-2.805-8.502,0.346-7.696,7.309c1.876,16.324,4.099,32.69,4.515,49.091
				c0.717,28.779,0.73,57.601,0.016,86.388c-0.752,30.382-2.877,60.731-4.078,91.106c-1.485,37.816-3.312,75.639-3.792,113.469
				c-0.632,50.977-0.278,101.967-0.028,152.949c0.105,23.35,0.98,46.693,1.535,71.391c7.473-2.086,13.023-4.809,18.658-5.01
				c24.836-0.904,49.801-2.652,74.541-1.174c46.766,2.799,93.588,6.217,140.076,12c37.236,4.643,74.117,12.643,110.979,20.082
				c36.183,7.303,71.841,18.957,108.313,22.867c37.464,4.014,75.743,2.701,113.486,0.496c34.875-2.037,69.604-7.646,104.216-12.959
				c39.328-6.039,77.994-15.199,116.384-26.438c43.646-12.775,88.169-22.377,130.587-39.488c2.883-1.16,6.529-4.07,7.092-6.785
				c1.201-5.691,0.992-11.818,0.646-17.719c-2.111-36-4.927-71.963-6.537-107.99c-1.396-31.074-2.035-62.217-2.084-93.324
				c-0.193-97.068,0.035-194.13,0.111-291.197C935.28,68.125,935.267,48.229,935.267,26.275z"/>
		</defs>
		<clipPath id="SVGID_18_">
			<use xlink:href="#SVGID_17_"  overflow="visible"/>
		</clipPath>
		<polygon clip-path="url(#SVGID_18_)" fill="#FFFFFF" points="940.31,325.904 940.31,259.532 11.833,259.532 11.833,325.904 		"/>
	</g>
	<g>
		<defs>
			<path id="SVGID_19_" d="M935.267,26.275c-4.825,2.293-7.688,3.785-10.653,5.028c-9.029,3.765-17.857,8.304-27.172,10.929
				c-14.851,4.173-30.291,6.149-45.029,10.64c-28.025,8.539-55.559,18.831-83.619,27.226c-28.062,8.394-56.318,16.358-84.871,22.658
				c-26.248,5.797-52.93,12.166-79.537,12.87c-43.947,1.168-88.088-0.469-131.93-3.972c-25.914-2.065-51.994-7.938-76.932-15.751
				C360.511,84.94,326.095,71.172,289.53,67.877c-39.717-3.579-79.654-4.74-119.522-5.838c-19.733-0.539-40.056-1.251-59.171,2.859
				c-28.082,6.025-55.268,7.469-82.51-1.934c-8.126-2.805-8.502,0.346-7.696,7.309c1.876,16.324,4.099,32.69,4.515,49.091
				c0.717,28.779,0.73,57.601,0.016,86.388c-0.752,30.382-2.877,60.731-4.078,91.106c-1.485,37.816-3.312,75.639-3.792,113.469
				c-0.632,50.977-0.278,101.967-0.028,152.949c0.105,23.35,0.98,46.693,1.535,71.391c7.473-2.086,13.023-4.809,18.658-5.01
				c24.836-0.904,49.801-2.652,74.541-1.174c46.766,2.799,93.588,6.217,140.076,12c37.236,4.643,74.117,12.643,110.979,20.082
				c36.183,7.303,71.841,18.957,108.313,22.867c37.464,4.014,75.743,2.701,113.486,0.496c34.875-2.037,69.604-7.646,104.216-12.959
				c39.328-6.039,77.994-15.199,116.384-26.438c43.646-12.775,88.169-22.377,130.587-39.488c2.883-1.16,6.529-4.07,7.092-6.785
				c1.201-5.691,0.992-11.818,0.646-17.719c-2.111-36-4.927-71.963-6.537-107.99c-1.396-31.074-2.035-62.217-2.084-93.324
				c-0.193-97.068,0.035-194.13,0.111-291.197C935.28,68.125,935.267,48.229,935.267,26.275z"/>
		</defs>
		<clipPath id="SVGID_20_">
			<use xlink:href="#SVGID_19_"  overflow="visible"/>
		</clipPath>
		<path clip-path="url(#SVGID_20_)" fill="#FFFFFF" d="M476.069,292.724"/>
	</g>
	<g>
		<defs>
			<path id="SVGID_21_" d="M935.267,26.275c-4.825,2.293-7.688,3.785-10.653,5.028c-9.029,3.765-17.857,8.304-27.172,10.929
				c-14.851,4.173-30.291,6.149-45.029,10.64c-28.025,8.539-55.559,18.831-83.619,27.226c-28.062,8.394-56.318,16.358-84.871,22.658
				c-26.248,5.797-52.93,12.166-79.537,12.87c-43.947,1.168-88.088-0.469-131.93-3.972c-25.914-2.065-51.994-7.938-76.932-15.751
				C360.511,84.94,326.095,71.172,289.53,67.877c-39.717-3.579-79.654-4.74-119.522-5.838c-19.733-0.539-40.056-1.251-59.171,2.859
				c-28.082,6.025-55.268,7.469-82.51-1.934c-8.126-2.805-8.502,0.346-7.696,7.309c1.876,16.324,4.099,32.69,4.515,49.091
				c0.717,28.779,0.73,57.601,0.016,86.388c-0.752,30.382-2.877,60.731-4.078,91.106c-1.485,37.816-3.312,75.639-3.792,113.469
				c-0.632,50.977-0.278,101.967-0.028,152.949c0.105,23.35,0.98,46.693,1.535,71.391c7.473-2.086,13.023-4.809,18.658-5.01
				c24.836-0.904,49.801-2.652,74.541-1.174c46.766,2.799,93.588,6.217,140.076,12c37.236,4.643,74.117,12.643,110.979,20.082
				c36.183,7.303,71.841,18.957,108.313,22.867c37.464,4.014,75.743,2.701,113.486,0.496c34.875-2.037,69.604-7.646,104.216-12.959
				c39.328-6.039,77.994-15.199,116.384-26.438c43.646-12.775,88.169-22.377,130.587-39.488c2.883-1.16,6.529-4.07,7.092-6.785
				c1.201-5.691,0.992-11.818,0.646-17.719c-2.111-36-4.927-71.963-6.537-107.99c-1.396-31.074-2.035-62.217-2.084-93.324
				c-0.193-97.068,0.035-194.13,0.111-291.197C935.28,68.125,935.267,48.229,935.267,26.275z"/>
		</defs>
		<clipPath id="SVGID_22_">
			<use xlink:href="#SVGID_21_"  overflow="visible"/>
		</clipPath>
		<polygon clip-path="url(#SVGID_22_)" fill="#007DC5" points="940.31,392.627 940.31,326.255 11.833,326.255 11.833,392.627 		"/>
	</g>
	<g>
		<defs>
			<path id="SVGID_23_" d="M935.267,26.275c-4.825,2.293-7.688,3.785-10.653,5.028c-9.029,3.765-17.857,8.304-27.172,10.929
				c-14.851,4.173-30.291,6.149-45.029,10.64c-28.025,8.539-55.559,18.831-83.619,27.226c-28.062,8.394-56.318,16.358-84.871,22.658
				c-26.248,5.797-52.93,12.166-79.537,12.87c-43.947,1.168-88.088-0.469-131.93-3.972c-25.914-2.065-51.994-7.938-76.932-15.751
				C360.511,84.94,326.095,71.172,289.53,67.877c-39.717-3.579-79.654-4.74-119.522-5.838c-19.733-0.539-40.056-1.251-59.171,2.859
				c-28.082,6.025-55.268,7.469-82.51-1.934c-8.126-2.805-8.502,0.346-7.696,7.309c1.876,16.324,4.099,32.69,4.515,49.091
				c0.717,28.779,0.73,57.601,0.016,86.388c-0.752,30.382-2.877,60.731-4.078,91.106c-1.485,37.816-3.312,75.639-3.792,113.469
				c-0.632,50.977-0.278,101.967-0.028,152.949c0.105,23.35,0.98,46.693,1.535,71.391c7.473-2.086,13.023-4.809,18.658-5.01
				c24.836-0.904,49.801-2.652,74.541-1.174c46.766,2.799,93.588,6.217,140.076,12c37.236,4.643,74.117,12.643,110.979,20.082
				c36.183,7.303,71.841,18.957,108.313,22.867c37.464,4.014,75.743,2.701,113.486,0.496c34.875-2.037,69.604-7.646,104.216-12.959
				c39.328-6.039,77.994-15.199,116.384-26.438c43.646-12.775,88.169-22.377,130.587-39.488c2.883-1.16,6.529-4.07,7.092-6.785
				c1.201-5.691,0.992-11.818,0.646-17.719c-2.111-36-4.927-71.963-6.537-107.99c-1.396-31.074-2.035-62.217-2.084-93.324
				c-0.193-97.068,0.035-194.13,0.111-291.197C935.28,68.125,935.267,48.229,935.267,26.275z"/>
		</defs>
		<clipPath id="SVGID_24_">
			<use xlink:href="#SVGID_23_"  overflow="visible"/>
		</clipPath>
		<path clip-path="url(#SVGID_24_)" fill="#007DC5" d="M476.069,359.445"/>
	</g>
	<g>
		<defs>
			<path id="SVGID_25_" d="M935.267,26.275c-4.825,2.293-7.688,3.785-10.653,5.028c-9.029,3.765-17.857,8.304-27.172,10.929
				c-14.851,4.173-30.291,6.149-45.029,10.64c-28.025,8.539-55.559,18.831-83.619,27.226c-28.062,8.394-56.318,16.358-84.871,22.658
				c-26.248,5.797-52.93,12.166-79.537,12.87c-43.947,1.168-88.088-0.469-131.93-3.972c-25.914-2.065-51.994-7.938-76.932-15.751
				C360.511,84.94,326.095,71.172,289.53,67.877c-39.717-3.579-79.654-4.74-119.522-5.838c-19.733-0.539-40.056-1.251-59.171,2.859
				c-28.082,6.025-55.268,7.469-82.51-1.934c-8.126-2.805-8.502,0.346-7.696,7.309c1.876,16.324,4.099,32.69,4.515,49.091
				c0.717,28.779,0.73,57.601,0.016,86.388c-0.752,30.382-2.877,60.731-4.078,91.106c-1.485,37.816-3.312,75.639-3.792,113.469
				c-0.632,50.977-0.278,101.967-0.028,152.949c0.105,23.35,0.98,46.693,1.535,71.391c7.473-2.086,13.023-4.809,18.658-5.01
				c24.836-0.904,49.801-2.652,74.541-1.174c46.766,2.799,93.588,6.217,140.076,12c37.236,4.643,74.117,12.643,110.979,20.082
				c36.183,7.303,71.841,18.957,108.313,22.867c37.464,4.014,75.743,2.701,113.486,0.496c34.875-2.037,69.604-7.646,104.216-12.959
				c39.328-6.039,77.994-15.199,116.384-26.438c43.646-12.775,88.169-22.377,130.587-39.488c2.883-1.16,6.529-4.07,7.092-6.785
				c1.201-5.691,0.992-11.818,0.646-17.719c-2.111-36-4.927-71.963-6.537-107.99c-1.396-31.074-2.035-62.217-2.084-93.324
				c-0.193-97.068,0.035-194.13,0.111-291.197C935.28,68.125,935.267,48.229,935.267,26.275z"/>
		</defs>
		<clipPath id="SVGID_26_">
			<use xlink:href="#SVGID_25_"  overflow="visible"/>
		</clipPath>
		<polygon clip-path="url(#SVGID_26_)" fill="#FFFFFF" points="940.31,459.346 940.31,392.987 11.833,392.987 11.833,459.346 		"/>
	</g>
	<g>
		<defs>
			<path id="SVGID_27_" d="M935.267,26.275c-4.825,2.293-7.688,3.785-10.653,5.028c-9.029,3.765-17.857,8.304-27.172,10.929
				c-14.851,4.173-30.291,6.149-45.029,10.64c-28.025,8.539-55.559,18.831-83.619,27.226c-28.062,8.394-56.318,16.358-84.871,22.658
				c-26.248,5.797-52.93,12.166-79.537,12.87c-43.947,1.168-88.088-0.469-131.93-3.972c-25.914-2.065-51.994-7.938-76.932-15.751
				C360.511,84.94,326.095,71.172,289.53,67.877c-39.717-3.579-79.654-4.74-119.522-5.838c-19.733-0.539-40.056-1.251-59.171,2.859
				c-28.082,6.025-55.268,7.469-82.51-1.934c-8.126-2.805-8.502,0.346-7.696,7.309c1.876,16.324,4.099,32.69,4.515,49.091
				c0.717,28.779,0.73,57.601,0.016,86.388c-0.752,30.382-2.877,60.731-4.078,91.106c-1.485,37.816-3.312,75.639-3.792,113.469
				c-0.632,50.977-0.278,101.967-0.028,152.949c0.105,23.35,0.98,46.693,1.535,71.391c7.473-2.086,13.023-4.809,18.658-5.01
				c24.836-0.904,49.801-2.652,74.541-1.174c46.766,2.799,93.588,6.217,140.076,12c37.236,4.643,74.117,12.643,110.979,20.082
				c36.183,7.303,71.841,18.957,108.313,22.867c37.464,4.014,75.743,2.701,113.486,0.496c34.875-2.037,69.604-7.646,104.216-12.959
				c39.328-6.039,77.994-15.199,116.384-26.438c43.646-12.775,88.169-22.377,130.587-39.488c2.883-1.16,6.529-4.07,7.092-6.785
				c1.201-5.691,0.992-11.818,0.646-17.719c-2.111-36-4.927-71.963-6.537-107.99c-1.396-31.074-2.035-62.217-2.084-93.324
				c-0.193-97.068,0.035-194.13,0.111-291.197C935.28,68.125,935.267,48.229,935.267,26.275z"/>
		</defs>
		<clipPath id="SVGID_28_">
			<use xlink:href="#SVGID_27_"  overflow="visible"/>
		</clipPath>
		<path clip-path="url(#SVGID_28_)" fill="#FFFFFF" d="M476.069,426.168"/>
	</g>
	<g>
		<defs>
			<path id="SVGID_29_" d="M935.267,26.275c-4.825,2.293-7.688,3.785-10.653,5.028c-9.029,3.765-17.857,8.304-27.172,10.929
				c-14.851,4.173-30.291,6.149-45.029,10.64c-28.025,8.539-55.559,18.831-83.619,27.226c-28.062,8.394-56.318,16.358-84.871,22.658
				c-26.248,5.797-52.93,12.166-79.537,12.87c-43.947,1.168-88.088-0.469-131.93-3.972c-25.914-2.065-51.994-7.938-76.932-15.751
				C360.511,84.94,326.095,71.172,289.53,67.877c-39.717-3.579-79.654-4.74-119.522-5.838c-19.733-0.539-40.056-1.251-59.171,2.859
				c-28.082,6.025-55.268,7.469-82.51-1.934c-8.126-2.805-8.502,0.346-7.696,7.309c1.876,16.324,4.099,32.69,4.515,49.091
				c0.717,28.779,0.73,57.601,0.016,86.388c-0.752,30.382-2.877,60.731-4.078,91.106c-1.485,37.816-3.312,75.639-3.792,113.469
				c-0.632,50.977-0.278,101.967-0.028,152.949c0.105,23.35,0.98,46.693,1.535,71.391c7.473-2.086,13.023-4.809,18.658-5.01
				c24.836-0.904,49.801-2.652,74.541-1.174c46.766,2.799,93.588,6.217,140.076,12c37.236,4.643,74.117,12.643,110.979,20.082
				c36.183,7.303,71.841,18.957,108.313,22.867c37.464,4.014,75.743,2.701,113.486,0.496c34.875-2.037,69.604-7.646,104.216-12.959
				c39.328-6.039,77.994-15.199,116.384-26.438c43.646-12.775,88.169-22.377,130.587-39.488c2.883-1.16,6.529-4.07,7.092-6.785
				c1.201-5.691,0.992-11.818,0.646-17.719c-2.111-36-4.927-71.963-6.537-107.99c-1.396-31.074-2.035-62.217-2.084-93.324
				c-0.193-97.068,0.035-194.13,0.111-291.197C935.28,68.125,935.267,48.229,935.267,26.275z"/>
		</defs>
		<clipPath id="SVGID_30_">
			<use xlink:href="#SVGID_29_"  overflow="visible"/>
		</clipPath>
		<polygon clip-path="url(#SVGID_30_)" fill="#007DC5" points="940.31,526.071 940.31,459.7 11.833,459.7 11.833,526.071 		"/>
	</g>
	<g>
		<defs>
			<path id="SVGID_31_" d="M935.267,26.275c-4.825,2.293-7.688,3.785-10.653,5.028c-9.029,3.765-17.857,8.304-27.172,10.929
				c-14.851,4.173-30.291,6.149-45.029,10.64c-28.025,8.539-55.559,18.831-83.619,27.226c-28.062,8.394-56.318,16.358-84.871,22.658
				c-26.248,5.797-52.93,12.166-79.537,12.87c-43.947,1.168-88.088-0.469-131.93-3.972c-25.914-2.065-51.994-7.938-76.932-15.751
				C360.511,84.94,326.095,71.172,289.53,67.877c-39.717-3.579-79.654-4.74-119.522-5.838c-19.733-0.539-40.056-1.251-59.171,2.859
				c-28.082,6.025-55.268,7.469-82.51-1.934c-8.126-2.805-8.502,0.346-7.696,7.309c1.876,16.324,4.099,32.69,4.515,49.091
				c0.717,28.779,0.73,57.601,0.016,86.388c-0.752,30.382-2.877,60.731-4.078,91.106c-1.485,37.816-3.312,75.639-3.792,113.469
				c-0.632,50.977-0.278,101.967-0.028,152.949c0.105,23.35,0.98,46.693,1.535,71.391c7.473-2.086,13.023-4.809,18.658-5.01
				c24.836-0.904,49.801-2.652,74.541-1.174c46.766,2.799,93.588,6.217,140.076,12c37.236,4.643,74.117,12.643,110.979,20.082
				c36.183,7.303,71.841,18.957,108.313,22.867c37.464,4.014,75.743,2.701,113.486,0.496c34.875-2.037,69.604-7.646,104.216-12.959
				c39.328-6.039,77.994-15.199,116.384-26.438c43.646-12.775,88.169-22.377,130.587-39.488c2.883-1.16,6.529-4.07,7.092-6.785
				c1.201-5.691,0.992-11.818,0.646-17.719c-2.111-36-4.927-71.963-6.537-107.99c-1.396-31.074-2.035-62.217-2.084-93.324
				c-0.193-97.068,0.035-194.13,0.111-291.197C935.28,68.125,935.267,48.229,935.267,26.275z"/>
		</defs>
		<clipPath id="SVGID_32_">
			<use xlink:href="#SVGID_31_"  overflow="visible"/>
		</clipPath>
		<path clip-path="url(#SVGID_32_)" fill="#007DC5" d="M476.069,492.889"/>
	</g>
	<g>
		<defs>
			<path id="SVGID_33_" d="M935.267,26.275c-4.825,2.293-7.688,3.785-10.653,5.028c-9.029,3.765-17.857,8.304-27.172,10.929
				c-14.851,4.173-30.291,6.149-45.029,10.64c-28.025,8.539-55.559,18.831-83.619,27.226c-28.062,8.394-56.318,16.358-84.871,22.658
				c-26.248,5.797-52.93,12.166-79.537,12.87c-43.947,1.168-88.088-0.469-131.93-3.972c-25.914-2.065-51.994-7.938-76.932-15.751
				C360.511,84.94,326.095,71.172,289.53,67.877c-39.717-3.579-79.654-4.74-119.522-5.838c-19.733-0.539-40.056-1.251-59.171,2.859
				c-28.082,6.025-55.268,7.469-82.51-1.934c-8.126-2.805-8.502,0.346-7.696,7.309c1.876,16.324,4.099,32.69,4.515,49.091
				c0.717,28.779,0.73,57.601,0.016,86.388c-0.752,30.382-2.877,60.731-4.078,91.106c-1.485,37.816-3.312,75.639-3.792,113.469
				c-0.632,50.977-0.278,101.967-0.028,152.949c0.105,23.35,0.98,46.693,1.535,71.391c7.473-2.086,13.023-4.809,18.658-5.01
				c24.836-0.904,49.801-2.652,74.541-1.174c46.766,2.799,93.588,6.217,140.076,12c37.236,4.643,74.117,12.643,110.979,20.082
				c36.183,7.303,71.841,18.957,108.313,22.867c37.464,4.014,75.743,2.701,113.486,0.496c34.875-2.037,69.604-7.646,104.216-12.959
				c39.328-6.039,77.994-15.199,116.384-26.438c43.646-12.775,88.169-22.377,130.587-39.488c2.883-1.16,6.529-4.07,7.092-6.785
				c1.201-5.691,0.992-11.818,0.646-17.719c-2.111-36-4.927-71.963-6.537-107.99c-1.396-31.074-2.035-62.217-2.084-93.324
				c-0.193-97.068,0.035-194.13,0.111-291.197C935.28,68.125,935.267,48.229,935.267,26.275z"/>
		</defs>
		<clipPath id="SVGID_34_">
			<use xlink:href="#SVGID_33_"  overflow="visible"/>
		</clipPath>
		<polygon clip-path="url(#SVGID_34_)" fill="#FFFFFF" points="940.31,592.793 940.31,526.42 11.833,526.42 11.833,592.793 		"/>
	</g>
	<g>
		<defs>
			<path id="SVGID_35_" d="M935.267,26.275c-4.825,2.293-7.688,3.785-10.653,5.028c-9.029,3.765-17.857,8.304-27.172,10.929
				c-14.851,4.173-30.291,6.149-45.029,10.64c-28.025,8.539-55.559,18.831-83.619,27.226c-28.062,8.394-56.318,16.358-84.871,22.658
				c-26.248,5.797-52.93,12.166-79.537,12.87c-43.947,1.168-88.088-0.469-131.93-3.972c-25.914-2.065-51.994-7.938-76.932-15.751
				C360.511,84.94,326.095,71.172,289.53,67.877c-39.717-3.579-79.654-4.74-119.522-5.838c-19.733-0.539-40.056-1.251-59.171,2.859
				c-28.082,6.025-55.268,7.469-82.51-1.934c-8.126-2.805-8.502,0.346-7.696,7.309c1.876,16.324,4.099,32.69,4.515,49.091
				c0.717,28.779,0.73,57.601,0.016,86.388c-0.752,30.382-2.877,60.731-4.078,91.106c-1.485,37.816-3.312,75.639-3.792,113.469
				c-0.632,50.977-0.278,101.967-0.028,152.949c0.105,23.35,0.98,46.693,1.535,71.391c7.473-2.086,13.023-4.809,18.658-5.01
				c24.836-0.904,49.801-2.652,74.541-1.174c46.766,2.799,93.588,6.217,140.076,12c37.236,4.643,74.117,12.643,110.979,20.082
				c36.183,7.303,71.841,18.957,108.313,22.867c37.464,4.014,75.743,2.701,113.486,0.496c34.875-2.037,69.604-7.646,104.216-12.959
				c39.328-6.039,77.994-15.199,116.384-26.438c43.646-12.775,88.169-22.377,130.587-39.488c2.883-1.16,6.529-4.07,7.092-6.785
				c1.201-5.691,0.992-11.818,0.646-17.719c-2.111-36-4.927-71.963-6.537-107.99c-1.396-31.074-2.035-62.217-2.084-93.324
				c-0.193-97.068,0.035-194.13,0.111-291.197C935.28,68.125,935.267,48.229,935.267,26.275z"/>
		</defs>
		<clipPath id="SVGID_36_">
			<use xlink:href="#SVGID_35_"  overflow="visible"/>
		</clipPath>
		<path clip-path="url(#SVGID_36_)" fill="#FFFFFF" d="M476.069,559.612"/>
	</g>
	<g>
		<defs>
			<path id="SVGID_37_" d="M935.267,26.275c-4.825,2.293-7.688,3.785-10.653,5.028c-9.029,3.765-17.857,8.304-27.172,10.929
				c-14.851,4.173-30.291,6.149-45.029,10.64c-28.025,8.539-55.559,18.831-83.619,27.226c-28.062,8.394-56.318,16.358-84.871,22.658
				c-26.248,5.797-52.93,12.166-79.537,12.87c-43.947,1.168-88.088-0.469-131.93-3.972c-25.914-2.065-51.994-7.938-76.932-15.751
				C360.511,84.94,326.095,71.172,289.53,67.877c-39.717-3.579-79.654-4.74-119.522-5.838c-19.733-0.539-40.056-1.251-59.171,2.859
				c-28.082,6.025-55.268,7.469-82.51-1.934c-8.126-2.805-8.502,0.346-7.696,7.309c1.876,16.324,4.099,32.69,4.515,49.091
				c0.717,28.779,0.73,57.601,0.016,86.388c-0.752,30.382-2.877,60.731-4.078,91.106c-1.485,37.816-3.312,75.639-3.792,113.469
				c-0.632,50.977-0.278,101.967-0.028,152.949c0.105,23.35,0.98,46.693,1.535,71.391c7.473-2.086,13.023-4.809,18.658-5.01
				c24.836-0.904,49.801-2.652,74.541-1.174c46.766,2.799,93.588,6.217,140.076,12c37.236,4.643,74.117,12.643,110.979,20.082
				c36.183,7.303,71.841,18.957,108.313,22.867c37.464,4.014,75.743,2.701,113.486,0.496c34.875-2.037,69.604-7.646,104.216-12.959
				c39.328-6.039,77.994-15.199,116.384-26.438c43.646-12.775,88.169-22.377,130.587-39.488c2.883-1.16,6.529-4.07,7.092-6.785
				c1.201-5.691,0.992-11.818,0.646-17.719c-2.111-36-4.927-71.963-6.537-107.99c-1.396-31.074-2.035-62.217-2.084-93.324
				c-0.193-97.068,0.035-194.13,0.111-291.197C935.28,68.125,935.267,48.229,935.267,26.275z"/>
		</defs>
		<clipPath id="SVGID_38_">
			<use xlink:href="#SVGID_37_"  overflow="visible"/>
		</clipPath>
		<polygon clip-path="url(#SVGID_38_)" fill="none" stroke="#000000" stroke-width="0.5" points="940.456,660.028 940.456,58.866 
			11.688,58.866 11.688,660.028 		"/>
	</g>
	<g>
		<defs>
			<path id="SVGID_39_" d="M935.267,26.275c-4.825,2.293-7.688,3.785-10.653,5.028c-9.029,3.765-17.857,8.304-27.172,10.929
				c-14.851,4.173-30.291,6.149-45.029,10.64c-28.025,8.539-55.559,18.831-83.619,27.226c-28.062,8.394-56.318,16.358-84.871,22.658
				c-26.248,5.797-52.93,12.166-79.537,12.87c-43.947,1.168-88.088-0.469-131.93-3.972c-25.914-2.065-51.994-7.938-76.932-15.751
				C360.511,84.94,326.095,71.172,289.53,67.877c-39.717-3.579-79.654-4.74-119.522-5.838c-19.733-0.539-40.056-1.251-59.171,2.859
				c-28.082,6.025-55.268,7.469-82.51-1.934c-8.126-2.805-8.502,0.346-7.696,7.309c1.876,16.324,4.099,32.69,4.515,49.091
				c0.717,28.779,0.73,57.601,0.016,86.388c-0.752,30.382-2.877,60.731-4.078,91.106c-1.485,37.816-3.312,75.639-3.792,113.469
				c-0.632,50.977-0.278,101.967-0.028,152.949c0.105,23.35,0.98,46.693,1.535,71.391c7.473-2.086,13.023-4.809,18.658-5.01
				c24.836-0.904,49.801-2.652,74.541-1.174c46.766,2.799,93.588,6.217,140.076,12c37.236,4.643,74.117,12.643,110.979,20.082
				c36.183,7.303,71.841,18.957,108.313,22.867c37.464,4.014,75.743,2.701,113.486,0.496c34.875-2.037,69.604-7.646,104.216-12.959
				c39.328-6.039,77.994-15.199,116.384-26.438c43.646-12.775,88.169-22.377,130.587-39.488c2.883-1.16,6.529-4.07,7.092-6.785
				c1.201-5.691,0.992-11.818,0.646-17.719c-2.111-36-4.927-71.963-6.537-107.99c-1.396-31.074-2.035-62.217-2.084-93.324
				c-0.193-97.068,0.035-194.13,0.111-291.197C935.28,68.125,935.267,48.229,935.267,26.275z"/>
		</defs>
		<clipPath id="SVGID_40_">
			<use xlink:href="#SVGID_39_"  overflow="visible"/>
		</clipPath>
		<path clip-path="url(#SVGID_40_)" stroke="#000000" stroke-width="0.25" stroke-miterlimit="10" d="M954.883,133.926
			c-37.064,1.354-74.019,2.907-111.32,3.584c-40.068,0.11-80.16,0.162-120.281,0.443c-40.113,0.066-80.248-0.006-120.377-0.424
			c-48.412-0.204-96.832-1.007-145.277-1.777c-48.428-0.456-96.844-1.44-145.275-1.867c-28.854-0.466-57.723-0.337-86.567-0.327
			c-28.846,0.125-57.642,0.017-86.404,0.574c-45.799,0.208-91.33,2.518-140.557,3.658l-1.621-16.612
			c23.254-0.343,46.502-0.697,69.791-0.616c45.674,0.336,91.367-0.4,137.041,0.029c45.676,0.133,91.35,0.369,137.05,0.422
			c49.665,0.73,99.372,0.663,149.062,1.279c49.696,0.344,99.396,0.597,149.086,1.221c33.879,0.211,67.75,0.51,101.616,0.007
			c33.85,0.39,67.714-0.845,101.5-0.801c36.234-0.47,72.281-1.53,107.88-2.597L954.883,133.926z"/>
	</g>
	<g>
		<defs>
			<path id="SVGID_41_" d="M935.267,26.275c-4.825,2.293-7.688,3.785-10.653,5.028c-9.029,3.765-17.857,8.304-27.172,10.929
				c-14.851,4.173-30.291,6.149-45.029,10.64c-28.025,8.539-55.559,18.831-83.619,27.226c-28.062,8.394-56.318,16.358-84.871,22.658
				c-26.248,5.797-52.93,12.166-79.537,12.87c-43.947,1.168-88.088-0.469-131.93-3.972c-25.914-2.065-51.994-7.938-76.932-15.751
				C360.511,84.94,326.095,71.172,289.53,67.877c-39.717-3.579-79.654-4.74-119.522-5.838c-19.733-0.539-40.056-1.251-59.171,2.859
				c-28.082,6.025-55.268,7.469-82.51-1.934c-8.126-2.805-8.502,0.346-7.696,7.309c1.876,16.324,4.099,32.69,4.515,49.091
				c0.717,28.779,0.73,57.601,0.016,86.388c-0.752,30.382-2.877,60.731-4.078,91.106c-1.485,37.816-3.312,75.639-3.792,113.469
				c-0.632,50.977-0.278,101.967-0.028,152.949c0.105,23.35,0.98,46.693,1.535,71.391c7.473-2.086,13.023-4.809,18.658-5.01
				c24.836-0.904,49.801-2.652,74.541-1.174c46.766,2.799,93.588,6.217,140.076,12c37.236,4.643,74.117,12.643,110.979,20.082
				c36.183,7.303,71.841,18.957,108.313,22.867c37.464,4.014,75.743,2.701,113.486,0.496c34.875-2.037,69.604-7.646,104.216-12.959
				c39.328-6.039,77.994-15.199,116.384-26.438c43.646-12.775,88.169-22.377,130.587-39.488c2.883-1.16,6.529-4.07,7.092-6.785
				c1.201-5.691,0.992-11.818,0.646-17.719c-2.111-36-4.927-71.963-6.537-107.99c-1.396-31.074-2.035-62.217-2.084-93.324
				c-0.193-97.068,0.035-194.13,0.111-291.197C935.28,68.125,935.267,48.229,935.267,26.275z"/>
		</defs>
		<clipPath id="SVGID_42_">
			<use xlink:href="#SVGID_41_"  overflow="visible"/>
		</clipPath>
		<path clip-path="url(#SVGID_42_)" stroke="#000000" stroke-width="0.25" stroke-miterlimit="10" d="M954.883,194.056
			c-37.064,1.354-74.019,2.907-111.32,3.584c-40.068,0.11-80.16,0.162-120.281,0.443c-40.113,0.066-80.248-0.006-120.377-0.424
			c-48.412-0.204-96.832-1.007-145.277-1.777c-48.428-0.456-96.844-1.44-145.275-1.867c-28.854-0.466-57.723-0.337-86.567-0.327
			c-28.846,0.125-57.642,0.017-86.404,0.575c-45.799,0.207-91.33,2.517-140.557,3.657l-1.621-16.612
			c23.254-0.343,46.502-0.697,69.791-0.615c45.674,0.335,91.367-0.401,137.041,0.028c45.676,0.133,91.35,0.37,137.05,0.422
			c49.665,0.73,99.372,0.663,149.062,1.279c49.696,0.344,99.396,0.597,149.086,1.221c33.879,0.212,67.75,0.51,101.616,0.007
			c33.85,0.39,67.714-0.845,101.5-0.801c36.234-0.47,72.281-1.53,107.88-2.596L954.883,194.056z"/>
	</g>
	<g>
		<defs>
			<path id="SVGID_43_" d="M935.267,26.275c-4.825,2.293-7.688,3.785-10.653,5.028c-9.029,3.765-17.857,8.304-27.172,10.929
				c-14.851,4.173-30.291,6.149-45.029,10.64c-28.025,8.539-55.559,18.831-83.619,27.226c-28.062,8.394-56.318,16.358-84.871,22.658
				c-26.248,5.797-52.93,12.166-79.537,12.87c-43.947,1.168-88.088-0.469-131.93-3.972c-25.914-2.065-51.994-7.938-76.932-15.751
				C360.511,84.94,326.095,71.172,289.53,67.877c-39.717-3.579-79.654-4.74-119.522-5.838c-19.733-0.539-40.056-1.251-59.171,2.859
				c-28.082,6.025-55.268,7.469-82.51-1.934c-8.126-2.805-8.502,0.346-7.696,7.309c1.876,16.324,4.099,32.69,4.515,49.091
				c0.717,28.779,0.73,57.601,0.016,86.388c-0.752,30.382-2.877,60.731-4.078,91.106c-1.485,37.816-3.312,75.639-3.792,113.469
				c-0.632,50.977-0.278,101.967-0.028,152.949c0.105,23.35,0.98,46.693,1.535,71.391c7.473-2.086,13.023-4.809,18.658-5.01
				c24.836-0.904,49.801-2.652,74.541-1.174c46.766,2.799,93.588,6.217,140.076,12c37.236,4.643,74.117,12.643,110.979,20.082
				c36.183,7.303,71.841,18.957,108.313,22.867c37.464,4.014,75.743,2.701,113.486,0.496c34.875-2.037,69.604-7.646,104.216-12.959
				c39.328-6.039,77.994-15.199,116.384-26.438c43.646-12.775,88.169-22.377,130.587-39.488c2.883-1.16,6.529-4.07,7.092-6.785
				c1.201-5.691,0.992-11.818,0.646-17.719c-2.111-36-4.927-71.963-6.537-107.99c-1.396-31.074-2.035-62.217-2.084-93.324
				c-0.193-97.068,0.035-194.13,0.111-291.197C935.28,68.125,935.267,48.229,935.267,26.275z"/>
		</defs>
		<clipPath id="SVGID_44_">
			<use xlink:href="#SVGID_43_"  overflow="visible"/>
		</clipPath>
		<path clip-path="url(#SVGID_44_)" stroke="#000000" stroke-width="0.25" stroke-miterlimit="10" d="M954.883,269.219
			c-37.064,1.354-74.019,2.906-111.32,3.583c-40.068,0.111-80.16,0.163-120.281,0.443c-40.113,0.067-80.248-0.006-120.377-0.424
			c-48.412-0.204-96.832-1.007-145.277-1.776c-48.428-0.456-96.844-1.441-145.275-1.868c-28.854-0.465-57.723-0.336-86.567-0.326
			c-28.846,0.124-57.642,0.017-86.404,0.574c-45.797,0.207-91.328,2.519-140.555,3.657l-1.621-16.612
			c23.254-0.342,46.502-0.696,69.791-0.615c45.674,0.336,91.367-0.401,137.041,0.028c45.676,0.133,91.35,0.37,137.05,0.422
			c49.665,0.731,99.372,0.663,149.062,1.28c49.696,0.344,99.396,0.596,149.086,1.221c33.879,0.211,67.75,0.51,101.617,0.006
			c33.849,0.39,67.713-0.844,101.5-0.8c36.233-0.47,72.28-1.531,107.879-2.597L954.883,269.219z"/>
	</g>
	<g>
		<defs>
			<path id="SVGID_45_" d="M935.267,26.275c-4.825,2.293-7.688,3.785-10.653,5.028c-9.029,3.765-17.857,8.304-27.172,10.929
				c-14.851,4.173-30.291,6.149-45.029,10.64c-28.025,8.539-55.559,18.831-83.619,27.226c-28.062,8.394-56.318,16.358-84.871,22.658
				c-26.248,5.797-52.93,12.166-79.537,12.87c-43.947,1.168-88.088-0.469-131.93-3.972c-25.914-2.065-51.994-7.938-76.932-15.751
				C360.511,84.94,326.095,71.172,289.53,67.877c-39.717-3.579-79.654-4.74-119.522-5.838c-19.733-0.539-40.056-1.251-59.171,2.859
				c-28.082,6.025-55.268,7.469-82.51-1.934c-8.126-2.805-8.502,0.346-7.696,7.309c1.876,16.324,4.099,32.69,4.515,49.091
				c0.717,28.779,0.73,57.601,0.016,86.388c-0.752,30.382-2.877,60.731-4.078,91.106c-1.485,37.816-3.312,75.639-3.792,113.469
				c-0.632,50.977-0.278,101.967-0.028,152.949c0.105,23.35,0.98,46.693,1.535,71.391c7.473-2.086,13.023-4.809,18.658-5.01
				c24.836-0.904,49.801-2.652,74.541-1.174c46.766,2.799,93.588,6.217,140.076,12c37.236,4.643,74.117,12.643,110.979,20.082
				c36.183,7.303,71.841,18.957,108.313,22.867c37.464,4.014,75.743,2.701,113.486,0.496c34.875-2.037,69.604-7.646,104.216-12.959
				c39.328-6.039,77.994-15.199,116.384-26.438c43.646-12.775,88.169-22.377,130.587-39.488c2.883-1.16,6.529-4.07,7.092-6.785
				c1.201-5.691,0.992-11.818,0.646-17.719c-2.111-36-4.927-71.963-6.537-107.99c-1.396-31.074-2.035-62.217-2.084-93.324
				c-0.193-97.068,0.035-194.13,0.111-291.197C935.28,68.125,935.267,48.229,935.267,26.275z"/>
		</defs>
		<clipPath id="SVGID_46_">
			<use xlink:href="#SVGID_45_"  overflow="visible"/>
		</clipPath>
		<path clip-path="url(#SVGID_46_)" stroke="#000000" stroke-width="0.25" stroke-miterlimit="10" d="M954.883,331.353
			c-37.064,1.354-74.019,2.907-111.32,3.584c-40.068,0.11-80.16,0.162-120.281,0.443c-40.113,0.066-80.248-0.006-120.377-0.424
			c-48.412-0.204-96.832-1.007-145.277-1.777c-48.428-0.456-96.844-1.44-145.275-1.867c-28.854-0.466-57.723-0.337-86.567-0.327
			c-28.846,0.125-57.642,0.017-86.404,0.575c-45.797,0.207-91.328,2.518-140.555,3.657l-1.621-16.612
			c23.254-0.343,46.502-0.697,69.791-0.615c45.674,0.335,91.367-0.401,137.041,0.028c45.676,0.133,91.35,0.369,137.05,0.421
			c49.665,0.731,99.372,0.664,149.062,1.28c49.696,0.344,99.396,0.597,149.086,1.221c33.879,0.212,67.75,0.51,101.617,0.007
			c33.849,0.39,67.713-0.845,101.5-0.801c36.233-0.47,72.28-1.53,107.879-2.596L954.883,331.353z"/>
	</g>
	<g>
		<defs>
			<path id="SVGID_47_" d="M935.267,26.275c-4.825,2.293-7.688,3.785-10.653,5.028c-9.029,3.765-17.857,8.304-27.172,10.929
				c-14.851,4.173-30.291,6.149-45.029,10.64c-28.025,8.539-55.559,18.831-83.619,27.226c-28.062,8.394-56.318,16.358-84.871,22.658
				c-26.248,5.797-52.93,12.166-79.537,12.87c-43.947,1.168-88.088-0.469-131.93-3.972c-25.914-2.065-51.994-7.938-76.932-15.751
				C360.511,84.94,326.095,71.172,289.53,67.877c-39.717-3.579-79.654-4.74-119.522-5.838c-19.733-0.539-40.056-1.251-59.171,2.859
				c-28.082,6.025-55.268,7.469-82.51-1.934c-8.126-2.805-8.502,0.346-7.696,7.309c1.876,16.324,4.099,32.69,4.515,49.091
				c0.717,28.779,0.73,57.601,0.016,86.388c-0.752,30.382-2.877,60.731-4.078,91.106c-1.485,37.816-3.312,75.639-3.792,113.469
				c-0.632,50.977-0.278,101.967-0.028,152.949c0.105,23.35,0.98,46.693,1.535,71.391c7.473-2.086,13.023-4.809,18.658-5.01
				c24.836-0.904,49.801-2.652,74.541-1.174c46.766,2.799,93.588,6.217,140.076,12c37.236,4.643,74.117,12.643,110.979,20.082
				c36.183,7.303,71.841,18.957,108.313,22.867c37.464,4.014,75.743,2.701,113.486,0.496c34.875-2.037,69.604-7.646,104.216-12.959
				c39.328-6.039,77.994-15.199,116.384-26.438c43.646-12.775,88.169-22.377,130.587-39.488c2.883-1.16,6.529-4.07,7.092-6.785
				c1.201-5.691,0.992-11.818,0.646-17.719c-2.111-36-4.927-71.963-6.537-107.99c-1.396-31.074-2.035-62.217-2.084-93.324
				c-0.193-97.068,0.035-194.13,0.111-291.197C935.28,68.125,935.267,48.229,935.267,26.275z"/>
		</defs>
		<clipPath id="SVGID_48_">
			<use xlink:href="#SVGID_47_"  overflow="visible"/>
		</clipPath>
		<path clip-path="url(#SVGID_48_)" stroke="#000000" stroke-width="0.25" stroke-miterlimit="10" d="M954.883,400.502
			c-37.064,1.354-74.019,2.906-111.32,3.584c-40.068,0.109-80.16,0.162-120.281,0.443c-40.113,0.064-80.248-0.006-120.377-0.424
			c-48.412-0.205-96.832-1.008-145.277-1.777c-48.428-0.457-96.844-1.441-145.275-1.867c-28.854-0.467-57.723-0.338-86.567-0.328
			c-28.846,0.125-57.642,0.018-86.404,0.576c-45.797,0.207-91.328,2.518-140.555,3.656l-1.621-16.611
			c23.254-0.344,46.502-0.696,69.791-0.615c45.674,0.335,91.367-0.4,137.041,0.027c45.676,0.133,91.35,0.369,137.05,0.422
			c49.665,0.73,99.372,0.664,149.062,1.279c49.696,0.344,99.396,0.598,149.086,1.221c33.879,0.213,67.75,0.511,101.617,0.008
			c33.849,0.39,67.713-0.846,101.5-0.801c36.233-0.471,72.28-1.53,107.879-2.596L954.883,400.502z"/>
	</g>
	<g>
		<defs>
			<path id="SVGID_49_" d="M935.267,26.275c-4.825,2.293-7.688,3.785-10.653,5.028c-9.029,3.765-17.857,8.304-27.172,10.929
				c-14.851,4.173-30.291,6.149-45.029,10.64c-28.025,8.539-55.559,18.831-83.619,27.226c-28.062,8.394-56.318,16.358-84.871,22.658
				c-26.248,5.797-52.93,12.166-79.537,12.87c-43.947,1.168-88.088-0.469-131.93-3.972c-25.914-2.065-51.994-7.938-76.932-15.751
				C360.511,84.94,326.095,71.172,289.53,67.877c-39.717-3.579-79.654-4.74-119.522-5.838c-19.733-0.539-40.056-1.251-59.171,2.859
				c-28.082,6.025-55.268,7.469-82.51-1.934c-8.126-2.805-8.502,0.346-7.696,7.309c1.876,16.324,4.099,32.69,4.515,49.091
				c0.717,28.779,0.73,57.601,0.016,86.388c-0.752,30.382-2.877,60.731-4.078,91.106c-1.485,37.816-3.312,75.639-3.792,113.469
				c-0.632,50.977-0.278,101.967-0.028,152.949c0.105,23.35,0.98,46.693,1.535,71.391c7.473-2.086,13.023-4.809,18.658-5.01
				c24.836-0.904,49.801-2.652,74.541-1.174c46.766,2.799,93.588,6.217,140.076,12c37.236,4.643,74.117,12.643,110.979,20.082
				c36.183,7.303,71.841,18.957,108.313,22.867c37.464,4.014,75.743,2.701,113.486,0.496c34.875-2.037,69.604-7.646,104.216-12.959
				c39.328-6.039,77.994-15.199,116.384-26.438c43.646-12.775,88.169-22.377,130.587-39.488c2.883-1.16,6.529-4.07,7.092-6.785
				c1.201-5.691,0.992-11.818,0.646-17.719c-2.111-36-4.927-71.963-6.537-107.99c-1.396-31.074-2.035-62.217-2.084-93.324
				c-0.193-97.068,0.035-194.13,0.111-291.197C935.28,68.125,935.267,48.229,935.267,26.275z"/>
		</defs>
		<clipPath id="SVGID_50_">
			<use xlink:href="#SVGID_49_"  overflow="visible"/>
		</clipPath>
		<path clip-path="url(#SVGID_50_)" stroke="#000000" stroke-width="0.25" stroke-miterlimit="10" d="M954.883,460.631
			c-37.064,1.355-74.019,2.908-111.32,3.584c-40.068,0.111-80.16,0.164-120.281,0.443c-40.113,0.066-80.248-0.006-120.377-0.424
			c-48.412-0.203-96.832-1.008-145.277-1.777c-48.428-0.455-96.844-1.439-145.275-1.867c-28.854-0.465-57.723-0.336-86.567-0.326
			c-28.846,0.125-57.642,0.018-86.404,0.574c-45.797,0.207-91.328,2.52-140.555,3.658l-1.621-16.613
			c23.254-0.342,46.502-0.695,69.791-0.615c45.674,0.338,91.367-0.4,137.041,0.029c45.676,0.133,91.35,0.369,137.05,0.422
			c49.665,0.73,99.372,0.662,149.062,1.279c49.696,0.344,99.396,0.596,149.086,1.221c33.879,0.211,67.75,0.51,101.617,0.006
			c33.849,0.391,67.713-0.844,101.5-0.801c36.233-0.469,72.28-1.529,107.879-2.596L954.883,460.631z"/>
	</g>
	<g>
		<defs>
			<path id="SVGID_51_" d="M935.267,26.275c-4.825,2.293-7.688,3.785-10.653,5.028c-9.029,3.765-17.857,8.304-27.172,10.929
				c-14.851,4.173-30.291,6.149-45.029,10.64c-28.025,8.539-55.559,18.831-83.619,27.226c-28.062,8.394-56.318,16.358-84.871,22.658
				c-26.248,5.797-52.93,12.166-79.537,12.87c-43.947,1.168-88.088-0.469-131.93-3.972c-25.914-2.065-51.994-7.938-76.932-15.751
				C360.511,84.94,326.095,71.172,289.53,67.877c-39.717-3.579-79.654-4.74-119.522-5.838c-19.733-0.539-40.056-1.251-59.171,2.859
				c-28.082,6.025-55.268,7.469-82.51-1.934c-8.126-2.805-8.502,0.346-7.696,7.309c1.876,16.324,4.099,32.69,4.515,49.091
				c0.717,28.779,0.73,57.601,0.016,86.388c-0.752,30.382-2.877,60.731-4.078,91.106c-1.485,37.816-3.312,75.639-3.792,113.469
				c-0.632,50.977-0.278,101.967-0.028,152.949c0.105,23.35,0.98,46.693,1.535,71.391c7.473-2.086,13.023-4.809,18.658-5.01
				c24.836-0.904,49.801-2.652,74.541-1.174c46.766,2.799,93.588,6.217,140.076,12c37.236,4.643,74.117,12.643,110.979,20.082
				c36.183,7.303,71.841,18.957,108.313,22.867c37.464,4.014,75.743,2.701,113.486,0.496c34.875-2.037,69.604-7.646,104.216-12.959
				c39.328-6.039,77.994-15.199,116.384-26.438c43.646-12.775,88.169-22.377,130.587-39.488c2.883-1.16,6.529-4.07,7.092-6.785
				c1.201-5.691,0.992-11.818,0.646-17.719c-2.111-36-4.927-71.963-6.537-107.99c-1.396-31.074-2.035-62.217-2.084-93.324
				c-0.193-97.068,0.035-194.13,0.111-291.197C935.28,68.125,935.267,48.229,935.267,26.275z"/>
		</defs>
		<clipPath id="SVGID_52_">
			<use xlink:href="#SVGID_51_"  overflow="visible"/>
		</clipPath>
		<path clip-path="url(#SVGID_52_)" stroke="#000000" stroke-width="0.25" stroke-miterlimit="10" d="M954.883,536.797
			c-37.064,1.354-74.019,2.906-111.32,3.584c-40.068,0.109-80.16,0.162-120.281,0.443c-40.113,0.064-80.248-0.006-120.377-0.424
			c-48.412-0.205-96.832-1.008-145.277-1.777c-48.428-0.457-96.844-1.441-145.275-1.867c-28.854-0.467-57.723-0.338-86.567-0.328
			c-28.846,0.125-57.642,0.018-86.404,0.574c-45.797,0.209-91.328,2.52-140.555,3.658l-1.621-16.611
			c23.254-0.344,46.502-0.697,69.791-0.617c45.674,0.336,91.367-0.398,137.041,0.029c45.676,0.133,91.35,0.369,137.05,0.422
			c49.665,0.73,99.372,0.664,149.062,1.279c49.696,0.344,99.396,0.596,149.086,1.221c33.879,0.211,67.75,0.51,101.617,0.008
			c33.849,0.391,67.713-0.846,101.5-0.801c36.233-0.471,72.28-1.531,107.879-2.598L954.883,536.797z"/>
	</g>
	<g>
		<defs>
			<path id="SVGID_53_" d="M935.267,26.275c-4.825,2.293-7.688,3.785-10.653,5.028c-9.029,3.765-17.857,8.304-27.172,10.929
				c-14.851,4.173-30.291,6.149-45.029,10.64c-28.025,8.539-55.559,18.831-83.619,27.226c-28.062,8.394-56.318,16.358-84.871,22.658
				c-26.248,5.797-52.93,12.166-79.537,12.87c-43.947,1.168-88.088-0.469-131.93-3.972c-25.914-2.065-51.994-7.938-76.932-15.751
				C360.511,84.94,326.095,71.172,289.53,67.877c-39.717-3.579-79.654-4.74-119.522-5.838c-19.733-0.539-40.056-1.251-59.171,2.859
				c-28.082,6.025-55.268,7.469-82.51-1.934c-8.126-2.805-8.502,0.346-7.696,7.309c1.876,16.324,4.099,32.69,4.515,49.091
				c0.717,28.779,0.73,57.601,0.016,86.388c-0.752,30.382-2.877,60.731-4.078,91.106c-1.485,37.816-3.312,75.639-3.792,113.469
				c-0.632,50.977-0.278,101.967-0.028,152.949c0.105,23.35,0.98,46.693,1.535,71.391c7.473-2.086,13.023-4.809,18.658-5.01
				c24.836-0.904,49.801-2.652,74.541-1.174c46.766,2.799,93.588,6.217,140.076,12c37.236,4.643,74.117,12.643,110.979,20.082
				c36.183,7.303,71.841,18.957,108.313,22.867c37.464,4.014,75.743,2.701,113.486,0.496c34.875-2.037,69.604-7.646,104.216-12.959
				c39.328-6.039,77.994-15.199,116.384-26.438c43.646-12.775,88.169-22.377,130.587-39.488c2.883-1.16,6.529-4.07,7.092-6.785
				c1.201-5.691,0.992-11.818,0.646-17.719c-2.111-36-4.927-71.963-6.537-107.99c-1.396-31.074-2.035-62.217-2.084-93.324
				c-0.193-97.068,0.035-194.13,0.111-291.197C935.28,68.125,935.267,48.229,935.267,26.275z"/>
		</defs>
		<clipPath id="SVGID_54_">
			<use xlink:href="#SVGID_53_"  overflow="visible"/>
		</clipPath>
		<path clip-path="url(#SVGID_54_)" stroke="#000000" stroke-width="0.25" stroke-miterlimit="10" d="M954.883,597.928
			c-37.064,1.355-74.019,2.906-111.32,3.584c-40.068,0.111-80.16,0.162-120.281,0.443c-40.113,0.066-80.248-0.006-120.377-0.424
			c-48.412-0.203-96.832-1.006-145.277-1.777c-48.428-0.455-96.844-1.439-145.275-1.867c-28.854-0.465-57.723-0.336-86.567-0.324
			c-28.846,0.121-57.642,0.016-86.404,0.572c-45.797,0.207-91.328,2.52-140.555,3.658l-1.621-16.613
			c23.254-0.342,46.502-0.695,69.791-0.613c45.674,0.336,91.367-0.402,137.041,0.027c45.676,0.133,91.35,0.369,137.05,0.42
			c49.665,0.732,99.372,0.664,149.062,1.281c49.696,0.344,99.396,0.596,149.086,1.221c33.879,0.211,67.75,0.512,101.617,0.008
			c33.849,0.389,67.713-0.846,101.5-0.803c36.233-0.469,72.28-1.529,107.879-2.596L954.883,597.928z"/>
	</g>
	<g>
		<defs>
			<path id="SVGID_55_" d="M935.267,26.275c-4.825,2.293-7.688,3.785-10.653,5.028c-9.029,3.765-17.857,8.304-27.172,10.929
				c-14.851,4.173-30.291,6.149-45.029,10.64c-28.025,8.539-55.559,18.831-83.619,27.226c-28.062,8.394-56.318,16.358-84.871,22.658
				c-26.248,5.797-52.93,12.166-79.537,12.87c-43.947,1.168-88.088-0.469-131.93-3.972c-25.914-2.065-51.994-7.938-76.932-15.751
				C360.511,84.94,326.095,71.172,289.53,67.877c-39.717-3.579-79.654-4.74-119.522-5.838c-19.733-0.539-40.056-1.251-59.171,2.859
				c-28.082,6.025-55.268,7.469-82.51-1.934c-8.126-2.805-8.502,0.346-7.696,7.309c1.876,16.324,4.099,32.69,4.515,49.091
				c0.717,28.779,0.73,57.601,0.016,86.388c-0.752,30.382-2.877,60.731-4.078,91.106c-1.485,37.816-3.312,75.639-3.792,113.469
				c-0.632,50.977-0.278,101.967-0.028,152.949c0.105,23.35,0.98,46.693,1.535,71.391c7.473-2.086,13.023-4.809,18.658-5.01
				c24.836-0.904,49.801-2.652,74.541-1.174c46.766,2.799,93.588,6.217,140.076,12c37.236,4.643,74.117,12.643,110.979,20.082
				c36.183,7.303,71.841,18.957,108.313,22.867c37.464,4.014,75.743,2.701,113.486,0.496c34.875-2.037,69.604-7.646,104.216-12.959
				c39.328-6.039,77.994-15.199,116.384-26.438c43.646-12.775,88.169-22.377,130.587-39.488c2.883-1.16,6.529-4.07,7.092-6.785
				c1.201-5.691,0.992-11.818,0.646-17.719c-2.111-36-4.927-71.963-6.537-107.99c-1.396-31.074-2.035-62.217-2.084-93.324
				c-0.193-97.068,0.035-194.13,0.111-291.197C935.28,68.125,935.267,48.229,935.267,26.275z"/>
		</defs>
		<clipPath id="SVGID_56_">
			<use xlink:href="#SVGID_55_"  overflow="visible"/>
		</clipPath>
		<g clip-path="url(#SVGID_56_)">
			<path fill="#007DC5" d="M180.732,249.883"/>
			<path fill="#FFFFFF" d="M180.74,249.883"/>
			<path fill="#FFFFFF" d="M180.59,249.899"/>
			<path stroke="#000000" stroke-width="0.25" stroke-miterlimit="10" d="M34.187,87.517c32.255-0.97,45.599,0.813,68.349,0.204
				c26.564-0.713,53.068-2.683,79.604-3.964c14.156-0.683,28.328-1.21,42.486-1.518c18.85-0.414,38.043-2.517,56.441,0.021
				c9.221,1.275,24.432-0.918,28.066,12.972c22.504,11.501,17.974,31.241,18.06,48.905c0.092,15.924,0.061,31.847-0.034,47.77
				c-0.102,15.921-0.239,31.608-0.406,47.766c-0.155,15.933-0.31,31.966-0.382,47.765c-0.106,20.755-0.142,41.279-0.137,61.396
				c-0.033,20.633-0.023,41.036-0.054,61.372c-22.154-0.027-44.238-0.273-66.297-0.092c-22.047-0.207-44.084,0.287-66.08,0.414
				c-14.02,0.018-28.025,0.447-42.059,1.709c-14,0.764-28.02,1.877-42.029,2.262c-10.726,0.697-21.447,1.291-32.146,1.131
				c-10.723,0.453-21.45,0.867-32.16,0.797c-10.506,0.266-7.312,1.219-20.243,1.096C7.204,417.344,18.582,87.986,34.187,87.517z"/>
			<g>
				<path stroke="#000000" stroke-width="0.25" stroke-miterlimit="10" d="M25.406,89.181c26.795-0.146,49.626,0.97,72.374,0.36
					c26.565-0.714,53.069-2.683,79.605-3.965c14.155-0.68,28.325-1.21,42.481-1.518c18.852-0.413,38.045-2.518,56.443,0.021
					c9.225,1.276,24.436-0.916,28.07,12.972c22.502,11.502,17.971,31.242,18.06,48.907c0.09,15.923,0.059,31.845-0.033,47.768
					c-0.104,15.923-0.242,31.608-0.408,47.767c-0.156,15.933-0.309,31.966-0.385,47.765c-0.103,20.755-0.142,41.278-0.138,61.395
					c-0.03,20.635-0.021,41.038-0.049,61.373c-22.156-0.027-44.24-0.273-66.298-0.094c-22.046-0.205-44.083,0.287-66.083,0.414
					c-14.019,0.021-28.025,0.447-42.056,1.709c-14.001,0.766-28.019,1.877-42.03,2.264c-10.723,0.695-21.445,1.289-32.146,1.133
					c-10.721,0.449-21.453,0.865-32.16,0.797c-10.506,0.264-21.014,0.551-35.541,0.494L25.406,89.181z M25.189,278.122
					c14.752,0.218,29.512,3.925,44.317,4.722c13.438,0.464,26.958-1.636,40.45-2.067c13.432-0.472,20.562-0.82,24.123,2.833
					c3.572,3.249,3.613,9.917,2.905,22.257c-0.071,1.01-0.136,2.861-0.304,3.92c-1.073,8.021-1.551,15.403-1.604,23.054
					c-0.059,7.555,0.326,15.126,0.99,23.104c0.686,7.615,1.676,15.429,2.834,23.321c1.164,7.684,2.512,15.382,3.885,23.619
					c10.387-1.479,20.637-1.438,30.898-2.77c10.25-1.102,20.424-1.857,30.543-2.742c0.453-1.365,0.938-1.541,0.867-2.33
					c-2.678-17.982-1.834-36.148-1.52-53.863c0.34-18.208,0.148-36.01-4.585-53.78c-1.642-6.094,0.825-10.646,9.827-10.427
					c9.455,0.732,19.031-0.629,28.449-1.071c11.941-1.023,23.867-2.191,35.818-3.199c11.953-1.063,23.938-2.228,35.982-3.349
					c0.6-15.107,1.17-28.742,1.657-42.412c0.22-6.303-3.099-10.798-10.984-10.606c-11.588,0.284-23.199,0.536-34.719,1.46
					c-15.494,1.247-30.891,3.422-46.395,4.542c-3.782,0.27-9.855-0.992-11.355-3.335c-4.416-6.933-9.666-14.7-9.958-22.246
					c-0.974-25.104,0.021-50.242,0.373-75.382c0.108-7.703,0.587-15.41,0.918-23.762c-17.796,0.631-34.42,1.22-50.384,1.782
					c-1.595,40.293-3.131,79.071-4.693,118.479c-11.244,0.474-22.488,1.275-33.732,1.367c-15.449-0.018-30.934,0.828-46.383,0.734
					c-15.457,0.146-30.911,0.209-46.377,0.422 M27.12,404.975c11.101-0.314,22.202-0.695,33.317-1.291
					c10.057-0.666,20.077-0.479,30.131-0.936c10.035,0.09,20.096-0.58,30.134-0.625c8.003-0.117,10.13-3.992,9.028-9.969
					c-1.274-7.695-3.024-15.363-3.379-22.312c-0.516-10.355-0.9-21.407-1.215-32.347c-0.3-11.062-0.537-21.433-0.68-32.358
					c-0.106-7.92-2.939-10.986-12.3-10.985c-10.047-0.141-20.108-0.304-30.161-0.788c-10.064-0.102-20.102-1.046-30.166-0.911
					c-11.869-0.305-23.754,0.036-35.622-0.269 M27.068,209.896c9.754,0.217,19.531-0.05,29.293-0.216
					c9.766-0.259,19.507-0.333,29.258-0.939c15.504-0.419,30.97-2.528,47.66-3.718c-0.643-3.843-1.34-6.077-1.332-8.305
					c0.146-28.748,0.25-57.499,0.711-86.234c0.113-6.788-2.006-9.405-10.122-8.586c-13.341,1.341-26.786,2.126-40.208,2.409
					 M311.053,397.76c0.564-3.018,1.244-4.686,1.207-6.668c-0.395-16.557-0.871-33.396-1.305-49.967
					c-0.431-16.662-0.822-33.237-1.016-49.963c-0.093-7.283-3.386-8.651-10.54-8.346c-12.711,1.191-25.428,2.08-38.121,2.744
					c-12.699,0.711-25.41,2.002-38.076,3.043c-2.604,0.255-6.422,5.032-6.639,7.526c-1.002,12.329-1.238,23.986-1.043,36.288
					c0.15,9.439,0.475,18.458,0.822,27.785c0.355,9.106,0.723,18.618,1.01,27.791c0.231,7.656,4.777,9.908,12.723,9.506
					c11.215-0.969,22.447-1.434,33.674-1.475C279.357,396.354,294.977,397.067,311.053,397.76z M213.197,97.876
					c-1.051,26.532-2.329,52.534-2.971,78.557c-0.191,7.981,0.375,16.228,2.578,23.924c0.866,3.039,7.227,7.052,10.883,6.915
					c22.842-0.838,45.602-2.957,68.422-4.146c9.785-0.504,17.721-5.022,17.588-12.244c-0.435-24.835-0.951-49.681-2.295-74.49
					c-0.194-3.499-4.415-8.588-8.096-9.887c-8.732-3.083-18.172-5.382-27.492-6.115C252.982,98.914,234.031,98.693,213.197,97.876z"
					/>
				<path fill="#FFFFFF" d="M28.307,220.838c15.473-0.372,19.648-0.688,35.107-0.863c15.467-0.393,30.916-0.306,46.383-0.734
					c11.246-0.136,22.488-0.894,33.732-1.367c1.562-39.408,3.099-78.187,4.693-118.479c15.964-0.562,32.588-1.151,50.384-1.782
					c-0.331,8.352-0.81,16.059-0.918,23.762c-0.352,25.14-1.347,50.277-0.373,75.382c0.292,7.546,5.542,15.313,9.958,22.246
					c1.5,2.343,7.573,3.604,11.355,3.335c15.504-1.12,30.9-3.295,46.395-4.542c11.52-0.924,23.131-1.176,34.719-1.46
					c7.886-0.191,11.229,3.574,10.983,10.606c-0.493,13.841-1.059,27.259-1.657,42.412c-12.042,1.018-24.029,2.285-35.982,3.349
					c-11.963,1.271-23.871,2.01-35.818,3.199c-9.412,0.274-18.982,1.522-28.449,1.071c-9.008-0.083-11.466,4.261-9.827,10.427
					c4.739,17.611,4.905,36.058,4.585,53.78c-0.328,18.076-1.158,35.867,1.52,53.863c0.07,0.838-0.434,1.459-0.867,2.33
					c-10.133,1.221-20.299,1.822-30.543,2.742c-10.262,1.336-20.5,0.969-30.898,2.77c-1.406-7.418-2.73-15.678-3.887-23.574
					c-1.174-7.486-2.148-15.736-2.832-23.366c-0.697-7.154-1.047-15.62-0.998-22.901c0.055-7.695,0.538-15.221,1.611-23.256
					c0.182-1.398,0.207-2.245,0.304-3.92c0.71-12.424,0.661-18.824-2.905-22.257c-3.572-3.352-10.678-3.65-24.123-2.833
					c-13.506,0.725-27.004,2.37-40.45,2.067c-14.815-0.549-29.556-4.734-44.317-4.722"/>
				<path fill="#007DC5" d="M30.455,295.125c11.877,0.058,9.502-2.843,21.375-2.673c10.062-0.069,20.123,0.228,30.166,0.911
					c10.037,0.894,20.122,0.453,30.161,0.788c9.372-0.277,12.197,2.994,12.3,10.985c0.156,10.58,0.388,21.074,0.68,32.358
					c0.33,10.552,0.717,21.542,1.215,32.348c0.368,6.582,2.092,14.902,3.379,22.312c1.072,6.724-1.033,10.079-9.028,9.968
					c-10.048,0.256-20.089,0.426-30.134,0.625c-10.038,0.057-20.08,0.408-30.131,0.938c-11.092-0.041-22.191,0.355-33.313,1.174"/>
				<path fill="#007DC5" d="M37.252,102.539c13.425-0.282,71.943,0.699,85.284-0.642c8.116-0.819,10.235,1.798,10.122,8.586
					c-0.461,28.735-0.565,57.486-0.711,86.234c-0.008,2.228,0.689,4.462,1.332,8.305c-16.683,0.98-32.145,3.042-47.66,3.718
					c-9.738,0.346-19.492,0.695-29.258,0.939c-9.768,0.285-19.535,0.334-29.293,0.216"/>
				<path fill="#007DC5" d="M311.053,397.76c-16.074-0.771-31.682-1.744-47.303-1.734c-11.221-0.109-22.451,0.324-33.674,1.475
					c-7.947,0.455-12.494-1.767-12.723-9.506c-0.295-8.996-0.667-18.363-1.01-27.791c-0.346-9.382-0.67-18.438-0.822-27.785
					c-0.213-11.895,0.049-24.135,1.043-36.288c0.223-2.659,4.031-7.163,6.639-7.526c12.67-1.173,25.367-2.112,38.076-3.043
					c12.705-0.936,25.416-1.676,38.121-2.744c7.158-0.382,10.463,0.655,10.54,8.346c0.188,16.854,0.573,33.568,1.016,49.963
					c0.43,16.674,0.904,33.547,1.305,49.967C312.297,393.09,311.6,395.188,311.053,397.76z"/>
				<path fill="#007DC5" d="M213.197,97.876c20.834,0.817,39.785,1.038,58.617,2.514c9.32,0.733,18.76,3.032,27.492,6.115
					c3.682,1.299,7.901,6.388,8.096,9.887c1.344,24.81,1.86,49.655,2.295,74.49c0.133,7.222-7.803,11.74-17.588,12.244
					c-22.82,1.188-45.58,3.308-68.422,4.146c-3.656,0.137-10.017-3.876-10.883-6.915c-2.203-7.696-2.77-15.942-2.578-23.924
					C210.868,150.41,212.146,124.408,213.197,97.876z"/>
			</g>
		</g>
	</g>
	<g>
		<defs>
			<path id="SVGID_57_" d="M935.267,26.275c-4.825,2.293-7.688,3.785-10.653,5.028c-9.029,3.765-17.857,8.304-27.172,10.929
				c-14.851,4.173-30.291,6.149-45.029,10.64c-28.025,8.539-55.559,18.831-83.619,27.226c-28.062,8.394-56.318,16.358-84.871,22.658
				c-26.248,5.797-52.93,12.166-79.537,12.87c-43.947,1.168-88.088-0.469-131.93-3.972c-25.914-2.065-51.994-7.938-76.932-15.751
				C360.511,84.94,326.095,71.172,289.53,67.877c-39.717-3.579-79.654-4.74-119.522-5.838c-19.733-0.539-40.056-1.251-59.171,2.859
				c-28.082,6.025-55.268,7.469-82.51-1.934c-8.126-2.805-8.502,0.346-7.696,7.309c1.876,16.324,4.099,32.69,4.515,49.091
				c0.717,28.779,0.73,57.601,0.016,86.388c-0.752,30.382-2.877,60.731-4.078,91.106c-1.485,37.816-3.312,75.639-3.792,113.469
				c-0.632,50.977-0.278,101.967-0.028,152.949c0.105,23.35,0.98,46.693,1.535,71.391c7.473-2.086,13.023-4.809,18.658-5.01
				c24.836-0.904,49.801-2.652,74.541-1.174c46.766,2.799,93.588,6.217,140.076,12c37.236,4.643,74.117,12.643,110.979,20.082
				c36.183,7.303,71.841,18.957,108.313,22.867c37.464,4.014,75.743,2.701,113.486,0.496c34.875-2.037,69.604-7.646,104.216-12.959
				c39.328-6.039,77.994-15.199,116.384-26.438c43.646-12.775,88.169-22.377,130.587-39.488c2.883-1.16,6.529-4.07,7.092-6.785
				c1.201-5.691,0.992-11.818,0.646-17.719c-2.111-36-4.927-71.963-6.537-107.99c-1.396-31.074-2.035-62.217-2.084-93.324
				c-0.193-97.068,0.035-194.13,0.111-291.197C935.28,68.125,935.267,48.229,935.267,26.275z"/>
		</defs>
		<clipPath id="SVGID_58_">
			<use xlink:href="#SVGID_57_"  overflow="visible"/>
		</clipPath>
		<path clip-path="url(#SVGID_58_)" fill="#007DC5" d="M478.089,625.75"/>
	</g>
</g>
<g>
	<path d="M951.139,251.366c1.109,75.055,1.695,150.117,3.529,225.15c1.055,42.389,4.081,84.732,6.425,127.086
		c0.661,11.885-1.014,14.902-15.056,19.178c-40.836,12.449-81.858,24.209-122.611,36.936
		c-47.971,14.992-96.783,25.662-146.264,33.434c-65.631,10.305-131.58,18.604-197.859,10.766
		c-35.873-4.238-71.478-12.559-106.592-21.576c-56.277-14.447-113.127-24.512-170.879-28.221
		c-47.316-3.033-94.729-4.301-142.1-6.418c-10.657-0.477-20.197,0.877-29.021,8.811c-9.299,8.375-20.831,4.129-22.665-8.732
		c-3.315-23.143-6.094-46.572-6.479-69.928c-0.745-44.889-0.234-89.812,0.807-134.701c1.592-68.707,3.825-137.406,6.272-206.085
		c1.758-49.08,4.584-98.099-0.696-147.166c-1.048-9.623,0.083-19.611,1.075-29.331C10.32,47.964,19.537,39.548,30.78,43.76
		c32.371,12.125,64.35,3.212,96.604,1.075c93.528-6.19,185.845-2.585,275.375,32.04c24.458,9.458,51.549,13.663,77.743,15.669
		c42.188,3.219,84.844,5.811,126.893,2.626c35.13-2.654,70.01-12.498,104.339-21.817c48.64-13.194,96.438-29.8,145.069-43.049
		c25.657-6.997,51.411-12.422,74.738-26.657c10.926-6.679,20.735,0.648,20.742,13.967c0.041,77.915,0.014,155.824,0.014,233.739
		C951.918,251.359,951.531,251.359,951.139,251.366z M932.334,26.988c-4.791,2.288-7.632,3.777-10.575,5.018
		c-8.961,3.757-17.723,8.286-26.967,10.905c-14.737,4.164-30.062,6.136-44.689,10.616c-27.813,8.521-55.14,18.791-82.987,27.167
		c-27.851,8.375-55.893,16.323-84.23,22.609c-26.05,5.784-52.526,12.14-78.936,12.843c-43.614,1.165-87.422-0.469-130.934-3.964
		c-25.719-2.061-51.604-7.92-76.351-15.717C361.916,85.526,327.76,71.788,291.473,68.5c-39.416-3.571-79.053-4.729-118.62-5.825
		c-19.584-0.538-39.754-1.248-58.725,2.854c-27.87,6.012-54.851,7.452-81.887-1.93c-8.064-2.799-8.438,0.345-7.638,7.293
		c1.861,16.289,4.067,32.619,4.48,48.984c0.711,28.718,0.725,57.477,0.015,86.201c-0.745,30.316-2.854,60.6-4.047,90.909
		c-1.475,37.734-3.288,75.476-3.764,113.224c-0.627,50.867-0.275,101.746-0.027,152.619c0.104,23.299,0.972,46.592,1.523,71.236
		c7.417-2.082,12.925-4.799,18.516-4.998c24.65-0.904,49.425-2.646,73.979-1.172c46.412,2.791,92.881,6.203,139.018,11.973
		c36.955,4.633,73.56,12.615,110.142,20.039c35.908,7.287,71.3,18.916,107.495,22.816c37.184,4.006,75.173,2.695,112.632,0.496
		c34.61-2.031,69.077-7.631,103.428-12.932c39.029-6.025,77.404-15.166,115.505-26.381c43.317-12.746,87.504-22.328,129.602-39.402
		c2.861-1.158,6.479-4.061,7.038-6.77c1.192-5.68,0.985-11.795,0.643-17.682c-2.097-35.922-4.889-71.809-6.487-107.758
		c-1.386-31.006-2.021-62.08-2.067-93.121c-0.192-96.858,0.034-193.71,0.11-290.568C932.348,68.748,932.334,48.895,932.334,26.988z"
		/>
	<g>
		<path fill="none" d="M951.139,251.366c1.109,75.055,1.695,150.117,3.529,225.15c1.055,42.389,4.081,84.732,6.425,127.086
			c0.661,11.885-1.014,14.902-15.056,19.178c-40.836,12.449-81.858,24.209-122.611,36.936
			c-47.971,14.992-96.783,25.662-146.264,33.434c-65.631,10.305-131.58,18.604-197.859,10.766
			c-35.873-4.238-71.478-12.559-106.592-21.576c-56.277-14.447-113.127-24.512-170.879-28.221
			c-47.316-3.033-94.729-4.301-142.1-6.418c-10.657-0.477-20.197,0.877-29.021,8.811c-9.299,8.375-20.831,4.129-22.665-8.732
			c-3.315-23.143-6.094-46.572-6.479-69.928c-0.745-44.889-0.234-89.812,0.807-134.701c1.592-68.707,3.825-137.406,6.272-206.085
			c1.758-49.08,4.584-98.099-0.696-147.166c-1.048-9.623,0.083-19.611,1.075-29.331C10.32,47.964,19.537,39.548,30.78,43.76
			c32.371,12.125,64.35,3.212,96.604,1.075c93.528-6.19,185.845-2.585,275.375,32.04c24.458,9.458,51.549,13.663,77.743,15.669
			c42.188,3.219,84.844,5.811,126.893,2.626c35.13-2.654,70.01-12.498,104.339-21.817c48.64-13.194,96.438-29.8,145.069-43.049
			c25.657-6.997,51.411-12.422,74.738-26.657c10.926-6.679,20.735,0.648,20.742,13.967c0.041,77.915,0.014,155.824,0.014,233.739
			C951.918,251.359,951.531,251.359,951.139,251.366z M932.334,26.988c-4.791,2.288-7.632,3.777-10.575,5.018
			c-8.961,3.757-17.723,8.286-26.967,10.905c-14.737,4.164-30.062,6.136-44.689,10.616c-27.813,8.521-55.14,18.791-82.987,27.167
			c-27.851,8.375-55.893,16.323-84.23,22.609c-26.05,5.784-52.526,12.14-78.936,12.843c-43.614,1.165-87.422-0.469-130.934-3.964
			c-25.719-2.061-51.604-7.92-76.351-15.717C361.916,85.526,327.76,71.788,291.473,68.5c-39.416-3.571-79.053-4.729-118.62-5.825
			c-19.584-0.538-39.754-1.248-58.725,2.854c-27.87,6.012-54.851,7.452-81.887-1.93c-8.064-2.799-8.438,0.345-7.638,7.293
			c1.861,16.289,4.067,32.619,4.48,48.984c0.711,28.718,0.725,57.477,0.015,86.201c-0.745,30.316-2.854,60.6-4.047,90.909
			c-1.475,37.734-3.288,75.476-3.764,113.224c-0.627,50.867-0.275,101.746-0.027,152.619c0.104,23.299,0.972,46.592,1.523,71.236
			c7.417-2.082,12.925-4.799,18.516-4.998c24.65-0.904,49.425-2.646,73.979-1.172c46.412,2.791,92.881,6.203,139.018,11.973
			c36.955,4.633,73.56,12.615,110.142,20.039c35.908,7.287,71.3,18.916,107.495,22.816c37.184,4.006,75.173,2.695,112.632,0.496
			c34.61-2.031,69.077-7.631,103.428-12.932c39.029-6.025,77.404-15.166,115.505-26.381c43.317-12.746,87.504-22.328,129.602-39.402
			c2.861-1.158,6.479-4.061,7.038-6.77c1.192-5.68,0.985-11.795,0.643-17.682c-2.097-35.922-4.889-71.809-6.487-107.758
			c-1.386-31.006-2.021-62.08-2.067-93.121c-0.192-96.858,0.034-193.71,0.11-290.568C932.348,68.748,932.334,48.895,932.334,26.988z
			"/>
		<g>
			<path d="M931.985,26.988c0.018,0,0.032,0.168,0.049,0.502c0.01,0.334,0.022,0.833,0.043,1.497
				c0.016,1.327,0.038,3.311,0.067,5.933c0.022,5.244,0.057,13.045,0.101,23.272c0.047,20.454,0.117,50.614,0.207,89.436
				c-0.438,38.803-0.35,86.25,0.205,141.326c0.257,27.529,0.373,56.953,0.352,88.144c0.131,15.591,0.269,31.623,0.406,48.08
				c0.223,8.229,0.449,16.561,0.678,24.996c0.109,4.221,0.222,8.465,0.332,12.736c0.139,4.27,0.15,8.572,0.41,12.889
				c0.902,17.271,1.84,34.951,2.896,53.021c0.581,9.033,1.169,18.164,1.763,27.393c0.302,4.613,0.605,9.25,0.911,13.912
				c0.291,4.662,0.661,9.338,0.864,14.064c0.137,4.732,0.08,9.494-1.018,14.258c-0.436,1.195-1.205,2.203-2.078,3.055
				c-0.854,0.885-1.841,1.613-2.871,2.271c-1.031,0.66-2.192,1.141-3.303,1.555l-3.364,1.301c-2.245,0.869-4.497,1.74-6.753,2.613
				c-2.26,0.865-4.506,1.785-6.813,2.547c-4.593,1.594-9.206,3.195-13.843,4.805c-18.646,6.125-37.895,11.502-57.463,16.926
				c-4.901,1.322-9.824,2.65-14.766,3.982c-4.943,1.33-9.91,2.65-14.873,4.055c-9.927,2.793-19.989,5.498-30.105,8.281
				c-20.252,5.514-40.987,10.432-62.104,15.23l-3.982,0.783c-1.328,0.264-2.674,0.443-4.012,0.67
				c-2.678,0.438-5.361,0.873-8.051,1.311c-5.371,0.896-10.762,1.795-16.172,2.697c-10.836,1.65-21.749,3.312-32.735,4.986
				c-5.497,0.814-11.014,1.633-16.548,2.453l-4.154,0.617l-4.174,0.529c-2.785,0.354-5.574,0.711-8.367,1.066
				c-2.795,0.359-5.592,0.719-8.395,1.078l-4.208,0.543c-1.405,0.17-2.819,0.27-4.229,0.408c-5.648,0.52-11.314,1.045-16.998,1.57
				c-22.766,1.426-45.84,2.352-69.203,2.244c-11.681,0.002-23.426-0.527-35.219-1.283c-2.942-0.264-5.891-0.525-8.842-0.789
				l-4.432-0.396c-1.476-0.166-2.945-0.381-4.42-0.568c-2.949-0.393-5.901-0.783-8.857-1.176c-2.945-0.463-5.877-1.021-8.822-1.531
				c-5.896-0.955-11.722-2.322-17.602-3.508c-2.935-0.621-5.849-1.332-8.779-1.994c-2.927-0.676-5.865-1.33-8.787-2.051
				c-11.713-2.801-23.451-5.709-35.288-8.4c-2.952-0.705-5.934-1.277-8.903-1.926c-2.979-0.619-5.94-1.283-8.94-1.867
				c-5.986-1.205-11.986-2.414-17.999-3.625c-12.023-2.4-24.104-4.814-36.235-7.236c-6.092-1.051-12.197-2.104-18.313-3.16
				c-3.062-0.506-6.111-1.115-9.189-1.543c-3.078-0.436-6.158-0.873-9.24-1.311c-6.17-0.852-12.333-1.822-18.54-2.596
				c-6.22-0.693-12.452-1.391-18.696-2.088c-3.121-0.352-6.246-0.705-9.373-1.059l-4.693-0.533l-4.709-0.438
				c-6.281-0.59-12.574-1.182-18.881-1.773c-3.152-0.301-6.308-0.6-9.467-0.9c-3.158-0.307-6.328-0.52-9.496-0.785
				c-6.338-0.514-12.689-1.027-19.052-1.543c-6.345-0.646-12.714-1.148-19.098-1.617c-6.385-0.451-12.78-0.9-19.188-1.354
				c-1.603-0.102-3.206-0.227-4.809-0.305l-4.811-0.148c-3.208-0.094-6.42-0.188-9.634-0.279c-3.213-0.152-6.434-0.049-9.657,0.008
				c-3.223,0.059-6.448,0.119-9.676,0.178c-12.911,0.412-25.869,1.076-38.883,1.605c-0.832,0.018-1.58,0.107-2.355,0.172
				c-0.772,0.053-1.542,0.258-2.313,0.377c-0.77,0.17-1.538,0.381-2.309,0.57l-2.305,0.699l-4.634,1.529l-2.345,0.75l-3.25,0.959
				l-0.471,0.137l-0.236,0.07l-0.059,0.018c-0.008-0.012-0.002-0.039-0.004-0.057l-0.004-0.125l-0.021-0.986l-0.042-1.965
				l-0.045-2.494l-0.078-4.898c-0.041-3.27-0.081-6.539-0.122-9.812c-0.222-12.838-0.443-25.637-0.665-38.395
				c-0.322-12.764-0.413-25.48-0.588-38.154c-0.303-25.348-0.84-50.52-0.564-75.498c0.283-12.502,0.566-24.951,0.848-37.352
				c0.063-3.1,0.127-6.195,0.191-9.287c0.066-3.094,0.091-6.184,0.242-9.27c0.226-6.17,0.45-12.328,0.675-18.473
				c0.415-12.289,0.69-24.529,0.888-36.72c0.312-12.186,0.467-24.323,0.403-36.415c0.753-24.145,2.409-53.064,3.381-79.005
				c0.277-6.485,0.548-12.788,0.804-18.788c0.252-6,0.604-11.694,0.645-16.975c0.227-10.555,0.492-19.419,0.808-25.632
				c-0.026-2.334-0.054-4.741-0.082-7.215c-0.024-2.474-0.017-5.013-0.12-7.609c-0.135-5.194-0.275-10.622-0.421-16.224
				c-0.111-5.601-0.226-11.376-0.343-17.265c-0.025-1.472-0.049-2.951-0.074-4.438l-0.035-2.232l-0.113-2.229
				c-0.152-2.976-0.307-5.972-0.461-8.982c-0.885-12.038-2.292-24.277-3.619-36.298c-0.162-1.493-0.346-3.014-0.408-4.598
				c-0.038-0.787-0.018-1.614,0.076-2.474c0.14-0.866,0.34-1.842,1.063-2.761c0.2-0.213,0.409-0.425,0.63-0.613
				c0.242-0.153,0.494-0.299,0.749-0.433c0.5-0.187,1.034-0.345,1.493-0.354c0.965-0.096,1.785,0.052,2.588,0.199
				c1.572,0.325,3.037,0.888,4.384,1.321c5.458,1.931,10.964,3.343,16.349,4.4c10.782,2.131,21.793,2.593,32.654,2.029
				c5.434-0.325,10.836-0.905,16.193-1.681c5.367-0.764,10.646-1.848,15.944-2.894c10.647-2.152,21.431-2.858,32.087-3.014
				c10.666-0.14,21.232,0.231,31.712,0.498c5.243,0.134,10.466,0.267,15.67,0.399c5.204,0.127,10.388,0.29,15.552,0.496
				c5.164,0.192,10.308,0.384,15.432,0.575c2.562,0.101,5.118,0.201,7.67,0.302c2.551,0.134,5.096,0.268,7.636,0.402
				c10.159,0.575,20.247,0.917,30.228,1.722c4.994,0.337,9.967,0.673,14.918,1.007c4.945,0.291,9.904,0.685,14.811,1.293
				c19.594,2.946,37.969,8.453,55.664,14.279c17.709,5.828,34.801,12.133,52.069,17.092c8.616,2.537,17.301,4.611,25.979,6.521
				c2.182,0.426,4.359,0.85,6.537,1.273l3.266,0.628l3.279,0.532l6.557,1.046l6.578,0.839c2.188,0.308,4.39,0.503,6.589,0.696
				c2.2,0.188,4.396,0.423,6.601,0.57c4.413,0.26,8.826,0.52,13.243,0.78c4.416,0.246,8.836,0.493,13.262,0.74
				c2.215,0.106,4.427,0.271,6.646,0.323c2.22,0.062,4.44,0.123,6.664,0.185c7.271,0.247,14.406,0.489,21.467,0.729
				c3.527,0.175,7.042,0.153,10.543,0.218c3.501,0.054,6.99,0.107,10.478,0.16c3.486,0.062,6.971,0.123,10.458,0.186
				c1.744,0.023,3.489,0.087,5.236,0.08c1.747-0.016,3.497-0.032,5.249-0.049c7.01-0.054,14.067-0.108,21.237-0.164
				c1.791-0.012,3.593-0.024,5.398-0.037c1.797-0.084,3.602-0.169,5.416-0.254c1.812-0.105,3.638-0.132,5.466-0.303
				c1.827-0.172,3.665-0.345,5.516-0.519c7.395-0.696,14.92-1.869,22.653-3.191c3.859-0.722,7.775-1.456,11.748-2.262
				c3.967-0.84,8.004-1.656,12.101-2.583c8.194-1.807,16.692-3.711,25.469-5.873c24.473-6.021,48.188-12.671,70.231-19.205
				c1.382-0.401,2.755-0.801,4.121-1.197c1.359-0.421,2.711-0.84,4.058-1.257c2.69-0.836,5.354-1.663,7.991-2.481
				c2.637-0.817,5.244-1.626,7.821-2.425c2.577-0.803,5.104-1.667,7.608-2.481c10.008-3.314,19.496-6.458,28.342-9.388
				c2.216-0.717,4.4-1.423,6.555-2.119c2.164-0.667,4.298-1.325,6.399-1.973c4.201-1.299,8.275-2.56,12.222-3.78
				c0.99-0.294,1.955-0.635,2.943-0.886c0.985-0.255,1.965-0.507,2.936-0.758c1.938-0.502,3.845-0.995,5.718-1.48
				c1.865-0.521,3.729-0.877,5.551-1.27c1.821-0.388,3.608-0.769,5.363-1.143c7.008-1.512,13.514-2.722,19.348-4.274
				c1.465-0.363,2.896-0.718,4.292-1.063c0.349-0.087,0.695-0.173,1.04-0.259c0.337-0.111,0.671-0.223,1.003-0.333
				c0.664-0.22,1.318-0.438,1.967-0.652c1.294-0.43,2.554-0.849,3.78-1.256c1.197-0.487,2.362-0.962,3.495-1.422
				c1.132-0.462,2.229-0.911,3.291-1.347c1.054-0.468,2.07-0.921,3.056-1.359c1.971-0.876,3.807-1.692,5.507-2.447
				c1.703-0.754,3.27-1.446,4.698-2.078c1.405-0.658,2.676-1.252,3.808-1.781c4.511-2.188,6.807-3.363,6.805-3.363
				c-0.027-0.059-0.626,0.182-1.781,0.711c-1.147,0.542-2.862,1.352-5.131,2.424c-1.132,0.523-2.398,1.111-3.806,1.762
				c-1.429,0.633-2.996,1.326-4.701,2.08c-1.695,0.762-3.528,1.585-5.497,2.468c-0.98,0.443-1.996,0.902-3.046,1.376
				c-1.059,0.441-2.151,0.896-3.277,1.366c-1.127,0.468-2.288,0.95-3.481,1.446c-1.22,0.417-2.475,0.846-3.762,1.285
				c-0.646,0.221-1.297,0.443-1.958,0.67c-0.331,0.112-0.663,0.227-0.999,0.341c-0.343,0.089-0.688,0.179-1.037,0.269
				c-1.393,0.359-2.818,0.729-4.279,1.105c-5.815,1.612-12.309,2.897-19.296,4.498c-1.749,0.396-3.53,0.799-5.347,1.211
				c-1.814,0.416-3.672,0.796-5.526,1.343c-1.862,0.51-3.758,1.028-5.687,1.556c-0.963,0.264-1.937,0.529-2.915,0.798
				c-0.981,0.264-1.942,0.618-2.929,0.927c-3.925,1.279-7.978,2.6-12.156,3.961c-2.089,0.68-4.209,1.37-6.361,2.07
				c-2.143,0.73-4.314,1.472-6.52,2.223c-8.87,2.855-18.22,5.93-28.034,9.194c-2.454,0.815-4.938,1.642-7.452,2.478
				c-2.525,0.8-5.08,1.609-7.665,2.429c-2.583,0.823-5.196,1.656-7.839,2.499c-2.642,0.851-5.312,1.705-8.034,2.5
				c-21.698,6.615-45.369,13.543-71.134,19.757c-8.456,1.916-16.547,3.64-24.341,5.31c-7.79,1.69-15.301,3.245-22.628,4.645
				c-14.652,2.783-28.652,4.779-42.688,5.193c-7.008,0.141-13.995,0.281-21.058,0.423c-3.533,0.063-7.083,0.128-10.664,0.192
				c-3.58-0.047-7.191-0.094-10.847-0.142c-7.306-0.113-14.78-0.215-22.517-0.416c-7.729-0.369-15.72-0.781-24.062-1.25
				c-8.354-0.241-16.921-0.937-25.684-1.488c-4.381-0.293-8.809-0.59-13.274-0.889c-2.233-0.118-4.474-0.402-6.725-0.6
				c-2.249-0.231-4.515-0.396-6.769-0.729c-2.261-0.298-4.525-0.597-6.801-0.896c-2.271-0.324-4.534-0.733-6.812-1.098l-3.42-0.564
				l-3.41-0.662c-2.275-0.451-4.556-0.902-6.842-1.354c-9.106-1.977-18.223-4.266-27.271-6.871
				c-18.086-5.272-35.871-11.703-53.561-17.262c-17.669-5.585-35.306-10.3-52.551-12.592c-8.062-1.183-17.155-1.635-26.812-2.36
				c-2.416-0.17-4.869-0.342-7.354-0.517c-2.486-0.178-5.003-0.363-7.555-0.458c-5.1-0.239-10.311-0.482-15.594-0.729
				c-10.559-0.573-21.424-0.854-32.259-1.276c-10.837-0.408-21.651-0.815-32.129-1.21c-10.478-0.351-21.034-0.808-31.651-0.734
				c-10.61,0.088-21.326,0.747-31.871,2.876c-5.291,1.044-10.613,2.146-16,2.938c-5.385,0.805-10.817,1.428-16.291,1.811
				c-10.942,0.678-22.07,0.396-33.068-1.498c-5.483-0.994-10.929-2.344-16.243-4.146c-1.353-0.415-2.644-0.907-3.933-1.214
				c-0.324-0.096-0.645-0.144-0.966-0.198c-0.325-0.07-0.638-0.094-0.948-0.105c-0.624-0.048-1.205,0.04-1.627,0.265
				c-0.852,0.385-1.113,1.709-1.135,3.014c-0.025,1.323,0.11,2.703,0.263,4.084c0.632,5.572,1.308,11.151,1.905,16.77
				c0.303,2.807,0.605,5.619,0.908,8.435c0.248,2.823,0.494,5.651,0.742,8.483c0.294,2.828,0.396,5.678,0.541,8.527l0.211,4.279
				c0.073,1.427,0.155,2.855,0.151,4.282c0.075,5.71,0.151,11.437,0.228,17.179c0.085,5.742,0.17,11.501,0.256,17.274
				c0.027,2.888,0.134,5.778,0.1,8.673c-0.021,2.896-0.043,5.794-0.063,8.697c-0.166,5.809-0.294,11.632-0.394,17.471
				c-0.043,2.919-0.086,5.842-0.129,8.77c-0.062,2.926-0.008,5.859-0.16,8.791c-0.391,11.734-0.785,23.529-1.18,35.383
				c-0.346,11.861-0.893,23.75-1.413,35.708c-0.295,5.977-0.591,11.967-0.888,17.972c-0.273,6.007-0.578,12.027-0.922,18.06
				c-0.371,12.074-0.745,24.203-1.121,36.386c-0.251,12.18-0.504,24.413-0.758,36.697c-0.152,6.142-0.307,12.296-0.46,18.464
				c-0.114,3.082-0.1,6.172-0.129,9.264c-0.028,3.094-0.056,6.189-0.084,9.287c-0.13,12.395-0.335,24.84-0.647,37.336
				c0.307,24.965,0.419,50.139,0.298,75.484c-0.036,12.674-0.156,25.395,0.082,38.143c0.103,6.375,0.206,12.76,0.31,19.154
				c0.143,6.396,0.379,12.803,0.611,19.219c0.033,3.273,0.068,6.545,0.102,9.812l0.062,4.9l0.033,2.41l0.002,0.582v0.301
				c-0.019,0.076,0.043,0.043,0.088,0.031l0.139-0.037l1.592-0.453l2.32-0.729l4.658-1.516l2.366-0.701
				c0.806-0.197,1.604-0.412,2.416-0.588c0.826-0.127,1.634-0.334,2.474-0.391c0.835-0.064,1.684-0.156,2.486-0.168
				c13.002-0.461,25.967-1.053,38.906-1.441c3.236-0.055,6.471-0.109,9.703-0.168c3.23-0.055,6.46-0.162,9.689-0.02
				c3.229,0.082,6.454,0.162,9.678,0.244l4.834,0.119c1.607,0.064,3.211,0.178,4.814,0.266c6.416,0.367,12.819,0.736,19.213,1.104
				c6.393,0.357,12.775,0.721,19.139,1.189c6.364,0.574,12.716,1.148,19.055,1.723c3.17,0.287,6.34,0.52,9.501,0.838
				c3.161,0.311,6.319,0.621,9.474,0.932c6.312,0.598,12.612,1.191,18.899,1.787l4.715,0.432l4.7,0.523
				c3.133,0.346,6.264,0.689,9.39,1.035c6.256,0.676,12.499,1.35,18.729,2.02c6.223,0.748,12.412,1.697,18.603,2.527
				c3.095,0.428,6.186,0.854,9.274,1.281c3.09,0.418,6.145,1.02,9.214,1.52c6.132,1.051,12.25,2.1,18.356,3.145
				c12.12,2.533,24.188,5.055,36.201,7.564c6.005,1.246,11.997,2.49,17.975,3.73c2.992,0.598,5.974,1.277,8.955,1.912
				c2.977,0.66,5.969,1.246,8.924,1.959c11.854,2.73,23.599,5.646,35.304,8.416c2.924,0.715,5.854,1.359,8.779,2.023
				c2.926,0.648,5.84,1.346,8.767,1.953c5.863,1.15,11.681,2.477,17.552,3.381c2.928,0.512,5.844,1.078,8.771,1.551
				c2.936,0.402,5.865,0.807,8.793,1.207c1.465,0.195,2.925,0.418,4.391,0.592l4.408,0.42c2.938,0.283,5.871,0.564,8.8,0.846
				c11.741,0.836,23.444,1.457,35.099,1.525c23.304,0.246,46.373-0.627,69.083-2.365c5.667-0.533,11.315-1.066,16.948-1.598
				c1.406-0.139,2.816-0.238,4.218-0.406l4.2-0.541c2.797-0.355,5.59-0.713,8.379-1.068c2.789-0.352,5.574-0.701,8.354-1.053
				l4.167-0.521l4.149-0.611c5.529-0.812,11.04-1.623,16.533-2.432c5.495-0.779,10.964-1.664,16.417-2.502
				c5.449-0.861,10.895-1.658,16.293-2.561c5.391-0.947,10.761-1.895,16.111-2.834c2.676-0.473,5.346-0.943,8.012-1.414
				c1.33-0.246,2.668-0.447,3.989-0.73l3.958-0.854c21.187-4.174,41.945-8.936,62.15-14.51c10.098-2.814,20.105-5.602,30.024-8.518
				c4.955-1.465,9.906-2.852,14.834-4.248c4.925-1.404,9.829-2.801,14.713-4.193c19.594-5.328,38.846-10.561,57.488-16.531
				c4.633-1.568,9.246-3.131,13.836-4.686c2.311-0.742,4.553-1.643,6.812-2.486c2.255-0.854,4.505-1.703,6.75-2.553l3.362-1.271
				c1.162-0.43,2.148-0.826,3.107-1.428c0.947-0.594,1.869-1.266,2.639-2.053c0.801-0.76,1.459-1.654,1.788-2.549
				c0.188-0.389,0.251-1.018,0.341-1.586l0.267-1.721c0.073-0.574,0.209-1.141,0.234-1.725l0.104-1.746
				c0.201-2.318,0.113-4.668,0.097-7.004c-2.21-37.678-4.331-73.852-6.354-108.379c-0.305-4.316-0.359-8.619-0.54-12.891
				c-0.152-4.273-0.306-8.52-0.456-12.74c-0.303-8.441-0.602-16.777-0.896-25.008c-0.24-16.469-0.475-32.512-0.701-48.111
				c-0.1-31.191-0.17-60.615-0.118-88.146c0.532-57.157,0.12-102.524,0.544-141.328c0.213-38.821,0.378-68.981,0.488-89.436
				c0.023-10.228,0.041-18.028,0.055-23.272c-0.014-2.622-0.021-4.605-0.027-5.933c-0.013-0.664-0.021-1.163-0.028-1.497
				C932.013,27.156,931.999,26.988,931.985,26.988z"/>
		</g>
		<g>
			<path d="M951.145,251.715c0-0.024,0.347-0.051,1.157-0.08l0.285-0.011l-0.008-0.271c-0.211-7.026-0.206-51.068-0.431-125.353
				c0.21-20.346,0.287-42.957,0.24-67.702c-0.053-12.373-0.106-25.278-0.164-38.701c-0.006-1.678-0.02-3.365-0.238-5.037
				c-0.134-0.833-0.223-1.676-0.475-2.487l-0.32-1.229l-0.456-1.188c-1.197-3.155-3.539-5.999-6.689-7.365l-1.197-0.46l-1.258-0.266
				c-0.414-0.118-0.848-0.105-1.274-0.133c-0.431-0.005-0.859-0.084-1.287-0.008l-1.287,0.132c-0.428,0.051-0.842,0.196-1.265,0.289
				c-0.854,0.16-1.643,0.55-2.456,0.857c-1.562,0.748-3.079,1.666-4.648,2.553c-1.559,0.891-3.123,1.784-4.695,2.683
				c-1.549,0.944-3.201,1.701-4.848,2.487c-1.647,0.787-3.301,1.579-4.962,2.373c-0.823,0.418-1.678,0.763-2.536,1.104
				c-0.856,0.347-1.715,0.694-2.574,1.043c-1.721,0.696-3.449,1.395-5.186,2.097c-3.537,1.21-7.078,2.521-10.701,3.672
				c-3.639,1.091-7.277,2.304-11.002,3.304c-7.418,2.129-15,4.082-22.658,6.168c-3.842,0.996-7.666,2.174-11.541,3.272
				c-3.871,1.115-7.771,2.238-11.697,3.369c-15.742,4.396-31.795,9.416-48.328,14.379c-8.269,2.483-16.645,5-25.124,7.547
				c-4.241,1.269-8.511,2.544-12.805,3.828c-4.29,1.294-8.654,2.442-13.019,3.68c-8.729,2.469-17.562,4.967-26.494,7.494
				c-8.961,2.418-18.025,4.87-27.209,7.273c-18.369,4.776-37.275,9.287-56.88,12.173c-2.452,0.345-4.901,0.761-7.372,1.05
				c-2.478,0.256-4.959,0.512-7.447,0.769c-4.971,0.605-9.993,0.797-15.031,1.14c-5.037,0.381-10.108,0.498-15.204,0.664
				c-2.548,0.066-5.101,0.202-7.661,0.213c-2.561,0.016-5.127,0.032-7.698,0.048c-20.578,0.099-41.526-0.771-62.789-2.077
				c-5.316-0.341-10.65-0.736-16.003-1.166c-2.678-0.213-5.358-0.428-8.047-0.642c-2.688-0.251-5.382-0.503-8.079-0.755
				c-10.784-1.127-21.615-2.672-32.425-4.805c-10.816-2.101-21.565-5.012-32.135-8.697c-10.58-3.658-21.059-7.691-31.979-10.742
				c-21.456-7.165-43.84-12.634-66.795-16.508c-22.959-3.883-46.482-6.181-70.324-7.223c-23.826-1.471-48.021-1.59-72.454-0.778
				c-6.11,0.165-12.231,0.52-18.373,0.774c-6.14,0.3-12.292,0.722-18.464,1.078c-12.316,0.768-24.624,2.538-37.086,3.845
				c-6.227,0.634-12.492,1.142-18.797,1.368c-6.308,0.178-12.652,0.001-18.98-0.65c-6.332-0.64-12.604-1.995-18.738-3.828
				l-4.568-1.508l-2.168-0.664c-0.733-0.117-1.465-0.29-2.202-0.349c-2.943-0.226-5.957,0.451-8.384,2.162
				c-2.43,1.682-4.383,4.092-5.637,6.854c-1.291,2.771-1.925,5.755-2.209,8.89c-0.623,6.37-1.282,12.732-1.312,19.089
				c-0.062,3.186,0.154,6.332,0.446,9.504c0.282,3.22,0.566,6.442,0.85,9.669c0.259,3.228,0.609,6.453,0.786,9.693
				c0.16,3.24,0.319,6.484,0.479,9.732c1.473,25.979,1.103,52.223,0.221,78.596c-0.502,13.182-1.007,26.415-1.514,39.698
				c-0.461,13.284-0.925,26.619-1.39,40.005c-2.716,53.451-2.939,107.761-5.44,162.63c-0.441,13.453-0.623,26.873-0.818,40.248
				c-0.073,6.688-0.146,13.365-0.221,20.031c-0.027,3.334-0.057,6.664-0.084,9.992c0.041,3.328,0.082,6.652,0.123,9.975
				c0.166,13.287,0.332,26.525,0.497,39.717c0.034,3.297,0.067,6.592,0.101,9.883l0.045,4.934c0.003,1.646,0.022,3.287,0.116,4.922
				c0.14,3.271,0.278,6.541,0.417,9.807l0.197,4.896c0.082,1.631,0.248,3.258,0.366,4.885c0.449,6.521,0.739,13.045,1.45,19.527
				c0.311,3.244,0.619,6.486,0.93,9.727c0.318,3.238,0.745,6.463,1.115,9.689c0.395,3.221,0.742,6.465,1.184,9.654
				c0.461,3.133,1.646,6.195,3.721,8.584c1.076,1.135,2.295,2.191,3.755,2.805c0.351,0.184,0.708,0.35,1.093,0.441l1.133,0.342
				c0.783,0.086,1.559,0.291,2.354,0.229c1.592,0.068,3.15-0.363,4.653-0.863c1.462-0.625,2.882-1.381,4.13-2.383
				c1.276-0.951,2.445-2.1,3.769-3.025c1.284-0.982,2.669-1.824,4.075-2.613c2.844-1.531,5.918-2.605,9.063-3.283
				c3.155-0.646,6.374-0.918,9.584-0.953c3.214-0.018,6.409,0.146,9.604,0.215c12.778,0.342,25.509,0.525,38.188,0.49
				c25.319,0.846,55.63,2.365,82.861,3.719c3.403,0.174,6.76,0.346,10.051,0.514c1.646,0.086,3.276,0.172,4.889,0.256
				c1.611,0.127,3.204,0.252,4.777,0.377c6.293,0.52,12.27,0.998,17.795,1.508c5.512,0.648,10.582,1.246,15.084,1.775
				c2.249,0.281,4.357,0.533,6.304,0.809c1.94,0.312,3.725,0.604,5.337,0.863c4.875,0.537,10.057,1.109,15.483,1.707
				c5.405,0.771,11.053,1.576,16.882,2.406c1.457,0.213,2.925,0.43,4.403,0.646c1.473,0.25,2.956,0.5,4.448,0.754
				c2.983,0.52,6.004,1.045,9.054,1.576c3.048,0.543,6.131,1.059,9.224,1.648c3.086,0.621,6.192,1.248,9.313,1.879
				c3.12,0.637,6.254,1.275,9.396,1.914c3.141,0.641,6.26,1.404,9.393,2.105c3.127,0.719,6.254,1.438,9.371,2.152
				c1.557,0.363,3.112,0.729,4.664,1.09c1.545,0.391,3.086,0.779,4.623,1.17c6.144,1.572,12.22,3.129,18.168,4.652
				c5.931,1.557,11.733,3.076,17.348,4.551c11.24,2.906,22.476,5.521,33.666,7.988c11.216,2.338,22.381,4.588,33.558,6.291
				c11.156,1.828,22.311,3.148,33.405,4.152c5.558,0.396,11.089,0.881,16.618,1.068c2.765,0.109,5.52,0.293,8.274,0.342
				c2.754,0.055,5.504,0.109,8.248,0.166c2.745,0.076,5.485,0.016,8.223,0.012c2.734-0.029,5.466,0.004,8.19-0.07
				c5.447-0.156,10.88-0.229,16.283-0.521c10.812-0.416,21.523-1.248,32.14-2.141c21.22-1.949,42.021-4.688,62.35-8.021
				c20.435-2.791,40.193-5.727,59.42-9.16c19.216-3.49,37.901-7.406,56.229-11.795c18.298-4.502,36.222-9.496,53.919-15.061
				c17.729-5.48,35.39-11.041,53.166-16.766c14.556-4.641,28.616-8.902,42.633-13.137c7.014-2.098,14.016-4.189,21.066-6.297
				c3.521-1.07,7.107-2.027,10.502-3.283c3.323-1.287,6.823-2.799,8.309-5.74c1.504-2.938,1.296-6.836,1.156-10.57
				c-0.207-3.824-0.415-7.686-0.626-11.592c-0.429-7.811-0.868-15.805-1.321-24.045c-0.475-8.238-0.964-16.725-1.471-25.52
				c-0.479-8.799-0.973-17.91-1.488-27.396c-0.447-6.604-0.678-13.184-0.952-19.705c-0.248-6.521-0.494-12.988-0.736-19.383
				c-0.211-12.787-0.418-25.281-0.617-37.342c-0.321-24.123-0.619-46.517-0.88-66.06c-0.121-39.069-0.358-69.386-0.667-89.935
				c-0.29-20.55-0.574-31.331-0.574-31.331c-0.065,0.001-0.103,0.676-0.112,2.008c-0.011,1.333,0.003,3.323,0.039,5.955
				c0.101,5.265,0.248,13.097,0.442,23.371c0.401,20.547,0.997,50.859,1.763,89.919c0.091,19.543,0.475,41.273,0.996,65.061
				c0.278,11.893,0.567,24.301,0.87,37.209c0.211,6.451,0.522,13.023,0.787,19.721c0.29,6.697,0.507,13.52,0.941,20.451
				c0.349,9.082,0.702,17.752,1.104,26.102c0.478,8.346,0.937,16.373,1.383,24.188c0.491,7.809,0.969,15.4,1.438,22.875
				c0.245,3.734,0.489,7.441,0.731,11.131c0.115,1.846,0.263,3.68,0.35,5.525c0.093,1.842,0.146,3.691-0.049,5.545
				c-0.182,1.838-0.634,3.723-1.679,5.318c-1.031,1.605-2.571,2.797-4.183,3.723c-1.616,0.947-3.347,1.643-5.081,2.293
				c-1.739,0.643-3.509,1.211-5.276,1.756c-7.082,2.166-14.238,4.355-21.562,6.596c-14.655,4.461-30.027,8.996-46.847,13.895
				c-16.748,5.123-34.459,10.539-52.697,16.117c-18.232,5.646-37.158,10.918-56.323,15.629c-19.172,4.68-38.591,8.729-57.726,12.322
				c-4.789,0.869-9.556,1.734-14.293,2.596c-4.751,0.785-9.472,1.57-14.155,2.348c-9.37,1.553-18.613,2.947-27.654,4.324
				c-16.981,2.449-37.773,5.406-59.887,7.596c-11.058,1.066-22.441,1.982-33.825,2.449c-5.688,0.301-11.381,0.387-17.022,0.49
				c-2.82,0.064-5.633-0.006-8.426-0.008c-2.793-0.029-5.568-0.012-8.32-0.137c-2.752-0.078-5.51-0.154-8.271-0.23
				c-2.763-0.068-5.525-0.273-8.296-0.404c-5.543-0.229-11.089-0.752-16.658-1.186c-11.124-1.07-22.299-2.439-33.477-4.271
				c-11.199-1.709-22.391-3.92-33.647-6.154c-11.23-2.361-22.522-4.809-33.841-7.457c-11.271-2.814-22.611-5.646-34.022-8.498
				c-2.855-0.689-5.7-1.451-8.578-2.088c-2.874-0.65-5.753-1.305-8.636-1.959c-5.766-1.311-11.543-2.648-17.382-3.787
				c-2.913-0.596-5.831-1.189-8.754-1.785c-2.923-0.59-5.844-1.219-8.792-1.719c-5.889-1.057-11.793-2.115-17.713-3.176
				c-5.945-0.918-11.906-1.84-17.883-2.762l-4.488-0.676l-4.509-0.57c-3.008-0.379-6.021-0.76-9.036-1.141
				c-24.1-3.438-48.652-5.24-73.506-5.988c-24.84-1.008-49.905-2.145-75.221-3.475c-12.663-0.4-25.385-0.805-38.161-1.209
				c-3.194-0.084-6.408-0.256-9.53-0.238c-3.137,0.033-6.252,0.309-9.275,0.938c-3.014,0.666-5.926,1.703-8.617,3.18
				c-1.331,0.764-2.641,1.57-3.858,2.52l-0.919,0.701l-0.881,0.756c-0.553,0.482-1.244,1.043-1.919,1.588
				c-1.345,1.096-2.897,1.955-4.523,2.662c-1.677,0.586-3.439,1.086-5.278,1.035c-0.912,0.072-1.822-0.137-2.73-0.24
				c-0.444-0.115-0.885-0.25-1.326-0.379c-0.45-0.109-0.87-0.293-1.283-0.498c-1.711-0.705-3.148-1.904-4.396-3.201
				c-2.418-2.713-3.76-6.129-4.303-9.531c-0.492-3.275-0.867-6.461-1.301-9.701c-0.404-3.229-0.863-6.455-1.209-9.699
				c-0.334-3.248-0.669-6.498-1.004-9.752c-0.75-6.496-1.059-13.057-1.494-19.607c-3.35-52.426-0.522-105.643-0.227-159.496
				c2.561-54.875,3.668-109.159,4.967-162.662c0.642-13.382,1.182-26.716,1.652-40.001c0.551-13.283,1.067-26.515,1.48-39.695
				c0.803-26.356,1.014-52.539-0.447-78.415c-0.128-3.237-0.256-6.471-0.383-9.7c-0.146-3.229-0.467-6.441-0.697-9.658
				c-0.256-3.215-0.513-6.427-0.769-9.634c-0.274-3.236-0.475-6.498-0.389-9.735c0.075-6.483,0.78-12.892,1.431-19.259
				c0.304-3.212,1.002-6.495,2.413-9.471c1.373-2.988,3.524-5.663,6.276-7.551c2.743-1.923,6.216-2.705,9.521-2.433
				c0.828,0.068,1.641,0.257,2.458,0.395l2.357,0.726l4.481,1.481c6.022,1.799,12.181,3.128,18.417,3.743
				c6.231,0.627,12.491,0.782,18.731,0.576c6.24-0.254,12.457-0.795,18.65-1.473c12.408-1.273,24.771-2.98,37.172-3.67
				c6.184-0.316,12.346-0.695,18.496-0.953c6.152-0.213,12.283-0.526,18.404-0.656c24.476-0.672,48.695-0.505,72.59,0.655
				c23.904,0.967,47.486,3.362,70.51,7.266c23.023,3.896,45.479,9.307,67.15,16.112c10.85,3.355,21.369,7.613,31.84,11.348
				c10.451,3.76,21.137,6.678,31.906,8.732c10.764,2.088,21.563,3.535,32.316,4.538c2.691,0.22,5.379,0.438,8.059,0.657
				c2.688,0.18,5.371,0.36,8.048,0.54c5.354,0.359,10.689,0.681,16.003,0.948c21.231,1.401,42.128,2.41,62.656,2.458
				c2.564,0.003,5.125,0.006,7.68,0.009c2.555,0.007,5.101-0.109,7.642-0.158c5.081-0.129,10.143-0.209,15.167-0.553
				c5.023-0.306,10.042-0.461,14.986-1.03c2.479-0.239,4.951-0.478,7.418-0.715c2.463-0.271,4.904-0.672,7.351-0.999
				c19.55-2.754,38.446-7.165,56.808-11.912c9.181-2.389,18.239-4.845,27.196-7.287c8.914-2.572,17.727-5.115,26.435-7.628
				c4.35-1.279,8.695-2.468,12.975-3.803c4.279-1.322,8.534-2.638,12.764-3.943c8.457-2.618,16.81-5.202,25.055-7.755
				c16.502-5.09,32.524-10.208,48.275-14.67c3.93-1.145,7.83-2.281,11.703-3.41c3.877-1.108,7.703-2.294,11.552-3.296
				c7.673-2.099,15.247-4.046,22.641-6.149c3.72-0.99,7.331-2.183,10.956-3.253c3.604-1.128,7.118-2.41,10.64-3.589
				c1.722-0.684,3.437-1.364,5.145-2.042c0.854-0.339,1.707-0.677,2.557-1.014c0.854-0.332,1.703-0.667,2.52-1.072
				c1.647-0.771,3.29-1.538,4.925-2.303c1.635-0.762,3.279-1.493,4.815-2.41c1.628-0.891,3.243-1.776,4.851-2.656
				c0.811-0.442,1.617-0.884,2.422-1.323l1.289-0.681l0.646-0.335l0.684-0.263l1.369-0.519c0.471-0.13,0.953-0.232,1.43-0.348
				l0.715-0.165l0.736-0.07c0.492-0.035,0.98-0.104,1.472-0.105c1.981,0.008,3.941,0.497,5.694,1.367
				c1.759,0.893,3.186,2.248,4.373,3.718c0.536,0.779,1.104,1.539,1.486,2.389c0.465,0.814,0.768,1.686,1.082,2.548
				c0.325,0.859,0.475,1.761,0.715,2.635c0.13,0.891,0.281,1.78,0.363,2.668c0.031,0.884,0.096,1.792,0.098,2.647
				c-0.002,0.852-0.004,1.699-0.007,2.545c-0.018,13.524-0.032,26.362-0.046,38.599c-0.008,24.472,0,46.539-0.203,66.885
				c-0.402,74.284-0.611,118.326-0.472,125.353l0.007,0.287l-0.3,0.012c-0.404,0.015-0.694,0.025-0.883,0.033
				C951.231,251.694,951.145,251.705,951.145,251.715z"/>
		</g>
	</g>
</g>
</svg>
