<?xml version="1.0" encoding="utf-8"?>
<!-- Generator: Adobe Illustrator 16.0.1, SVG Export Plug-In . SVG Version: 6.00 Build 0)  -->
<!DOCTYPE svg PUBLIC "-//W3C//DTD SVG 1.1//EN" "http://www.w3.org/Graphics/SVG/1.1/DTD/svg11.dtd">
<svg version="1.1" id="Layer_1" xmlns="http://www.w3.org/2000/svg" xmlns:xlink="http://www.w3.org/1999/xlink" x="0px" y="0px"
	 width="1180.738px" height="848.473px" viewBox="0 0 1180.738 848.473" enable-background="new 0 0 1180.738 848.473"
	 xml:space="preserve">
<g>
	<path d="M719.392,624.136c0.391-2.998,1.102-5.991,1.109-8.989c0.025-15.412,2.316-30.562,5.354-45.585
		c3.488-17.257,6.938-34.561,11.436-51.567c4.684-17.706,12.818-34.18,25.289-47.612c13.805-14.866,25-14.798,39.229-4.944
		c10.695,7.407,15.688,18.349,19.312,30.317c4.842,15.982,8.189,32.264,8.689,48.913c0.693,22.97,0.42,45.927-4.049,68.657
		c-1.715,8.732-2.088,17.727-3.422,26.546c-3.4,22.465-7.967,44.674-14.477,66.479c-3.645,12.201-6.295,24.725-10.41,36.755
		c-3.189,9.313-8.016,18.068-12.008,27.113c-2.369,5.358-4.51,10.815-6.797,16.209c-7.568,17.82-17.615,34.341-27.164,51.105
		c-1.512,2.656-4.518,4.918-7.354,6.253c-4.293,2.015-8.977,3.323-13.617,4.418c-3.057,0.723-5.969,0.103-7.824-3.242
		c-2.221-4.007-5.176-7.616-7.293-11.671c-4.889-9.34-11.42-17.432-18.197-25.408c-3.959-4.661-7.051-10.071-11.119-14.617
		c-11.018-12.304-22.346-24.334-33.562-36.459c-0.514-0.556-1.309-0.885-1.74-1.482c-9.971-13.813-20.49-27.277-29.686-41.591
		c-9.332-14.541-17.967-29.62-25.746-45.048c-6.52-12.928-11.507-26.644-16.926-40.109c-7.938-19.729-11.692-40.671-17.415-61.046
		c-5.438-19.373-7.544-39.191-6.004-59.129c1.822-23.706,13.587-38.028,38.181-41.434c9.4-1.3,18.027,0.363,26.773,3.981
		c26.096,10.812,44.908,29.009,58.418,53.677c11.078,20.229,18.783,41.817,27.619,62.961c1.445,3.46,1.271,7.57,2.498,11.154
		c2.941,8.573,6.273,17.017,9.447,25.51C718.421,624.213,718.912,624.174,719.392,624.136z M727.89,725.596
		c-4.688,2.356-7.09,0.979-7.664-2.746c-1.082-7.048-1.885-14.15-2.438-21.264c-0.932-11.943-0.543-24.09-2.6-35.821
		c-2.635-15.041-7.193-29.743-10.812-44.622c-1.625-6.681-2.467-13.592-4.594-20.097c-2.83-8.682-6.482-17.098-9.922-25.574
		c-8.877-21.896-17.521-43.768-32.221-62.876c-8.725-11.333-18.191-21.183-30.916-27.521c-10.875-5.418-21.789-10.028-34.857-7.411
		c-9.131,1.826-13.79,6.466-16.014,14.827c-0.443,1.672-0.971,3.947-2.206,4.679c-6.778,3.998-7.445,9.726-5.518,16.518
		c0.266,0.928-0.119,2.021-0.068,3.031c0.402,8.144,0.068,16.414,1.43,24.398c2.173,12.773,4.264,25.621,8.896,37.898
		c2.044,5.42,2.849,11.305,4.289,16.957c1.445,5.668,2.579,11.453,4.563,16.929c5.722,15.794,11.837,31.359,18.919,46.695
		c10.873,23.53,23.979,45.624,39.244,66.199c14.83,19.998,32.064,38.233,48.539,56.986c12.309,14.011,23.457,28.815,33.289,44.647
		c1.365,2.203,3.322,4.037,6.189,7.446c0.979-5.276,1.586-8.554,2.373-12.805c2.549,2.074,4.338,3.528,6.391,5.2
		c1.492-1.372,3.131-2.33,3.99-3.76c5.537-9.16,11.252-18.234,16.217-27.699c4.365-8.313,7.42-17.312,11.781-25.626
		c8.365-15.923,12.984-33.11,17.688-50.26c4.92-17.937,9.494-35.976,13.842-54.058c2.729-11.389,5.584-22.854,6.885-34.453
		c1.822-16.204,2.395-32.559,3.217-48.861c0.58-11.456,1.123-22.943,0.846-34.396c-0.219-8.878-1.848-17.714-2.643-26.588
		c-1.197-13.479-5.824-25.822-12.891-37.139c-3.354-5.371-8.236-9.688-14.465-12.081c-2.564-0.988-4.799-1.326-7.143,0.556
		c-6.363,5.098-12.598,10.247-16.25,17.834c-2.537,5.256-5.072,10.533-8.041,15.55c-7.273,12.291-9.426,26.216-12.863,39.7
		c-1.873,7.369-2.812,14.998-3.842,22.56c-1.916,14.169-4.027,28.333-5.238,42.57c-1.439,17.029-2.682,34.132-2.768,51.213
		c-0.072,14.69-2.258,29.604,2.391,44.148c0.605,1.89-0.432,5.851-1.863,6.577C725.197,716.024,725.613,720.297,727.89,725.596z"/>
	<path fill="#F4827B" d="M727.89,725.596c-2.277-5.299-2.693-9.57,3.145-12.535c1.434-0.727,2.469-4.688,1.865-6.576
		c-4.648-14.545-2.465-29.458-2.393-44.148c0.086-17.081,1.326-34.184,2.77-51.213c1.209-14.237,3.32-28.401,5.236-42.57
		c1.027-7.562,1.969-15.189,3.842-22.56c3.438-13.484,5.59-27.409,12.863-39.7c2.969-5.017,5.504-10.294,8.041-15.55
		c3.652-7.587,9.887-12.736,16.25-17.834c2.344-1.882,4.576-1.544,7.145-0.557c6.227,2.396,11.109,6.71,14.463,12.081
		c7.064,11.316,11.691,23.659,12.891,37.14c0.795,8.874,2.424,17.71,2.643,26.588c0.277,11.453-0.266,22.939-0.846,34.396
		c-0.822,16.304-1.395,32.657-3.217,48.861c-1.301,11.599-4.156,23.064-6.885,34.453c-4.348,18.082-8.922,36.121-13.84,54.058
		c-4.705,17.148-9.324,34.337-17.689,50.26c-4.361,8.313-7.416,17.312-11.781,25.625c-4.965,9.466-10.68,18.539-16.217,27.7
		c-0.859,1.43-2.498,2.388-3.99,3.759c-2.053-1.672-3.842-3.125-6.391-5.199c-0.787,4.251-1.393,7.526-2.373,12.805
		c-2.865-3.409-4.824-5.243-6.188-7.446c-9.832-15.832-20.982-30.638-33.291-44.647c-16.475-18.753-33.709-36.988-48.539-56.986
		c-15.266-20.575-28.371-42.669-39.244-66.199c-7.082-15.336-13.197-30.901-18.919-46.695c-1.984-5.476-3.118-11.262-4.563-16.929
		c-1.44-5.652-2.245-11.538-4.289-16.957c-4.632-12.277-6.723-25.125-8.896-37.898c-1.36-7.984-1.026-16.256-1.429-24.398
		c-0.052-1.01,0.334-2.104,0.067-3.032c-1.929-6.791-1.262-12.519,5.519-16.517c1.234-0.73,1.762-3.007,2.206-4.679
		c2.224-8.361,6.882-13.001,16.013-14.827c13.068-2.617,23.982,1.993,34.857,7.411c12.725,6.338,22.191,16.188,30.916,27.521
		c14.699,19.108,23.344,40.979,32.221,62.876c3.438,8.478,7.092,16.894,9.922,25.574c2.127,6.505,2.969,13.416,4.594,20.097
		c3.619,14.878,8.178,29.581,10.812,44.622c2.057,11.731,1.668,23.877,2.6,35.821c0.553,7.112,1.355,14.216,2.438,21.264
		C720.8,726.575,723.205,727.952,727.89,725.596z"/>
</g>
<g>
	<path d="M698.609,141.673c1.305-1.562,2.014-2.047,2.195-2.684c5.689-19.87,16.432-37.254,26.457-55.066
		c7.156-12.712,14.395-25.265,23.777-36.472c8.025-9.586,16.588-18.663,26.396-26.464c4.998-3.98,10.387-7.035,16.846-8.592
		c14.854-3.568,27.873,3.114,32.721,17.452c4.283,12.677,4.414,25.803,2.221,38.622c-3.092,18.092-7.35,36.014-11.703,53.864
		c-2.953,12.132-6.039,24.365-10.609,35.94c-10.029,25.395-18.939,51.243-31.164,75.77c-8.65,17.345-15.92,35.375-24.479,52.767
		c-5.393,10.964-12.072,21.288-18.064,31.96c-2.627,4.672-5.039,9.474-7.432,14.275c-1.646,3.288-1.527,5.926,1.865,8.619
		c4.369,3.467,4.66,7.342,1.896,10.516c-2.5,2.866-7.023,2.938-11.174,0.169c-0.213-0.139-0.363-0.411-0.586-0.49
		c-8.016-2.894-12.34-9.188-16.846-16.106c-4.648-7.133-11.771-12.602-17.199-19.299c-8.805-10.874-17.537-21.863-25.533-33.338
		c-11.359-16.302-22.684-32.701-32.812-49.775c-10.645-17.955-20.596-36.409-29.385-55.327c-4.438-9.541-9.579-19.179-10.87-30.105
		c-0.402-3.418-2.689-6.574-3.854-9.937c-7.215-20.874-10.003-42.63-12.676-64.396c-0.805-6.567-1.709-13.171-1.792-19.766
		c-0.063-5.518,0.886-11.061,1.581-16.568c0.829-6.559,2.16-13.067,2.762-19.644c1.101-12.012,9.787-15.148,19.461-16.941
		c13.136-2.438,24.89,2.182,35.312,9.287c8.312,5.668,15.479,13.03,22.994,19.816c2.053,1.853,3.676,4.243,5.254,6.552
		c4.729,6.921,9.783,13.675,13.881,20.962c4.473,7.943,8.248,16.312,11.896,24.682c2.535,5.812,4.043,12.067,6.549,17.893
		c5.256,12.258,7.99,25.177,10.775,38.107C697.474,138.895,697.919,139.784,698.609,141.673z M694.167,207.167
		c-1.033,0.715-1.445,0.997-1.859,1.283c-1.527,1.066-3.328,3.252-4.545,2.967c-3.109-0.729-1.859-3.609-1.541-5.791
		c1.207-8.327,2.936-16.621,3.555-24.989c0.557-7.587,0.289-15.285-0.318-22.88c-0.42-5.254-2.061-10.407-3.104-15.609
		c-0.949-4.721-1.377-9.6-2.814-14.155c-5.215-16.487-10.174-33.094-16.396-49.202c-3.912-10.121-8.812-20.253-15.232-28.922
		c-8.883-11.991-18.594-23.591-31.305-32.104c-8.277-5.545-16.613-8.576-26.311-3.565c-1.896,0.979-4.386,1.084-6.605,1.129
		c-5.287,0.1-6.93,1.793-4.646,6.284c1.748,3.443,1.206,5.949-0.11,9.282c-2.981,7.541-4.893,15.354-3.464,23.684
		c1.454,8.498,2.439,17.082,3.794,25.603c1.56,9.822,3.306,19.619,4.949,29.429c0.508,3.011,0.631,6.131,1.484,9.032
		c2.306,7.789,5.031,15.455,7.369,23.231c5.016,16.688,11.818,32.666,19.938,48.022c9.531,18.03,19.021,36.146,29.812,53.421
		c8.457,13.53,16.4,27.536,27.182,39.557c4.42,4.931,8.252,10.381,12.398,15.562c3.648,4.558,7.355,9.071,11.047,13.597
		c2.547,3.131,5.008,6.332,7.688,9.334c1.559,1.746,3.48,3.169,5.91,5.333c6.9-9.882,13.246-18.751,19.328-27.803
		c1.826-2.721,2.588-6.161,4.418-8.881c11.037-16.439,17.736-35.004,25.75-52.89c4.701-10.486,8.334-21.398,16.104-30.205
		c0.662-0.75,1.197-1.681,1.561-2.615c4.203-10.944,8.727-21.782,12.414-32.897c2.799-8.427,4.125-17.331,6.789-25.813
		c8.045-25.634,13.51-51.878,19.025-78.116c2.646-12.563,0.348-24.745-3.771-36.59c-2.289-6.578-5.609-7.791-12.229-6.483
		c-9.197,1.824-16.26,7.1-22.578,13.52c-10.562,10.734-19.969,22.342-28.473,34.867c-10.211,15.036-18.463,31.085-26.602,47.182
		c-5.041,9.959-8.629,20.688-12.443,31.225c-3.389,9.349-6.088,18.861-7.002,28.931c-0.693,7.691-2.889,15.25-4.652,24.062
		c0.914,1.938,5.68,3.852,3.807,9.584C699.46,211.372,696.97,209.396,694.167,207.167z"/>
	<path fill="#F4827B" d="M694.167,207.167c2.803,2.229,5.293,4.205,8.318,6.608c1.875-5.732-2.891-7.646-3.805-9.584
		c1.764-8.812,3.957-16.371,4.652-24.062c0.914-10.069,3.611-19.582,7.002-28.931c3.814-10.537,7.4-21.266,12.441-31.225
		c8.141-16.097,16.391-32.146,26.602-47.182c8.504-12.525,17.91-24.133,28.473-34.867c6.32-6.42,13.383-11.695,22.578-13.52
		c6.619-1.308,9.941-0.095,12.23,6.483c4.119,11.845,6.418,24.026,3.771,36.59c-5.518,26.238-10.982,52.482-19.025,78.116
		c-2.664,8.482-3.992,17.387-6.791,25.813c-3.688,11.115-8.211,21.953-12.414,32.897c-0.361,0.935-0.896,1.865-1.559,2.615
		c-7.771,8.807-11.402,19.719-16.104,30.205c-8.014,17.886-14.713,36.45-25.75,52.89c-1.832,2.72-2.592,6.16-4.418,8.881
		c-6.082,9.052-12.43,17.921-19.328,27.803c-2.43-2.164-4.355-3.587-5.91-5.333c-2.682-3.002-5.143-6.203-7.689-9.334
		c-3.689-4.525-7.396-9.039-11.047-13.597c-4.146-5.182-7.979-10.632-12.398-15.562c-10.779-12.021-18.725-26.026-27.182-39.557
		c-10.791-17.274-20.281-35.391-29.812-53.421c-8.119-15.356-14.922-31.335-19.938-48.022c-2.338-7.776-5.062-15.442-7.368-23.231
		c-0.854-2.901-0.978-6.021-1.484-9.032c-1.645-9.81-3.391-19.606-4.949-29.429c-1.354-8.521-2.34-17.104-3.794-25.603
		c-1.429-8.329,0.481-16.143,3.464-23.684c1.316-3.333,1.858-5.839,0.11-9.282c-2.284-4.491-0.643-6.185,4.645-6.284
		c2.221-0.045,4.71-0.149,6.605-1.129c9.697-5.011,18.033-1.979,26.311,3.565c12.711,8.513,22.424,20.112,31.307,32.104
		c6.42,8.669,11.318,18.801,15.232,28.922c6.223,16.108,11.182,32.715,16.396,49.202c1.438,4.556,1.863,9.435,2.814,14.155
		c1.041,5.202,2.682,10.355,3.104,15.609c0.605,7.595,0.875,15.293,0.316,22.88c-0.619,8.368-2.348,16.662-3.555,24.989
		c-0.318,2.182-1.566,5.062,1.543,5.791c1.215,0.285,3.018-1.9,4.543-2.967C692.722,208.164,693.134,207.882,694.167,207.167z"/>
</g>
<g>
	<path d="M1019.691,289.536c0.816-0.983,1.445-1.395,1.545-1.911c2.219-11.611,4.006-23.316,6.656-34.83
		c3.166-13.74,10.898-25.019,20.773-34.906c2.582-2.583,5.246-5.098,7.684-7.821c8.605-9.618,20.332-14.28,31.504-19.741
		c3.807-1.86,8.158-2.558,12.057-4.26c14.891-6.501,34.48,0.077,45.113,16.26c9.551,14.523,15.379,30.472,19.711,46.945
		c5.582,21.221,10.961,42.583,14.584,64.192c2.15,12.809,1.373,26.237,0.781,39.337c-0.709,15.82-2.529,31.592-4.088,47.364
		c-0.256,2.66-1.486,5.248-2.451,7.806c-1.176,3.144-3.176,6.111-3.707,9.34c-1.658,10.141-8.25,17.352-13.916,25.182
		c-2.305,3.187-3.951,6.848-6.227,10.06c-7.613,10.729-16.773,19.984-27.037,28.238c-16.824,13.522-35.18,24.762-53.365,36.258
		c-4.268,2.703-5.979,6.411-6.287,11.423c-0.471,7.604-1.172,7.849-8.93,8.187c-3.297,0.146-6.611,0.667-9.832,1.397
		c-4.879,1.108-9.199,1.178-14.082-1.273c-5.018-2.511-10.967-3.237-16.568-4.47c-8.082-1.774-15.396-5.114-22.939-8.562
		c-26.627-12.154-45.666-33.071-65.031-53.697c-8.732-9.298-17.471-18.754-24.865-29.104c-9.674-13.544-18.393-27.815-26.805-42.197
		c-5.525-9.438-9.98-19.523-14.508-29.501c-2.111-4.67-3.635-9.695-4.746-14.707c-2.43-10.966-6.373-21.461-7.693-32.85
		c-2.084-17.962,3.271-32.96,13.535-47.069c13.629-18.753,31.578-30.997,53.988-36.74c5.295-1.36,10.59-2.896,15.979-3.708
		c21.443-3.237,38.807,4.764,53.363,20.006c9.051,9.474,18.02,19.019,27.004,28.552
		C1013.511,285.508,1015.578,289.074,1019.691,289.536z M1034.66,367.847c-2.627-2.387-6.725-4.298-7.271-6.941
		c-1.82-8.793-7.881-16.636-5.488-26.503c0.854-3.549,0.279-8.245-1.412-11.486c-12.348-23.62-26.723-45.834-47.617-62.996
		c-9.531-7.826-19.689-14.092-32.861-14.044c-6.146,0.021-11.92,0.688-17.953,1.902c-15.785,3.165-28.684,10.624-40.004,21.948
		c-7.715,7.715-11.916,17.525-17.705,26.336c-4.062,6.192-6.994,13.826-0.592,21.08c0.643,0.718,0.51,2.403,0.291,3.558
		c-1.273,6.74,1.377,12.526,3.994,18.445c1.711,3.866,2.703,8.058,4.025,12.104c2.926,8.964,5.229,18.188,8.902,26.831
		c9.336,21.981,23.32,41.292,36.484,61.037c0.668,0.996,1.766,1.688,2.592,2.588c8.014,8.758,15.889,17.649,24.057,26.259
		c8.598,9.062,17.119,18.218,28.188,24.509c3.635,2.066,6.896,4.824,10.195,7.438c15.139,12.021,31.775,20.361,51.475,21.542
		c4.555,0.272,8.203-0.911,11.744-3.879c3.941-3.302,8.369-6.064,12.73-8.831c12.359-7.836,25.002-15.251,37.135-23.42
		c9.555-6.44,18.535-13.732,27.746-20.683c1.211-0.911,2.459-1.882,3.357-3.074c6.223-8.275,12.688-16.394,18.438-24.984
		c11.234-16.794,17.227-35.582,19.262-55.584c3.166-31.112,2.225-62.071-3.164-92.953c-3.451-19.746-10.957-38.071-18.75-56.23
		c-4.041-9.417-10.254-17.979-16.098-26.507c-1.855-2.707-5.465-5.037-8.682-5.799c-7.115-1.693-14.395-1.963-21.084,2.378
		c-2.527,1.638-5.562,2.463-8.229,3.917c-15.674,8.566-29.771,18.582-38.443,35.168c-3.604,6.895-5.508,14.117-8.262,21.165
		c-6.025,15.404-8.451,31.229-6.48,47.565c2.066,17.162,1.984,34.692,8.43,50.807C1040.552,363.014,1037.957,365.14,1034.66,367.847
		z"/>
	<path fill="#F4827B" d="M1034.66,367.847c3.297-2.707,5.893-4.833,8.951-7.339c-6.445-16.114-6.363-33.645-8.43-50.807
		c-1.973-16.337,0.453-32.161,6.479-47.565c2.756-7.048,4.658-14.271,8.264-21.165c8.672-16.586,22.77-26.602,38.443-35.168
		c2.664-1.454,5.699-2.279,8.229-3.917c6.688-4.341,13.967-4.071,21.084-2.378c3.215,0.762,6.824,3.092,8.682,5.799
		c5.842,8.528,12.057,17.09,16.098,26.507c7.793,18.159,15.297,36.484,18.75,56.23c5.389,30.882,6.328,61.841,3.164,92.953
		c-2.035,20.002-8.027,38.79-19.262,55.584c-5.748,8.592-12.217,16.709-18.439,24.984c-0.896,1.192-2.145,2.163-3.355,3.074
		c-9.213,6.949-18.193,14.241-27.746,20.683c-12.135,8.169-24.775,15.584-37.137,23.42c-4.361,2.767-8.787,5.529-12.73,8.831
		c-3.541,2.968-7.189,4.151-11.744,3.879c-19.697-1.181-36.334-9.521-51.473-21.542c-3.299-2.613-6.562-5.371-10.195-7.438
		c-11.068-6.291-19.592-15.446-28.188-24.509c-8.17-8.608-16.043-17.501-24.057-26.259c-0.826-0.898-1.926-1.592-2.592-2.588
		c-13.164-19.745-27.148-39.055-36.484-61.037c-3.674-8.643-5.979-17.867-8.904-26.831c-1.32-4.046-2.312-8.237-4.023-12.104
		c-2.617-5.919-5.27-11.705-3.994-18.445c0.219-1.154,0.352-2.84-0.291-3.558c-6.402-7.254-3.473-14.888,0.59-21.08
		c5.791-8.811,9.99-18.621,17.705-26.336c11.32-11.324,24.221-18.783,40.006-21.948c6.033-1.214,11.807-1.882,17.951-1.902
		c13.174-0.048,23.33,6.218,32.863,14.044c20.896,17.162,35.27,39.376,47.615,62.996c1.693,3.241,2.268,7.938,1.412,11.486
		c-2.391,9.867,3.67,17.71,5.49,26.503C1027.935,363.549,1032.033,365.46,1034.66,367.847z"/>
</g>
<g>
	<path d="M292.819,273.67c9.649-9.04,14.023-18.406,16.751-29.641c3.393-13.946,8.902-27.49,14.623-40.724
		c14.511-33.586,28.582-67.454,49.228-97.948c14.338-21.18,29.464-41.619,49.74-57.913c11.428-9.177,24.222-13.988,38.104-15.563
		c15.725-1.784,35.761,13.041,42.085,31.433c8.148,23.696,13.456,48.058,12.966,73.469c-0.229,11.561,2.174,23.202,1.672,34.735
		c-0.91,20.792-2.504,41.595-4.931,62.252c-2.622,22.293-6.328,44.472-9.967,66.634c-1.4,8.562-4.112,16.898-5.877,25.414
		c-12.56,60.782-24.763,121.628-37.629,182.327c-7.195,33.979-15.072,67.812-23.367,101.527
		c-5.798,23.577-12.76,46.87-19.331,70.248c-1.759,6.278-3.15,12.1,1.108,18.277c3.763,5.46,5.061,11.76,0.637,17.913
		c-4.867,6.764-11.931,7.273-18.855,5.434c-11.753-3.128-23.692-6.179-34.764-11.067c-36.053-15.918-73.209-30.356-105.004-53.907
		c-26.015-19.263-53.855-36.463-75.674-61.3c-12.153-13.839-27.566-24.786-39.92-38.463
		c-41.801-46.295-79.747-95.224-107.582-151.729c-10.809-21.94-20.032-44.259-28.56-67.006c-8.596-22.914-10.183-47.023-6.19-70.602
		c3.746-22.132,15.818-41.891,32.868-56.195c27.593-23.139,58.648-35.557,96.691-28.125c32.229,6.3,60.621,19.045,86.732,38.002
		c21.108,15.316,41.916,31.069,62.976,46.455C284.545,269.95,288.414,271.377,292.819,273.67z M394.929,653.252
		c1.934-3.384,3.927-5.675,4.652-8.314c5.096-18.461,10.385-36.885,14.738-55.53c7.129-30.513,13.401-61.226,20.392-91.783
		c6.197-27.104,13.209-54.029,19.244-81.159c5.042-22.664,8.896-45.597,13.932-68.26c1.465-6.587,5.353-12.611,7.801-19.025
		c1.821-4.743,4.125-9.624,4.448-14.561c1.088-16.623,0.771-33.347,2.126-49.938c2.829-34.746,5.855-69.49,9.793-104.121
		c3.347-29.42-4.467-56.561-14.954-83.171c-7.09-17.976-15.992-20.637-32.721-11.496c-3.039,1.655-5.678,4.048-8.484,6.132
		c-18.017,13.393-31.637,30.371-42.091,50.218c-12.688,24.091-27.274,47.272-38.635,71.95
		c-12.294,26.713-21.867,54.678-32.537,82.133c-3.647,9.363-6.438,19.321-2.066,28.804c5.757,12.492,13.435,24.094,19.405,36.502
		c8.749,18.195,20.158,35.462,21.168,56.625c0.338,7.201,0.695,14.1-9.389,18.552c-4.167-4.453-7.935-10.699-13.467-13.8
		c-6.312-3.521-14.233-4.125-21.377-6.262c-1.547-0.468-2.914-1.944-4.076-3.207c-14.555-15.805-25.096-32.72-22.364-56.008
		c1.924-16.371-1.438-31.606-15.166-44.033c-36.406-32.957-74.994-61.875-121.084-80.568c-17.965-7.298-34.776-7.595-52.571-3.702
		c-6.174,1.346-11.837,5.117-18.025,6.289c-13.138,2.492-20.137,12.392-29.133,20.663c-9.367,8.626-17.285,15.207-20.386,29.68
		c-4.445,20.694-3.374,39.783,1.239,59.717c8.677,37.557,30.185,68.967,48.353,101.931c8.079,14.654,17.7,28.566,27.623,42.062
		c17.525,23.818,33.841,48.97,54.29,70.044c25.343,26.129,52.333,50.839,81.835,72.822c34.812,25.941,73.117,44.96,112.083,63.118
		c3.22,1.505,7.376,1,12.08,1.538c-0.046-5.001-0.343-8.406-0.057-11.771c0.562-6.633-0.995-15.711,2.692-19.346
		C381.849,638.457,386.295,651.011,394.929,653.252z M324.616,359.323c0.536,17.003,0.536,17.003,14.084,14.763
		C333.893,369.041,330.218,365.201,324.616,359.323z"/>
	<path fill="#F4827B" d="M394.929,653.252c-8.634-2.241-13.08-14.795-20.688-7.276c-3.688,3.636-2.131,12.714-2.692,19.347
		c-0.286,3.363,0.011,6.771,0.058,11.771c-4.705-0.538-8.861-0.034-12.081-1.538c-38.966-18.158-77.271-37.177-112.083-63.119
		c-29.502-21.982-56.492-46.692-81.835-72.821c-20.449-21.074-36.765-46.226-54.29-70.044
		c-9.923-13.496-19.544-27.408-27.623-42.062c-18.167-32.964-39.675-64.374-48.353-101.931c-4.613-19.934-5.685-39.022-1.239-59.717
		c3.101-14.473,11.019-21.054,20.386-29.68c8.997-8.271,15.995-18.171,29.133-20.663c6.188-1.172,11.851-4.943,18.025-6.289
		c17.795-3.893,34.606-3.596,52.571,3.702c46.09,18.693,84.678,47.611,121.084,80.568c13.728,12.427,17.09,27.662,15.166,44.033
		c-2.731,23.288,7.81,40.203,22.364,56.008c1.162,1.263,2.529,2.739,4.076,3.207c7.144,2.137,15.064,2.74,21.377,6.262
		c5.532,3.1,9.3,9.346,13.467,13.8c10.084-4.453,9.728-11.351,9.389-18.552c-1.01-21.163-12.419-38.43-21.168-56.625
		c-5.972-12.408-13.648-24.01-19.405-36.502c-4.372-9.482-1.581-19.44,2.066-28.804c10.67-27.455,20.243-55.42,32.537-82.133
		c11.359-24.678,25.946-47.859,38.635-71.95c10.454-19.847,24.074-36.825,42.092-50.218c2.807-2.084,5.444-4.477,8.483-6.132
		c16.729-9.141,25.631-6.479,32.722,11.496c10.486,26.61,18.3,53.751,14.953,83.171c-3.938,34.631-6.964,69.375-9.793,104.121
		c-1.354,16.591-1.038,33.314-2.126,49.938c-0.322,4.937-2.627,9.817-4.447,14.561c-2.449,6.414-6.336,12.438-7.802,19.025
		c-5.033,22.663-8.89,45.596-13.932,68.26c-6.035,27.13-13.047,54.056-19.244,81.159c-6.989,30.559-13.263,61.271-20.392,91.783
		c-4.354,18.646-9.644,37.069-14.738,55.53C398.855,647.577,396.862,649.868,394.929,653.252z"/>
</g>
</svg>
