<?xml version="1.0" encoding="utf-8"?>
<!-- Generator: Adobe Illustrator 16.0.1, SVG Export Plug-In . SVG Version: 6.00 Build 0)  -->
<!DOCTYPE svg PUBLIC "-//W3C//DTD SVG 1.1//EN" "http://www.w3.org/Graphics/SVG/1.1/DTD/svg11.dtd">
<svg version="1.1" id="Layer_1" xmlns="http://www.w3.org/2000/svg" xmlns:xlink="http://www.w3.org/1999/xlink" x="0px" y="0px"
	 width="960px" height="705px" viewBox="0 0 960 705" enable-background="new 0 0 960 705" xml:space="preserve">
<g>
	<path d="M35.646,96.4c-2.545-0.696-3.457-1.201-4.357-1.16c-19.4,0.801-25.386-4.045-30.312-24.604
		C-2.097,57.8,2.054,49.512,13.845,47.382c29-5.242,58.077-9.913,87.138-14.721c22.407-3.693,44.789-7.717,67.266-10.735
		c24.301-3.25,48.672-5.891,73.061-8.076c42.51-3.809,85.002-8.568,127.597-10.202c61.534-2.36,123.152-2.382,184.73-3.201
		c25.121-0.341,50.271-0.775,75.375-0.059c43.562,1.248,87.104,3.549,130.662,4.901c7.388,0.225,15.006-1.293,22.205-3.402
		c8.069-2.352,15.232-1.617,23.463,0.52c14.605,3.812,29.831,4.972,44.854,6.057c6.907,0.493,13.346,0.106,17.341,7.806
		c5.262,10.146,11.735,20.04,8.489,32.844c-2.18,8.62-8.982,12.692-17.873,11.637c-7.934-0.927-15.856-1.819-24.585-2.805
		c-0.547,4.508-1.588,7.641-1.162,10.484c11.101,73.303,10.897,147.496,14.492,221.431c3.016,62.113,6.748,124.382,18.883,185.448
		c4.258,21.453,8.009,43.041,11.919,64.59c1.394,7.66,4.738,13.504,10.06,18.756c9.59,9.469,15.207,21.461,14.492,36.549
		c-1.293,27.061-0.624,34.963,29.963,30.766c4.383-0.596,9.771,0.049,13.406,2.533c8.121,5.543,16.125,32.314,14.048,43.303
		c-1.999,10.562-10.905,18.162-19.845,14.887c-10.16-3.713-21.409-1.402-31.051-9.371c-4.199-3.482-11.943-1.51-18.094-1.896
		c-14.127-0.889-28.258-1.836-42.396-2.516c-22.203-1.043-44.413-1.914-66.634-2.822c-46.864-1.906-93.729-5.107-140.61-5.318
		c-53.48-0.264-107.014,1.17-160.454,3.703c-40.161,1.904-80.236,6.51-120.319,10.299c-35.883,3.387-71.766,6.945-107.589,11.104
		c-24.491,2.846-48.844,7.131-73.325,10.168c-11.657,1.449-23.468,1.312-35.199,2.242c-8.421,0.666-16.805,2.652-25.218,2.719
		c-16.704,0.135-21.725-5.066-26.098-22.709c-9.742-39.309-18.451-78.838-22.577-119.479c-1.685-16.52-3.042-33.076-4.484-49.627
		c-0.229-2.67-0.016-5.379-0.171-8.057c-3.174-52.434-6.487-104.834-9.512-157.274c-2.681-46.562-4.406-93.2-7.711-139.702
		c-2.391-33.66-6.627-67.163-10.171-100.725C37.831,103.809,36.579,100.309,35.646,96.4z M850.867,621.704
		c-0.558-4.936-0.648-8.088-1.287-11.076c-6.739-31.289-14.885-62.277-20.088-93.883c-9.195-55.916-18.395-111.887-21.166-168.914
		c-2.649-54.085-6.101-108.123-9.269-162.168c-2.356-40.149-3.381-80.473-13.039-119.633c-3.653-14.837-5.381-16.984-19.351-17.776
		c-10.4-0.602-20.837-0.427-31.244-1.046c-31.188-1.856-62.354-5.086-93.566-5.668c-51.613-0.978-103.25-0.6-154.871-0.233
		c-36.455,0.272-72.908,1.193-109.347,2.36c-23.663,0.774-47.387,1.588-70.938,4.063c-31.098,3.271-62.115,7.739-93.071,12.518
		c-39.854,6.131-79.62,12.978-119.397,19.749c-11.801,2.012-12.559,3.715-10.957,16.771c0.65,5.311,1.172,10.658,1.487,16.007
		c1.497,25.146,2.921,50.304,4.348,75.452c2.435,42.806,5.055,85.615,7.215,128.442c1.494,29.473,1.726,59.039,3.637,88.46
		c3.204,49.184,6.712,98.363,11.307,147.4c1.811,19.322,3.125,39.385,16.455,55.207c3.989,4.738,4.108,13.811,5.604,21.008
		c1.031,4.973,1.373,10.117,1.956,14.641c9.256,0.846,16.787,2.342,24.267,2.072c24.583-0.891,49.17-2.012,73.713-3.791
		c39.663-2.854,79.279-6.441,118.936-9.469c40.153-3.066,80.295-6.762,120.508-8.473c55.402-2.352,110.856-3.551,166.295-4.4
		c39.318-0.602,78.658-0.137,117.982,0.5c26.515,0.426,53.011,2.053,79.524,2.953C841.03,622.932,845.555,622.129,850.867,621.704z"
		/>
	<g>
		<g>
			<defs>
				<path id="SVGID_1_" d="M850.867,621.704c-5.312,0.426-9.837,1.229-14.355,1.074c-26.515-0.9-53.011-2.527-79.524-2.953
					c-39.324-0.637-78.664-1.102-117.982-0.5c-55.438,0.85-110.893,2.049-166.295,4.4c-40.213,1.711-80.354,5.404-120.508,8.473
					c-39.656,3.025-79.272,6.615-118.936,9.469c-24.543,1.779-49.13,2.9-73.713,3.791c-7.479,0.27-15.011-1.229-24.267-2.072
					c-0.583-4.523-0.925-9.668-1.956-14.641c-1.496-7.197-1.615-16.27-5.604-21.008c-13.33-15.822-14.645-35.885-16.455-55.207
					c-4.595-49.037-8.103-98.219-11.307-147.4c-1.911-29.422-2.143-58.987-3.637-88.46c-2.16-42.827-4.78-85.637-7.215-128.442
					c-1.427-25.148-2.851-50.307-4.348-75.452c-0.315-5.349-0.837-10.696-1.487-16.007c-1.602-13.056-0.844-14.759,10.957-16.771
					c39.777-6.771,79.544-13.618,119.397-19.749c30.956-4.778,61.974-9.246,93.071-12.518c23.551-2.476,47.273-3.289,70.938-4.063
					c36.438-1.167,72.892-2.088,109.347-2.36c51.622-0.366,103.258-0.744,154.871,0.233c31.213,0.582,62.38,3.812,93.566,5.668
					c10.407,0.619,20.844,0.444,31.244,1.046c13.97,0.792,15.696,2.939,19.352,17.776c9.657,39.16,10.682,79.483,13.039,119.633
					c3.168,54.045,6.617,108.083,9.268,162.168c2.771,57.027,11.971,112.998,21.166,168.914
					c5.203,31.605,13.349,62.594,20.088,93.883C850.219,613.616,850.311,616.77,850.867,621.704z"/>
			</defs>
			<clipPath id="SVGID_2_">
				<use xlink:href="#SVGID_1_"  overflow="visible"/>
			</clipPath>
			<g clip-path="url(#SVGID_2_)">
				<polygon fill="#ED1C24" points="890.27,210.006 878.364,0.628 36.851,62.016 48.756,271.385 				"/>
				<polygon fill="#FFFFFF" points="902.189,419.713 890.286,210.335 48.772,271.715 60.685,481.092 				"/>
				<polygon fill="#00A651" points="914.153,630.079 902.207,420.032 60.7,481.411 72.64,691.458 				"/>
				<path fill="none" stroke="#000000" stroke-width="0.5" d="M914.385,629.731L878.613,0.618L36.851,62.016l35.771,629.113
					L914.385,629.731L914.385,629.731z"/>
			</g>
		</g>
		<g>
			<defs>
				<path id="SVGID_3_" d="M850.867,621.704c-5.312,0.426-9.837,1.229-14.355,1.074c-26.515-0.9-53.011-2.527-79.524-2.953
					c-39.324-0.637-78.664-1.102-117.982-0.5c-55.438,0.85-110.893,2.049-166.295,4.4c-40.213,1.711-80.354,5.404-120.508,8.473
					c-39.656,3.025-79.272,6.615-118.936,9.469c-24.543,1.779-49.13,2.9-73.713,3.791c-7.479,0.27-15.011-1.229-24.267-2.072
					c-0.583-4.523-0.925-9.668-1.956-14.641c-1.496-7.197-1.615-16.27-5.604-21.008c-13.33-15.822-14.645-35.885-16.455-55.207
					c-4.595-49.037-8.103-98.219-11.307-147.4c-1.911-29.422-2.143-58.987-3.637-88.46c-2.16-42.827-4.78-85.637-7.215-128.442
					c-1.427-25.148-2.851-50.307-4.348-75.452c-0.315-5.349-0.837-10.696-1.487-16.007c-1.602-13.056-0.844-14.759,10.957-16.771
					c39.777-6.771,79.544-13.618,119.397-19.749c30.956-4.778,61.974-9.246,93.071-12.518c23.551-2.476,47.273-3.289,70.938-4.063
					c36.438-1.167,72.892-2.088,109.347-2.36c51.622-0.366,103.258-0.744,154.871,0.233c31.213,0.582,62.38,3.812,93.566,5.668
					c10.407,0.619,20.844,0.444,31.244,1.046c13.97,0.792,15.696,2.939,19.352,17.776c9.657,39.16,10.682,79.483,13.039,119.633
					c3.168,54.045,6.617,108.083,9.268,162.168c2.771,57.027,11.971,112.998,21.166,168.914
					c5.203,31.605,13.349,62.594,20.088,93.883C850.219,613.616,850.311,616.77,850.867,621.704z"/>
			</defs>
			<clipPath id="SVGID_4_">
				<use xlink:href="#SVGID_3_"  overflow="visible"/>
			</clipPath>
			<path clip-path="url(#SVGID_4_)" d="M873.079,230.821c-33.638,1.886-67.214,3.908-100.81,5.938
				c-34.607,2.089-69.236,4.159-103.804,6.383c-38.548,2.456-76.959,5.359-115.572,7.564c-68.846,3.915-137.809,7.438-206.715,11.18
				c-29.263,1.578-58.476,3.386-87.75,4.895c-26.319,1.375-52.72,2.36-79.014,3.753c-33.193,1.76-66.335,3.734-99.452,5.745
				c-4.37,0.271-8.571,1.182-12.737,1.916c-16.55,2.922-27.926-4.661-26.098-10.369c0.837-2.63,1.281-5.291,1.658-7.949
				c0.527-3.734,4.062-5.765,12.433-6.521c3.895-0.348,7.966-0.271,11.937-0.444c29.326-1.286,58.649-2.593,87.957-3.887
				c21.381-0.93,42.783-1.8,64.146-2.805c31.271-1.481,62.501-3.115,93.781-4.574c29.246-1.367,58.561-2.459,87.783-3.919
				c34.729-1.742,69.409-3.656,104.053-5.687c23.253-1.355,46.411-3.009,69.588-4.604c20.732-1.442,41.398-3.038,62.107-4.497
				c37.905-2.68,75.89-5.146,113.717-8.028c25.987-1.981,51.672-4.729,77.657-6.721c21.161-1.617,42.546-2.592,63.841-3.9"/>
		</g>
		<g>
			<defs>
				<path id="SVGID_5_" d="M850.867,621.704c-5.312,0.426-9.837,1.229-14.355,1.074c-26.515-0.9-53.011-2.527-79.524-2.953
					c-39.324-0.637-78.664-1.102-117.982-0.5c-55.438,0.85-110.893,2.049-166.295,4.4c-40.213,1.711-80.354,5.404-120.508,8.473
					c-39.656,3.025-79.272,6.615-118.936,9.469c-24.543,1.779-49.13,2.9-73.713,3.791c-7.479,0.27-15.011-1.229-24.267-2.072
					c-0.583-4.523-0.925-9.668-1.956-14.641c-1.496-7.197-1.615-16.27-5.604-21.008c-13.33-15.822-14.645-35.885-16.455-55.207
					c-4.595-49.037-8.103-98.219-11.307-147.4c-1.911-29.422-2.143-58.987-3.637-88.46c-2.16-42.827-4.78-85.637-7.215-128.442
					c-1.427-25.148-2.851-50.307-4.348-75.452c-0.315-5.349-0.837-10.696-1.487-16.007c-1.602-13.056-0.844-14.759,10.957-16.771
					c39.777-6.771,79.544-13.618,119.397-19.749c30.956-4.778,61.974-9.246,93.071-12.518c23.551-2.476,47.273-3.289,70.938-4.063
					c36.438-1.167,72.892-2.088,109.347-2.36c51.622-0.366,103.258-0.744,154.871,0.233c31.213,0.582,62.38,3.812,93.566,5.668
					c10.407,0.619,20.844,0.444,31.244,1.046c13.97,0.792,15.696,2.939,19.352,17.776c9.657,39.16,10.682,79.483,13.039,119.633
					c3.168,54.045,6.617,108.083,9.268,162.168c2.771,57.027,11.971,112.998,21.166,168.914
					c5.203,31.605,13.349,62.594,20.088,93.883C850.219,613.616,850.311,616.77,850.867,621.704z"/>
			</defs>
			<clipPath id="SVGID_6_">
				<use xlink:href="#SVGID_5_"  overflow="visible"/>
			</clipPath>
			<path clip-path="url(#SVGID_6_)" d="M873.079,436.348c-33.638,1.879-67.214,3.898-100.81,5.922
				c-34.607,2.09-69.236,4.18-103.804,6.383c-38.548,2.467-76.959,5.367-115.572,7.564c-68.846,3.926-137.809,7.445-206.715,11.18
				c-29.263,1.586-58.476,3.387-87.75,4.904c-26.319,1.371-52.72,2.35-79.014,3.752c-33.193,1.771-66.335,3.742-99.452,5.746
				c-4.37,0.26-8.571,1.168-12.737,1.904c-16.55,2.941-27.926-4.664-26.098-10.369c0.837-2.619,1.281-5.279,1.658-7.93
				c0.527-3.754,4.062-5.783,12.433-6.527c3.895-0.35,7.966-0.273,11.937-0.445c29.326-1.285,58.649-2.604,87.957-3.879
				c21.381-0.949,42.783-1.818,64.146-2.826c31.271-1.471,62.501-3.104,93.781-4.562c29.246-1.375,58.561-2.457,87.783-3.928
				c34.729-1.742,69.409-3.646,104.053-5.676c23.253-1.365,46.411-3.012,69.588-4.615c20.732-1.432,41.398-3.027,62.107-4.486
				c37.905-2.689,75.89-5.146,113.717-8.029c25.987-1.973,51.672-4.721,77.657-6.711c21.161-1.627,42.546-2.604,63.841-3.908"/>
		</g>
	</g>
</g>
</svg>
