<?xml version="1.0" encoding="utf-8"?>
<!-- Generator: Adobe Illustrator 16.0.1, SVG Export Plug-In . SVG Version: 6.00 Build 0)  -->
<!DOCTYPE svg PUBLIC "-//W3C//DTD SVG 1.1//EN" "http://www.w3.org/Graphics/SVG/1.1/DTD/svg11.dtd">
<svg version="1.1"
	 id="Layer_1" xmlns:dc="http://purl.org/dc/elements/1.1/" xmlns:cc="http://creativecommons.org/ns#" xmlns:rdf="http://www.w3.org/1999/02/22-rdf-syntax-ns#" xmlns:svg="http://www.w3.org/2000/svg"
	 xmlns="http://www.w3.org/2000/svg" xmlns:xlink="http://www.w3.org/1999/xlink" x="0px" y="0px" width="961.333px"
	 height="706.13px" viewBox="6042.132 -837.454 961.333 706.13" enable-background="new 6042.132 -837.454 961.333 706.13"
	 xml:space="preserve">
<g id="g1237">
	<path id="path1239" stroke="#000000" stroke-width="0.25" stroke-miterlimit="10" d="M6043.336-778.468
		c39.266-1.668,78.42-2.896,117.49-4.963c39.086-1.303,78.104-3.99,117.078-5.949c24.842-1.123,49.633-3.061,74.406-6.645
		c24.762-2.6,49.521-5.895,74.324-7.742c18.957-2.211,37.914-4.219,56.885-4.734c18.971-1.725,37.955-3.379,56.939-4.074
		c18.598-1.338,37.193-2.723,55.795-3.736c18.584-0.594,37.193-2.213,55.795-3.605c18.598-0.82,37.193-1.758,55.809-3.227
		c18.6-0.758,37.211-2.404,55.822-3.611c15.041-0.104,30.082-0.766,45.139-2.344c15.057-0.848,30.107-1.854,45.166-2.365
		c15.055-0.812,30.109-2.17,45.164-2.391c15.057-0.139,30.109-1.311,45.166-1.875c10.354-0.525,20.832,0.178,31.062-1.311
		c13.951-1.365,20.129,1.736,20.584,17.371c0.467,15.09,1.062,31.076,1.695,47.096c0.633,15.199,1.309,32.082,1.971,47.082
		c0.662,16.791,1.312,31.785,1.891,47.436c0.562,15.654,1.061,31.189,1.42,46.736c0.539,23.389,0.455,46.385,0.221,69.354
		c-0.248,23.127-0.646,46.262-0.729,69.383c-0.098,34.68,0.041,69.348,0.098,104.006c0.098,59.746-0.357,119.49,0.674,179.236
		c0.275,16.467-5.459,20.314-21.021,21.121c-43.473,2.246-86.801,7.1-130.244,9.891c-35.252,2.283-70.645,2.461-105.883,4.66
		c-54.25,3.379-108.377,8.273-162.613,11.484c-40.326,2.371-80.857,1.93-121.131,4.902c-47.025,3.473-93.857,9.43-140.791,14.027
		c-25.035,2.447-50.111,4.592-75.178,6.301c-33.377,2.281-67.238,7.934-100.021,4.342c-16.436-1.812-43.234,3.709-50.652-23.512
		c-40.686-21.025-34.039-60.463-35.434-95.434c-1.279-31.523-2.344-63.053-3.295-94.59c-0.938-31.531-1.791-62.605-2.633-94.611
		c-0.84-31.559-1.695-63.316-2.674-94.605c-1.27-41.104-2.646-81.748-4.066-121.578c-1.395-40.858-2.842-81.258-4.223-121.524
		L6043.336-778.468L6043.336-778.468z M6252.055-758.552c-0.703,2.736-1.559,3.123-1.379,4.68
		c6.012,35.398,5.791,71.438,6.479,106.537c0.676,36.08,2.264,71.312,11.898,106.131c3.336,11.939-0.717,21.143-16.682,21.41
		c-16.809-0.717-33.684,2.723-50.336,4.33c-21.096,2.949-42.146,6.189-63.254,9.113c-21.107,3.033-42.256,6.266-63.529,9.422
		c0,29.959-0.055,57.002,0.043,84.107c0.055,12.496,6.244,21.141,20.211,20.148c20.514-1.461,41.07-2.861,61.42-5.584
		c27.367-3.674,54.498-9.174,81.893-12.594c6.689-0.828,17.537,1.199,20.363,5.721c8.312,13.387,18.156,28.359,19.205,43.277
		c3.486,49.633,3.486,99.484,4.633,149.289c0.344,15.262,0.039,30.559,0.039,47.123c31.49-2.633,60.912-5.086,89.16-7.438
		c0-79.908,0-156.811,0-234.961c19.895-1.812,39.76-4.273,59.684-5.328c27.381-1.164,54.762-4.039,82.143-5.053
		c27.381-1.488,54.762-2.812,82.154-4.432c29.779-0.684,59.572-2.641,89.363-3.51c29.795-1.303,59.588-2.75,89.381-3.605
		c20.309-0.924,40.615-1.709,60.91-3.77c20.293-0.643,40.572-3.867,60.826-5.053c27.34-2.641,54.484-6.764,81.148-10.486
		c0-19.176,0-37.795,0-56.09c0-18.592,0-36.984,0-56.705c-17.881,1.117-35.6,2.143-53.23,3.211
		c-17.619,1.076-35.143,2.441-52.582,3.461c-17.453,0.207-34.826,1.607-52.17,3.248c-17.344,1.158-34.646,1.57-51.947,3.418
		c-15.854,0.855-31.693,1.186-47.551,2.979c-15.842,0.826-31.682,1.777-47.537,3.723c-15.84,0.654-31.693,1.771-47.551,2.881
		c-15.84,0.682-31.693,2.102-47.562,2.627c-26.15,0.717-52.566-5.479-78.857-5.908c-23.854,0.125-47.66,5.328-71.539,7.23
		c-23.771,1.979-36.383,3.221-42.945-3.736c-6.562-6.154-7.102-19.354-6.715-43.842c0.055-2.006,0.041-5.68,0.262-7.789
		c1.338-15.965,1.668-30.619,1.23-45.771c-0.43-14.965-1.643-29.924-3.379-45.668c-1.752-15.027-4.055-30.422-6.658-45.959
		c-2.605-15.123-5.527-30.262-8.549-46.469c-18.295,3.736-36.465,4.453-54.555,7.881
		C6287.901-763.378,6269.922-761.089,6252.055-758.552L6252.055-758.552z M6923.786-583.081c29.283,2.088,44.271,2.494,51.674-2.502
		c7.4-5.143,7.211-15.559,6.146-35.412c-1.518-28.525-2.799-56.346-3.955-84.525c-1.172-28.021-2.207-56.623-3.242-84.535
		c-0.346-10.678-1.047-18.557-14.188-17.742c-18.154,0.33-36.328,0.619-54.482,0.951c-18.172,0.393-36.344,0.199-54.516,1.221
		c-18.17,0.33-36.328,1.303-54.482,1.357c-18.158,0.654-36.301,1.117-54.432,2.475c-19.688,0.883-39.359,1.957-59.02,3.943
		c-19.674,1.371-39.32,4.115-58.967,5.094c-19.66,1.428-39.309,3.84-58.951,5.404c-19.646,1.488-39.293,3.102-58.951,5.143
		c-17.771,2.102-35.543,2.51-53.328,4.191c-17.785,0.6-35.57,2.709-53.355,3.578c-14.174,0.854-17.676,8.691-15.305,20.438
		c2.799,15.139,6.438,30.186,7.555,43.918c1.643,20.467,3.105,42.318,4.426,63.957c1.312,21.879,2.455,42.395,3.477,64.018
		c0.744,15.676,5.982,21.529,22.566,20.799c17.812-0.504,35.654-0.959,53.506-0.779c17.842-0.58,35.695,0.51,53.521-0.537
		c21.053-0.318,42.09-1.918,63.143-2.234c21.055-1.014,42.092-2.213,63.131-2.453c21.037-1.346,42.09-1.379,63.129-2.455
		c21.039-1.123,42.076-2.082,63.104-3.246c26.828-0.842,53.631-2.979,78.047-5.115
		C6884.465-580.661,6906.497-581.847,6923.786-583.081L6923.786-583.081z M6391.288-383.194c1.404,7.562,2.799,11.932,2.938,16.344
		c1.766,56.932,3.598,113.871,4.797,170.805c0.275,13.449,4.219,18.467,18.543,16.213c23.549-3.688,47.316-6.287,71.086-7.887
		c47.785-3.211,95.625-5.707,143.463-7.988c28.525-1.373,57.217-0.51,85.645-2.812c79.812-6.439,159.457-14.359,239.271-20.77
		c15.387-1.242,19.729-7.148,19.354-21.742c-0.729-27.215,0-54.473,0.471-81.715c0.51-28.49,1.527-57.008,2.066-85.504
		c0.18-9.652-0.562-18.938-14.627-16.684c-22.195,3.537-44.324,7.383-66.674,9.852c-24.016,1.668-48.047,3.24-72.09,5.184
		c-24.045,1.6-48.102,2.979-72.16,3.805c-29.02,1.477-58.057,2-87.104,2.578c-29.035,1.076-58.068,1.311-87.104,2.434
		c-17.301,0.33-34.604,1.613-51.895,2.703c-17.289,1.268-34.549,2.17-51.781,4.129
		C6448.034-392.218,6420.776-386.841,6391.288-383.194L6391.288-383.194z M6062.723-751.032c-0.787,6.021-1.875,9.375-1.668,13.299
		c1.857,32.75,3.887,66.059,5.816,98.836c1.932,32.957,3.791,65.75,5.309,98.852c0.676,14.414,6.604,16.867,19.26,15.709
		c22.445-3.35,44.918-6.094,67.361-8.395c22.459-2.393,44.891-5.936,67.266-8.977c4.592-0.709,11.029-10.463,11.236-15.42
		c0.912-24.492,0.51-47.592-0.703-71.932c-0.924-18.682-2.137-36.516-3.404-54.955c-1.27-18.006-2.592-36.811-3.734-54.953
		c-0.951-15.139-9.168-19.246-23.217-17.834c-19.812,2.793-39.68,4.584-59.572,5.535
		C6118.987-750.708,6091.26-750.907,6062.723-751.032L6062.723-751.032z M6257.184-164.833c0-52.617,0.439-104.201-0.248-155.777
		c-0.223-15.82-1.807-32.102-6.246-47.17c-1.75-5.949-13.305-13.402-19.771-12.85c-40.422,3.432-80.607,9.395-120.965,13.518
		c-17.301,1.758-31.047,11.318-30.303,25.609c2.51,49.143,5.17,98.299,9.293,147.318c0.592,6.914,8.424,16.66,15.041,18.949
		c15.689,5.426,32.578,9.244,49.148,9.975C6186.608-163.8,6220.208-164.833,6257.184-164.833L6257.184-164.833z"/>
	<path id="path1241" fill="#D72B28" d="M6252.055-758.552c17.867-3.205,35.846-5.186,53.936-7.803
		c18.088-3.441,36.258-3.51,54.555-7.881c3.02,14.58,5.941,30.834,8.549,46.379c2.604,14.732,4.904,30.992,6.658,46.049
		c1.736,14.107,2.951,30.848,3.379,45.268c0.438,15.242,0.107,30.18-1.23,46.172c-0.221,2.785-0.207,4.461-0.262,7.789
		c-0.387,24.652,0.15,37.322,6.715,43.842c6.562,6.357,19.176,6.398,42.943,3.736c23.879-2.48,47.689-6.789,71.539-7.23
		c26.291-0.062,52.707,7.08,78.859,5.908c15.869-0.744,31.725-1.875,47.562-2.496c15.855-1.172,31.711-1.812,47.551-3.012
		c15.855-1.213,31.695-2.703,47.537-3.51c15.855-1.523,31.695-3.08,47.551-3.191c17.303-0.799,34.605-2.24,51.947-3.309
		c17.344-1.736,34.715-2.668,52.17-3.357c17.438-1.393,34.963-2.129,52.582-3.273c17.633-1.152,35.35-2.311,53.229-3.398
		c0,19.391,0,38.416,0,56.705c0,18.777,0,36.914,0,56.09c-26.662,3.178-53.809,8.549-81.146,10.486
		c-20.254,2.164-40.533,3.363-60.828,5.053c-20.293,1.646-40.602,2.557-60.908,3.771c-29.795,1.447-59.588,2.807-89.381,3.604
		c-29.793,1.006-59.586,1.82-89.363,3.51c-27.396,1.936-54.773,2.887-82.154,4.432c-27.381,1.979-54.762,3.006-82.143,5.053
		c-19.924,1.145-39.789,3.516-59.684,5.328c0,78.15,0,155.053,0,234.961c-28.25,2.352-57.67,4.805-89.16,7.438
		c0-16.564,0.305-31.861-0.041-47.123c-1.145-49.805-1.145-99.656-4.631-149.289c-1.049-14.918-10.895-29.891-19.205-43.277
		c-2.826-4.521-13.678-6.549-20.363-5.721c-27.395,3.42-54.523,8.92-81.895,12.594c-20.35,2.723-40.904,4.123-61.42,5.584
		c-13.965,0.992-20.154-6.205-20.211-20.148c-0.098-27.443-0.041-54.059-0.041-84.107c21.271-2.949,42.422-6.389,63.527-9.422
		c21.107-3.447,42.16-5.832,63.254-9.113c16.654-1.275,33.529-4.488,50.336-4.33c15.965-0.537,20.02-9.326,16.684-21.41
		c-9.639-34.502-11.225-71.016-11.898-106.131c-0.688-35.818-0.469-71.111-6.479-106.537
		C6250.497-755.526,6251.352-756.794,6252.055-758.552L6252.055-758.552z"/>
	<path id="path1243" fill="#214190" d="M6923.786-583.081c-17.287,0.799-39.318,3.371-63.748,4.949
		c-24.418,1.799-51.219,3.488-78.047,5.115c-21.025,1.557-42.062,1.777-63.104,3.025c-21.037,0.766-42.09,1.689-63.129,2.676
		c-21.039,0.145-42.076,2.066-63.129,2.439c-21.055,0.807-42.092,1.662-63.145,2.248c-17.826,0.916-35.682,1.109-53.521,0.537
		c-17.854-0.992-35.693,0.662-53.506,0.779c-16.586,1.275-21.824-4.984-22.568-20.799c-1.02-20.934-2.164-41.697-3.475-64.018
		c-1.324-20.867-2.785-42.602-4.426-63.957c-1.117-13.008-4.756-29.346-7.557-43.918c-2.371-13.229,1.131-20.039,15.305-20.438
		c17.785-1.283,35.568-2.4,53.354-3.578c17.785-0.889,35.557-2.365,53.328-4.191c19.658-0.779,39.307-2.426,58.951-4.908
		c19.646-2.469,39.291-4.453,58.951-5.639c19.646-0.82,39.293-3.646,58.967-4.75c19.66-1.529,39.334-3.227,59.021-4.287
		c18.131,0.207,36.271-1.752,54.432-2.357c18.156-1.303,36.312-1.096,54.484-1.475c18.17-0.594,36.342,0.309,54.514-0.814
		c18.156-0.709,36.328-1.014,54.484-1.357c13.139-0.414,13.842,8.443,14.186,17.742c1.035,28.506,2.068,56.996,3.242,84.535
		c1.156,28.062,2.439,55.932,3.955,84.525c1.062,19.818,1.254,30.945-6.146,35.412
		C6968.057-580.448,6953.071-580.745,6923.786-583.081L6923.786-583.081z"/>
	<path id="path1245" fill="#214190" d="M6391.288-383.194c29.49-3.232,56.746-8.514,84.195-11.057
		c17.232-1.441,34.494-2.889,51.783-4.129c17.289-1.324,34.592-2.18,51.893-2.703c29.035-1.51,58.07-1.385,87.105-2.434
		c29.049-0.676,58.084-1.938,87.104-2.578c24.059-0.875,48.115-2.039,72.158-3.805c24.045-1.875,48.074-2.957,72.092-5.184
		c22.35-2.338,44.479-6.314,66.672-9.852c14.062-2.254,14.809,7.031,14.629,16.684c-0.539,28.496-1.561,57.014-2.066,85.504
		c-0.471,27.242-1.199,54.5-0.471,81.715c0.373,14.594-3.973,20.5-19.355,21.742c-79.812,6.41-159.457,14.33-239.27,20.77
		c-28.43,2.303-57.119,1.439-85.646,2.812c-47.838,2.281-95.68,4.777-143.463,7.988c-23.77,1.6-47.537,4.199-71.086,7.887
		c-14.324,2.254-18.268-2.764-18.543-16.213c-1.199-56.934-3.031-113.873-4.797-170.805
		C6394.084-371.263,6392.694-375.632,6391.288-383.194z"/>
	<path id="path1247" fill="#214190" d="M6062.723-751.032c28.537,0.283,56.264,0.994,83.945-0.234
		c19.896-0.654,39.762-2.385,59.572-5.535c14.049-1.516,22.266,2.531,23.217,17.834c1.145,17.799,2.469,36.314,3.734,54.953
		c1.271,18.551,2.48,36.459,3.404,54.955c1.213,23.533,1.613,47.791,0.703,71.932c-0.207,5.281-6.646,14.496-11.234,15.42
		c-22.377,3.303-44.809,6.148-67.268,8.977c-22.443,2.84-44.916,5.293-67.359,8.395c-12.654,1.311-18.586-0.488-19.262-15.709
		c-1.518-33.357-3.377-66.424-5.309-98.852c-1.932-32.984-3.959-66.355-5.816-98.836c-0.207-3.953,0.883-8.164,1.668-13.3H6062.723z
		"/>
	<path id="path1249" fill="#214190" d="M6257.184-164.833c-36.977,0-70.574,1.033-104.049-0.428
		c-16.57-0.73-33.459-4.549-49.148-9.975c-6.617-2.289-14.449-12.035-15.041-18.949c-4.123-49.02-6.783-98.176-9.293-147.318
		c-0.744-14.291,13.002-23.852,30.305-25.609c40.354-4.123,80.543-10.086,120.965-13.518c6.467-0.553,18.02,6.9,19.77,12.85
		c4.439,15.068,6.023,31.352,6.246,47.17C6257.625-269.034,6257.184-217.45,6257.184-164.833L6257.184-164.833z"/>
	<g id="g1251">
		<path id="path1253" fill="none" stroke="#FFFFFF" stroke-width="18" stroke-miterlimit="10" d="M6075.252-496.929
			c21.273-2.949,42.422-6.389,63.529-9.422c21.105-3.447,42.16-5.832,63.254-9.113c16.652-1.275,33.527-4.488,50.336-4.33
			c15.965-0.537,20.018-9.326,16.682-21.41c-9.637-34.502-11.223-71.016-11.896-106.131c-0.689-35.818-0.471-71.111-6.479-106.537
			c-0.18-1.654,0.676-2.922,1.379-4.68"/>
		<path id="path1255" fill="none" stroke="#FFFFFF" stroke-width="18" stroke-miterlimit="10" d="M6283.061-165.44
			c0-16.564,0.305-31.861-0.041-47.123c-1.145-49.805-1.145-99.656-4.631-149.289c-1.049-14.918-10.895-29.891-19.205-43.277
			c-2.826-4.521-13.678-6.549-20.363-5.721c-27.395,3.42-54.523,8.92-81.895,12.594c-20.35,2.723-60.904,4.123-81.42,5.584"/>
		<path id="path1257" fill="none" stroke="#FFFFFF" stroke-width="18" stroke-miterlimit="10" d="M6977.831-449.075
			c-26.664,3.178-53.811,8.549-81.148,10.486c-20.254,2.164-40.533,3.363-60.826,5.053c-20.295,1.646-40.604,2.557-60.91,3.77
			c-29.793,1.447-59.586,2.807-89.381,3.605c-29.791,1.006-59.584,1.82-89.363,3.51c-27.395,1.936-54.771,2.887-82.152,4.432
			c-27.381,1.979-54.764,3.006-82.145,5.053c-19.922,1.145-39.787,3.516-59.684,5.328c0,78.15,0,155.053,0,234.961"/>
		<path id="path1259" fill="none" stroke="#FFFFFF" stroke-width="18" stroke-miterlimit="10" d="M6360.542-774.235
			c3.021,14.58,5.943,30.834,8.549,46.379c2.605,14.732,4.906,30.992,6.658,46.049c1.738,14.107,2.951,30.848,3.379,45.268
			c0.439,15.242,0.109,30.18-1.229,46.172c-0.223,2.785-0.207,4.461-0.264,7.789c-0.387,24.652,0.152,37.322,6.715,43.842
			c6.562,6.357,19.176,6.398,42.945,3.736c23.879-2.48,47.688-6.789,71.539-7.23c26.291-0.062,52.707,7.08,78.857,5.908
			c15.869-0.744,31.727-1.875,47.564-2.496c15.854-1.172,31.711-1.812,47.551-3.012c15.854-1.213,31.693-2.703,47.537-3.51
			c15.854-1.523,31.693-3.08,47.551-3.191c17.303-0.799,34.604-2.24,51.945-3.309c17.346-1.736,34.717-2.668,52.17-3.357
			c17.439-1.393,34.963-2.129,52.582-3.273c17.633-1.152,35.352-2.311,53.23-3.398"/>
	</g>
</g>
</svg>
