<?xml version="1.0" encoding="utf-8"?>
<!-- Generator: Adobe Illustrator 16.0.1, SVG Export Plug-In . SVG Version: 6.00 Build 0)  -->
<!DOCTYPE svg PUBLIC "-//W3C//DTD SVG 1.1//EN" "http://www.w3.org/Graphics/SVG/1.1/DTD/svg11.dtd">
<svg version="1.1" id="Layer_1" xmlns="http://www.w3.org/2000/svg" xmlns:xlink="http://www.w3.org/1999/xlink" x="0px" y="0px"
	 width="1080.221px" height="678.676px" viewBox="0 0 1080.221 678.676" enable-background="new 0 0 1080.221 678.676"
	 xml:space="preserve">
<g>
	<g>
		<defs>
			<path id="SVGID_1_" d="M42.445,31.302c-5.531,3.314,25.441,463.453,68.576,499.956c0,0,22.125,13.271,140.477,68.576
				c118.348,55.306,307.498,86.277,414.785,54.197c107.287-32.071,361.688-165.908,380.498-192.456
				c0,0-81.853-40.927-134.943-212.375c-3.324-4.417-51.988-197.988-51.988-197.988s-96.227,46.457-99.549,48.666
				c-3.322,2.216-203.526,78.529-206.844,78.529c-3.314,0-147.105,8.848-147.105,8.848l-143.798-39.812L81.156,50.104L42.445,31.302
				z"/>
		</defs>
		<clipPath id="SVGID_2_">
			<use xlink:href="#SVGID_1_"  overflow="visible"/>
		</clipPath>
		<path clip-path="url(#SVGID_2_)" fill="#FFFFFF" stroke="#000000" stroke-miterlimit="10" d="M37.441,29.636
			c-5.529,3.317,25.441,463.445,68.576,499.95c0,0,22.117,13.271,140.469,68.574c118.357,55.314,307.499,86.286,414.788,54.208
			c107.293-32.082,361.696-165.917,380.498-192.467c0,0-81.847-40.928-134.943-212.367c-3.322-4.431-51.984-197.996-51.984-197.996
			s-96.229,46.459-99.555,48.675c-3.314,2.207-203.521,78.531-206.836,78.531c-3.316,0-147.105,8.845-147.105,8.845l-143.791-39.817
			L76.154,48.43L37.441,29.636z"/>
	</g>
	<g>
		<defs>
			<path id="SVGID_3_" d="M42.445,31.302c-5.531,3.314,25.441,463.453,68.576,499.956c0,0,22.125,13.271,140.477,68.576
				c118.348,55.306,307.498,86.277,414.785,54.197c107.287-32.071,361.688-165.908,380.498-192.456
				c0,0-81.853-40.927-134.943-212.375c-3.324-4.417-51.988-197.988-51.988-197.988s-96.227,46.457-99.549,48.666
				c-3.322,2.216-203.526,78.529-206.844,78.529c-3.314,0-147.105,8.848-147.105,8.848l-143.798-39.812L81.156,50.104L42.445,31.302
				z"/>
		</defs>
		<clipPath id="SVGID_4_">
			<use xlink:href="#SVGID_3_"  overflow="visible"/>
		</clipPath>
		<path clip-path="url(#SVGID_4_)" fill="#00A651" d="M31.383,32.253c0,0,16.908,460.562,79.223,496.478
			c0,0,203.877,114.085,332.746,127.814c0,0-54.963-105.192-102.84-231.713c-28.58-75.52-7.979-164.138,7.775-241.524L31.383,32.253
			z"/>
	</g>
	<g>
		<defs>
			<path id="SVGID_5_" d="M42.445,31.302c-5.531,3.314,25.441,463.453,68.576,499.956c0,0,22.125,13.271,140.477,68.576
				c118.348,55.306,307.498,86.277,414.785,54.197c107.287-32.071,361.688-165.908,380.498-192.456
				c0,0-81.853-40.927-134.943-212.375c-3.324-4.417-51.988-197.988-51.988-197.988s-96.227,46.457-99.549,48.666
				c-3.322,2.216-203.526,78.529-206.844,78.529c-3.314,0-147.105,8.848-147.105,8.848l-143.798-39.812L81.156,50.104L42.445,31.302
				z"/>
		</defs>
		<clipPath id="SVGID_6_">
			<use xlink:href="#SVGID_5_"  overflow="visible"/>
		</clipPath>
		<path clip-path="url(#SVGID_6_)" fill="#F7941E" d="M613.238,173.45c0,0-67.58,317.877,100.112,453.045l327.892-167.701
			c0,0-205.242-152.689-180.211-397.978L613.238,173.45z"/>
	</g>
	<g>
		<defs>
			<path id="SVGID_7_" d="M42.445,31.302c-5.531,3.314,25.441,463.453,68.576,499.956c0,0,22.125,13.271,140.477,68.576
				c118.348,55.306,307.498,86.277,414.785,54.197c107.287-32.071,361.688-165.908,380.498-192.456
				c0,0-81.853-40.927-134.943-212.375c-3.324-4.417-51.988-197.988-51.988-197.988s-96.227,46.457-99.549,48.666
				c-3.322,2.216-203.526,78.529-206.844,78.529c-3.314,0-147.105,8.848-147.105,8.848l-143.798-39.812L81.156,50.104L42.445,31.302
				z"/>
		</defs>
		<clipPath id="SVGID_8_">
			<use xlink:href="#SVGID_7_"  overflow="visible"/>
		</clipPath>
		<path clip-path="url(#SVGID_8_)" stroke="#000000" stroke-width="9" stroke-miterlimit="10" d="M438.736,651.898
			c-0.886-8.454-4.447-13.657-7.504-19.048c-6.443-11.354-13.203-22.06-19.769-33.18c-6.562-11.122-13.152-22.239-19.576-33.681
			c-7.053-12.556-14.108-25.181-20.844-38.348c-7.324-14.316-14.729-28.568-20.914-44.726
			c-6.217-16.215-10.922-33.516-14.824-51.379c-1.764-8.062-3.784-16.171-4.848-24.326c-2.096-16.198-4.965-32.476-4.795-48.651
			c0.043-4.498-0.484-9.219-0.617-13.8c-0.098-3.301,0.021-6.55,0.088-9.805c0.156-7.577,0.269-15.183,0.535-22.706
			c0.135-3.599,0.617-7.019,0.877-10.556c0.752-9.926,1.301-19.992,2.262-29.762c1.293-13.27,2.877-26.34,5.287-38.712
			c1.418-7.271,2.646-14.733,4.066-21.998c1.076-5.441,2.467-10.572,3.449-16.097c0.84-4.735,1.256-9.864,1.924-14.772
			c0.358-2.646,0.396-6.319,1.385-7.529c1.785-2.21,4.066-3.83,6.355-4.029c2.996-0.268,5.629,8.497,4.28,13.7
			c-0.571,2.215-1.313,4.254-2.043,6.275c-2.608,7.256-4.297,15.562-5.881,24.007c-0.817,4.371-1.852,8.521-2.772,12.801
			c-2.224,10.401-4.261,20.921-5.435,32.37c-0.709,6.797-1.227,13.754-2.053,20.385c-1.25,10.044-2.09,20.343-2.668,30.742
			c-0.498,8.996-0.156,18.469-0.119,27.754c0.021,4.549,0.199,9.157,0.289,13.739c0.357,18.341,3.121,36.605,6.246,54.918
			c2.275,13.307,5.486,26.126,8.957,38.809c3.822,13.993,8.721,27.032,14.238,39.157c9.284,20.371,19.239,39.619,29.661,57.997
			c8.164,14.392,16.119,29.219,24.337,43.499c5.062,8.796,10.442,16.883,15.67,25.329c2.52,4.065,4.959,8.282,7.465,12.356
			c1.197,1.954,2.438,3.836,3.725,5.567c3.195,4.334,3.822,7.938,2.305,13.463c-0.467,1.688-0.788,3.562-1.116,5.405
			C445.129,653.972,443.211,655.318,438.736,651.898z"/>
	</g>
	<g>
		<defs>
			<path id="SVGID_9_" d="M42.445,31.302c-5.531,3.314,25.441,463.453,68.576,499.956c0,0,22.125,13.271,140.477,68.576
				c118.348,55.306,307.498,86.277,414.785,54.197c107.287-32.071,361.688-165.908,380.498-192.456
				c0,0-81.853-40.927-134.943-212.375c-3.324-4.417-51.988-197.988-51.988-197.988s-96.227,46.457-99.549,48.666
				c-3.322,2.216-203.526,78.529-206.844,78.529c-3.314,0-147.105,8.848-147.105,8.848l-143.798-39.812L81.156,50.104L42.445,31.302
				z"/>
		</defs>
		<clipPath id="SVGID_10_">
			<use xlink:href="#SVGID_9_"  overflow="visible"/>
		</clipPath>
		<path clip-path="url(#SVGID_10_)" stroke="#000000" stroke-width="9" stroke-miterlimit="10" d="M705.455,651.898
			c-0.883-8.454-4.451-13.657-7.51-19.048c-6.438-11.354-13.195-22.06-19.758-33.18c-6.572-11.122-13.146-22.239-19.576-33.681
			c-7.056-12.556-14.111-25.181-20.84-38.348c-7.33-14.316-14.734-28.568-20.921-44.726c-6.217-16.215-10.92-33.516-14.823-51.379
			c-1.754-8.062-3.785-16.171-4.84-24.326c-2.105-16.198-4.974-32.476-4.804-48.651c0.054-4.498-0.481-9.219-0.617-13.8
			c-0.098-3.301,0.023-6.55,0.099-9.805c0.156-7.577,0.258-15.183,0.524-22.706c0.136-3.599,0.609-7.019,0.888-10.556
			c0.742-9.926,1.293-19.992,2.252-29.762c1.293-13.27,2.877-26.34,5.285-38.712c1.42-7.271,2.647-14.733,4.067-21.998
			c1.076-5.441,2.467-10.572,3.449-16.097c0.84-4.735,1.256-9.864,1.924-14.772c0.357-2.646,0.402-6.319,1.385-7.529
			c1.791-2.21,4.066-3.83,6.355-4.029c3.004-0.268,5.629,8.497,4.283,13.7c-0.572,2.215-1.316,4.254-2.037,6.275
			c-2.617,7.256-4.305,15.562-5.889,24.007c-0.816,4.371-1.859,8.521-2.773,12.801c-2.223,10.401-4.26,20.921-5.436,32.37
			c-0.697,6.797-1.226,13.754-2.052,20.385c-1.25,10.044-2.09,20.343-2.67,30.742c-0.504,8.996-0.153,18.469-0.117,27.754
			c0.023,4.549,0.199,9.157,0.289,13.739c0.351,18.341,3.113,36.605,6.246,54.918c2.281,13.307,5.484,26.126,8.949,38.809
			c3.83,13.993,8.729,27.032,14.246,39.157c9.285,20.371,19.24,39.619,29.664,57.997c8.162,14.392,16.117,29.219,24.332,43.499
			c5.062,8.796,10.447,16.883,15.672,25.329c2.52,4.065,4.961,8.282,7.463,12.356c1.199,1.954,2.441,3.836,3.719,5.567
			c3.213,4.334,3.828,7.938,2.312,13.463c-0.469,1.688-0.789,3.562-1.115,5.405C711.842,653.972,709.932,655.318,705.455,651.898z"
			/>
	</g>
</g>
<path d="M852.451,65.671c-21.998,12.327-41.246,23.783-61.416,34.222c-17.412,9.004-35.746,17.018-53.916,25.167
	c-22.541,10.094-45.566,19.582-67.951,29.87c-27.553,12.677-56.064,24.298-86.479,31.969c-20.142,5.086-41.224,9.531-63.201,10.297
	c-23.226,0.812-46.383,2.913-69.541,4.633c-27.16,2.007-53.308-1.278-78.873-7.941c-27.978-7.278-56.013-14.445-83.816-22.071
	c-7.889-2.158-15.352-5.428-22.564-8.73c-15.123-6.905-30.008-14.117-44.896-21.322c-13.814-6.683-27.947-13.062-41.137-20.385
	c-15.537-8.638-30.221-18.154-45.283-27.269c-7.574-4.596-15.293-9.056-22.742-13.762C97.447,72.021,84.48,63.485,71.275,55.173
	c-6.406-4.044-13.164-7.774-21.715-12.803c-1.057,5.14-2.461,8.723-2.408,12.284c0.193,13.048,0.631,26.095,1.426,39.119
	c1.643,27.337,3.133,54.681,5.547,81.974c1.375,15.537,4.291,31.002,6.816,46.473c2.328,14.192,4.893,28.378,7.674,42.527
	c1.539,7.851,3.814,15.619,5.65,23.446c5.74,24.432,11.648,48.838,17.07,73.312c5.494,24.771,10.109,49.663,15.916,74.397
	c1.955,8.318,5.688,16.519,9.881,24.386c3.881,7.278,2.959,14.027-2.387,20.013c-2.668,2.989-8.594,4.334-15.047,7.375
	c0.141,1.979-0.521,5.89,0.877,9.331c2.773,6.81,1.783,12.905-5.418,17.358c-8.402,5.197-18.098,3.167-26.426-0.193
	c-7.828-3.145-13.723-7.529-13.225-15.693c1.309-21.195-5.42-41.753-10.787-62.368c-10.588-40.659-18.602-81.602-24.609-122.787
	c-5.916-40.578-8.773-81.252-10.154-122.031c-1.473-43.507-3.539-87.006-5.635-130.504C3.861,51.249,3.428,41.53,0.678,32.29
	c-2.586-8.705,2.564-13.865,9.783-19.076c2.098-1.518,5.391-2.93,5.875-4.729c1.537-5.814,7.287-8.683,13.439-8.475
	c5.764,0.199,12.336,2.594,16.775,5.523c8.55,5.665,15.716,12.468,23.673,18.647c25.938,20.147,54.561,38.063,82.773,56.367
	c38.154,24.751,81.238,43.806,124.619,62.511c12.615,5.442,27.336,8.179,41.164,12.015c10.69,2.973,21.647,5.45,32.198,8.668
	c25.656,7.821,51.804,11.226,79.669,8.616c29.887-2.802,60.1-3.613,89.979-6.416c21.51-2.016,42.445-6.72,61.959-14.035
	c23.889-8.943,47.561-18.224,71.055-27.74c14.17-5.738,27.896-12.116,41.677-18.377c24.668-11.203,49.969-21.738,73.631-34.035
	c23.672-12.304,45.737-26.348,68.295-39.842c2.811-1.672,4.252-4.624,6.379-6.965c4.395-4.832,8.32-6.225,15.104-3.511
	c18.604,7.457,30.052,14.735,29.709,30.913c-0.371,17.412,3.229,34.876,5.168,52.303c2.4,21.553,4.646,43.119,7.412,64.65
	c1.383,10.749,3.42,21.484,5.799,32.146c2.64,11.859,4.908,23.873,9.316,35.389c6.766,17.657,14.029,35.329,23.254,52.331
	c11.338,20.893,24.572,41.227,37.68,61.553c6.037,9.373,13.062,18.488,20.898,27.074c4.148,4.544,10.822,7.859,16.697,11.412
	c3.924,2.381,8.57,4.083,12.654,6.336c7.149,3.933,13.194,8.69,10.727,15.991c-2.4,7.1-10.043,10.929-18.756,12.966
	c-10.693,2.497-20.535,0.586-27.1-6.468c-14.052-15.094-29.271-29.79-40.921-45.901c-16.956-23.441-32.213-47.67-46.34-72.168
	c-17.174-29.796-30.867-60.501-35.641-93.108c-1.844-12.616-6.09-25.04-7.762-37.657c-1.666-12.601-1.041-25.352-2.23-37.998
	c-1.227-12.956-3.568-25.855-5.152-38.8c-0.489-4.038,0.06-8.133-0.186-12.193C853.693,75.828,853.076,71.472,852.451,65.671z"/>
<path d="M1075.518,468.987c-16.914-1.033-28.192,7.092-39.655,13.647c-24.23,13.852-47.257,28.854-71.037,43.151
	c-23.783,14.304-47.574,28.63-71.943,42.368c-26.764,15.101-53.633,30.178-81.504,44.088c-30.305,15.121-60.51,30.524-94.086,41.58
	c-33.715,11.107-69.125,17.382-105.42,21.1c-16.371,1.672-32.937,4.104-49.291,3.711c-32.49-0.789-65.365,0.609-97.162-6.752
	c-8.824-2.044-18.281-2.506-27.336-4.074c-6.521-1.137-12.894-2.84-19.271-4.416c-14.877-3.665-29.812-7.225-44.538-11.203
	c-7.058-1.903-13.65-4.734-20.535-7.011c-19.322-6.387-38.979-12.244-57.945-19.166c-25.744-9.392-51.016-19.5-74.664-31.729
	c-13.91-7.189-28.244-13.91-42.133-21.122c-10.414-5.405-20.109-11.627-30.711-16.811c-9.078-4.438-19.055-7.82-28.518-11.837
	c-5.102-2.17-12.326-3.842-14.426-7.201c-3.82-6.128-6.363-13.384-6.102-20.098c0.334-8.824,18.369-12.712,28.213-6.609
	c4.209,2.611,7.992,5.613,11.77,8.58c13.531,10.64,29.389,19.048,45.551,27.22c8.373,4.223,16.246,9.002,24.408,13.469
	c19.842,10.854,39.945,21.197,62.16,29.472c13.174,4.907,26.703,9.393,39.523,14.588c19.432,7.881,39.444,14.668,59.764,20.766
	c17.547,5.271,36.303,8.289,54.592,12.125c8.967,1.881,18.088,3.315,27.123,5.003c36.222,6.751,72.969,6.498,109.91,5.211
	c26.877-0.929,53.023-4.787,78.984-9.448c28.645-5.137,55.729-13.775,81.2-24.631c42.793-18.23,83.541-38.875,122.729-61.268
	c30.682-17.523,62.182-34.25,92.647-51.977c18.779-10.929,36.244-23.104,54.392-34.638c8.729-5.538,17.74-10.838,26.481-16.361
	c4.187-2.647,8.261-5.428,12.027-8.395c9.465-7.457,16.758-7.726,27.168-0.982c3.189,2.067,6.795,3.784,10.334,5.524
	C1081.436,451.374,1083.531,457.486,1075.518,468.987z"/>
</svg>
