<?xml version="1.0" encoding="utf-8"?>
<!-- Generator: Adobe Illustrator 16.0.1, SVG Export Plug-In . SVG Version: 6.00 Build 0)  -->
<!DOCTYPE svg PUBLIC "-//W3C//DTD SVG 1.1//EN" "http://www.w3.org/Graphics/SVG/1.1/DTD/svg11.dtd">
<svg version="1.1" id="Layer_1" xmlns="http://www.w3.org/2000/svg" xmlns:xlink="http://www.w3.org/1999/xlink" x="0px" y="0px"
	 width="959.25px" height="705.25px" viewBox="-0.125 0.683 959.25 705.25" enable-background="new -0.125 0.683 959.25 705.25"
	 xml:space="preserve">
<g>
	<g>
		<polygon fill="#FFFFFF" points="4425.405,11347.094 4425.405,10756.186 3467.213,10756.186 3487.213,11347.094 		"/>
		<path fill="#FFFFFF" d="M3946.307,11051.002"/>
	</g>
	<g>
		<polygon fill="none" stroke="#000000" stroke-width="0.5" points="4425.405,11347.094 4425.405,10756.186 3467.213,10756.186 
			3487.213,11347.094 		"/>
		<path fill="none" stroke="#000000" stroke-width="0.5" d="M3946.307,11051.002"/>
	</g>
	<rect x="3467.67" y="10816.145" fill="#008FD5" width="958.543" height="84.648"/>
	<path fill="#008FD5" d="M3946.307,10858.469"/>
	<rect x="3467.67" y="11203.319" fill="#008FD5" width="958.543" height="84.639"/>
	<path fill="#008FD5" d="M3946.307,11245.633"/>
	<g>
		<g>
			<polygon fill="#008FD5" points="3996.932,11101.59 4039.229,11101.59 3981.1,11000.672 3998.26,11000.672 4064.987,11116.504 
				3988.186,11116.582 			"/>
			<g>
				<g>
					<path d="M3996.329,11101.238c0.242,0.141-0.377,1.449-1.664,3.883c-0.648,1.211-1.453,2.711-2.402,4.48
						c-0.469,0.879-0.977,1.828-1.518,2.84c-0.482,0.926-0.996,1.91-1.539,2.953c-0.227,0.283-0.453,0.578-0.777,1.047
						c1.691,0.336,5.045,0.438,7.879,0.32c2.984-0.117,6.232-0.453,9.707-0.996c7.395-1.076,15.807-1.035,25.104,0.084
						c4.646,0.336,9.514,0.303,14.584,0.088c2.535-0.109,5.119-0.264,7.754-0.441c1.314-0.092,2.645-0.184,3.984-0.279
						c0.672-0.049,1.344-0.1,2.02-0.146c0.205-0.012,0.256-0.025,0.35-0.039l0.256-0.035l0.477-0.074
						c0.562,0.012,1.203,0.094,2.051,0.199c-0.123-0.416-0.273-0.922-0.516-1.547c-0.117-0.309-0.258-0.645-0.418-0.998
						l-0.125-0.268l-0.189-0.375l-0.393-0.738c-1.072-1.965-2.365-3.84-4.15-5.461c-1.73-5.703-5.291-10.547-9.176-15.375
						c-2.412-5.68-5.887-10.914-9.072-16.473c-3.152-5.57-7.447-10.639-10.377-16.625c-3.932-5.41-7.33-11.254-10.215-17.512
						c-1.535-7.023-7.484-11.625-9.557-18.547c-2.441-6.555-8.07-11.176-11.193-17.121l-0.162-0.609
						c0-0.109,0.041-0.152,0.051-0.244c0.033-0.166,0.045-0.373,0.035-0.615c-0.076-0.1-0.189-0.199-0.336-0.297
						c-0.154-0.1-0.279-0.195-0.715-0.289c-0.723-0.189-1.445-0.363-2.166-0.52c-1.439-0.307-2.877-0.527-4.307-0.586
						c-2.684-0.117-6.701,0.426-4.191,2.25l0.268,0.172c0.105,0.129,0.215,0.25,0.312,0.344l0.137,0.121l0.059,0.047l0.027,0.02
						l0.012,0.01l0.008,0.004l0.045,0.072c0.965,1.535,1.934,3.105,2.795,4.625c1.721,3.035,3.014,5.863,3.016,7.793
						c4.199,3.371,7.697,10.064,9.617,15.828c2.164,5.621,5.086,10.637,8.049,15.43c3.209,4.656,5.254,9.789,9.111,13.662
						c3.707,10.064,7.158,18.744,14.158,25.752c3.799,4.309,4.609,6.914,9.893,16.678c-4.076-0.146-9.785-0.217-12.213,0.037
						c-6.779,1.09-13.244-0.137-18.25-0.309c-5.004-0.961-8.887-1.168-11.52-1.135c-2.635,0.033-4.016,0.318-4.016,0.318
						c0,1.039,5.525-0.473,15.533-0.965c5.006,1.051,11.135,0.082,18.252-0.508c1.633,0.322,3.105,0.475,4.6,0.516
						c1.484,0.039,2.83-0.035,3.793-0.164c-0.855-1.242-1.686-2.344-2.395-3.23l-0.512-0.637c-0.16-0.191-0.312-0.375-0.52-0.652
						c-0.377-0.508-0.754-1.016-1.133-1.527c-1.48-2.066-2.84-4.285-3.877-7.062c-5.039-7.453-9.979-17.348-15.053-25.236
						c-2.018-3.908-6.635-8.584-8.467-14.033c-2.383-5.129-4.639-10.527-8.672-15.07c-2.957-5.166-5.648-10.66-9.201-15.809
						c-0.898-3.086-2.873-5.586-4.85-8.121c-0.492-0.637-0.986-1.273-1.465-1.92l-0.703-0.982l-0.336-0.5l-0.166-0.254l-0.27-0.441
						c-1.457-2.406-2.871-5.059-3.486-6.953c-0.076-0.109-0.148-0.223-0.227-0.336c1.961-0.184,4.162-0.387,6.656-0.57l1.92-0.137
						l1.111-0.125c0.713-0.08,1.426-0.148,2.141-0.207c1.43-0.109,2.865-0.164,4.309-0.121c0.721,0.023,1.443,0.07,2.166,0.145
						l0.271,0.029l0.154,0.018l0.262,0.016l1.033,0.074c0.678,0.051,1.336,0.113,1.967,0.182c0.324,0.717,0.629,1.424,0.908,2.111
						c0.135,0.332,0.283,0.695,0.385,0.988l0.152,0.621c5.145,4.777,5.797,12.266,10.299,17.633
						c1.967,6.984,6.385,12.467,10.375,18.078c1.807,6.879,6.307,12.086,10.217,17.512c2.021,6.508,5.99,11.762,9.789,16.961
						c3.006,5.664,5.047,11.725,8.547,16.773c4.158,4.672,6.811,10.043,9.945,14.934c0.934,2.125,1.881,4.207,2.906,6.201
						l0.391,0.744l0.521,0.949c0.436,0.758,0.867,1.512,1.299,2.266c0.885,1.504,1.814,3.006,2.871,4.633
						c-1.818,0.109-3.514,0.273-5.395,0.504c-1.176-0.004-2.35-0.008-3.518-0.012c-0.676-0.012-1.348-0.027-2.02-0.039
						c-1.34-0.051-2.668-0.098-3.986-0.145c-2.633-0.141-5.219-0.275-7.754-0.41c-5.07-0.275-9.938-0.492-14.584-0.246
						c-9.295,0.309-17.707,1.141-25.104,0.984c-3.605-0.477-6.861-0.539-9.816-0.555c-1.828-0.012-3.561-0.023-5.209-0.035
						c-2.145-0.031-4.137-0.094-5.738-0.238c0.469-0.727,0.783-1.184,1.1-1.629c1.092-1.652,2.123-3.211,3.09-4.676
						c0.502-0.766,0.75-1.098,1.076-1.57c0.311-0.445,0.607-0.875,0.896-1.289c1.148-1.652,2.109-3.061,2.871-4.207
						C3995.809,11102.605,3996.528,11101.354,3996.329,11101.238z"/>
				</g>
			</g>
		</g>
		<g>
			<polygon fill="#008FD5" points="3980.002,11101.43 3971.581,11116.422 3830.545,11116.504 3868.022,11051.725 
				3876.448,11066.717 3856.256,11101.43 			"/>
			<g>
				<g>
					<path d="M3980.002,11100.734c0,0.559-5.924,0.496-16.623,0.98c-5.346-0.848-11.883-0.633-19.473,0.516
						c-7.586,1.066-16.215,1.02-25.75-0.113c-9.533-0.68-19.975,0.113-31.166,0.898c-5.596-0.057-11.379-1.738-17.34,0.133
						c-2.182-0.496-4.389-0.719-6.619-0.756l-0.838-0.006l-0.928,0.012c-0.752,0.021-1.504,0.043-2.26,0.066
						c-1.547,0.062-3.197,0.162-5.045,0.285c0.961-2.09,1.947-4.23,2.939-6.387c0.42-0.633,0.596-0.848,0.836-1.188l0.682-0.969
						c0.449-0.652,0.889-1.316,1.316-1.984c0.857-1.34,1.68-2.711,2.486-4.102c1.59-2.793,3.197-5.621,4.822-8.477
						c1.324-2.238,2.49-4.59,3.656-6.977c0.586-1.191,1.176-2.387,1.77-3.59c0.307-0.598,0.613-1.195,0.922-1.795l0.119-0.225
						l0.021-0.059l0.043-0.105l0.088-0.199l-0.117-0.191l-0.215-0.406c-0.332-0.617-0.652-1.25-0.961-1.893
						c-1.236-1.752-2.424-3.545-3.562-5.391l-0.424-0.693l-0.105-0.176c-0.039-0.061-0.076-0.125-0.068-0.105l-0.025-0.023
						c-0.033-0.031-0.061-0.059-0.082-0.086c-0.045-0.055-0.074-0.117-0.115-0.23c-0.049,0.031-0.111,0.047-0.232,0.117
						l-0.105,0.066l-0.061,0.043c-0.01,0.008-0.004-0.004-0.023,0.023l-0.068,0.102l-0.139,0.203l-1.125,1.629
						c-5.406,4.996-6.504,12.602-11.555,18.016c-4.541,5.547-5.82,12.885-9.492,18.711c-2.496,2.535-5.143,4.951-7.111,7.727
						c-0.982,1.387-1.799,2.865-2.34,4.492c-0.27,0.812-0.471,1.664-0.592,2.562c-0.062,0.445-0.102,0.906-0.119,1.379
						c0.002,0.105-0.02,0.254,0.002,0.332c0.035,0.059,0.072,0.113,0.115,0.164c0.084,0.098,0.188,0.176,0.312,0.234
						c-0.057,0.182-0.062,0.324-0.029,0.387c0.238-0.061,0.375-0.117,0.445-0.143l0.027-0.01h0.012c0,0-0.014-0.004,0.113-0.004
						c0.361,0,0.719,0,1.072,0c0.709,0.004,1.402,0.02,2.072,0.049c2.68,0.115,4.979,0.455,6.348,1.221
						c5.146-1.957,12.887-1.652,18.992-0.445c6.105,0.93,12.061,0.898,17.838,0.719c5.781-0.461,11.393,0.328,16.809-1.086
						c10.846,1.805,20.33,3.143,30.141,0.566c8.023-1.711,14.846,0.477,24.826-0.297c3.225-0.508,6.379-0.52,9.334-0.363
						c1.477,0.074,2.904,0.191,4.264,0.309c0.68,0.055,1.344,0.113,1.988,0.166c0.301,0.053,0.482,0.1,0.752,0.135
						c0.111-0.154,0.195-0.271,0.277-0.383l0.168-0.121c0.062-0.055,0.191-0.227,0.283-0.336c0.199-0.246,0.395-0.488,0.586-0.727
						c0.375-0.484,0.738-0.953,1.092-1.406c0.691-0.918,1.312-1.789,1.869-2.609c1.113-1.641,1.971-3.074,2.615-4.262
						c1.293-2.371,1.74-3.744,1.74-3.744c-0.902-0.514-2.371,5.186-6.955,14.354c-0.24,0.27-0.463,0.531-0.719,0.867
						c-0.602-0.088-1.139-0.152-1.688-0.195c-0.633-0.043-1.285-0.062-1.951-0.066c-1.334-0.012-2.732,0.051-4.191,0.148
						c-2.918,0.199-6.082,0.559-9.463,0.832c-9.555-1.848-15.619,1.922-24.828,0.426c-9.205,0.652-20.529,0-30.139,0.465
						c-4.506-0.199-11.027,1.469-16.809,0.344c-5.777-0.496-11.732-1.23-17.838,0c-6.104-0.012-12.365-0.418-18.762,0.094
						c-5.451-1.182-8.193,0.598-19.283,0.676c1.23-2.17,2.777-4.605,4.352-6.596l0.43-0.902l0.221-0.463l0.135-0.311l0.482-1.166
						c0.324-0.781,0.648-1.559,0.975-2.342c0.658-1.561,1.348-3.111,2.115-4.623c1.539-3.023,3.402-5.893,6.014-8.361
						c1.652-6.994,7.9-11.457,10.387-18.193c5.156-5.352,7.783-12.074,10.736-18.488c0.477-0.48,0.93-0.973,1.361-1.477
						c0.119-0.141,0.193-0.211,0.344-0.418l0.43-0.584l0.803-1.127c1.029-1.473,1.912-2.863,2.791-4.371
						c0.734,1.316,1.467,2.543,2.25,3.801c0.754,1.207,1.729,2.744,2.252,3.453c1.27,1.773,2.529,3.539,3.785,5.293
						c0.209,0.688,0.439,1.365,0.689,2.027l0.094,0.246l0.152,0.352l0.332,0.729c0.219,0.467,0.436,0.93,0.65,1.391
						c-0.529,0.816-1.059,1.631-1.584,2.443c-0.365,0.566-0.715,1.137-1.053,1.713c-0.676,1.154-1.305,2.328-1.9,3.514
						c-1.191,2.371-2.258,4.791-3.328,7.182c-1.75,2.785-3.703,5.41-5.559,8.049c-0.93,1.32-1.832,2.645-2.674,3.992
						c-0.422,0.676-0.826,1.355-1.211,2.045l-0.562,1.043c-0.174,0.338-0.389,0.756-0.443,0.912
						c-0.184,1.002-0.207,1.484-0.242,1.836c0.592-0.098,1.014-0.164,1.377-0.209l0.504-0.055c-0.016-0.006,0.41-0.014,0.654-0.02
						l0.836-0.014c2.23-0.039,4.424-0.051,6.596-0.152c5.959,0.633,11.742,1.066,17.34-0.039c11.191,0,21.633,1.367,31.166,0.885
						c9.533-0.299,18.164-1.121,25.75-0.957c7.875,1.023,14.127,0.164,19.473,0.98
						C3974.079,11100.771,3980.002,11101.191,3980.002,11100.734z"/>
				</g>
			</g>
		</g>
		<g>
			<polygon fill="#008FD5" points="3876.655,11037.188 3885.084,11051.555 3947.436,10943.453 3971.995,10985.48 3989.155,10985.48 
				3947.315,10914.242 			"/>
			<g>
				<g>
					<path d="M3877.258,11037.535c-0.484-0.279,2.646-5.602,7.785-15.512c3.51-4.41,6.721-10.422,9.666-17.855
						c3.014-7.387,7.539-15.16,13.471-23.215c5.541-8.275,10.277-18.105,15.408-28.613c2.957-5.027,7.418-9.418,8.895-15.734
						c4.26-4.711,6.865-10.582,9.299-16.734c0.371-0.504,0.734-1.016,1.09-1.531l0.277-0.406l0.395-0.621l0.775-1.23
						c1.018-1.633,1.992-3.25,2.98-4.934c0.762,1.309,1.533,2.631,2.312,3.965c0.719,1.201,1.441,2.414,2.172,3.633
						c1.078,1.781,2.178,3.586,3.25,5.418c3.424,5.926,7.99,11.348,11.205,17.707c4.209,5.773,7.893,11.992,11.072,18.633
						c0.918,3.711,2.934,6.809,5.018,9.895c1.041,1.543,2.102,3.082,3.047,4.691c0.475,0.809,0.92,1.631,1.322,2.482
						c0.199,0.426,0.389,0.857,0.566,1.299l0.254,0.668l0.121,0.336c0.031,0.105,0.076,0.23,0.15,0.406
						c1.061,2.352,2.1,4.246,3.42,6.377c-1.844,0.049-3.635,0.174-5.645,0.332l-1.543,0.125c-0.305,0.021-0.436,0.045-0.615,0.064
						l-0.52,0.066l-2.078,0.273c-1.381,0.18-2.76,0.348-4.133,0.457c-0.688,0.057-1.373,0.098-2.057,0.117l-1.178,0.016
						l-1.887-0.018c-0.326-0.049-0.652-0.096-0.975-0.145c-0.635-1.525-1.34-3.186-1.451-3.818c-0.246-0.863-0.494-1.723-0.76-2.57
						c-0.529-1.699-1.125-3.348-1.877-4.898c-1.504-3.102-3.645-5.797-7.18-7.641c-3.686-5.887-9.221-13.855-9.363-17.91
						c-0.455-0.377-0.902-0.791-1.344-1.238l-0.33-0.344c-0.096-0.09-0.258-0.301-0.273-0.262c-0.09-0.021-0.164-0.029-0.229-0.027
						c-0.254,0.008-0.311,0.184-0.32,0.297c-0.006,0.104,0.008,0.098-0.004,0.074c-0.006-0.012-0.02-0.027-0.045-0.039
						c-0.012-0.004-0.027-0.008-0.047-0.01c0.008-0.021-0.027,0.029-0.066,0.092l-0.107,0.156l-0.215,0.316
						c-1.158,1.676-2.404,3.279-3.646,4.719c-3.986,5.047-7.062,10.438-9.922,15.742c-2.611,5.447-6.221,10.117-7.82,15.715
						c-7.215,8.887-13.316,16.777-16.201,26.922c-2.699,8.098-8.15,13.16-12.684,22.559c-1.336,3.402-3.127,6.445-4.938,9.203
						c-0.461,0.688-0.912,1.359-1.355,2.02c-0.225,0.326-0.449,0.65-0.668,0.969c-0.342,0.531-0.68,1.057-1.014,1.574
						c-1.365,2.121-2.553,3.961-3.621,5.723c-0.018-0.027-0.029-0.051-0.041-0.07c-1.654-3.52-3.123-6.645-4.396-9.352
						c-0.895-1.859-1.74-3.383-2.467-4.588c-1.455-2.41-2.447-3.541-2.447-3.541c-0.445,0.262,0.402,1.477,2.096,3.748
						c0.844,1.135,1.9,2.535,3.109,4.213c0.301,0.42,0.613,0.855,0.936,1.309c0.342,0.496,0.697,1.012,1.062,1.543
						c0.66,0.988,1.363,2.035,2.107,3.148c0.008,0.02,0.016,0.037,0.025,0.062c0.689-0.678,1.58-1.953,2.48-3.418
						c0.221-0.371,0.445-0.748,0.672-1.129c0.188-0.332,0.375-0.664,0.566-1.004c0.375-0.68,0.742-1.387,1.107-2.113
						c1.463-2.908,2.893-6.16,4.533-9.594c6.582-7.703,6.479-15.062,12.574-22.625c4.234-8.633,10.699-18.531,15.307-27.438
						c2.523-3.969,4.477-10.689,8.465-15.344c3.441-4.969,7.182-9.977,9.299-16.102c0.975-1.678,1.986-3.35,3.012-5.047
						c0.689-1.158,1.385-2.324,2.086-3.502c0.74-1.268,1.486-2.543,2.242-3.834c0.904,1.555,1.83,3.111,2.809,4.707l0.744,1.205
						l0.676,1.07c0.363,0.537,0.725,1.078,1.09,1.619c2.051,6.527,8.4,10.711,10.48,17.533c2.051,2.713,4.223,5.391,6.125,8.258
						c0.951,1.434,1.836,2.916,2.604,4.473c0.385,0.777,0.74,1.576,1.062,2.396l0.232,0.619l0.057,0.156
						c0.014,0.045-0.004,0.035-0.004,0.057l-0.021,0.092c-0.025,0.133-0.043,0.307-0.041,0.533c0.027,0.049,0.062,0.102,0.109,0.156
						c0.158-0.098,0.279-0.186,0.375-0.262c-0.01-0.037,0.219-0.072,0.381-0.105l0.514-0.09c0.686-0.109,1.371-0.182,2.057-0.223
						c1.375-0.08,2.752-0.037,4.135,0.062c0.689,0.049,1.383,0.113,2.076,0.184l0.52,0.055c0.164,0.016,0.398,0.035,0.385,0.055
						c0.088,0.035,0.188,0.074,0.299,0.109c0.443,0.148,1.119,0.285,1.785,0.348c-0.201-0.496-0.727-1.311-1.271-1.664
						c0-0.025,0.012-0.035,0.002-0.078l-0.055-0.172l-0.111-0.344l-0.234-0.68c-0.16-0.449-0.33-0.895-0.506-1.332
						c-0.355-0.879-0.742-1.738-1.156-2.578c-0.828-1.684-1.762-3.293-2.76-4.863c-1.996-3.137-4.242-6.098-6.381-9.09
						c-2.105-7.275-6.885-12.848-11.074-18.637c-2.311-6.887-6.551-12.5-10.617-18.051c-1.018-1.865-1.939-3.77-2.836-5.66
						l-0.336-0.707l-0.133-0.363l-0.293-0.773c-0.219-0.551-0.488-1.172-0.787-1.809c-0.383,0.504-0.812,1.143-1.221,1.828
						l-0.299,0.52l-0.361,0.668c-0.295,0.551-0.578,1.109-0.844,1.672c-2.162,6.309-5.678,11.66-8.531,17.176
						c-3.645,5.07-7.023,10.082-8.973,15.691c-5.812,10.113-12.42,18.869-16.953,27.723c-4.691,8.766-8.463,16.977-12.545,23.75
						c-4.979,6.605-7.48,12.684-10.965,17.109C3880.303,11032.162,3876.862,11037.307,3877.258,11037.535z"/>
				</g>
			</g>
		</g>
		<g>
			<polygon fill="#008FD5" points="3897.795,11000.434 3855.471,11000.434 3913.6,11101.352 3896.432,11101.352 3829.709,10985.521 
				3906.542,10985.453 			"/>
			<g>
				<g>
					<path d="M3898.397,11000.785c-0.242-0.141,0.379-1.449,1.666-3.881c0.648-1.213,1.453-2.709,2.402-4.482
						c0.471-0.879,0.979-1.824,1.52-2.84c0.482-0.924,0.996-1.908,1.541-2.949c0.223-0.281,0.447-0.574,0.768-1.039
						c-1.689-0.336-5.045-0.438-7.883-0.322c-2.986,0.115-6.236,0.451-9.713,0.996c-7.395,1.072-15.809,1.033-25.105-0.088
						c-4.648-0.336-9.518-0.305-14.586-0.09c-2.535,0.109-5.121,0.262-7.756,0.439c-1.316,0.092-2.646,0.186-3.986,0.279
						c-0.67,0.049-1.344,0.098-2.021,0.148c-0.201,0.012-0.264,0.023-0.354,0.035l-0.256,0.039l-0.479,0.074
						c-0.562-0.012-1.205-0.098-2.057-0.203c0.125,0.416,0.273,0.922,0.516,1.547c0.119,0.309,0.258,0.645,0.418,0.996l0.125,0.27
						l0.189,0.371l0.393,0.742c1.072,1.961,2.363,3.836,4.148,5.457c1.73,5.701,5.291,10.547,9.176,15.377
						c2.412,5.678,5.885,10.914,9.072,16.475c3.154,5.57,7.449,10.641,10.381,16.625c3.93,5.414,7.33,11.258,10.215,17.516
						c1.535,7.027,7.484,11.625,9.557,18.551c2.443,6.555,8.072,11.18,11.195,17.121l0.162,0.609
						c-0.008,0.098-0.043,0.148-0.055,0.238c-0.033,0.164-0.045,0.371-0.037,0.609c0.078,0.102,0.189,0.203,0.338,0.301
						c0.152,0.098,0.277,0.195,0.713,0.289c0.725,0.188,1.447,0.363,2.168,0.516c1.441,0.309,2.877,0.531,4.309,0.59
						c2.684,0.117,6.705-0.422,4.201-2.244l-0.273-0.178c-0.105-0.129-0.215-0.25-0.312-0.344l-0.137-0.121l-0.059-0.047
						l-0.027-0.02l-0.014-0.008c-0.002-0.004,0,0-0.01-0.012l-0.045-0.07c-0.967-1.535-1.934-3.105-2.795-4.625
						c-1.721-3.039-3.016-5.867-3.016-7.793c-4.201-3.375-7.699-10.066-9.621-15.832c-2.164-5.621-5.086-10.637-8.049-15.434
						c-3.209-4.652-5.254-9.789-9.113-13.664c-3.707-10.062-7.158-18.746-14.16-25.754c-3.791-4.299-4.609-6.914-9.885-16.662
						c4.1,0.146,9.801,0.221,12.236-0.037c6.779-1.09,13.248,0.137,18.254,0.311c5.006,0.961,8.889,1.17,11.521,1.135
						c2.631-0.035,4.014-0.32,4.014-0.32c0-1.035-5.525,0.475-15.535,0.969c-5.008-1.055-11.137-0.082-18.254,0.504
						c-1.639-0.32-3.113-0.473-4.609-0.514c-1.49-0.039-2.836,0.035-3.801,0.166c0.854,1.242,1.682,2.336,2.389,3.225l0.512,0.635
						c0.16,0.195,0.312,0.371,0.518,0.648c0.375,0.508,0.75,1.016,1.129,1.527c1.48,2.062,2.836,4.279,3.873,7.055
						c5.039,7.455,9.98,17.35,15.055,25.238c2.018,3.91,6.635,8.59,8.469,14.035c2.381,5.129,4.639,10.531,8.672,15.074
						c2.959,5.168,5.65,10.66,9.201,15.812c0.898,3.082,2.873,5.586,4.852,8.121c0.492,0.635,0.988,1.27,1.465,1.918l0.703,0.984
						l0.336,0.5l0.166,0.254l0.268,0.438c1.455,2.406,2.871,5.059,3.488,6.953c0.076,0.113,0.154,0.23,0.23,0.348
						c-1.961,0.18-4.164,0.383-6.662,0.57l-1.92,0.137l-1.109,0.125c-0.713,0.078-1.428,0.148-2.143,0.203
						c-1.43,0.109-2.867,0.164-4.309,0.121c-0.723-0.023-1.443-0.07-2.168-0.145l-0.271-0.029l-0.154-0.018l-0.262-0.016
						l-1.033-0.074c-0.678-0.051-1.336-0.113-1.967-0.184c-0.322-0.711-0.625-1.418-0.904-2.102l-0.387-0.988l-0.15-0.617
						c-5.145-4.781-5.797-12.271-10.299-17.637c-1.969-6.988-6.385-12.469-10.377-18.082c-1.807-6.879-6.305-12.09-10.215-17.512
						c-2.021-6.512-5.992-11.766-9.791-16.967c-3.006-5.666-5.049-11.725-8.549-16.775c-4.156-4.672-6.811-10.043-9.945-14.938
						c-0.934-2.121-1.879-4.203-2.906-6.195l-0.389-0.742l-0.521-0.951c-0.436-0.76-0.869-1.514-1.301-2.264
						c-0.883-1.504-1.811-3.006-2.867-4.631c1.824-0.111,3.523-0.275,5.41-0.506c1.176,0.004,2.346,0.008,3.512,0.012
						c0.676,0.016,1.35,0.027,2.02,0.043c1.342,0.047,2.67,0.096,3.988,0.145c2.633,0.137,5.219,0.273,7.756,0.41
						c5.07,0.275,9.939,0.492,14.586,0.246c9.295-0.309,17.709-1.137,25.105-0.979c3.607,0.479,6.865,0.541,9.824,0.557
						c1.826,0.012,3.562,0.023,5.209,0.035c2.146,0.027,4.141,0.094,5.742,0.238c-0.463,0.723-0.775,1.172-1.09,1.613
						c-1.092,1.652-2.125,3.211-3.092,4.678c-0.502,0.764-0.752,1.104-1.08,1.574c-0.311,0.443-0.607,0.873-0.896,1.287
						c-1.146,1.656-2.111,3.062-2.873,4.207C3898.918,10999.418,3898.2,11000.672,3898.397,11000.785z"/>
				</g>
			</g>
		</g>
		<g>
			<polygon fill="#008FD5" points="3914.225,11000.594 3923.127,10985.602 4064.147,10985.531 4026.682,11049.953 
				4018.249,11034.971 4038.436,11000.594 			"/>
			<g>
				<g>
					<path d="M3914.225,11001.289c0-0.559,5.926-0.496,16.625-0.98c5.348,0.848,11.887,0.633,19.477-0.516
						c7.588-1.066,16.221-1.02,25.756,0.113c9.535,0.68,19.979-0.113,31.172-0.898c5.598,0.057,11.383,1.738,17.344-0.133
						c2.252,0.512,4.531,0.732,6.838,0.758c0.596,0.008,1.109,0.004,1.777-0.016c0.777-0.023,1.559-0.051,2.344-0.078
						c1.605-0.072,3.332-0.182,5.273-0.316c-0.877,1.896-1.777,3.84-2.684,5.797l-0.553,0.809l-0.266,0.393l-0.176,0.24
						l-0.688,0.969c-0.453,0.65-0.893,1.311-1.324,1.977c-0.863,1.336-1.689,2.705-2.502,4.092
						c-1.602,2.789-3.223,5.607-4.859,8.459c-1.346,2.252-2.529,4.623-3.717,7.023c-0.598,1.199-1.197,2.404-1.803,3.617
						c-0.311,0.6-0.625,1.201-0.938,1.805l-0.121,0.227l-0.027,0.061l-0.043,0.107l-0.09,0.199l0.111,0.186l0.18,0.344
						c0.318,0.598,0.631,1.209,0.928,1.83c1.252,1.771,2.451,3.582,3.602,5.445l0.43,0.701l0.209,0.346l0.025,0.023
						c0.033,0.031,0.059,0.057,0.08,0.086c0.045,0.057,0.076,0.121,0.117,0.24c0.047-0.029,0.111-0.045,0.234-0.113l0.102-0.061
						c0.061-0.062,0.012,0.061,0.256-0.312l1.109-1.598c5.418-4.984,6.535-12.59,11.6-17.994c4.555-5.537,5.85-12.873,9.535-18.693
						c2.502-2.529,5.154-4.941,7.129-7.711c0.988-1.387,1.805-2.863,2.352-4.488c0.271-0.812,0.475-1.664,0.598-2.559
						c0.062-0.449,0.104-0.91,0.123-1.379c-0.064-0.328-0.27-0.465-0.518-0.582c0.053-0.17,0.059-0.305,0.029-0.367
						c-0.246,0.059-0.389,0.117-0.463,0.145l-0.025,0.012l-0.012,0.004c-0.01,0,0.012,0-0.023,0h-0.137
						c-0.365,0.004-0.729,0.004-1.088,0.004c-0.717-0.004-1.422-0.02-2.102-0.047c-2.717-0.113-5.055-0.449-6.438-1.227
						c-5.148,1.959-12.889,1.652-18.998,0.445c-6.105-0.93-12.062-0.898-17.842-0.721c-5.779,0.463-11.395-0.326-16.811,1.084
						c-10.848-1.805-20.334-3.143-30.145-0.568c-8.027,1.713-14.85-0.475-24.834,0.297c-3.178,0.5-6.287,0.518-9.201,0.369
						c-1.457-0.07-2.865-0.186-4.209-0.301c-0.67-0.055-1.326-0.111-1.963-0.164c-0.258-0.049-0.51-0.094-0.754-0.141
						c-0.137,0.18-0.24,0.316-0.342,0.447l-0.086,0.059l-0.152,0.172l-0.312,0.361c-0.205,0.242-0.404,0.48-0.604,0.715
						c-0.387,0.475-0.762,0.934-1.125,1.383c-0.713,0.898-1.355,1.754-1.932,2.559c-1.152,1.613-2.043,3.029-2.719,4.199
						c-1.35,2.34-1.828,3.703-1.828,3.703c0.891,0.533,2.49-5.121,7.303-14.191c0.299-0.32,0.57-0.629,0.877-1.02
						c0.584,0.08,1.102,0.137,1.648,0.176c0.627,0.039,1.271,0.055,1.928,0.059c1.318,0,2.697-0.062,4.139-0.162
						c2.881-0.201,6-0.549,9.332-0.822c9.557,1.852,15.623-1.918,24.832-0.422c9.207-0.652,20.531,0,30.145-0.465
						c4.508,0.203,11.029-1.467,16.811-0.34c5.779,0.496,11.736,1.23,17.842,0c6.105,0.012,12.369,0.42,18.766-0.09
						c2.521,0.598,5.064,0.438,7.629,0.121c1.697-0.312,7.305-0.781,11.865-0.801c-1.203,2.086-2.693,4.402-4.213,6.32l-0.852,1.785
						l-0.486,1.166c-0.326,0.779-0.652,1.557-0.98,2.338c-0.662,1.559-1.354,3.109-2.127,4.617
						c-1.545,3.023-3.416,5.887-6.031,8.352c-1.67,6.992-7.93,11.441-10.43,18.172c-5.17,5.344-7.812,12.062-10.779,18.469
						c-0.471,0.473-0.918,0.953-1.346,1.445c-0.176,0.184-0.516,0.66-0.779,1.018l-0.795,1.105c-1.018,1.443-1.891,2.807-2.76,4.277
						c-0.742-1.338-1.48-2.58-2.271-3.85l-1.225-1.934l-0.32-0.5l-0.24-0.352l-0.473-0.676c-1.283-1.793-2.559-3.574-3.828-5.344
						c-0.203-0.668-0.426-1.32-0.666-1.961l-0.096-0.25l-0.162-0.363l-0.32-0.707c-0.211-0.449-0.42-0.898-0.627-1.348
						c0.541-0.82,1.08-1.641,1.617-2.459c0.371-0.568,0.729-1.143,1.072-1.721c0.689-1.16,1.33-2.342,1.938-3.535
						c1.215-2.387,2.301-4.824,3.393-7.23c1.762-2.781,3.727-5.398,5.594-8.027c0.934-1.316,1.844-2.637,2.689-3.984
						c0.424-0.672,0.832-1.352,1.219-2.039l0.566-1.039l0.137-0.262l0.076-0.168l0.139-0.32c0.148-0.871,0.166-1.32,0.186-1.645
						c-0.643,0.111-1.094,0.186-1.477,0.236l-0.525,0.061c-0.553,0.014-1.102,0.025-1.65,0.039
						c-2.303,0.039-4.572,0.051-6.814,0.154c-5.959-0.633-11.744-1.068-17.344,0.039c-11.191,0-21.637-1.367-31.17-0.885
						c-9.535,0.301-18.168,1.121-25.756,0.957c-7.877-1.023-14.129-0.164-19.477-0.98
						C3920.151,11001.252,3914.225,11000.832,3914.225,11001.289z"/>
				</g>
			</g>
		</g>
		<g>
			<polygon fill="#008FD5" points="4018.042,11064.836 4009.62,11050.469 3947.276,11158.57 3922.709,11116.551 3905.538,11116.551 
				3947.374,11187.781 			"/>
			<g>
				<g>
					<path d="M4017.436,11064.488c0.486,0.281-2.646,5.602-7.783,15.512c-3.51,4.41-6.721,10.422-9.668,17.852
						c-3.016,7.389-7.539,15.164-13.473,23.217c-5.541,8.275-10.277,18.105-15.408,28.611c-2.957,5.027-7.418,9.418-8.895,15.734
						c-4.262,4.709-6.867,10.582-9.301,16.734c-0.373,0.504-0.734,1.014-1.092,1.531l-0.273,0.404l-0.396,0.623l-0.775,1.23
						c-1.02,1.635-1.992,3.252-2.982,4.934c-0.762-1.307-1.533-2.627-2.311-3.959c-0.719-1.201-1.441-2.414-2.172-3.635
						c-1.078-1.781-2.178-3.582-3.248-5.414c-3.426-5.926-7.992-11.348-11.205-17.705c-4.209-5.775-7.895-11.992-11.074-18.635
						c-0.916-3.711-2.932-6.809-5.016-9.893c-1.043-1.541-2.104-3.08-3.049-4.693c-0.473-0.805-0.918-1.629-1.32-2.48
						c-0.201-0.426-0.389-0.859-0.566-1.299l-0.256-0.668l-0.119-0.338l-0.059-0.17l-0.094-0.238c-1.061-2.348-2.1-4.24-3.418-6.369
						c3.422-0.096,8.184-0.504,10.402-0.863c1.383-0.18,2.762-0.348,4.135-0.457c0.688-0.055,1.373-0.096,2.059-0.117l1.17-0.016
						l1.889,0.02c0.33,0.049,0.66,0.098,0.988,0.145c0.635,1.525,1.338,3.184,1.451,3.816c0.244,0.863,0.494,1.723,0.76,2.57
						c0.531,1.695,1.125,3.346,1.877,4.895c1.506,3.098,3.645,5.793,7.18,7.637c3.688,5.885,9.223,13.852,9.367,17.906
						c0.455,0.377,0.902,0.791,1.344,1.238l0.332,0.344l0.164,0.176c0.066,0.078,0.096,0.094,0.111,0.09
						c0.09,0.02,0.164,0.029,0.229,0.027c0.254-0.01,0.311-0.186,0.32-0.297c0.006-0.104-0.008-0.098,0.004-0.074
						c0.006,0.012,0.02,0.029,0.043,0.039c0.014,0.006,0.029,0.008,0.049,0.01c-0.008,0.021,0.025-0.029,0.066-0.09l0.107-0.158
						l0.215-0.314c1.158-1.674,2.404-3.279,3.643-4.717c3.986-5.047,7.062-10.438,9.922-15.742
						c2.611-5.449,6.221-10.119,7.818-15.715c7.217-8.887,13.318-16.779,16.201-26.922c2.699-8.102,8.148-13.164,12.682-22.561
						c1.334-3.404,3.127-6.447,4.939-9.205c0.459-0.688,0.912-1.359,1.354-2.02c0.227-0.326,0.449-0.65,0.668-0.971
						c0.342-0.531,0.682-1.057,1.016-1.574c1.365-2.123,2.553-3.963,3.621-5.725c0.016,0.027,0.025,0.049,0.039,0.068
						c1.65,3.52,3.119,6.646,4.391,9.354c0.896,1.861,1.74,3.387,2.467,4.592c1.453,2.41,2.443,3.541,2.443,3.541
						c0.449-0.262-0.4-1.477-2.092-3.748c-0.844-1.137-1.9-2.537-3.109-4.213c-0.299-0.422-0.609-0.859-0.934-1.312
						c-0.342-0.496-0.697-1.012-1.062-1.543c-0.658-0.986-1.361-2.035-2.105-3.148c-0.008-0.018-0.016-0.035-0.025-0.059
						c-0.689,0.676-1.58,1.951-2.479,3.418c-0.223,0.371-0.447,0.748-0.674,1.129c-0.188,0.33-0.375,0.664-0.566,1.004
						c-0.375,0.682-0.742,1.387-1.107,2.113c-1.465,2.91-2.893,6.162-4.533,9.598c-6.582,7.699-6.479,15.059-12.572,22.623
						c-4.232,8.635-10.699,18.531-15.305,27.439c-2.523,3.969-4.477,10.688-8.465,15.342c-3.439,4.971-7.182,9.977-9.299,16.104
						c-0.971,1.676-1.982,3.348-3.008,5.043c-0.689,1.16-1.385,2.324-2.084,3.504c-0.74,1.266-1.488,2.539-2.242,3.83
						c-0.906-1.553-1.832-3.111-2.811-4.709l-0.744-1.205l-0.678-1.068c-0.361-0.539-0.727-1.078-1.09-1.621
						c-2.055-6.527-8.402-10.707-10.484-17.531c-2.051-2.711-4.223-5.387-6.125-8.25c-0.953-1.434-1.836-2.914-2.605-4.471
						c-0.385-0.779-0.74-1.576-1.061-2.396l-0.234-0.617l-0.057-0.156c-0.014-0.047,0.002-0.037,0.002-0.059l0.023-0.092
						c0.025-0.131,0.043-0.305,0.041-0.529c-0.027-0.051-0.064-0.105-0.111-0.16c-0.158,0.098-0.279,0.186-0.373,0.262
						c0.01,0.037-0.232,0.072-0.389,0.105l-0.516,0.09c-0.684,0.109-1.371,0.182-2.057,0.223c-1.375,0.08-2.752,0.037-4.135-0.062
						c-0.691-0.049-1.383-0.113-2.076-0.184l-0.521-0.055c-0.164-0.016-0.4-0.035-0.387-0.055c-0.086-0.035-0.188-0.074-0.299-0.109
						c-0.443-0.148-1.119-0.285-1.785-0.348c0.201,0.496,0.729,1.309,1.271,1.66c0,0.027-0.012,0.039-0.002,0.078l0.055,0.172
						l0.111,0.344l0.232,0.68c0.162,0.449,0.33,0.895,0.508,1.332c0.354,0.879,0.742,1.738,1.154,2.578
						c0.828,1.684,1.764,3.295,2.762,4.863c1.996,3.137,4.242,6.098,6.381,9.09c2.104,7.275,6.885,12.848,11.072,18.637
						c2.311,6.887,6.553,12.5,10.619,18.047c1.016,1.867,1.939,3.773,2.834,5.66l0.334,0.707l0.131,0.363l0.295,0.773
						c0.219,0.551,0.486,1.168,0.785,1.809c0.383-0.508,0.814-1.145,1.223-1.832l0.299-0.52l0.361-0.668
						c0.295-0.555,0.578-1.109,0.846-1.674c2.162-6.311,5.678-11.658,8.531-17.178c3.645-5.07,7.023-10.078,8.973-15.688
						c5.812-10.113,12.422-18.869,16.955-27.723c4.693-8.766,8.465-16.975,12.547-23.75c4.979-6.605,7.479-12.684,10.965-17.105
						C4014.393,11069.863,4017.834,11064.719,4017.436,11064.488z"/>
				</g>
			</g>
		</g>
	</g>
</g>
<path stroke="#000000" stroke-width="0.25" stroke-miterlimit="10" d="M4438,10822.512c-37.969,1.334-75.824,2.867-114.035,3.52
	c-41.049,0.09-82.119,0.117-123.219,0.375c-41.094,0.043-82.209-0.051-123.316-0.492c-49.594-0.23-99.197-1.062-148.826-1.859
	c-49.609-0.484-99.209-1.496-148.822-1.953c-29.559-0.48-59.133-0.367-88.682-0.375c-29.551,0.107-59.051-0.016-88.514,0.523
	c-46.916,0.184-93.557,2.467-143.984,3.578l-1.67-16.613c23.82-0.328,47.637-0.67,71.496-0.574
	c46.789,0.359,93.598-0.352,140.387,0.105c46.791,0.16,93.58,0.422,140.395,0.5c50.879,0.76,101.801,0.723,152.703,1.367
	c50.91,0.371,101.822,0.652,152.727,1.305c34.705,0.23,69.402,0.549,104.098,0.066c34.676,0.406,69.365-0.809,103.979-0.742
	c37.119-0.449,74.045-1.49,110.512-2.535L4438,10822.512z"/>
<path stroke="#000000" stroke-width="0.25" stroke-miterlimit="10" d="M4438,10904.076c-37.969,1.334-75.824,2.865-114.035,3.52
	c-41.049,0.088-82.119,0.117-123.219,0.375c-41.094,0.043-82.209-0.053-123.316-0.494c-49.594-0.23-99.197-1.061-148.826-1.859
	c-49.609-0.484-99.209-1.496-148.822-1.951c-29.559-0.482-59.133-0.369-88.682-0.377c-29.551,0.109-59.051-0.016-88.514,0.525
	c-46.916,0.182-93.557,2.467-143.984,3.578l-1.67-16.615c23.82-0.328,47.637-0.668,71.496-0.574
	c46.789,0.361,93.598-0.35,140.387,0.107c46.791,0.158,93.58,0.422,140.395,0.5c50.879,0.76,101.801,0.721,152.703,1.365
	c50.91,0.371,101.822,0.652,152.727,1.305c34.705,0.232,69.402,0.551,104.098,0.066c34.676,0.408,69.365-0.807,103.979-0.742
	c37.119-0.449,74.045-1.488,110.512-2.535L4438,10904.076z"/>
<path stroke="#000000" stroke-width="0.25" stroke-miterlimit="10" d="M4438,11205.684c-37.969,1.332-75.824,2.865-114.035,3.52
	c-41.049,0.09-82.119,0.117-123.219,0.375c-41.094,0.043-82.209-0.051-123.316-0.492c-49.594-0.232-99.197-1.062-148.826-1.861
	c-49.609-0.484-99.209-1.496-148.822-1.951c-29.559-0.482-59.133-0.369-88.682-0.375c-29.551,0.105-59.051-0.018-88.514,0.523
	c-46.916,0.182-93.557,2.465-143.984,3.578l-1.67-16.613c23.82-0.33,47.637-0.672,71.496-0.576
	c46.789,0.361,93.598-0.35,140.387,0.107c46.791,0.158,93.58,0.422,140.395,0.5c50.879,0.758,101.801,0.721,152.703,1.365
	c50.91,0.371,101.822,0.654,152.727,1.307c34.705,0.23,69.402,0.547,104.098,0.064c34.676,0.408,69.365-0.807,103.979-0.742
	c37.119-0.449,74.045-1.49,110.512-2.533L4438,11205.684z"/>
<path stroke="#000000" stroke-width="0.25" stroke-miterlimit="10" d="M4438,11287.246c-37.969,1.334-75.824,2.867-114.035,3.52
	c-41.049,0.09-82.119,0.117-123.219,0.375c-41.094,0.043-82.209-0.051-123.316-0.492c-49.594-0.23-99.197-1.062-148.826-1.859
	c-49.609-0.484-99.209-1.496-148.822-1.953c-29.559-0.48-59.133-0.367-88.682-0.375c-29.551,0.107-59.051-0.016-88.514,0.523
	c-46.916,0.184-93.557,2.467-143.984,3.578l-1.67-16.613c23.82-0.328,47.637-0.67,71.496-0.574
	c46.789,0.359,93.598-0.352,140.387,0.105c46.791,0.16,93.58,0.422,140.395,0.5c50.879,0.76,101.801,0.723,152.703,1.367
	c50.91,0.371,101.822,0.652,152.727,1.305c34.705,0.23,69.402,0.549,104.098,0.066c34.676,0.406,69.365-0.809,103.979-0.742
	c37.119-0.449,74.045-1.49,110.512-2.535L4438,11287.246z"/>
<g>
	<path stroke="#000000" stroke-width="0.25" stroke-miterlimit="10" d="M4440.02,11167.965c0.992-33.742,1.855-67.5,3.086-101.254
		c0.848-22.504,2.189-45.004,3.297-67.508c1.08-22.348,1.926-44.73,1.814-67.527c-0.074-15.148-0.367-30.301-0.758-45.566
		c-0.414-15.266-0.959-29.895-1.469-46.273c-0.564-14.637-1.09-31.102-1.605-45.93c-0.49-15.629-0.918-31.219-1.178-45.934
		c-0.221-15.242-9.75-18.57-31.535-17.938c-15.988,0.939-32.295-0.266-48.447-0.273c-23.477-0.199-46.975,0.191-70.441-0.426
		c-23.467-0.535-46.971,0.039-70.457,0.078c-23.48-0.25-46.971-0.023-70.459,0.055c-23.508,0.785-46.969,0.68-70.412,0.031
		c-29.041,0.25-58.098,0.926-87.105,0.734c-29.051,0.504-58.061,0.488-87.07,0.359c-29.025,0.432-58.08,1.082-87.059,0.732
		c-29.018,0.061-58.043,0.482-87.066,0.857c-29.607-0.27-59.242,0.398-88.857,1.129c-29.58-0.441-59.184,0.57-88.795,1.777
		c0,0-129.461-7.5-123.195,16.086s22.734,313.523,13.998,440.41c-2.74,39.797-59.547,179.344,144.66,174.631
		c62.795-1.449,126,1.561,188.918,1.264c84.619-0.426,169.121-2.494,253.768-3.078c54.984-0.389,110.143,1.203,165.148,0.734
		c67.787-0.551,135.461-3.117,203.273-3.139c24.281-0.01,33.34-3.471,33.42-19.514
		C4435.741,11284.271,4438.311,11226.133,4440.02,11167.965z M3506.922,10949.543c-0.916-21.102-2.061-41.131-3.422-62.496
		c-1.389-21.133-2.986-42.477-4.906-62.484c-1.312-13.422-6.516-28.252-10.406-43.129c-3.328-11.553,2.373-19.008,24.484-19.133
		c27.742,0.039,55.523-1.129,83.258-0.828c27.768-0.75,55.475-0.262,83.234-1.422c30.697-1.008,61.365-1.598,92.027-2.068
		c30.664-0.545,61.354-1.916,92.035-2.326c30.646,0.027,61.348-1.664,92.051-2.02c30.697-0.955,61.391-1.02,92.096-0.898
		c28.297-0.42,56.584,0.031,84.9,0.301c28.297,0.852,56.623,0.809,84.951,1.393c28.346-0.088,56.658,1.004,84.986,1.525
		c28.309,0.584,56.631,1.207,84.938,1.791c20.502-0.139,21.352,7.566,21.555,17.979c0.744,27.223,1.465,55.117,2.42,82.457
		c0.926,27.49,2.062,54.637,3.535,82.482l-11.199,206.889l0.391,0.082c-1.729,27.715-4.203,55.426-5.883,83.137
		c-1.58,26.496-3.566,52.996-3.275,79.527c0.127,14.225-6.826,19.758-30.84,20.201c-124.576,2.264-248.939,6.006-373.514,8.299
		c-44.373,0.824-89.057-1.443-133.551-1.529c-74.623-0.162-149.25-0.115-223.818,0.631c-37.09,0.373-74.209,1.719-111.021,4.137
		c-22.393,1.479-28.381-3.602-28.391-16.707c-0.098-55.484-1.182-111.008-2.16-166.52c-0.08-4.301-2.113-8.623-4.068-16.057
		l16.645-161.074l2.562-27.693"/>
	
		<line fill="none" stroke="#000000" stroke-width="0.25" stroke-miterlimit="10" x1="4403.295" y1="11150.559" x2="4403.459" y2="11147.555"/>
</g>
<g>
	<g>
		<polygon fill="#FFFFFF" points="937.461,683.272 937.461,30.707 33.152,30.707 52.027,683.272 		"/>
		<path fill="#FFFFFF" d="M485.305,356.284"/>
	</g>
	<g>
		<polygon fill="none" stroke="#000000" stroke-width="0.5" points="937.461,683.272 937.461,30.707 33.152,30.707 52.027,683.272 
					"/>
		<path fill="none" stroke="#000000" stroke-width="0.5" d="M485.305,356.284"/>
	</g>
	<rect x="33.583" y="96.922" fill="#008ED3" width="904.642" height="93.481"/>
	<path fill="#008ED3" d="M485.305,143.662"/>
	<rect x="33.583" y="524.492" fill="#008ED3" width="904.642" height="93.473"/>
	<path fill="#008ED3" d="M485.305,571.224"/>
	<g>
		<g>
			<polygon fill="#008ED3" points="533.083,412.15 573.001,412.15 518.141,300.703 534.336,300.703 597.311,428.62 524.829,428.707 
							"/>
			<g>
				<g>
					<path fill-rule="evenodd" clip-rule="evenodd" fill="#231F20" d="M532.461,411.839c0.25,0.125-0.298,1.506-1.45,4.078
						c-0.584,1.282-1.306,2.869-2.159,4.744c-0.843,1.851-1.89,4.145-2.791,6.222c-0.321,0.46-0.648,0.954-1.116,1.751
						c0.92,0.145,2.174,0.235,3.581,0.273c1.462,0.038,2.807,0.024,4.295-0.04c2.944-0.129,6.153-0.461,9.577-0.983
						c7.579-1.082,16.204-1.034,25.733,0.075c4.463,0.315,9.124,0.307,13.986,0.127c2.432-0.09,4.913-0.224,7.445-0.38
						c0.633-0.041,1.269-0.081,1.908-0.122l0.929-0.063l0.6-0.065c0.774-0.087,1.446-0.178,2.005-0.27
						c-0.188-0.285-0.424-0.646-0.661-1.008c-0.141-0.303-0.252-0.604-0.364-0.939l-0.084-0.258
						c-0.035-0.102-0.038-0.141-0.119-0.34l-0.383-0.997c-0.505-1.336-0.997-2.69-1.549-4.029c-1.103-2.677-2.441-5.287-4.597-7.545
						c-1.415-5.936-4.728-11.134-8.35-16.347c-2.113-5.956-5.299-11.552-8.192-17.449c-2.854-5.908-6.888-11.39-9.491-17.706
						c-3.644-5.805-6.73-12.008-9.274-18.597c-1.153-7.263-6.867-12.397-8.562-19.6c-2.092-6.851-7.482-11.985-10.277-18.274
						c-0.036-0.194-0.106-0.461-0.111-0.597c0.029-0.064,0.055-0.139,0.075-0.225c0.041-0.17,0.062-0.382,0.064-0.633
						c-0.165-0.185-0.35-0.367-0.843-0.541c-0.683-0.174-1.363-0.339-2.043-0.486c-1.359-0.295-2.714-0.523-4.063-0.623
						c-0.675-0.05-1.349-0.067-2.021-0.045c-0.337,0.011-0.672,0.032-1.008,0.064c-0.31,0.032-0.597,0.074-0.869,0.129
						c-1.077,0.218-1.838,0.626-1.376,1.285c0.534,0.482,1.071,0.878,1.59,1.136c0.091,0.123,0.185,0.234,0.267,0.316l0.06,0.057
						l0.297,0.539c0.219,0.403,0.439,0.811,0.662,1.219c0.884,1.636,1.768,3.308,2.547,4.918c1.559,3.221,2.7,6.197,2.599,8.156
						c4.022,3.754,7.161,10.831,8.765,16.842c1.862,5.883,4.517,11.209,7.223,16.313c2.958,4.982,4.725,10.363,8.38,14.596
						c3.165,10.521,6.146,19.616,12.782,27.278c2.027,2.572,3.411,5.248,4.688,8.125c0.639,1.438,1.251,2.928,1.903,4.479
						l0.123,0.292l0.219,0.486c0.148,0.328,0.298,0.658,0.448,0.99c0.297,0.652,0.598,1.312,0.902,1.98
						c0.611,1.303,1.239,2.641,1.888,4.021c-1.182-0.015-2.52-0.013-3.982,0.012c-0.734,0.019-1.501,0.036-2.289,0.056
						c-0.4,0.014-0.806,0.028-1.216,0.042l-0.626,0.025l-0.419,0.027c-6.949,1.082-13.578-0.135-18.71-0.309
						c-10.259-1.932-15.923-0.821-15.923-0.821c0,1.033,5.664-0.474,15.923-0.966c5.132,1.053,11.414,0.087,18.71-0.512
						c1.804,0.391,4,0.532,5.446,0.525c-0.808-1.628-1.744-3.224-2.554-4.458c-0.884-1.336-1.742-2.633-2.604-3.938
						c-1.711-2.618-3.302-5.337-4.372-8.856c-4.643-7.968-9.052-18.41-13.7-26.826c-1.815-4.126-6.185-9.239-7.722-14.92
						c-2.108-5.398-4.068-11.066-7.863-15.998c-2.678-5.482-5.077-11.275-8.351-16.789c-0.732-3.204-2.575-5.899-4.419-8.63
						c-0.922-1.366-1.844-2.74-2.627-4.192c-0.515-0.905-2.145-4.438-2.7-6.496c-0.49-0.84-0.979-1.682-1.481-2.543
						c1.943-0.176,4.125-0.359,6.549-0.52l1.829-0.116l1.007-0.104c0.672-0.065,1.346-0.121,2.021-0.163
						c1.35-0.084,2.705-0.115,4.064-0.061c0.681,0.027,1.362,0.076,2.045,0.149l1.834,0.13l1.846,0.17
						c0.286,0.758,0.555,1.506,0.799,2.228l0.345,1.062c0.077,0.284,0.091,0.447,0.136,0.679c4.892,5.257,5.136,12.925,9.351,18.73
						c1.591,7.254,5.719,13.168,9.411,19.182c1.435,7.135,5.656,12.779,9.273,18.598c1.677,6.772,5.363,12.424,8.886,18.004
						c2.702,5.991,4.414,12.312,7.646,17.718c3.916,5.068,6.275,10.735,9.146,15.954c1.034,2.811,2.092,5.56,3.322,8.173
						c0.616,1.307,1.275,2.58,1.997,3.809l0.553,0.914l0.848,1.444c0.618,1.047,1.283,2.141,2.02,3.324
						c0.55,1.129,1.098,2.254,1.531,3.145c-2.364-0.03-4.707-0.06-7.025-0.09l-1.697-0.033l-1.028-0.039
						c-0.64-0.028-1.275-0.057-1.909-0.085c-2.532-0.132-5.014-0.261-7.445-0.387c-4.862-0.248-9.524-0.421-13.986-0.189
						c-9.528,0.311-18.151,1.142-25.732,0.987c-3.554-0.458-6.776-0.533-9.695-0.552c-1.742-0.01-3.394-0.019-4.959-0.026
						c-2.118-0.022-4.095-0.071-5.732-0.188c0.67-1.229,1.124-1.996,1.579-2.73c0.506-0.89,0.997-1.756,1.475-2.597
						c0.228-0.398,0.451-0.791,0.672-1.178l0.281-0.481l0.232-0.385c0.613-1.019,1.186-1.971,1.718-2.855
						c1.06-1.772,1.945-3.277,2.646-4.502C532.017,413.272,532.668,411.943,532.461,411.839z"/>
				</g>
			</g>
		</g>
		<g>
			<polygon fill="#008ED3" points="517.106,411.975 509.157,428.532 376.052,428.62 411.421,357.081 419.374,373.638 
				400.317,411.975 			"/>
			<g>
				<g>
					<path fill-rule="evenodd" clip-rule="evenodd" fill="#231F20" d="M517.106,411.28c0,0.561-5.854,0.502-16.425,0.985
						c-5.282-0.851-11.742-0.638-19.24,0.512c-7.496,1.072-16.023,1.014-25.445-0.106c-9.418-0.686-19.736,0.106-30.794,0.889
						c-5.53-0.058-11.245-1.738-17.133,0.135c-2.211-0.585-5.979-0.79-9.301-0.758c0.479-0.988,0.924-1.965,1.368-2.984l0.667-1.565
						l0.655-1.602c0.606-1.635,1.163-3.31,1.706-5.005c3.42-5.23,5.903-11.094,8.803-16.906c0.986-1.947,1.853-3.972,2.703-6.031
						c0.423-1.031,0.848-2.068,1.276-3.112c0.217-0.521,0.435-1.042,0.653-1.566l0.077-0.184l0.014-0.056l0.026-0.107l0.049-0.196
						c-0.095-0.139-0.131-0.166-0.248-0.373c-0.239-0.479-0.479-0.961-0.722-1.447c-0.472-0.978-0.92-1.981-1.331-3.007
						c-0.514-0.834-1.015-1.677-1.506-2.527l-0.728-1.284l-0.358-0.647l-0.177-0.325c-0.021-0.029-0.025-0.024-0.038-0.037
						c-0.168-0.139-0.212-0.15-0.274-0.326c-0.044,0.057-0.097,0.063-0.214,0.135l-0.101,0.066l-0.062,0.046l-0.033,0.026
						l-0.018,0.015l-0.064,0.108c-0.376,0.628-0.754,1.259-1.132,1.891c-5.027,5.265-5.589,12.851-10.238,18.506
						c-4.128,5.758-4.888,13.09-8.144,19.065c-4.61,5.314-9.864,10.188-8.866,18.021c-0.289,0.644-0.589,1.313-0.897,2.002
						c-0.153,0.345-0.308,0.694-0.464,1.047l-0.235,0.531l-0.119,0.267c-0.022,0.054-0.006,0.031-0.011,0.051
						c-0.003,0.148,0.039,0.192,0.042,0.229c0.064-0.012,0.084-0.008,0.113,0.023l0.059,0.067l0.023,0.023l0.013,0.013
						c0.011,0.005,0.1,0.01,0.145,0.014c0.223,0.021,0.442,0.043,0.657,0.063c1.717,0.185,3.158,0.513,4.126,1.059
						c5.085-1.955,12.734-1.65,18.768-0.438c6.033,0.923,11.917,0.891,17.626,0.713c5.71-0.458,11.256,0.33,16.607-1.083
						c10.716,1.799,20.088,3.135,29.781,0.56c7.93-1.715,14.669,0.473,24.533-0.306c2.91-0.461,5.764-0.508,8.447-0.397
						c1.342,0.056,2.642,0.15,3.885,0.254c0.311,0.026,0.618,0.053,0.922,0.078l0.452,0.039l0.224,0.02l0.068,0.02
						c0.183,0.052,0.391,0.102,0.613,0.146c0.104-0.145,0.196-0.273,0.282-0.394c0.055-0.087,0.066-0.085,0.153-0.245
						c0.095-0.178,0.187-0.351,0.277-0.522c6.132-8.308,7.555-13.838,7.555-13.838c-0.932-0.447-1.997,5.254-5.943,14.611
						c-0.505,0.675-0.907,1.246-1.334,1.962c-0.504-0.051-0.982-0.084-1.464-0.101c-0.493-0.017-1.151-0.018-1.741-0.006
						c-1.219,0.022-2.494,0.098-3.823,0.2c-2.656,0.242-5.524,0.504-8.572,0.781c-9.442-1.849-15.434,1.923-24.532,0.422
						c-9.096,0.653-20.285,0.004-29.78,0.464c-4.454-0.19-10.896,1.476-16.608,0.349c-5.71-0.488-11.594-1.229-17.626,0.002
						c-6.033-0.015-12.219-0.417-18.54,0.09c-1.671-0.399-3.351-0.458-5.041-0.357c-2.289,0.101-5.035,0.359-8.176,0.596
						c0.749-1.984,1.705-4.346,2.871-6.796c0.347-0.725,0.455-0.944,0.646-1.306c0.18-0.341,0.371-0.677,0.573-1.008
						c0.405-0.661,0.86-1.3,1.377-1.909c2.18-6.262,3.945-12.86,8.797-18.056c1.161-7.011,7.062-11.8,9.07-18.606
						c4.753-5.604,6.898-12.406,9.389-18.925c0.498-0.566,0.964-1.147,1.402-1.74l0.082-0.111l0.111-0.172l0.219-0.342l0.42-0.668
						l0.784-1.289c0.999-1.687,1.849-3.306,2.719-5.122c1.18,2.377,2.415,4.562,3.883,7.137l0.276,0.484l0.199,0.321l0.395,0.633
						l0.792,1.259c0.523,0.841,1.045,1.68,1.565,2.517c0.256,1.088,0.564,2.147,0.916,3.181c0.175,0.517,0.362,1.026,0.558,1.529
						c0.268,0.654,0.605,1.426,0.909,2.106l-1.087,2.113c-0.252,0.504-0.495,1.011-0.729,1.521c-0.47,1.019-0.91,2.048-1.33,3.082
						c-0.84,2.068-1.601,4.156-2.367,6.225c-3.09,5.718-7.043,10.85-9.347,16.635c-0.464,1.755-1.045,3.438-1.687,5.06
						c-0.054,0.128-0.052,0.145-0.062,0.183l-0.026,0.108l-0.05,0.2l-0.098,0.354c-0.065,0.22-0.132,0.413-0.204,0.599
						c0.376-0.021,0.742-0.041,1.102-0.062l0.245-0.017l0.886-0.022c0.634-0.022,1.265-0.045,1.893-0.066
						c5.889,0.627,11.604,1.062,17.133-0.039c11.059,0,21.376,1.361,30.794,0.879c9.421-0.3,17.949-1.12,25.445-0.956
						c7.781,1.023,13.958,0.164,19.24,0.985C511.252,411.318,517.106,411.744,517.106,411.28z"/>
				</g>
			</g>
		</g>
		<g>
			<polygon fill="#008ED3" points="419.569,341.028 427.524,356.897 486.371,237.515 509.548,283.927 525.743,283.927 
				486.256,205.254 			"/>
			<g>
				<g>
					<path fill-rule="evenodd" clip-rule="evenodd" fill="#231F20" d="M420.193,341.335c-0.502-0.247,2.439-6.104,7.223-16.94
						c3.371-4.935,6.368-11.52,9.038-19.562c2.738-8.006,6.999-16.55,12.655-25.525c5.265-9.163,9.646-19.881,14.403-31.339
						c2.782-5.532,7.111-10.534,8.336-17.278c4.118-5.317,6.501-11.702,8.715-18.357c0.387-0.614,0.763-1.235,1.132-1.864
						l0.298-0.518l0.406-0.749c0.264-0.492,0.527-0.986,0.793-1.482c1.043-1.965,2.037-3.911,3.05-5.942
						c1.351,2.734,2.728,5.426,4.165,8.229c0.957,1.867,1.928,3.759,2.904,5.664c3.215,6.514,7.612,12.605,10.592,19.553
						c4.016,6.43,7.482,13.272,10.415,20.514c1.547,7.927,7.643,13.699,9.738,21.579c0.18,0.541,0.367,1.054,0.585,1.593
						c0.311,0.723,0.625,1.415,0.951,2.1c0.65,1.368,1.353,2.71,2.146,4.149c-1.781,0.077-3.585,0.21-5.6,0.365l-1.498,0.12
						l-1.016,0.124l-2.027,0.25c-1.35,0.163-2.694,0.311-4.036,0.411c-0.671,0.05-1.341,0.087-2.009,0.108l-1.778,0.018l-1.844-0.01
						c-0.087-0.18-0.171-0.356-0.256-0.532l-0.879-2.522l-0.096-0.29l-0.041-0.179l-0.082-0.357l-0.162-0.715
						c-0.224-0.949-0.447-1.896-0.67-2.841c-0.468-1.878-0.997-3.718-1.693-5.465c-1.395-3.493-3.461-6.615-7.059-8.935
						c-3.481-6.496-8.742-15.345-8.726-19.591c-0.203-0.2-0.404-0.408-0.604-0.623c-0.186-0.188-0.444-0.532-0.505-0.491
						c-0.201-0.077-0.352-0.096-0.463-0.077c-0.224,0.036-0.292,0.225-0.308,0.376c-0.012,0.176,0.007,0.196,0.002,0.18
						c-0.003-0.008-0.012-0.025-0.032-0.037c-0.01-0.006-0.023-0.011-0.041-0.013c-0.016,0.015,0-0.036-0.046,0.035l-0.215,0.371
						c-1.155,1.976-2.421,3.888-3.688,5.604c-3.818,5.648-6.705,11.57-9.375,17.381c-2.42,5.937-5.875,11.155-7.26,17.153
						c-6.924,9.962-12.768,18.78-15.262,29.652c-2.393,8.72-7.695,14.519-11.884,24.766c-1.208,3.666-2.886,7.002-4.595,10.045
						c-0.435,0.757-0.862,1.5-1.281,2.229l-0.317,0.54l-0.471,0.851c-0.333,0.604-0.662,1.202-0.987,1.792
						c-1.28,2.322-2.395,4.336-3.396,6.264c-0.036-0.075-0.062-0.13-0.088-0.185c-1.578-3.94-2.979-7.439-4.193-10.471
						c-0.829-2.029-1.619-3.701-2.304-5.028c-1.37-2.655-2.325-3.93-2.325-3.93c-0.462,0.232,0.346,1.58,1.961,4.112
						c0.808,1.266,1.817,2.828,2.97,4.694c0.292,0.479,0.594,0.976,0.908,1.49c0.328,0.556,0.667,1.132,1.017,1.727
						c0.622,1.082,1.284,2.235,1.985,3.456c0.017,0.048,0.034,0.096,0.057,0.159c1.291-1.466,3.382-5.672,4.558-8.479
						c1.353-3.166,2.657-6.688,4.164-10.419c6.337-8.662,5.925-16.347,11.78-24.816c3.922-9.421,10.05-20.368,14.344-30.104
						c2.378-4.387,4.078-11.593,7.918-16.829c3.269-5.517,6.848-11.097,8.734-17.697c0.967-1.948,1.978-3.894,3-5.869
						c0.702-1.381,1.408-2.772,2.121-4.175c0.733-1.472,1.472-2.957,2.218-4.455c0.775,1.544,1.571,3.099,2.41,4.69
						c0.43,0.803,0.861,1.613,1.296,2.426l0.632,1.15l0.478,0.817c1.807,7.013,8.054,11.977,9.876,19.302
						c2.013,3.112,4.157,6.195,5.995,9.467c0.919,1.636,1.761,3.319,2.472,5.077c0.355,0.879,0.678,1.776,0.961,2.695l0.205,0.694
						l0.097,0.35l0.046,0.176c0.002,0.03-0.008,0.039-0.012,0.061c-0.038,0.153-0.065,0.354-0.076,0.62l0.101,0.017
						c0.16-0.084,0.288-0.159,0.392-0.224l0.138-0.092l0.059-0.041c0.021-0.013,0.011-0.026,0.123-0.038
						c0.668-0.097,1.338-0.161,2.009-0.198c1.342-0.076,2.687-0.047,4.036,0.036c0.675,0.041,1.351,0.096,2.027,0.157l1.016,0.096
						c0.114,0.008,0.098,0.017,0.125,0.025l0.063,0.025l0.139,0.051c0.387,0.137,0.984,0.275,1.646,0.363
						c-0.068-0.296-0.231-0.708-0.461-1.112c-0.113-0.201-0.242-0.399-0.378-0.567c-0.275-0.447-0.595-0.939-0.92-1.393
						c-1.992-7.932-6.509-14.497-10.585-21.154c-1.827-7.797-6.425-14.072-10.415-20.515c-2.056-7.412-6.107-13.676-9.987-19.856
						c-0.886-1.91-1.729-3.93-2.466-5.782c-0.226-0.832-0.611-2.024-1.132-3.369c-0.384,0.56-0.829,1.302-1.254,2.119l-0.312,0.62
						l-0.365,0.779c-0.304,0.661-0.592,1.325-0.862,1.996c-1.92,6.799-5.256,12.717-7.918,18.749
						c-3.47,5.641-6.681,11.193-8.422,17.236c-5.458,11.113-11.773,20.882-15.989,30.561c-4.382,9.6-7.854,18.532-11.702,25.993
						c-4.76,7.369-7.037,13.956-10.382,18.902C423.048,335.435,419.777,341.13,420.193,341.335z"/>
				</g>
			</g>
		</g>
		<g>
			<polygon fill="#008ED3" points="439.521,300.44 399.577,300.44 454.437,411.888 438.234,411.888 375.264,283.972 
				447.775,283.895 			"/>
			<g>
				<g>
					<path fill-rule="evenodd" clip-rule="evenodd" fill="#231F20" d="M440.143,300.751c-0.25-0.125,0.298-1.506,1.452-4.078
						c0.584-1.283,1.307-2.869,2.16-4.744c0.844-1.851,1.891-4.144,2.792-6.221c0.319-0.457,0.645-0.948,1.109-1.739
						c-0.919-0.145-2.174-0.236-3.583-0.274c-1.463-0.039-2.809-0.025-4.298,0.039c-2.947,0.128-6.159,0.46-9.585,0.983
						c-7.581,1.08-16.206,1.031-25.737-0.079c-4.464-0.316-9.128-0.309-13.992-0.129c-2.432,0.09-4.915,0.223-7.447,0.379
						c-0.633,0.04-1.27,0.081-1.909,0.122l-0.93,0.063l-0.599,0.064c-0.775,0.087-1.446,0.178-2.006,0.27
						c0.187,0.285,0.422,0.644,0.659,1.005c0.141,0.303,0.252,0.603,0.364,0.938l0.084,0.258c0.036,0.104,0.036,0.137,0.118,0.337
						l0.382,0.998c0.506,1.335,0.998,2.69,1.549,4.029c1.103,2.677,2.442,5.288,4.598,7.546c1.416,5.937,4.728,11.135,8.35,16.349
						c2.114,5.956,5.3,11.553,8.193,17.452c2.855,5.909,6.889,11.391,9.492,17.708c3.644,5.806,6.73,12.01,9.275,18.6
						c1.154,7.265,6.868,12.398,8.562,19.603c2.092,6.852,7.483,11.986,10.278,18.276c0.034,0.191,0.108,0.466,0.107,0.588
						c-0.029,0.064-0.054,0.139-0.075,0.224c-0.041,0.169-0.062,0.38-0.064,0.629c0.165,0.186,0.349,0.368,0.842,0.542
						c0.683,0.174,1.364,0.339,2.043,0.487c1.36,0.296,2.715,0.524,4.065,0.624c0.675,0.051,1.349,0.068,2.022,0.047
						c0.336-0.011,0.672-0.032,1.008-0.063c0.311-0.031,0.597-0.074,0.87-0.129c1.079-0.218,1.841-0.624,1.383-1.282
						c-0.536-0.484-1.076-0.883-1.597-1.14c-0.09-0.123-0.184-0.234-0.266-0.316l-0.06-0.058l-0.3-0.545
						c-0.219-0.403-0.439-0.811-0.662-1.22c-0.884-1.636-1.768-3.308-2.547-4.919c-1.559-3.222-2.701-6.197-2.6-8.156
						c-4.022-3.755-7.162-10.832-8.765-16.845c-1.863-5.884-4.518-11.21-7.224-16.314c-2.958-4.982-4.725-10.364-8.381-14.599
						c-3.166-10.521-6.147-19.619-12.783-27.281c-2.025-2.571-3.409-5.243-4.686-8.118c-0.638-1.437-1.25-2.924-1.901-4.475
						l-0.123-0.292l-0.221-0.489c-0.148-0.328-0.297-0.658-0.448-0.99c-0.297-0.651-0.597-1.31-0.902-1.978
						c-0.61-1.302-1.237-2.638-1.884-4.017c1.187,0.015,2.531,0.013,4-0.011c0.738-0.018,1.508-0.036,2.299-0.055
						c0.402-0.014,0.809-0.028,1.221-0.042l0.629-0.025l0.406-0.028c6.951-1.082,13.58,0.135,18.712,0.309
						c10.26,1.932,15.925,0.821,15.925,0.821c0-1.034-5.665,0.473-15.925,0.966c-5.133-1.053-11.415-0.087-18.712,0.512
						c-1.814-0.392-4.017-0.533-5.468-0.525c0.809,1.626,1.744,3.22,2.553,4.452c0.883,1.334,1.74,2.63,2.602,3.934
						c1.708,2.616,3.297,5.333,4.366,8.849c4.644,7.969,9.053,18.413,13.702,26.83c1.816,4.127,6.185,9.24,7.722,14.922
						c2.109,5.399,4.07,11.066,7.865,16c2.677,5.482,5.077,11.275,8.351,16.79c0.732,3.204,2.576,5.899,4.419,8.631
						c0.922,1.366,1.844,2.741,2.627,4.192c0.515,0.907,2.141,4.43,2.699,6.493c0.492,0.844,0.984,1.689,1.488,2.555
						c-1.945,0.176-4.128,0.359-6.554,0.521l-1.828,0.115l-1.008,0.104c-0.672,0.065-1.346,0.121-2.021,0.163
						c-1.351,0.084-2.706,0.114-4.067,0.059c-0.681-0.027-1.362-0.075-2.045-0.149l-1.833-0.13l-1.845-0.171
						c-0.285-0.754-0.552-1.498-0.795-2.217l-0.343-1.058c-0.082-0.294-0.092-0.448-0.138-0.682
						c-4.892-5.258-5.136-12.926-9.351-18.732c-1.591-7.256-5.719-13.17-9.412-19.185c-1.435-7.136-5.657-12.781-9.275-18.6
						c-1.677-6.773-5.363-12.426-8.886-18.006c-2.702-5.993-4.415-12.314-7.647-17.721c-3.916-5.069-6.275-10.736-9.146-15.957
						c-1.034-2.811-2.091-5.56-3.323-8.174c-0.616-1.307-1.275-2.58-1.997-3.809l-0.553-0.914l-0.85-1.449
						c-0.618-1.047-1.284-2.142-2.02-3.326c-0.548-1.125-1.093-2.246-1.525-3.134c2.365,0.03,4.708,0.061,7.028,0.091l1.698,0.034
						l1.028,0.038c0.639,0.029,1.276,0.057,1.909,0.086c2.533,0.132,5.016,0.261,7.448,0.388c4.865,0.249,9.529,0.423,13.992,0.192
						c9.529-0.31,18.154-1.14,25.736-0.983c3.556,0.458,6.781,0.533,9.702,0.553c1.743,0.01,3.396,0.019,4.961,0.027
						c2.12,0.022,4.097,0.071,5.736,0.189c-0.667,1.222-1.118,1.983-1.569,2.712c-0.506,0.891-0.998,1.756-1.476,2.597
						c-0.228,0.399-0.452,0.792-0.673,1.178l-0.284,0.486l-0.232,0.384c-0.613,1.019-1.186,1.972-1.718,2.856
						c-1.06,1.772-1.947,3.277-2.647,4.501C440.588,299.318,439.936,300.647,440.143,300.751z"/>
				</g>
			</g>
		</g>
		<g>
			<polygon fill="#008ED3" points="455.026,300.615 463.429,284.059 596.518,283.983 561.161,355.125 553.201,338.58 
				572.253,300.615 			"/>
			<g>
				<g>
					<path fill-rule="evenodd" clip-rule="evenodd" fill="#231F20" d="M455.026,301.311c0-0.56,5.853-0.502,16.421-0.985
						c5.282,0.85,11.74,0.637,19.236-0.512c7.495-1.072,16.021-1.014,25.44,0.106c9.416,0.686,19.731-0.106,30.788-0.889
						c5.528,0.058,11.242,1.739,17.13-0.135c0.674,0.155,1.352,0.284,2.03,0.388l1.021,0.139c0.364,0.041,0.905,0.075,1.334,0.104
						c1.813,0.118,3.52,0.151,5.396,0.119c-0.896,1.871-1.693,3.741-2.589,5.931c-0.613,1.628-1.127,3.177-1.658,4.808
						c-3.439,5.217-5.944,11.069-8.865,16.869c-1.004,1.963-1.886,4.005-2.752,6.083c-0.432,1.04-0.864,2.085-1.301,3.138
						c-0.222,0.524-0.443,1.051-0.667,1.579l-0.08,0.189l-0.014,0.056l-0.027,0.107l-0.051,0.197
						c0.086,0.122,0.141,0.189,0.226,0.335c0.233,0.469,0.469,0.941,0.706,1.417c0.461,0.958,0.9,1.94,1.303,2.944
						c0.52,0.843,1.027,1.693,1.523,2.554c0.448,0.794,0.897,1.591,1.35,2.392c0.169,0.141,0.213,0.154,0.275,0.337
						c0.044-0.051,0.098-0.059,0.214-0.127c0.066-0.05,0.115-0.05,0.246-0.2c0.372-0.618,0.745-1.238,1.119-1.86
						c5.037-5.253,5.614-12.836,10.274-18.48c4.14-5.748,4.914-13.077,8.182-19.044c4.62-5.304,9.884-10.166,8.902-17.999
						c0.282-0.628,0.577-1.281,0.88-1.952c0.149-0.336,0.301-0.676,0.454-1.02c0.137-0.311,0.376-0.827,0.308-0.726
						c0.003-0.145-0.038-0.191-0.045-0.225c-0.07,0.015-0.094,0.014-0.124-0.015l-0.061-0.064c0.162-0.029-0.564-0.065-0.943-0.111
						c-1.756-0.183-3.229-0.513-4.215-1.068c-5.084,1.954-12.731,1.649-18.764,0.436c-6.032-0.923-11.914-0.891-17.623-0.714
						c-5.71,0.457-11.254-0.332-16.604,1.082c-10.713-1.8-20.084-3.137-29.774-0.562c-7.928,1.714-14.667-0.475-24.527,0.304
						c-2.869,0.453-5.683,0.506-8.331,0.401c-1.324-0.053-2.607-0.145-3.835-0.246c-0.307-0.026-0.61-0.052-0.91-0.077l-0.447-0.039
						l-0.222-0.02c-0.059-0.006-0.053-0.013-0.084-0.019c-0.177-0.052-0.379-0.102-0.597-0.146
						c-0.115,0.152-0.218,0.287-0.314,0.413l-0.075,0.105l-0.153,0.264c-0.106,0.189-0.209,0.374-0.312,0.557
						c-6.312,8.169-7.856,13.665-7.856,13.665c0.921,0.468,2.112-5.208,6.263-14.474c0.558-0.71,1.019-1.354,1.482-2.102
						c0.492,0.046,0.962,0.075,1.436,0.088c0.496,0.013,1.14,0.012,1.725-0.001c1.204-0.027,2.463-0.103,3.775-0.206
						c2.623-0.239,5.452-0.498,8.455-0.771c9.44,1.849,15.431-1.921,24.527-0.419c9.094-0.652,20.281-0.002,29.774-0.461
						c4.453,0.19,10.895-1.474,16.604-0.348c5.709,0.489,11.592,1.23,17.623,0c6.031,0.016,12.217,0.418,18.535-0.088
						c1.706,0.408,3.421,0.46,5.146,0.352c2.255-0.109,5.133-0.38,8.338-0.618c-0.743,1.95-1.693,4.261-2.844,6.647l-0.421,0.859
						l-0.26,0.5c-0.178,0.332-0.366,0.659-0.565,0.981c-0.399,0.644-0.846,1.266-1.353,1.86c-2.192,6.256-3.971,12.85-8.833,18.033
						c-1.175,7.008-7.086,11.783-9.106,18.584c-4.765,5.593-6.924,12.39-9.427,18.902c-0.491,0.557-0.952,1.127-1.386,1.71
						c-0.572,0.86-1.127,1.753-1.616,2.57c-0.99,1.657-1.832,3.246-2.692,5.021c-1.193-2.413-2.44-4.619-3.925-7.223l-0.263-0.453
						l-0.199-0.32l-0.399-0.639l-0.802-1.272c-0.529-0.849-1.058-1.696-1.584-2.542c-0.251-1.065-0.553-2.103-0.896-3.115
						c-0.171-0.506-0.353-1.005-0.543-1.499c-0.279-0.676-0.596-1.407-0.896-2.082l1.11-2.128c0.257-0.507,0.505-1.018,0.745-1.531
						c0.48-1.027,0.93-2.063,1.359-3.106c0.857-2.085,1.634-4.191,2.415-6.276c3.111-5.705,7.083-10.821,9.409-16.596
						c0.225-0.837,0.477-1.658,0.748-2.463l0.423-1.196l0.41-1.099c0.133-0.592,0.238-0.96,0.372-1.319
						c-0.402,0.024-0.794,0.047-1.178,0.069c-1.152,0.037-2.285,0.073-3.409,0.109c-5.888-0.628-11.602-1.062-17.13,0.039
						c-11.057,0-21.372-1.362-30.788-0.879c-9.42,0.299-17.945,1.121-25.44,0.956c-7.779-1.023-13.955-0.164-19.236-0.985
						C460.879,301.272,455.026,300.847,455.026,301.311z"/>
				</g>
			</g>
		</g>
		<g>
			<polygon fill="#008ED3" points="553.005,371.563 545.057,355.696 486.219,475.076 463.035,428.673 446.828,428.673 
				486.311,507.337 			"/>
			<g>
				<g>
					<path fill-rule="evenodd" clip-rule="evenodd" fill="#231F20" d="M552.381,371.256c0.503,0.247-2.439,6.104-7.224,16.939
						c-3.371,4.935-6.369,11.52-9.039,19.562c-2.737,8.005-6.999,16.549-12.655,25.523c-5.266,9.162-9.647,19.88-14.404,31.338
						c-2.781,5.531-7.111,10.534-8.336,17.277c-4.118,5.316-6.502,11.702-8.716,18.356c-0.387,0.614-0.764,1.236-1.133,1.865
						l-0.296,0.517l-0.407,0.749c-0.264,0.493-0.528,0.987-0.794,1.483c-1.043,1.966-2.038,3.913-3.052,5.946
						c-1.351-2.733-2.727-5.423-4.163-8.226c-0.957-1.865-1.927-3.758-2.903-5.661c-3.216-6.514-7.613-12.604-10.592-19.553
						c-4.016-6.43-7.482-13.271-10.415-20.514c-1.547-7.927-7.643-13.698-9.739-21.578c-0.18-0.541-0.366-1.053-0.585-1.593
						c-0.311-0.723-0.625-1.415-0.95-2.1c-0.651-1.367-1.353-2.709-2.145-4.147c1.782-0.077,3.587-0.211,5.604-0.366l1.498-0.12
						l1.017-0.124l2.029-0.25c1.351-0.163,2.697-0.312,4.04-0.411c0.671-0.05,1.341-0.087,2.011-0.107l1.777-0.019l1.846,0.011
						c0.083,0.174,0.164,0.343,0.246,0.513l0.88,2.522l0.099,0.296l0.042,0.181l0.082,0.357l0.163,0.715
						c0.224,0.948,0.447,1.896,0.67,2.84c0.468,1.879,0.998,3.719,1.695,5.465c1.395,3.494,3.461,6.615,7.06,8.935
						c3.483,6.495,8.746,15.342,8.729,19.588c0.203,0.2,0.404,0.408,0.604,0.624c0.184,0.184,0.447,0.537,0.508,0.495
						c0.201,0.077,0.352,0.097,0.463,0.078c0.225-0.036,0.292-0.225,0.308-0.377c0.012-0.175-0.007-0.194-0.002-0.179
						c0.003,0.009,0.012,0.025,0.032,0.038c0.011,0.006,0.023,0.011,0.041,0.013c0.016-0.015,0.001,0.034,0.045-0.033l0.215-0.371
						c1.154-1.975,2.42-3.886,3.687-5.601c3.817-5.648,6.704-11.57,9.374-17.381c2.42-5.937,5.875-11.154,7.26-17.153
						c6.923-9.962,12.766-18.78,15.26-29.651c2.392-8.721,7.694-14.52,11.883-24.766c1.208-3.667,2.887-7.004,4.596-10.048
						c0.436-0.758,0.863-1.501,1.281-2.229l0.317-0.54l0.472-0.852c0.333-0.604,0.661-1.202,0.986-1.793
						c1.28-2.322,2.395-4.336,3.396-6.264c0.035,0.073,0.061,0.125,0.086,0.178c1.577,3.942,2.978,7.443,4.191,10.477
						c0.828,2.029,1.617,3.701,2.302,5.028c1.369,2.655,2.324,3.931,2.324,3.931c0.462-0.231-0.346-1.58-1.96-4.112
						c-0.808-1.267-1.816-2.828-2.969-4.695c-0.291-0.479-0.594-0.976-0.907-1.491c-0.327-0.556-0.666-1.132-1.017-1.727
						c-0.621-1.082-1.282-2.235-1.983-3.456c-0.017-0.046-0.032-0.093-0.055-0.153c-1.29,1.463-3.382,5.672-4.558,8.479
						c-1.354,3.167-2.657,6.689-4.165,10.421c-6.336,8.662-5.924,16.347-11.778,24.816c-3.922,9.422-10.05,20.368-14.342,30.104
						c-2.378,4.388-4.077,11.593-7.918,16.829c-3.268,5.517-6.848,11.097-8.733,17.697c-0.966,1.946-1.976,3.892-2.997,5.865
						c-0.701,1.381-1.408,2.771-2.12,4.174c-0.732,1.471-1.472,2.955-2.217,4.452c-0.776-1.545-1.573-3.101-2.413-4.694
						c-0.43-0.804-0.862-1.614-1.298-2.428l-0.631-1.147l-0.478-0.817c-1.809-7.013-8.057-11.976-9.88-19.3
						c-2.013-3.111-4.158-6.193-5.997-9.465c-0.919-1.636-1.762-3.319-2.473-5.076c-0.355-0.879-0.678-1.776-0.961-2.695
						l-0.205-0.693l-0.097-0.351l-0.046-0.174l0.015-0.055c0.038-0.153,0.066-0.354,0.076-0.621l-0.097-0.016
						c-0.161,0.084-0.289,0.159-0.393,0.225l-0.139,0.092l-0.058,0.041c-0.02,0.014-0.013,0.026-0.125,0.038
						c-0.669,0.098-1.34,0.162-2.011,0.2c-1.343,0.076-2.689,0.047-4.04-0.035c-0.675-0.041-1.352-0.096-2.029-0.157l-1.017-0.096
						c-0.113-0.009-0.104-0.017-0.128-0.025l-0.063-0.025l-0.139-0.051c-0.388-0.138-0.985-0.276-1.647-0.364
						c0.068,0.297,0.232,0.708,0.46,1.112c0.114,0.201,0.243,0.398,0.378,0.566c0.275,0.446,0.595,0.939,0.919,1.393
						c1.993,7.932,6.508,14.496,10.585,21.153c1.828,7.797,6.425,14.071,10.415,20.514c2.056,7.412,6.108,13.676,9.988,19.856
						c0.885,1.907,1.729,3.929,2.464,5.776c0.226,0.832,0.611,2.022,1.131,3.367c0.385-0.561,0.83-1.303,1.255-2.12l0.312-0.621
						l0.366-0.781c0.305-0.661,0.593-1.325,0.864-1.997c1.919-6.799,5.256-12.716,7.918-18.748
						c3.47-5.641,6.681-11.192,8.423-17.235c5.459-11.112,11.774-20.881,15.99-30.559c4.382-9.6,7.854-18.531,11.702-25.992
						c4.76-7.368,7.037-13.954,10.382-18.901C549.526,377.156,552.797,371.46,552.381,371.256z"/>
				</g>
			</g>
		</g>
	</g>
</g>
<path fill-rule="evenodd" clip-rule="evenodd" stroke="#231F20" stroke-width="0.25" stroke-miterlimit="10" d="M949.349,103.955
	c-35.834,1.472-71.561,3.164-107.623,3.887c-38.74,0.098-77.501,0.129-116.29,0.414c-38.782,0.047-77.585-0.057-116.382-0.544
	c-46.805-0.255-93.619-1.173-140.457-2.055c-46.82-0.535-93.629-1.651-140.454-2.154c-27.896-0.533-55.807-0.408-83.695-0.415
	c-27.889,0.119-55.729-0.019-83.537,0.579c-44.277,0.2-88.295,2.723-135.888,3.952l-1.576-18.348
	c22.481-0.363,44.958-0.74,67.474-0.635c44.158,0.399,88.334-0.386,132.492,0.119c44.16,0.175,88.318,0.466,132.5,0.552
	c48.018,0.838,96.075,0.795,144.115,1.508c48.048,0.409,96.098,0.721,144.139,1.442c32.753,0.255,65.501,0.606,98.244,0.072
	c32.726,0.451,65.464-0.891,98.131-0.819c35.031-0.497,69.882-1.645,104.296-2.799L949.349,103.955z"/>
<path fill-rule="evenodd" clip-rule="evenodd" stroke="#231F20" stroke-width="0.25" stroke-miterlimit="10" d="M949.349,194.028
	c-35.834,1.472-71.561,3.165-107.623,3.887c-38.74,0.098-77.501,0.13-116.29,0.414c-38.782,0.047-77.585-0.057-116.382-0.544
	c-46.805-0.256-93.619-1.172-140.457-2.055c-46.82-0.535-93.629-1.652-140.454-2.154c-27.896-0.533-55.807-0.408-83.695-0.416
	c-27.889,0.119-55.729-0.018-83.537,0.58c-44.277,0.201-88.295,2.723-135.888,3.951l-1.576-18.347
	c22.481-0.364,44.958-0.74,67.474-0.636c44.158,0.399,88.334-0.386,132.492,0.119c44.16,0.174,88.318,0.466,132.5,0.552
	c48.018,0.838,96.075,0.796,144.115,1.508c48.048,0.41,96.098,0.722,144.139,1.442c32.753,0.255,65.501,0.605,98.244,0.072
	c32.726,0.451,65.464-0.891,98.131-0.82c35.031-0.496,69.882-1.644,104.296-2.798L949.349,194.028z"/>
<path fill-rule="evenodd" clip-rule="evenodd" stroke="#231F20" stroke-width="0.25" stroke-miterlimit="10" d="M949.349,527.105
	c-35.834,1.473-71.561,3.164-107.623,3.887c-38.74,0.099-77.501,0.129-116.29,0.414c-38.782,0.048-77.585-0.057-116.382-0.544
	c-46.805-0.257-93.619-1.174-140.457-2.056c-46.82-0.535-93.629-1.652-140.454-2.154c-27.896-0.533-55.807-0.408-83.695-0.414
	c-27.889,0.118-55.729-0.021-83.537,0.578c-44.277,0.199-88.295,2.725-135.888,3.951l-1.576-18.347
	c22.481-0.364,44.958-0.74,67.474-0.637c44.158,0.399,88.334-0.386,132.492,0.12c44.16,0.174,88.318,0.465,132.5,0.552
	c48.018,0.839,96.075,0.795,144.115,1.507c48.048,0.41,96.098,0.723,144.139,1.442c32.753,0.256,65.501,0.606,98.244,0.071
	c32.726,0.451,65.464-0.89,98.131-0.818c35.031-0.497,69.882-1.645,104.296-2.798L949.349,527.105z"/>
<path fill-rule="evenodd" clip-rule="evenodd" stroke="#231F20" stroke-width="0.25" stroke-miterlimit="10" d="M949.349,617.179
	c-35.834,1.472-71.561,3.164-107.623,3.886c-38.74,0.099-77.501,0.131-116.29,0.416c-38.782,0.046-77.585-0.059-116.382-0.547
	c-46.805-0.253-93.619-1.172-140.457-2.054c-46.82-0.534-93.629-1.651-140.454-2.153c-27.896-0.533-55.807-0.408-83.695-0.418
	c-27.889,0.119-55.729-0.017-83.537,0.581c-44.277,0.201-88.295,2.722-135.888,3.952l-1.576-18.349
	c22.481-0.362,44.958-0.739,67.474-0.635c44.158,0.398,88.334-0.387,132.492,0.118c44.16,0.176,88.318,0.467,132.5,0.553
	c48.018,0.836,96.075,0.796,144.115,1.507c48.048,0.41,96.098,0.722,144.139,1.441c32.753,0.257,65.501,0.606,98.244,0.074
	c32.726,0.45,65.464-0.892,98.131-0.821c35.031-0.495,69.882-1.645,104.296-2.799L949.349,617.179z"/>
<g>
	<path stroke="#231F20" stroke-width="0.25" stroke-miterlimit="10" d="M951.253,485.453c0.937-37.265,1.753-74.542,2.912-111.821
		c0.802-24.852,2.068-49.7,3.113-74.552c1.018-24.68,1.815-49.396,1.712-74.571c-0.069-16.731-0.346-33.462-0.715-50.323
		c-0.391-16.856-0.905-33.012-1.386-51.1c-0.533-16.164-1.03-34.35-1.516-50.725c-0.464-17.257-0.866-34.475-1.111-50.725
		C954.054,4.804,945.059,1.128,924.5,1.828c-15.089,1.039-30.478-0.293-45.722-0.298c-22.158-0.223-44.334,0.209-66.481-0.47
		c-22.147-0.591-44.329,0.041-66.495,0.086c-22.159-0.277-44.328-0.026-66.497,0.059c-22.186,0.867-44.327,0.752-66.451,0.034
		c-27.409,0.276-54.832,1.023-82.207,0.812c-27.417,0.557-54.797,0.541-82.175,0.398c-27.394,0.476-54.814,1.193-82.163,0.808
		c-27.384,0.065-54.778,0.532-82.171,0.948c-27.942-0.298-55.911,0.437-83.86,1.247c-27.917-0.487-55.855,0.628-83.802,1.961
		c0,0-122.181-8.283-116.268,17.765C6.12,51.225,21.663,371.414,13.418,511.539c-2.586,43.951-56.2,198.058,136.524,192.852
		c59.265-1.602,118.916,1.726,178.294,1.395c79.862-0.467,159.612-2.754,239.498-3.398c51.893-0.429,103.947,1.328,155.862,0.813
		c63.974-0.61,127.845-3.444,191.843-3.469c22.916-0.009,31.465-3.831,31.541-21.551
		C947.216,613.892,949.64,549.689,951.253,485.453z M70.628,244.237c-0.865-23.302-1.944-45.421-3.23-69.015
		c-1.31-23.337-2.818-46.909-4.63-69.003c-1.238-14.824-6.149-31.201-9.821-47.629c-3.142-12.758,2.239-20.992,23.108-21.129
		c26.182,0.044,52.401-1.247,78.576-0.914c26.206-0.829,52.354-0.29,78.554-1.57c28.972-1.114,57.915-1.767,86.853-2.285
		c28.939-0.602,57.903-2.115,86.86-2.568c28.924,0.028,57.899-1.84,86.875-2.231c28.972-1.054,57.938-1.126,86.918-0.992
		c26.705-0.464,53.401,0.036,80.125,0.333c26.706,0.94,53.439,0.893,80.174,1.538c26.752-0.098,53.473,1.109,80.208,1.686
		c26.715,0.644,53.447,1.332,80.161,1.977c19.348-0.153,20.151,8.356,20.343,19.855c0.702,30.063,1.383,60.869,2.283,91.06
		c0.874,30.359,1.945,60.337,3.337,91.088L916.75,462.913l0.366,0.09c-1.629,30.606-3.966,61.21-5.552,91.812
		c-1.489,29.26-3.365,58.523-3.089,87.823c0.119,15.71-6.442,21.82-29.108,22.31c-117.568,2.501-234.94,6.633-352.51,9.165
		c-41.877,0.91-84.048-1.593-126.041-1.688c-70.426-0.179-140.858-0.128-211.231,0.696c-35.004,0.413-70.036,1.897-104.779,4.568
		c-21.133,1.633-26.785-3.978-26.794-18.452c-0.093-61.271-1.116-122.588-2.039-183.892c-0.075-4.752-1.995-9.523-3.84-17.732
		l15.709-177.881l2.417-30.582"/>
	<line stroke="#231F20" stroke-width="0.25" stroke-miterlimit="10" x1="916.596" y1="466.23" x2="916.75" y2="462.913"/>
</g>
</svg>
