<?xml version="1.0" encoding="utf-8"?>
<!-- Generator: Adobe Illustrator 16.0.1, SVG Export Plug-In . SVG Version: 6.00 Build 0)  -->
<!DOCTYPE svg PUBLIC "-//W3C//DTD SVG 1.1//EN" "http://www.w3.org/Graphics/SVG/1.1/DTD/svg11.dtd">
<svg version="1.1" id="Layer_1" xmlns="http://www.w3.org/2000/svg" xmlns:xlink="http://www.w3.org/1999/xlink" x="0px" y="0px"
	 width="960px" height="705px" viewBox="0 0 960 705" enable-background="new 0 0 960 705" xml:space="preserve">
<g>
	<g>
		<g>
			<defs>
				<path id="SVGID_1_" d="M32.982,168.062c-4.788,5.163,35.134,473.506,35.134,473.506l838.304-63.711L887.268,52.689
					L32.982,168.062z"/>
			</defs>
			<clipPath id="SVGID_2_">
				<use xlink:href="#SVGID_1_"  overflow="visible"/>
			</clipPath>
			<g clip-path="url(#SVGID_2_)">
				<g>
					<path fill="none" stroke="#000000" stroke-width="0.5" d="M924.864,585.411L870.772,19.978L18.656,114.763l54.105,565.443
						L924.864,585.411L924.864,585.411z"/>
					<polygon fill="#00A651" points="356.784,647.671 302.774,83.159 18.656,114.763 72.674,679.284 					"/>
					<path d="M187.724,381.219"/>
					<polygon fill="#FFFFFF" points="640.696,616.562 586.688,52.032 302.56,83.637 356.58,648.175 					"/>
					<path fill="#FFF200" d="M471.628,350.099"/>
					<polygon fill="#ED1C24" points="924.514,584.521 870.502,20.001 586.377,51.607 640.372,616.126 					"/>
					<path fill="#ED1C24" d="M755.452,318.06"/>
					<path fill="none" stroke="#000000" stroke-width="0.5" d="M924.864,585.411L870.772,19.978L18.656,114.763l54.105,565.443
						L924.864,585.411L924.864,585.411z"/>
				</g>
				<path d="M360.48,605.485c1.521,9.712,0.959,14.227-2.333,16.854c-1.173,0.933-2.432,1.461-3.688,1.733
					c-8.517,1.879-10.045-4.745-11.842-23.345c-4.788-49.927-9.498-99.889-14.438-149.784c-4.1-41.323-8.539-82.563-12.695-123.879
					c-3.364-33.209-6.528-66.503-9.758-99.737c-3.396-34.993-6.782-69.968-10.107-104.979c-0.46-4.873-0.807-10.078-0.657-14.749
					c0.35-10.258,3.142-17.708,5.97-17.197c5.15,0.974,9.25,8.561,10.667,20.688c1.085,9.346,1.893,18.846,2.636,28.318
					c2.433,31.571,4.536,63.185,7.227,94.71c2.699,31.503,5.857,62.92,8.952,94.318c4.433,44.901,8.881,89.803,13.557,134.617
					c3.46,33.15,7.292,66.181,10.964,99.243"/>
				<path d="M649.499,605.485c1.52,9.712,0.957,14.227-2.336,16.854c-1.172,0.933-2.43,1.461-3.695,1.733
					c-8.51,1.879-10.033-4.745-11.834-23.345c-4.787-49.927-9.496-99.889-14.434-149.784c-4.104-41.323-8.545-82.563-12.697-123.879
					c-3.363-33.209-6.529-66.503-9.758-99.737c-3.396-34.993-6.785-69.968-10.115-104.979c-0.451-4.873-0.801-10.078-0.648-14.749
					c0.348-10.258,3.141-17.708,5.967-17.197c5.15,0.974,9.252,8.561,10.67,20.688c1.086,9.346,1.893,18.846,2.635,28.318
					c2.432,31.571,4.535,63.185,7.227,94.71c2.699,31.503,5.85,62.92,8.943,94.318c4.441,44.901,8.889,89.803,13.566,134.617
					c3.457,33.15,7.291,66.181,10.963,99.243"/>
			</g>
		</g>
	</g>
	<path d="M808.055,604.46c-17.742,0-35.768-0.409-53.766,0.104c-24.812,0.699-49.609,2.015-74.406,3.2
		c-50.086,2.396-100.164,5.062-150.256,7.287c-63.135,2.791-125.916,9.525-188.561,18.315c-38.403,5.403-77.028,8.937-115.47,14.076
		c-34.61,4.615-69.112,10.239-103.643,15.575c-3.739,0.571-7.369,2.1-10.971,3.403c-8.652,3.124-16.913,4.729-22.811-7.63
		c-4.046,8.329-1.601,14.595-0.245,20.79c2.423,11.164-0.264,16.243-10.592,18.896c-3.703,0.947-7.559,1.426-11.357,1.622
		c-25.708,1.305-28.825-6.358-30.1-27.63c-3.412-57.138-6.537-114.287-10.384-171.376c-3.184-47.301-7.434-94.521-10.829-141.812
		c-2.729-38.024-4.938-76.088-7.305-114.146c-2.477-40.021-4.964-80.038-7.22-120.093c-0.306-5.573-0.212-11.53,1.26-16.796
		c3.246-11.616,13.211-19.81,21.465-18.939c15.103,1.604,25.652,10.61,27.21,24.496c1.212,10.72,1.576,21.585,1.681,32.396
		c0.389,36.059-0.246,72.154,0.908,108.187c1.142,35.991,3.705,71.956,6.097,107.887c3.418,51.389,6.884,102.77,11.047,154.078
		c3.071,37.954,7.275,75.797,11.035,113.683c0.127,1.288,0.909,2.501,1.985,5.293c0.895-3.371,1.449-5.233,1.893-7.12
		c2.539-10.794,6.583-15.208,16.114-16.3c11.888-1.365,23.839-2.065,35.727-3.44c6.634-0.769,13.162-2.55,19.789-3.465
		c5.92-0.818,9.395-3.438,10.604-10.316c0.848-4.84,3.635-9.277,5.454-13.657c33.71,4.866,66.54,1.886,99.321,0.315
		c47.301-2.262,94.606-4.813,141.825-8.396c40.026-3.047,79.949-7.587,119.896-11.77c44.221-4.628,88.385-9.875,132.629-14.313
		c29.039-2.926,58.211-4.388,87.234-7.46c28.986-3.072,57.875-7.331,86.812-11.078c1.424-0.18,2.832-0.479,4.256-0.684
		c16.186-2.38,18.031-1.363,26.111,14.945c3.799-0.298,7.922-0.632,13.621-1.083c-0.889-14.457-1.646-28.164-2.619-41.848
		c-0.811-11.171-2.377-22.317-2.756-33.507c-1.971-57.688-4.053-115.373-5.342-173.075c-1.133-50.482-1.758-101-1.625-151.491
		c0.062-20.543,2.805-41.061,4.166-61.612c0.33-5.003,0.055-10.063,0.055-16.131c-6.773,0-12.902-0.701-18.846,0.128
		c-32.176,4.438-64.322,9.2-96.473,13.979c-33.133,4.933-66.264,9.833-99.355,15.039c-36.881,5.794-73.646,12.579-110.594,17.787
		c-65.898,9.267-131.916,17.613-197.868,26.448c-28.005,3.756-55.959,7.989-83.978,11.599c-25.188,3.242-50.451,5.599-75.618,8.917
		c-31.771,4.175-63.494,8.836-95.19,13.563c-4.172,0.623-8.201,2.713-12.191,4.412c-15.83,6.751-26.735-10.488-25.004-23.506
		c0.801-5.989,1.237-12.05,1.585-18.101c0.505-8.535,3.886-13.169,11.897-14.919c3.721-0.811,7.621-0.657,11.428-1.076
		c28.057-3.072,56.116-6.188,84.191-9.26c20.458-2.243,40.934-4.318,61.387-6.715c29.918-3.519,59.812-7.394,89.754-10.859
		c27.983-3.259,56.045-5.888,84.021-9.353c33.227-4.133,66.422-8.664,99.583-13.452c22.25-3.21,44.42-7.067,66.598-10.84
		c19.834-3.36,39.621-7.084,59.447-10.514c36.273-6.298,72.635-12.094,108.828-18.828c24.877-4.632,49.459-11.02,74.328-15.688
		c20.246-3.779,40.725-6.109,61.086-9.191c7.076-1.066,14.098-3.012,21.197-3.403c3.23-0.181,7.961,1.366,9.639,3.942
		c4.623,7.047,8.146,14.952,11.793,22.693c4.189,8.876,6.047,18.136,5.207,28.353c-2.381,29.205-4.746,58.429-5.998,87.702
		c-1.24,28.822-1.131,57.696-1.543,86.561c-0.145,10.232-0.262,20.484-0.039,30.706c0.809,38.585,1.172,77.197,2.777,115.749
		c2.248,53.505,4.426,107.06,8.619,160.394c3.057,38.928,5.586,78.315,18.869,115.39c3.227,9.014,7.875,17.445,11.84,26.16
		c6.277,13.802,1.037,25.579-12.941,26.9c-16.785,1.598-29.34-0.203-35.473-22.438c-6.246-22.615-11.23-45.635-16.707-68.5
		c-0.824-3.466-1.363-7.016-2.615-13.553c-22.682,0.829-44.416,1.621-65.604,2.396"/>
</g>
</svg>
