<?xml version="1.0" encoding="utf-8"?>
<!-- Generator: Adobe Illustrator 16.0.1, SVG Export Plug-In . SVG Version: 6.00 Build 0)  -->
<!DOCTYPE svg PUBLIC "-//W3C//DTD SVG 1.1//EN" "http://www.w3.org/Graphics/SVG/1.1/DTD/svg11.dtd">
<svg version="1.1"
	 id="Layer_1" xmlns:dc="http://purl.org/dc/elements/1.1/" xmlns:cc="http://creativecommons.org/ns#" xmlns:rdf="http://www.w3.org/1999/02/22-rdf-syntax-ns#" xmlns:svg="http://www.w3.org/2000/svg"
	 xmlns="http://www.w3.org/2000/svg" xmlns:xlink="http://www.w3.org/1999/xlink" x="0px" y="0px" width="960.251px"
	 height="705.249px" viewBox="7654.975 2424.401 960.251 705.249" enable-background="new 7654.975 2424.401 960.251 705.249"
	 xml:space="preserve">
<g id="g1261">
	<path id="path1263" stroke="#000000" stroke-width="0.25" stroke-miterlimit="10" d="M7681.716,2948.166
		c4.394-135.152-19.771-442.742-26.358-467.598c-6.59-24.855,115.174-21.283,115.174-21.283c27.764-2.289,55.523-4.369,83.308-4.902
		c27.78-1.787,55.583-3.5,83.388-4.221c27.235-1.385,54.474-2.818,81.711-3.869c27.217-0.615,54.473-2.291,81.709-3.733
		c27.236-0.851,54.475-1.82,81.73-3.343c27.238-0.784,54.494-2.489,81.751-3.739c22.027-0.105,44.055-0.793,66.102-2.429
		c22.049-0.877,44.096-1.92,66.145-2.448c22.049-0.843,44.098-2.248,66.143-2.478c22.051-0.145,44.097-1.356,66.144-1.94
		c15.164-0.543,30.508,0.186,45.492-1.357c20.43-1.414,29.477,1.8,30.145,17.992c0.684,15.629,1.555,32.187,2.484,48.777
		c0.926,15.741,1.914,33.227,2.883,48.764c0.973,17.392,1.922,32.92,2.77,49.127c0.824,16.213,1.555,32.305,2.078,48.404
		c0.789,24.225,0.664,48.041,0.324,71.83c-0.363,23.952-0.949,47.914-1.07,71.858c-0.141,35.918,0.059,71.824,0.141,107.721
		c0.141,61.879-0.523,123.757,0.988,185.636c0.406,17.057-7.996,21.041-30.789,21.875c-63.66,2.325-127.118,7.354-190.739,10.243
		c-51.627,2.365-103.455,2.55-155.064,4.826c-79.448,3.5-158.715,8.57-238.146,11.896c-59.057,2.457-118.482,1.403-177.394,5.077
		c-191.571,11.947-142.429-138.295-141.05-180.686H7681.716z M7778.244,2863.832c40.1-1.205,80.195-4.186,120.295-5.232
		c40.1-1.541,80.195-2.914,120.314-4.59c43.61-0.709,87.242-2.736,130.871-3.635c43.634-1.352,87.265-2.85,130.897-3.734
		c29.74-0.957,59.48-1.771,89.199-3.903c29.721-0.666,59.42-4.007,89.08-5.232c40.04-2.735,79.794-7.006,118.841-10.86
		c0-19.859,0-39.146,0-58.093c0-19.256,0-38.307,0-58.729c-26.188,1.153-52.133,2.219-77.953,3.323
		c-25.804,1.113-51.468,2.527-77.007,3.584c-25.561,0.216-51.002,1.664-76.402,3.363c-25.398,1.199-50.736,1.627-76.076,3.541
		c-23.219,0.885-46.418,1.229-69.637,3.084c-23.2,0.855-46.396,1.842-69.617,3.855c-23.199,0.678-46.418,1.836-69.64,2.983
		c-23.195,0.705-46.416,2.177-69.655,2.722c-38.301,0.741-76.985-5.679-115.487-6.119c-34.931,0.129-69.797,5.518-104.769,7.488
		 M8498.598,2687.852c42.885,2.162,64.832,2.582,75.674-2.593c10.84-5.325,10.561-16.112,9.004-36.676
		c-2.219-29.545-4.1-58.356-5.793-87.543c-1.717-29.022-3.23-58.646-4.748-87.557c-0.502-11.06-1.531-19.22-20.773-18.375
		c-26.592,0.344-53.201,0.643-79.793,0.983c-26.611,0.408-53.223,0.207-79.832,1.267c-26.611,0.342-53.203,1.35-79.793,1.405
		c-26.592,0.677-53.16,1.156-79.713,2.562c-28.83,0.914-57.643,2.025-86.434,4.084c-28.812,1.42-57.584,4.262-86.355,5.275
		c-28.792,1.479-57.562,3.977-86.333,5.598c-28.771,1.541-57.544,3.211-86.333,5.326c-26.027,2.176-52.052,2.598-78.098,4.34
		c-26.047,0.621-52.092,2.807-78.139,3.707c-20.756,0.883-25.885,9-22.412,21.166c4.1,15.68,9.43,31.264,11.062,45.486
		c2.402,21.196,4.543,43.83,6.48,66.239c1.92,22.66,3.596,43.908,5.089,66.306c1.09,16.231,8.763,22.297,33.051,21.541
		c26.086-0.521,52.214-0.994,78.358-0.808c26.127-0.604,52.273,0.525,78.381-0.559c30.83-0.33,61.641-1.984,92.472-2.312
		c30.831-1.051,61.642-2.293,92.452-2.541c30.811-1.395,61.643-1.428,92.452-2.543c30.811-1.162,61.621-2.155,92.412-3.36
		c39.289-0.873,78.541-3.086,114.299-5.3C8441.015,2690.355,8473.277,2689.128,8498.598,2687.852L8498.598,2687.852z
		 M7718.762,2894.875c2.062,7.832,4.101,12.355,4.303,16.928c2.584,58.965,5.269,117.938,7.023,176.902
		c0.402,13.93,6.18,19.127,27.154,16.793c34.487-3.82,69.295-6.514,104.104-8.168c69.98-3.326,140.041-5.912,210.102-8.275
		c41.773-1.422,83.791-0.526,125.426-2.912c116.881-6.67,233.521-14.871,350.404-21.512c22.531-1.285,28.891-7.402,28.348-22.52
		c-1.07-28.187,0-56.418,0.684-84.633c0.746-29.509,2.242-59.043,3.031-88.558c0.258-9.996-0.828-19.612-21.422-17.278
		c-32.508,3.664-64.912,7.646-97.643,10.202c-35.172,1.729-70.363,3.355-105.574,5.369c-35.213,1.656-70.445,3.086-105.676,3.938
		c-42.502,1.529-85.023,2.072-127.564,2.673c-42.521,1.112-85.043,1.354-127.562,2.52c-25.338,0.343-50.678,1.673-75.997,2.802
		c-25.319,1.312-50.597,2.246-75.834,4.274c-40.199,2.104-80.116,7.676-123.304,11.451v0.003H7718.762z"/>
	<path id="path1265" fill="#FFFFFF" d="M7727.568,2737.646c36.875-2.568,73.643-7.029,110.477-7.486
		c40.602-0.066,81.395,7.332,121.781,6.117c24.506-0.771,48.992-1.941,73.453-2.586c24.483-1.213,48.97-1.877,73.432-3.117
		c24.484-1.258,48.945-2.801,73.411-3.637c24.484-1.576,48.947-3.189,73.431-3.306c26.719-0.827,53.438-2.319,80.223-3.428
		c26.783-1.799,53.609-2.764,80.564-3.478c26.932-1.442,53.992-2.205,81.201-3.391c27.23-1.193,54.59-2.395,82.203-3.521
		c0,20.082,0,39.787,0,58.73c0,19.447,0,38.23,0,58.092c-41.176,3.291-83.098,8.855-125.316,10.861
		c-31.277,2.24-62.594,3.482-93.934,5.232c-31.34,1.705-62.701,2.646-94.062,3.903c-46.01,1.498-92.019,2.906-138.028,3.734
		c-46.008,1.041-92.017,1.885-138.004,3.635c-42.306,2.004-84.588,2.988-126.871,4.59c-42.283,2.05-84.564,3.113-126.85,5.232"/>
	<path id="path1267" fill="#9E313A" d="M8498.598,2687.852c-25.318,0.825-57.582,3.489-93.359,5.125
		c-35.758,1.862-75.01,3.612-114.299,5.299c-30.791,1.611-61.602,1.842-92.412,3.133c-30.811,0.793-61.641,1.75-92.452,2.771
		c-30.812,0.149-61.621,2.141-92.452,2.526c-30.831,0.834-61.643,1.722-92.473,2.328c-26.104,0.949-52.252,1.146-78.381,0.557
		c-26.146-1.028-52.271,0.687-78.357,0.808c-24.288,1.319-31.961-5.162-33.051-21.541c-1.494-21.683-3.169-43.188-5.089-66.306
		c-1.938-21.61-4.078-44.123-6.481-66.239c-1.635-13.474-6.965-30.394-11.062-45.486c-3.474-13.699,1.655-20.754,22.412-21.166
		c26.045-1.33,52.091-2.486,78.138-3.707c26.047-0.92,52.069-2.449,78.099-4.34c28.789-0.81,57.562-2.515,86.333-5.084
		c28.771-2.558,57.541-4.611,86.333-5.841c28.772-0.85,57.544-3.776,86.356-4.92c28.789-1.584,57.603-3.342,86.433-4.438
		c26.553,0.215,53.121-1.814,79.713-2.441c26.59-1.35,53.182-1.135,79.793-1.527c26.609-0.612,53.221,0.318,79.832-0.844
		c26.593-0.731,53.202-1.051,79.792-1.406c19.242-0.43,20.273,8.744,20.773,18.375c1.52,29.523,3.031,59.031,4.75,87.558
		c1.691,29.062,3.574,57.928,5.793,87.543c1.555,20.522,1.836,32.049-9.004,36.676
		C8563.43,2690.576,8541.482,2690.271,8498.598,2687.852L8498.598,2687.852z"/>
	<path id="path1269" fill="#9E313A" d="M7718.762,2894.875c43.188-3.348,83.104-8.818,123.306-11.451
		c25.237-1.492,50.517-2.992,75.834-4.274c25.317-1.373,50.659-2.259,75.997-2.802c42.521-1.562,85.042-1.434,127.562-2.52
		c42.541-0.701,85.062-2.008,127.564-2.672c35.23-0.906,70.463-2.111,105.676-3.939c35.211-1.94,70.402-3.062,105.574-5.369
		c32.73-2.42,65.137-6.539,97.643-10.202c20.594-2.334,21.682,7.282,21.422,17.278c-0.789,29.515-2.283,59.05-3.029,88.558
		c-0.686,28.215-1.756,56.446-0.686,84.633c0.545,15.115-5.816,21.231-28.348,22.521c-116.883,6.641-233.523,14.842-350.404,21.512
		c-41.634,2.385-83.65,1.49-125.425,2.912c-70.06,2.363-140.12,4.949-210.101,8.272c-34.811,1.656-69.615,4.351-104.104,8.168
		c-20.979,2.334-26.752-2.86-27.153-16.791c-1.758-58.967-4.441-117.938-7.025-176.901
		C7722.861,2907.232,7720.822,2902.707,7718.762,2894.875L7718.762,2894.875z"/>
</g>
</svg>
