<?xml version="1.0" encoding="utf-8"?>
<!-- Generator: Adobe Illustrator 16.0.1, SVG Export Plug-In . SVG Version: 6.00 Build 0)  -->
<!DOCTYPE svg PUBLIC "-//W3C//DTD SVG 1.1//EN" "http://www.w3.org/Graphics/SVG/1.1/DTD/svg11.dtd">
<svg version="1.1"
	 id="Layer_1" xmlns:dc="http://purl.org/dc/elements/1.1/" xmlns:cc="http://creativecommons.org/ns#" xmlns:rdf="http://www.w3.org/1999/02/22-rdf-syntax-ns#" xmlns:svg="http://www.w3.org/2000/svg"
	 xmlns="http://www.w3.org/2000/svg" xmlns:xlink="http://www.w3.org/1999/xlink" x="0px" y="0px" width="959.999px"
	 height="704.998px" viewBox="3393.193 -6775.047 959.999 704.998" enable-background="new 3393.193 -6775.047 959.999 704.998"
	 xml:space="preserve">
<g id="g815">
	<path id="path817" d="M3428.84-6678.646c-2.548-0.703-3.463-1.207-4.356-1.17c-19.402,0.809-25.39-4.031-30.314-24.605
		c-3.071-12.83,1.074-21.123,12.868-23.25c29-5.234,58.077-9.91,87.138-14.711c22.404-3.701,44.789-7.725,67.265-10.738
		c24.304-3.248,48.675-5.893,73.062-8.078c42.51-3.812,85.002-8.57,127.597-10.205c61.534-2.361,123.155-2.379,184.731-3.201
		c25.124-0.334,50.271-0.773,75.378-0.059c43.558,1.242,87.103,3.547,130.66,4.898c7.389,0.229,15.002-1.297,22.201-3.393
		c8.072-2.357,15.233-1.621,23.469,0.521c14.603,3.801,29.826,4.961,44.847,6.045c6.91,0.494,13.351,0.111,17.347,7.809
		c5.261,10.141,11.733,20.041,8.487,32.848c-2.177,8.611-8.981,12.688-17.873,11.641c-7.937-0.939-15.858-1.818-24.586-2.811
		c-0.545,4.512-1.588,7.645-1.162,10.49c11.104,73.299,10.897,147.486,14.492,221.418c3.015,62.125,6.746,124.393,18.881,185.451
		c4.261,21.457,8.01,43.047,11.922,64.592c1.394,7.662,4.737,13.502,10.06,18.756c9.592,9.475,15.211,21.463,14.49,36.547
		c-1.289,27.072-0.621,34.969,29.967,30.771c4.379-0.6,9.769,0.051,13.406,2.535c8.12,5.543,16.12,32.309,14.046,43.301
		c-1.996,10.557-10.901,18.158-19.847,14.885c-10.16-3.715-21.406-1.402-31.049-9.377c-4.201-3.471-11.945-1.5-18.095-1.885
		c-14.124-0.891-28.258-1.844-42.396-2.516c-22.205-1.053-44.414-1.924-66.635-2.828c-46.865-1.904-93.729-5.104-140.609-5.326
		c-53.482-0.254-107.016,1.176-160.454,3.711c-40.161,1.904-80.236,6.51-120.319,10.297c-35.883,3.387-71.766,6.951-107.588,11.113
		c-24.491,2.836-48.846,7.121-73.328,10.158c-11.655,1.451-23.465,1.316-35.2,2.246c-8.42,0.666-16.806,2.648-25.215,2.715
		c-16.703,0.133-21.724-5.061-26.099-22.709c-9.742-39.303-18.451-78.834-22.578-119.477c-1.684-16.521-3.039-33.078-4.481-49.629
		c-0.231-2.662-0.019-5.375-0.17-8.055c-3.179-52.428-6.491-104.842-9.515-157.281c-2.686-46.559-4.405-93.193-7.711-139.695
		c-2.395-33.666-6.629-67.164-10.172-100.721C3431.025-6671.242,3429.768-6674.744,3428.84-6678.646L3428.84-6678.646z
		 M4244.059-6153.341c-0.555-4.941-0.649-8.084-1.289-11.078c-6.737-31.283-14.883-62.273-20.082-93.881
		c-9.199-55.918-18.396-111.895-21.172-168.922c-2.647-54.086-6.099-108.117-9.265-162.166
		c-2.356-40.148-3.383-80.469-13.04-119.627c-3.657-14.836-5.38-16.984-19.352-17.785c-10.402-0.6-20.838-0.426-31.246-1.047
		c-31.188-1.857-62.354-5.076-93.565-5.668c-51.608-0.971-103.249-0.598-154.869-0.221c-36.454,0.264-72.909,1.184-109.348,2.359
		c-23.663,0.764-47.385,1.576-70.938,4.057c-31.101,3.271-62.114,7.738-93.07,12.512c-39.854,6.141-79.62,12.98-119.396,19.76
		c-11.803,2.012-12.562,3.709-10.957,16.768c0.648,5.309,1.17,10.658,1.485,16.008c1.494,25.146,2.919,50.297,4.347,75.449
		c2.436,42.814,5.057,85.617,7.217,128.447c1.494,29.467,1.727,59.031,3.64,88.451c3.2,49.189,6.71,98.369,11.307,147.406
		c1.81,19.324,3.123,39.385,16.456,55.205c3.986,4.738,4.107,13.818,5.604,21.01c1.03,4.971,1.373,10.123,1.952,14.639
		c9.259,0.846,16.787,2.346,24.271,2.076c24.583-0.887,49.168-2.012,73.711-3.789c39.666-2.857,79.278-6.449,118.937-9.473
		c40.151-3.064,80.295-6.762,120.51-8.473c55.402-2.354,110.856-3.549,166.297-4.396c39.312-0.6,78.654-0.141,117.979,0.492
		c26.516,0.432,53.014,2.057,79.527,2.955C4234.221-6152.117,4238.747-6152.917,4244.059-6153.341L4244.059-6153.341z"/>
	<g id="g819">
		<g>
			<g>
				<defs>
					<path id="SVGID_1_" d="M4244.059-6153.341c-5.312,0.422-9.838,1.225-14.354,1.068c-26.518-0.898-53.014-2.523-79.527-2.953
						c-39.324-0.633-78.666-1.094-117.979-0.494c-55.438,0.848-110.894,2.041-166.296,4.396
						c-40.215,1.711-80.357,5.408-120.51,8.473c-39.656,3.025-79.271,6.615-118.938,9.475c-24.543,1.777-49.128,2.9-73.711,3.787
						c-7.482,0.271-15.013-1.23-24.271-2.076c-0.58-4.516-0.923-9.666-1.953-14.639c-1.494-7.191-1.615-16.271-5.603-21.008
						c-13.334-15.822-14.647-35.881-16.457-55.207c-4.597-49.037-8.104-98.217-11.307-147.404
						c-1.913-29.422-2.145-58.984-3.639-88.451c-2.16-42.83-4.783-85.635-7.217-128.449c-1.428-25.15-2.854-50.303-4.348-75.449
						c-0.314-5.348-0.836-10.697-1.484-16.008c-1.604-13.057-0.846-14.756,10.957-16.768c39.774-6.779,79.541-13.617,119.396-19.76
						c30.956-4.773,61.972-9.24,93.071-12.512c23.553-2.48,47.273-3.291,70.938-4.055c36.438-1.176,72.895-2.096,109.349-2.359
						c51.62-0.379,103.26-0.75,154.868,0.221c31.213,0.59,62.381,3.809,93.565,5.668c10.409,0.619,20.845,0.445,31.246,1.045
						c13.972,0.801,15.692,2.949,19.353,17.785c9.656,39.16,10.684,79.479,13.039,119.629c3.166,54.049,6.615,108.08,9.265,162.166
						c2.774,57.025,11.974,113.004,21.172,168.92c5.199,31.607,13.345,62.6,20.083,93.883
						C4243.408-6161.425,4243.504-6158.285,4244.059-6153.341L4244.059-6153.341z"/>
				</defs>
				<clipPath id="SVGID_2_">
					<use xlink:href="#SVGID_1_"  overflow="visible"/>
				</clipPath>
				<g id="g827" clip-path="url(#SVGID_2_)">
					<polygon id="polygon829" fill="#FCB918" points="4271.557,-6774.417 3430.041,-6713.033 3441.945,-6503.66 4283.458,-6565.042 
						4283.458,-6565.042 					"/>
					<polygon id="polygon831" fill="#016B45" points="4283.479,-6564.712 3441.962,-6503.335 3453.875,-6293.96 4295.38,-6355.339 
						4295.38,-6355.339 					"/>
					<polygon id="polygon833" fill="#C1282D" points="4295.396,-6355.015 3453.891,-6293.636 3465.83,-6083.585 4307.344,-6144.97 
						4307.344,-6144.97 					"/>
					<path id="path835" fill="none" stroke="#000000" stroke-width="0.5" d="M4307.574-6145.314l-35.771-629.117l-841.761,61.398
						l35.771,629.117L4307.574-6145.314L4307.574-6145.314z"/>
				</g>
			</g>
		</g>
		<g>
			<g>
				<defs>
					<path id="SVGID_3_" d="M4244.059-6153.341c-5.312,0.422-9.838,1.225-14.354,1.068c-26.518-0.898-53.014-2.523-79.527-2.953
						c-39.324-0.633-78.666-1.094-117.979-0.494c-55.438,0.848-110.894,2.041-166.296,4.396
						c-40.215,1.711-80.357,5.408-120.51,8.473c-39.656,3.025-79.271,6.615-118.938,9.475c-24.543,1.777-49.128,2.9-73.711,3.787
						c-7.482,0.271-15.013-1.23-24.271-2.076c-0.58-4.516-0.923-9.666-1.953-14.639c-1.494-7.191-1.615-16.271-5.603-21.008
						c-13.334-15.822-14.647-35.881-16.457-55.207c-4.597-49.037-8.104-98.217-11.307-147.404
						c-1.913-29.422-2.145-58.984-3.639-88.451c-2.16-42.83-4.783-85.635-7.217-128.449c-1.428-25.15-2.854-50.303-4.348-75.449
						c-0.314-5.348-0.836-10.697-1.484-16.008c-1.604-13.057-0.846-14.756,10.957-16.768c39.774-6.779,79.541-13.617,119.396-19.76
						c30.956-4.773,61.972-9.24,93.071-12.512c23.553-2.48,47.273-3.291,70.938-4.055c36.438-1.176,72.895-2.096,109.349-2.359
						c51.62-0.379,103.26-0.75,154.868,0.221c31.213,0.59,62.381,3.809,93.565,5.668c10.409,0.619,20.845,0.445,31.246,1.045
						c13.972,0.801,15.692,2.949,19.353,17.785c9.656,39.16,10.684,79.479,13.039,119.629c3.166,54.049,6.615,108.08,9.265,162.166
						c2.774,57.025,11.974,113.004,21.172,168.92c5.199,31.607,13.345,62.6,20.083,93.883
						C4243.408-6161.425,4243.504-6158.285,4244.059-6153.341L4244.059-6153.341z"/>
				</defs>
				<clipPath id="SVGID_4_">
					<use xlink:href="#SVGID_3_"  overflow="visible"/>
				</clipPath>
				<path id="path837" clip-path="url(#SVGID_4_)" d="M4266.271-6544.224c-33.64,1.883-67.217,3.908-100.811,5.93
					c-34.609,2.09-69.236,4.168-103.806,6.383c-38.546,2.467-76.955,5.363-115.57,7.564c-68.846,3.922-137.81,7.441-206.715,11.182
					c-29.263,1.58-58.477,3.385-87.75,4.9c-26.317,1.369-52.724,2.352-79.015,3.75c-33.192,1.766-66.334,3.738-99.448,5.75
					c-4.373,0.262-8.574,1.176-12.74,1.908c-16.55,2.928-27.926-4.666-26.098-10.371c0.837-2.627,1.28-5.287,1.655-7.941
					c0.527-3.742,4.063-5.77,12.436-6.523c3.893-0.348,7.966-0.271,11.938-0.443c29.326-1.289,58.647-2.6,87.957-3.885
					c21.384-0.938,42.78-1.805,64.146-2.809c31.271-1.482,62.501-3.115,93.778-4.576c29.249-1.363,58.564-2.455,87.784-3.922
					c34.732-1.74,69.408-3.65,104.055-5.684c23.253-1.357,46.41-3.008,69.588-4.605c20.731-1.438,41.396-3.027,62.105-4.494
					c37.904-2.68,75.891-5.145,113.721-8.027c25.984-1.979,51.67-4.725,77.654-6.717c21.162-1.621,42.545-2.594,63.843-3.902"/>
			</g>
		</g>
		<g>
			<g>
				<defs>
					<path id="SVGID_5_" d="M4244.059-6153.341c-5.312,0.422-9.838,1.225-14.354,1.068c-26.518-0.898-53.014-2.523-79.527-2.953
						c-39.324-0.633-78.666-1.094-117.979-0.494c-55.438,0.848-110.894,2.041-166.296,4.396
						c-40.215,1.711-80.357,5.408-120.51,8.473c-39.656,3.025-79.271,6.615-118.938,9.475c-24.543,1.777-49.128,2.9-73.711,3.787
						c-7.482,0.271-15.013-1.23-24.271-2.076c-0.58-4.516-0.923-9.666-1.953-14.639c-1.494-7.191-1.615-16.271-5.603-21.008
						c-13.334-15.822-14.647-35.881-16.457-55.207c-4.597-49.037-8.104-98.217-11.307-147.404
						c-1.913-29.422-2.145-58.984-3.639-88.451c-2.16-42.83-4.783-85.635-7.217-128.449c-1.428-25.15-2.854-50.303-4.348-75.449
						c-0.314-5.348-0.836-10.697-1.484-16.008c-1.604-13.057-0.846-14.756,10.957-16.768c39.774-6.779,79.541-13.617,119.396-19.76
						c30.956-4.773,61.972-9.24,93.071-12.512c23.553-2.48,47.273-3.291,70.938-4.055c36.438-1.176,72.895-2.096,109.349-2.359
						c51.62-0.379,103.26-0.75,154.868,0.221c31.213,0.59,62.381,3.809,93.565,5.668c10.409,0.619,20.845,0.445,31.246,1.045
						c13.972,0.801,15.692,2.949,19.353,17.785c9.656,39.16,10.684,79.479,13.039,119.629c3.166,54.049,6.615,108.08,9.265,162.166
						c2.774,57.025,11.974,113.004,21.172,168.92c5.199,31.607,13.345,62.6,20.083,93.883
						C4243.408-6161.425,4243.504-6158.285,4244.059-6153.341L4244.059-6153.341z"/>
				</defs>
				<clipPath id="SVGID_6_">
					<use xlink:href="#SVGID_5_"  overflow="visible"/>
				</clipPath>
				<path id="path839" clip-path="url(#SVGID_6_)" d="M4266.271-6338.705c-33.64,1.881-67.217,3.904-100.811,5.93
					c-34.609,2.088-69.236,4.17-103.806,6.379c-38.546,2.465-76.955,5.369-115.57,7.562c-68.846,3.926-137.81,7.447-206.715,11.184
					c-29.263,1.584-58.477,3.387-87.75,4.9c-26.317,1.373-52.724,2.354-79.015,3.752c-33.192,1.766-66.334,3.74-99.448,5.746
					c-4.373,0.266-8.574,1.176-12.74,1.91c-16.55,2.93-27.926-4.66-26.098-10.369c0.837-2.625,1.28-5.285,1.655-7.939
					c0.527-3.744,4.063-5.775,12.436-6.525c3.893-0.346,7.966-0.271,11.938-0.443c29.326-1.293,58.647-2.596,87.957-3.885
					c21.384-0.943,42.78-1.809,64.146-2.811c31.271-1.477,62.501-3.111,93.778-4.57c29.249-1.369,58.564-2.459,87.784-3.93
					c34.732-1.736,69.408-3.646,104.055-5.676c23.253-1.363,46.41-3.008,69.588-4.613c20.731-1.432,41.396-3.029,62.105-4.488
					c37.904-2.684,75.891-5.15,113.721-8.027c25.984-1.979,51.67-4.727,77.654-6.719c21.162-1.621,42.545-2.596,63.843-3.902"/>
			</g>
		</g>
	</g>
</g>
</svg>
