<?xml version="1.0" encoding="utf-8"?>
<!-- Generator: Adobe Illustrator 16.0.1, SVG Export Plug-In . SVG Version: 6.00 Build 0)  -->
<!DOCTYPE svg PUBLIC "-//W3C//DTD SVG 1.1//EN" "http://www.w3.org/Graphics/SVG/1.1/DTD/svg11.dtd">
<svg version="1.1" id="Layer_1" xmlns="http://www.w3.org/2000/svg" xmlns:xlink="http://www.w3.org/1999/xlink" x="0px" y="0px"
	 width="960px" height="705px" viewBox="0 0 960 705" enable-background="new 0 0 960 705" xml:space="preserve">
<g>
	<path d="M35.648,96.4c-2.547-0.696-3.462-1.199-4.357-1.161C11.889,96.042,5.903,91.197,0.977,70.633
		c-3.073-12.835,1.074-21.122,12.868-23.249c29-5.244,58.077-9.916,87.138-14.721c22.404-3.697,44.789-7.721,67.264-10.737
		c24.303-3.251,48.674-5.89,73.062-8.074c42.51-3.812,85.001-8.572,127.597-10.206c61.534-2.359,123.154-2.378,184.73-3.2
		c25.124-0.338,50.272-0.775,75.378-0.06c43.559,1.249,87.103,3.552,130.661,4.905c7.389,0.221,15.002-1.298,22.201-3.405
		c8.071-2.349,15.234-1.616,23.468,0.522c14.604,3.812,29.828,4.972,44.849,6.054c6.908,0.495,13.349,0.106,17.344,7.806
		c5.261,10.146,11.735,20.04,8.489,32.847c-2.178,8.616-8.982,12.688-17.873,11.636c-7.937-0.93-15.859-1.819-24.586-2.805
		c-0.545,4.506-1.588,7.639-1.162,10.483c11.103,73.305,10.897,147.498,14.492,221.429c3.014,62.114,6.745,124.382,18.881,185.45
		c4.26,21.453,8.009,43.042,11.921,64.592c1.394,7.657,4.738,13.502,10.06,18.753c9.591,9.469,15.21,21.464,14.49,36.552
		c-1.288,27.062-0.621,34.963,29.967,30.766c4.379-0.601,9.769,0.047,13.406,2.533c8.121,5.543,16.121,32.314,14.046,43.302
		c-1.996,10.562-10.902,18.163-19.845,14.886c-10.162-3.716-21.408-1.403-31.049-9.372c-4.201-3.481-11.947-1.509-18.096-1.896
		c-14.124-0.89-28.258-1.839-42.396-2.513c-22.205-1.045-44.415-1.919-66.633-2.826c-46.867-1.904-93.729-5.104-140.611-5.319
		c-53.481-0.261-107.014,1.17-160.454,3.704c-40.161,1.904-80.235,6.511-120.318,10.302c-35.884,3.387-71.767,6.942-107.588,11.104
		c-24.491,2.844-48.846,7.127-73.328,10.164c-11.656,1.453-23.465,1.314-35.2,2.246c-8.42,0.666-16.806,2.647-25.216,2.716
		c-16.702,0.136-21.723-5.067-26.098-22.71c-9.742-39.307-18.451-78.834-22.577-119.477c-1.683-16.519-3.04-33.078-4.482-49.629
		c-0.233-2.668-0.018-5.376-0.171-8.055c-3.178-52.433-6.492-104.836-9.514-157.276c-2.684-46.562-4.406-93.198-7.711-139.701
		c-2.394-33.658-6.629-67.162-10.171-100.725C37.833,103.808,36.577,100.306,35.648,96.4z M850.867,621.704
		c-0.555-4.936-0.65-8.087-1.289-11.075c-6.737-31.288-14.883-62.277-20.083-93.887c-9.198-55.912-18.396-111.883-21.171-168.91
		c-2.647-54.086-6.099-108.122-9.265-162.17c-2.356-40.146-3.383-80.47-13.04-119.633c-3.656-14.837-5.38-16.982-19.352-17.775
		c-10.402-0.6-20.837-0.426-31.246-1.044c-31.186-1.859-62.353-5.09-93.563-5.668c-51.611-0.979-103.25-0.6-154.87-0.233
		c-36.455,0.271-72.91,1.188-109.349,2.36c-23.663,0.773-47.385,1.585-70.938,4.062c-31.1,3.268-62.115,7.736-93.071,12.515
		c-39.854,6.131-79.62,12.98-119.396,19.752c-11.803,2.011-12.562,3.712-10.957,16.771c0.648,5.309,1.169,10.657,1.485,16.007
		c1.494,25.146,2.919,50.304,4.346,75.449c2.435,42.81,5.057,85.619,7.217,128.446c1.494,29.469,1.726,59.034,3.639,88.458
		c3.201,49.182,6.71,98.363,11.307,147.398c1.809,19.325,3.123,39.386,16.456,55.208c3.986,4.74,4.107,13.812,5.602,21.009
		c1.031,4.971,1.373,10.117,1.953,14.643c9.259,0.842,16.787,2.342,24.271,2.071c24.583-0.89,49.168-2.013,73.711-3.794
		c39.666-2.853,79.279-6.438,118.936-9.469c40.152-3.064,80.295-6.761,120.51-8.472c55.403-2.35,110.857-3.55,166.296-4.4
		c39.313-0.602,78.655-0.134,117.979,0.503c26.515,0.426,53.012,2.05,79.527,2.949C841.03,622.932,845.558,622.127,850.867,621.704z
		"/>
	<g>
		<g>
			<defs>
				<path id="SVGID_1_" d="M850.867,621.704c-5.311,0.423-9.837,1.228-14.354,1.071c-26.517-0.899-53.014-2.523-79.527-2.949
					c-39.324-0.637-78.666-1.104-117.979-0.503c-55.438,0.852-110.893,2.052-166.296,4.4c-40.215,1.711-80.357,5.406-120.51,8.472
					c-39.656,3.029-79.27,6.617-118.936,9.469c-24.543,1.781-49.128,2.904-73.711,3.794c-7.484,0.271-15.013-1.229-24.271-2.071
					c-0.58-4.524-0.922-9.672-1.953-14.643c-1.494-7.195-1.615-16.269-5.602-21.009c-13.333-15.822-14.647-35.882-16.456-55.208
					c-4.597-49.035-8.105-98.218-11.307-147.398c-1.913-29.424-2.145-58.989-3.639-88.458c-2.16-42.827-4.782-85.637-7.217-128.446
					c-1.427-25.146-2.852-50.303-4.346-75.449c-0.316-5.35-0.837-10.698-1.485-16.007c-1.605-13.059-0.846-14.76,10.957-16.771
					c39.775-6.771,79.541-13.621,119.396-19.752c30.956-4.778,61.972-9.247,93.071-12.515c23.553-2.478,47.273-3.289,70.938-4.062
					c36.438-1.172,72.894-2.09,109.349-2.36c51.619-0.366,103.259-0.745,154.869,0.233c31.213,0.578,62.38,3.809,93.564,5.668
					c10.409,0.618,20.844,0.444,31.246,1.044c13.972,0.793,15.694,2.938,19.352,17.775c9.657,39.163,10.684,79.486,13.04,119.633
					c3.166,54.048,6.616,108.084,9.265,162.17c2.774,57.027,11.973,112.998,21.171,168.91c5.2,31.609,13.346,62.599,20.083,93.887
					C850.217,613.617,850.312,616.77,850.867,621.704z"/>
			</defs>
			<clipPath id="SVGID_2_">
				<use xlink:href="#SVGID_1_"  overflow="visible"/>
			</clipPath>
			<g clip-path="url(#SVGID_2_)">
				<polygon fill="#ED1C24" points="890.268,210.008 878.365,0.63 36.851,62.017 48.754,271.386 				"/>
				<polygon fill="#FFFFFF" points="902.189,419.714 890.286,210.337 48.771,271.713 60.685,481.094 				"/>
				<polygon fill="#008FD5" points="914.153,630.078 902.205,420.032 60.7,481.412 72.64,691.457 				"/>
				<path fill="none" stroke="#000000" stroke-width="0.5" d="M914.383,629.73L878.611,0.618L36.851,62.017l35.771,629.11
					L914.383,629.73L914.383,629.73z"/>
			</g>
		</g>
		<g>
			<defs>
				<path id="SVGID_3_" d="M850.867,621.704c-5.311,0.423-9.837,1.228-14.354,1.071c-26.517-0.899-53.014-2.523-79.527-2.949
					c-39.324-0.637-78.666-1.104-117.979-0.503c-55.438,0.852-110.893,2.052-166.296,4.4c-40.215,1.711-80.357,5.406-120.51,8.472
					c-39.656,3.029-79.27,6.617-118.936,9.469c-24.543,1.781-49.128,2.904-73.711,3.794c-7.484,0.271-15.013-1.229-24.271-2.071
					c-0.58-4.524-0.922-9.672-1.953-14.643c-1.494-7.195-1.615-16.269-5.602-21.009c-13.333-15.822-14.647-35.882-16.456-55.208
					c-4.597-49.035-8.105-98.218-11.307-147.398c-1.913-29.424-2.145-58.989-3.639-88.458c-2.16-42.827-4.782-85.637-7.217-128.446
					c-1.427-25.146-2.852-50.303-4.346-75.449c-0.316-5.35-0.837-10.698-1.485-16.007c-1.605-13.059-0.846-14.76,10.957-16.771
					c39.775-6.771,79.541-13.621,119.396-19.752c30.956-4.778,61.972-9.247,93.071-12.515c23.553-2.478,47.273-3.289,70.938-4.062
					c36.438-1.172,72.894-2.09,109.349-2.36c51.619-0.366,103.259-0.745,154.869,0.233c31.213,0.578,62.38,3.809,93.564,5.668
					c10.409,0.618,20.844,0.444,31.246,1.044c13.972,0.793,15.694,2.938,19.352,17.775c9.657,39.163,10.684,79.486,13.04,119.633
					c3.166,54.048,6.616,108.084,9.265,162.17c2.774,57.027,11.973,112.998,21.171,168.91c5.2,31.609,13.346,62.599,20.083,93.887
					C850.217,613.617,850.312,616.77,850.867,621.704z"/>
			</defs>
			<clipPath id="SVGID_4_">
				<use xlink:href="#SVGID_3_"  overflow="visible"/>
			</clipPath>
			<path clip-path="url(#SVGID_4_)" d="M873.079,230.823c-33.637,1.885-67.216,3.904-100.81,5.938
				c-34.609,2.087-69.236,4.157-103.806,6.383c-38.546,2.456-76.955,5.356-115.57,7.562c-68.846,3.918-137.809,7.437-206.715,11.183
				c-29.263,1.575-58.476,3.383-87.75,4.894c-26.317,1.374-52.722,2.359-79.014,3.753c-33.193,1.76-66.335,3.733-99.449,5.745
				c-4.373,0.271-8.574,1.179-12.74,1.916c-16.55,2.919-27.926-4.664-26.098-10.37c0.837-2.63,1.281-5.29,1.655-7.95
				c0.529-3.732,4.065-5.767,12.436-6.519c3.892-0.349,7.966-0.271,11.937-0.445c29.326-1.288,58.649-2.593,87.957-3.889
				c21.384-0.93,42.781-1.798,64.146-2.805c31.273-1.479,62.501-3.115,93.778-4.575c29.249-1.363,58.565-2.456,87.786-3.916
				c34.731-1.741,69.408-3.656,104.053-5.69c23.253-1.352,46.411-3.004,69.588-4.602c20.733-1.44,41.396-3.036,62.107-4.497
				c37.903-2.681,75.89-5.146,113.72-8.026c25.985-1.985,51.67-4.731,77.655-6.724c21.162-1.615,42.545-2.593,63.842-3.897"/>
		</g>
		<g>
			<defs>
				<path id="SVGID_5_" d="M850.867,621.704c-5.311,0.423-9.837,1.228-14.354,1.071c-26.517-0.899-53.014-2.523-79.527-2.949
					c-39.324-0.637-78.666-1.104-117.979-0.503c-55.438,0.852-110.893,2.052-166.296,4.4c-40.215,1.711-80.357,5.406-120.51,8.472
					c-39.656,3.029-79.27,6.617-118.936,9.469c-24.543,1.781-49.128,2.904-73.711,3.794c-7.484,0.271-15.013-1.229-24.271-2.071
					c-0.58-4.524-0.922-9.672-1.953-14.643c-1.494-7.195-1.615-16.269-5.602-21.009c-13.333-15.822-14.647-35.882-16.456-55.208
					c-4.597-49.035-8.105-98.218-11.307-147.398c-1.913-29.424-2.145-58.989-3.639-88.458c-2.16-42.827-4.782-85.637-7.217-128.446
					c-1.427-25.146-2.852-50.303-4.346-75.449c-0.316-5.35-0.837-10.698-1.485-16.007c-1.605-13.059-0.846-14.76,10.957-16.771
					c39.775-6.771,79.541-13.621,119.396-19.752c30.956-4.778,61.972-9.247,93.071-12.515c23.553-2.478,47.273-3.289,70.938-4.062
					c36.438-1.172,72.894-2.09,109.349-2.36c51.619-0.366,103.259-0.745,154.869,0.233c31.213,0.578,62.38,3.809,93.564,5.668
					c10.409,0.618,20.844,0.444,31.246,1.044c13.972,0.793,15.694,2.938,19.352,17.775c9.657,39.163,10.684,79.486,13.04,119.633
					c3.166,54.048,6.616,108.084,9.265,162.17c2.774,57.027,11.973,112.998,21.171,168.91c5.2,31.609,13.346,62.599,20.083,93.887
					C850.217,613.617,850.312,616.77,850.867,621.704z"/>
			</defs>
			<clipPath id="SVGID_6_">
				<use xlink:href="#SVGID_5_"  overflow="visible"/>
			</clipPath>
			<path clip-path="url(#SVGID_6_)" d="M873.079,436.351c-33.637,1.875-67.216,3.897-100.81,5.918
				c-34.609,2.09-69.236,4.18-103.806,6.387c-38.546,2.463-76.955,5.367-115.57,7.561c-68.846,3.926-137.809,7.449-206.715,11.185
				c-29.263,1.585-58.476,3.383-87.75,4.899c-26.317,1.375-52.722,2.353-79.014,3.754c-33.193,1.771-66.335,3.744-99.449,5.744
				c-4.373,0.264-8.574,1.172-12.74,1.908c-16.55,2.938-27.926-4.664-26.098-10.369c0.837-2.622,1.281-5.281,1.655-7.932
				c0.529-3.752,4.065-5.785,12.436-6.529c3.892-0.349,7.966-0.271,11.937-0.445c29.326-1.285,58.649-2.601,87.957-3.879
				c21.384-0.946,42.781-1.814,64.146-2.821c31.273-1.472,62.501-3.104,93.778-4.564c29.249-1.374,58.565-2.459,87.786-3.926
				c34.731-1.742,69.408-3.649,104.053-5.681c23.253-1.362,46.411-3.009,69.588-4.61c20.733-1.435,41.396-3.03,62.107-4.49
				c37.903-2.689,75.89-5.146,113.72-8.028c25.985-1.974,51.67-4.72,77.655-6.712c21.162-1.623,42.545-2.601,63.842-3.906"/>
		</g>
	</g>
</g>
</svg>
