<?xml version="1.0" encoding="utf-8"?>
<!-- Generator: Adobe Illustrator 16.0.1, SVG Export Plug-In . SVG Version: 6.00 Build 0)  -->
<!DOCTYPE svg PUBLIC "-//W3C//DTD SVG 1.1//EN" "http://www.w3.org/Graphics/SVG/1.1/DTD/svg11.dtd">
<svg version="1.1" id="Layer_1" xmlns="http://www.w3.org/2000/svg" xmlns:xlink="http://www.w3.org/1999/xlink" x="0px" y="0px"
	 width="959.25px" height="705.25px" viewBox="0 0 959.25 705.25" enable-background="new 0 0 959.25 705.25" xml:space="preserve">
<polygon fill="#FFFFFF" stroke="#000000" stroke-width="0.25" points="488.112,26.295 488.112,683.98 47.523,677.206 35.481,26.295 
	"/>
<rect x="488.112" y="26.295" fill="#ED1C2E" stroke="#000000" stroke-width="0.25" width="452.632" height="657.686"/>
<g>
	<path fill="#ED1C2E" d="M216.612,52.318v49.188c2.613,0.715,5.586,2.516,8.191,5.121s4.402,5.574,5.117,8.191h49.191v66.445
		h-49.191c-0.715,2.613-2.512,5.586-5.117,8.188c-2.605,2.609-5.578,4.406-8.191,5.125v49.188h-66.445v-49.188
		c-2.613-0.719-5.586-2.516-8.191-5.125c-2.605-2.605-4.406-5.574-5.125-8.188H87.667v-66.445h49.184
		c0.719-2.617,2.516-5.586,5.125-8.191c2.605-2.605,5.578-4.406,8.191-5.121V52.318H216.612z"/>
	<g>
		<rect x="211.491" y="57.475" fill="#A7B1B7" stroke="#A7B1B7" stroke-width="0.263" width="0.801" height="49.191"/>
		<rect x="211.491" y="190.607" fill="#A7B1B7" stroke="#A7B1B7" stroke-width="0.263" width="0.801" height="47.992"/>
		<rect x="225.562" y="176.143" fill="#A7B1B7" stroke="#A7B1B7" stroke-width="0.263" width="49.191" height="0.805"/>
		<rect x="92.827" y="176.143" fill="#A7B1B7" stroke="#A7B1B7" stroke-width="0.263" width="48.535" height="0.805"/>
		<rect x="273.952" y="119.936" fill="#A7B1B7" stroke="#A7B1B7" stroke-width="0.263" width="0.801" height="56.207"/>
		<rect x="155.288" y="238.6" fill="#A7B1B7" stroke="#A7B1B7" stroke-width="0.263" width="57.004" height="0.801"/>
	</g>
	<path fill="#E3E4E5" stroke="#A7B1B7" stroke-width="0.263" d="M273.952,119.936h-47.977c0.18-2.773-1.145-6.973-4.355-10.188
		c-3.188-3.188-7.359-4.504-10.129-4.355V57.475h-56.203v47.977c-2.777-0.176-6.945,1.18-10.156,4.398
		c-3.188,3.184-4.543,7.316-4.387,10.086H92.827v56.207H140.8c-0.176,2.773,1.18,6.945,4.395,10.152
		c3.191,3.191,7.328,4.543,10.094,4.395v47.914h56.203v-47.977c2.773,0.18,6.977-1.145,10.184-4.355
		c3.191-3.191,4.512-7.359,4.363-10.129h47.914V119.936z"/>
	<g>
		<path d="M149.729,114.373"/>
		<path fill="#E3E4E5" stroke="#A7B1B7" stroke-width="0.263" stroke-linejoin="bevel" d="M149.851,107.67
			c0.691,2.379,5.75,6.516,7.094,6.895c-0.41,1.258-1.578,2.652-2.453,3.555c-0.27-3.023-4.91-7.449-7.547-8.41
			c0.789,0.938,4.535,7.875,5.672,9.953c-2-0.762-7.719-2.773-9.387-3.297c-0.055-1.238,0.164-1.938,0.402-2.801
			c0.711,1.152,2.973,1.988,4.855,2.598c-0.266-1.363-2.391-4.871-3.969-4.789C145.276,109.928,147.616,107.846,149.851,107.67z"/>
		<path fill="#E3E4E5" stroke="#A7B1B7" stroke-width="0.263" d="M152.843,107.771c-1.723-0.492-4.711-0.316-7.375,2.344
			c-2.242,2.238-3.195,7.344-1.012,9.531c2.191,2.184,7.297,1.234,9.535-1.004c2.105-2.109,4.957-6.113,2.633-8.445
			c-0.469-0.473-1.145-0.672-1.918-0.523l2.988-2.973c3.117,3.117,0.445,8.395-3.406,12.242c-2.754,2.758-7.949,4.84-12.324,3.418
			c-3.234-2.648,0.434-9.789,3.195-12.547c2.16-2.16,5.75-4.363,10.129-4.363v0.336L152.843,107.771z"/>
		<path fill="#A7B1B7" d="M145.159,109.814c2.16-2.16,5.75-4.363,10.129-4.363v0.336l-2.445,1.984
			c-1.723-0.492-4.711-0.316-7.375,2.344L145.159,109.814z"/>
	</g>
	<g>
		<path d="M149.765,181.736"/>
		<path fill="#E3E4E5" stroke="#A7B1B7" stroke-width="0.263" stroke-linejoin="bevel" d="M143.05,181.615
			c2.379-0.699,6.523-5.754,6.898-7.098c1.258,0.41,2.656,1.578,3.562,2.453c-3.027,0.262-7.449,4.906-8.414,7.539
			c0.93-0.789,7.871-4.527,9.957-5.672c-0.766,2.004-2.781,7.723-3.305,9.391c-1.234,0.055-1.938-0.164-2.801-0.406
			c1.152-0.707,1.996-2.965,2.594-4.855c-1.359,0.27-4.867,2.402-4.777,3.977C145.315,186.182,143.229,183.842,143.05,181.615z"/>
		<path fill="#E3E4E5" stroke="#A7B1B7" stroke-width="0.263" d="M143.155,178.619c-0.488,1.719-0.32,4.707,2.352,7.375
			c2.234,2.234,7.336,3.199,9.52,1.004c2.195-2.184,1.242-7.293-0.996-9.531c-2.109-2.105-6.121-4.957-8.445-2.629
			c-0.469,0.473-0.668,1.145-0.523,1.914l-2.98-2.988c3.121-3.121,8.402-0.445,12.246,3.402c2.762,2.762,4.836,7.949,3.414,12.328
			c-2.645,3.234-9.785-0.434-12.547-3.195c-2.156-2.152-4.355-5.742-4.355-10.125h0.332L143.155,178.619z"/>
		<path fill="#A7B1B7" d="M145.194,186.299c-2.156-2.152-4.355-5.742-4.355-10.125h0.332l1.984,2.445
			c-0.488,1.719-0.32,4.707,2.352,7.375L145.194,186.299z"/>
	</g>
	<g>
		<path d="M217.116,181.701"/>
		<path fill="#E3E4E5" stroke="#A7B1B7" stroke-width="0.263" stroke-linejoin="bevel" d="M216.995,188.404
			c-0.695-2.379-5.75-6.512-7.094-6.895c0.406-1.258,1.578-2.652,2.453-3.555c0.27,3.023,4.906,7.449,7.543,8.41
			c-0.789-0.938-4.535-7.875-5.672-9.961c2,0.77,7.719,2.781,9.391,3.305c0.055,1.238-0.168,1.938-0.406,2.797
			c-0.711-1.152-2.969-1.984-4.855-2.594c0.27,1.363,2.395,4.871,3.973,4.789C221.569,186.15,219.229,188.229,216.995,188.404z"/>
		<path fill="#E3E4E5" stroke="#A7B1B7" stroke-width="0.263" d="M214.003,188.303c1.719,0.492,4.707,0.316,7.375-2.344
			c2.242-2.242,3.195-7.34,1.008-9.531c-2.188-2.184-7.297-1.234-9.531,1.008c-2.109,2.105-4.957,6.113-2.633,8.441
			c0.469,0.465,1.145,0.668,1.914,0.52l-2.984,2.977c-3.117-3.117-0.449-8.395,3.402-12.242c2.758-2.762,7.953-4.84,12.328-3.418
			c3.234,2.648-0.434,9.789-3.195,12.547c-2.16,2.16-5.746,4.363-10.129,4.363v-0.34L214.003,188.303z"/>
		<path fill="#A7B1B7" d="M221.687,186.26c-2.16,2.16-5.746,4.363-10.129,4.363v-0.34l2.445-1.98
			c1.719,0.492,4.707,0.316,7.375-2.344L221.687,186.26z"/>
	</g>
	<g>
		<path d="M217.081,114.338"/>
		<path fill="#E3E4E5" stroke="#A7B1B7" stroke-width="0.263" stroke-linejoin="bevel" d="M223.792,114.463
			c-2.375,0.695-6.52,5.75-6.898,7.09c-1.258-0.406-2.652-1.578-3.559-2.453c3.027-0.258,7.449-4.902,8.414-7.535
			c-0.93,0.785-7.871,4.527-9.957,5.672c0.762-2.004,2.777-7.723,3.301-9.391c1.238-0.055,1.941,0.164,2.801,0.402
			c-1.152,0.707-1.992,2.969-2.59,4.859c1.355-0.27,4.863-2.402,4.781-3.977C221.534,109.893,223.616,112.232,223.792,114.463z"/>
		<path fill="#E3E4E5" stroke="#A7B1B7" stroke-width="0.263" d="M223.687,117.451c0.492-1.715,0.324-4.707-2.348-7.371
			c-2.238-2.234-7.336-3.199-9.523-1.008c-2.191,2.188-1.238,7.297,1,9.535c2.105,2.105,6.121,4.957,8.445,2.629
			c0.469-0.473,0.668-1.145,0.52-1.918l2.984,2.992c-3.125,3.121-8.402,0.445-12.25-3.402c-2.762-2.766-4.836-7.949-3.414-12.328
			c2.648-3.234,9.789,0.434,12.551,3.195c2.152,2.152,4.352,5.742,4.352,10.129h-0.328L223.687,117.451z"/>
		<path fill="#A7B1B7" d="M221.651,109.775c2.152,2.152,4.352,5.742,4.352,10.129h-0.328l-1.988-2.453
			c0.492-1.715,0.324-4.707-2.348-7.371L221.651,109.775z"/>
	</g>
	<g>
		<rect x="207.745" y="61.229" fill="#A7B1B7" stroke="#A7B1B7" stroke-width="0.263" width="0.801" height="62.461"/>
		<rect x="96.573" y="172.396" fill="#A7B1B7" stroke="#A7B1B7" stroke-width="0.263" width="62.461" height="0.801"/>
		<rect x="270.206" y="123.689" fill="#A7B1B7" stroke="#A7B1B7" stroke-width="0.263" width="0.801" height="48.707"/>
		<rect x="207.745" y="172.396" fill="#A7B1B7" stroke="#A7B1B7" stroke-width="0.263" width="0.801" height="62.461"/>
		<rect x="208.546" y="172.396" fill="#A7B1B7" stroke="#A7B1B7" stroke-width="0.263" width="62.461" height="0.801"/>
		<rect x="159.034" y="234.857" fill="#A7B1B7" stroke="#A7B1B7" stroke-width="0.263" width="49.512" height="0.801"/>
	</g>
	<polygon fill="#E3E4E5" stroke="#A7B1B7" stroke-width="0.263" points="159.034,172.396 96.573,172.396 96.573,123.689 
		159.034,123.689 159.034,61.229 207.745,61.229 207.745,123.689 270.206,123.689 270.206,172.396 207.745,172.396 207.745,234.857 
		159.034,234.857 	"/>
	<g>
		<path fill="#A7B1B7" stroke="#A7B1B7" stroke-width="0.263" d="M183.897,189.771c22.77,0,41.223-18.457,41.223-41.223
			c0-22.762-18.453-41.219-41.223-41.219c-22.766,0-41.219,18.457-41.219,41.219C142.679,171.314,161.132,189.771,183.897,189.771z"
			/>
		<path fill="#A7B1B7" stroke="#A7B1B7" stroke-width="0.263" d="M183.897,148.549"/>
	</g>
	<g>
		<path fill="#E3E4E5" stroke="#A7B1B7" stroke-width="0.263" d="M183.39,189.26c22.766,0,41.223-18.449,41.223-41.219
			c0-22.766-18.457-41.223-41.223-41.223c-22.77,0-41.223,18.457-41.223,41.223C142.167,170.811,160.62,189.26,183.39,189.26z"/>
		<path fill="#E3E4E5" stroke="#A7B1B7" stroke-width="0.263" d="M183.39,148.041"/>
	</g>
	<g>
		<path fill="#E3E4E5" stroke="#A7B1B7" stroke-width="0.263" d="M183.39,176.771c15.867,0,28.73-12.867,28.73-28.73
			c0-15.867-12.863-28.734-28.73-28.734s-28.73,12.867-28.73,28.734C154.659,163.904,167.522,176.771,183.39,176.771z"/>
		<path fill="#E3E4E5" stroke="#A7B1B7" stroke-width="0.263" d="M183.39,148.041"/>
	</g>
	<g>
		<g>
			<path fill="#A7B1B7" d="M159.608,167.287l-0.238,0.141c-0.383-0.477-0.902-1.004-1.562-0.617l-5.652,3.301
				c-0.656,0.387-0.457,1.094-0.234,1.664l-0.223,0.133l-4.082-6.984l2.453-1.434l0.188,0.32c-1.527,0.883-1.332,2.535-0.891,3.285
				c0.219,0.383,0.477,0.816,0.656,1.129c0.152,0.262,0.348,0.348,1.012-0.043c0.48-0.281,2.59-1.508,2.59-1.508
				c-0.27-0.469-0.812-1.762-2.793-1.016l-0.141-0.234l3.895-2.273l0.172,0.297c-1.906,1.324-0.996,2.523-0.727,2.98l2.652-1.543
				c0.66-0.391,0.523-0.988,0.348-1.465l0.242-0.137L159.608,167.287z"/>
		</g>
		<path fill="#A7B1B7" d="M153.476,153.709c-0.254-1.492-2.281-2.004-4.621-1.605c-2.336,0.398-4.078,1.562-3.824,3.055
			c0.258,1.5,2.289,2.012,4.625,1.609S153.733,155.209,153.476,153.709l0.293-0.051c0.496,2.898-1.238,4.879-3.738,5.312
			c-2.496,0.426-4.793-0.867-5.293-3.762c-0.496-2.906,1.246-4.879,3.742-5.309c2.488-0.422,4.793,0.855,5.289,3.758
			L153.476,153.709z"/>
		<path fill="#A7B1B7" d="M149.011,142.814c0.375-2.227-0.383-2.746-1.574-2.98c-1.195-0.242-2.051,0.312-2.219,1.25
			c-0.09,0.57-0.008,0.961,0.387,1.043L149.011,142.814l0.324,0.062l2.977,0.598c0.746,0.152,1.043-0.371,1.234-0.848l0.258,0.051
			l-0.875,4.344l-0.262-0.051c0.031-0.613-0.051-1.145-0.801-1.293l-6.414-1.293c-0.754-0.148-1.07,0.512-1.277,1.078l-0.27-0.055
			l0.891-4.414c0.422-2.121,1.438-3.656,3.105-3.324c1.203,0.242,1.73,1.227,1.785,2.531l4.551-1.883
			c0.125-0.062,0.203-0.211,0.258-0.41l0.254,0.051l-0.516,2.578l-4.828,1.992c-0.039,0.199-0.07,0.348-0.07,0.348L149.011,142.814z
			"/>
		<g>
			<path fill="#A7B1B7" d="M161.144,127.9c-1.875,2.059-4.496,2.492-6.715,0.457c-2.152-1.965-1.848-4.668-0.219-6.453
				c0.746-0.809,1.441-1.133,2-1.398c0.555-0.27,0.473-0.672,0.352-1.016l0.246-0.27l2.191,2.004l-0.246,0.27
				c-2.043-0.84-3.441-0.184-4.258,0.715c-0.473,0.516-1.305,1.992,1.438,4.5s4.102,1.746,4.883,0.898
				c0.395-0.434,0.758-1.141,0.305-1.559c-0.457-0.418-1.105-1.012-1.289-1.172c-0.539-0.496-0.996-0.234-1.457,0.121l-0.191-0.176
				l2.918-3.18l0.188,0.168c-0.312,0.488-0.547,1-0.008,1.5c0.574,0.523,1.672,1.531,1.672,1.531
				C162.761,125.799,161.827,127.162,161.144,127.9z"/>
		</g>
		<path fill="#A7B1B7" d="M167.765,118.615l1.398-0.684c-2.559-2.223-2.66-2.32-2.66-2.32s0.094,1.227,0.238,3.508L167.765,118.615
			l0.227,0.527l-1.211,0.59c0.023,0.387,0.059,0.816,0.066,1.258c0.078,1.137,0.66,0.93,1.422,0.734l0.113,0.238l-2.465,1.207
			l-0.117-0.238c0.367-0.242,0.535-0.855,0.527-1.469c-0.496-8.367-0.504-8.457-0.504-8.457l0.434-0.211c0,0,0.305,0.25,6.328,5.508
			c0.434,0.387,0.711,0.797,1.605,0.512l0.113,0.234l-4.078,2.008l-0.117-0.238c0.777-0.52,1.25-0.883,0.613-1.527
			c-0.398-0.352-0.762-0.668-1.094-0.953l-1.637,0.805L167.765,118.615z"/>
		<g>
			<path fill="#A7B1B7" d="M179.812,108.967l0.023,0.266c-0.598,0.148-1.156,0.391-1.082,1.152l0.648,6.367
				c0.074,0.75,0.445,0.953,0.863,0.91c0.352-0.035,0.715-0.074,1.164-0.117c1.027-0.105,2.316-0.992,2.578-2.855l0.387-0.039
				l-0.238,3.09l-7.934,0.805l-0.027-0.266c0.582-0.148,1.27-0.402,1.195-1.164l-0.664-6.523c-0.078-0.762-0.664-0.887-1.27-0.918
				l-0.023-0.258L179.812,108.967z"/>
		</g>
		<g>
			<path fill="#A7B1B7" d="M193.003,109.916l-0.059,0.262c-0.613-0.051-1.223-0.008-1.402,0.738l-1.48,6.215
				c-0.176,0.734,0.102,1.051,0.516,1.145c0.34,0.082,0.695,0.172,1.133,0.27c1.004,0.242,2.516-0.172,3.371-1.844l0.383,0.094
				l-1.242,2.836l-7.758-1.848l0.062-0.262c0.602,0.051,1.336,0.035,1.512-0.711l1.52-6.371c0.18-0.746-0.34-1.059-0.895-1.285
				l0.062-0.258L193.003,109.916z"/>
		</g>
		<path fill="#A7B1B7" d="M201.444,119.787l1.141,0.766c0.637-3.324,0.68-3.465,0.68-3.465s-1.02,0.699-2.918,1.969L201.444,119.787
			l-0.312,0.484l-1.301-0.875c-0.32,0.215-0.68,0.457-1.055,0.688c-0.945,0.633-0.469,1.035,0.078,1.598l-0.148,0.219l-2.285-1.535
			l0.148-0.215c0.395,0.195,1.012,0.031,1.539-0.277c6.996-4.621,7.066-4.676,7.066-4.676l0.402,0.27c0,0-0.066,0.387-1.598,8.238
			c-0.117,0.566-0.336,1.016,0.359,1.648l-0.148,0.215l-3.777-2.531l0.145-0.215c0.84,0.41,1.391,0.641,1.633-0.234
			c0.102-0.523,0.195-1,0.277-1.422l-1.336-0.895L201.444,119.787z"/>
		<g>
			<path fill="#A7B1B7" d="M212.937,122.135c0.066-0.219-0.07-0.332-0.148-0.445l0.227-0.16l1.707,2.383l-1.922,7.285l3.645-2.609
				c0.621-0.449,0.457-0.988,0.184-1.527l0.227-0.164l1.512,2.117l-0.219,0.164c-0.387-0.461-0.812-0.664-1.441-0.219l-6.383,4.57
				l-0.27-0.383l2.406-9.164l-4.867,3.484c-0.625,0.445-0.457,0.988-0.18,1.535l-0.219,0.156l-1.586-2.219l0.215-0.152
				c0.422,0.43,0.887,0.762,1.512,0.316l5.301-3.797L212.937,122.135z"/>
		</g>
		<g>
			<path fill="#A7B1B7" d="M212.097,137.666l0.254-0.07c0.238,0.453,0.562,0.973,1.312,0.754l7.086-2.02l-0.137-0.469
				c-0.262-0.922-1.371-1.848-2.66-1.473l-0.082-0.285l2.531-0.73l2.211,7.746l-2.531,0.723l-0.078-0.285
				c1.281-0.371,1.742-1.738,1.473-2.664l-0.129-0.465l-7.086,2.027c-0.746,0.211-0.754,0.809-0.715,1.32l-0.254,0.078
				L212.097,137.666z"/>
		</g>
		<path fill="#A7B1B7" d="M218.597,149.291c-0.094,2.258,0.73,2.676,1.938,2.762c1.211,0.086,1.996-0.574,2.043-1.523
			c0.02-0.586-0.117-0.961-0.52-0.992l-3.016-0.246l-0.336-0.023l-3.473-0.215c-0.762-0.059-0.988,0.504-1.113,0.996l-0.266-0.016
			l0.32-4.426l0.262,0.02c0.047,0.609,0.195,1.125,0.961,1.184l6.527,0.469c0.766,0.055,1-0.641,1.129-1.227l0.277,0.016
			l-0.32,4.492c-0.156,2.16-0.961,3.816-2.672,3.695c-1.223-0.086-1.867-1-2.082-2.289l-4.281,2.453
			c-0.121,0.07-0.172,0.227-0.199,0.434l-0.266-0.023l0.188-2.613l4.543-2.594c0.016-0.207,0.027-0.355,0.027-0.355L218.597,149.291
			z"/>
		<g>
			<path fill="#A7B1B7" d="M211.788,162.631c-0.703-0.332-1.172,0.219-1.512,0.719l-0.238-0.109l2.074-4.348l0.234,0.113
				c-0.176,0.578-0.312,1.297,0.391,1.633c0.484,0.23,2.148,1.023,2.148,1.023s2.121-0.156,4.781-0.363
				c0.75-0.059,1.086-0.062,1.43-0.574l0.238,0.113l-1.906,4.004l-0.242-0.113c0.242-0.66,0.398-1.344-0.434-1.223
				c-1.188,0.07-3.82,0.27-3.82,0.27l1.738,2.828c0.715,1.117,1.32,0.504,1.672-0.098l0.238,0.113l-1.328,2.785l-0.238-0.113
				c0.109-0.625-0.012-1.129-0.523-1.879l-2.203-3.586C214.288,163.826,212.304,162.885,211.788,162.631z"/>
		</g>
	</g>
	<g>
		<path fill="#A7B1B7" d="M180.417,122.314c0.82-1.039,2.184-0.547,2.629-0.934c0.434-0.383,1.637,0.277,2.133,1.258
			c0.875,0.113,1.969-0.105,2.297-0.434s1.109-0.562,1.855,0.434c1.32,1.75,4.352,2.227,6.184,3.559
			c2.188,1.582,4.43,3.992-1.969,6.016c2.352,2.352,3.613,4.926,3.938,6.348c3.008-2.566,4.328-3.117,5.801-1.969
			s3.832,2.57,5.141,2.898c1.316,0.328,2.844,1.645,2.738,3.117c-0.109,1.477-0.934,2.465-2.133,2.406
			c-1.207-0.055-1.316-0.602-1.695-1.695c-0.383-1.09-1.871-1.293-3.289-2.078c-2.074-1.145-2.02-0.91-3.496,0.164
			c-0.711,0.52-1.34,0.66-1.395,1.371s0.41,0.492,1.691,0.379c1.289-0.109,2.164-0.164,3.531,1.754
			c1.367,1.914,2.574,4.156,4.102,4.758c1.535,0.602,1.699,0.93,1.039,2.301c-0.656,1.363-1.098,1.906,0.223,2.621
			c1.199,0.656,1.258,1.367,0.547,2.465c-0.715,1.094-2.738,3.609-3.832,4.652c-0.164,1.586,0.984,1.309,0.219,2.074
			c-0.762,0.77-1.309,2.57-4.863,2.461c-3.559-0.105-5.473-0.383-7.938,0.383c-2.461,0.77-7.117,0.137-9.902,1.754
			c-1.695,0.984-1.906-1.367-1.859-1.918c0.109-1.258-0.656-1.805-1.746-1.09c-1.098,0.711-1.371,0.438-2.082-0.059
			c-0.711-0.492-2.297-0.547-3.062,0.113c-0.766,0.656-1.77,1.945,0.16,2.68c5.473,2.078,11.219,3.988,14.773,5.25
			c1.062,0.379,0.816,2.172-1.422,1.367c-5.195-1.859-8.754-3.168-11.605-4.129c-1.215-0.41-2.02,1.828-5.574,1.34
			c-1.914-0.266-2.078-1.312,0.164-1.199c2.242,0.102,3.887-0.66,1.852-1.402c-2.852-1.035-5.246-1.883-8.742-3.195
			c-0.926-0.348-0.531-1.973,1.148-1.371c1.512,0.543,2.727,1.129,3.922,1.457c1.055,0.297,1.219-0.199,1.109-0.91
			s0.93-2.352,3.012-2.73c-0.605-0.988-1.859-2.297-2.629-2.52c-0.762-0.223-1.312-0.879-0.711-2.789
			c0.66-2.082,1.207-3.395-0.547-3.609c-1.75-0.223-3.719-0.984-4.266-3.34c-2.461-1.969-3.504-2.297-3.938-1.586
			c-0.441,0.711-0.148,0.879,0.547,1.422c1.258,0.984,1.418,2.969,0.656,7.547c-0.109,0.66,0.105,0.824,0.652,1.422
			c0.547,0.605,0.582,3.035-0.984,4.379c-1.148,0.984-1.199-0.492-1.035-1.039s-0.055-1.039-0.711-1.422
			c-0.66-0.383-0.875-0.66-0.496-1.754c0.383-1.09,0.66-1.695-0.109-2.133c-0.766-0.434-2.238-1.363-1.805-3.008
			c0.441-1.637,0.328-3.008-1.145-4.266c-1.484-1.258-0.609-2.953,0.598-4.16c1.207-1.199,3.281-2.898,6.781,1.973
			c0.66-1.094,2.082-3.062,3.23-4.047v-0.824c-0.82-0.164-1.809-1.586-2.191-2.566c-0.379-0.988-1.75-0.875-3.172,0.488
			c-1.422,1.367-2.188,2.52-3.062,2.297c-0.875-0.219-1.859-1.75-1.09-2.898c-0.383-1.094-0.77-2.352,0.543-3.34
			c-0.215-1.523-0.273-2.785,1.969-3.664c-0.105-1.422,0.332-3.445,2.465-4.156c-0.059-0.273-0.234-0.93-0.254-1.562
			c1.891-2.047,6.645-4.984,8.449-5.723c1.211-0.156,1.57,1.699,2.906,0.887c0.984-0.605,2.141-0.93,3.941-0.496
			C179.655,122.35,180.144,122.42,180.417,122.314z"/>
		<g>
			<path fill="#E3E4E5" d="M164.827,137.084c0.156-0.469,0.273-1.258,0.656-1.699c0.383-0.434-0.277-0.875-1.641-0.051
				c-1.367,0.82-3.117,1.586-4.047,2.082c-0.934,0.488-1.316,1.801,0.434,0.926c1.754-0.875,2.957-1.422,3.504-1.699
				c0.547-0.27,0.383,0.223,0.328,0.441S164.718,137.416,164.827,137.084z"/>
			<path fill="#E3E4E5" d="M164.007,138.014c-0.789,0.668-1.859,0.711-3.066,1.535c-1.203,0.812-1.637,1.199-1.531,1.969
				c0.109,0.762,0.438,1.039,1.203,0.105c0.766-0.93,2.52-2.352,3.395-2.684C164.878,138.615,164.718,137.416,164.007,138.014z"/>
			<path fill="#E3E4E5" d="M160.999,134.021c1.492-0.891,3.391-1.531,4.977-1.969s2.297,0.488,0.488,1.035
				c-1.805,0.547-4.699,2.027-5.852,2.738C159.468,136.537,159.245,135.061,160.999,134.021z"/>
			<path fill="#E3E4E5" d="M161.929,132.596c0.16-0.711,0.344-3.391,3.609-3.391c1.258,0,4.102-0.492,4.812-0.492
				s0.277,1.207-0.93,1.312C168.218,130.139,163.022,131.994,161.929,132.596z"/>
			<path fill="#E3E4E5" d="M172.538,126.088c-0.488,0.383-0.93,1.094-0.984,1.477c-1.914-0.332-2.348,0.547-3.336,0.547
				c-0.984,0-3.012-0.109-3.559,0.113c0.77-0.824,1.641-1.59,2.574-1.316c0.93,0.273,1.695,0.273,2.848-0.387
				C171.226,125.869,171.991,125.486,172.538,126.088z"/>
			<path fill="#E3E4E5" d="M166.14,125.76c2.133-1.637,3.777-1.969,5.578-1.312c1.805,0.652,3.664,0.711,4.375,0.324
				c0.719-0.383,1.43-0.324,1.754,0.164c0.324,0.496,0.93,0.77-0.77,0.609c-1.695-0.168-3.883-0.168-4.812-0.609
				c-0.926-0.434-2.023-0.051-2.57,0.441S167.233,126.197,166.14,125.76z"/>
			<path fill="#E3E4E5" d="M171.39,122.693c1.312,0.656,3.773,0.77,4.703,0.438c0.934-0.328,3.066-0.543,3.777,0.441l-0.66,0.652
				c-0.711-0.711-2.238-0.816-3.172-0.434c-0.93,0.383-2.457,0.383-3.391-0.055c-0.93-0.438-2.078-0.492-2.406-0.387
				C170.628,123.025,170.952,122.861,171.39,122.693z"/>
			<path fill="#E3E4E5" d="M162.8,146.768c-1.418-2.031-3.168-1.316-3.992-0.109c-0.82,1.207,0.438,0.547,0.328,1.258
				s0.547,0.492,0.66,0.984c0.105,0.488,0.93,0.488,1.035-0.328c0.109-0.82,0.656-1.805,1.203-1.316
				C162.585,147.752,163.187,147.314,162.8,146.768z"/>
			<path fill="#E3E4E5" d="M160.343,149.885c0,0.547-0.113,0.926-0.605,0.824c-0.492-0.113-0.816,0.324-0.105,0.98
				s0.324,1.094,0.105,1.641s-0.621,1.922,0.441,2.625c0.652,0.441,1.09-0.27,1.473,0.277s0.875,0.051,0.875-1.258
				c0-1.312-0.273-1.699-0.762-1.152c-0.496,0.547-1.098,0.547-1.258,0c-0.164-0.547-0.441-1.422,0.711-1.258
				c1.145,0.164,1.586-0.113,0.93-1.043C160.507,149.225,160.343,149.338,160.343,149.885z"/>
			<path fill="#E3E4E5" d="M180.964,123.08c0.438,0.598,0.602,2.297,0.602,3.117c0,0.492,0.324,0.594,0.711,0.059
				c0.547-0.77,1.809-0.414,1.809-1.59c0-0.188-0.469-0.164-0.605,0.137c-0.137,0.297-0.738,0.082-0.848-0.492
				S181.952,122.752,180.964,123.08z"/>
			<path fill="#E3E4E5" d="M192.179,126.166c-0.766-0.023-0.984,0.168-1.039,0.469s-0.355,0.41-0.742,0.355
				c-0.383-0.055-0.598,0.691,0.113,0.711c0.984,0.027-0.113,0.434,1.473,0.465c1.066,0.02,2.082-0.109,2.387-0.246
				c0.297-0.141,0.461-0.219-0.141-0.738S193.026,126.201,192.179,126.166z"/>
			<path fill="#E3E4E5" d="M186.054,124.338c-0.496,0.891-0.547,2.895-1.098,3.938c-0.547,1.039-0.109,3.34-0.711,4.379
				s-0.766,2.844,1.098,2.133c1.855-0.711,3.555-1.312,4.484-1.535c0.926-0.215,1.914-1.473,0.875-1.969
				c-1.043-0.492-2.188-1.309-2.793-2.895c-0.598-1.59,0.055-2.223,0.52-1.809c0.469,0.41,0.77,0.246,0.797-0.414
				c0.027-0.652,0.301-0.789,0.766-0.762c0.469,0.027,0.57-0.848,0.164-0.926c-0.41-0.09-0.574-0.277-0.762-0.551
				c-0.195-0.273-0.734-0.086-0.965-0.027c-0.547,0.133-1.117,0-1.445-0.109C186.651,123.678,186.323,123.842,186.054,124.338z"/>
			<path fill="#E3E4E5" d="M179.491,126.033c-0.496,0.488-2.848,0.711-3.887,0.547c-1.039-0.16-1.805-0.383-2.246,0.82
				c-0.434,1.203-2.566,3.336-3.664,4.43c-1.098,1.098-3.117,3.719-3.555,5.199c-0.438,1.477-0.195,1.91,0.383,2.711
				c0.574,0.789,0.93,0.734,1.363,0.215c0.441-0.52,0.496-0.848,0-1.637c-0.488-0.801-0.625-1.727,0.441-2.629
				c1.07-0.902,2.766-2.602,3.203-3.477c0.434-0.871,0.984-1.312,1.637-1.559c0.66-0.246,1.066-0.629,1.449-1.258
				c0.387-0.629,1.395-0.957,1.891-0.488c0.492,0.461,0.684,1.039,0.215,1.391c-0.105,0.082-0.188,0.059-0.188-0.219
				c0-0.27-1.469-0.246-1.398,0.766c0.027,0.387,0.191,0.273,0.441,0.082c0.242-0.191,0.461-0.273,0.656,0.246
				c0.191,0.523,0.488,0.684-0.328,0.961c-0.82,0.273-0.797,0.328-0.465,0.926c0.328,0.605,0.652,0.875,0.926,0.305
				c0.277-0.578,0.852-0.328,0.988-0.711s0.875-0.512,1.172-0.113c0.418,0.547-0.133,0.934-0.133,1.344
				c0,0.406-0.027,0.465-0.273,0.051c-0.25-0.406-0.66-0.215-0.688,0.055c-0.023,0.277-0.461,0.164-0.734,0.137
				c-0.273-0.023-0.41,0.383-0.41,1.043c0,0.438,0,0.602,0.27,0.629c0.277,0.027,0.301,0.422,0.609,0.438
				c0.293,0.012,0.336,0.613,0.172,0.629c-0.164,0.012-0.07,0.246-0.203,0.258c-0.137,0.016,0.031-0.316-0.586-0.297
				c-0.617,0.012-1.293,0.512-0.906,1.188c0.48,0.848-0.23,1.371,0.125,1.891s0.953,0.52,1.777,0.379
				c0.82-0.137,2.656-0.246,3.473,0.355c0.82,0.602,1.914,0.93,3.336,1.152c1.422,0.215,2.117,0.383,2.297,1.969
				c0.113,0.93,0.496,1.527,1.48,2.352c0.984,0.82,1.695,2.078,1.586,2.625c-0.109,0.551,0.488,1.668,1.121,1.477
				c0.625-0.191,1.176-0.113,1.59,0.055c0.406,0.164,1.129,0.414,0.52-0.465c-0.824-1.176-1.84-1.148-2.164-2
				c-0.324-0.844-0.953-2.082-1.48-3.004c-0.355-0.629-0.434-1.262-0.57-1.586c-0.141-0.332-0.305-0.332-0.305-0.906
				s-0.27-1.121-1.039-1.422c-0.766-0.301-2.211-1.145-3.277-1.336c-1.066-0.195-0.961-0.414-1.094-0.797
				c-0.141-0.383-0.328-0.465-0.496-0.219c-0.164,0.246-0.328,0.219-0.438-0.082c-0.105-0.301-0.355-0.246-0.652-0.246
				c-0.305,0-1.125,0-0.66-0.738s0.52-1.258-0.164-1.777s-0.875-0.93-0.355-1.258s0.082-0.875,0.793-0.957s0.133-0.578,0.684-0.688
				c0.547-0.105,0.516-0.379,0.328-0.602c-0.191-0.215,0.355-1.039,0.164-1.395s-0.191-0.848,0.137-1.172
				c0.332-0.328,0.082-0.684-0.051-0.824c-0.141-0.137-0.387-0.305-0.418-0.52c-0.023-0.219-0.297-0.328-0.621,0.113
				c-0.332,0.434-0.988,0.734-1.289,0.078s-0.082-0.98,0.133-1.312c0.223-0.328,0.387-0.898,0.223-1.254
				C180.175,125.545,179.847,125.678,179.491,126.033z"/>
			<path fill="#E3E4E5" d="M191.687,138.037c-0.656-0.543-1.559,0.113-2.051-0.434c-0.496-0.543-0.875-0.82-1.371-0.711
				c-0.488,0.105-1.117,0.27-1.449-0.52c-0.328-0.797-0.684-0.957-1.09-0.082c-0.41,0.871-0.879,0.871-1.344,1.125
				c-0.461,0.242-0.684,0.812,0.441,1.145c1.117,0.328,2.516,0.957,3.008,1.312c0.488,0.355,0.82,0.164,0.684-0.41
				s-0.41-0.684-0.684-0.902c-0.277-0.219-0.305-0.688,0.301-0.574c0.602,0.109,0.684,0.496,1.172,0.52
				c0.496,0.027,2.324,0.168,3.258,1.312c0.934,1.152,1.422,1.805,0,2.625c-1.422,0.824-2.789,1.422-1.809,2.738
				c0.988,1.312,1.371,0.219,2.848,0.984c1.48,0.766,2.461,0.27,3.391-0.109c0.934-0.387,1.969-0.109,2.684-0.223
				c0.711-0.109,1.691-0.383,2.352,0.441c0.656,0.816,1.473,1.527,2.297,1.855c0.82,0.332,1.145,0.879,1.641,0.824
				c0.492-0.055-0.164-1.09-0.762-1.699c-0.605-0.598-1.156-1.691-1.918-2.184c-0.762-0.496-1.535-1.094-2.352-0.602
				c-0.824,0.488-2.844,0.219-3.504-0.059c-0.656-0.27-1.367-0.328-1.914-0.328s-0.82-0.434,0.223-1.094
				c1.035-0.656,1.312-1.367,0.766-2.844c-0.547-1.473-1.762-4.926-3.555-6.398c-0.609-0.496-1.32-0.219-1.586,0.051
				c-0.277,0.277-0.934,0.605-1.59,0.66c-0.656,0.051-0.875,0.328-0.055,0.602s0.219,0.547,1.098,0.984
				c0.871,0.438,1.422,0.875,1.363,1.371C192.124,137.904,191.851,138.178,191.687,138.037z"/>
			<path fill="#E3E4E5" d="M189.444,139.982c0.961-0.305,0.852,0.41,1.664,0.355c0.824-0.055,1.043,0.902,0.305,0.766
				c-0.738-0.133-0.793-0.602-1.258-0.629C189.687,140.451,188.843,140.174,189.444,139.982z"/>
			<path fill="#E3E4E5" d="M197.976,139.74c0.113,0.461,0.355,1.527,0.469,1.965c2.27-1.992,2.816-2.57,3.227-2.844
				c0.406-0.277,0.82-0.574,2.082,0.492c1.258,1.07,3.043,2.223,3.605,2.438c0.438,0.16,0.902,0.488,1.18,1.859
				c0.324,0.242,1.527,0.355,1.477-0.578c-0.055-0.934-0.219-1.391-1.066-1.777c-0.852-0.383-3.418-1.289-4.648-2.324
				c-1.234-1.039-2.355-2.297-3.258-1.586C200.136,138.096,198.499,139.354,197.976,139.74z"/>
			<path fill="#E3E4E5" d="M172.265,133.443c-0.684,0.906-1.969,2.105-2.68,2.711c-0.711,0.602-0.734,1.426-0.215,2.406
				c0.242,0.469,0.406,0.988,0.789,1.039s0.547,0.328,0.355,0.738s-0.141,0.852,0.602,0.824c1.289-0.059,1.23-0.746,2-0.801
				c0.434-0.023,0.684-0.051,0.711-0.379c0.027-0.332,0.406,0,0.406-1.176s-0.629-1.723-0.191-2.242
				c0.441-0.52,0.645-1.387,0.219-2.105C173.116,132.49,172.909,132.596,172.265,133.443z"/>
			<path fill="#E3E4E5" d="M168.026,141.104c-0.383,0,0.113,0.602,0.66,0.332c0.543-0.273,0.105-1.012,0-0.742
				C168.573,140.971,168.19,141.104,168.026,141.104z"/>
			<path fill="#E3E4E5" d="M169.612,142.006c0.078,0.34,0.355,1.289,0.438,1.645s0.82,0.902,1.586,1.395
				c0.77,0.492,1.48,0.547,1.969,0.902c0.496,0.355,0.879-0.246-0.023-0.988c-0.906-0.738-2.465-2.27-3.309-2.98
				C169.421,141.268,169.562,141.76,169.612,142.006z"/>
			<path fill="#E3E4E5" d="M172.483,142.229c0.711-0.711,1.586-0.77,2.898-0.496c1.316,0.273,5.199,0.984,6.953,0.984
				c1.75,0,3.059,0.328,3.277,1.312s0.656,2.027,1.152,2.465c0.488,0.438,0.434,0.652,0.164,0.984
				c-0.277,0.324,0.219,0.66-1.641,0.602c-1.863-0.059-3.285-0.602-4.211-0.547c-0.934,0.055-1.535,0-2.082-0.328
				s-1.75-0.66-1.641,0.492c0.105,1.145,0.219,1.75,0.93,2.137c0.711,0.379,0.711,1.035,0.051,2.133
				c-0.652,1.09-2.895,3.332-3.879,4.375c-0.984,1.035-1.312,2.516,0.16,3.391c1.477,0.875,3.777,2.461,4.16,3.496
				c0.602,0.113,1.039,0.164,1.477,0.66s0.602,0.66-0.109,0.875c-0.711,0.219-1.098,0.164-1.367-0.215
				c-0.277-0.387-0.82-0.441-1.254-0.387c-0.445,0.055-0.824-0.16-1.098-0.711c-0.273-0.547-2.844-2.789-3.723-3.391
				c-0.875-0.602-2.074-1.098-1.199-2.629c0.871-1.531,1.035-2.293,0.93-2.898c-0.113-0.598-0.219-1.309,0.051-1.75
				c0.277-0.438-0.27-1.695-1.586-1.805c-1.312-0.109-2.188-0.109-2.625-0.766s-1.367-1.203-2.023-1.039
				c0-1.695,0.875-3.992,2.734-4.812c0.934,0.926,2.844,2.297,4.758,3.008s2.297,0.051,1.48-1.422
				C174.397,144.471,173.249,143.045,172.483,142.229z"/>
			<path fill="#E3E4E5" d="M178.448,158.529c-0.328,0-1.203,0.109-1.371,0.164c-0.543-0.605-0.816-1.039-1.309-1.152
				c-0.492-0.109-1.586,0.605-0.547,1.152s1.59,1.367,1.75,1.641C177.354,159.896,178.12,158.693,178.448,158.529z"/>
			<path fill="#E3E4E5" d="M180.034,152.346c-0.203,0.609-0.93,1.316-1.477,1.531c-0.547,0.223-1.148,1.586-1.148,2.789
				s0.535,0.961,1.535,0.875c2.68-0.215,5.852-0.051,6.832,0.387c0.988,0.438,2.41,0.602,1.316-0.273s-4.215-1.312-5.691-1.312
				s-1.859,0.324-1.859-0.605c0-0.926,0.055-1.09,0.547-1.637s0.766-1.156,0.656-1.422
				C180.636,152.4,180.089,152.182,180.034,152.346z"/>
			<path fill="#E3E4E5" d="M174.456,163.725c-2.094,0.352-3.066,1.535-2.52,3.008l1.371,0.496c-0.277-1.043-0.438-2.301,0.652-2.738
				C175.058,164.053,174.78,163.674,174.456,163.725z"/>
			<path fill="#E3E4E5" d="M201.913,148.189c-0.926-0.711-1.199-1.312-2.184-1.258s-2.188,0.109-2.793,0.488
				c-0.598,0.383-1.473,0.879-2.402,0.711c-0.934-0.164-1.535,0.383-0.605,1.094s2.352,1.918,0.605,2.629
				c0.652,0.379,1.855,1.535,2.68,1.969c1.367-1.039,2.906-2.246,1.855-3.391c-0.598-0.656-0.762-1.309-0.875-1.695
				c-0.105-0.383,0.113-0.656,0.605-0.273c0.492,0.379,1.641,0.66,2.301,0.66C201.479,148.9,201.698,148.463,201.913,148.189z"/>
			<path fill="#E3E4E5" d="M203.335,148.9c0,0.223-0.16,1.035-0.379,1.367c0.543-0.055,0.602,0.219,0.602,0.656
				c0,0.434,0.82,0.598,0.766-0.379C204.269,149.557,203.886,149.225,203.335,148.9z"/>
			<path fill="#E3E4E5" d="M206.077,150.322c1.273,1.02,0.82,2.133,1.363,2.902c0.547,0.762-0.438,0.379-1.258,0.492
				c-0.816,0.105-2.137,0.383-2.297,1.691c-0.164,1.316-0.652,0.711-0.984,0.387c-0.328-0.332-1.367,0.379-1.75-0.109
				c-0.383-0.496-1.207-0.387-1.148,0.383c0.055,0.762,0.488,1.258,1.098,1.148c0.598-0.109,0.648,0.547,1.145,0.438
				c0.492-0.113,0.988,0.109,0.875,0.762c-0.109,0.66-0.383,1.645,0.113,2.082c0.488,0.438,0.711,0.547,0.875,0.051
				c0.16-0.488,0.98-1.258,1.473-1.527c0.496-0.273,0.383-1.094,0-0.711c-0.379,0.383-0.926-0.223-1.148,0
				c-0.223,0.219-0.602-0.164-0.387-0.82c0.223-0.66,0.988-1.371,1.262-0.93c0.273,0.434,0.656,0.547,0.77,0.164
				c0.105-0.383,0.598-0.277,0.434,0.16c-0.164,0.441,0.387,1.262,0.711,0.77c0.328-0.496,0.656-0.988,0.824-1.586
				c0.164-0.605,0.547-0.219,0.816,0.273c0.273,0.488-0.105,1-0.816,2.023c-0.77,1.094-2.824,3.121-4.379,3.719
				c-0.711,0.273-1.145,0.547-1.531,0.109s-0.828-0.383-0.711,0.438c0.055,0.383,0.055,1.094,0.273,1.371
				c-2.898,0.434-6.07,0.711-7.223,0.383c-1.148-0.332-5.082-0.223-5.633-0.168c0.328-0.824,0-1.914-0.438-2.078
				c-0.441-0.168-0.82,0.219-0.766,0.711s0.383,1.094-0.824,1.203c-1.203,0.109-1.969,0.332-2.133,1.258
				c-0.164,0.93,0.383,0.496,0.605,0.219c0.219-0.27,1.254-0.16,2.457-0.16s3.449,0.652,1.316,0.652s-3.883,0.328-4.543,0.824
				c-0.656,0.488-1.586,0.598-1.422-0.277s0.383-1.422,0.93-1.75s0.605-0.93,0.441-1.312c-0.164-0.379-0.434,0.07-1.043,0.273
				c-0.656,0.223-2.844-0.328-2.188-2.684c-0.383-0.215-1.035-0.16-1.531,0.113s-1.918,0.109-1.039-0.766
				c0.875-0.871,3.434-2.668,5.742-1.531c2.902,1.422,3.117,0.215,4.539,0.984c1.422,0.766,4.652,1.91,6.074,1.91
				c1.426,0,2.766-1.117,0.547-2.348c-0.488-0.273-1.477-0.602-2.074-0.656c-0.059-0.551-0.059-0.984-0.113-1.312
				c0.988,0.379,2.023,1.473,2.188,0.711c0.168-0.77,0.547-0.824,1.148-0.438c0.605,0.383,1.918,0.324,1.535-0.547
				c-0.383-0.875-1.152-2.902,0.105-2.738c1.258,0.168,1.316-1.148,2.191-0.711s2.734,0.82,3.172,0.109s0.164-2.023,0.934-2.188
				c0.762-0.168,0.98-0.492,0.98-0.879C205.636,150.432,205.8,150.1,206.077,150.322z"/>
			<path fill="#E3E4E5" d="M195.679,154.314c-0.641-1.387-4.152-2.57-7.164-2.625c-3.008-0.055-3.062,0.219-2.738,0.492
				c0.328,0.273,0.547,0.66,0.492,0.984c-0.051,0.328,0.168,0.496,1.152,0.273c0.984-0.215,2.844-0.598,3.555-0.273
				c0.711,0.328,1.203,0.223,1.695,0.223s1.203,0.328,0.711,0.816c-0.496,0.492-0.219,0.605,0.277,0.77
				C194.147,155.139,196.39,155.85,195.679,154.314z"/>
			<path fill="#E3E4E5" d="M190.015,154.342c-0.598-0.199-1.395,0.52-0.844,0.52c0.547,0,0.984-0.051,1.289,0
				C190.753,154.92,190.675,154.564,190.015,154.342z"/>
			<path fill="#E3E4E5" d="M192.015,155.713c0.473,0.156,2.078,0.492,2.762,0.875c0.688,0.383,0.41,0.824-0.273,0.434
				c-0.387-0.219-1.531-0.574-2.188-0.598c-0.656-0.027-0.82-0.273-0.82-0.574C191.495,155.545,191.769,155.631,192.015,155.713z"/>
			<path fill="#E3E4E5" d="M181.077,154.92c0.488-0.656,1.199-2.902,1.145-3.941c1.805-0.27,5.742-1.145,6.562-1.422
				c0.223,0.277,0.332,0.875,0.441,1.039c-3.5,0.164-5.469,0.438-6.016,1.371c-0.547,0.926-0.223,1.422,0.488,1.199
				s1.422,0.059,1.48,1.039c0.051,0.984,1.039,1.152,2.02,0.328c0.547,0.492,0.66,0.988,0.66,1.316c0,0.324,0.711,0.598,1.367,0.547
				c0.656-0.055,1.805,0.762,1.859,1.258c0.055,0.492,0.109,0.762,0.492,0.434c0.383-0.324,0.762-0.051,0.547,0.551
				c-0.219,0.602-1.422,0.984-2.082-0.059c-0.648-1.039-3.824-3.008-6.016-2.895C181.839,155.795,180.581,155.572,181.077,154.92z"
				/>
			<path fill="#E3E4E5" d="M204.847,163.451c-0.66,0-1.672,0.301-2,0.629c-0.324,0.328-0.629,0.93-0.902,1.039
				c-0.273,0.113,0,0.52,0.875,0.273c0.871-0.246,1.805-0.957,2.078-1.285C205.175,163.779,205.308,163.451,204.847,163.451z"/>
			<path fill="#E3E4E5" d="M161.651,159.623c0.156,0.848-0.164,1.203,0.223,1.422c0.379,0.215,0.273,0.711,0.766,0.762
				c0.492,0.062,0.27-0.711,0.434-1.145c0.164-0.441,0.277-0.93-0.434-1.371C161.929,158.857,161.542,159.021,161.651,159.623z"/>
		</g>
		<g>
			<path fill="#A7B1B7" d="M186.218,130.244c-0.164,0.602-0.164,1.969-0.055,2.574c0.105,0.598,0.871,0.547,1.035-0.492
				c0.164-1.043-0.164-1.641-0.434-1.969C186.487,130.025,186.382,129.646,186.218,130.244z"/>
			<path fill="#A7B1B7" d="M173.444,153.553c-0.156,0.309-0.469,1.422-0.605,1.723c-0.137,0.297,0.711,0.543,0.93,0.164
				c0.223-0.387,0.273-1.207,0.492-1.48C174.483,153.686,173.714,153.006,173.444,153.553z"/>
			<path fill="#A7B1B7" d="M178.093,151.389c0.223-0.707-0.602-1.969-1.477-2.023c-0.879-0.055-1.695,0.328-0.902,0.684
				s1.312,0.602,1.453,1.094C177.3,151.635,177.929,151.908,178.093,151.389z"/>
		</g>
	</g>
	<g>
		<path fill="#E3E4E5" stroke="#A7B1B7" stroke-width="0.263" d="M183.374,183.021"/>
		<path fill="#E3E4E5" stroke="#A7B1B7" stroke-width="0.263" d="M201.487,175.451c-3.254,0-3.254,4.863,0,4.863
			C204.749,180.314,204.796,175.451,201.487,175.451z"/>
		<path fill="#E3E4E5" stroke="#A7B1B7" stroke-width="0.263" d="M165.261,175.451c3.258,0,3.258,4.863,0,4.863
			C161.999,180.314,161.956,175.451,165.261,175.451z"/>
		<path fill="#E3E4E5" stroke="#A7B1B7" stroke-width="0.263" d="M181.397,181.057c-1.523-3.969,5.434-3.93,3.996-0.047
			c3.973-1.52,3.938,5.434,0.055,4c1.52,3.965-5.434,3.93-4,0.047C177.476,186.584,177.511,179.627,181.397,181.057z"/>
	</g>
</g>
<g>
	<path stroke="#231F20" stroke-width="0.25" stroke-miterlimit="10" d="M951.379,484.77c0.937-37.265,1.753-74.542,2.912-111.821
		c0.802-24.852,2.068-49.7,3.113-74.552c1.018-24.68,1.815-49.396,1.712-74.571c-0.069-16.73-0.346-33.462-0.715-50.322
		c-0.391-16.856-0.905-33.012-1.386-51.1c-0.533-16.164-1.03-34.35-1.516-50.725c-0.464-17.257-0.866-34.475-1.111-50.725
		c-0.209-16.834-9.204-20.509-29.764-19.81c-15.089,1.039-30.478-0.293-45.722-0.298c-22.158-0.223-44.334,0.209-66.481-0.471
		c-22.147-0.591-44.329,0.041-66.495,0.086c-22.159-0.277-44.328-0.025-66.497,0.059c-22.186,0.867-44.327,0.752-66.451,0.034
		c-27.409,0.276-54.832,1.022-82.207,0.812c-27.417,0.557-54.797,0.541-82.175,0.398c-27.395,0.476-54.814,1.193-82.163,0.809
		c-27.384,0.064-54.778,0.531-82.171,0.947c-27.941-0.298-55.91,0.438-83.86,1.246c-27.917-0.486-55.855,0.629-83.802,1.962
		c0,0-122.182-8.283-116.268,17.765C6.245,50.542,21.788,370.73,13.544,510.855c-2.586,43.951-56.199,198.058,136.524,192.852
		c59.265-1.602,118.915,1.726,178.294,1.395c79.862-0.467,159.612-2.754,239.498-3.398c51.893-0.429,103.947,1.328,155.862,0.813
		c63.974-0.61,127.845-3.444,191.843-3.469c22.916-0.009,31.465-3.831,31.541-21.551
		C947.342,613.209,949.766,549.006,951.379,484.77z M70.754,243.554c-0.865-23.301-1.944-45.42-3.229-69.015
		c-1.311-23.337-2.818-46.909-4.631-69.003c-1.238-14.824-6.149-31.201-9.821-47.63c-3.142-12.759,2.239-20.992,23.108-21.129
		c26.182,0.044,52.4-1.247,78.575-0.913c26.206-0.829,52.354-0.29,78.554-1.57c28.973-1.115,57.914-1.768,86.853-2.285
		c28.939-0.603,57.903-2.115,86.86-2.568c28.924,0.027,57.898-1.84,86.874-2.231c28.972-1.054,57.938-1.126,86.918-0.991
		c26.705-0.465,53.401,0.035,80.125,0.332c26.706,0.94,53.439,0.893,80.174,1.538c26.752-0.099,53.473,1.108,80.208,1.686
		c26.715,0.644,53.447,1.331,80.161,1.977c19.348-0.153,20.151,8.356,20.343,19.854c0.702,30.064,1.383,60.869,2.283,91.061
		c0.874,30.359,1.945,60.338,3.337,91.088l-10.569,228.477l0.366,0.09c-1.629,30.606-3.966,61.21-5.552,91.812
		c-1.489,29.26-3.365,58.523-3.089,87.823c0.119,15.71-6.442,21.82-29.108,22.31c-117.568,2.501-234.94,6.633-352.51,9.165
		c-41.877,0.91-84.048-1.593-126.041-1.688c-70.426-0.179-140.857-0.128-211.231,0.696c-35.004,0.413-70.036,1.897-104.778,4.568
		c-21.133,1.633-26.785-3.978-26.795-18.452c-0.093-61.271-1.115-122.588-2.039-183.892c-0.074-4.752-1.994-9.523-3.84-17.732
		l15.709-177.881l2.418-30.582"/>
	<line stroke="#231F20" stroke-width="0.25" stroke-miterlimit="10" x1="916.722" y1="465.547" x2="916.876" y2="462.229"/>
</g>
<path fill-rule="evenodd" clip-rule="evenodd" stroke="#000000" stroke-width="0.25" stroke-miterlimit="10" d="M487.791,8.709
	c1.599,26.663,3.395,53.246,4.316,80.074c0.376,28.814,0.693,57.645,1.238,86.497c0.333,28.846,0.523,57.706,0.371,86.56
	c0.116,34.812-0.368,69.625-0.816,104.457c-0.138,34.82-0.803,69.631-0.91,104.455c-0.274,20.745,0.045,41.506,0.246,62.248
	c0.314,20.743,0.397,41.451,1.144,62.137c0.51,32.934,3.122,65.69,4.586,101.098l-16.601,1.055
	c-0.494-16.724-1.002-33.444-1.075-50.189c0.034-32.844-1.004-65.705-0.876-98.546c-0.168-32.845-0.233-65.688-0.483-98.55
	c0.403-35.709,0.007-71.453,0.296-107.182c0.015-35.734-0.061-71.471,0.236-107.197c-0.013-24.361,0.062-48.716-0.665-73.074
	c0.167-24.338-1.29-48.696-1.47-72.992c-0.709-26.06-2.008-51.988-3.31-77.593L487.791,8.709z"/>
</svg>
