<?xml version="1.0" encoding="utf-8"?>
<!-- Generator: Adobe Illustrator 16.0.1, SVG Export Plug-In . SVG Version: 6.00 Build 0)  -->
<!DOCTYPE svg PUBLIC "-//W3C//DTD SVG 1.1//EN" "http://www.w3.org/Graphics/SVG/1.1/DTD/svg11.dtd">
<svg version="1.1" id="Layer_1" xmlns="http://www.w3.org/2000/svg" xmlns:xlink="http://www.w3.org/1999/xlink" x="0px" y="0px"
	 width="961.431px" height="707.911px" viewBox="0 0 961.431 707.911" enable-background="new 0 0 961.431 707.911"
	 xml:space="preserve">
<path fill="#0054A6" d="M271.563,390.383"/>
<path fill="#ED1C24" d="M910.507,390.383"/>
<g>
	<g>
		<path fill-rule="evenodd" clip-rule="evenodd" fill="#EADE18" d="M932.334,26.988c-4.791,2.288-7.632,3.777-10.575,5.018
			c-8.961,3.757-17.723,8.286-26.968,10.905c-14.736,4.164-30.061,6.136-44.688,10.616c-27.814,8.521-55.14,18.791-82.988,27.167
			c-27.85,8.375-55.892,16.323-84.23,22.609c-26.05,5.784-52.527,12.14-78.936,12.843c-43.614,1.165-87.422-0.469-130.933-3.964
			c-25.719-2.061-51.604-7.92-76.351-15.717C361.916,85.526,327.76,71.788,291.473,68.5c-39.416-3.571-79.053-4.729-118.62-5.825
			c-19.584-0.538-39.754-1.248-58.725,2.854c-27.87,6.012-54.851,7.452-81.887-1.93c-8.064-2.799-8.438,0.345-7.638,7.293
			c1.861,16.289,4.067,32.619,4.48,48.984c0.711,28.718,0.725,57.477,0.015,86.201c-0.745,30.316-2.854,60.6-4.047,90.909
			c-1.475,37.734-3.288,75.476-3.764,113.224c-0.627,50.866-0.275,101.745-0.027,152.618c0.104,23.3,0.972,46.593,1.523,71.236
			c7.417-2.082,12.925-4.798,18.516-4.998c24.65-0.903,49.425-2.646,73.979-1.172c46.412,2.792,92.881,6.204,139.018,11.974
			c36.955,4.633,73.559,12.615,110.142,20.039c35.908,7.286,71.299,18.916,107.495,22.817c37.183,4.005,75.172,2.695,112.631,0.496
			c34.611-2.033,69.078-7.631,103.428-12.932c39.03-6.025,77.405-15.166,115.505-26.381c43.317-12.746,87.504-22.328,129.602-39.402
			c2.86-1.158,6.479-4.061,7.038-6.77c1.192-5.68,0.985-11.795,0.641-17.682c-2.095-35.921-4.887-71.808-6.486-107.757
			c-1.386-31.006-2.02-62.081-2.067-93.122c-0.193-96.858,0.034-193.71,0.11-290.568C932.348,68.748,932.334,48.895,932.334,26.988z
			"/>
		<g>
			<path fill-rule="evenodd" clip-rule="evenodd" fill="#0054A6" d="M16.897,639.448c0-22.073,0.007-46.165,0-70.257
				c0-52.5-0.938-105.027,0.213-157.5c1.331-61.633,5.356-123.218,6.556-184.845c1.034-52.038-0.192-104.138-0.689-156.196
				c-0.075-6.349-1.896-12.684-2.55-16.848c21.775,1.606,42.904,4.363,63.997,4.322c15.297-0.027,30.545-4.694,45.89-5.68
				c54.14-3.475,108.308-3.867,162.241,2.998c17.647,2.247,35.108,6.576,52.396,11.016c2.488,0.655,5.081,7.259,5.095,11.133
				c0.214,46.634,0.062,93.281-0.193,139.921c-0.482,86.312-1.014,172.603-1.675,258.894c-0.462,59.117-1.172,118.229-1.813,177.346
				c-0.048,2.847-0.448,5.68-0.703,8.616C237.622,644.053,129.796,632.886,16.897,639.448z"/>
		</g>
		<g>
			<path fill-rule="evenodd" clip-rule="evenodd" fill="#ED1C24" d="M933.698,25.947c0.097,7.279,0.469,11.553,0.441,10.408
				c-0.083,17.654-0.193,36.515-0.317,48.833c-0.111,24.816-0.229,20.853-0.338,46.992c-0.117,8.672-0.207,21.569-0.275,46.371
				c-0.083,27.821-0.11,49.853-0.11,49.453c0,28.104,0.151,35.328,0.407,78.232c0.262,21.114,0.606,48.13,0.999,78.232
				c0.304,19.474,0.676,38.548,1.179,60.365c0.496,10.602,1.097,40.484,1.861,60.345c1.103,28.683,3.322,57.317,5.418,85.946
				c0.6,8.299-2.288,11.456-10.029,13.849c-20.694,6.403-40.678,15.413-61.496,21.252c-21.879,6.142-43.821,12.043-65.817,17.771
				c-21.977,5.728-44.014,13.772-66.08,16.682c-18.735,9.326-37.989,9.905-57.008,10.243c-5.59,2.812-11.14,5.397-17.916,3.791
				c-0.358,1.565-0.868-12.869-0.916-10.525c-0.373-19.315-0.759-48.64-1.138-63.15c-0.372-26.215-0.744-45.014-1.124-62.468
				c-0.386-12.325-0.758-44.771-1.123-61.543c-0.387-26.333-0.752-41.229-1.124-64.067c-0.386-23.603-0.771-47.784-1.138-60.482
				c-0.372-36.238-0.751-50.396-1.123-65.128c-0.372-32.544-0.759-49.963-1.138-62.295c-0.372-24.81-0.737-43.125-1.123-63.315
				c-0.276-15.642-0.462-40.354-1.269-45.751c-0.345-29.049,1.109-13.938,7.651-10.692c16.31,4.137,32.626-4.783,48.895-12.373
				c16.269-8.1,32.481-3.488,48.646-13.339c26.98-22.045,53.423-1.943,80.335-25.912c17.874-28.808,36.265-4.963,54.223-14.083
				C906.656,31.358,919.829,30.187,933.698,25.947z"/>
		</g>
		<g>
			<path fill-rule="evenodd" clip-rule="evenodd" d="M951.139,251.366c1.109,75.055,1.695,150.116,3.529,225.15
				c1.055,42.388,4.081,84.733,6.424,127.086c0.662,11.884-1.013,14.903-15.055,19.178c-40.836,12.449-81.858,24.209-122.611,36.935
				c-47.971,14.992-96.783,25.663-146.264,33.433c-65.631,10.306-131.58,18.604-197.859,10.767
				c-35.873-4.239-71.478-12.56-106.592-21.576c-56.277-14.448-113.127-24.513-170.879-28.221
				c-47.316-3.033-94.729-4.302-142.1-6.418c-10.657-0.476-20.197,0.876-29.021,8.81c-9.299,8.376-20.831,4.129-22.665-8.733
				c-3.315-23.142-6.094-46.571-6.479-69.927c-0.745-44.889-0.234-89.813,0.807-134.702c1.592-68.706,3.825-137.405,6.272-206.084
				c1.758-49.08,4.584-98.099-0.696-147.166c-1.048-9.623,0.083-19.611,1.075-29.331C10.32,47.964,19.537,39.548,30.78,43.76
				c32.371,12.125,64.35,3.212,96.604,1.075c93.528-6.19,185.845-2.585,275.375,32.04c24.458,9.458,51.549,13.663,77.743,15.669
				c42.188,3.219,84.844,5.811,126.893,2.626c35.129-2.654,70.009-12.498,104.338-21.817c48.64-13.194,96.438-29.8,145.07-43.049
				c25.656-6.997,51.411-12.422,74.738-26.657c10.926-6.679,20.735,0.648,20.742,13.967c0.041,77.915,0.014,155.824,0.014,233.739
				C951.918,251.359,951.531,251.359,951.139,251.366z M932.334,26.988c-4.791,2.288-7.632,3.777-10.575,5.018
				c-8.961,3.757-17.723,8.286-26.968,10.905c-14.736,4.164-30.061,6.136-44.688,10.616c-27.814,8.521-55.14,18.791-82.988,27.167
				c-27.85,8.375-55.892,16.323-84.23,22.609c-26.05,5.784-52.527,12.14-78.936,12.843c-43.614,1.165-87.422-0.469-130.933-3.964
				c-25.719-2.061-51.604-7.92-76.351-15.717C361.916,85.526,327.76,71.788,291.473,68.5c-39.416-3.571-79.053-4.729-118.62-5.825
				c-19.584-0.538-39.754-1.248-58.725,2.854c-27.87,6.012-54.851,7.452-81.887-1.93c-8.064-2.799-8.438,0.345-7.638,7.293
				c1.861,16.289,4.067,32.619,4.48,48.984c0.711,28.718,0.725,57.477,0.015,86.201c-0.745,30.316-2.854,60.6-4.047,90.909
				c-1.475,37.734-3.288,75.476-3.764,113.224c-0.627,50.866-0.275,101.745-0.027,152.618c0.104,23.3,0.972,46.593,1.523,71.236
				c7.417-2.082,12.925-4.798,18.516-4.998c24.65-0.903,49.425-2.646,73.979-1.172c46.412,2.792,92.881,6.204,139.018,11.974
				c36.955,4.633,73.559,12.615,110.142,20.039c35.908,7.286,71.299,18.916,107.495,22.817c37.183,4.005,75.172,2.695,112.631,0.496
				c34.611-2.033,69.078-7.631,103.428-12.932c39.03-6.025,77.405-15.166,115.505-26.381
				c43.317-12.746,87.504-22.328,129.602-39.402c2.86-1.158,6.479-4.061,7.038-6.77c1.192-5.68,0.985-11.795,0.641-17.682
				c-2.095-35.921-4.887-71.808-6.486-107.757c-1.386-31.006-2.02-62.081-2.067-93.122c-0.193-96.858,0.034-193.71,0.11-290.568
				C932.348,68.748,932.334,48.895,932.334,26.988z"/>
			<g>
				<path fill="none" d="M951.139,251.366c1.109,75.055,1.695,150.116,3.529,225.15c1.055,42.388,4.081,84.733,6.424,127.086
					c0.662,11.884-1.013,14.903-15.055,19.178c-40.836,12.449-81.858,24.209-122.611,36.935
					c-47.971,14.992-96.783,25.663-146.264,33.433c-65.631,10.306-131.58,18.604-197.859,10.767
					c-35.873-4.239-71.478-12.56-106.592-21.576c-56.277-14.448-113.127-24.513-170.879-28.221
					c-47.316-3.033-94.729-4.302-142.1-6.418c-10.657-0.476-20.197,0.876-29.021,8.81c-9.299,8.376-20.831,4.129-22.665-8.733
					c-3.315-23.142-6.094-46.571-6.479-69.927c-0.745-44.889-0.234-89.813,0.807-134.702c1.592-68.706,3.825-137.405,6.272-206.084
					c1.758-49.08,4.584-98.099-0.696-147.166c-1.048-9.623,0.083-19.611,1.075-29.331C10.32,47.964,19.537,39.548,30.78,43.76
					c32.371,12.125,64.35,3.212,96.604,1.075c93.528-6.19,185.845-2.585,275.375,32.04c24.458,9.458,51.549,13.663,77.743,15.669
					c42.188,3.219,84.844,5.811,126.893,2.626c35.129-2.654,70.009-12.498,104.338-21.817c48.64-13.194,96.438-29.8,145.07-43.049
					c25.656-6.997,51.411-12.422,74.738-26.657c10.926-6.679,20.735,0.648,20.742,13.967c0.041,77.915,0.014,155.824,0.014,233.739
					C951.918,251.359,951.531,251.359,951.139,251.366z M932.334,26.988c-4.791,2.288-7.632,3.777-10.575,5.018
					c-8.961,3.757-17.723,8.286-26.968,10.905c-14.736,4.164-30.061,6.136-44.688,10.616c-27.814,8.521-55.14,18.791-82.988,27.167
					c-27.85,8.375-55.892,16.323-84.23,22.609c-26.05,5.784-52.527,12.14-78.936,12.843c-43.614,1.165-87.422-0.469-130.933-3.964
					c-25.719-2.061-51.604-7.92-76.351-15.717C361.916,85.526,327.76,71.788,291.473,68.5c-39.416-3.571-79.053-4.729-118.62-5.825
					c-19.584-0.538-39.754-1.248-58.725,2.854c-27.87,6.012-54.851,7.452-81.887-1.93c-8.064-2.799-8.438,0.345-7.638,7.293
					c1.861,16.289,4.067,32.619,4.48,48.984c0.711,28.718,0.725,57.477,0.015,86.201c-0.745,30.316-2.854,60.6-4.047,90.909
					c-1.475,37.734-3.288,75.476-3.764,113.224c-0.627,50.866-0.275,101.745-0.027,152.618c0.104,23.3,0.972,46.593,1.523,71.236
					c7.417-2.082,12.925-4.798,18.516-4.998c24.65-0.903,49.425-2.646,73.979-1.172c46.412,2.792,92.881,6.204,139.018,11.974
					c36.955,4.633,73.559,12.615,110.142,20.039c35.908,7.286,71.299,18.916,107.495,22.817
					c37.183,4.005,75.172,2.695,112.631,0.496c34.611-2.033,69.078-7.631,103.428-12.932c39.03-6.025,77.405-15.166,115.505-26.381
					c43.317-12.746,87.504-22.328,129.602-39.402c2.86-1.158,6.479-4.061,7.038-6.77c1.192-5.68,0.985-11.795,0.641-17.682
					c-2.095-35.921-4.887-71.808-6.486-107.757c-1.386-31.006-2.02-62.081-2.067-93.122c-0.193-96.858,0.034-193.71,0.11-290.568
					C932.348,68.748,932.334,48.895,932.334,26.988z"/>
				<g>
					<path fill-rule="evenodd" clip-rule="evenodd" d="M931.984,26.988c0.018,0,0.035,0.168,0.05,0.502
						c0.009,0.334,0.023,0.833,0.042,1.497c0.016,1.327,0.039,3.311,0.07,5.933c0.021,5.244,0.055,13.045,0.098,23.272
						c0.049,20.454,0.118,50.614,0.209,89.436c-0.438,38.803-0.35,86.25,0.205,141.326c0.256,27.529,0.372,56.953,0.35,88.144
						c0.133,15.591,0.268,31.623,0.407,48.081c0.224,8.227,0.448,16.56,0.677,24.996c0.111,4.22,0.222,8.465,0.334,12.736
						c0.138,4.27,0.149,8.572,0.408,12.889c0.902,17.27,1.841,34.951,2.898,53.021c0.58,9.033,1.168,18.164,1.761,27.392
						c0.302,4.613,0.605,9.251,0.911,13.912c0.291,4.663,0.66,9.339,0.865,14.064c0.136,4.734,0.08,9.495-1.018,14.259
						c-0.436,1.194-1.205,2.203-2.078,3.055c-0.854,0.883-1.841,1.612-2.871,2.27c-1.031,0.661-2.193,1.141-3.303,1.555
						l-3.363,1.301c-2.246,0.869-4.497,1.74-6.754,2.613c-2.26,0.864-4.506,1.784-6.814,2.545
						c-4.592,1.595-9.205,3.196-13.841,4.806c-18.646,6.126-37.896,11.504-57.464,16.927c-4.9,1.322-9.822,2.65-14.766,3.983
						c-4.941,1.329-9.909,2.649-14.871,4.055c-9.928,2.793-19.99,5.497-30.106,8.28c-20.252,5.513-40.989,10.432-62.104,15.229
						l-3.982,0.785c-1.329,0.261-2.674,0.442-4.012,0.669c-2.679,0.437-5.362,0.873-8.051,1.312
						c-5.371,0.896-10.762,1.794-16.172,2.696c-10.837,1.651-21.749,3.314-32.735,4.988c-5.498,0.815-11.014,1.633-16.548,2.453
						l-4.153,0.618l-4.175,0.529c-2.784,0.354-5.574,0.711-8.368,1.066c-2.793,0.359-5.592,0.719-8.395,1.078l-4.207,0.544
						c-1.405,0.169-2.819,0.269-4.23,0.407c-5.648,0.521-11.314,1.045-16.998,1.57c-22.766,1.427-45.838,2.352-69.201,2.244
						c-11.682,0.002-23.426-0.527-35.22-1.283c-2.943-0.263-5.891-0.525-8.843-0.789l-4.43-0.396
						c-1.476-0.165-2.946-0.381-4.422-0.57c-2.948-0.391-5.9-0.781-8.857-1.174c-2.944-0.463-5.876-1.022-8.821-1.531
						c-5.897-0.956-11.722-2.322-17.602-3.508c-2.933-0.622-5.848-1.332-8.779-1.994c-2.927-0.676-5.864-1.33-8.787-2.051
						c-11.713-2.8-23.451-5.709-35.288-8.4c-2.953-0.705-5.934-1.277-8.904-1.926c-2.978-0.62-5.941-1.284-8.941-1.868
						c-5.985-1.205-11.984-2.413-17.998-3.624c-12.024-2.401-24.104-4.814-36.234-7.237c-6.094-1.051-12.198-2.104-18.316-3.159
						c-3.061-0.507-6.11-1.116-9.189-1.543c-3.077-0.437-6.157-0.873-9.24-1.311c-6.17-0.852-12.332-1.823-18.539-2.595
						c-6.22-0.694-12.451-1.391-18.695-2.088c-3.122-0.353-6.246-0.706-9.374-1.06l-4.694-0.532l-4.709-0.438
						c-6.28-0.59-12.574-1.182-18.879-1.773c-3.153-0.301-6.309-0.601-9.467-0.901c-3.158-0.306-6.328-0.519-9.497-0.785
						c-6.339-0.514-12.688-1.028-19.052-1.543c-6.346-0.646-12.715-1.148-19.098-1.618c-6.385-0.45-12.781-0.9-19.188-1.353
						c-1.603-0.101-3.205-0.227-4.809-0.304l-4.811-0.148c-3.209-0.094-6.42-0.188-9.634-0.281
						c-3.212-0.152-6.435-0.047-9.657,0.008c-3.223,0.06-6.448,0.119-9.676,0.178c-12.911,0.412-25.869,1.076-38.883,1.606
						c-0.832,0.018-1.58,0.108-2.355,0.172c-0.771,0.053-1.542,0.257-2.313,0.376c-0.77,0.17-1.538,0.381-2.308,0.572l-2.306,0.699
						l-4.634,1.529l-2.346,0.75l-3.25,0.958l-0.471,0.138l-0.234,0.069l-0.059,0.018c-0.008-0.011-0.004-0.038-0.006-0.057
						l-0.002-0.124l-0.021-0.987l-0.042-1.965l-0.044-2.493l-0.079-4.899c-0.04-3.269-0.081-6.539-0.122-9.812
						c-0.222-12.838-0.443-25.638-0.664-38.396c-0.322-12.763-0.414-25.479-0.589-38.153c-0.303-25.349-0.841-50.52-0.564-75.499
						c0.283-12.501,0.565-24.951,0.847-37.351c0.064-3.099,0.128-6.195,0.192-9.288c0.066-3.093,0.091-6.183,0.243-9.268
						c0.225-6.171,0.449-12.329,0.674-18.474c0.416-12.289,0.69-24.528,0.888-36.719c0.312-12.186,0.467-24.323,0.403-36.416
						c0.753-24.144,2.409-53.063,3.381-79.004c0.277-6.485,0.547-12.788,0.804-18.788c0.251-6,0.603-11.694,0.646-16.975
						c0.227-10.556,0.49-19.419,0.807-25.632c-0.026-2.334-0.054-4.741-0.082-7.215c-0.025-2.474-0.018-5.013-0.121-7.609
						c-0.135-5.194-0.275-10.622-0.42-16.224c-0.111-5.601-0.227-11.376-0.343-17.265c-0.024-1.472-0.05-2.951-0.074-4.438
						l-0.035-2.232l-0.113-2.229c-0.153-2.976-0.307-5.972-0.461-8.982c-0.885-12.038-2.292-24.277-3.62-36.298
						c-0.161-1.493-0.344-3.014-0.406-4.598c-0.039-0.787-0.02-1.614,0.075-2.474c0.14-0.866,0.34-1.842,1.063-2.762
						c0.201-0.212,0.409-0.424,0.629-0.612c0.243-0.153,0.496-0.299,0.75-0.433c0.5-0.187,1.035-0.345,1.493-0.354
						c0.964-0.096,1.785,0.052,2.588,0.199c1.573,0.325,3.036,0.888,4.384,1.321c5.459,1.932,10.964,3.343,16.35,4.4
						c10.781,2.131,21.792,2.593,32.653,2.029c5.434-0.325,10.836-0.905,16.194-1.681c5.365-0.764,10.646-1.848,15.943-2.894
						c10.647-2.152,21.432-2.858,32.087-3.014c10.667-0.14,21.231,0.231,31.712,0.498c5.242,0.134,10.466,0.267,15.67,0.399
						c5.204,0.127,10.388,0.29,15.552,0.496c5.163,0.192,10.308,0.384,15.432,0.575c2.562,0.101,5.118,0.201,7.669,0.302
						c2.551,0.134,5.097,0.268,7.637,0.402c10.158,0.575,20.248,0.917,30.227,1.722c4.995,0.337,9.968,0.673,14.919,1.007
						c4.944,0.291,9.903,0.685,14.811,1.293c19.594,2.946,37.969,8.453,55.664,14.279c17.71,5.828,34.802,12.133,52.069,17.092
						c8.617,2.537,17.301,4.611,25.979,6.521c2.181,0.426,4.36,0.85,6.537,1.273l3.266,0.628l3.279,0.532l6.556,1.046l6.579,0.839
						c2.188,0.308,4.389,0.503,6.589,0.696c2.201,0.188,4.395,0.423,6.6,0.57c4.413,0.26,8.826,0.52,13.243,0.78
						c4.416,0.246,8.836,0.493,13.263,0.74c2.214,0.106,4.426,0.271,6.646,0.323c2.22,0.062,4.44,0.123,6.664,0.185
						c7.271,0.247,14.406,0.489,21.466,0.729c3.527,0.175,7.042,0.153,10.543,0.218c3.501,0.054,6.991,0.107,10.479,0.16
						c3.486,0.062,6.97,0.124,10.457,0.186c1.744,0.023,3.489,0.087,5.236,0.08c1.747-0.016,3.496-0.032,5.248-0.048
						c7.01-0.055,14.068-0.109,21.238-0.165c1.793-0.012,3.592-0.024,5.399-0.036c1.797-0.085,3.602-0.169,5.415-0.254
						c1.812-0.105,3.639-0.132,5.467-0.303c1.828-0.172,3.666-0.345,5.514-0.519c7.396-0.696,14.921-1.869,22.656-3.191
						c3.858-0.722,7.775-1.456,11.747-2.261c3.968-0.84,8.004-1.657,12.101-2.583c8.194-1.807,16.693-3.711,25.469-5.873
						c24.473-6.023,48.188-12.672,70.232-19.207c1.379-0.4,2.753-0.8,4.12-1.197c1.358-0.421,2.711-0.84,4.058-1.257
						c2.69-0.835,5.354-1.663,7.99-2.481c2.637-0.817,5.244-1.626,7.822-2.425c2.576-0.802,5.104-1.667,7.607-2.481
						c10.008-3.314,19.498-6.458,28.342-9.388c2.217-0.717,4.402-1.423,6.556-2.119c2.165-0.667,4.298-1.325,6.399-1.973
						c4.201-1.299,8.275-2.56,12.223-3.78c0.99-0.294,1.955-0.635,2.943-0.886c0.986-0.255,1.964-0.507,2.934-0.758
						c1.939-0.502,3.846-0.995,5.719-1.48c1.865-0.521,3.729-0.877,5.55-1.27c1.821-0.388,3.61-0.769,5.364-1.143
						c7.007-1.512,13.512-2.722,19.347-4.274c1.465-0.363,2.896-0.718,4.292-1.063c0.35-0.087,0.695-0.174,1.041-0.26
						c0.336-0.111,0.67-0.222,1.002-0.332c0.664-0.22,1.319-0.438,1.967-0.652c1.294-0.43,2.554-0.849,3.779-1.256
						c1.199-0.487,2.365-0.962,3.496-1.422c1.131-0.463,2.229-0.911,3.293-1.347c1.051-0.468,2.069-0.921,3.054-1.359
						c1.971-0.876,3.808-1.692,5.507-2.447c1.703-0.754,3.27-1.446,4.697-2.078c1.406-0.658,2.677-1.252,3.809-1.781
						c4.51-2.188,6.805-3.363,6.805-3.363c-0.027-0.059-0.625,0.182-1.781,0.711c-1.148,0.542-2.863,1.352-5.131,2.424
						c-1.131,0.523-2.4,1.111-3.805,1.762c-1.43,0.633-2.997,1.326-4.701,2.08c-1.697,0.762-3.531,1.585-5.498,2.468
						c-0.982,0.443-1.998,0.902-3.046,1.376c-1.06,0.441-2.151,0.896-3.278,1.366c-1.127,0.468-2.287,0.95-3.481,1.446
						c-1.22,0.417-2.474,0.845-3.762,1.285c-0.645,0.22-1.298,0.443-1.958,0.669c-0.331,0.113-0.664,0.228-0.998,0.342
						c-0.344,0.089-0.689,0.179-1.037,0.269c-1.393,0.359-2.818,0.729-4.279,1.105c-5.817,1.612-12.31,2.897-19.297,4.498
						c-1.748,0.396-3.531,0.799-5.347,1.211c-1.813,0.416-3.672,0.796-5.526,1.343c-1.862,0.51-3.758,1.028-5.686,1.556
						c-0.964,0.264-1.936,0.529-2.916,0.798c-0.98,0.264-1.943,0.618-2.928,0.927c-3.926,1.279-7.979,2.6-12.156,3.961
						c-2.09,0.68-4.211,1.37-6.363,2.07c-2.141,0.73-4.314,1.472-6.518,2.223c-8.871,2.855-18.22,5.93-28.035,9.194
						c-2.454,0.815-4.938,1.642-7.453,2.478c-2.524,0.8-5.079,1.609-7.664,2.429c-2.584,0.823-5.196,1.656-7.839,2.499
						c-2.64,0.851-5.312,1.705-8.034,2.5c-21.697,6.615-45.369,13.543-71.133,19.757c-8.457,1.916-16.547,3.64-24.342,5.31
						c-7.79,1.69-15.3,3.245-22.628,4.645c-14.652,2.783-28.652,4.779-42.687,5.193c-7.008,0.141-13.996,0.281-21.059,0.423
						c-3.531,0.063-7.082,0.128-10.663,0.192c-3.581-0.047-7.192-0.094-10.845-0.142c-7.307-0.113-14.783-0.215-22.518-0.416
						c-7.729-0.369-15.719-0.781-24.062-1.25c-8.353-0.241-16.921-0.937-25.685-1.488c-4.38-0.293-8.807-0.59-13.273-0.889
						c-2.234-0.118-4.474-0.402-6.725-0.6c-2.249-0.231-4.515-0.396-6.77-0.729c-2.258-0.298-4.524-0.597-6.799-0.896
						c-2.271-0.324-4.535-0.733-6.813-1.098l-3.419-0.564l-3.411-0.662c-2.275-0.451-4.556-0.902-6.841-1.354
						c-9.107-1.977-18.223-4.266-27.271-6.871c-18.087-5.272-35.871-11.703-53.562-17.262c-17.668-5.585-35.304-10.3-52.551-12.592
						c-8.061-1.183-17.154-1.635-26.812-2.36c-2.415-0.17-4.868-0.342-7.354-0.517c-2.484-0.178-5.002-0.363-7.554-0.458
						c-5.1-0.239-10.311-0.482-15.593-0.729c-10.561-0.573-21.426-0.854-32.26-1.276c-10.838-0.408-21.65-0.815-32.129-1.21
						c-10.479-0.351-21.033-0.808-31.652-0.734c-10.609,0.088-21.325,0.747-31.869,2.876c-5.291,1.044-10.613,2.147-16,2.938
						c-5.386,0.805-10.818,1.428-16.291,1.811c-10.943,0.678-22.071,0.396-33.069-1.498c-5.483-0.994-10.929-2.344-16.243-4.146
						c-1.352-0.415-2.644-0.907-3.933-1.214c-0.324-0.096-0.646-0.144-0.966-0.198c-0.324-0.07-0.638-0.094-0.947-0.105
						c-0.625-0.048-1.206,0.04-1.627,0.265c-0.854,0.385-1.114,1.709-1.136,3.014c-0.025,1.323,0.11,2.703,0.263,4.084
						c0.632,5.572,1.308,11.151,1.905,16.77c0.303,2.807,0.605,5.619,0.909,8.435c0.246,2.823,0.494,5.651,0.741,8.483
						c0.294,2.828,0.397,5.678,0.54,8.527l0.213,4.278c0.072,1.428,0.154,2.856,0.15,4.283c0.075,5.71,0.151,11.437,0.228,17.179
						c0.085,5.742,0.17,11.501,0.256,17.274c0.026,2.888,0.134,5.778,0.1,8.673c-0.021,2.896-0.042,5.794-0.063,8.697
						c-0.166,5.809-0.294,11.632-0.394,17.471c-0.043,2.919-0.086,5.842-0.129,8.77c-0.062,2.926-0.009,5.859-0.159,8.791
						c-0.393,11.734-0.785,23.529-1.182,35.383c-0.344,11.861-0.891,23.75-1.411,35.708c-0.295,5.977-0.591,11.967-0.887,17.972
						c-0.273,6.007-0.577,12.027-0.921,18.06c-0.373,12.074-0.747,24.203-1.123,36.386c-0.252,12.18-0.504,24.412-0.758,36.697
						c-0.153,6.142-0.307,12.296-0.461,18.463c-0.113,3.083-0.1,6.173-0.129,9.265c-0.027,3.093-0.056,6.188-0.084,9.286
						c-0.13,12.395-0.336,24.84-0.647,37.336c0.308,24.966,0.419,50.138,0.298,75.485c-0.037,12.674-0.156,25.395,0.082,38.142
						c0.104,6.375,0.207,12.76,0.31,19.155c0.144,6.396,0.378,12.803,0.611,19.218c0.034,3.273,0.067,6.545,0.102,9.813l0.062,4.901
						l0.033,2.409l0.001,0.583l0.002,0.3c-0.02,0.077,0.042,0.044,0.087,0.032l0.14-0.038l1.59-0.452l2.322-0.73l4.658-1.514
						l2.365-0.703c0.805-0.197,1.604-0.412,2.416-0.586c0.826-0.127,1.634-0.334,2.474-0.391c0.835-0.066,1.684-0.156,2.485-0.168
						c13.002-0.461,25.968-1.054,38.907-1.441c3.236-0.056,6.471-0.111,9.702-0.168c3.232-0.055,6.461-0.163,9.689-0.02
						c3.229,0.081,6.455,0.162,9.679,0.244l4.834,0.119c1.608,0.065,3.21,0.178,4.814,0.265c6.415,0.368,12.819,0.736,19.212,1.104
						c6.394,0.358,12.775,0.721,19.141,1.189c6.363,0.575,12.715,1.149,19.055,1.723c3.169,0.287,6.34,0.519,9.5,0.837
						c3.161,0.312,6.319,0.622,9.475,0.933c6.312,0.597,12.611,1.191,18.898,1.786l4.715,0.432l4.7,0.524
						c3.134,0.345,6.263,0.69,9.39,1.034c6.256,0.676,12.499,1.35,18.73,2.021c6.223,0.748,12.41,1.696,18.602,2.526
						c3.094,0.428,6.186,0.855,9.273,1.282c3.09,0.418,6.145,1.02,9.215,1.52c6.131,1.051,12.25,2.099,18.356,3.145
						c12.12,2.532,24.188,5.054,36.2,7.563c6.006,1.246,11.998,2.49,17.977,3.731c2.991,0.597,5.972,1.278,8.953,1.912
						c2.977,0.66,5.969,1.246,8.924,1.96c11.854,2.729,23.599,5.646,35.305,8.416c2.923,0.714,5.854,1.357,8.777,2.022
						c2.928,0.649,5.841,1.347,8.768,1.953c5.863,1.151,11.682,2.478,17.552,3.381c2.928,0.513,5.845,1.079,8.77,1.551
						c2.936,0.402,5.866,0.805,8.794,1.207c1.464,0.195,2.924,0.418,4.39,0.591l4.408,0.421c2.938,0.282,5.87,0.564,8.8,0.846
						c11.742,0.834,23.445,1.455,35.099,1.524c23.302,0.247,46.373-0.626,69.083-2.364c5.666-0.534,11.315-1.066,16.947-1.597
						c1.407-0.139,2.816-0.239,4.219-0.407l4.199-0.541c2.798-0.356,5.591-0.713,8.38-1.068c2.789-0.352,5.573-0.702,8.354-1.053
						l4.167-0.521l4.15-0.611c5.529-0.813,11.04-1.624,16.533-2.433c5.496-0.779,10.963-1.664,16.416-2.502
						c5.449-0.861,10.895-1.657,16.294-2.561c5.39-0.947,10.761-1.893,16.111-2.833c2.675-0.472,5.346-0.943,8.011-1.414
						c1.331-0.246,2.669-0.448,3.99-0.73l3.958-0.854c21.187-4.174,41.946-8.935,62.151-14.511
						c10.096-2.814,20.105-5.601,30.023-8.517c4.955-1.466,9.907-2.852,14.834-4.249c4.925-1.404,9.829-2.802,14.713-4.194
						c19.594-5.327,38.846-10.561,57.488-16.529c4.634-1.569,9.246-3.132,13.837-4.687c2.31-0.742,4.553-1.642,6.812-2.485
						c2.256-0.854,4.506-1.704,6.75-2.554l3.363-1.271c1.164-0.429,2.148-0.825,3.107-1.427c0.947-0.595,1.87-1.265,2.64-2.054
						c0.8-0.759,1.459-1.654,1.788-2.547c0.187-0.39,0.25-1.019,0.34-1.586l0.266-1.721c0.074-0.575,0.209-1.142,0.236-1.725
						l0.102-1.746c0.201-2.319,0.113-4.668,0.097-7.003c-2.209-37.678-4.33-73.852-6.354-108.38
						c-0.304-4.316-0.359-8.619-0.54-12.891c-0.153-4.272-0.305-8.519-0.456-12.739c-0.303-8.441-0.601-16.778-0.896-25.008
						c-0.239-16.469-0.474-32.512-0.701-48.112c-0.1-31.191-0.171-60.615-0.118-88.146c0.533-57.157,0.12-102.524,0.543-141.328
						c0.213-38.821,0.378-68.981,0.49-89.436c0.023-10.228,0.041-18.028,0.053-23.272c-0.012-2.622-0.021-4.605-0.027-5.933
						c-0.012-0.664-0.021-1.163-0.027-1.497C932.012,27.156,932,26.988,931.984,26.988z"/>
				</g>
				<g>
					<path fill-rule="evenodd" clip-rule="evenodd" d="M951.145,251.715c0-0.024,0.346-0.051,1.157-0.08l0.285-0.011l-0.008-0.271
						c-0.21-7.026-0.206-51.068-0.431-125.353c0.21-20.346,0.287-42.957,0.24-67.702c-0.052-12.373-0.105-25.278-0.162-38.701
						c-0.008-1.678-0.021-3.365-0.24-5.037c-0.133-0.833-0.223-1.676-0.474-2.487l-0.321-1.229l-0.457-1.188
						c-1.195-3.155-3.537-5.999-6.688-7.365l-1.197-0.46l-1.257-0.266c-0.415-0.118-0.849-0.105-1.277-0.133
						c-0.428-0.005-0.857-0.084-1.286-0.008l-1.286,0.132c-0.428,0.051-0.842,0.196-1.264,0.289c-0.855,0.16-1.645,0.55-2.457,0.857
						c-1.562,0.748-3.08,1.666-4.65,2.553c-1.558,0.891-3.123,1.784-4.694,2.683c-1.548,0.944-3.201,1.701-4.849,2.487
						c-1.646,0.787-3.301,1.579-4.961,2.373c-0.822,0.417-1.678,0.763-2.536,1.104c-0.856,0.348-1.715,0.695-2.575,1.044
						c-1.721,0.696-3.449,1.395-5.184,2.097c-3.539,1.21-7.08,2.521-10.701,3.672c-3.639,1.09-7.279,2.303-11.004,3.304
						c-7.416,2.129-15,4.081-22.656,6.168c-3.844,0.996-7.667,2.174-11.543,3.272c-3.87,1.115-7.77,2.238-11.696,3.369
						c-15.743,4.396-31.795,9.416-48.328,14.379c-8.269,2.483-16.644,5-25.124,7.547c-4.242,1.269-8.51,2.544-12.805,3.828
						c-4.291,1.294-8.654,2.442-13.019,3.68c-8.729,2.469-17.56,4.967-26.493,7.494c-8.963,2.417-18.025,4.87-27.21,7.272
						c-18.369,4.776-37.276,9.287-56.88,12.173c-2.452,0.345-4.9,0.761-7.373,1.05c-2.476,0.255-4.957,0.512-7.445,0.769
						c-4.971,0.605-9.994,0.797-15.032,1.139c-5.037,0.381-10.109,0.498-15.204,0.665c-2.548,0.066-5.101,0.202-7.661,0.213
						c-2.56,0.016-5.126,0.032-7.698,0.048c-20.58,0.1-41.527-0.771-62.79-2.076c-5.316-0.341-10.649-0.736-16.003-1.166
						c-2.677-0.213-5.359-0.428-8.047-0.642c-2.688-0.251-5.381-0.503-8.08-0.755c-10.783-1.127-21.614-2.672-32.424-4.805
						c-10.816-2.101-21.564-5.012-32.133-8.698c-10.58-3.659-21.059-7.692-31.979-10.743c-21.457-7.164-43.841-12.632-66.796-16.506
						c-22.959-3.883-46.481-6.181-70.325-7.223c-23.825-1.471-48.02-1.59-72.453-0.778c-6.109,0.165-12.231,0.52-18.373,0.774
						c-6.14,0.3-12.291,0.722-18.463,1.078c-12.317,0.768-24.625,2.538-37.087,3.845c-6.227,0.634-12.492,1.142-18.797,1.368
						c-6.308,0.178-12.652,0.001-18.979-0.65c-6.334-0.64-12.604-1.995-18.74-3.828l-4.567-1.508l-2.167-0.664
						c-0.734-0.117-1.466-0.29-2.203-0.349c-2.943-0.226-5.957,0.451-8.383,2.162c-2.431,1.682-4.385,4.092-5.637,6.854
						c-1.293,2.771-1.926,5.755-2.211,8.89c-0.621,6.37-1.281,12.732-1.311,19.089c-0.064,3.186,0.154,6.332,0.445,9.504
						c0.283,3.22,0.566,6.442,0.85,9.668c0.26,3.229,0.609,6.454,0.787,9.694c0.159,3.24,0.318,6.484,0.478,9.732
						c1.472,25.979,1.103,52.223,0.221,78.596c-0.503,13.182-1.007,26.414-1.514,39.698c-0.461,13.284-0.925,26.619-1.39,40.005
						c-2.717,53.451-2.939,107.761-5.44,162.628c-0.442,13.454-0.623,26.873-0.817,40.25c-0.074,6.688-0.148,13.366-0.222,20.032
						c-0.028,3.333-0.056,6.664-0.084,9.991c0.041,3.328,0.082,6.652,0.123,9.975c0.166,13.286,0.332,26.525,0.497,39.716
						c0.033,3.297,0.067,6.591,0.102,9.882l0.043,4.935c0.004,1.646,0.023,3.287,0.117,4.921c0.139,3.272,0.278,6.541,0.417,9.808
						l0.197,4.896c0.081,1.631,0.248,3.257,0.366,4.885c0.449,6.521,0.738,13.045,1.449,19.527c0.311,3.245,0.621,6.487,0.931,9.726
						c0.317,3.239,0.745,6.464,1.114,9.691c0.396,3.219,0.743,6.464,1.185,9.654c0.46,3.131,1.646,6.195,3.722,8.584
						c1.074,1.135,2.294,2.191,3.754,2.805c0.351,0.182,0.708,0.347,1.093,0.44l1.133,0.342c0.782,0.086,1.559,0.292,2.354,0.229
						c1.591,0.068,3.151-0.363,4.653-0.863c1.462-0.625,2.881-1.382,4.131-2.383c1.275-0.952,2.444-2.1,3.768-3.026
						c1.284-0.982,2.669-1.822,4.075-2.612c2.844-1.533,5.917-2.606,9.063-3.285c3.156-0.646,6.375-0.917,9.584-0.953
						c3.213-0.016,6.409,0.148,9.604,0.215c12.779,0.342,25.508,0.525,38.188,0.49c25.319,0.846,55.63,2.367,82.86,3.719
						c3.404,0.175,6.76,0.346,10.052,0.515c1.646,0.086,3.276,0.171,4.888,0.255c1.611,0.127,3.205,0.253,4.778,0.377
						c6.293,0.52,12.27,0.999,17.796,1.508c5.511,0.648,10.58,1.246,15.083,1.775c2.249,0.281,4.357,0.533,6.304,0.808
						c1.94,0.314,3.725,0.604,5.337,0.864c4.875,0.538,10.057,1.109,15.483,1.708c5.404,0.771,11.053,1.575,16.882,2.405
						c1.457,0.214,2.925,0.43,4.403,0.646c1.473,0.25,2.956,0.501,4.448,0.754c2.983,0.52,6.004,1.046,9.054,1.576
						c3.048,0.544,6.132,1.059,9.224,1.649c3.086,0.622,6.192,1.249,9.314,1.88c3.12,0.636,6.254,1.274,9.395,1.914
						c3.141,0.639,6.26,1.404,9.392,2.104c3.128,0.719,6.255,1.438,9.372,2.153c1.558,0.364,3.112,0.727,4.664,1.089
						c1.544,0.392,3.086,0.781,4.624,1.171c6.143,1.573,12.219,3.129,18.167,4.652c5.931,1.556,11.733,3.077,17.348,4.55
						c11.24,2.907,22.475,5.523,33.666,7.99c11.216,2.338,22.381,4.587,33.557,6.291c11.157,1.828,22.312,3.147,33.406,4.151
						c5.558,0.397,11.089,0.881,16.618,1.069c2.764,0.11,5.519,0.293,8.273,0.342c2.756,0.055,5.505,0.11,8.25,0.166
						c2.744,0.076,5.485,0.016,8.221,0.012c2.735-0.029,5.467,0.004,8.191-0.071c5.449-0.156,10.879-0.229,16.283-0.521
						c10.812-0.417,21.523-1.248,32.139-2.141c21.221-1.949,42.021-4.688,62.351-8.022c20.434-2.791,40.193-5.727,59.419-9.16
						c19.216-3.489,37.902-7.406,56.229-11.795c18.298-4.501,36.221-9.495,53.918-15.061c17.73-5.48,35.391-11.041,53.167-16.764
						c14.556-4.642,28.616-8.903,42.633-13.138c7.015-2.097,14.015-4.189,21.065-6.297c3.521-1.069,7.109-2.027,10.504-3.282
						c3.323-1.288,6.824-2.798,8.307-5.74c1.506-2.938,1.297-6.837,1.156-10.572c-0.206-3.823-0.414-7.685-0.625-11.59
						c-0.43-7.812-0.868-15.806-1.32-24.045c-0.475-8.239-0.964-16.725-1.471-25.521c-0.478-8.8-0.973-17.909-1.487-27.396
						c-0.447-6.604-0.679-13.184-0.952-19.705c-0.248-6.522-0.495-12.989-0.738-19.383c-0.212-12.787-0.418-25.281-0.617-37.342
						c-0.322-24.123-0.621-46.516-0.881-66.059c-0.121-39.069-0.359-69.386-0.668-89.935c-0.289-20.55-0.574-31.331-0.574-31.331
						c-0.064,0.001-0.101,0.676-0.111,2.008c-0.012,1.333,0.004,3.323,0.039,5.955c0.1,5.265,0.248,13.097,0.442,23.371
						c0.403,20.547,0.997,50.859,1.763,89.919c0.09,19.543,0.473,41.273,0.996,65.061c0.277,11.893,0.568,24.301,0.869,37.208
						c0.212,6.451,0.524,13.024,0.788,19.722c0.29,6.696,0.507,13.518,0.942,20.45c0.348,9.083,0.703,17.752,1.104,26.102
						c0.477,8.345,0.936,16.374,1.383,24.187c0.49,7.81,0.969,15.401,1.438,22.875c0.245,3.735,0.489,7.442,0.731,11.131
						c0.115,1.847,0.263,3.681,0.35,5.525c0.092,1.842,0.146,3.693-0.047,5.545c-0.184,1.839-0.635,3.723-1.68,5.319
						c-1.031,1.606-2.57,2.798-4.183,3.723c-1.616,0.948-3.347,1.642-5.081,2.293c-1.74,0.643-3.509,1.211-5.277,1.756
						c-7.081,2.166-14.237,4.355-21.562,6.596c-14.654,4.46-30.027,8.995-46.845,13.894c-16.748,5.122-34.46,10.539-52.698,16.118
						c-18.232,5.646-37.158,10.917-56.323,15.627c-19.173,4.681-38.591,8.73-57.725,12.324c-4.789,0.869-9.556,1.733-14.294,2.594
						c-4.75,0.787-9.471,1.571-14.156,2.349c-9.369,1.553-18.612,2.946-27.654,4.323c-16.98,2.451-37.772,5.407-59.886,7.596
						c-11.058,1.067-22.44,1.982-33.825,2.449c-5.689,0.301-11.381,0.387-17.023,0.491c-2.82,0.065-5.632-0.005-8.425-0.008
						c-2.793-0.03-5.568-0.011-8.321-0.137c-2.752-0.077-5.509-0.153-8.271-0.23c-2.763-0.069-5.525-0.273-8.296-0.404
						c-5.543-0.229-11.089-0.752-16.659-1.185c-11.123-1.072-22.298-2.44-33.477-4.273c-11.199-1.71-22.389-3.92-33.646-6.153
						c-11.23-2.362-22.522-4.809-33.841-7.457c-11.27-2.815-22.611-5.647-34.022-8.498c-2.856-0.69-5.7-1.453-8.578-2.088
						c-2.875-0.652-5.754-1.305-8.637-1.959c-5.766-1.311-11.543-2.65-17.381-3.788c-2.914-0.595-5.832-1.189-8.754-1.785
						c-2.924-0.59-5.844-1.218-8.793-1.719c-5.888-1.056-11.792-2.114-17.713-3.176c-5.943-0.918-11.904-1.839-17.882-2.762
						l-4.488-0.674l-4.509-0.572c-3.008-0.379-6.021-0.759-9.036-1.14c-24.1-3.438-48.653-5.24-73.507-5.988
						c-24.838-1.007-49.904-2.144-75.22-3.472c-12.663-0.401-25.384-0.805-38.161-1.211c-3.194-0.084-6.408-0.255-9.53-0.238
						c-3.138,0.034-6.252,0.308-9.276,0.938c-3.012,0.665-5.926,1.703-8.616,3.179c-1.331,0.763-2.642,1.57-3.858,2.52l-0.919,0.701
						l-0.881,0.754c-0.554,0.483-1.244,1.044-1.919,1.589c-1.344,1.095-2.897,1.954-4.523,2.662
						c-1.677,0.587-3.439,1.085-5.278,1.035c-0.913,0.073-1.822-0.136-2.731-0.239c-0.443-0.116-0.885-0.251-1.326-0.38
						c-0.449-0.109-0.869-0.294-1.282-0.499c-1.711-0.705-3.148-1.904-4.397-3.201c-2.418-2.713-3.758-6.129-4.302-9.531
						c-0.492-3.275-0.867-6.46-1.3-9.7c-0.404-3.23-0.864-6.455-1.211-9.7c-0.334-3.247-0.668-6.498-1.003-9.751
						c-0.75-6.497-1.059-13.058-1.493-19.608C-1.727,547.307,1.1,494.09,1.395,440.237c2.562-54.875,3.668-109.159,4.969-162.662
						c0.641-13.382,1.182-26.716,1.65-40.001c0.553-13.283,1.068-26.515,1.481-39.695c0.802-26.357,1.013-52.54-0.448-78.415
						c-0.127-3.237-0.254-6.471-0.381-9.7c-0.146-3.229-0.468-6.441-0.698-9.658c-0.257-3.215-0.513-6.427-0.769-9.634
						c-0.274-3.236-0.475-6.498-0.389-9.735c0.075-6.483,0.779-12.892,1.431-19.259c0.304-3.212,1.002-6.495,2.413-9.471
						c1.373-2.988,3.524-5.663,6.277-7.551c2.742-1.923,6.215-2.705,9.521-2.433c0.827,0.068,1.641,0.257,2.457,0.395l2.357,0.726
						l4.482,1.481c6.021,1.799,12.18,3.128,18.416,3.743c6.231,0.627,12.492,0.782,18.731,0.576
						c6.241-0.254,12.457-0.795,18.65-1.473c12.408-1.273,24.771-2.98,37.173-3.672c6.183-0.316,12.344-0.694,18.495-0.952
						c6.153-0.213,12.284-0.526,18.404-0.657c24.476-0.671,48.695-0.503,72.591,0.657c23.904,0.967,47.485,3.362,70.508,7.266
						c23.023,3.896,45.48,9.307,67.15,16.112c10.851,3.355,21.369,7.613,31.842,11.348c10.45,3.76,21.136,6.678,31.905,8.732
						c10.764,2.088,21.563,3.534,32.317,4.537c2.691,0.219,5.377,0.438,8.059,0.657c2.688,0.18,5.37,0.359,8.047,0.539
						c5.355,0.359,10.689,0.681,16.004,0.948c21.23,1.402,42.127,2.411,62.655,2.459c2.565,0.003,5.126,0.006,7.68,0.009
						c2.555,0.007,5.1-0.109,7.642-0.157c5.081-0.129,10.143-0.209,15.166-0.553c5.023-0.306,10.041-0.462,14.987-1.031
						c2.479-0.238,4.951-0.477,7.417-0.715c2.463-0.271,4.906-0.671,7.351-0.999c19.55-2.753,38.448-7.164,56.808-11.911
						c9.18-2.389,18.24-4.845,27.195-7.287c8.914-2.572,17.727-5.115,26.436-7.628c4.35-1.279,8.695-2.468,12.973-3.803
						c4.281-1.322,8.536-2.638,12.766-3.943c8.457-2.618,16.809-5.202,25.054-7.755c16.501-5.09,32.524-10.208,48.276-14.67
						c3.928-1.145,7.828-2.281,11.701-3.41c3.879-1.108,7.705-2.294,11.553-3.296c7.672-2.099,15.248-4.046,22.641-6.149
						c3.719-0.99,7.332-2.183,10.957-3.253c3.604-1.128,7.117-2.41,10.637-3.589c1.723-0.684,3.438-1.364,5.146-2.042
						c0.854-0.339,1.706-0.677,2.558-1.014c0.854-0.332,1.702-0.667,2.518-1.072c1.648-0.771,3.289-1.538,4.924-2.303
						c1.637-0.762,3.279-1.493,4.816-2.41c1.627-0.892,3.244-1.776,4.851-2.657c0.81-0.441,1.617-0.883,2.421-1.322l1.291-0.682
						l0.645-0.334l0.686-0.263l1.367-0.519c0.473-0.13,0.955-0.232,1.431-0.348l0.715-0.165l0.736-0.07
						c0.491-0.035,0.979-0.104,1.472-0.105c1.98,0.008,3.941,0.497,5.695,1.367c1.758,0.893,3.186,2.248,4.373,3.718
						c0.535,0.779,1.102,1.539,1.484,2.389c0.467,0.814,0.768,1.686,1.084,2.548c0.326,0.859,0.474,1.761,0.714,2.635
						c0.13,0.891,0.28,1.78,0.362,2.668c0.033,0.884,0.096,1.792,0.1,2.647c-0.003,0.852-0.006,1.699-0.008,2.545
						c-0.016,13.524-0.031,26.362-0.047,38.599c-0.006,24.472,0.001,46.539-0.201,66.885c-0.404,74.284-0.611,118.326-0.471,125.353
						l0.006,0.287l-0.299,0.012c-0.406,0.015-0.695,0.025-0.884,0.033C951.23,251.694,951.145,251.705,951.145,251.715z"/>
				</g>
			</g>
		</g>
	</g>
	<g>
		<path fill="none" stroke="#000000" stroke-width="0.5" d="M503.874,410.527"/>
		<path fill="#FFCB05" d="M503.726,410.527"/>
		<path fill="none" stroke="#000000" stroke-width="0.5" d="M503.874,410.527"/>
		<polygon fill="#ECCE1C" stroke="#000000" stroke-width="0.2" points="477.009,238.748 477.009,247.875 467.629,247.875 
			467.629,253.708 477.009,253.708 477.009,278.306 482.842,278.306 482.842,253.708 492.479,253.708 492.479,247.875 
			482.842,247.875 482.842,238.748 		"/>
		<path fill="#39B54A" stroke="#000000" stroke-width="0.2" stroke-linecap="round" stroke-linejoin="round" d="M441.259,492.059
			c4.057,5.576,7.606,10.647,10.143,8.112c2.535-2.536-2.03-7.097-5.581-10.647L441.259,492.059z"/>
		<path fill="#ECCE1C" stroke="#000000" stroke-width="0.2" d="M561.447,327.747v103.966c0,13.182,5.576,19.778,11.157,23.324
			c0,8.116,7.102,21.809,14.198,21.809c0.51,6.087,8.621,21.805,16.228,21.805V303.408c0-22.314-14.702-27.896-22.31-27.896
			c-7.605,0-18.258,0.51-19.778,11.157l-3.046,20.793l-21.804,10.652h-62.888l-21.804-10.652l-3.046-20.793
			c-1.521-10.647-12.167-11.157-19.773-11.157s-22.314,5.581-22.314,27.896V498.65c7.606,0,15.718-15.718,16.229-21.805
			c7.096,0,14.197-13.692,14.197-21.809c5.581-3.546,11.157-10.143,11.157-23.324V327.747H561.447z"/>
		<path fill="#ECCE1C" stroke="#000000" stroke-width="0.2" d="M513.269,454.027c8.116,15.213,22.824,37.521,34.486,50.709
			c-8.111,4.061-14.198,8.117-18.764,11.157l-19.778-35.497l13.692,40.568c-8.112,4.566-14.198,9.127-18.254,14.197
			c-4.061-5.07-10.146-9.631-18.259-14.197l13.693-40.568l-19.779,35.497c-4.565-3.04-10.652-7.097-18.764-11.157
			c11.662-13.188,26.37-35.496,34.487-50.709H513.269z"/>
		<polyline fill="none" stroke="#000000" stroke-width="0.2" stroke-linecap="round" stroke-linejoin="round" points="
			422.496,476.846 422.496,327.747 421.48,314.564 414.379,329.272 406.772,318.368 427.057,291.235 		"/>
		<polyline fill="none" stroke="#000000" stroke-width="0.2" stroke-linecap="round" stroke-linejoin="round" points="
			422.496,327.747 436.188,313.55 436.693,328.258 436.693,455.037 		"/>
		
			<line fill="none" stroke="#000000" stroke-width="0.2" stroke-linecap="round" stroke-linejoin="round" x1="436.693" y1="328.258" x2="451.401" y2="307.463"/>
		<polyline fill="none" stroke="#000000" stroke-width="0.2" stroke-linecap="round" stroke-linejoin="round" points="
			406.268,298.842 427.057,291.235 426.046,276.527 		"/>
		<polyline fill="none" stroke="#000000" stroke-width="0.2" stroke-linecap="round" stroke-linejoin="round" points="
			417.425,304.423 421.48,314.564 428.582,302.393 436.188,313.55 449.371,291.74 		"/>
		<polyline fill="none" stroke="#000000" stroke-width="0.2" stroke-linecap="round" stroke-linejoin="round" points="
			428.582,302.393 427.057,291.235 439.229,277.037 		"/>
		
			<line fill="none" stroke="#000000" stroke-width="0.2" stroke-linecap="round" stroke-linejoin="round" x1="434.158" y1="283.629" x2="439.739" y2="307.969"/>
		<polyline fill="none" stroke="#000000" stroke-width="0.2" stroke-linecap="round" stroke-linejoin="round" points="
			446.835,314.564 453.427,327.242 463.063,313.045 		"/>
		<polyline fill="none" stroke="#000000" stroke-width="0.2" stroke-linecap="round" stroke-linejoin="round" points="
			461.796,315.07 468.645,326.737 471.18,317.605 		"/>
		<polyline fill="none" stroke="#000000" stroke-width="0.2" stroke-linecap="round" stroke-linejoin="round" points="
			586.803,476.846 586.803,327.747 587.817,314.564 594.919,329.272 602.525,318.621 582.242,291.235 		"/>
		<polyline fill="none" stroke="#000000" stroke-width="0.2" stroke-linecap="round" stroke-linejoin="round" points="
			586.803,327.747 573.115,313.55 572.604,328.258 572.604,455.037 		"/>
		
			<line fill="none" stroke="#000000" stroke-width="0.2" stroke-linecap="round" stroke-linejoin="round" x1="572.604" y1="328.258" x2="557.896" y2="307.463"/>
		<polyline fill="none" stroke="#000000" stroke-width="0.2" stroke-linecap="round" stroke-linejoin="round" points="
			603.03,298.842 582.242,291.235 583.257,276.527 		"/>
		<polyline fill="none" stroke="#000000" stroke-width="0.2" stroke-linecap="round" stroke-linejoin="round" points="
			591.873,304.423 587.817,314.564 580.721,302.393 573.115,313.55 559.928,291.74 		"/>
		<polyline fill="none" stroke="#000000" stroke-width="0.2" stroke-linecap="round" stroke-linejoin="round" points="
			580.721,302.393 582.242,291.235 570.069,277.037 		"/>
		
			<line fill="none" stroke="#000000" stroke-width="0.2" stroke-linecap="round" stroke-linejoin="round" x1="575.141" y1="283.629" x2="569.559" y2="307.969"/>
		<polyline fill="none" stroke="#000000" stroke-width="0.2" stroke-linecap="round" stroke-linejoin="round" points="
			562.463,314.564 555.871,327.242 546.234,313.045 		"/>
		<polyline fill="none" stroke="#000000" stroke-width="0.2" stroke-linecap="round" stroke-linejoin="round" points="
			547.25,314.564 540.653,326.737 538.118,317.605 		"/>
		
			<circle fill="#ECCE1C" stroke="#000000" stroke-width="0.2" stroke-linecap="round" stroke-linejoin="round" cx="560.433" cy="495.355" r="5.019"/>
		<path fill="#FFCB05" stroke="#000000" stroke-width="0.2" stroke-linecap="round" stroke-linejoin="round" d="M560.433,495.357"/>
		<polygon fill="#ECCE1C" stroke="#000000" stroke-width="0.2" stroke-linecap="round" stroke-linejoin="round" points="
			567.023,477.861 572.353,457.067 576.66,459.603 609.117,394.69 610.385,383.028 620.784,374.148 622.557,388.856 
			613.936,397.226 581.989,462.644 586.55,465.437 571.337,482.422 		"/>
		<path fill="#ED1C24" stroke="#000000" stroke-width="0.2" stroke-linecap="round" stroke-linejoin="round" d="M546.992,440.329
			c3.551,4.061,6.344,10.399,6.344,17.243l10.395,16.991c6.849-2.283,8.622,1.521,11.41,5.323c1.52,2.03,2.03,5.581-0.253,6.592
			c2.788,4.565-0.763,7.101-3.551,6.086c-0.253,2.283-5.323,2.283-7.858-0.253c-2.793-2.03-4.062-4.308-3.551-7.354
			c-3.551-3.294-12.426-17.243-15.213-22.314c-5.071,0-9.89-7.097-14.203-14.198L546.992,440.329z"/>
		<polyline fill="none" stroke="#000000" stroke-width="0.2" stroke-linecap="round" stroke-linejoin="round" points="
			553.336,457.572 549.022,454.279 549.527,459.855 545.982,457.83 544.715,462.644 		"/>
		<path fill="none" stroke="#000000" stroke-width="0.2" stroke-linecap="round" stroke-linejoin="round" d="M574.888,486.479
			c-3.298-4.057-9.384-6.844-10.652-5.071c-1.268,1.777-0.757,4.565,7.102,11.157"/>
		<path fill="none" stroke="#000000" stroke-width="0.2" stroke-linecap="round" stroke-linejoin="round" d="M564.746,485.973
			c-2.283-2.788-3.551-1.772-4.818-1.015"/>
		<path fill="#39B54A" stroke="#000000" stroke-width="0.2" stroke-linecap="round" stroke-linejoin="round" d="M438.64,477.129
			c-8.82-7.161-13.515-16.412-12.643-27.049C432.256,453.799,439.457,467.813,438.64,477.129z"/>
		<path fill="#39B54A" stroke="#000000" stroke-width="0.22" stroke-linecap="round" stroke-linejoin="round" d="M438.625,477.271
			c-4.834-10.359-4.397-19.441,2.347-25.854C445.151,457.875,444.587,471.691,438.625,477.271z"/>
		<path fill="#39B54A" stroke="#000000" stroke-width="0.22" stroke-linecap="round" stroke-linejoin="round" d="M438.625,477.271
			c-4.834-10.359-12.073-15.861-21.319-14.821C419.569,469.805,430.513,478.253,438.625,477.271z"/>
		<path fill="#39B54A" stroke="#000000" stroke-width="0.22" stroke-linecap="round" stroke-linejoin="round" d="M414.805,425.85
			c-9.701-7.874-14.866-18.056-13.91-29.753C407.783,400.188,415.706,415.604,414.805,425.85z"/>
		<path fill="#39B54A" stroke="#000000" stroke-width="0.22" stroke-linecap="round" stroke-linejoin="round" d="M414.895,426.037
			c-4.834-10.359-4.393-19.441,2.347-25.854C421.421,406.64,420.856,420.456,414.895,426.037z"/>
		<path fill="#39B54A" stroke="#000000" stroke-width="0.22" stroke-linecap="round" stroke-linejoin="round" d="M414.895,426.037
			c-4.834-10.359-12.068-15.861-21.319-14.821C395.838,418.569,406.782,427.018,414.895,426.037z"/>
		<path fill="#39B54A" stroke="#000000" stroke-width="0.132" stroke-linecap="round" stroke-linejoin="round" d="M402.112,398.514
			c-5.823-4.725-8.918-10.836-8.344-17.853C397.898,383.117,402.652,392.363,402.112,398.514z"/>
		<path fill="#39B54A" stroke="#000000" stroke-width="0.132" stroke-linecap="round" stroke-linejoin="round" d="M402.167,398.627
			c-2.901-6.22-2.64-11.667,1.406-15.515C406.084,386.99,405.742,395.274,402.167,398.627z"/>
		<path fill="#39B54A" stroke="#000000" stroke-width="0.132" stroke-linecap="round" stroke-linejoin="round" d="M402.167,398.627
			c-2.901-6.22-7.245-9.518-12.791-8.894C390.732,394.146,397.299,399.212,402.167,398.627z"/>
		<path fill="#39B54A" stroke="#000000" stroke-width="0.22" stroke-linecap="round" stroke-linejoin="round" d="M427.517,453.338
			c-9.701-7.873-14.866-18.05-13.91-29.752C420.49,427.677,428.413,443.093,427.517,453.338z"/>
		<path fill="#39B54A" stroke="#000000" stroke-width="0.22" stroke-linecap="round" stroke-linejoin="round" d="M427.602,453.526
			c-4.829-10.359-4.393-19.442,2.347-25.854C434.133,434.134,433.563,447.945,427.602,453.526z"/>
		<path fill="#39B54A" stroke="#000000" stroke-width="0.22" stroke-linecap="round" stroke-linejoin="round" d="M427.602,453.526
			c-4.829-10.359-12.068-15.861-21.314-14.821C408.546,446.063,419.494,454.507,427.602,453.526z"/>
		<path fill="#ED1C24" stroke="#000000" stroke-width="0.2" stroke-linecap="round" stroke-linejoin="round" d="M462.306,440.329
			c-3.551,4.061-6.339,10.399-6.339,17.243l-10.399,16.991c-6.844-2.283-8.621,1.521-11.409,5.323
			c-1.521,2.03-2.03,5.581,0.252,6.592c-2.788,4.565,0.763,7.101,3.551,6.086c0.253,2.283,5.323,2.283,7.859-0.253
			c2.793-2.03,4.061-4.308,3.551-7.354c3.551-3.294,12.425-17.243,15.213-22.314c5.07,0,9.89-7.097,14.202-14.198L462.306,440.329z"
			/>
		<polyline fill="none" stroke="#000000" stroke-width="0.2" stroke-linecap="round" stroke-linejoin="round" points="
			455.967,457.572 460.275,454.279 459.771,459.855 463.316,457.83 464.584,462.644 		"/>
		<path fill="none" stroke="#000000" stroke-width="0.2" stroke-linecap="round" stroke-linejoin="round" d="M434.41,486.479
			c3.299-4.057,9.385-6.844,10.652-5.071c1.268,1.777,0.758,4.565-7.102,11.157"/>
		<path fill="none" stroke="#000000" stroke-width="0.2" stroke-linecap="round" stroke-linejoin="round" d="M444.553,485.973
			c2.282-2.788,3.551-1.772,4.818-1.015"/>
		<path fill="#17479E" stroke="#000000" stroke-width="0.2" stroke-linecap="round" stroke-linejoin="round" d="M504.651,466.194
			l40.568-19.774c6.591-3.045,15.723-8.116,16.228-21.304v-97.369H447.851v97.369c0.505,13.188,9.637,18.259,16.229,21.304
			L504.651,466.194z"/>
		
			<rect x="447.851" y="327.747" fill="#ED1C24" stroke="#000000" stroke-width="0.2" stroke-linecap="round" stroke-linejoin="round" width="113.597" height="65.423"/>
		<path fill="#ED1C24" stroke="#000000" stroke-width="0.2" stroke-linecap="round" stroke-linejoin="round" d="M504.651,360.461"/>
		<path fill="#ECCE1C" stroke="#000000" stroke-width="0.2" stroke-linecap="round" stroke-linejoin="round" d="M529.496,320.651
			c-3.04-3.804-4.813-38.796-3.293-48.18c2.535-21.046-15.723-20.284-21.809-20.031c-6.087,0.253-13.436,3.551-17.244,9.384
			c18.006,19.521,2.03,49.953-3.04,58.064c4.056-0.253,7.101-1.521,8.874-2.536c-1.268,2.788-1.268,2.788-1.268,2.788
			c5.07-0.505,6.849-1.52,9.637-4.309c2.025,4.309,3.803,4.819,6.086,6.087c2.788-2.03,4.561-3.804,5.576-5.581
			c3.046,3.551,6.339,3.045,8.117,3.803v-3.04C523.92,320.141,526.709,320.394,529.496,320.651z"/>
		<path fill="#39B54A" stroke="#000000" stroke-width="0.2" stroke-linecap="round" stroke-linejoin="round" d="M492.984,317.353
			c2.283-4.565,6.086-20.794,7.606-26.88"/>
		<path fill="#39B54A" stroke="#000000" stroke-width="0.2" stroke-linecap="round" stroke-linejoin="round" d="M501.354,315.832
			c1.521-5.07,3.041-18.006,4.056-23.076"/>
		<path fill="#39B54A" stroke="#000000" stroke-width="0.2" stroke-linecap="round" stroke-linejoin="round" d="M513.016,316.338
			c-0.758-5.576-1.772-21.047-2.025-23.835"/>
		<path fill="#39B54A" stroke="#000000" stroke-width="0.2" stroke-linecap="round" stroke-linejoin="round" d="M521.133,317.101
			c-1.269-6.849-3.046-19.526-3.299-23.33"/>
		<path d="M489.691,259.794c-4.313-0.505-8.369,1.269-11.92,4.056c3.298-0.252,6.086,1.269,8.111,2.283
			c2.03,1.016,8.879,4.056,12.935,4.056C496.787,266.896,492.227,261.062,489.691,259.794z"/>
		<path d="M498.056,259.542c3.298,1.268,6.849,1.521,9.637,0.757C501.605,263.85,493.494,266.896,498.056,259.542z"/>
		<path fill="#FFCB05" stroke="#000000" stroke-width="0.2" d="M551.306,430.445"/>
		<path fill="#FFCB05" d="M540.02,441.979c-6.809-1.896-11.949-8.182-11.949-15.595c0-8.909,7.225-16.134,16.134-16.134
			c4.457,0,8.819,1.812,11.737,4.734c-1.467-0.441-3.021-0.679-4.636-0.679c-8.914,0-16.14,7.226-16.14,16.14
			C535.166,434.961,537.028,439.047,540.02,441.979z"/>
		<path fill="#FFCB05" stroke="#000000" stroke-width="0.2" d="M544.204,426.384"/>
		<path fill="#FFCB05" d="M469.68,421.016c4.001-1.455,6.062-5.878,4.605-9.879c-1.456-4.002-5.878-6.066-9.88-4.611
			c-4.001,1.457-6.066,5.884-4.61,9.885C461.251,420.412,465.678,422.472,469.68,421.016z"/>
		<path fill="#FFCB05" d="M467.04,413.771"/>
		<circle fill="#FFCB05" cx="461.286" cy="422.836" r="7.71"/>
		<path fill="#FFCB05" d="M461.286,422.838"/>
		<path fill="#FFCB05" d="M470.254,423.695c-4.096-1.174-8.364,1.193-9.538,5.289c-1.173,4.09,1.193,8.363,5.289,9.532
			c4.091,1.174,8.359-1.188,9.533-5.284C476.717,429.138,474.345,424.869,470.254,423.695z"/>
		<path fill="#FFCB05" d="M468.13,431.108"/>
		<path fill="#FFCB05" d="M471.72,422.848c-2.382,3.526-1.451,8.32,2.08,10.702c3.53,2.382,8.319,1.451,10.701-2.08
			c2.382-3.53,1.451-8.324-2.08-10.701C478.891,418.387,474.102,419.317,471.72,422.848z"/>
		<path fill="#FFCB05" d="M478.108,427.156"/>
		<path fill="#FFCB05" d="M471.363,421.189c2.62,3.357,7.468,3.951,10.82,1.332c3.357-2.625,3.952-7.468,1.332-10.825
			c-2.624-3.353-7.468-3.947-10.825-1.327C469.338,412.988,468.743,417.837,471.363,421.189z"/>
		<path fill="#FFCB05" d="M477.439,416.445"/>
		<circle fill="#FFCB05" cx="470.4" cy="422.264" r="7.71"/>
		<path fill="#FFCB05" d="M470.402,422.264"/>
		<path fill="#FFCB05" d="M452.922,388.352l15.847-7.102c4.061,4.057,6.339,5.071,9.89,8.117
			C471.304,395.195,460.275,396.721,452.922,388.352z"/>
		<path fill="#FFCB05" d="M556.377,388.352l-15.848-7.102c-4.056,4.057-6.338,5.071-9.889,8.117
			C537.994,395.195,549.022,396.721,556.377,388.352z"/>
		<path fill="#FFCB05" d="M504.651,456.814c4.309,0,7.097-2.787,8.874-4.565c1.773-1.772,2.536-2.025,7.859-3.551v-10.142
			l-5.581-2.788c-4.561-2.03-1.268-7.354,0.511-2.788l0.252-8.369l3.551,3.04v-19.016c-0.253-4.056-2.788-5.834-6.339-6.087v17.754
			h-2.03v-18.006c0.763-5.576,7.859-7.606,19.273-10.395l-3.803-3.803c20.283-9.89,30.678-48.686-4.061-54.771
			c18.258,22.057,2.282,36.513-4.057,41.836c-5.576-4.561-11.409-3.803-14.197-0.252c-2.793-3.551-8.622-4.309-14.203,0.252
			c-6.339-5.323-22.314-19.779-4.056-41.836c-34.739,6.086-24.34,44.882-4.056,54.771l-3.804,3.803
			c11.41,2.788,18.512,4.818,19.27,10.395v18.006h-2.025v-17.754c-3.551,0.253-6.087,2.031-6.339,6.087v19.016l3.545-3.04
			l0.258,8.369c1.773-4.566,5.071,0.758,0.505,2.788l-5.576,2.788v10.142c5.324,1.525,6.082,1.778,7.859,3.551
			C498.056,454.027,500.338,456.814,504.651,456.814z"/>
		<polygon fill="#FFCB05" points="504.651,337.567 501.036,344.679 492.731,343.723 496.535,350.572 490.449,356.148 
			498.308,357.926 499.07,365.274 504.651,360.338 511.016,365.146 511.495,356.91 518.85,354.628 512.258,349.557 515.551,342.455 
			507.692,344.485 		"/>
	</g>
</g>
</svg>
