<?xml version="1.0" encoding="utf-8"?>
<!-- Generator: Adobe Illustrator 16.0.1, SVG Export Plug-In . SVG Version: 6.00 Build 0)  -->
<!DOCTYPE svg PUBLIC "-//W3C//DTD SVG 1.1//EN" "http://www.w3.org/Graphics/SVG/1.1/DTD/svg11.dtd">
<svg version="1.1"
	 id="Layer_1" xmlns:dc="http://purl.org/dc/elements/1.1/" xmlns:cc="http://creativecommons.org/ns#" xmlns:rdf="http://www.w3.org/1999/02/22-rdf-syntax-ns#" xmlns:svg="http://www.w3.org/2000/svg"
	 xmlns="http://www.w3.org/2000/svg" xmlns:xlink="http://www.w3.org/1999/xlink" x="0px" y="0px" width="961.428px"
	 height="707.906px" viewBox="-125.969 -7591.882 961.428 707.906" enable-background="new -125.969 -7591.882 961.428 707.906"
	 xml:space="preserve">
<g id="g449">
	<path id="path451" d="M825.161-7340.52c1.107,75.055,1.695,150.117,3.529,225.15c1.055,42.389,4.08,84.732,6.426,127.086
		c0.66,11.883-1.016,14.902-15.059,19.178c-40.836,12.45-81.855,24.209-122.609,36.936c-47.973,14.992-96.783,25.663-146.266,33.433
		c-65.631,10.306-131.581,18.604-197.858,10.767c-35.873-4.239-71.477-12.56-106.592-21.576
		c-56.277-14.448-113.127-24.513-170.879-28.221c-47.316-3.033-94.729-4.302-142.1-6.418c-10.656-0.477-20.197,0.876-29.021,8.811
		c-9.299,8.375-20.83,4.129-22.664-8.733c-3.316-23.142-6.094-46.572-6.48-69.927c-0.744-44.889-0.234-89.812,0.807-134.701
		c1.592-68.707,3.826-137.406,6.273-206.084c1.758-49.08,4.584-98.101-0.697-147.166c-1.047-9.623,0.084-19.61,1.076-29.332
		c1.295-12.603,10.512-21.019,21.756-16.808c32.371,12.125,64.35,3.213,96.604,1.076c93.527-6.188,185.844-2.586,275.375,32.039
		c24.457,9.459,51.549,13.664,77.743,15.67c42.188,3.22,84.844,5.812,126.893,2.625c35.129-2.651,70.01-12.498,104.338-21.815
		c48.641-13.192,96.439-29.799,145.07-43.049c25.658-6.996,51.412-12.422,74.736-26.655c10.928-6.681,20.736,0.646,20.742,13.967
		c0.041,77.914,0.016,155.824,0.016,233.737C825.938-7340.522,825.551-7340.522,825.161-7340.52L825.161-7340.52z M806.356-7564.896
		c-4.791,2.287-7.633,3.774-10.574,5.018c-8.961,3.756-17.725,8.285-26.967,10.904c-14.738,4.164-30.062,6.137-44.689,10.617
		c-27.814,8.52-55.141,18.791-82.988,27.166c-27.85,8.375-55.893,16.324-84.229,22.608c-26.051,5.783-52.527,12.142-78.938,12.842
		c-43.613,1.166-87.422-0.47-130.934-3.963c-25.719-2.062-51.604-7.92-76.35-15.717c-34.75-10.938-68.906-24.679-105.193-27.967
		c-39.416-3.569-79.053-4.729-118.619-5.824c-19.584-0.539-39.754-1.248-58.725,2.854c-27.871,6.012-54.852,7.453-81.887-1.931
		c-8.064-2.799-8.438,0.347-7.639,7.293c1.861,16.289,4.068,32.619,4.48,48.983c0.711,28.717,0.725,57.478,0.016,86.202
		c-0.746,30.314-2.855,60.6-4.047,90.908c-1.475,37.734-3.289,75.477-3.764,113.225c-0.627,50.865-0.275,101.744-0.027,152.617
		c0.104,23.301,0.971,46.594,1.523,71.237c7.416-2.083,12.924-4.797,18.516-4.999c24.65-0.902,49.424-2.646,73.979-1.172
		c46.412,2.793,92.881,6.205,139.018,11.975c36.955,4.633,73.559,12.615,110.143,20.039c35.908,7.285,71.299,18.916,107.494,22.816
		c37.184,4.005,75.172,2.695,112.631,0.496c34.612-2.033,69.079-7.631,103.428-12.932c39.031-6.025,77.406-15.166,115.506-26.381
		c43.316-12.747,87.506-22.329,129.604-39.403c2.861-1.158,6.479-4.061,7.037-6.77c1.191-5.68,0.984-11.795,0.643-17.682
		c-2.096-35.922-4.889-71.809-6.486-107.758c-1.387-31.006-2.021-62.08-2.066-93.121c-0.193-96.859,0.033-193.711,0.109-290.568
		C806.37-7523.137,806.356-7542.991,806.356-7564.896L806.356-7564.896z"/>
	<g id="g453">
		<path id="path455" fill="none" d="M825.161-7340.52c1.107,75.055,1.695,150.117,3.529,225.15
			c1.055,42.389,4.08,84.732,6.426,127.086c0.66,11.883-1.016,14.902-15.059,19.178c-40.836,12.45-81.855,24.209-122.609,36.936
			c-47.973,14.992-96.783,25.663-146.266,33.433c-65.631,10.306-131.581,18.604-197.858,10.767
			c-35.873-4.239-71.477-12.56-106.592-21.576c-56.277-14.448-113.127-24.513-170.879-28.221
			c-47.316-3.033-94.729-4.302-142.1-6.418c-10.656-0.477-20.197,0.876-29.021,8.811c-9.299,8.375-20.83,4.129-22.664-8.733
			c-3.316-23.142-6.094-46.572-6.48-69.927c-0.744-44.889-0.234-89.812,0.807-134.701c1.592-68.707,3.826-137.406,6.273-206.084
			c1.758-49.08,4.584-98.101-0.697-147.166c-1.047-9.623,0.084-19.61,1.076-29.332c1.295-12.603,10.512-21.019,21.756-16.808
			c32.371,12.125,64.35,3.213,96.604,1.076c93.527-6.188,185.844-2.586,275.375,32.039c24.457,9.459,51.549,13.664,77.743,15.67
			c42.188,3.22,84.844,5.812,126.893,2.625c35.129-2.651,70.01-12.498,104.338-21.815c48.641-13.192,96.439-29.799,145.07-43.049
			c25.658-6.996,51.412-12.422,74.736-26.655c10.928-6.681,20.736,0.646,20.742,13.967c0.041,77.914,0.016,155.824,0.016,233.737
			C825.938-7340.522,825.551-7340.522,825.161-7340.52L825.161-7340.52z M806.356-7564.896c-4.791,2.287-7.633,3.774-10.574,5.018
			c-8.961,3.756-17.725,8.285-26.967,10.904c-14.738,4.164-30.062,6.137-44.689,10.617c-27.814,8.52-55.141,18.791-82.988,27.166
			c-27.85,8.375-55.893,16.324-84.229,22.608c-26.051,5.783-52.527,12.142-78.938,12.842c-43.613,1.166-87.422-0.47-130.934-3.963
			c-25.719-2.062-51.604-7.92-76.35-15.717c-34.75-10.938-68.906-24.679-105.193-27.967c-39.416-3.569-79.053-4.729-118.619-5.824
			c-19.584-0.539-39.754-1.248-58.725,2.854c-27.871,6.012-54.852,7.453-81.887-1.931c-8.064-2.799-8.438,0.347-7.639,7.293
			c1.861,16.289,4.068,32.619,4.48,48.983c0.711,28.717,0.725,57.478,0.016,86.202c-0.746,30.314-2.855,60.6-4.047,90.908
			c-1.475,37.734-3.289,75.477-3.764,113.225c-0.627,50.865-0.275,101.744-0.027,152.617c0.104,23.301,0.971,46.594,1.523,71.237
			c7.416-2.083,12.924-4.797,18.516-4.999c24.65-0.902,49.424-2.646,73.979-1.172c46.412,2.793,92.881,6.205,139.018,11.975
			c36.955,4.633,73.559,12.615,110.143,20.039c35.908,7.285,71.299,18.916,107.494,22.816c37.184,4.005,75.172,2.695,112.631,0.496
			c34.612-2.033,69.079-7.631,103.428-12.932c39.031-6.025,77.406-15.166,115.506-26.381
			c43.316-12.747,87.506-22.329,129.604-39.403c2.861-1.158,6.479-4.061,7.037-6.77c1.191-5.68,0.984-11.795,0.643-17.682
			c-2.096-35.922-4.889-71.809-6.486-107.758c-1.387-31.006-2.021-62.08-2.066-93.121c-0.193-96.859,0.033-193.711,0.109-290.568
			C806.37-7523.137,806.356-7542.991,806.356-7564.896L806.356-7564.896z"/>
		<g id="g457">
			<path id="path459" d="M806.006-7564.896c0.02,0,0.033,0.168,0.049,0.502c0.012,0.334,0.023,0.832,0.041,1.496
				c0.018,1.328,0.039,3.311,0.07,5.934c0.021,5.244,0.055,13.045,0.098,23.271c0.051,20.455,0.119,50.612,0.209,89.436
				c-0.438,38.805-0.35,86.25,0.205,141.326c0.258,27.529,0.373,56.953,0.352,88.145c0.133,15.592,0.268,31.623,0.408,48.082
				c0.223,8.227,0.445,16.559,0.676,24.996c0.111,4.219,0.223,8.465,0.334,12.734c0.139,4.271,0.148,8.572,0.408,12.891
				c0.902,17.27,1.842,34.951,2.896,53.02c0.58,9.033,1.168,18.164,1.764,27.393c0.303,4.613,0.604,9.252,0.908,13.912
				c0.291,4.664,0.662,9.34,0.865,14.064c0.135,4.734,0.08,9.494-1.018,14.258c-0.438,1.195-1.205,2.203-2.078,3.055
				c-0.854,0.885-1.84,1.613-2.871,2.271c-1.031,0.66-2.193,1.141-3.303,1.555l-3.363,1.301c-2.246,0.869-4.496,1.738-6.754,2.611
				c-2.26,0.865-4.506,1.785-6.814,2.547c-4.592,1.594-9.205,3.195-13.84,4.805c-18.646,6.125-37.895,11.504-57.465,16.925
				c-4.9,1.323-9.822,2.651-14.768,3.983c-4.939,1.33-9.906,2.649-14.869,4.057c-9.93,2.793-19.99,5.498-30.105,8.279
				c-20.252,5.515-40.99,10.433-62.104,15.229l-3.982,0.785c-1.33,0.261-2.674,0.442-4.012,0.669
				c-2.682,0.438-5.363,0.873-8.053,1.312c-5.369,0.896-10.762,1.793-16.172,2.695c-10.838,1.65-21.75,3.314-32.734,4.988
				c-5.498,0.814-11.016,1.632-16.547,2.453l-4.154,0.618l-4.174,0.529c-2.785,0.354-5.574,0.711-8.367,1.066
				c-2.795,0.359-5.594,0.719-8.396,1.078l-4.207,0.544c-1.402,0.169-2.816,0.269-4.228,0.407
				c-5.648,0.521-11.314,1.045-16.998,1.57c-22.766,1.427-45.838,2.352-69.201,2.244c-11.682,0-23.426-0.527-35.219-1.283
				c-2.943-0.263-5.891-0.525-8.844-0.789l-4.432-0.396c-1.475-0.165-2.943-0.381-4.422-0.569c-2.947-0.392-5.898-0.782-8.855-1.175
				c-2.943-0.463-5.875-1.022-8.82-1.531c-5.898-0.955-11.723-2.321-17.602-3.507c-2.936-0.622-5.85-1.333-8.779-1.994
				c-2.928-0.678-5.865-1.332-8.787-2.051c-11.715-2.801-23.453-5.709-35.289-8.399c-2.953-0.706-5.934-1.278-8.904-1.927
				c-2.977-0.62-5.941-1.284-8.941-1.868c-5.984-1.205-11.984-2.414-17.998-3.625c-12.023-2.401-24.104-4.813-36.234-7.237
				c-6.094-1.051-12.197-2.104-18.316-3.158c-3.061-0.508-6.109-1.117-9.189-1.543c-3.076-0.438-6.156-0.873-9.24-1.312
				c-6.17-0.853-12.332-1.821-18.539-2.595c-6.219-0.694-12.451-1.392-18.695-2.088c-3.121-0.354-6.246-0.707-9.373-1.06
				l-4.695-0.533l-4.707-0.438c-6.281-0.59-12.576-1.182-18.881-1.772c-3.152-0.301-6.309-0.601-9.467-0.901
				c-3.158-0.306-6.328-0.519-9.496-0.785c-6.338-0.514-12.689-1.028-19.053-1.543c-6.346-0.645-12.715-1.146-19.098-1.617
				c-6.385-0.451-12.779-0.9-19.188-1.354c-1.602-0.102-3.205-0.227-4.809-0.305l-4.811-0.146c-3.209-0.096-6.42-0.189-9.633-0.281
				c-3.213-0.152-6.436-0.047-9.658,0.01c-3.223,0.061-6.447,0.119-9.676,0.178c-12.91,0.412-25.869,1.076-38.883,1.605
				c-0.832,0.02-1.58,0.109-2.355,0.172c-0.771,0.055-1.541,0.258-2.312,0.377c-0.77,0.17-1.539,0.381-2.309,0.572l-2.305,0.699
				l-4.635,1.528l-2.344,0.75l-3.25,0.959l-0.473,0.138l-0.234,0.069l-0.059,0.018c-0.008-0.012-0.004-0.038-0.006-0.057
				l-0.002-0.125l-0.021-0.986l-0.041-1.965l-0.045-2.492l-0.078-4.9c-0.041-3.268-0.082-6.539-0.123-9.811
				c-0.221-12.838-0.443-25.639-0.664-38.396c-0.322-12.762-0.414-25.479-0.59-38.152c-0.303-25.35-0.84-50.521-0.566-75.5
				c0.285-12.5,0.568-24.951,0.85-37.352c0.064-3.098,0.127-6.193,0.191-9.287c0.066-3.094,0.092-6.184,0.244-9.268
				c0.225-6.172,0.449-12.33,0.674-18.475c0.416-12.289,0.691-24.527,0.889-36.719c0.312-12.188,0.467-24.324,0.402-36.416
				c0.754-24.145,2.41-53.064,3.381-79.004c0.277-6.486,0.547-12.789,0.805-18.789c0.25-6,0.602-11.693,0.645-16.975
				c0.227-10.556,0.49-19.42,0.807-25.633c-0.025-2.334-0.053-4.74-0.082-7.215c-0.025-2.474-0.018-5.013-0.121-7.606
				c-0.135-5.195-0.275-10.623-0.42-16.226c-0.111-5.603-0.227-11.377-0.342-17.267c-0.025-1.473-0.051-2.951-0.074-4.438
				l-0.035-2.232l-0.113-2.229c-0.154-2.977-0.307-5.973-0.461-8.982c-0.885-12.037-2.293-24.276-3.621-36.297
				c-0.16-1.494-0.344-3.016-0.406-4.6c-0.039-0.787-0.02-1.613,0.076-2.473c0.139-0.867,0.34-1.842,1.062-2.763
				c0.201-0.213,0.41-0.426,0.629-0.612c0.244-0.152,0.496-0.299,0.75-0.435c0.5-0.187,1.035-0.345,1.494-0.354
				c0.963-0.096,1.785,0.054,2.588,0.199c1.572,0.326,3.035,0.89,4.383,1.32c5.459,1.932,10.965,3.344,16.35,4.4
				c10.781,2.131,21.793,2.592,32.654,2.026c5.434-0.324,10.834-0.903,16.193-1.681c5.365-0.766,10.646-1.85,15.943-2.895
				c10.648-2.15,21.432-2.857,32.088-3.014c10.666-0.142,21.23,0.229,31.711,0.498c5.242,0.135,10.467,0.268,15.67,0.397
				c5.205,0.127,10.389,0.291,15.553,0.496c5.162,0.192,10.307,0.385,15.432,0.576c2.561,0.103,5.117,0.201,7.668,0.301
				c2.551,0.135,5.098,0.271,7.637,0.401c10.158,0.576,20.248,0.918,30.227,1.724c4.996,0.336,9.969,0.672,14.92,1.006
				c4.943,0.291,9.902,0.687,14.811,1.293c19.594,2.946,37.969,8.453,55.664,14.28c17.709,5.828,34.801,12.133,52.068,17.092
				c8.617,2.537,17.301,4.609,25.98,6.521c2.18,0.424,4.357,0.85,6.535,1.273l3.266,0.627l3.281,0.53l6.555,1.047l6.58,0.838
				c2.188,0.31,4.389,0.504,6.588,0.694c2.201,0.189,4.396,0.424,6.602,0.57c4.414,0.26,8.824,0.52,13.242,0.779
				c4.416,0.246,8.837,0.494,13.264,0.74c2.213,0.104,4.426,0.271,6.646,0.324c2.22,0.061,4.439,0.123,6.664,0.184
				c7.271,0.248,14.406,0.488,21.465,0.729c3.527,0.176,7.043,0.154,10.543,0.22c3.502,0.056,6.992,0.106,10.479,0.16
				c3.485,0.062,6.971,0.123,10.457,0.187c1.744,0.022,3.49,0.088,5.234,0.08c1.748-0.017,3.496-0.031,5.248-0.047
				c7.012-0.058,14.068-0.109,21.238-0.166c1.793-0.013,3.592-0.023,5.4-0.035c1.797-0.086,3.602-0.17,5.415-0.254
				c1.811-0.105,3.639-0.133,5.467-0.306s3.666-0.345,5.514-0.519c7.396-0.696,14.922-1.869,22.656-3.19
				c3.859-0.724,7.775-1.457,11.748-2.263c3.967-0.84,8.004-1.655,12.1-2.582c8.195-1.809,16.693-3.711,25.471-5.873
				c24.473-6.022,48.188-12.672,70.23-19.207c1.379-0.399,2.754-0.801,4.121-1.196c1.355-0.422,2.711-0.84,4.057-1.258
				c2.691-0.834,5.355-1.662,7.99-2.479c2.637-0.816,5.246-1.625,7.822-2.424c2.576-0.804,5.104-1.668,7.607-2.482
				c10.008-3.312,19.496-6.457,28.342-9.387c2.217-0.717,4.4-1.424,6.557-2.119c2.164-0.668,4.297-1.326,6.398-1.976
				c4.199-1.299,8.273-2.56,12.223-3.778c0.99-0.293,1.955-0.635,2.943-0.888c0.984-0.254,1.965-0.506,2.934-0.758
				c1.939-0.502,3.846-0.994,5.719-1.479c1.865-0.521,3.729-0.877,5.553-1.271c1.818-0.388,3.607-0.769,5.361-1.144
				c7.008-1.512,13.514-2.723,19.35-4.272c1.465-0.362,2.895-0.72,4.291-1.062c0.35-0.088,0.693-0.174,1.041-0.26
				c0.336-0.111,0.67-0.224,1.002-0.332c0.664-0.222,1.318-0.439,1.967-0.652c1.295-0.43,2.555-0.85,3.779-1.256
				c1.197-0.486,2.363-0.963,3.494-1.422c1.135-0.463,2.229-0.912,3.293-1.348c1.053-0.467,2.07-0.92,3.057-1.359
				c1.971-0.875,3.807-1.691,5.506-2.445c1.703-0.754,3.27-1.446,4.699-2.078c1.404-0.658,2.676-1.252,3.807-1.78
				c4.51-2.188,6.805-3.362,6.805-3.362c-0.025-0.06-0.625,0.182-1.779,0.711c-1.148,0.543-2.863,1.352-5.133,2.424
				c-1.131,0.522-2.398,1.11-3.805,1.762c-1.43,0.633-2.996,1.326-4.701,2.08c-1.695,0.764-3.527,1.586-5.498,2.469
				c-0.98,0.443-1.996,0.902-3.045,1.375c-1.061,0.441-2.15,0.896-3.277,1.367c-1.127,0.467-2.287,0.949-3.48,1.445
				c-1.221,0.418-2.475,0.846-3.762,1.285c-0.646,0.221-1.297,0.443-1.959,0.67c-0.33,0.111-0.664,0.227-0.998,0.342
				c-0.344,0.088-0.689,0.178-1.037,0.268c-1.393,0.359-2.818,0.73-4.279,1.105c-5.814,1.611-12.309,2.896-19.297,4.498
				c-1.748,0.396-3.531,0.799-5.346,1.211c-1.814,0.416-3.672,0.797-5.527,1.344c-1.859,0.51-3.758,1.027-5.686,1.556
				c-0.963,0.267-1.938,0.528-2.916,0.799c-0.98,0.265-1.943,0.617-2.928,0.926c-3.928,1.278-7.98,2.603-12.156,3.961
				c-2.09,0.683-4.211,1.371-6.361,2.069c-2.143,0.73-4.314,1.474-6.52,2.224c-8.871,2.854-18.221,5.933-28.035,9.194
				c-2.453,0.814-4.939,1.642-7.451,2.478c-2.525,0.801-5.08,1.608-7.666,2.431c-2.582,0.824-5.195,1.655-7.838,2.5
				c-2.643,0.85-5.312,1.705-8.035,2.5c-21.697,6.615-45.369,13.543-71.133,19.756c-8.457,1.916-16.547,3.641-24.342,5.311
				c-7.789,1.689-15.301,3.244-22.629,4.645c-14.65,2.783-28.65,4.779-42.688,5.191c-7.008,0.143-13.996,0.281-21.059,0.424
				c-3.531,0.062-7.082,0.127-10.662,0.191c-3.582-0.047-7.193-0.095-10.847-0.144c-7.308-0.11-14.782-0.215-22.519-0.414
				c-7.729-0.371-15.719-0.78-24.061-1.25c-8.354-0.242-16.924-0.938-25.688-1.487c-4.379-0.293-8.807-0.59-13.271-0.89
				c-2.234-0.119-4.475-0.401-6.727-0.601c-2.248-0.231-4.514-0.396-6.77-0.729c-2.259-0.297-4.523-0.597-6.8-0.896
				c-2.271-0.324-4.534-0.733-6.812-1.1l-3.42-0.562l-3.41-0.662c-2.275-0.451-4.557-0.901-6.842-1.354
				c-9.107-1.978-18.223-4.267-27.271-6.871c-18.086-5.271-35.871-11.703-53.562-17.263c-17.668-5.584-35.303-10.299-52.551-12.592
				c-8.061-1.184-17.154-1.637-26.811-2.36c-2.416-0.17-4.869-0.342-7.355-0.517c-2.484-0.18-5.002-0.362-7.553-0.459
				c-5.1-0.237-10.311-0.481-15.594-0.729c-10.561-0.574-21.426-0.854-32.26-1.275c-10.838-0.408-21.65-0.813-32.129-1.209
				c-10.479-0.352-21.033-0.809-31.652-0.733c-10.609,0.088-21.324,0.746-31.869,2.875c-5.291,1.045-10.613,2.147-16,2.938
				c-5.385,0.806-10.818,1.429-16.291,1.812c-10.943,0.679-22.07,0.396-33.068-1.498c-5.484-0.994-10.93-2.345-16.244-4.146
				c-1.352-0.414-2.643-0.906-3.932-1.213c-0.324-0.099-0.646-0.146-0.967-0.199c-0.324-0.07-0.637-0.095-0.947-0.105
				c-0.625-0.047-1.205,0.041-1.627,0.266c-0.854,0.385-1.113,1.709-1.135,3.015c-0.025,1.324,0.109,2.703,0.262,4.084
				c0.633,5.571,1.309,11.151,1.906,16.771c0.303,2.808,0.605,5.619,0.908,8.435c0.246,2.824,0.494,5.651,0.742,8.483
				c0.293,2.828,0.396,5.679,0.539,8.525l0.213,4.279c0.072,1.428,0.154,2.854,0.15,4.283c0.076,5.709,0.152,11.436,0.229,17.178
				c0.084,5.742,0.17,11.502,0.256,17.275c0.025,2.887,0.133,5.776,0.1,8.672c-0.021,2.896-0.043,5.795-0.064,8.696
				c-0.166,5.81-0.293,11.631-0.393,17.472c-0.043,2.919-0.086,5.841-0.129,8.77c-0.062,2.926-0.01,5.859-0.16,8.791
				c-0.393,11.734-0.785,23.529-1.182,35.383c-0.344,11.861-0.891,23.75-1.41,35.709c-0.295,5.977-0.592,11.967-0.887,17.973
				c-0.273,6.006-0.578,12.025-0.922,18.059c-0.373,12.074-0.746,24.203-1.123,36.387c-0.252,12.18-0.504,24.412-0.758,36.697
				c-0.152,6.143-0.307,12.295-0.461,18.463c-0.113,3.082-0.1,6.172-0.129,9.266c-0.027,3.092-0.055,6.188-0.084,9.285
				c-0.129,12.395-0.336,24.84-0.646,37.336c0.307,24.967,0.418,50.139,0.297,75.484c-0.035,12.674-0.156,25.396,0.084,38.143
				c0.104,6.375,0.207,12.76,0.311,19.154c0.143,6.396,0.377,12.805,0.611,19.219c0.033,3.273,0.066,6.545,0.102,9.812l0.062,4.9
				l0.033,2.41v0.582l0.002,0.299c-0.02,0.076,0.041,0.043,0.086,0.031l0.139-0.037l1.59-0.451l2.322-0.73l4.658-1.514l2.365-0.705
				c0.805-0.195,1.604-0.41,2.416-0.586c0.826-0.125,1.635-0.332,2.475-0.389c0.834-0.066,1.684-0.156,2.484-0.168
				c13.002-0.461,25.969-1.055,38.908-1.441c3.236-0.055,6.471-0.109,9.701-0.168c3.232-0.055,6.461-0.164,9.689-0.02
				c3.229,0.082,6.455,0.162,9.68,0.244l4.834,0.119c1.607,0.064,3.209,0.178,4.814,0.266c6.414,0.367,12.818,0.736,19.211,1.104
				c6.395,0.357,12.775,0.721,19.141,1.189c6.363,0.574,12.715,1.148,19.055,1.723c3.17,0.287,6.34,0.52,9.5,0.838
				c3.162,0.311,6.32,0.621,9.475,0.932c6.312,0.598,12.611,1.191,18.898,1.787l4.715,0.432l4.701,0.523
				c3.133,0.346,6.262,0.69,9.389,1.035c6.256,0.676,12.5,1.35,18.73,2.021c6.223,0.748,12.412,1.696,18.602,2.526
				c3.096,0.428,6.186,0.854,9.273,1.281c3.09,0.418,6.145,1.021,9.215,1.521c6.131,1.051,12.25,2.099,18.357,3.146
				c12.119,2.531,24.188,5.054,36.199,7.562c6.006,1.246,11.998,2.49,17.977,3.73c2.992,0.598,5.973,1.278,8.953,1.912
				c2.977,0.66,5.969,1.246,8.924,1.961c11.854,2.729,23.6,5.646,35.305,8.416c2.924,0.713,5.855,1.357,8.777,2.021
				c2.928,0.648,5.842,1.348,8.768,1.953c5.863,1.151,11.682,2.478,17.553,3.381c2.93,0.513,5.846,1.079,8.771,1.551
				c2.936,0.402,5.864,0.805,8.793,1.207c1.465,0.195,2.924,0.418,4.391,0.591l4.408,0.421c2.938,0.282,5.871,0.564,8.799,0.846
				c11.742,0.834,23.445,1.455,35.102,1.524c23.301,0.247,46.373-0.626,69.082-2.364c5.665-0.534,11.314-1.066,16.945-1.598
				c1.409-0.139,2.817-0.238,4.219-0.407l4.199-0.541c2.799-0.356,5.592-0.713,8.381-1.068c2.789-0.352,5.572-0.702,8.354-1.053
				l4.166-0.521l4.15-0.611c5.527-0.812,11.041-1.624,16.531-2.434c5.496-0.777,10.963-1.662,16.416-2.502
				c5.449-0.859,10.896-1.655,16.295-2.561c5.391-0.947,10.762-1.893,16.111-2.832c2.674-0.473,5.346-0.943,8.01-1.414
				c1.332-0.246,2.67-0.448,3.99-0.73l3.959-0.854c21.188-4.174,41.945-8.936,62.15-14.512c10.096-2.813,20.104-5.601,30.023-8.517
				c4.953-1.466,9.906-2.853,14.832-4.25c4.926-1.403,9.83-2.8,14.713-4.193c19.596-5.328,38.848-10.561,57.488-16.529
				c4.635-1.568,9.246-3.131,13.838-4.688c2.311-0.742,4.553-1.641,6.812-2.484c2.256-0.854,4.506-1.705,6.75-2.555l3.363-1.27
				c1.162-0.43,2.148-0.826,3.105-1.428c0.947-0.596,1.871-1.266,2.641-2.055c0.799-0.758,1.459-1.652,1.787-2.547
				c0.189-0.389,0.25-1.018,0.34-1.586l0.268-1.721c0.074-0.574,0.209-1.143,0.234-1.725l0.105-1.746
				c0.201-2.318,0.109-4.668,0.096-7.004c-2.209-37.678-4.33-73.852-6.354-108.379c-0.305-4.316-0.359-8.619-0.539-12.891
				c-0.154-4.273-0.307-8.52-0.457-12.74c-0.305-8.441-0.602-16.777-0.896-25.008c-0.24-16.469-0.475-32.512-0.701-48.111
				c-0.1-31.191-0.17-60.615-0.115-88.146c0.527-57.156,0.117-102.523,0.541-141.328c0.213-38.82,0.379-68.98,0.488-89.437
				c0.023-10.229,0.041-18.026,0.055-23.271c-0.014-2.623-0.021-4.605-0.027-5.935c-0.012-0.664-0.021-1.164-0.027-1.498
				c-0.016-0.332-0.027-0.5-0.043-0.5V-7564.896L806.006-7564.896z"/>
		</g>
		<g id="g461">
			<path id="path463" d="M825.167-7340.17c0-0.023,0.346-0.051,1.158-0.08l0.285-0.012l-0.01-0.271
				c-0.211-7.025-0.205-51.066-0.432-125.352c0.211-20.349,0.287-42.957,0.24-67.703c-0.051-12.373-0.105-25.277-0.162-38.701
				c-0.006-1.679-0.021-3.365-0.24-5.037c-0.133-0.832-0.223-1.676-0.473-2.486l-0.322-1.229l-0.455-1.189
				c-1.197-3.154-3.539-5.998-6.688-7.365l-1.197-0.459l-1.258-0.266c-0.414-0.119-0.85-0.105-1.277-0.133
				c-0.428-0.01-0.857-0.084-1.285-0.01l-1.287,0.131c-0.428,0.051-0.842,0.194-1.264,0.289c-0.855,0.16-1.643,0.551-2.457,0.856
				c-1.562,0.748-3.08,1.666-4.65,2.554c-1.557,0.891-3.123,1.785-4.691,2.684c-1.549,0.943-3.201,1.701-4.852,2.486
				c-1.646,0.787-3.301,1.58-4.961,2.373c-0.82,0.418-1.678,0.764-2.533,1.104c-0.857,0.348-1.717,0.695-2.576,1.043
				c-1.723,0.697-3.449,1.396-5.186,2.098c-3.537,1.211-7.08,2.521-10.701,3.672c-3.639,1.092-7.277,2.306-11.002,3.306
				c-7.418,2.129-15.002,4.082-22.656,6.168c-3.844,0.996-7.666,2.174-11.541,3.271c-3.871,1.115-7.771,2.238-11.697,3.369
				c-15.742,4.396-31.795,9.416-48.328,14.379c-8.271,2.482-16.646,5-25.125,7.547c-4.242,1.271-8.51,2.545-12.805,3.828
				c-4.291,1.295-8.654,2.441-13.021,3.681c-8.727,2.472-17.559,4.967-26.492,7.494c-8.963,2.418-18.023,4.871-27.209,7.272
				c-18.369,4.775-37.275,9.287-56.881,12.172c-2.451,0.345-4.898,0.763-7.373,1.049c-2.475,0.256-4.957,0.513-7.443,0.771
				c-4.973,0.604-9.995,0.797-15.032,1.142c-5.037,0.381-10.109,0.498-15.205,0.664c-2.547,0.063-5.1,0.201-7.66,0.213
				c-2.561,0.016-5.127,0.03-7.699,0.047c-20.58,0.1-41.525-0.771-62.789-2.078c-5.314-0.34-10.648-0.734-16.004-1.164
				c-2.676-0.213-5.357-0.429-8.047-0.644c-2.688-0.252-5.381-0.502-8.08-0.754c-10.782-1.127-21.611-2.672-32.424-4.806
				c-10.816-2.102-21.564-5.012-32.133-8.696c-10.58-3.66-21.059-7.69-31.979-10.744c-21.457-7.164-43.84-12.631-66.795-16.506
				c-22.959-3.883-46.482-6.181-70.326-7.224c-23.824-1.471-48.02-1.59-72.453-0.776c-6.109,0.164-12.23,0.521-18.373,0.772
				c-6.141,0.301-12.291,0.724-18.463,1.078c-12.316,0.769-24.625,2.539-37.086,3.847c-6.229,0.633-12.492,1.144-18.799,1.367
				c-6.307,0.181-12.65,0-18.979-0.647c-6.334-0.642-12.605-1.994-18.74-3.828l-4.568-1.508l-2.166-0.664
				c-0.734-0.117-1.465-0.289-2.203-0.351c-2.943-0.226-5.957,0.451-8.383,2.162c-2.43,1.685-4.383,4.092-5.637,6.854
				c-1.291,2.771-1.926,5.754-2.209,8.89c-0.623,6.371-1.281,12.731-1.312,19.09c-0.062,3.187,0.154,6.332,0.445,9.504
				c0.283,3.222,0.566,6.44,0.85,9.668c0.26,3.229,0.609,6.453,0.787,9.692c0.16,3.24,0.318,6.484,0.479,9.732
				c1.471,25.979,1.102,52.223,0.221,78.596c-0.504,13.182-1.008,26.416-1.514,39.699c-0.461,13.283-0.926,26.619-1.391,40.004
				c-2.717,53.451-2.939,107.762-5.439,162.629c-0.443,13.453-0.623,26.873-0.818,40.25c-0.074,6.688-0.146,13.365-0.221,20.031
				c-0.029,3.334-0.057,6.664-0.084,9.992c0.041,3.328,0.082,6.652,0.123,9.975c0.166,13.285,0.332,26.525,0.498,39.715
				c0.033,3.299,0.066,6.592,0.102,9.883l0.043,4.936c0.004,1.645,0.023,3.287,0.117,4.92c0.139,3.271,0.279,6.543,0.418,9.809
				l0.197,4.896c0.082,1.631,0.248,3.256,0.365,4.885c0.449,6.52,0.738,13.045,1.449,19.525c0.311,3.246,0.621,6.488,0.93,9.727
				c0.318,3.238,0.746,6.464,1.115,9.692c0.396,3.219,0.742,6.463,1.184,9.653c0.461,3.131,1.646,6.194,3.721,8.583
				c1.076,1.137,2.295,2.191,3.754,2.805c0.352,0.183,0.709,0.349,1.094,0.44l1.133,0.342c0.781,0.087,1.559,0.293,2.354,0.229
				c1.59,0.068,3.15-0.362,4.652-0.862c1.463-0.625,2.881-1.383,4.131-2.383c1.275-0.952,2.445-2.101,3.768-3.026
				c1.285-0.981,2.67-1.822,4.076-2.611c2.844-1.533,5.916-2.605,9.062-3.285c3.156-0.646,6.375-0.917,9.584-0.953
				c3.215-0.016,6.41,0.148,9.604,0.215c12.779,0.342,25.508,0.525,38.189,0.49c25.318,0.846,55.629,2.367,82.861,3.719
				c3.402,0.176,6.758,0.347,10.051,0.516c1.646,0.086,3.275,0.171,4.887,0.255c1.611,0.127,3.205,0.253,4.779,0.377
				c6.293,0.521,12.27,0.999,17.795,1.508c5.512,0.647,10.58,1.246,15.084,1.774c2.248,0.281,4.357,0.533,6.303,0.809
				c1.941,0.314,3.725,0.604,5.338,0.863c4.875,0.539,10.057,1.109,15.482,1.709c5.404,0.771,11.053,1.574,16.883,2.404
				c1.457,0.214,2.924,0.43,4.402,0.646c1.473,0.25,2.957,0.5,4.449,0.754c2.982,0.52,6.004,1.045,9.053,1.576
				c3.049,0.543,6.133,1.059,9.225,1.648c3.086,0.622,6.193,1.249,9.314,1.88c3.119,0.636,6.254,1.274,9.395,1.914
				c3.141,0.64,6.26,1.403,9.391,2.104c3.129,0.719,6.256,1.438,9.373,2.152c1.557,0.363,3.111,0.729,4.664,1.089
				c1.545,0.392,3.086,0.781,4.623,1.171c6.143,1.573,12.219,3.129,18.168,4.652c5.93,1.556,11.732,3.077,17.348,4.55
				c11.24,2.907,22.475,5.522,33.666,7.989c11.215,2.338,22.381,4.587,33.557,6.291c11.156,1.829,22.312,3.147,33.406,4.151
				c5.557,0.398,11.088,0.882,16.617,1.07c2.764,0.11,5.52,0.293,8.273,0.341c2.755,0.056,5.505,0.111,8.248,0.167
				c2.744,0.076,5.486,0.016,8.223,0.012c2.734-0.029,5.467,0,8.189-0.071c5.449-0.156,10.881-0.229,16.283-0.521
				c10.812-0.417,21.523-1.248,32.139-2.141c21.223-1.949,42.022-4.688,62.354-8.022c20.434-2.791,40.191-5.727,59.42-9.159
				c19.215-3.489,37.898-7.407,56.227-11.794c18.299-4.502,36.225-9.496,53.92-15.061c17.73-5.48,35.391-11.043,53.166-16.766
				c14.557-4.643,28.615-8.903,42.635-13.139c7.014-2.098,14.016-4.189,21.062-6.297c3.521-1.068,7.109-2.027,10.504-3.281
				c3.324-1.289,6.824-2.799,8.311-5.74c1.504-2.939,1.295-6.838,1.154-10.572c-0.207-3.824-0.414-7.686-0.625-11.59
				c-0.43-7.812-0.867-15.807-1.32-24.045c-0.477-8.238-0.963-16.725-1.473-25.521c-0.477-8.799-0.973-17.908-1.484-27.396
				c-0.447-6.604-0.682-13.184-0.953-19.705c-0.248-6.521-0.494-12.988-0.738-19.383c-0.211-12.787-0.418-25.279-0.617-37.342
				c-0.322-24.123-0.619-46.516-0.881-66.059c-0.121-39.068-0.359-69.387-0.668-89.936c-0.289-20.549-0.574-31.33-0.574-31.33
				c-0.062,0-0.1,0.676-0.109,2.008s0.004,3.322,0.039,5.955c0.1,5.266,0.246,13.098,0.441,23.371
				c0.402,20.547,0.996,50.859,1.762,89.918c0.094,19.543,0.477,41.273,0.996,65.062c0.279,11.893,0.568,24.301,0.871,37.207
				c0.211,6.451,0.523,13.023,0.787,19.723c0.289,6.695,0.506,13.518,0.941,20.449c0.348,9.084,0.703,17.752,1.104,26.104
				c0.479,8.344,0.938,16.373,1.383,24.186c0.492,7.811,0.971,15.402,1.439,22.875c0.244,3.736,0.488,7.443,0.729,11.131
				c0.115,1.848,0.266,3.682,0.352,5.525c0.092,1.842,0.146,3.693-0.047,5.545c-0.186,1.84-0.637,3.723-1.682,5.318
				c-1.029,1.605-2.568,2.797-4.182,3.725c-1.617,0.945-3.348,1.641-5.082,2.293c-1.74,0.641-3.508,1.209-5.277,1.756
				c-7.078,2.166-14.234,4.354-21.562,6.594c-14.652,4.461-30.025,8.997-46.844,13.896c-16.748,5.122-34.459,10.539-52.699,16.117
				c-18.23,5.647-37.158,10.918-56.322,15.628c-19.174,4.681-38.592,8.73-57.725,12.324c-4.789,0.869-9.557,1.733-14.295,2.594
				c-4.75,0.787-9.471,1.571-14.156,2.348c-9.369,1.554-18.609,2.947-27.652,4.324c-16.98,2.449-37.771,5.406-59.886,7.595
				c-11.059,1.067-22.44,1.983-33.825,2.45c-5.688,0.301-11.382,0.387-17.022,0.491c-2.82,0.065-5.631-0.01-8.425-0.01
				c-2.793-0.03-5.567-0.011-8.321-0.137c-2.752-0.077-5.508-0.153-8.271-0.23c-2.763-0.069-5.524-0.273-8.296-0.404
				c-5.543-0.229-11.09-0.752-16.659-1.185c-11.123-1.072-22.297-2.44-33.478-4.273c-11.199-1.709-22.389-3.92-33.646-6.153
				c-11.23-2.362-22.521-4.809-33.84-7.457c-11.27-2.815-22.611-5.647-34.023-8.498c-2.855-0.69-5.699-1.452-8.578-2.088
				c-2.875-0.652-5.754-1.305-8.637-1.958c-5.766-1.312-11.543-2.649-17.381-3.789c-2.914-0.595-5.832-1.188-8.754-1.785
				c-2.924-0.59-5.844-1.217-8.793-1.719c-5.887-1.057-11.791-2.113-17.713-3.176c-5.943-0.918-11.904-1.839-17.881-2.762
				l-4.488-0.674l-4.51-0.572c-3.008-0.379-6.02-0.759-9.035-1.141c-24.1-3.438-48.654-5.24-73.508-5.987
				c-24.838-1.007-49.904-2.144-75.219-3.472c-12.664-0.401-25.385-0.806-38.162-1.211c-3.193-0.084-6.408-0.256-9.529-0.238
				c-3.139,0.034-6.252,0.309-9.277,0.938c-3.012,0.666-5.924,1.703-8.615,3.18c-1.332,0.764-2.641,1.57-3.859,2.52l-0.918,0.701
				l-0.881,0.754c-0.553,0.483-1.244,1.045-1.92,1.59c-1.344,1.095-2.896,1.953-4.523,2.662c-1.676,0.586-3.439,1.084-5.277,1.035
				c-0.914,0.072-1.822-0.137-2.73-0.239c-0.445-0.116-0.887-0.251-1.328-0.38c-0.449-0.107-0.869-0.294-1.281-0.499
				c-1.711-0.705-3.148-1.903-4.396-3.201c-2.42-2.713-3.76-6.129-4.303-9.53c-0.492-3.275-0.867-6.461-1.301-9.701
				c-0.404-3.229-0.863-6.456-1.211-9.7c-0.334-3.248-0.668-6.498-1.002-9.752c-0.75-6.496-1.059-13.057-1.494-19.607
				c-3.35-52.426-0.523-105.643-0.23-159.496c2.564-54.875,3.67-109.158,4.971-162.662c0.641-13.381,1.182-26.715,1.65-40
				c0.553-13.283,1.068-26.516,1.482-39.695c0.801-26.357,1.012-52.539-0.449-78.416c-0.127-3.236-0.254-6.471-0.381-9.699
				c-0.146-3.229-0.467-6.441-0.697-9.658c-0.258-3.215-0.514-6.428-0.77-9.635c-0.273-3.234-0.475-6.498-0.389-9.734
				c0.076-6.481,0.779-12.893,1.432-19.258c0.303-3.213,1.002-6.496,2.412-9.473c1.373-2.986,3.525-5.662,6.277-7.551
				c2.742-1.922,6.215-2.705,9.521-2.432c0.828,0.065,1.641,0.256,2.457,0.395l2.357,0.727l4.482,1.48
				c6.021,1.799,12.18,3.127,18.416,3.742c6.232,0.627,12.492,0.783,18.732,0.576c6.24-0.254,12.457-0.795,18.65-1.473
				c12.408-1.273,24.77-2.98,37.172-3.672c6.184-0.316,12.344-0.693,18.496-0.951c6.152-0.213,12.283-0.527,18.404-0.658
				c24.475-0.67,48.695-0.502,72.59,0.658c23.904,0.965,47.486,3.358,70.508,7.264c23.025,3.896,45.48,9.309,67.15,16.113
				c10.852,3.354,21.369,7.612,31.842,11.348c10.451,3.76,21.137,6.68,31.906,8.732c10.765,2.088,21.562,3.535,32.315,4.537
				c2.691,0.219,5.377,0.438,8.06,0.658c2.688,0.18,5.371,0.356,8.048,0.539c5.354,0.356,10.688,0.68,16.004,0.946
				c21.229,1.401,42.127,2.412,62.655,2.459c2.563,0,5.125,0.01,7.681,0.01c2.555,0.01,5.1-0.108,7.641-0.155
				c5.082-0.129,10.145-0.209,15.166-0.556c5.023-0.306,10.042-0.461,14.989-1.028c2.479-0.238,4.951-0.479,7.416-0.715
				c2.463-0.271,4.904-0.672,7.352-1c19.549-2.752,38.447-7.164,56.809-11.91c9.18-2.392,18.238-4.847,27.193-7.287
				c8.914-2.572,17.729-5.115,26.438-7.629c4.35-1.279,8.693-2.467,12.973-3.804c4.281-1.321,8.537-2.64,12.766-3.942
				c8.457-2.617,16.811-5.201,25.057-7.754c16.502-5.09,32.521-10.209,48.273-14.67c3.93-1.146,7.83-2.281,11.701-3.41
				c3.879-1.109,7.705-2.295,11.553-3.295c7.676-2.101,15.248-4.047,22.643-6.15c3.719-0.99,7.332-2.182,10.957-3.252
				c3.604-1.127,7.117-2.41,10.639-3.59c1.721-0.682,3.438-1.361,5.146-2.041c0.854-0.338,1.707-0.676,2.557-1.014
				c0.854-0.332,1.703-0.666,2.518-1.072c1.648-0.77,3.291-1.537,4.928-2.303c1.637-0.763,3.277-1.492,4.814-2.408
				c1.627-0.894,3.244-1.777,4.852-2.658c0.811-0.443,1.615-0.883,2.422-1.322l1.289-0.682l0.646-0.336l0.684-0.265l1.369-0.519
				c0.471-0.131,0.953-0.231,1.43-0.348l0.715-0.166l0.736-0.068c0.492-0.037,0.98-0.104,1.471-0.106
				c1.98,0.01,3.941,0.498,5.695,1.367c1.758,0.896,3.188,2.248,4.373,3.72c0.535,0.776,1.102,1.537,1.484,2.389
				c0.467,0.812,0.768,1.686,1.084,2.547c0.324,0.859,0.475,1.762,0.715,2.635c0.129,0.891,0.277,1.779,0.359,2.668
				c0.033,0.885,0.098,1.793,0.102,2.646c-0.002,0.854-0.004,1.699-0.008,2.545c-0.018,13.524-0.031,26.362-0.045,38.6
				c-0.008,24.473,0,46.539-0.203,66.885c-0.404,74.285-0.611,118.326-0.473,125.354l0.008,0.287l-0.301,0.012
				c-0.404,0.016-0.693,0.025-0.883,0.033c-0.197,0.01-0.283,0.018-0.283,0.027v-0.002H825.167z"/>
		</g>
	</g>
</g>
<g id="g465">
	<g>
		<g>
			<defs>
				<path id="SVGID_1_" d="M806.356-7564.896c-4.791,2.287-7.633,3.774-10.574,5.018c-8.961,3.756-17.725,8.285-26.967,10.904
					c-14.738,4.164-30.062,6.137-44.689,10.617c-27.814,8.52-55.141,18.791-82.988,27.166c-27.85,8.375-55.893,16.324-84.229,22.608
					c-26.051,5.783-52.527,12.142-78.938,12.842c-43.613,1.166-87.422-0.47-130.934-3.963c-25.719-2.062-51.604-7.92-76.35-15.717
					c-34.75-10.938-68.906-24.679-105.193-27.967c-39.416-3.569-79.053-4.729-118.619-5.824
					c-19.584-0.539-39.754-1.248-58.725,2.854c-27.871,6.012-54.852,7.453-81.887-1.931c-8.064-2.799-8.438,0.347-7.639,7.293
					c1.861,16.289,4.068,32.619,4.48,48.983c0.711,28.717,0.725,57.478,0.016,86.202c-0.746,30.314-2.855,60.6-4.047,90.908
					c-1.475,37.734-3.289,75.477-3.764,113.225c-0.627,50.865-0.275,101.744-0.027,152.617c0.104,23.301,0.971,46.594,1.523,71.237
					c7.416-2.083,12.924-4.797,18.516-4.999c24.65-0.902,49.424-2.646,73.979-1.172c46.412,2.793,92.881,6.205,139.018,11.975
					c36.955,4.633,73.559,12.615,110.143,20.039c35.908,7.285,71.299,18.916,107.494,22.816
					c37.184,4.005,75.172,2.695,112.631,0.496c34.612-2.033,69.079-7.631,103.428-12.932c39.031-6.025,77.406-15.166,115.506-26.381
					c43.316-12.747,87.506-22.329,129.604-39.403c2.861-1.158,6.479-4.061,7.037-6.77c1.191-5.68,0.984-11.795,0.643-17.682
					c-2.096-35.922-4.889-71.809-6.486-107.758c-1.387-31.006-2.021-62.08-2.066-93.121c-0.193-96.859,0.033-193.711,0.109-290.568
					C806.37-7523.137,806.356-7542.991,806.356-7564.896L806.356-7564.896z"/>
			</defs>
			<clipPath id="SVGID_2_">
				<use xlink:href="#SVGID_1_"  overflow="visible"/>
			</clipPath>
			<rect id="rect473" x="-138.29" y="-7564.032" clip-path="url(#SVGID_2_)" fill="#CE2028" width="980.212" height="653.475"/>
		</g>
	</g>
	<g>
		<g>
			<defs>
				<path id="SVGID_3_" d="M806.356-7564.896c-4.791,2.287-7.633,3.774-10.574,5.018c-8.961,3.756-17.725,8.285-26.967,10.904
					c-14.738,4.164-30.062,6.137-44.689,10.617c-27.814,8.52-55.141,18.791-82.988,27.166c-27.85,8.375-55.893,16.324-84.229,22.608
					c-26.051,5.783-52.527,12.142-78.938,12.842c-43.613,1.166-87.422-0.47-130.934-3.963c-25.719-2.062-51.604-7.92-76.35-15.717
					c-34.75-10.938-68.906-24.679-105.193-27.967c-39.416-3.569-79.053-4.729-118.619-5.824
					c-19.584-0.539-39.754-1.248-58.725,2.854c-27.871,6.012-54.852,7.453-81.887-1.931c-8.064-2.799-8.438,0.347-7.639,7.293
					c1.861,16.289,4.068,32.619,4.48,48.983c0.711,28.717,0.725,57.478,0.016,86.202c-0.746,30.314-2.855,60.6-4.047,90.908
					c-1.475,37.734-3.289,75.477-3.764,113.225c-0.627,50.865-0.275,101.744-0.027,152.617c0.104,23.301,0.971,46.594,1.523,71.237
					c7.416-2.083,12.924-4.797,18.516-4.999c24.65-0.902,49.424-2.646,73.979-1.172c46.412,2.793,92.881,6.205,139.018,11.975
					c36.955,4.633,73.559,12.615,110.143,20.039c35.908,7.285,71.299,18.916,107.494,22.816
					c37.184,4.005,75.172,2.695,112.631,0.496c34.612-2.033,69.079-7.631,103.428-12.932c39.031-6.025,77.406-15.166,115.506-26.381
					c43.316-12.747,87.506-22.329,129.604-39.403c2.861-1.158,6.479-4.061,7.037-6.77c1.191-5.68,0.984-11.795,0.643-17.682
					c-2.096-35.922-4.889-71.809-6.486-107.758c-1.387-31.006-2.021-62.08-2.066-93.121c-0.193-96.859,0.033-193.711,0.109-290.568
					C806.37-7523.137,806.356-7542.991,806.356-7564.896L806.356-7564.896z"/>
			</defs>
			<clipPath id="SVGID_4_">
				<use xlink:href="#SVGID_3_"  overflow="visible"/>
			</clipPath>
			<rect id="rect475" x="-138.29" y="-7237.294" clip-path="url(#SVGID_4_)" fill="#FFFFFF" width="980.212" height="326.737"/>
		</g>
	</g>
	<g>
		<g>
			<defs>
				<path id="SVGID_5_" d="M806.356-7564.896c-4.791,2.287-7.633,3.774-10.574,5.018c-8.961,3.756-17.725,8.285-26.967,10.904
					c-14.738,4.164-30.062,6.137-44.689,10.617c-27.814,8.52-55.141,18.791-82.988,27.166c-27.85,8.375-55.893,16.324-84.229,22.608
					c-26.051,5.783-52.527,12.142-78.938,12.842c-43.613,1.166-87.422-0.47-130.934-3.963c-25.719-2.062-51.604-7.92-76.35-15.717
					c-34.75-10.938-68.906-24.679-105.193-27.967c-39.416-3.569-79.053-4.729-118.619-5.824
					c-19.584-0.539-39.754-1.248-58.725,2.854c-27.871,6.012-54.852,7.453-81.887-1.931c-8.064-2.799-8.438,0.347-7.639,7.293
					c1.861,16.289,4.068,32.619,4.48,48.983c0.711,28.717,0.725,57.478,0.016,86.202c-0.746,30.314-2.855,60.6-4.047,90.908
					c-1.475,37.734-3.289,75.477-3.764,113.225c-0.627,50.865-0.275,101.744-0.027,152.617c0.104,23.301,0.971,46.594,1.523,71.237
					c7.416-2.083,12.924-4.797,18.516-4.999c24.65-0.902,49.424-2.646,73.979-1.172c46.412,2.793,92.881,6.205,139.018,11.975
					c36.955,4.633,73.559,12.615,110.143,20.039c35.908,7.285,71.299,18.916,107.494,22.816
					c37.184,4.005,75.172,2.695,112.631,0.496c34.612-2.033,69.079-7.631,103.428-12.932c39.031-6.025,77.406-15.166,115.506-26.381
					c43.316-12.747,87.506-22.329,129.604-39.403c2.861-1.158,6.479-4.061,7.037-6.77c1.191-5.68,0.984-11.795,0.643-17.682
					c-2.096-35.922-4.889-71.809-6.486-107.758c-1.387-31.006-2.021-62.08-2.066-93.121c-0.193-96.859,0.033-193.711,0.109-290.568
					C806.37-7523.137,806.356-7542.991,806.356-7564.896L806.356-7564.896z"/>
			</defs>
			<clipPath id="SVGID_6_">
				<use xlink:href="#SVGID_5_"  overflow="visible"/>
			</clipPath>
			<path id="path477" clip-path="url(#SVGID_6_)" stroke="#000000" stroke-width="0.25" stroke-miterlimit="10" d="
				M828.424-7223.125c-36.895,1.688-73.691,3.707-110.773,4.248c-39.791-0.463-79.602-1.025-119.451-1.201
				c-39.832-0.537-79.674-1.309-119.482-2.666c-48.053-1.129-96.066-3.27-144.109-5.354c-48.047-1.555-96.047-4.002-144.104-5.506
				c-28.613-1.256-57.285-1.504-85.924-1.955c-28.648-0.258-57.227-0.906-85.826-0.432c-45.484-0.393-90.852,2.771-139.807,3.898
				l-0.424-28.072c23.111-0.203,46.221-0.424,69.334,0.09c45.32,1.309,90.742,0.805,136.055,2.271
				c45.34,0.963,90.67,2.102,136.039,2.932c49.256,2.039,98.61,2.73,147.898,4.576c49.316,1.387,98.643,2.617,147.933,4.477
				c33.617,0.906,67.227,1.959,100.889,1.658c33.576,1.207,67.285-0.33,100.828,0.295c36.01-0.207,71.871-1.414,107.291-2.639
				L828.424-7223.125L828.424-7223.125z"/>
		</g>
	</g>
</g>
</svg>
