<?xml version="1.0" encoding="utf-8"?>
<!-- Generator: Adobe Illustrator 16.0.1, SVG Export Plug-In . SVG Version: 6.00 Build 0)  -->
<!DOCTYPE svg PUBLIC "-//W3C//DTD SVG 1.1//EN" "http://www.w3.org/Graphics/SVG/1.1/DTD/svg11.dtd">
<svg version="1.1" id="Layer_1" xmlns="http://www.w3.org/2000/svg" xmlns:xlink="http://www.w3.org/1999/xlink" x="0px" y="0px"
	 width="960.254px" height="706.129px" viewBox="0 0 960.254 706.129" enable-background="new 0 0 960.254 706.129"
	 xml:space="preserve">
<g>
	<path stroke="#000000" stroke-width="0.25" stroke-miterlimit="10" d="M0.129,58.986c39.265-1.668,78.419-2.895,117.49-4.963
		c39.086-1.303,78.103-3.99,117.077-5.949c24.844-1.123,49.633-3.061,74.407-6.645c24.762-2.6,49.521-5.895,74.324-7.742
		c18.957-2.211,37.914-4.219,56.886-4.734c18.97-1.725,37.953-3.379,56.938-4.074c18.599-1.338,37.196-2.723,55.795-3.736
		c18.585-0.594,37.196-2.213,55.795-3.605c18.6-0.82,37.196-1.758,55.81-3.227c18.599-0.758,37.211-2.404,55.822-3.611
		c15.041-0.104,30.082-0.766,45.138-2.344c15.056-0.848,30.109-1.854,45.166-2.365c15.055-0.812,30.109-2.17,45.165-2.391
		c15.056-0.139,30.109-1.311,45.165-1.875c10.354-0.525,20.832,0.178,31.062-1.311c13.952-1.365,20.129,1.736,20.584,17.371
		c0.469,15.09,1.062,31.076,1.696,47.096c0.634,15.199,1.309,32.082,1.971,47.082c0.662,16.791,1.311,31.785,1.889,47.434
		c0.565,15.654,1.062,31.191,1.42,46.736c0.538,23.389,0.455,46.385,0.222,69.354c-0.248,23.127-0.647,46.262-0.73,69.383
		c-0.097,34.68,0.041,69.348,0.097,104.006c0.098,59.746-0.357,119.49,0.677,179.236c0.274,16.467-5.46,20.313-21.025,21.12
		c-43.47,2.246-86.801,7.101-130.243,9.892c-35.252,2.283-70.643,2.461-105.882,4.66c-54.251,3.379-108.378,8.272-162.614,11.483
		c-40.325,2.371-80.858,1.931-121.131,4.902c-47.025,3.473-93.858,9.43-140.79,14.027c-25.036,2.446-50.114,4.592-75.179,6.301
		c-33.378,2.281-67.238,7.934-100.022,4.342c-16.435-1.812-43.235,3.709-50.652-23.512c-40.685-21.025-34.04-60.463-35.433-95.435
		c-1.281-31.522-2.344-63.053-3.295-94.59c-0.938-31.531-1.792-62.604-2.633-94.611c-0.841-31.559-1.696-63.315-2.675-94.604
		C7.146,260.982,5.768,220.34,4.348,180.51C2.955,139.652,1.508,99.252,0.129,58.986z M208.847,78.902
		c-0.703,2.736-1.558,3.123-1.379,4.68c6.011,35.398,5.79,71.438,6.479,106.537c0.676,36.08,2.262,71.312,11.898,106.131
		c3.336,11.939-0.717,21.143-16.682,21.41c-16.807-0.717-33.682,2.723-50.336,4.33c-21.094,2.949-42.146,6.189-63.254,9.113
		c-21.107,3.033-42.256,6.266-63.529,9.422c0,29.959-0.055,57.002,0.042,84.107c0.056,12.496,6.245,21.142,20.211,20.148
		c20.515-1.461,41.071-2.861,61.42-5.584c27.367-3.675,54.499-9.175,81.894-12.595c6.687-0.827,17.537,1.199,20.363,5.722
		c8.312,13.387,18.156,28.358,19.205,43.276c3.487,49.634,3.487,99.484,4.632,149.289c0.345,15.263,0.041,30.56,0.041,47.123
		c31.489-2.633,60.91-5.086,89.159-7.438c0-79.908,0-156.812,0-234.961c19.896-1.812,39.761-4.273,59.684-5.328
		c27.381-1.164,54.761-4.039,82.142-5.053c27.381-1.488,54.761-2.812,82.155-4.433c29.778-0.684,59.571-2.641,89.364-3.51
		c29.793-1.303,59.587-2.75,89.381-3.605c20.308-0.924,40.614-1.709,60.908-3.77c20.295-0.643,40.574-3.867,60.827-5.053
		c27.339-2.642,54.485-6.765,81.148-10.486c0-19.176,0-37.795,0-56.09c0-18.592,0-36.984,0-56.705
		c-17.881,1.117-35.599,2.143-53.23,3.211c-17.618,1.076-35.143,2.441-52.582,3.461c-17.454,0.207-34.825,1.607-52.17,3.248
		c-17.344,1.158-34.646,1.57-51.946,3.418c-15.855,0.855-31.696,1.186-47.552,2.979c-15.842,0.826-31.682,1.777-47.537,3.723
		c-15.841,0.654-31.694,1.771-47.551,2.881c-15.84,0.682-31.694,2.102-47.562,2.627c-26.153,0.717-52.569-5.48-78.86-5.908
		c-23.852,0.125-47.66,5.328-71.539,7.23c-23.769,1.979-36.383,3.221-42.945-3.736c-6.562-6.154-7.101-19.355-6.715-43.842
		c0.056-2.006,0.041-5.68,0.263-7.789c1.338-15.965,1.668-30.619,1.228-45.771c-0.428-14.965-1.641-29.924-3.378-45.668
		c-1.751-15.027-4.053-30.422-6.659-45.959c-2.604-15.123-5.527-30.262-8.548-46.469c-18.295,3.736-36.466,4.453-54.554,7.881
		C244.691,74.076,226.714,76.365,208.847,78.902z M880.577,254.373c29.283,2.088,44.27,2.494,51.673-2.502
		c7.403-5.143,7.211-15.559,6.148-35.412c-1.517-28.525-2.8-56.346-3.956-84.525c-1.173-28.021-2.206-56.623-3.24-84.535
		c-0.345-10.678-1.048-18.557-14.188-17.742c-18.156,0.33-36.327,0.619-54.484,0.951c-18.171,0.393-36.342,0.199-54.514,1.221
		c-18.171,0.33-36.327,1.303-54.483,1.357c-18.158,0.654-36.301,1.117-54.432,2.475c-19.688,0.883-39.36,1.957-59.021,3.943
		c-19.674,1.371-39.32,4.115-58.967,5.094c-19.659,1.428-39.306,3.84-58.951,5.404c-19.646,1.488-39.293,3.102-58.952,5.143
		c-17.771,2.102-35.542,2.51-53.327,4.191c-17.785,0.6-35.569,2.709-53.354,3.578c-14.173,0.854-17.675,8.691-15.304,20.438
		c2.799,15.139,6.438,30.186,7.555,43.918c1.641,20.467,3.103,42.318,4.426,63.957c1.312,21.879,2.454,42.395,3.475,64.018
		c0.744,15.676,5.983,21.529,22.568,20.799c17.812-0.504,35.653-0.959,53.507-0.779c17.84-0.58,35.694,0.51,53.521-0.537
		c21.052-0.318,42.09-1.918,63.143-2.234c21.053-1.014,42.091-2.213,63.13-2.453c21.038-1.346,42.092-1.379,63.129-2.455
		c21.039-1.123,42.077-2.082,63.104-3.246c26.828-0.842,53.63-2.979,78.047-5.115C841.258,256.793,863.289,255.607,880.577,254.373z
		 M348.078,454.26c1.406,7.562,2.799,11.933,2.938,16.344c1.766,56.933,3.599,113.871,4.797,170.806
		c0.276,13.449,4.22,18.467,18.545,16.213c23.548-3.688,47.314-6.287,71.084-7.887c47.784-3.211,95.625-5.707,143.465-7.988
		c28.523-1.373,57.215-0.51,85.644-2.812c79.812-6.438,159.457-14.358,239.27-20.77c15.386-1.242,19.729-7.148,19.355-21.742
		c-0.729-27.215,0-54.473,0.469-81.715c0.511-28.49,1.53-57.008,2.068-85.504c0.179-9.652-0.565-18.938-14.628-16.685
		c-22.196,3.537-44.324,7.384-66.673,9.853c-24.018,1.668-48.047,3.24-72.091,5.184c-24.044,1.601-48.103,2.979-72.159,3.806
		c-29.021,1.477-58.058,2-87.105,2.578c-29.033,1.075-58.068,1.311-87.104,2.434c-17.302,0.33-34.604,1.613-51.895,2.703
		c-17.288,1.268-34.549,2.17-51.781,4.129C404.825,445.236,377.568,450.613,348.078,454.26z M19.514,86.422
		c-0.786,6.02-1.875,9.375-1.668,13.299c1.86,32.75,3.887,66.059,5.817,98.836c1.931,32.957,3.792,65.75,5.308,98.852
		c0.676,14.414,6.604,16.867,19.261,15.709c22.444-3.35,44.917-6.094,67.361-8.395c22.459-2.393,44.89-5.936,67.266-8.977
		c4.591-0.709,11.029-10.463,11.236-15.42c0.91-24.492,0.51-47.592-0.703-71.932c-0.924-18.682-2.137-36.516-3.405-54.955
		c-1.269-18.006-2.592-36.811-3.736-54.953c-0.951-15.139-9.168-19.246-23.217-17.834c-19.812,2.793-39.678,4.584-59.572,5.535
		C75.777,86.746,48.052,86.547,19.514,86.422z M213.975,672.621c0-52.617,0.441-104.201-0.248-155.777
		c-0.221-15.819-1.806-32.102-6.245-47.17c-1.751-5.949-13.304-13.401-19.771-12.85c-40.422,3.432-80.61,9.395-120.965,13.518
		c-17.302,1.758-31.047,11.318-30.303,25.609c2.51,49.143,5.17,98.299,9.292,147.318c0.593,6.913,8.424,16.659,15.042,18.948
		c15.689,5.427,32.578,9.244,49.149,9.976C143.4,673.654,176.999,672.621,213.975,672.621z"/>
	<path fill="#3B56A6" d="M208.847,78.902c17.867-3.205,35.845-5.184,53.934-7.803c18.088-3.441,36.259-3.51,54.554-7.881
		c3.021,14.58,5.942,30.834,8.548,46.379c2.606,14.732,4.908,30.992,6.659,46.049c1.737,14.109,2.95,30.848,3.378,45.268
		c0.44,15.242,0.11,30.18-1.228,46.172c-0.222,2.785-0.207,4.461-0.263,7.789c-0.386,24.652,0.152,37.322,6.715,43.842
		c6.562,6.357,19.178,6.398,42.945,3.736c23.879-2.48,47.688-6.789,71.539-7.23c26.291-0.062,52.707,7.08,78.86,5.908
		c15.868-0.744,31.724-1.875,47.562-2.496c15.855-1.172,31.71-1.812,47.552-3.012c15.854-1.213,31.694-2.703,47.536-3.51
		c15.854-1.523,31.695-3.08,47.552-3.191c17.302-0.799,34.604-2.24,51.946-3.309c17.345-1.736,34.717-2.668,52.17-3.357
		c17.439-1.393,34.964-2.129,52.582-3.273c17.634-1.152,35.351-2.311,53.23-3.398c0,19.391,0,38.416,0,56.705
		c0,18.777,0,36.914,0,56.09c-26.663,3.179-53.811,8.549-81.148,10.486c-20.253,2.164-40.532,3.362-60.827,5.053
		c-20.294,1.646-40.602,2.557-60.908,3.771c-29.794,1.446-59.587,2.807-89.381,3.604c-29.793,1.006-59.586,1.82-89.364,3.51
		c-27.396,1.937-54.774,2.888-82.155,4.433c-27.381,1.979-54.761,3.006-82.142,5.053c-19.923,1.145-39.788,3.516-59.684,5.328
		c0,78.149,0,155.053,0,234.961c-28.249,2.352-57.67,4.805-89.159,7.438c0-16.563,0.304-31.86-0.041-47.123
		c-1.145-49.805-1.145-99.655-4.632-149.289c-1.049-14.918-10.893-29.891-19.205-43.276c-2.826-4.521-13.677-6.549-20.363-5.721
		c-27.395,3.42-54.526,8.92-81.894,12.594c-20.349,2.723-40.905,4.123-61.42,5.584c-13.966,0.992-20.155-6.205-20.211-20.148
		c-0.097-27.442-0.042-54.059-0.042-84.107c21.273-2.949,42.422-6.389,63.529-9.422c21.107-3.447,42.16-5.832,63.254-9.113
		c16.654-1.275,33.529-4.488,50.336-4.33c15.965-0.537,20.018-9.326,16.682-21.41c-9.637-34.502-11.223-71.016-11.898-106.131
		c-0.689-35.818-0.469-71.111-6.479-106.537C207.289,81.928,208.144,80.66,208.847,78.902z"/>
	<path fill="#ED1C24" d="M880.577,254.373c-17.288,0.799-39.319,3.371-63.749,4.949c-24.417,1.799-51.219,3.488-78.047,5.115
		c-21.025,1.557-42.063,1.777-63.104,3.025c-21.038,0.766-42.091,1.689-63.129,2.676c-21.039,0.146-42.077,2.066-63.13,2.439
		c-21.053,0.807-42.091,1.662-63.143,2.248c-17.826,0.916-35.682,1.109-53.521,0.537c-17.854-0.992-35.694,0.662-53.507,0.779
		c-16.585,1.275-21.824-4.984-22.568-20.799c-1.021-20.934-2.164-41.697-3.475-64.018c-1.323-20.867-2.785-42.603-4.426-63.957
		c-1.116-13.008-4.756-29.346-7.556-43.918c-2.371-13.229,1.132-20.039,15.305-20.438c17.783-1.283,35.568-2.4,53.354-3.578
		c17.785-0.889,35.556-2.365,53.327-4.191c19.659-0.779,39.306-2.426,58.952-4.908c19.646-2.469,39.292-4.453,58.951-5.639
		c19.646-0.82,39.293-3.646,58.967-4.75c19.659-1.529,39.333-3.227,59.021-4.287c18.13,0.207,36.272-1.752,54.432-2.357
		c18.155-1.303,36.312-1.096,54.483-1.475c18.171-0.594,36.342,0.309,54.514-0.814c18.156-0.709,36.327-1.014,54.484-1.357
		c13.14-0.414,13.842,8.443,14.188,17.742c1.034,28.506,2.067,56.996,3.239,84.535c1.157,28.062,2.44,55.932,3.956,84.525
		c1.062,19.818,1.255,30.945-6.147,35.412C924.847,257.006,909.86,256.709,880.577,254.373z"/>
	<path fill="#ED1C24" d="M348.078,454.26c29.49-3.231,56.747-8.514,84.196-11.057c17.232-1.441,34.493-2.889,51.781-4.129
		c17.289-1.324,34.593-2.181,51.895-2.703c29.035-1.51,58.069-1.385,87.104-2.434c29.05-0.677,58.084-1.938,87.105-2.578
		c24.058-0.875,48.115-2.039,72.159-3.806c24.044-1.875,48.073-2.957,72.091-5.184c22.349-2.338,44.477-6.314,66.673-9.853
		c14.062-2.254,14.807,7.031,14.628,16.685c-0.538,28.496-1.559,57.014-2.068,85.504c-0.469,27.242-1.198,54.5-0.469,81.715
		c0.372,14.594-3.971,20.5-19.355,21.742c-79.812,6.41-159.458,14.33-239.27,20.77c-28.429,2.304-57.119,1.439-85.644,2.812
		c-47.84,2.281-95.681,4.777-143.465,7.988c-23.77,1.6-47.536,4.198-71.084,7.887c-14.325,2.254-18.269-2.764-18.545-16.213
		c-1.198-56.935-3.031-113.873-4.797-170.806C350.877,466.191,349.484,461.822,348.078,454.26z"/>
	<path fill="#ED1C24" d="M19.514,86.422c28.538,0.283,56.264,0.994,83.947-0.234c19.895-0.654,39.761-2.385,59.572-5.535
		c14.049-1.516,22.266,2.531,23.217,17.834c1.145,17.799,2.468,36.314,3.736,54.953c1.269,18.551,2.481,36.459,3.405,54.955
		c1.213,23.533,1.613,47.791,0.703,71.932c-0.207,5.281-6.646,14.496-11.236,15.42c-22.376,3.303-44.807,6.148-67.266,8.977
		c-22.444,2.84-44.917,5.293-67.361,8.395c-12.656,1.311-18.585-0.488-19.261-15.709c-1.516-33.357-3.377-66.424-5.308-98.852
		c-1.931-32.984-3.957-66.355-5.817-98.836C17.639,95.77,18.728,91.559,19.514,86.422z"/>
	<path fill="#ED1C24" d="M213.975,672.621c-36.976,0-70.574,1.033-104.048-0.428c-16.571-0.73-33.46-4.55-49.149-9.976
		c-6.618-2.289-14.449-12.035-15.042-18.948c-4.122-49.021-6.782-98.177-9.292-147.318c-0.744-14.291,13.001-23.853,30.303-25.609
		c40.354-4.123,80.543-10.086,120.965-13.518c6.467-0.553,18.02,6.899,19.771,12.85c4.439,15.068,6.024,31.351,6.245,47.17
		C214.416,568.42,213.975,620.004,213.975,672.621z"/>
	<g>
		<path fill="none" stroke="#FFFFFF" stroke-width="18" stroke-miterlimit="10" d="M32.045,340.525
			c21.273-2.949,42.422-6.389,63.529-9.422c21.107-3.447,42.16-5.832,63.254-9.113c16.654-1.275,33.529-4.488,50.336-4.33
			c15.965-0.537,20.018-9.326,16.682-21.41c-9.637-34.502-11.223-71.016-11.898-106.131c-0.689-35.818-0.469-71.111-6.479-106.537
			c-0.179-1.654,0.676-2.922,1.379-4.68"/>
		<path fill="none" stroke="#FFFFFF" stroke-width="18" stroke-miterlimit="10" d="M239.853,672.014
			c0-16.563,0.304-31.86-0.041-47.123c-1.145-49.805-1.145-99.655-4.632-149.289c-1.049-14.918-10.893-29.891-19.205-43.276
			c-2.826-4.521-13.677-6.549-20.363-5.722c-27.395,3.421-54.526,8.921-81.894,12.595c-20.349,2.723-60.905,4.123-81.42,5.584"/>
		<path fill="none" stroke="#FFFFFF" stroke-width="18" stroke-miterlimit="10" d="M934.621,388.379
			c-26.663,3.178-53.811,8.549-81.148,10.486c-20.253,2.164-40.533,3.362-60.827,5.053c-20.294,1.646-40.602,2.557-60.908,3.77
			c-29.794,1.447-59.587,2.808-89.38,3.605c-29.793,1.006-59.587,1.82-89.365,3.51c-27.396,1.937-54.774,2.888-82.155,4.433
			c-27.381,1.979-54.761,3.006-82.142,5.053c-19.922,1.145-39.788,3.516-59.684,5.328c0,78.149,0,155.053,0,234.961"/>
		<path fill="none" stroke="#FFFFFF" stroke-width="18" stroke-miterlimit="10" d="M317.334,63.219
			c3.02,14.58,5.942,30.834,8.548,46.379c2.606,14.732,4.908,30.992,6.659,46.049c1.737,14.109,2.95,30.848,3.378,45.268
			c0.44,15.242,0.11,30.18-1.228,46.172c-0.222,2.785-0.207,4.461-0.263,7.789c-0.386,24.652,0.152,37.322,6.715,43.842
			c6.562,6.357,19.178,6.398,42.945,3.736c23.879-2.48,47.688-6.789,71.539-7.23c26.291-0.062,52.707,7.08,78.86,5.908
			c15.868-0.744,31.724-1.875,47.562-2.496c15.855-1.172,31.71-1.812,47.551-3.012c15.855-1.213,31.695-2.703,47.537-3.51
			c15.854-1.523,31.695-3.08,47.552-3.191c17.302-0.799,34.604-2.24,51.946-3.309c17.345-1.736,34.717-2.668,52.17-3.357
			c17.439-1.393,34.964-2.129,52.582-3.273c17.634-1.152,35.351-2.311,53.23-3.398"/>
	</g>
</g>
</svg>
