<?xml version="1.0" encoding="utf-8"?>
<!-- Generator: Adobe Illustrator 16.0.1, SVG Export Plug-In . SVG Version: 6.00 Build 0)  -->
<!DOCTYPE svg PUBLIC "-//W3C//DTD SVG 1.1//EN" "http://www.w3.org/Graphics/SVG/1.1/DTD/svg11.dtd">
<svg version="1.1"
	 id="Layer_1" xmlns:dc="http://purl.org/dc/elements/1.1/" xmlns:cc="http://creativecommons.org/ns#" xmlns:rdf="http://www.w3.org/1999/02/22-rdf-syntax-ns#" xmlns:svg="http://www.w3.org/2000/svg"
	 xmlns="http://www.w3.org/2000/svg" xmlns:xlink="http://www.w3.org/1999/xlink" x="0px" y="0px" width="961.428px"
	 height="707.907px" viewBox="47.64 -5732.32 961.428 707.907" enable-background="new 47.64 -5732.32 961.428 707.907"
	 xml:space="preserve">
<g id="g397">
	<path id="path399" d="M998.771-5480.955c1.108,75.055,1.694,150.116,3.528,225.15c1.056,42.388,4.082,84.733,6.426,127.086
		c0.66,11.884-1.014,14.903-15.057,19.178c-40.836,12.449-81.856,24.209-122.611,36.935
		c-47.971,14.992-96.781,25.663-146.264,33.433c-65.631,10.306-131.58,18.604-197.859,10.767
		c-35.873-4.239-71.477-12.56-106.592-21.576c-56.276-14.448-113.127-24.513-170.879-28.221c-47.316-3.033-94.729-4.302-142.1-6.418
		c-10.656-0.476-20.197,0.876-29.021,8.81c-9.299,8.376-20.83,4.129-22.664-8.733c-3.316-23.142-6.094-46.571-6.48-69.927
		c-0.744-44.889-0.234-89.813,0.807-134.702c1.592-68.706,3.826-137.405,6.273-206.084c1.758-49.08,4.584-98.099-0.697-147.166
		c-1.047-9.623,0.084-19.611,1.076-29.331c1.295-12.602,10.512-21.018,21.756-16.806c32.371,12.125,64.35,3.212,96.604,1.075
		c93.527-6.19,185.844-2.585,275.375,32.04c24.457,9.458,51.551,13.663,77.742,15.669c42.188,3.219,84.844,5.811,126.895,2.626
		c35.129-2.654,70.01-12.498,104.338-21.817c48.641-13.194,96.438-29.8,145.068-43.049c25.658-6.997,51.412-12.422,74.738-26.657
		c10.926-6.679,20.736,0.648,20.742,13.967c0.041,77.915,0.014,155.824,0.014,233.739
		C999.551-5480.958,999.165-5480.958,998.771-5480.955L998.771-5480.955z M979.967-5705.333c-4.791,2.288-7.631,3.777-10.574,5.018
		c-8.961,3.757-17.723,8.286-26.967,10.905c-14.736,4.164-30.062,6.136-44.688,10.616c-27.814,8.521-55.143,18.791-82.988,27.167
		c-27.85,8.375-55.893,16.323-84.229,22.609c-26.053,5.784-52.527,12.14-78.938,12.843c-43.615,1.165-87.422-0.469-130.934-3.964
		c-25.721-2.061-51.604-7.92-76.352-15.717c-34.75-10.939-68.906-24.678-105.191-27.966c-39.417-3.571-79.053-4.729-118.621-5.825
		c-19.584-0.538-39.754-1.248-58.725,2.854c-27.871,6.012-54.852,7.452-81.887-1.93c-8.064-2.799-8.438,0.345-7.639,7.293
		c1.861,16.289,4.068,32.619,4.48,48.984c0.711,28.718,0.725,57.477,0.016,86.201c-0.746,30.316-2.855,60.6-4.047,90.909
		c-1.475,37.734-3.289,75.476-3.764,113.224c-0.627,50.866-0.275,101.745-0.027,152.618c0.104,23.3,0.971,46.593,1.523,71.236
		c7.416-2.082,12.924-4.798,18.516-4.998c24.65-0.903,49.424-2.646,73.979-1.172c46.412,2.792,92.881,6.204,139.018,11.974
		c36.955,4.633,73.559,12.615,110.143,20.039c35.908,7.286,71.299,18.916,107.494,22.817c37.184,4.005,75.172,2.695,112.631,0.496
		c34.609-2.033,69.078-7.631,103.428-12.932c39.031-6.025,77.406-15.166,115.506-26.381c43.316-12.746,87.504-22.328,129.604-39.402
		c2.859-1.158,6.479-4.061,7.036-6.77c1.192-5.68,0.985-11.795,0.644-17.682c-2.096-35.921-4.889-71.808-6.488-107.757
		c-1.385-31.006-2.02-62.081-2.064-93.122c-0.193-96.858,0.031-193.71,0.107-290.568
		C979.981-5663.572,979.967-5683.425,979.967-5705.333L979.967-5705.333z"/>
	<g id="g401">
		<path id="path403" fill="none" d="M998.771-5480.955c1.108,75.055,1.694,150.116,3.528,225.15
			c1.056,42.388,4.082,84.733,6.426,127.086c0.66,11.884-1.014,14.903-15.057,19.178c-40.836,12.449-81.856,24.209-122.611,36.935
			c-47.971,14.992-96.781,25.663-146.264,33.433c-65.631,10.306-131.58,18.604-197.859,10.767
			c-35.873-4.239-71.477-12.56-106.592-21.576c-56.276-14.448-113.127-24.513-170.879-28.221
			c-47.316-3.033-94.729-4.302-142.1-6.418c-10.656-0.476-20.197,0.876-29.021,8.81c-9.299,8.376-20.83,4.129-22.664-8.733
			c-3.316-23.142-6.094-46.571-6.48-69.927c-0.744-44.889-0.234-89.813,0.807-134.702c1.592-68.706,3.826-137.405,6.273-206.084
			c1.758-49.08,4.584-98.099-0.697-147.166c-1.047-9.623,0.084-19.611,1.076-29.331c1.295-12.602,10.512-21.018,21.756-16.806
			c32.371,12.125,64.35,3.212,96.604,1.075c93.527-6.19,185.844-2.585,275.375,32.04c24.457,9.458,51.551,13.663,77.742,15.669
			c42.188,3.219,84.844,5.811,126.895,2.626c35.129-2.654,70.01-12.498,104.338-21.817c48.641-13.194,96.438-29.8,145.068-43.049
			c25.658-6.997,51.412-12.422,74.738-26.657c10.926-6.679,20.736,0.648,20.742,13.967c0.041,77.915,0.014,155.824,0.014,233.739
			C999.551-5480.958,999.165-5480.958,998.771-5480.955L998.771-5480.955z M979.967-5705.333c-4.791,2.288-7.631,3.777-10.574,5.018
			c-8.961,3.757-17.723,8.286-26.967,10.905c-14.736,4.164-30.062,6.136-44.688,10.616c-27.814,8.521-55.143,18.791-82.988,27.167
			c-27.85,8.375-55.893,16.323-84.229,22.609c-26.053,5.784-52.527,12.14-78.938,12.843c-43.615,1.165-87.422-0.469-130.934-3.964
			c-25.721-2.061-51.604-7.92-76.352-15.717c-34.75-10.939-68.906-24.678-105.191-27.966c-39.417-3.571-79.053-4.729-118.621-5.825
			c-19.584-0.538-39.754-1.248-58.725,2.854c-27.871,6.012-54.852,7.452-81.887-1.93c-8.064-2.799-8.438,0.345-7.639,7.293
			c1.861,16.289,4.068,32.619,4.48,48.984c0.711,28.718,0.725,57.477,0.016,86.201c-0.746,30.316-2.855,60.6-4.047,90.909
			c-1.475,37.734-3.289,75.476-3.764,113.224c-0.627,50.866-0.275,101.745-0.027,152.618c0.104,23.3,0.971,46.593,1.523,71.236
			c7.416-2.082,12.924-4.798,18.516-4.998c24.65-0.903,49.424-2.646,73.979-1.172c46.412,2.792,92.881,6.204,139.018,11.974
			c36.955,4.633,73.559,12.615,110.143,20.039c35.908,7.286,71.299,18.916,107.494,22.817c37.184,4.005,75.172,2.695,112.631,0.496
			c34.609-2.033,69.078-7.631,103.428-12.932c39.031-6.025,77.406-15.166,115.506-26.381
			c43.316-12.746,87.504-22.328,129.604-39.402c2.859-1.158,6.479-4.061,7.036-6.77c1.192-5.68,0.985-11.795,0.644-17.682
			c-2.096-35.921-4.889-71.808-6.488-107.757c-1.385-31.006-2.02-62.081-2.064-93.122c-0.193-96.858,0.031-193.71,0.107-290.568
			C979.981-5663.572,979.967-5683.425,979.967-5705.333L979.967-5705.333z"/>
		<g id="g405">
			<path id="path407" d="M979.62-5705.333c0.018,0,0.033,0.168,0.049,0.502c0.01,0.334,0.023,0.833,0.041,1.497
				c0.016,1.327,0.039,3.311,0.07,5.933c0.021,5.244,0.055,13.045,0.098,23.272c0.049,20.454,0.119,50.614,0.209,89.436
				c-0.438,38.803-0.35,86.25,0.205,141.326c0.256,27.529,0.373,56.953,0.35,88.144c0.135,15.591,0.27,31.623,0.408,48.081
				c0.225,8.227,0.447,16.56,0.677,24.996c0.11,4.22,0.224,8.465,0.334,12.736c0.14,4.27,0.149,8.572,0.407,12.889
				c0.904,17.27,1.843,34.951,2.898,53.021c0.58,9.033,1.168,18.164,1.762,27.392c0.303,4.613,0.605,9.251,0.91,13.912
				c0.291,4.663,0.662,9.339,0.865,14.064c0.135,4.734,0.08,9.495-1.02,14.258c-0.436,1.195-1.205,2.203-2.078,3.055
				c-0.854,0.884-1.84,1.613-2.87,2.271c-1.03,0.66-2.192,1.14-3.304,1.555l-3.362,1.301c-2.245,0.868-4.495,1.739-6.755,2.612
				c-2.26,0.864-4.506,1.784-6.812,2.546c-4.592,1.594-9.205,3.195-13.84,4.805c-18.648,6.125-37.896,11.503-57.466,16.925
				c-4.899,1.323-9.821,2.651-14.767,3.984c-4.94,1.329-9.908,2.649-14.871,4.056c-9.928,2.793-19.989,5.498-30.104,8.28
				c-20.252,5.514-40.99,10.432-62.104,15.229l-3.98,0.785c-1.33,0.261-2.675,0.442-4.014,0.669
				c-2.68,0.437-5.361,0.873-8.051,1.312c-5.371,0.896-10.762,1.794-16.172,2.696c-10.838,1.651-21.75,3.314-32.736,4.988
				c-5.498,0.815-11.014,1.633-16.547,2.453l-4.153,0.618l-4.175,0.529c-2.784,0.354-5.572,0.711-8.366,1.066
				c-2.796,0.359-5.595,0.719-8.396,1.078l-4.207,0.544c-1.404,0.169-2.817,0.269-4.229,0.407
				c-5.648,0.521-11.314,1.045-16.998,1.57c-22.768,1.427-45.839,2.352-69.201,2.244c-11.683,0-23.426-0.527-35.219-1.283
				c-2.943-0.263-5.893-0.525-8.846-0.789l-4.43-0.396c-1.475-0.165-2.945-0.381-4.422-0.569c-2.947-0.392-5.9-0.782-8.857-1.175
				c-2.941-0.463-5.875-1.022-8.818-1.531c-5.898-0.955-11.725-2.321-17.604-3.507c-2.934-0.622-5.848-1.333-8.778-1.994
				c-2.929-0.677-5.864-1.331-8.786-2.051c-11.716-2.8-23.453-5.709-35.289-8.399c-2.953-0.706-5.936-1.278-8.904-1.927
				c-2.977-0.62-5.941-1.284-8.941-1.868c-5.982-1.205-11.982-2.414-17.997-3.625c-12.022-2.401-24.104-4.814-36.233-7.237
				c-6.094-1.051-12.197-2.104-18.316-3.159c-3.061-0.507-6.107-1.116-9.188-1.543c-3.076-0.437-6.156-0.873-9.24-1.311
				c-6.17-0.852-12.332-1.822-18.539-2.595c-6.219-0.694-12.451-1.391-18.695-2.088c-3.121-0.353-6.246-0.706-9.373-1.059
				l-4.695-0.533l-4.707-0.438c-6.281-0.59-12.576-1.182-18.881-1.773c-3.152-0.301-6.309-0.601-9.467-0.901
				c-3.158-0.306-6.328-0.519-9.496-0.785c-6.338-0.514-12.689-1.028-19.053-1.543c-6.346-0.646-12.715-1.148-19.098-1.618
				c-6.385-0.45-12.779-0.9-19.188-1.353c-1.602-0.101-3.205-0.227-4.809-0.304l-4.811-0.148c-3.209-0.094-6.42-0.188-9.633-0.281
				c-3.213-0.152-6.436-0.047-9.658,0.01c-3.223,0.06-6.447,0.119-9.676,0.178c-12.91,0.412-25.869,1.076-38.883,1.606
				c-0.832,0.018-1.58,0.108-2.355,0.172c-0.771,0.053-1.541,0.257-2.312,0.376c-0.77,0.17-1.539,0.381-2.309,0.572l-2.305,0.699
				l-4.635,1.529l-2.344,0.75l-3.25,0.958l-0.473,0.138l-0.234,0.069l-0.059,0.018c-0.008-0.011-0.004-0.038-0.006-0.057
				l-0.002-0.124l-0.021-0.987l-0.041-1.965l-0.045-2.493l-0.078-4.899c-0.041-3.269-0.082-6.539-0.123-9.812
				c-0.221-12.838-0.443-25.638-0.664-38.396c-0.322-12.762-0.414-25.479-0.59-38.153c-0.303-25.349-0.84-50.52-0.566-75.499
				c0.285-12.501,0.568-24.951,0.85-37.351c0.064-3.099,0.127-6.195,0.191-9.288c0.066-3.093,0.092-6.183,0.244-9.268
				c0.225-6.171,0.449-12.329,0.674-18.474c0.416-12.289,0.691-24.528,0.889-36.719c0.312-12.186,0.467-24.323,0.402-36.415
				c0.754-24.145,2.41-53.064,3.381-79.005c0.277-6.485,0.547-12.788,0.805-18.788c0.25-6,0.602-11.694,0.645-16.975
				c0.227-10.555,0.49-19.419,0.807-25.632c-0.025-2.334-0.053-4.741-0.082-7.215c-0.025-2.474-0.018-5.013-0.121-7.609
				c-0.135-5.194-0.275-10.622-0.42-16.224c-0.111-5.601-0.227-11.376-0.342-17.265c-0.025-1.472-0.051-2.951-0.074-4.438
				l-0.035-2.232l-0.113-2.229c-0.154-2.976-0.307-5.972-0.461-8.982c-0.885-12.038-2.293-24.277-3.621-36.298
				c-0.16-1.493-0.344-3.014-0.406-4.598c-0.039-0.787-0.02-1.614,0.076-2.474c0.139-0.866,0.34-1.842,1.062-2.761
				c0.201-0.213,0.41-0.425,0.629-0.613c0.244-0.153,0.496-0.299,0.75-0.433c0.5-0.187,1.035-0.345,1.494-0.354
				c0.963-0.096,1.785,0.052,2.588,0.199c1.572,0.325,3.035,0.888,4.383,1.321c5.459,1.931,10.965,3.343,16.35,4.4
				c10.781,2.13,21.793,2.592,32.654,2.028c5.434-0.325,10.834-0.905,16.193-1.681c5.365-0.764,10.646-1.848,15.943-2.894
				c10.648-2.151,21.432-2.858,32.088-3.014c10.666-0.14,21.23,0.232,31.711,0.499c5.242,0.134,10.467,0.267,15.67,0.399
				c5.205,0.127,10.389,0.29,15.553,0.496c5.162,0.192,10.307,0.384,15.432,0.575c2.561,0.101,5.117,0.201,7.668,0.302
				c2.551,0.134,5.098,0.268,7.637,0.402c10.158,0.575,20.248,0.917,30.227,1.722c4.996,0.337,9.969,0.673,14.92,1.007
				c4.943,0.291,9.902,0.685,14.812,1.293c19.595,2.946,37.97,8.453,55.663,14.28c17.709,5.828,34.803,12.133,52.068,17.092
				c8.617,2.537,17.301,4.611,25.979,6.522c2.181,0.424,4.358,0.849,6.534,1.273l3.268,0.627l3.28,0.532l6.556,1.046l6.58,0.839
				c2.188,0.308,4.389,0.503,6.588,0.696c2.201,0.188,4.395,0.423,6.6,0.57c4.414,0.26,8.826,0.52,13.244,0.779
				c4.416,0.247,8.836,0.494,13.262,0.74c2.214,0.106,4.428,0.271,6.646,0.324c2.219,0.061,4.438,0.123,6.664,0.184
				c7.27,0.247,14.406,0.489,21.465,0.729c3.527,0.175,7.043,0.153,10.543,0.218c3.502,0.054,6.992,0.107,10.479,0.16
				c3.484,0.062,6.971,0.124,10.457,0.186c1.742,0.023,3.488,0.087,5.234,0.08c1.748-0.016,3.496-0.032,5.248-0.048
				c7.01-0.055,14.068-0.109,21.238-0.165c1.793-0.012,3.592-0.024,5.398-0.036c1.798-0.085,3.604-0.169,5.414-0.254
				c1.812-0.105,3.641-0.132,5.469-0.303c1.826-0.172,3.666-0.345,5.514-0.519c7.396-0.696,14.922-1.869,22.656-3.191
				c3.857-0.722,7.773-1.456,11.748-2.261c3.967-0.84,8.004-1.657,12.1-2.583c8.195-1.807,16.693-3.711,25.469-5.873
				c24.475-6.023,48.189-12.672,70.232-19.207c1.379-0.4,2.754-0.8,4.121-1.197c1.355-0.421,2.711-0.84,4.057-1.257
				c2.691-0.835,5.354-1.663,7.99-2.481c2.637-0.817,5.246-1.626,7.821-2.425c2.575-0.802,5.104-1.667,7.608-2.481
				c10.006-3.314,19.496-6.458,28.34-9.388c2.218-0.717,4.402-1.423,6.559-2.119c2.164-0.667,4.297-1.325,6.396-1.973
				c4.201-1.299,8.275-2.56,12.224-3.78c0.989-0.294,1.955-0.635,2.942-0.886c0.986-0.255,1.965-0.507,2.936-0.758
				c1.938-0.502,3.846-0.995,5.719-1.48c1.865-0.521,3.729-0.877,5.551-1.27c1.82-0.388,3.609-0.769,5.363-1.143
				c7.008-1.512,13.512-2.722,19.348-4.274c1.466-0.363,2.896-0.718,4.291-1.063c0.352-0.087,0.695-0.173,1.041-0.259
				c0.336-0.111,0.67-0.223,1.002-0.333c0.664-0.22,1.32-0.438,1.968-0.652c1.295-0.43,2.556-0.849,3.778-1.256
				c1.199-0.487,2.365-0.962,3.496-1.422c1.133-0.462,2.229-0.911,3.293-1.347c1.051-0.468,2.07-0.921,3.056-1.359
				c1.972-0.876,3.808-1.692,5.507-2.447c1.702-0.754,3.27-1.446,4.697-2.078c1.406-0.658,2.678-1.252,3.809-1.781
				c4.51-2.188,6.805-3.363,6.805-3.363c-0.027-0.059-0.625,0.182-1.781,0.711c-1.146,0.542-2.861,1.352-5.131,2.424
				c-1.131,0.523-2.398,1.111-3.805,1.762c-1.431,0.633-2.996,1.326-4.701,2.08c-1.697,0.762-3.529,1.585-5.498,2.468
				c-0.981,0.443-1.996,0.902-3.045,1.376c-1.061,0.441-2.152,0.896-3.279,1.366c-1.127,0.468-2.287,0.95-3.479,1.446
				c-1.222,0.417-2.477,0.846-3.763,1.285c-0.646,0.221-1.298,0.443-1.959,0.67c-0.329,0.112-0.663,0.227-0.997,0.341
				c-0.346,0.089-0.689,0.179-1.037,0.269c-1.395,0.359-2.818,0.729-4.279,1.105c-5.815,1.612-12.309,2.897-19.297,4.498
				c-1.748,0.396-3.531,0.799-5.346,1.211c-1.814,0.416-3.674,0.796-5.527,1.343c-1.861,0.51-3.758,1.028-5.687,1.556
				c-0.964,0.264-1.937,0.529-2.916,0.798c-0.979,0.264-1.942,0.618-2.929,0.927c-3.926,1.279-7.979,2.6-12.155,3.961
				c-2.091,0.68-4.212,1.37-6.36,2.07c-2.145,0.73-4.316,1.472-6.521,2.223c-8.871,2.855-18.219,5.93-28.034,9.194
				c-2.452,0.815-4.938,1.642-7.45,2.478c-2.525,0.8-5.08,1.609-7.666,2.429c-2.582,0.823-5.195,1.656-7.839,2.499
				c-2.642,0.851-5.312,1.705-8.034,2.5c-21.697,6.615-45.369,13.543-71.134,19.757c-8.456,1.916-16.548,3.64-24.343,5.31
				c-7.789,1.689-15.299,3.244-22.629,4.644c-14.648,2.784-28.648,4.78-42.686,5.193c-7.009,0.141-13.996,0.281-21.061,0.423
				c-3.53,0.063-7.081,0.128-10.661,0.192c-3.582-0.047-7.192-0.094-10.847-0.142c-7.307-0.113-14.783-0.215-22.518-0.415
				c-7.729-0.37-15.72-0.781-24.062-1.25c-8.354-0.241-16.922-0.937-25.686-1.488c-4.379-0.293-8.808-0.59-13.273-0.889
				c-2.232-0.118-4.473-0.402-6.725-0.6c-2.248-0.231-4.515-0.396-6.771-0.729c-2.259-0.298-4.522-0.597-6.8-0.896
				c-2.27-0.324-4.534-0.733-6.812-1.098l-3.421-0.564l-3.409-0.662c-2.275-0.451-4.558-0.902-6.843-1.354
				c-9.106-1.977-18.224-4.266-27.271-6.871c-18.086-5.272-35.871-11.703-53.562-17.262c-17.668-5.585-35.304-10.3-52.552-12.592
				c-8.061-1.183-17.153-1.636-26.811-2.361c-2.416-0.17-4.869-0.342-7.355-0.517c-2.482-0.178-5.002-0.363-7.553-0.458
				c-5.1-0.239-10.311-0.482-15.594-0.729c-10.561-0.573-21.426-0.854-32.26-1.276c-10.838-0.407-21.65-0.814-32.129-1.209
				c-10.479-0.351-21.033-0.808-31.652-0.734c-10.609,0.088-21.324,0.747-31.869,2.876c-5.291,1.044-10.613,2.147-16,2.938
				c-5.385,0.805-10.818,1.428-16.291,1.811c-10.943,0.678-22.07,0.396-33.068-1.498c-5.484-0.994-10.93-2.344-16.244-4.146
				c-1.352-0.415-2.643-0.907-3.932-1.214c-0.324-0.096-0.646-0.144-0.967-0.198c-0.324-0.07-0.637-0.094-0.947-0.105
				c-0.625-0.048-1.205,0.04-1.627,0.265c-0.854,0.385-1.113,1.709-1.135,3.014c-0.025,1.323,0.109,2.703,0.262,4.084
				c0.633,5.572,1.309,11.151,1.906,16.77c0.303,2.807,0.605,5.619,0.908,8.435c0.246,2.823,0.494,5.651,0.742,8.483
				c0.293,2.828,0.396,5.678,0.539,8.527l0.213,4.279c0.072,1.427,0.154,2.855,0.15,4.282c0.076,5.71,0.152,11.437,0.229,17.179
				c0.084,5.742,0.17,11.501,0.256,17.274c0.025,2.888,0.133,5.778,0.1,8.673c-0.021,2.896-0.043,5.794-0.064,8.697
				c-0.166,5.809-0.293,11.632-0.393,17.471c-0.043,2.919-0.086,5.842-0.129,8.77c-0.062,2.926-0.01,5.859-0.16,8.791
				c-0.393,11.734-0.785,23.529-1.182,35.383c-0.344,11.861-0.891,23.75-1.41,35.708c-0.295,5.977-0.592,11.967-0.887,17.972
				c-0.273,6.007-0.578,12.027-0.922,18.06c-0.373,12.074-0.746,24.203-1.123,36.386c-0.252,12.18-0.504,24.412-0.758,36.697
				c-0.152,6.142-0.307,12.296-0.461,18.463c-0.113,3.083-0.1,6.173-0.129,9.265c-0.027,3.093-0.055,6.188-0.084,9.286
				c-0.129,12.395-0.336,24.84-0.646,37.336c0.307,24.966,0.418,50.139,0.297,75.485c-0.035,12.674-0.156,25.395,0.084,38.142
				c0.104,6.375,0.207,12.76,0.311,19.155c0.143,6.396,0.377,12.803,0.611,19.218c0.033,3.273,0.066,6.545,0.102,9.813l0.062,4.901
				l0.033,2.409v0.582l0.002,0.299c-0.02,0.077,0.041,0.043,0.086,0.032l0.139-0.038l1.59-0.451l2.322-0.731l4.658-1.513
				l2.365-0.704c0.805-0.196,1.604-0.411,2.416-0.586c0.826-0.125,1.635-0.333,2.475-0.39c0.834-0.066,1.684-0.156,2.484-0.168
				c13.002-0.461,25.969-1.054,38.908-1.44c3.236-0.056,6.471-0.111,9.701-0.168c3.232-0.055,6.461-0.164,9.689-0.02
				c3.229,0.081,6.455,0.162,9.68,0.244l4.834,0.119c1.607,0.065,3.209,0.178,4.814,0.265c6.414,0.368,12.818,0.736,19.211,1.104
				c6.395,0.358,12.775,0.721,19.141,1.189c6.363,0.575,12.715,1.149,19.055,1.723c3.17,0.287,6.34,0.519,9.5,0.837
				c3.162,0.312,6.32,0.622,9.475,0.933c6.312,0.597,12.611,1.191,18.898,1.786l4.715,0.432l4.701,0.524
				c3.133,0.345,6.262,0.69,9.389,1.034c6.256,0.676,12.5,1.35,18.73,2.021c6.223,0.748,12.412,1.696,18.603,2.526
				c3.096,0.428,6.186,0.855,9.271,1.282c3.091,0.418,6.146,1.02,9.216,1.52c6.131,1.051,12.25,2.099,18.356,3.145
				c12.119,2.532,24.188,5.054,36.199,7.563c6.006,1.246,11.997,2.49,17.977,3.731c2.992,0.597,5.974,1.278,8.953,1.912
				c2.978,0.66,5.969,1.246,8.924,1.96c11.854,2.729,23.601,5.646,35.306,8.416c2.925,0.714,5.854,1.358,8.776,2.022
				c2.929,0.649,5.843,1.347,8.769,1.953c5.863,1.151,11.683,2.478,17.554,3.381c2.928,0.513,5.844,1.079,8.771,1.551
				c2.937,0.402,5.864,0.805,8.793,1.207c1.466,0.195,2.925,0.418,4.392,0.591l4.408,0.421c2.938,0.282,5.87,0.564,8.799,0.846
				c11.742,0.834,23.444,1.455,35.1,1.524c23.302,0.247,46.373-0.626,69.082-2.364c5.666-0.534,11.316-1.066,16.947-1.598
				c1.408-0.139,2.815-0.238,4.219-0.407l4.199-0.541c2.799-0.356,5.592-0.713,8.381-1.068c2.789-0.352,5.572-0.702,8.354-1.053
				l4.166-0.521l4.149-0.611c5.529-0.813,11.041-1.624,16.533-2.433c5.496-0.778,10.963-1.663,16.416-2.502
				c5.448-0.86,10.896-1.656,16.295-2.561c5.39-0.947,10.761-1.892,16.11-2.832c2.675-0.472,5.347-0.943,8.011-1.414
				c1.332-0.246,2.67-0.448,3.989-0.73l3.959-0.854c21.187-4.174,41.945-8.935,62.15-14.511c10.096-2.814,20.104-5.601,30.024-8.517
				c4.953-1.466,9.905-2.852,14.832-4.25c4.926-1.403,9.83-2.801,14.713-4.193c19.594-5.327,38.847-10.561,57.487-16.529
				c4.636-1.569,9.246-3.132,13.839-4.687c2.309-0.742,4.553-1.642,6.811-2.485c2.257-0.854,4.507-1.705,6.75-2.554l3.365-1.271
				c1.162-0.429,2.147-0.825,3.104-1.427c0.947-0.595,1.871-1.265,2.642-2.054c0.799-0.759,1.459-1.654,1.786-2.547
				c0.188-0.39,0.25-1.019,0.341-1.586l0.267-1.721c0.075-0.575,0.209-1.142,0.235-1.725l0.104-1.746
				c0.201-2.319,0.11-4.668,0.097-7.003c-2.209-37.678-4.33-73.852-6.354-108.38c-0.304-4.316-0.359-8.619-0.539-12.89
				c-0.154-4.273-0.306-8.52-0.457-12.74c-0.304-8.441-0.601-16.778-0.896-25.008c-0.24-16.469-0.476-32.512-0.701-48.112
				c-0.1-31.191-0.17-60.615-0.116-88.146c0.528-57.157,0.118-102.524,0.541-141.328c0.213-38.821,0.379-68.981,0.489-89.436
				c0.022-10.228,0.041-18.028,0.054-23.272c-0.013-2.622-0.021-4.605-0.026-5.933c-0.013-0.664-0.021-1.163-0.027-1.497
				C979.646-5705.166,979.634-5705.333,979.62-5705.333L979.62-5705.333z"/>
		</g>
		<g id="g409">
			<path id="path411" d="M998.778-5480.606c0-0.024,0.346-0.051,1.156-0.08l0.285-0.011l-0.01-0.271
				c-0.211-7.026-0.207-51.068-0.432-125.353c0.211-20.346,0.286-42.957,0.238-67.702c-0.051-12.373-0.104-25.278-0.161-38.701
				c-0.007-1.678-0.021-3.365-0.239-5.037c-0.133-0.833-0.225-1.676-0.475-2.487l-0.32-1.229l-0.455-1.188
				c-1.197-3.155-3.539-5.999-6.689-7.365l-1.197-0.46l-1.258-0.266c-0.414-0.118-0.848-0.105-1.275-0.133
				c-0.43-0.01-0.857-0.084-1.285-0.01l-1.287,0.132c-0.428,0.051-0.842,0.196-1.264,0.289c-0.855,0.16-1.645,0.55-2.457,0.857
				c-1.562,0.748-3.08,1.666-4.65,2.553c-1.557,0.891-3.123,1.784-4.693,2.683c-1.549,0.944-3.199,1.701-4.85,2.487
				c-1.646,0.787-3.301,1.579-4.961,2.373c-0.822,0.418-1.678,0.763-2.535,1.104c-0.855,0.347-1.715,0.694-2.576,1.043
				c-1.721,0.696-3.447,1.395-5.184,2.097c-3.537,1.21-7.08,2.521-10.701,3.672c-3.639,1.091-7.279,2.304-11.002,3.304
				c-7.418,2.129-15.002,4.082-22.658,6.168c-3.842,0.996-7.666,2.174-11.541,3.272c-3.871,1.115-7.771,2.238-11.695,3.369
				c-15.742,4.396-31.797,9.416-48.328,14.379c-8.271,2.483-16.646,5-25.125,7.547c-4.242,1.269-8.512,2.544-12.807,3.828
				c-4.291,1.294-8.652,2.442-13.02,3.68c-8.729,2.469-17.561,4.967-26.492,7.494c-8.963,2.417-18.025,4.87-27.209,7.272
				c-18.369,4.776-37.277,9.287-56.881,12.173c-2.451,0.344-4.9,0.761-7.373,1.049c-2.475,0.256-4.957,0.512-7.445,0.769
				c-4.971,0.605-9.994,0.797-15.029,1.14c-5.037,0.381-10.109,0.498-15.205,0.664c-2.548,0.066-5.102,0.202-7.66,0.213
				c-2.562,0.016-5.127,0.032-7.699,0.048c-20.58,0.099-41.527-0.772-62.789-2.078c-5.315-0.34-10.649-0.735-16.004-1.164
				c-2.676-0.214-5.359-0.428-8.047-0.643c-2.688-0.251-5.381-0.502-8.08-0.754c-10.783-1.127-21.613-2.671-32.424-4.805
				c-10.816-2.1-21.564-5.011-32.133-8.697c-10.58-3.659-21.061-7.692-31.979-10.743c-21.457-7.164-43.84-12.632-66.795-16.506
				c-22.959-3.883-46.482-6.181-70.326-7.223c-23.824-1.471-48.02-1.59-72.453-0.778c-6.109,0.165-12.23,0.52-18.373,0.774
				c-6.141,0.3-12.291,0.722-18.463,1.078c-12.316,0.768-24.625,2.538-37.086,3.845c-6.229,0.634-12.492,1.143-18.799,1.368
				c-6.307,0.179-12.65,0-18.979-0.649c-6.334-0.64-12.605-1.995-18.74-3.828l-4.568-1.508l-2.166-0.664
				c-0.734-0.117-1.465-0.29-2.203-0.349c-2.943-0.226-5.957,0.451-8.383,2.162c-2.43,1.682-4.383,4.092-5.637,6.854
				c-1.291,2.771-1.926,5.755-2.209,8.89c-0.623,6.37-1.281,12.732-1.312,19.089c-0.062,3.186,0.154,6.332,0.445,9.504
				c0.283,3.22,0.566,6.442,0.85,9.669c0.26,3.228,0.609,6.453,0.787,9.693c0.16,3.24,0.318,6.484,0.479,9.732
				c1.471,25.979,1.102,52.223,0.221,78.596c-0.504,13.182-1.008,26.415-1.514,39.698c-0.461,13.284-0.926,26.619-1.391,40.005
				c-2.717,53.451-2.939,107.761-5.439,162.629c-0.443,13.453-0.623,26.873-0.818,40.249c-0.074,6.688-0.146,13.366-0.221,20.032
				c-0.029,3.334-0.057,6.664-0.084,9.992c0.041,3.327,0.082,6.652,0.123,9.974c0.166,13.286,0.332,26.525,0.498,39.716
				c0.033,3.298,0.066,6.592,0.102,9.883l0.043,4.934c0.004,1.646,0.023,3.288,0.117,4.921c0.139,3.272,0.279,6.542,0.418,9.808
				l0.197,4.896c0.082,1.631,0.248,3.257,0.365,4.885c0.449,6.521,0.738,13.045,1.449,19.527c0.311,3.245,0.621,6.487,0.93,9.726
				c0.318,3.239,0.746,6.464,1.115,9.691c0.396,3.219,0.742,6.464,1.184,9.654c0.461,3.131,1.646,6.194,3.721,8.583
				c1.076,1.136,2.295,2.192,3.754,2.805c0.352,0.182,0.709,0.348,1.094,0.44l1.133,0.342c0.781,0.087,1.559,0.293,2.354,0.229
				c1.59,0.069,3.15-0.362,4.652-0.862c1.463-0.625,2.881-1.383,4.131-2.383c1.275-0.952,2.445-2.1,3.768-3.027
				c1.285-0.981,2.67-1.822,4.076-2.611c2.844-1.533,5.916-2.606,9.062-3.285c3.156-0.646,6.375-0.917,9.584-0.953
				c3.215-0.016,6.41,0.148,9.604,0.215c12.779,0.342,25.508,0.525,38.189,0.49c25.318,0.846,55.629,2.367,82.861,3.719
				c3.402,0.175,6.758,0.346,10.051,0.515c1.646,0.086,3.275,0.171,4.887,0.255c1.611,0.127,3.205,0.253,4.779,0.377
				c6.293,0.52,12.27,0.999,17.795,1.508c5.512,0.648,10.58,1.246,15.084,1.775c2.248,0.281,4.357,0.533,6.303,0.808
				c1.941,0.314,3.725,0.604,5.338,0.864c4.875,0.538,10.057,1.109,15.482,1.708c5.402,0.771,11.053,1.575,16.883,2.405
				c1.457,0.214,2.924,0.43,4.4,0.646c1.475,0.25,2.957,0.501,4.449,0.754c2.982,0.52,6.004,1.046,9.054,1.577
				c3.05,0.543,6.134,1.058,9.226,1.648c3.086,0.622,6.193,1.249,9.312,1.88c3.119,0.636,6.256,1.274,9.396,1.914
				c3.141,0.639,6.26,1.404,9.391,2.104c3.129,0.719,6.256,1.438,9.373,2.153c1.559,0.364,3.111,0.728,4.664,1.089
				c1.545,0.392,3.086,0.781,4.623,1.171c6.145,1.573,12.219,3.129,18.168,4.652c5.93,1.556,11.732,3.077,17.349,4.55
				c11.239,2.907,22.476,5.522,33.665,7.989c11.217,2.338,22.383,4.587,33.559,6.291c11.156,1.829,22.311,3.147,33.406,4.151
				c5.557,0.398,11.088,0.882,16.615,1.07c2.766,0.11,5.521,0.293,8.275,0.341c2.754,0.056,5.504,0.111,8.248,0.167
				c2.744,0.076,5.486,0.016,8.221,0.012c2.736-0.029,5.467,0,8.191-0.071c5.449-0.156,10.881-0.229,16.283-0.521
				c10.812-0.417,21.521-1.248,32.139-2.141c21.221-1.949,42.021-4.688,62.352-8.022c20.436-2.791,40.193-5.727,59.42-9.159
				c19.217-3.489,37.9-7.407,56.229-11.795c18.299-4.501,36.223-9.495,53.92-15.06c17.729-5.481,35.389-11.043,53.166-16.766
				c14.555-4.642,28.615-8.903,42.633-13.138c7.015-2.097,14.017-4.189,21.064-6.297c3.521-1.069,7.107-2.027,10.504-3.282
				c3.324-1.288,6.824-2.798,8.309-5.74c1.504-2.938,1.295-6.837,1.156-10.572c-0.207-3.823-0.414-7.685-0.625-11.59
				c-0.43-7.812-0.869-15.806-1.322-24.045c-0.475-8.239-0.963-16.725-1.471-25.521c-0.477-8.8-0.973-17.909-1.486-27.396
				c-0.446-6.604-0.68-13.184-0.953-19.705c-0.247-6.522-0.493-12.989-0.736-19.383c-0.211-12.787-0.418-25.281-0.617-37.342
				c-0.322-24.123-0.619-46.516-0.881-66.059c-0.121-39.069-0.359-69.386-0.668-89.935c-0.289-20.55-0.574-31.331-0.574-31.331
				c-0.064,0-0.1,0.676-0.111,2.008c-0.01,1.333,0.004,3.323,0.039,5.955c0.102,5.265,0.248,13.097,0.443,23.371
				c0.401,20.547,0.996,50.859,1.762,89.919c0.092,19.543,0.477,41.273,0.996,65.061c0.279,11.893,0.568,24.301,0.871,37.208
				c0.211,6.451,0.521,13.024,0.787,19.722c0.289,6.696,0.506,13.518,0.939,20.45c0.35,9.083,0.703,17.752,1.104,26.102
				c0.477,8.345,0.936,16.374,1.383,24.187c0.492,7.81,0.969,15.401,1.439,22.875c0.243,3.735,0.486,7.442,0.729,11.131
				c0.115,1.847,0.265,3.681,0.351,5.525c0.093,1.842,0.146,3.693-0.048,5.545c-0.184,1.839-0.635,3.722-1.68,5.319
				c-1.031,1.605-2.57,2.797-4.182,3.723c-1.617,0.947-3.35,1.641-5.082,2.293c-1.74,0.642-3.508,1.21-5.277,1.756
				c-7.08,2.166-14.235,4.354-21.562,6.595c-14.654,4.46-30.027,8.995-46.846,13.895c-16.748,5.122-34.459,10.539-52.697,16.117
				c-18.232,5.647-37.158,10.918-56.322,15.628c-19.174,4.681-38.592,8.73-57.727,12.324c-4.789,0.869-9.557,1.733-14.295,2.594
				c-4.75,0.787-9.471,1.571-14.154,2.348c-9.369,1.554-18.611,2.947-27.654,4.324c-16.98,2.449-37.771,5.406-59.885,7.595
				c-11.061,1.067-22.441,1.983-33.826,2.45c-5.689,0.301-11.381,0.387-17.023,0.491c-2.818,0.065-5.631-0.01-8.424-0.01
				c-2.793-0.03-5.566-0.011-8.322-0.137c-2.752-0.077-5.508-0.153-8.271-0.23c-2.762-0.069-5.525-0.273-8.295-0.404
				c-5.543-0.229-11.09-0.752-16.66-1.185c-11.123-1.072-22.297-2.44-33.477-4.273c-11.199-1.709-22.391-3.92-33.646-6.153
				c-11.229-2.362-22.521-4.809-33.84-7.457c-11.271-2.815-22.611-5.647-34.023-8.498c-2.854-0.69-5.697-1.452-8.578-2.088
				c-2.875-0.652-5.754-1.305-8.637-1.959c-5.766-1.311-11.543-2.649-17.381-3.788c-2.914-0.595-5.832-1.189-8.754-1.785
				c-2.924-0.59-5.844-1.218-8.793-1.719c-5.887-1.056-11.791-2.114-17.713-3.176c-5.943-0.918-11.904-1.839-17.881-2.762
				l-4.488-0.674l-4.51-0.572c-3.01-0.379-6.021-0.759-9.035-1.14c-24.1-3.438-48.654-5.24-73.508-5.988
				c-24.838-1.007-49.904-2.144-75.219-3.472c-12.664-0.401-25.385-0.805-38.162-1.211c-3.193-0.084-6.408-0.255-9.529-0.238
				c-3.139,0.034-6.252,0.308-9.277,0.938c-3.012,0.665-5.924,1.703-8.615,3.179c-1.332,0.763-2.641,1.57-3.859,2.52l-0.918,0.701
				l-0.881,0.754c-0.553,0.483-1.244,1.044-1.92,1.589c-1.344,1.095-2.896,1.954-4.523,2.662c-1.676,0.587-3.439,1.085-5.277,1.035
				c-0.914,0.073-1.822-0.136-2.73-0.239c-0.445-0.116-0.887-0.251-1.328-0.38c-0.449-0.108-0.869-0.294-1.281-0.499
				c-1.711-0.705-3.148-1.904-4.396-3.201c-2.42-2.713-3.76-6.129-4.303-9.531c-0.492-3.275-0.867-6.46-1.301-9.7
				c-0.404-3.23-0.863-6.455-1.211-9.7c-0.334-3.247-0.668-6.498-1.002-9.751c-0.75-6.497-1.059-13.057-1.494-19.608
				c-3.35-52.427-0.523-105.643-0.23-159.496c2.564-54.875,3.67-109.159,4.971-162.662c0.641-13.382,1.182-26.716,1.65-40.001
				c0.553-13.283,1.068-26.515,1.482-39.695c0.801-26.357,1.012-52.539-0.449-78.415c-0.127-3.237-0.254-6.471-0.381-9.7
				c-0.146-3.229-0.467-6.441-0.697-9.658c-0.258-3.215-0.514-6.427-0.77-9.634c-0.273-3.236-0.475-6.498-0.389-9.735
				c0.076-6.483,0.779-12.892,1.432-19.259c0.303-3.212,1.002-6.495,2.412-9.471c1.373-2.988,3.525-5.663,6.277-7.551
				c2.742-1.923,6.215-2.705,9.521-2.433c0.828,0.068,1.641,0.257,2.457,0.395l2.357,0.726l4.482,1.481
				c6.021,1.799,12.18,3.128,18.416,3.743c6.232,0.627,12.492,0.782,18.732,0.576c6.24-0.254,12.457-0.795,18.65-1.473
				c12.408-1.273,24.77-2.98,37.172-3.672c6.184-0.316,12.344-0.694,18.496-0.952c6.152-0.213,12.283-0.526,18.404-0.657
				c24.475-0.671,48.695-0.503,72.59,0.657c23.904,0.966,47.486,3.36,70.508,7.265c23.025,3.896,45.48,9.308,67.15,16.113
				c10.852,3.355,21.369,7.613,31.842,11.348c10.451,3.76,21.139,6.678,31.906,8.732c10.764,2.088,21.562,3.534,32.316,4.537
				c2.689,0.219,5.377,0.438,8.059,0.657c2.688,0.18,5.371,0.359,8.047,0.539c5.355,0.359,10.689,0.681,16.004,0.948
				c21.23,1.402,42.127,2.411,62.656,2.459c2.564,0,5.125,0.01,7.68,0.01c2.557,0.01,5.102-0.109,7.643-0.157
				c5.082-0.129,10.143-0.209,15.166-0.553c5.021-0.306,10.041-0.462,14.986-1.031c2.479-0.238,4.951-0.477,7.416-0.715
				c2.465-0.271,4.906-0.671,7.354-0.999c19.549-2.753,38.447-7.164,56.807-11.911c9.181-2.389,18.24-4.845,27.195-7.287
				c8.914-2.572,17.727-5.115,26.436-7.628c4.352-1.279,8.695-2.468,12.975-3.803c4.28-1.322,8.537-2.638,12.766-3.943
				c8.457-2.618,16.811-5.202,25.055-7.755c16.503-5.09,32.523-10.208,48.275-14.67c3.928-1.145,7.83-2.281,11.701-3.409
				c3.879-1.109,7.705-2.295,11.553-3.296c7.674-2.099,15.248-4.046,22.642-6.149c3.72-0.99,7.331-2.183,10.956-3.252
				c3.604-1.128,7.117-2.41,10.641-3.59c1.721-0.683,3.438-1.363,5.145-2.041c0.854-0.339,1.707-0.677,2.559-1.014
				c0.854-0.332,1.702-0.667,2.518-1.072c1.648-0.771,3.291-1.538,4.926-2.303c1.639-0.762,3.279-1.493,4.816-2.409
				c1.627-0.892,3.244-1.777,4.85-2.658c0.812-0.442,1.617-0.883,2.422-1.322l1.289-0.682l0.646-0.335l0.684-0.263l1.369-0.519
				c0.472-0.13,0.953-0.232,1.431-0.347l0.716-0.166l0.734-0.069c0.492-0.036,0.979-0.105,1.473-0.106
				c1.979,0.01,3.939,0.497,5.693,1.367c1.758,0.893,3.188,2.248,4.373,3.718c0.535,0.778,1.104,1.538,1.484,2.389
				c0.467,0.813,0.768,1.685,1.084,2.547c0.326,0.859,0.475,1.761,0.715,2.635c0.129,0.891,0.279,1.78,0.361,2.668
				c0.031,0.884,0.096,1.792,0.1,2.647c0,0.852,0,1.699-0.01,2.545c-0.018,13.524-0.031,26.362-0.045,38.599
				c-0.011,24.472,0,46.539-0.203,66.885c-0.404,74.284-0.611,118.326-0.471,125.353l0.01,0.287l-0.299,0.012
				c-0.406,0.015-0.695,0.025-0.885,0.033c-0.195,0.01-0.281,0.017-0.281,0.027v0.002H998.778z"/>
		</g>
	</g>
</g>
<g id="g413">
	<g>
		<g>
			<defs>
				<path id="SVGID_1_" d="M979.967-5705.333c-4.791,2.288-7.631,3.777-10.574,5.018c-8.961,3.757-17.723,8.286-26.967,10.905
					c-14.736,4.164-30.062,6.136-44.688,10.616c-27.814,8.521-55.143,18.791-82.988,27.167
					c-27.85,8.375-55.893,16.323-84.229,22.609c-26.053,5.784-52.527,12.14-78.938,12.843c-43.615,1.165-87.422-0.469-130.934-3.964
					c-25.721-2.061-51.604-7.92-76.352-15.717c-34.75-10.939-68.906-24.678-105.191-27.966
					c-39.417-3.571-79.053-4.729-118.621-5.825c-19.584-0.538-39.754-1.248-58.725,2.854c-27.871,6.012-54.852,7.452-81.887-1.93
					c-8.064-2.799-8.438,0.345-7.639,7.293c1.861,16.289,4.068,32.619,4.48,48.984c0.711,28.718,0.725,57.477,0.016,86.201
					c-0.746,30.316-2.855,60.6-4.047,90.909c-1.475,37.734-3.289,75.476-3.764,113.224c-0.627,50.866-0.275,101.745-0.027,152.618
					c0.104,23.3,0.971,46.593,1.523,71.236c7.416-2.082,12.924-4.798,18.516-4.998c24.65-0.903,49.424-2.646,73.979-1.172
					c46.412,2.792,92.881,6.204,139.018,11.974c36.955,4.633,73.559,12.615,110.143,20.039
					c35.908,7.286,71.299,18.916,107.494,22.817c37.184,4.005,75.172,2.695,112.631,0.496c34.609-2.033,69.078-7.631,103.428-12.932
					c39.031-6.025,77.406-15.166,115.506-26.381c43.316-12.746,87.504-22.328,129.604-39.402c2.859-1.158,6.479-4.061,7.036-6.77
					c1.192-5.68,0.985-11.795,0.644-17.682c-2.096-35.921-4.889-71.808-6.488-107.757c-1.385-31.006-2.02-62.081-2.064-93.122
					c-0.193-96.858,0.031-193.71,0.107-290.568C979.981-5663.572,979.967-5683.425,979.967-5705.333L979.967-5705.333z"/>
			</defs>
			<clipPath id="SVGID_2_">
				<use xlink:href="#SVGID_1_"  overflow="visible"/>
			</clipPath>
			<rect id="rect421" x="35.323" y="-5704.466" clip-path="url(#SVGID_2_)" fill="#FFFFFF" width="980.212" height="653.475"/>
		</g>
	</g>
	<g>
		<g>
			<defs>
				<path id="SVGID_3_" d="M979.967-5705.333c-4.791,2.288-7.631,3.777-10.574,5.018c-8.961,3.757-17.723,8.286-26.967,10.905
					c-14.736,4.164-30.062,6.136-44.688,10.616c-27.814,8.521-55.143,18.791-82.988,27.167
					c-27.85,8.375-55.893,16.323-84.229,22.609c-26.053,5.784-52.527,12.14-78.938,12.843c-43.615,1.165-87.422-0.469-130.934-3.964
					c-25.721-2.061-51.604-7.92-76.352-15.717c-34.75-10.939-68.906-24.678-105.191-27.966
					c-39.417-3.571-79.053-4.729-118.621-5.825c-19.584-0.538-39.754-1.248-58.725,2.854c-27.871,6.012-54.852,7.452-81.887-1.93
					c-8.064-2.799-8.438,0.345-7.639,7.293c1.861,16.289,4.068,32.619,4.48,48.984c0.711,28.718,0.725,57.477,0.016,86.201
					c-0.746,30.316-2.855,60.6-4.047,90.909c-1.475,37.734-3.289,75.476-3.764,113.224c-0.627,50.866-0.275,101.745-0.027,152.618
					c0.104,23.3,0.971,46.593,1.523,71.236c7.416-2.082,12.924-4.798,18.516-4.998c24.65-0.903,49.424-2.646,73.979-1.172
					c46.412,2.792,92.881,6.204,139.018,11.974c36.955,4.633,73.559,12.615,110.143,20.039
					c35.908,7.286,71.299,18.916,107.494,22.817c37.184,4.005,75.172,2.695,112.631,0.496c34.609-2.033,69.078-7.631,103.428-12.932
					c39.031-6.025,77.406-15.166,115.506-26.381c43.316-12.746,87.504-22.328,129.604-39.402c2.859-1.158,6.479-4.061,7.036-6.77
					c1.192-5.68,0.985-11.795,0.644-17.682c-2.096-35.921-4.889-71.808-6.488-107.757c-1.385-31.006-2.02-62.081-2.064-93.122
					c-0.193-96.858,0.031-193.71,0.107-290.568C979.981-5663.572,979.967-5683.425,979.967-5705.333L979.967-5705.333z"/>
			</defs>
			<clipPath id="SVGID_4_">
				<use xlink:href="#SVGID_3_"  overflow="visible"/>
			</clipPath>
			<rect id="rect423" x="35.323" y="-5377.728" clip-path="url(#SVGID_4_)" fill="#DC1E3E" width="980.212" height="326.736"/>
		</g>
	</g>
	<g>
		<g>
			<defs>
				<path id="SVGID_5_" d="M979.967-5705.333c-4.791,2.288-7.631,3.777-10.574,5.018c-8.961,3.757-17.723,8.286-26.967,10.905
					c-14.736,4.164-30.062,6.136-44.688,10.616c-27.814,8.521-55.143,18.791-82.988,27.167
					c-27.85,8.375-55.893,16.323-84.229,22.609c-26.053,5.784-52.527,12.14-78.938,12.843c-43.615,1.165-87.422-0.469-130.934-3.964
					c-25.721-2.061-51.604-7.92-76.352-15.717c-34.75-10.939-68.906-24.678-105.191-27.966
					c-39.417-3.571-79.053-4.729-118.621-5.825c-19.584-0.538-39.754-1.248-58.725,2.854c-27.871,6.012-54.852,7.452-81.887-1.93
					c-8.064-2.799-8.438,0.345-7.639,7.293c1.861,16.289,4.068,32.619,4.48,48.984c0.711,28.718,0.725,57.477,0.016,86.201
					c-0.746,30.316-2.855,60.6-4.047,90.909c-1.475,37.734-3.289,75.476-3.764,113.224c-0.627,50.866-0.275,101.745-0.027,152.618
					c0.104,23.3,0.971,46.593,1.523,71.236c7.416-2.082,12.924-4.798,18.516-4.998c24.65-0.903,49.424-2.646,73.979-1.172
					c46.412,2.792,92.881,6.204,139.018,11.974c36.955,4.633,73.559,12.615,110.143,20.039
					c35.908,7.286,71.299,18.916,107.494,22.817c37.184,4.005,75.172,2.695,112.631,0.496c34.609-2.033,69.078-7.631,103.428-12.932
					c39.031-6.025,77.406-15.166,115.506-26.381c43.316-12.746,87.504-22.328,129.604-39.402c2.859-1.158,6.479-4.061,7.036-6.77
					c1.192-5.68,0.985-11.795,0.644-17.682c-2.096-35.921-4.889-71.808-6.488-107.757c-1.385-31.006-2.02-62.081-2.064-93.122
					c-0.193-96.858,0.031-193.71,0.107-290.568C979.981-5663.572,979.967-5683.425,979.967-5705.333L979.967-5705.333z"/>
			</defs>
			<clipPath id="SVGID_6_">
				<use xlink:href="#SVGID_5_"  overflow="visible"/>
			</clipPath>
			<path id="path425" clip-path="url(#SVGID_6_)" stroke="#000000" stroke-width="0.25" stroke-miterlimit="10" d="
				M1002.038-5363.56c-36.896,1.686-73.693,3.706-110.775,4.247c-39.791-0.463-79.6-1.026-119.45-1.2
				c-39.832-0.537-79.675-1.31-119.481-2.666c-48.053-1.13-96.068-3.271-144.111-5.355c-48.047-1.554-96.047-4.001-144.102-5.506
				c-28.613-1.256-57.285-1.503-85.924-1.954c-28.648-0.259-57.227-0.906-85.826-0.432c-45.484-0.393-90.852,2.772-139.807,3.898
				l-0.424-28.071c23.111-0.203,46.221-0.424,69.334,0.09c45.32,1.307,90.742,0.803,136.055,2.27
				c45.34,0.964,90.67,2.103,136.041,2.932c49.256,2.04,98.609,2.731,147.898,4.576c49.316,1.386,98.643,2.617,147.934,4.477
				c33.615,0.906,67.227,1.958,100.889,1.658c33.576,1.206,67.285-0.33,100.828,0.294c36.01-0.207,71.871-1.414,107.291-2.638
				L1002.038-5363.56L1002.038-5363.56z"/>
		</g>
	</g>
</g>
</svg>
