<?xml version="1.0" encoding="utf-8"?>
<!-- Generator: Adobe Illustrator 16.0.1, SVG Export Plug-In . SVG Version: 6.00 Build 0)  -->
<!DOCTYPE svg PUBLIC "-//W3C//DTD SVG 1.1//EN" "http://www.w3.org/Graphics/SVG/1.1/DTD/svg11.dtd">
<svg version="1.1" id="Layer_1" xmlns="http://www.w3.org/2000/svg" xmlns:xlink="http://www.w3.org/1999/xlink" x="0px" y="0px"
	 width="961.431px" height="707.911px" viewBox="0 0 961.431 707.911" enable-background="new 0 0 961.431 707.911"
	 xml:space="preserve">
<g>
	<path fill-rule="evenodd" clip-rule="evenodd" fill="#ED1C24" d="M932.334,26.988c-4.791,2.288-7.632,3.777-10.575,5.018
		c-8.961,3.757-17.723,8.286-26.968,10.905c-14.736,4.164-30.061,6.136-44.688,10.616c-27.814,8.521-55.14,18.791-82.988,27.167
		c-27.85,8.375-55.892,16.323-84.23,22.609c-26.05,5.784-52.527,12.14-78.936,12.843c-43.614,1.165-87.422-0.469-130.933-3.964
		c-25.719-2.061-51.604-7.92-76.351-15.717C361.916,85.526,327.76,71.788,291.473,68.5c-39.416-3.571-79.053-4.729-118.62-5.825
		c-19.584-0.538-39.754-1.248-58.725,2.854c-27.87,6.012-54.851,7.452-81.887-1.93c-8.064-2.799-8.438,0.345-7.638,7.293
		c1.861,16.289,4.067,32.619,4.48,48.984c0.711,28.718,0.725,57.477,0.015,86.201c-0.745,30.316-2.854,60.6-4.047,90.909
		c-1.475,37.734-3.288,75.476-3.764,113.224c-0.627,50.866-0.275,101.745-0.027,152.618c0.104,23.3,0.972,46.593,1.523,71.236
		c7.417-2.082,12.925-4.798,18.516-4.998c24.65-0.903,49.425-2.646,73.979-1.172c46.412,2.792,92.881,6.204,139.018,11.974
		c36.955,4.633,73.559,12.615,110.142,20.039c35.908,7.286,71.299,18.916,107.495,22.817c37.183,4.005,75.172,2.695,112.631,0.496
		c34.611-2.033,69.078-7.631,103.428-12.932c39.03-6.025,77.405-15.166,115.505-26.381c43.317-12.746,87.504-22.328,129.602-39.402
		c2.86-1.158,6.479-4.061,7.038-6.77c1.192-5.68,0.985-11.795,0.641-17.682c-2.095-35.921-4.887-71.808-6.486-107.757
		c-1.386-31.006-2.02-62.081-2.067-93.122c-0.193-96.858,0.034-193.71,0.11-290.568C932.348,68.748,932.334,48.895,932.334,26.988z"
		/>
	<g>
		<path fill-rule="evenodd" clip-rule="evenodd" fill="#00A651" d="M16.897,639.448c0-22.073,0.007-46.165,0-70.257
			c0-52.5-0.938-105.027,0.213-157.5c1.331-61.633,5.356-123.218,6.556-184.845c1.034-52.038-0.192-104.138-0.689-156.196
			c-0.075-6.349-1.896-12.684-2.55-16.848c21.775,1.606,42.904,4.363,63.997,4.322c15.297-0.027,30.545-4.694,45.89-5.68
			c54.14-3.475,108.308-3.867,162.241,2.998c17.647,2.247,35.108,6.576,52.396,11.016c2.488,0.655,5.081,7.259,5.095,11.133
			c0.214,46.634,0.062,93.281-0.193,139.921c-0.482,86.312-1.014,172.603-1.675,258.894c-0.462,59.117-1.172,118.229-1.813,177.346
			c-0.048,2.847-0.448,5.68-0.703,8.616C237.622,644.053,129.796,632.886,16.897,639.448z"/>
	</g>
	<g>
		<path fill-rule="evenodd" clip-rule="evenodd" d="M951.139,251.366c1.109,75.055,1.695,150.116,3.529,225.15
			c1.055,42.388,4.081,84.733,6.424,127.086c0.662,11.884-1.013,14.903-15.055,19.178c-40.836,12.449-81.858,24.209-122.611,36.935
			c-47.971,14.992-96.783,25.663-146.264,33.433c-65.631,10.306-131.58,18.604-197.859,10.767
			c-35.873-4.239-71.478-12.56-106.592-21.576c-56.277-14.448-113.127-24.513-170.879-28.221
			c-47.316-3.033-94.729-4.302-142.1-6.418c-10.657-0.476-20.197,0.876-29.021,8.81c-9.299,8.376-20.831,4.129-22.665-8.733
			c-3.315-23.142-6.094-46.571-6.479-69.927c-0.745-44.889-0.234-89.813,0.807-134.702c1.592-68.706,3.825-137.405,6.272-206.084
			c1.758-49.08,4.584-98.099-0.696-147.166c-1.048-9.623,0.083-19.611,1.075-29.331C10.32,47.964,19.537,39.548,30.78,43.76
			c32.371,12.125,64.35,3.212,96.604,1.075c93.528-6.19,185.845-2.585,275.375,32.04c24.458,9.458,51.549,13.663,77.743,15.669
			c42.188,3.219,84.844,5.811,126.893,2.626c35.129-2.654,70.009-12.498,104.338-21.817c48.64-13.194,96.438-29.8,145.07-43.049
			c25.656-6.997,51.411-12.422,74.738-26.657c10.926-6.679,20.735,0.648,20.742,13.967c0.041,77.915,0.014,155.824,0.014,233.739
			C951.918,251.359,951.531,251.359,951.139,251.366z M932.334,26.988c-4.791,2.288-7.632,3.777-10.575,5.018
			c-8.961,3.757-17.723,8.286-26.968,10.905c-14.736,4.164-30.061,6.136-44.688,10.616c-27.814,8.521-55.14,18.791-82.988,27.167
			c-27.85,8.375-55.892,16.323-84.23,22.609c-26.05,5.784-52.527,12.14-78.936,12.843c-43.614,1.165-87.422-0.469-130.933-3.964
			c-25.719-2.061-51.604-7.92-76.351-15.717C361.916,85.526,327.76,71.788,291.473,68.5c-39.416-3.571-79.053-4.729-118.62-5.825
			c-19.584-0.538-39.754-1.248-58.725,2.854c-27.87,6.012-54.851,7.452-81.887-1.93c-8.064-2.799-8.438,0.345-7.638,7.293
			c1.861,16.289,4.067,32.619,4.48,48.984c0.711,28.718,0.725,57.477,0.015,86.201c-0.745,30.316-2.854,60.6-4.047,90.909
			c-1.475,37.734-3.288,75.476-3.764,113.224c-0.627,50.866-0.275,101.745-0.027,152.618c0.104,23.3,0.972,46.593,1.523,71.236
			c7.417-2.082,12.925-4.798,18.516-4.998c24.65-0.903,49.425-2.646,73.979-1.172c46.412,2.792,92.881,6.204,139.018,11.974
			c36.955,4.633,73.559,12.615,110.142,20.039c35.908,7.286,71.299,18.916,107.495,22.817c37.183,4.005,75.172,2.695,112.631,0.496
			c34.611-2.033,69.078-7.631,103.428-12.932c39.03-6.025,77.405-15.166,115.505-26.381c43.317-12.746,87.504-22.328,129.602-39.402
			c2.86-1.158,6.479-4.061,7.038-6.77c1.192-5.68,0.985-11.795,0.641-17.682c-2.095-35.921-4.887-71.808-6.486-107.757
			c-1.386-31.006-2.02-62.081-2.067-93.122c-0.193-96.858,0.034-193.71,0.11-290.568C932.348,68.748,932.334,48.895,932.334,26.988z
			"/>
		<g>
			<path fill="none" d="M951.139,251.366c1.109,75.055,1.695,150.116,3.529,225.15c1.055,42.388,4.081,84.733,6.424,127.086
				c0.662,11.884-1.013,14.903-15.055,19.178c-40.836,12.449-81.858,24.209-122.611,36.935
				c-47.971,14.992-96.783,25.663-146.264,33.433c-65.631,10.306-131.58,18.604-197.859,10.767
				c-35.873-4.239-71.478-12.56-106.592-21.576c-56.277-14.448-113.127-24.513-170.879-28.221
				c-47.316-3.033-94.729-4.302-142.1-6.418c-10.657-0.476-20.197,0.876-29.021,8.81c-9.299,8.376-20.831,4.129-22.665-8.733
				c-3.315-23.142-6.094-46.571-6.479-69.927c-0.745-44.889-0.234-89.813,0.807-134.702c1.592-68.706,3.825-137.405,6.272-206.084
				c1.758-49.08,4.584-98.099-0.696-147.166c-1.048-9.623,0.083-19.611,1.075-29.331C10.32,47.964,19.537,39.548,30.78,43.76
				c32.371,12.125,64.35,3.212,96.604,1.075c93.528-6.19,185.845-2.585,275.375,32.04c24.458,9.458,51.549,13.663,77.743,15.669
				c42.188,3.219,84.844,5.811,126.893,2.626c35.129-2.654,70.009-12.498,104.338-21.817c48.64-13.194,96.438-29.8,145.07-43.049
				c25.656-6.997,51.411-12.422,74.738-26.657c10.926-6.679,20.735,0.648,20.742,13.967c0.041,77.915,0.014,155.824,0.014,233.739
				C951.918,251.359,951.531,251.359,951.139,251.366z M932.334,26.988c-4.791,2.288-7.632,3.777-10.575,5.018
				c-8.961,3.757-17.723,8.286-26.968,10.905c-14.736,4.164-30.061,6.136-44.688,10.616c-27.814,8.521-55.14,18.791-82.988,27.167
				c-27.85,8.375-55.892,16.323-84.23,22.609c-26.05,5.784-52.527,12.14-78.936,12.843c-43.614,1.165-87.422-0.469-130.933-3.964
				c-25.719-2.061-51.604-7.92-76.351-15.717C361.916,85.526,327.76,71.788,291.473,68.5c-39.416-3.571-79.053-4.729-118.62-5.825
				c-19.584-0.538-39.754-1.248-58.725,2.854c-27.87,6.012-54.851,7.452-81.887-1.93c-8.064-2.799-8.438,0.345-7.638,7.293
				c1.861,16.289,4.067,32.619,4.48,48.984c0.711,28.718,0.725,57.477,0.015,86.201c-0.745,30.316-2.854,60.6-4.047,90.909
				c-1.475,37.734-3.288,75.476-3.764,113.224c-0.627,50.866-0.275,101.745-0.027,152.618c0.104,23.3,0.972,46.593,1.523,71.236
				c7.417-2.082,12.925-4.798,18.516-4.998c24.65-0.903,49.425-2.646,73.979-1.172c46.412,2.792,92.881,6.204,139.018,11.974
				c36.955,4.633,73.559,12.615,110.142,20.039c35.908,7.286,71.299,18.916,107.495,22.817c37.183,4.005,75.172,2.695,112.631,0.496
				c34.611-2.033,69.078-7.631,103.428-12.932c39.03-6.025,77.405-15.166,115.505-26.381
				c43.317-12.746,87.504-22.328,129.602-39.402c2.86-1.158,6.479-4.061,7.038-6.77c1.192-5.68,0.985-11.795,0.641-17.682
				c-2.095-35.921-4.887-71.808-6.486-107.757c-1.386-31.006-2.02-62.081-2.067-93.122c-0.193-96.858,0.034-193.71,0.11-290.568
				C932.348,68.748,932.334,48.895,932.334,26.988z"/>
			<g>
				<path fill-rule="evenodd" clip-rule="evenodd" d="M931.985,26.988c0.018,0,0.034,0.168,0.049,0.502
					c0.009,0.334,0.023,0.834,0.042,1.497c0.016,1.327,0.039,3.311,0.069,5.933c0.022,5.244,0.055,13.045,0.099,23.272
					c0.048,20.454,0.118,50.614,0.208,89.436c-0.437,38.803-0.349,86.25,0.205,141.326c0.256,27.529,0.373,56.953,0.351,88.144
					c0.132,15.591,0.268,31.623,0.407,48.081c0.223,8.227,0.449,16.56,0.677,24.996c0.11,4.22,0.221,8.465,0.333,12.736
					c0.138,4.271,0.15,8.571,0.409,12.889c0.902,17.27,1.84,34.951,2.897,53.021c0.581,9.033,1.168,18.164,1.761,27.392
					c0.302,4.613,0.605,9.251,0.911,13.912c0.291,4.664,0.661,9.339,0.865,14.064c0.136,4.734,0.081,9.496-1.017,14.258
					c-0.435,1.195-1.205,2.204-2.078,3.055c-0.854,0.884-1.841,1.613-2.872,2.271c-1.031,0.661-2.193,1.14-3.302,1.555l-3.364,1.301
					c-2.246,0.869-4.497,1.74-6.753,2.613c-2.26,0.864-4.506,1.784-6.814,2.546c-4.592,1.594-9.206,3.195-13.841,4.805
					c-18.646,6.126-37.896,11.504-57.464,16.926c-4.901,1.323-9.823,2.65-14.765,3.984c-4.942,1.329-9.91,2.649-14.872,4.055
					c-9.927,2.793-19.99,5.497-30.106,8.279c-20.252,5.514-40.989,10.432-62.104,15.229l-3.982,0.785
					c-1.329,0.261-2.674,0.442-4.012,0.669c-2.679,0.437-5.362,0.873-8.05,1.311c-5.372,0.896-10.762,1.795-16.172,2.697
					c-10.837,1.651-21.75,3.314-32.736,4.988c-5.498,0.814-11.014,1.633-16.548,2.453l-4.154,0.619l-4.174,0.528
					c-2.785,0.354-5.574,0.71-8.368,1.066c-2.794,0.359-5.592,0.719-8.395,1.079l-4.208,0.543c-1.405,0.169-2.819,0.27-4.23,0.408
					c-5.649,0.521-11.315,1.044-16.999,1.569c-22.765,1.427-45.838,2.351-69.202,2.245c-11.681,0.001-23.426-0.527-35.219-1.284
					c-2.944-0.263-5.891-0.526-8.843-0.789l-4.431-0.396c-1.475-0.165-2.946-0.381-4.421-0.569
					c-2.948-0.392-5.901-0.783-8.857-1.175c-2.944-0.463-5.876-1.022-8.822-1.531c-5.897-0.956-11.722-2.322-17.602-3.507
					c-2.933-0.623-5.848-1.334-8.779-1.995c-2.927-0.676-5.865-1.331-8.787-2.051c-11.713-2.8-23.451-5.709-35.288-8.399
					c-2.953-0.706-5.934-1.278-8.904-1.926c-2.978-0.621-5.941-1.285-8.941-1.869c-5.986-1.205-11.985-2.413-17.999-3.624
					c-12.024-2.401-24.104-4.814-36.235-7.237c-6.093-1.051-12.198-2.104-18.315-3.159c-3.062-0.507-6.111-1.116-9.19-1.543
					c-3.077-0.437-6.157-0.874-9.24-1.312c-6.17-0.851-12.332-1.822-18.539-2.594c-6.22-0.694-12.452-1.391-18.696-2.088
					c-3.122-0.353-6.246-0.706-9.374-1.059l-4.693-0.533l-4.709-0.438c-6.281-0.59-12.574-1.182-18.88-1.773
					c-3.152-0.301-6.308-0.601-9.467-0.901c-3.158-0.306-6.328-0.519-9.497-0.785c-6.338-0.514-12.689-1.027-19.052-1.543
					c-6.345-0.646-12.714-1.148-19.098-1.618c-6.385-0.45-12.781-0.901-19.188-1.353c-1.602-0.101-3.206-0.227-4.809-0.304
					l-4.811-0.148c-3.209-0.094-6.42-0.188-9.634-0.281c-3.212-0.151-6.434-0.047-9.657,0.008c-3.223,0.06-6.448,0.118-9.676,0.178
					c-12.911,0.412-25.869,1.076-38.883,1.606c-0.832,0.018-1.58,0.108-2.356,0.172c-0.771,0.053-1.541,0.258-2.313,0.376
					c-0.77,0.17-1.538,0.382-2.308,0.572l-2.305,0.698l-4.634,1.53l-2.345,0.75l-3.25,0.958l-0.471,0.139l-0.235,0.068l-0.059,0.018
					c-0.008-0.011-0.003-0.038-0.005-0.057l-0.003-0.124l-0.021-0.987l-0.042-1.965l-0.044-2.493l-0.079-4.899
					c-0.041-3.269-0.081-6.539-0.122-9.812c-0.222-12.838-0.443-25.638-0.665-38.396c-0.322-12.763-0.414-25.479-0.589-38.153
					c-0.302-25.349-0.84-50.52-0.564-75.5c0.283-12.5,0.566-24.95,0.847-37.35c0.064-3.099,0.128-6.195,0.191-9.288
					c0.067-3.093,0.091-6.183,0.243-9.268c0.225-6.171,0.45-12.329,0.674-18.474c0.416-12.289,0.69-24.528,0.888-36.719
					c0.312-12.186,0.466-24.323,0.403-36.416c0.753-24.144,2.409-53.063,3.381-79.004c0.277-6.486,0.547-12.788,0.804-18.788
					c0.251-6,0.603-11.694,0.645-16.975c0.227-10.556,0.491-19.419,0.807-25.632c-0.026-2.334-0.054-4.742-0.082-7.215
					c-0.025-2.474-0.017-5.013-0.121-7.609c-0.135-5.194-0.275-10.622-0.42-16.224c-0.111-5.601-0.226-11.376-0.343-17.265
					c-0.025-1.473-0.049-2.951-0.074-4.438l-0.035-2.232l-0.113-2.229c-0.153-2.976-0.307-5.973-0.461-8.982
					c-0.885-12.038-2.292-24.277-3.62-36.298c-0.162-1.493-0.345-3.014-0.407-4.598c-0.039-0.788-0.019-1.614,0.076-2.474
					c0.14-0.866,0.34-1.842,1.063-2.762c0.201-0.212,0.409-0.424,0.629-0.612c0.243-0.153,0.495-0.299,0.75-0.433
					c0.5-0.187,1.035-0.345,1.493-0.354c0.964-0.097,1.785,0.051,2.588,0.198c1.573,0.325,3.037,0.888,4.384,1.321
					c5.458,1.932,10.964,3.343,16.349,4.4c10.782,2.131,21.792,2.593,32.654,2.029c5.433-0.325,10.835-0.905,16.193-1.681
					c5.366-0.764,10.646-1.848,15.944-2.894c10.648-2.152,21.431-2.858,32.086-3.014c10.667-0.14,21.232,0.231,31.712,0.498
					c5.243,0.134,10.466,0.267,15.67,0.399c5.204,0.127,10.388,0.29,15.552,0.496c5.164,0.192,10.308,0.384,15.431,0.575
					c2.562,0.101,5.119,0.201,7.67,0.302c2.551,0.134,5.096,0.269,7.636,0.401c10.159,0.576,20.248,0.918,30.227,1.723
					c4.994,0.337,9.967,0.673,14.918,1.007c4.945,0.291,9.904,0.685,14.811,1.293c19.594,2.946,37.969,8.452,55.664,14.28
					c17.709,5.827,34.801,12.132,52.069,17.091c8.617,2.537,17.301,4.611,25.98,6.521c2.181,0.425,4.359,0.85,6.536,1.273
					l3.266,0.628l3.28,0.532l6.556,1.046l6.579,0.839c2.188,0.308,4.389,0.503,6.589,0.696c2.201,0.188,4.395,0.423,6.6,0.57
					c4.413,0.26,8.826,0.52,13.243,0.78c4.417,0.246,8.837,0.493,13.263,0.74c2.214,0.106,4.426,0.271,6.646,0.323
					c2.219,0.062,4.44,0.123,6.664,0.185c7.271,0.247,14.406,0.489,21.466,0.729c3.528,0.175,7.042,0.153,10.543,0.218
					c3.501,0.054,6.991,0.107,10.478,0.16c3.486,0.062,6.97,0.124,10.458,0.186c1.744,0.023,3.489,0.087,5.236,0.08
					c1.747-0.016,3.496-0.032,5.249-0.048c7.01-0.055,14.068-0.109,21.238-0.165c1.792-0.012,3.592-0.024,5.399-0.036
					c1.797-0.085,3.602-0.169,5.416-0.254c1.812-0.105,3.638-0.132,5.466-0.303c1.828-0.172,3.666-0.345,5.514-0.519
					c7.395-0.696,14.92-1.869,22.655-3.191c3.859-0.722,7.775-1.456,11.748-2.261c3.967-0.84,8.004-1.657,12.1-2.583
					c8.195-1.807,16.694-3.711,25.469-5.873c24.472-6.023,48.188-12.672,70.232-19.207c1.38-0.4,2.753-0.8,4.121-1.197
					c1.359-0.421,2.711-0.84,4.057-1.257c2.691-0.836,5.355-1.663,7.991-2.481c2.636-0.817,5.244-1.626,7.822-2.425
					c2.577-0.803,5.103-1.667,7.608-2.481c10.008-3.314,19.497-6.458,28.342-9.388c2.216-0.717,4.401-1.423,6.555-2.119
					c2.165-0.667,4.298-1.324,6.399-1.973c4.201-1.299,8.276-2.56,12.222-3.779c0.99-0.295,1.955-0.635,2.943-0.887
					c0.986-0.254,1.964-0.507,2.935-0.758c1.939-0.502,3.845-0.995,5.718-1.48c1.865-0.521,3.729-0.877,5.55-1.27
					c1.821-0.389,3.61-0.769,5.364-1.143c7.007-1.512,13.512-2.722,19.347-4.274c1.465-0.363,2.896-0.718,4.292-1.063
					c0.349-0.087,0.696-0.174,1.041-0.26c0.336-0.111,0.67-0.222,1.002-0.332c0.664-0.22,1.319-0.438,1.967-0.652
					c1.294-0.43,2.554-0.849,3.78-1.256c1.199-0.487,2.364-0.962,3.496-1.422c1.131-0.463,2.229-0.911,3.292-1.347
					c1.052-0.468,2.07-0.921,3.054-1.359c1.971-0.876,3.807-1.692,5.507-2.447c1.703-0.754,3.27-1.446,4.698-2.078
					c1.406-0.657,2.676-1.252,3.808-1.781c4.51-2.188,6.805-3.363,6.805-3.363c-0.028-0.059-0.625,0.182-1.782,0.711
					c-1.148,0.542-2.863,1.353-5.131,2.424c-1.131,0.523-2.399,1.111-3.805,1.762c-1.429,0.632-2.997,1.326-4.701,2.081
					c-1.697,0.761-3.53,1.584-5.498,2.467c-0.982,0.443-1.998,0.902-3.046,1.376c-1.059,0.441-2.152,0.896-3.278,1.366
					c-1.127,0.468-2.288,0.95-3.481,1.446c-1.22,0.417-2.474,0.845-3.762,1.285c-0.645,0.22-1.297,0.443-1.958,0.669
					c-0.331,0.113-0.664,0.227-0.999,0.342c-0.343,0.089-0.689,0.179-1.037,0.269c-1.392,0.359-2.818,0.728-4.279,1.105
					c-5.817,1.612-12.309,2.897-19.296,4.498c-1.749,0.396-3.531,0.799-5.347,1.21c-1.814,0.417-3.672,0.797-5.526,1.344
					c-1.862,0.51-3.758,1.028-5.686,1.556c-0.963,0.264-1.936,0.529-2.916,0.798c-0.981,0.264-1.943,0.618-2.928,0.927
					c-3.925,1.279-7.978,2.6-12.157,3.961c-2.089,0.68-4.21,1.37-6.362,2.07c-2.142,0.73-4.314,1.472-6.519,2.223
					c-8.871,2.855-18.219,5.929-28.035,9.194c-2.454,0.815-4.938,1.642-7.453,2.477c-2.525,0.801-5.08,1.61-7.665,2.43
					c-2.583,0.824-5.196,1.656-7.839,2.499c-2.64,0.851-5.312,1.705-8.034,2.5c-21.698,6.615-45.369,13.543-71.133,19.757
					c-8.457,1.916-16.547,3.64-24.341,5.31c-7.79,1.69-15.299,3.245-22.628,4.645c-14.652,2.783-28.652,4.779-42.686,5.193
					c-7.008,0.141-13.996,0.281-21.058,0.423c-3.532,0.063-7.083,0.128-10.664,0.192c-3.581-0.047-7.192-0.094-10.845-0.142
					c-7.306-0.113-14.782-0.215-22.517-0.416c-7.729-0.369-15.719-0.781-24.061-1.25c-8.354-0.241-16.921-0.937-25.685-1.488
					c-4.38-0.293-8.808-0.59-13.274-0.889c-2.234-0.118-4.474-0.402-6.725-0.6c-2.249-0.231-4.515-0.396-6.769-0.729
					c-2.259-0.298-4.525-0.597-6.799-0.896c-2.271-0.324-4.535-0.733-6.813-1.098l-3.419-0.564l-3.411-0.663
					c-2.275-0.45-4.556-0.901-6.841-1.354c-9.107-1.977-18.222-4.266-27.271-6.871c-18.086-5.272-35.871-11.703-53.562-17.262
					c-17.668-5.585-35.304-10.3-52.551-12.592c-8.061-1.183-17.155-1.635-26.812-2.36c-2.416-0.17-4.869-0.342-7.354-0.517
					c-2.485-0.178-5.002-0.363-7.554-0.458c-5.1-0.239-10.311-0.482-15.593-0.729c-10.56-0.573-21.425-0.854-32.259-1.276
					c-10.837-0.408-21.651-0.815-32.129-1.21c-10.478-0.351-21.034-0.808-31.652-0.734c-10.61,0.088-21.326,0.747-31.87,2.876
					c-5.291,1.044-10.613,2.147-16,2.938c-5.385,0.804-10.817,1.427-16.291,1.809c-10.943,0.679-22.071,0.397-33.069-1.497
					c-5.483-0.994-10.929-2.344-16.243-4.146c-1.352-0.415-2.644-0.907-3.932-1.214c-0.325-0.096-0.646-0.144-0.966-0.198
					c-0.325-0.07-0.638-0.094-0.948-0.105c-0.625-0.048-1.206,0.04-1.627,0.265c-0.853,0.386-1.113,1.709-1.135,3.014
					c-0.026,1.323,0.11,2.703,0.263,4.084c0.631,5.572,1.308,11.151,1.906,16.77c0.302,2.808,0.605,5.618,0.908,8.435
					c0.247,2.823,0.494,5.651,0.742,8.483c0.294,2.828,0.397,5.678,0.541,8.527l0.212,4.278c0.073,1.428,0.155,2.856,0.151,4.283
					c0.076,5.71,0.151,11.437,0.227,17.179c0.085,5.742,0.17,11.501,0.256,17.274c0.027,2.887,0.134,5.778,0.1,8.673
					c-0.021,2.896-0.042,5.794-0.063,8.697c-0.166,5.809-0.294,11.632-0.394,17.47c-0.043,2.92-0.086,5.844-0.129,8.771
					c-0.063,2.927-0.008,5.859-0.16,8.791c-0.392,11.734-0.785,23.529-1.181,35.383c-0.345,11.861-0.891,23.75-1.412,35.708
					c-0.295,5.977-0.59,11.967-0.887,17.972c-0.274,6.007-0.578,12.026-0.921,18.06c-0.373,12.074-0.747,24.203-1.123,36.386
					c-0.252,12.18-0.505,24.412-0.759,36.697c-0.153,6.142-0.307,12.296-0.46,18.463c-0.114,3.083-0.1,6.173-0.129,9.265
					c-0.028,3.093-0.056,6.188-0.083,9.286c-0.13,12.395-0.336,24.839-0.648,37.336c0.307,24.966,0.419,50.138,0.298,75.485
					c-0.037,12.674-0.156,25.395,0.082,38.142c0.103,6.375,0.207,12.76,0.31,19.155c0.143,6.395,0.378,12.803,0.61,19.218
					c0.034,3.273,0.068,6.544,0.102,9.813l0.063,4.9l0.033,2.41l0.001,0.584l0.001,0.299c-0.019,0.077,0.042,0.043,0.087,0.032
					l0.139-0.038l1.591-0.452l2.321-0.73l4.658-1.513l2.366-0.705c0.805-0.196,1.604-0.411,2.416-0.586
					c0.826-0.125,1.634-0.333,2.474-0.39c0.834-0.066,1.683-0.156,2.485-0.168c13.002-0.461,25.968-1.054,38.907-1.44
					c3.237-0.057,6.471-0.112,9.703-0.168c3.231-0.056,6.46-0.164,9.689-0.021c3.229,0.081,6.455,0.162,9.678,0.244l4.834,0.119
					c1.608,0.065,3.21,0.178,4.814,0.265c6.416,0.368,12.819,0.736,19.212,1.104c6.393,0.358,12.775,0.721,19.14,1.189
					c6.364,0.575,12.715,1.149,19.055,1.723c3.169,0.287,6.34,0.519,9.5,0.837c3.161,0.312,6.319,0.622,9.474,0.933
					c6.312,0.597,12.611,1.191,18.899,1.785l4.714,0.433l4.701,0.524c3.133,0.346,6.263,0.69,9.389,1.035
					c6.256,0.675,12.499,1.349,18.73,2.021c6.223,0.748,12.411,1.696,18.602,2.526c3.094,0.428,6.186,0.855,9.273,1.282
					c3.09,0.418,6.145,1.02,9.215,1.52c6.131,1.05,12.25,2.099,18.356,3.145c12.12,2.532,24.188,5.054,36.201,7.563
					c6.005,1.246,11.998,2.49,17.976,3.731c2.992,0.597,5.972,1.278,8.954,1.912c2.976,0.66,5.968,1.245,8.923,1.96
					c11.854,2.729,23.599,5.646,35.305,8.416c2.923,0.714,5.854,1.357,8.778,2.022c2.927,0.649,5.84,1.347,8.767,1.953
					c5.863,1.151,11.681,2.478,17.552,3.381c2.928,0.513,5.844,1.079,8.77,1.551c2.936,0.402,5.866,0.805,8.793,1.207
					c1.465,0.195,2.924,0.418,4.39,0.591l4.409,0.421c2.937,0.282,5.87,0.563,8.799,0.845c11.742,0.835,23.445,1.456,35.099,1.525
					c23.301,0.248,46.373-0.626,69.082-2.365c5.667-0.533,11.316-1.065,16.948-1.596c1.407-0.139,2.816-0.238,4.218-0.407l4.2-0.541
					c2.797-0.356,5.591-0.713,8.379-1.068c2.789-0.352,5.573-0.702,8.354-1.053l4.167-0.521l4.15-0.611
					c5.529-0.813,11.04-1.624,16.533-2.433c5.496-0.778,10.963-1.663,16.417-2.503c5.449-0.86,10.894-1.656,16.294-2.56
					c5.389-0.948,10.76-1.892,16.111-2.833c2.675-0.473,5.346-0.943,8.011-1.414c1.331-0.246,2.668-0.448,3.99-0.73l3.958-0.854
					c21.187-4.174,41.946-8.935,62.151-14.511c10.096-2.814,20.105-5.601,30.024-8.517c4.955-1.466,9.907-2.852,14.834-4.249
					c4.924-1.404,9.829-2.802,14.713-4.194c19.593-5.327,38.845-10.56,57.488-16.53c4.633-1.568,9.246-3.131,13.836-4.686
					c2.309-0.742,4.553-1.642,6.812-2.485c2.255-0.854,4.505-1.704,6.75-2.554l3.363-1.271c1.163-0.429,2.148-0.825,3.107-1.427
					c0.947-0.595,1.87-1.265,2.639-2.054c0.8-0.759,1.459-1.654,1.788-2.547c0.187-0.391,0.25-1.019,0.34-1.586l0.266-1.721
					c0.075-0.576,0.209-1.141,0.236-1.725l0.103-1.746c0.201-2.319,0.113-4.668,0.096-7.003c-2.209-37.678-4.33-73.853-6.354-108.38
					c-0.304-4.316-0.359-8.619-0.54-12.891c-0.153-4.272-0.305-8.519-0.456-12.739c-0.302-8.441-0.601-16.778-0.896-25.008
					c-0.24-16.47-0.474-32.512-0.701-48.112c-0.1-31.191-0.17-60.615-0.119-88.146c0.533-57.157,0.121-102.524,0.543-141.328
					c0.213-38.821,0.378-68.981,0.49-89.436c0.023-10.228,0.041-18.028,0.053-23.272c-0.012-2.622-0.021-4.605-0.027-5.933
					c-0.012-0.663-0.021-1.163-0.028-1.497C932.012,27.156,932,26.988,931.985,26.988z"/>
			</g>
			<g>
				<path fill-rule="evenodd" clip-rule="evenodd" d="M951.145,251.715c0-0.024,0.346-0.051,1.157-0.08l0.285-0.011l-0.008-0.271
					c-0.21-7.026-0.206-51.068-0.431-125.353c0.21-20.346,0.288-42.957,0.241-67.702c-0.052-12.372-0.106-25.278-0.163-38.701
					c-0.007-1.677-0.02-3.365-0.24-5.037c-0.133-0.833-0.222-1.676-0.474-2.487l-0.321-1.229l-0.457-1.188
					c-1.196-3.155-3.538-5.999-6.689-7.365l-1.197-0.46l-1.257-0.266c-0.415-0.118-0.848-0.105-1.276-0.133
					c-0.429-0.005-0.858-0.084-1.287-0.008l-1.287,0.131c-0.428,0.052-0.842,0.197-1.264,0.29c-0.855,0.16-1.644,0.55-2.457,0.857
					c-1.562,0.749-3.08,1.666-4.65,2.554c-1.558,0.89-3.123,1.783-4.695,2.682c-1.548,0.944-3.201,1.701-4.848,2.487
					c-1.647,0.788-3.301,1.579-4.962,2.373c-0.822,0.417-1.677,0.763-2.536,1.104c-0.856,0.347-1.715,0.694-2.575,1.043
					c-1.721,0.696-3.449,1.395-5.185,2.096c-3.538,1.211-7.079,2.522-10.701,3.673c-3.639,1.091-7.278,2.303-11.003,3.304
					c-7.417,2.129-15,4.082-22.657,6.168c-3.843,0.996-7.667,2.174-11.542,3.272c-3.871,1.114-7.77,2.238-11.697,3.369
					c-15.743,4.396-31.795,9.416-48.328,14.379c-8.269,2.483-16.644,5-25.124,7.548c-4.242,1.268-8.51,2.543-12.804,3.827
					c-4.291,1.294-8.655,2.442-13.02,3.68c-8.728,2.469-17.56,4.967-26.493,7.494c-8.962,2.417-18.025,4.87-27.209,7.272
					c-18.369,4.776-37.276,9.287-56.88,12.173c-2.452,0.345-4.901,0.761-7.373,1.05c-2.476,0.256-4.958,0.512-7.446,0.769
					c-4.971,0.605-9.994,0.797-15.032,1.14c-5.037,0.38-10.109,0.497-15.204,0.664c-2.548,0.066-5.101,0.202-7.661,0.213
					c-2.561,0.016-5.127,0.032-7.699,0.048c-20.579,0.1-41.526-0.771-62.79-2.077c-5.316-0.34-10.65-0.735-16.003-1.165
					c-2.677-0.214-5.359-0.428-8.047-0.642c-2.688-0.251-5.381-0.503-8.08-0.755c-10.784-1.127-21.615-2.672-32.424-4.806
					c-10.816-2.1-21.565-5.011-32.133-8.697c-10.58-3.658-21.059-7.692-31.979-10.744c-21.456-7.163-43.84-12.631-66.795-16.506
					c-22.959-3.882-46.482-6.18-70.325-7.222c-23.826-1.471-48.021-1.59-72.454-0.778c-6.11,0.165-12.231,0.52-18.373,0.774
					c-6.14,0.3-12.292,0.722-18.463,1.078c-12.317,0.768-24.625,2.538-37.087,3.845c-6.227,0.634-12.491,1.142-18.797,1.367
					c-6.307,0.18-12.652,0.002-18.979-0.649c-6.333-0.64-12.604-1.995-18.739-3.828l-4.568-1.508l-2.167-0.664
					c-0.734-0.117-1.465-0.29-2.203-0.349c-2.943-0.226-5.957,0.451-8.383,2.162c-2.43,1.682-4.384,4.092-5.637,6.854
					c-1.292,2.771-1.925,5.756-2.21,8.891c-0.622,6.37-1.282,12.732-1.312,19.089c-0.063,3.186,0.154,6.332,0.446,9.504
					c0.283,3.22,0.566,6.442,0.85,9.669c0.259,3.228,0.609,6.453,0.787,9.693c0.159,3.24,0.319,6.484,0.479,9.732
					c1.472,25.979,1.102,52.223,0.221,78.596c-0.503,13.182-1.007,26.414-1.514,39.698c-0.462,13.284-0.925,26.619-1.39,40.005
					c-2.716,53.451-2.939,107.761-5.44,162.629c-0.442,13.453-0.624,26.873-0.818,40.249c-0.074,6.688-0.147,13.366-0.221,20.032
					c-0.028,3.334-0.057,6.664-0.084,9.992c0.041,3.327,0.082,6.652,0.123,9.974c0.167,13.286,0.332,26.525,0.497,39.716
					c0.034,3.297,0.067,6.592,0.101,9.883l0.044,4.934c0.003,1.645,0.023,3.287,0.117,4.921c0.139,3.272,0.278,6.542,0.417,9.808
					l0.197,4.896c0.082,1.631,0.248,3.257,0.366,4.885c0.449,6.52,0.739,13.045,1.45,19.527c0.31,3.245,0.62,6.487,0.93,9.726
					c0.318,3.239,0.746,6.464,1.115,9.691c0.396,3.22,0.743,6.464,1.185,9.653c0.46,3.133,1.646,6.195,3.721,8.584
					c1.075,1.136,2.294,2.192,3.754,2.805c0.351,0.183,0.708,0.348,1.093,0.441l1.133,0.342c0.782,0.086,1.559,0.293,2.354,0.229
					c1.591,0.07,3.151-0.362,4.653-0.862c1.463-0.625,2.882-1.382,4.131-2.383c1.276-0.952,2.445-2.1,3.768-3.026
					c1.284-0.982,2.669-1.822,4.075-2.612c2.844-1.533,5.917-2.606,9.063-3.285c3.156-0.646,6.375-0.917,9.584-0.953
					c3.213-0.017,6.409,0.148,9.604,0.215c12.779,0.341,25.508,0.524,38.188,0.49c25.32,0.845,55.63,2.367,82.861,3.719
					c3.404,0.175,6.759,0.346,10.051,0.515c1.646,0.086,3.276,0.171,4.888,0.256c1.611,0.126,3.205,0.252,4.778,0.376
					c6.293,0.52,12.27,0.999,17.795,1.508c5.511,0.648,10.581,1.245,15.083,1.775c2.249,0.281,4.357,0.533,6.303,0.808
					c1.941,0.314,3.725,0.604,5.337,0.864c4.875,0.538,10.057,1.109,15.483,1.708c5.405,0.771,11.053,1.575,16.882,2.405
					c1.457,0.214,2.925,0.429,4.403,0.646c1.473,0.249,2.956,0.501,4.448,0.754c2.983,0.52,6.003,1.046,9.054,1.577
					c3.047,0.543,6.132,1.058,9.224,1.648c3.085,0.622,6.193,1.25,9.314,1.879c3.12,0.637,6.254,1.275,9.395,1.916
					c3.141,0.638,6.26,1.402,9.393,2.103c3.128,0.719,6.254,1.438,9.372,2.153c1.557,0.363,3.112,0.727,4.664,1.09
					c1.544,0.391,3.086,0.78,4.624,1.17c6.143,1.573,12.219,3.129,18.168,4.652c5.93,1.556,11.732,3.078,17.348,4.551
					c11.24,2.906,22.474,5.522,33.666,7.989c11.215,2.338,22.381,4.587,33.557,6.291c11.157,1.829,22.311,3.147,33.406,4.151
					c5.557,0.397,11.089,0.881,16.618,1.069c2.763,0.11,5.519,0.294,8.274,0.341c2.755,0.056,5.504,0.111,8.249,0.167
					c2.745,0.076,5.486,0.016,8.221,0.011c2.736-0.028,5.466,0.005,8.191-0.07c5.449-0.156,10.88-0.229,16.283-0.521
					c10.813-0.417,21.524-1.248,32.14-2.141c21.22-1.949,42.021-4.688,62.351-8.021c20.434-2.791,40.192-5.728,59.419-9.161
					c19.215-3.489,37.902-7.407,56.228-11.795c18.298-4.501,36.221-9.495,53.918-15.06c17.73-5.481,35.39-11.042,53.167-16.766
					c14.556-4.641,28.616-8.902,42.633-13.137c7.014-2.097,14.015-4.189,21.065-6.297c3.521-1.069,7.109-2.027,10.503-3.282
					c3.324-1.288,6.824-2.798,8.308-5.74c1.505-2.938,1.296-6.837,1.156-10.572c-0.207-3.823-0.415-7.685-0.625-11.591
					c-0.429-7.812-0.868-15.805-1.321-24.044c-0.475-8.239-0.963-16.725-1.47-25.521c-0.478-8.799-0.973-17.909-1.488-27.396
					c-0.447-6.604-0.679-13.184-0.952-19.705c-0.249-6.522-0.495-12.989-0.739-19.384c-0.211-12.786-0.418-25.279-0.617-37.341
					c-0.321-24.123-0.62-46.516-0.88-66.059c-0.121-39.069-0.359-69.386-0.667-89.935c-0.29-20.55-0.574-31.331-0.574-31.331
					c-0.065,0.001-0.101,0.676-0.112,2.008c-0.011,1.333,0.003,3.323,0.039,5.955c0.1,5.265,0.248,13.097,0.442,23.371
					c0.403,20.548,0.997,50.859,1.763,89.919c0.09,19.543,0.473,41.273,0.996,65.061c0.278,11.893,0.568,24.301,0.87,37.207
					c0.211,6.452,0.524,13.025,0.788,19.723c0.29,6.696,0.507,13.518,0.942,20.45c0.348,9.083,0.703,17.752,1.104,26.101
					c0.477,8.346,0.936,16.375,1.383,24.188c0.491,7.81,0.968,15.401,1.438,22.875c0.246,3.735,0.489,7.442,0.731,11.131
					c0.115,1.846,0.263,3.681,0.35,5.525c0.092,1.842,0.146,3.693-0.048,5.545c-0.183,1.839-0.635,3.723-1.68,5.319
					c-1.031,1.606-2.57,2.798-4.182,3.724c-1.617,0.947-3.346,1.641-5.082,2.293c-1.739,0.642-3.508,1.21-5.276,1.756
					c-7.082,2.166-14.238,4.354-21.562,6.595c-14.655,4.46-30.028,8.995-46.845,13.894c-16.748,5.123-34.459,10.539-52.698,16.117
					c-18.233,5.647-37.159,10.918-56.323,15.628c-19.173,4.681-38.591,8.731-57.725,12.324c-4.789,0.869-9.556,1.733-14.294,2.593
					c-4.75,0.789-9.471,1.572-14.156,2.35c-9.37,1.553-18.612,2.946-27.655,4.323c-16.98,2.451-37.773,5.407-59.886,7.596
					c-11.057,1.067-22.44,1.982-33.825,2.449c-5.689,0.301-11.38,0.387-17.022,0.491c-2.821,0.066-5.632-0.005-8.425-0.008
					c-2.792-0.03-5.569-0.011-8.321-0.137c-2.752-0.077-5.509-0.153-8.271-0.23c-2.762-0.069-5.525-0.273-8.296-0.404
					c-5.543-0.229-11.089-0.752-16.659-1.185c-11.124-1.072-22.298-2.44-33.477-4.274c-11.199-1.709-22.389-3.919-33.646-6.152
					c-11.231-2.362-22.522-4.809-33.84-7.457c-11.27-2.814-22.612-5.647-34.023-8.498c-2.856-0.69-5.7-1.453-8.579-2.088
					c-2.874-0.652-5.753-1.305-8.636-1.959c-5.765-1.311-11.543-2.65-17.381-3.789c-2.914-0.594-5.832-1.188-8.754-1.784
					c-2.923-0.589-5.844-1.218-8.793-1.719c-5.887-1.056-11.792-2.114-17.712-3.177c-5.944-0.917-11.905-1.838-17.882-2.761
					l-4.488-0.674l-4.509-0.572c-3.008-0.379-6.02-0.759-9.036-1.14c-24.099-3.438-48.653-5.24-73.507-5.988
					c-24.838-1.008-49.904-2.144-75.22-3.472c-12.664-0.401-25.384-0.806-38.161-1.211c-3.195-0.084-6.408-0.255-9.53-0.238
					c-3.137,0.034-6.252,0.308-9.276,0.938c-3.013,0.665-5.926,1.703-8.617,3.18c-1.331,0.762-2.641,1.569-3.858,2.518l-0.919,0.702
					l-0.88,0.754c-0.554,0.483-1.245,1.044-1.919,1.589c-1.344,1.095-2.897,1.955-4.524,2.662c-1.676,0.586-3.439,1.085-5.278,1.035
					c-0.913,0.074-1.822-0.136-2.731-0.24c-0.444-0.115-0.885-0.25-1.326-0.379c-0.45-0.109-0.87-0.294-1.283-0.499
					c-1.711-0.704-3.148-1.903-4.397-3.201c-2.418-2.713-3.759-6.13-4.302-9.531c-0.492-3.275-0.867-6.46-1.3-9.7
					c-0.404-3.23-0.863-6.455-1.21-9.7c-0.334-3.247-0.668-6.498-1.003-9.751c-0.75-6.497-1.059-13.057-1.494-19.608
					C-1.727,547.307,1.1,494.09,1.395,440.237c2.562-54.875,3.668-109.159,4.968-162.662c0.641-13.382,1.182-26.716,1.651-40.001
					c0.552-13.283,1.068-26.515,1.481-39.695c0.802-26.357,1.013-52.539-0.448-78.415c-0.127-3.237-0.255-6.471-0.382-9.7
					c-0.146-3.229-0.467-6.441-0.698-9.658c-0.256-3.215-0.513-6.427-0.769-9.634c-0.275-3.236-0.475-6.498-0.389-9.735
					c0.075-6.483,0.78-12.892,1.431-19.259c0.304-3.212,1.002-6.495,2.413-9.471c1.373-2.988,3.524-5.663,6.277-7.551
					c2.743-1.923,6.215-2.705,9.521-2.433c0.828,0.068,1.641,0.257,2.458,0.395l2.357,0.726l4.482,1.481
					c6.022,1.799,12.18,3.127,18.417,3.742c6.231,0.628,12.492,0.783,18.732,0.576c6.241-0.253,12.457-0.794,18.65-1.471
					c12.408-1.275,24.771-2.981,37.172-3.672c6.183-0.316,12.345-0.695,18.496-0.953c6.153-0.213,12.284-0.526,18.404-0.656
					c24.476-0.672,48.695-0.504,72.59,0.656c23.904,0.967,47.486,3.362,70.509,7.266c23.023,3.896,45.479,9.307,67.15,16.112
					c10.85,3.355,21.369,7.613,31.841,11.348c10.451,3.76,21.136,6.678,31.906,8.732c10.763,2.088,21.563,3.534,32.317,4.537
					c2.691,0.219,5.377,0.438,8.058,0.657c2.688,0.18,5.371,0.359,8.047,0.539c5.355,0.359,10.689,0.681,16.003,0.948
					c21.231,1.401,42.128,2.411,62.656,2.459c2.565,0.003,5.125,0.006,7.68,0.009c2.554,0.008,5.1-0.109,7.641-0.157
					c5.082-0.13,10.143-0.209,15.167-0.553c5.024-0.306,10.042-0.462,14.987-1.031c2.479-0.238,4.951-0.477,7.417-0.715
					c2.463-0.271,4.905-0.671,7.35-0.999c19.55-2.753,38.448-7.164,56.808-11.912c9.18-2.389,18.24-4.844,27.196-7.286
					c8.914-2.572,17.727-5.115,26.435-7.628c4.35-1.279,8.695-2.468,12.973-3.803c4.281-1.322,8.536-2.637,12.765-3.943
					c8.457-2.617,16.809-5.203,25.054-7.755c16.501-5.09,32.524-10.208,48.276-14.67c3.929-1.145,7.829-2.281,11.702-3.409
					c3.878-1.109,7.704-2.295,11.552-3.297c7.672-2.099,15.248-4.046,22.641-6.149c3.719-0.99,7.332-2.183,10.957-3.253
					c3.604-1.128,7.118-2.41,10.638-3.59c1.722-0.683,3.437-1.363,5.145-2.041c0.854-0.339,1.707-0.677,2.557-1.014
					c0.854-0.332,1.703-0.667,2.518-1.072c1.648-0.771,3.29-1.538,4.924-2.303c1.636-0.762,3.279-1.493,4.816-2.41
					c1.627-0.891,3.244-1.776,4.851-2.656c0.81-0.442,1.617-0.884,2.421-1.323l1.29-0.681l0.646-0.335l0.685-0.263l1.368-0.519
					c0.472-0.13,0.954-0.232,1.43-0.347l0.715-0.166l0.736-0.07c0.492-0.035,0.98-0.104,1.472-0.105
					c1.981,0.008,3.941,0.497,5.695,1.367c1.758,0.893,3.186,2.248,4.373,3.719c0.536,0.778,1.102,1.538,1.485,2.388
					c0.466,0.814,0.768,1.686,1.083,2.548c0.326,0.859,0.474,1.761,0.714,2.635c0.13,0.891,0.281,1.78,0.363,2.668
					c0.033,0.885,0.096,1.792,0.099,2.648c-0.002,0.851-0.005,1.698-0.007,2.543c-0.016,13.525-0.032,26.363-0.046,38.6
					c-0.006,24.473,0,46.539-0.202,66.885c-0.403,74.284-0.611,118.326-0.471,125.353l0.006,0.287l-0.299,0.012
					c-0.406,0.015-0.695,0.025-0.883,0.033C951.231,251.694,951.145,251.705,951.145,251.715z"/>
			</g>
		</g>
	</g>
</g>
<path fill-rule="evenodd" clip-rule="evenodd" stroke="#000000" stroke-width="0.25" stroke-miterlimit="10" d="M354.403,71.633
	c1.046,22.91,2.293,45.758,2.66,68.786c-0.221,24.717-0.501,49.443-0.552,74.196c-0.265,24.742-0.67,49.491-1.42,74.225
	c-0.604,29.848-1.807,59.681-2.977,89.528c-0.857,29.849-2.241,59.673-3.067,89.525c-0.705,17.776-0.814,35.586-1.043,53.376
	c-0.114,17.793-0.461,35.55-0.142,53.308c-0.171,28.252,1.761,56.417,2.492,86.818l-16.611,0.385
	c-0.149-14.354-0.312-28.704-0.038-43.063c0.713-28.155,0.355-56.363,1.163-84.515c0.51-28.165,1.124-56.323,1.554-84.505
	c1.141-30.604,1.485-61.261,2.511-91.882c0.755-30.637,1.419-61.278,2.454-91.9c0.491-20.885,1.07-41.763,0.848-62.668
	c0.669-20.86-0.284-41.791,0.04-62.627c-0.169-22.363-0.931-44.633-1.702-66.627L354.403,71.633z"/>
<g>
	<path fill="#00A651" d="M168.81,380.479"/>
	<polygon fill="#FFCF0E" stroke="#000000" stroke-width="0.6" points="464.07,306.703 519.913,286.449 519.913,277.322 
		463.896,297.554 	"/>
	<polygon fill="#FFCF0E" stroke="#000000" stroke-width="0.6" points="463.924,331.402 519.913,311.093 519.913,301.964 
		463.896,322.198 	"/>
	<polygon fill="#FFCF0E" stroke="#000000" stroke-width="0.6" points="164.397,404.876 164.397,393.469 226.92,416.059 
		226.92,427.695 	"/>
	<polygon fill="#FFCF0E" stroke="#000000" stroke-width="0.6" points="164.397,404.876 226.92,427.695 226.92,436.822 
		164.397,414.233 	"/>
	<polygon fill="#FFCF0E" stroke="#000000" stroke-width="0.6" points="164.397,384.112 226.92,406.932 226.92,416.059 
		164.397,393.469 	"/>
	<rect x="200.224" y="491.133" fill="#FFCF0E" stroke="#000000" stroke-width="0.6" width="66.173" height="7.301"/>
	<path fill="#FFF200" stroke="#000000" stroke-width="0.6" d="M233.311,494.782"/>
	<rect x="225.779" y="514.407" fill="#FFCF0E" stroke="#000000" stroke-width="0.6" width="66.175" height="7.302"/>
	<path fill="#FFF200" stroke="#000000" stroke-width="0.6" d="M258.867,518.06"/>
	<rect x="208.895" y="498.434" fill="#FFCF0E" stroke="#000000" stroke-width="0.6" width="75.074" height="15.974"/>
	<path fill="#FFF200" stroke="#000000" stroke-width="0.6" d="M246.432,506.42"/>
	<rect x="419.283" y="491.133" fill="#FFCF0E" stroke="#000000" stroke-width="0.6" width="66.173" height="7.301"/>
	<path fill="#FFCF0E" stroke="#000000" stroke-width="0.6" d="M452.368,494.782"/>
	<rect x="399.202" y="514.407" fill="#FFCF0E" stroke="#000000" stroke-width="0.6" width="66.173" height="7.302"/>
	<path fill="#FFF200" stroke="#000000" stroke-width="0.6" d="M432.29,518.06"/>
	<rect x="405.818" y="498.434" fill="#FFCF0E" stroke="#000000" stroke-width="0.6" width="75.074" height="15.974"/>
	<path fill="#FFF200" stroke="#000000" stroke-width="0.6" d="M443.355,506.42"/>
	<polygon fill="#FFCF0E" stroke="#000000" stroke-width="0.6" points="526.301,404.876 526.301,393.469 463.778,416.059 
		463.778,427.695 	"/>
	<polygon fill="#FFCF0E" stroke="#000000" stroke-width="0.6" points="526.301,404.876 463.778,427.695 463.778,436.822 
		526.301,414.233 	"/>
	<polygon fill="#FFCF0E" stroke="#000000" stroke-width="0.6" points="526.301,384.112 463.778,406.932 463.778,416.059 
		526.301,393.469 	"/>
	<polygon fill="#FFCF0E" stroke="#000000" stroke-width="0.6" points="464.062,322.198 519.913,301.964 519.913,286.449 
		463.917,306.735 	"/>
	<polygon fill="#FFCF0E" stroke="#000000" stroke-width="0.6" points="170.103,322.503 203.417,349.428 212.089,344.408 
		175.124,314.742 	"/>
	<polygon fill="#FFCF0E" stroke="#000000" stroke-width="0.6" points="172.385,312.463 192.008,288.732 233.995,322.959 
		213.914,345.777 	"/>
	<path fill="#FFF200" stroke="#000000" stroke-width="0.6" d="M345.351,380.463"/>
	<path fill="#FFF200" stroke="#000000" stroke-width="0.6" d="M345.351,380.463"/>
	<path fill="#FFF200" stroke="#000000" stroke-width="0.6" d="M345.351,380.463"/>
	<path fill="#FFCF0E" stroke="#000000" stroke-width="0.6" d="M345.351,202.974c98.022,0,177.486,79.466,177.486,177.489
		c0,98.02-79.464,177.486-177.486,177.486c-98.022,0-177.489-79.467-177.489-177.486c0-98.023,79.467-177.489,177.489-177.557
		V169.99c-116.202,0.068-210.403,94.271-210.403,210.473c0,116.201,94.202,210.402,210.403,210.402
		c116.199,0,210.402-94.201,210.402-210.402c0-116.202-94.204-210.404-210.402-210.404V202.974z"/>
	<path fill="#FFFFFF" stroke="#000000" stroke-width="0.6" d="M345.351,380.463"/>
	<path fill="#FFF200" stroke="#000000" stroke-width="0.6" d="M345.351,406.932"/>
	<path fill="#FFF200" stroke="#000000" stroke-width="0.6" d="M345.351,406.932"/>
	<path fill="#FFF200" stroke="#000000" stroke-width="0.6" d="M345.351,406.932"/>
	<path fill="#FFF200" stroke="#000000" stroke-width="0.6" d="M345.351,391.869"/>
	<path fill="#FFF200" stroke="#000000" stroke-width="0.6" d="M345.351,447.093"/>
	<path fill="#FFF200" stroke="#000000" stroke-width="0.6" d="M345.351,391.869"/>
	<path fill="#FFF200" stroke="#000000" stroke-width="0.6" d="M383.229,391.869"/>
	<path fill="#FFF200" stroke="#000000" stroke-width="0.2" d="M255.9,256.785"/>
	<path fill="none" stroke="#000000" stroke-width="0.6" d="M345.351,582.475c111.566,0,202.012-90.446,202.012-202.012
		c0-111.569-90.446-202.015-202.012-202.015c-111.569,0-202.015,90.445-202.015,202.015
		C143.336,492.028,233.782,582.475,345.351,582.475z"/>
	<path fill="none" stroke="#000000" stroke-width="0.6" d="M345.351,567.63c103.368,0,187.168-83.8,187.168-187.167
		c0-103.371-83.8-187.171-187.168-187.171c-103.371,0-187.168,83.8-187.168,187.171C158.183,483.83,241.98,567.63,345.351,567.63z"
		/>
	<path fill="#FFCF0E" stroke="#000000" stroke-width="0.6" d="M150.252,301.736c-4.163-1.453-1.64-10.367,3.877-8.669l67.542,22.589
		v10.269L150.252,301.736z"/>
	<path fill="#FFCF0E" stroke="#000000" stroke-width="0.6" d="M169.188,264.771c-4.563-1.598-2.053-10.496,3.88-8.672l49.972,16.656
		v10.271L169.188,264.771z"/>
	<polygon fill="#FFCF0E" stroke="#000000" stroke-width="0.6" points="153.446,292.837 168.05,264.312 222.357,282.797 
		221.671,315.656 	"/>
	<path fill="#FFCF0E" stroke="#000000" stroke-width="0.6" d="M134.048,368.367c-4.791,2.055-2.053,10.04,2.283,8.443l90.589-32.857
		v-9.129L134.048,368.367z"/>
	<path fill="#FFCF0E" stroke="#000000" stroke-width="0.6" d="M134.048,393.011c-4.791,2.056-2.053,10.04,2.283,8.443l90.589-32.859
		v-9.127L134.048,393.011z"/>
	<polygon fill="#FFCF0E" stroke="#000000" stroke-width="0.6" points="134.962,377.266 134.962,392.783 226.92,359.468 
		226.92,343.953 	"/>
	<path fill="#FFCF0E" stroke="#000000" stroke-width="0.6" d="M556.649,368.367c4.791,2.055,2.056,10.04-2.28,8.443l-90.591-32.857
		v-9.129L556.649,368.367z"/>
	<path fill="#FFCF0E" stroke="#000000" stroke-width="0.6" d="M556.649,393.011c4.791,2.056,2.056,10.04-2.28,8.443l-90.591-32.859
		v-9.127L556.649,393.011z"/>
	<polygon fill="#FFCF0E" stroke="#000000" stroke-width="0.6" points="555.736,377.266 555.736,392.783 463.778,359.468 
		463.778,343.953 	"/>
	<path fill="#FFCF0E" stroke="#000000" stroke-width="0.6" d="M468.341,247.201v8.215l55.907,13.918
		c3.422,0.914,5.705-6.846-1.142-8.443L468.341,247.201z"/>
	<path fill="#FFCF0E" stroke="#000000" stroke-width="0.6" d="M469.255,269.334v8.216l67.771,17.112
		c3.423,0.914,5.705-6.844-1.141-8.441L469.255,269.334z"/>
	<polygon fill="#FFCF0E" stroke="#000000" stroke-width="0.6" points="466.975,254.958 466.975,268.879 534.517,285.766 
		524.932,269.562 	"/>
	<path fill="#FFCF0E" stroke="#000000" stroke-width="0.6" d="M157.323,474.932c-3.877,1.824-1.369,8.671,3.422,6.844l71.425-28.752
		l-2.739-7.3L157.323,474.932z"/>
	<path fill="#FFCF0E" stroke="#000000" stroke-width="0.6" d="M168.733,495.24c-3.88,1.824-1.369,8.671,3.422,6.844l71.424-28.75
		l-2.738-7.302L168.733,495.24z"/>
	<polygon fill="#FFCF0E" stroke="#000000" stroke-width="0.6" points="160.745,481.775 168.733,495.24 239.016,466.716 
		233.539,452.567 	"/>
	<path fill="#FFCF0E" stroke="#000000" stroke-width="0.6" d="M535.43,471.052c4.336,3.88-0.913,10.724-4.107,8.443l-65.262-56.362
		l5.477-7.303L535.43,471.052z"/>
	<path fill="#FFCF0E" stroke="#000000" stroke-width="0.6" d="M514.666,504.595c4.333,3.88-1.142,10.954-5.249,7.529l-64.121-55.448
		l5.247-7.303L514.666,504.595z"/>
	<polygon fill="#FFCF0E" stroke="#000000" stroke-width="0.6" points="515.349,505.28 531.322,479.495 470.168,426.557 
		452.826,451.429 	"/>
	<path fill="#FFCF0E" stroke="#000000" stroke-width="0.6" d="M332.116,165.508c-3.026,0-5.477,2.451-5.477,5.478v418.038
		c0,3.025,2.451,5.477,5.477,5.477l0,0c3.023,0,5.475-2.451,5.475-5.477V170.985C337.59,167.959,335.139,165.508,332.116,165.508
		L332.116,165.508z"/>
	<path fill="#FFF200" stroke="#000000" stroke-width="0.6" d="M332.116,380.004"/>
	<path fill="#FFCF0E" stroke="#000000" stroke-width="0.6" d="M359.041,165.508c-3.023,0-5.477,2.451-5.477,5.478v418.038
		c0,3.025,2.454,5.477,5.477,5.477l0,0c3.023,0,5.477-2.451,5.477-5.477V170.985C364.518,167.959,362.063,165.508,359.041,165.508
		L359.041,165.508z"/>
	<path fill="#FFF200" stroke="#000000" stroke-width="0.6" d="M359.041,380.004"/>
	<rect x="337.591" y="169.616" fill="#FFCF0E" stroke="#000000" stroke-width="0.6" width="15.973" height="419.865"/>
	<path fill="#FFF200" stroke="#000000" stroke-width="0.6" d="M345.578,379.549"/>
	<path fill="#FFCF0E" stroke="#000000" stroke-width="0.6" d="M472.496,406.932c0,70.219-56.927,127.146-127.146,127.146
		c-70.221,0-127.146-56.927-127.146-127.146c0,0,0.275-168.86,0-168.86s254.474,0,254.474,0L472.496,406.932z"/>
	<path fill="#ED1C24" d="M229.176,406.932c0,64.159,52.014,116.174,116.174,116.174c64.159,0,116.171-52.015,116.171-116.174
		V249.025H229.203L229.176,406.932z"/>
	<path fill="#FFFFFF" stroke="#000000" stroke-width="0.6" d="M409.245,406.932c0,35.286-28.606,63.895-63.895,63.895
		c-35.289,0-63.895-28.608-63.895-63.895V301.053h127.787L409.245,406.932z"/>
	<path fill="#0082C7" d="M359.87,391.869c0,8.021-6.5,14.522-14.52,14.522c-8.021,0-14.522-6.502-14.522-14.522v-28.293h29.126
		L359.87,391.869z"/>
	<path fill="#FFF200" stroke="#000000" stroke-width="0.6" d="M345.351,391.869"/>
	<circle fill="#FFFFFF" cx="345.351" cy="383.428" r="3.389"/>
	<path fill="#FFF200" stroke="#000000" stroke-width="0.6" d="M345.351,383.429"/>
	<g>
		<path fill="#FFFFFF" d="M337.362,397.998c1.872,0,3.39-1.518,3.39-3.391c0-1.871-1.518-3.387-3.39-3.387
			c-1.869,0-3.387,1.516-3.387,3.387C333.976,396.48,335.493,397.998,337.362,397.998z"/>
		<path fill="#FFFFFF" d="M337.362,394.607"/>
	</g>
	<g>
		<circle fill="#FFFFFF" cx="353.335" cy="394.609" r="3.389"/>
		<path fill="#FFFFFF" d="M353.335,394.607"/>
	</g>
	<g>
		<path fill="#FFFFFF" d="M345.351,383.429"/>
	</g>
	<g>
		<path fill="#FFFFFF" d="M337.362,375.178c1.872,0,3.39-1.518,3.39-3.387c0-1.871-1.518-3.39-3.39-3.39
			c-1.869,0-3.387,1.519-3.387,3.39C333.976,373.66,335.493,375.178,337.362,375.178z"/>
		<path fill="#FFFFFF" d="M337.362,371.791"/>
	</g>
	<g>
		<circle fill="#FFFFFF" cx="353.335" cy="371.79" r="3.388"/>
		<path fill="#FFFFFF" d="M353.335,371.791"/>
	</g>
	<path fill="#0082C7" d="M321.994,391.869c0,8.021-6.502,14.522-14.522,14.522s-14.522-6.502-14.522-14.522v-28.293h29.126
		L321.994,391.869z"/>
	<path fill="#FFF200" stroke="#000000" stroke-width="0.6" d="M307.472,391.869"/>
	<circle fill="#FFFFFF" cx="307.472" cy="383.428" r="3.389"/>
	<path fill="#FFF200" stroke="#000000" stroke-width="0.6" d="M307.472,383.429"/>
	<g>
		<circle fill="#FFFFFF" cx="299.484" cy="394.609" r="3.389"/>
		<path fill="#FFFFFF" d="M299.484,394.607"/>
	</g>
	<g>
		<circle fill="#FFFFFF" cx="315.457" cy="394.609" r="3.389"/>
		<path fill="#FFFFFF" d="M315.457,394.607"/>
	</g>
	<g>
		<path fill="#FFFFFF" d="M307.472,383.429"/>
	</g>
	<g>
		<circle fill="#FFFFFF" cx="299.484" cy="371.79" r="3.388"/>
		<path fill="#FFFFFF" d="M299.484,371.791"/>
	</g>
	<g>
		<circle fill="#FFFFFF" cx="315.457" cy="371.79" r="3.388"/>
		<path fill="#FFFFFF" d="M315.457,371.791"/>
	</g>
	<path fill="#0082C7" d="M397.751,391.869c0,8.021-6.502,14.522-14.522,14.522s-14.522-6.502-14.522-14.522v-28.293h29.126
		L397.751,391.869z"/>
	<path fill="#FFF200" stroke="#000000" stroke-width="0.6" d="M383.229,391.869"/>
	<circle fill="#FFFFFF" cx="383.229" cy="383.428" r="3.389"/>
	<path fill="#FFF200" stroke="#000000" stroke-width="0.6" d="M383.229,383.429"/>
	<g>
		<path fill="#FFFFFF" d="M375.241,397.998c1.872,0,3.39-1.518,3.39-3.391c0-1.871-1.518-3.387-3.39-3.387
			c-1.869,0-3.387,1.516-3.387,3.387C371.854,396.48,373.372,397.998,375.241,397.998z"/>
		<path fill="#FFFFFF" d="M375.241,394.607"/>
	</g>
	<g>
		<circle fill="#FFFFFF" cx="391.214" cy="394.609" r="3.389"/>
		<path fill="#FFFFFF" d="M391.214,394.607"/>
	</g>
	<g>
		<path fill="#FFFFFF" d="M383.229,383.429"/>
	</g>
	<g>
		<path fill="#FFFFFF" d="M375.241,375.178c1.872,0,3.39-1.518,3.39-3.387c0-1.871-1.518-3.39-3.39-3.39
			c-1.869,0-3.387,1.519-3.387,3.39C371.854,373.66,373.372,375.178,375.241,375.178z"/>
		<path fill="#FFFFFF" d="M375.241,371.791"/>
	</g>
	<g>
		<circle fill="#FFFFFF" cx="391.214" cy="371.79" r="3.388"/>
		<path fill="#FFFFFF" d="M391.214,371.791"/>
	</g>
	<path fill="#0082C7" d="M359.87,446.863c0,8.021-6.5,14.521-14.52,14.521c-8.021,0-14.522-6.5-14.522-14.521v-28.295h29.126
		L359.87,446.863z"/>
	<path fill="#FFF200" stroke="#000000" stroke-width="0.6" d="M345.351,446.863"/>
	<circle fill="#FFFFFF" cx="345.351" cy="438.42" r="3.388"/>
	<path fill="#FFF200" stroke="#000000" stroke-width="0.6" d="M345.351,438.42"/>
	<g>
		<path fill="#FFFFFF" d="M337.362,452.991c1.872,0,3.39-1.519,3.39-3.39c0-1.869-1.518-3.388-3.39-3.388
			c-1.869,0-3.387,1.519-3.387,3.388C333.976,451.473,335.493,452.991,337.362,452.991z"/>
		<path fill="#FFFFFF" d="M337.362,449.602"/>
	</g>
	<g>
		<circle fill="#FFFFFF" cx="353.335" cy="449.603" r="3.389"/>
		<path fill="#FFFFFF" d="M353.335,449.602"/>
	</g>
	<g>
		<path fill="#FFFFFF" d="M345.351,438.42"/>
	</g>
	<g>
		<path fill="#FFFFFF" d="M337.362,430.172c1.872,0,3.39-1.518,3.39-3.39c0-1.87-1.518-3.388-3.39-3.388
			c-1.869,0-3.387,1.518-3.387,3.388C333.976,428.654,335.493,430.172,337.362,430.172z"/>
		<path fill="#FFFFFF" d="M337.362,426.782"/>
	</g>
	<g>
		<circle fill="#FFFFFF" cx="353.335" cy="426.783" r="3.389"/>
		<path fill="#FFFFFF" d="M353.335,426.782"/>
	</g>
	<path fill="#0082C7" d="M359.87,339.387c0,8.021-6.5,14.522-14.52,14.522c-8.021,0-14.522-6.502-14.522-14.522v-28.294h29.126
		L359.87,339.387z"/>
	<path fill="#FFF200" stroke="#000000" stroke-width="0.6" d="M345.351,339.387"/>
	<circle fill="#FFFFFF" cx="345.351" cy="330.945" r="3.389"/>
	<path fill="#FFF200" stroke="#000000" stroke-width="0.6" d="M345.351,330.943"/>
	<g>
		<path fill="#FFFFFF" d="M337.362,345.516c1.872,0,3.39-1.518,3.39-3.391c0-1.871-1.518-3.387-3.39-3.387
			c-1.869,0-3.387,1.516-3.387,3.387C333.976,343.998,335.493,345.516,337.362,345.516z"/>
		<path fill="#FFFFFF" d="M337.362,342.125"/>
	</g>
	<g>
		<circle fill="#FFFFFF" cx="353.335" cy="342.127" r="3.389"/>
		<path fill="#FFFFFF" d="M353.335,342.125"/>
	</g>
	<g>
		<path fill="#FFFFFF" d="M345.351,330.943"/>
	</g>
	<g>
		<path fill="#FFFFFF" d="M337.362,322.695c1.872,0,3.39-1.518,3.39-3.387c0-1.872-1.518-3.39-3.39-3.39
			c-1.869,0-3.387,1.518-3.387,3.39C333.976,321.178,335.493,322.695,337.362,322.695z"/>
		<path fill="#FFFFFF" d="M337.362,319.309"/>
	</g>
	<g>
		<circle fill="#FFFFFF" cx="353.335" cy="319.307" r="3.388"/>
		<path fill="#FFFFFF" d="M353.335,319.309"/>
	</g>
	<path fill="#FFF200" stroke="#000000" stroke-width="0.2" d="M254.986,274.11"/>
	<path fill="#FFF200" stroke="#000000" stroke-width="0.2" d="M254.986,288.486"/>
	<path fill="#FFF200" stroke="#000000" stroke-width="0.2" d="M254.986,288.486"/>
	<path fill="#FFF200" stroke="#000000" stroke-width="0.2" d="M254.986,265.281"/>
	<path fill="#FFF200" stroke="#000000" stroke-width="0.2" d="M254.986,291.772"/>
	<path fill="#FFF200" stroke="#000000" stroke-width="0.2" d="M343.525,274.11"/>
	<path fill="#FFF200" stroke="#000000" stroke-width="0.2" d="M343.525,288.486"/>
	<path fill="#FFF200" stroke="#000000" stroke-width="0.2" d="M343.525,288.486"/>
	<path fill="#FFF200" stroke="#000000" stroke-width="0.2" d="M343.525,265.281"/>
	<path fill="#FFF200" stroke="#000000" stroke-width="0.2" d="M343.525,291.772"/>
	<path fill="#FFF200" stroke="#000000" stroke-width="0.2" d="M435.028,274.11"/>
	<path fill="#FFF200" stroke="#000000" stroke-width="0.2" d="M435.028,288.486"/>
	<path fill="#FFF200" stroke="#000000" stroke-width="0.2" d="M435.028,288.486"/>
	<path fill="#FFF200" stroke="#000000" stroke-width="0.2" d="M435.028,265.281"/>
	<path fill="#FFF200" stroke="#000000" stroke-width="0.2" d="M435.028,291.772"/>
	<path fill="#FFF200" stroke="#000000" stroke-width="0.2" d="M255.9,363.105"/>
	<path fill="#FFF200" stroke="#000000" stroke-width="0.2" d="M255.9,377.479"/>
	<path fill="#FFF200" stroke="#000000" stroke-width="0.2" d="M255.9,377.479"/>
	<path fill="#FFF200" stroke="#000000" stroke-width="0.2" d="M255.9,354.273"/>
	<path fill="#FFF200" stroke="#000000" stroke-width="0.2" d="M255.9,380.767"/>
	<path fill="#FFF200" stroke="#000000" stroke-width="0.2" d="M435.484,363.105"/>
	<path fill="#FFF200" stroke="#000000" stroke-width="0.2" d="M435.484,377.479"/>
	<path fill="#FFF200" stroke="#000000" stroke-width="0.2" d="M435.484,377.479"/>
	<path fill="#FFF200" stroke="#000000" stroke-width="0.2" d="M435.484,354.273"/>
	<path fill="#FFF200" stroke="#000000" stroke-width="0.2" d="M435.484,380.767"/>
	<path fill="#FFF200" stroke="#000000" stroke-width="0.2" d="M275.31,459.619"/>
	<path fill="#FFF200" stroke="#000000" stroke-width="0.2" d="M282.929,471.809"/>
	<path fill="#FFF200" stroke="#000000" stroke-width="0.2" d="M282.929,471.809"/>
	<path fill="#FFF200" stroke="#000000" stroke-width="0.2" d="M270.63,452.132"/>
	<path fill="#FFF200" stroke="#000000" stroke-width="0.2" d="M284.669,474.598"/>
	<path fill="#FFF200" stroke="#000000" stroke-width="0.2" d="M416.529,457.795"/>
	<path fill="#FFF200" stroke="#000000" stroke-width="0.2" d="M408.911,469.984"/>
	<path fill="#FFF200" stroke="#000000" stroke-width="0.2" d="M408.911,469.984"/>
	<path fill="#FFF200" stroke="#000000" stroke-width="0.2" d="M421.209,450.305"/>
	<path fill="#FFF200" stroke="#000000" stroke-width="0.2" d="M407.17,472.772"/>
	<path fill="none" stroke="#000000" d="M471.948,380.957"/>
	<polygon fill="#FFCF0E" stroke="#000000" stroke-width="0.2812" points="239.764,294.862 274.052,294.862 274.052,270.854 
		274.052,270.854 274.052,255.404 265.732,255.404 265.732,263.486 261.098,263.486 261.098,255.404 252.778,255.404 
		252.778,263.486 248.143,263.486 248.143,255.404 239.823,255.404 	"/>
	<rect x="239.793" y="257.781" fill="#FFCF0E" stroke="#000000" stroke-width="0.2812" width="8.349" height="2.852"/>
	<rect x="252.838" y="257.781" fill="#FFCF0E" stroke="#000000" stroke-width="0.2812" width="8.26" height="2.852"/>
	<rect x="265.792" y="257.781" fill="#FFCF0E" stroke="#000000" stroke-width="0.2812" width="8.26" height="2.852"/>
	<rect x="239.853" y="268.478" fill="#FFCF0E" stroke="#000000" stroke-width="0.2812" width="34.199" height="5.705"/>
	<path fill="#FFCF0E" stroke="#000000" stroke-width="0.2812" d="M267.26,287.256c0-5.568-4.514-10.085-10.085-10.085
		c-5.569,0-10.085,4.517-10.085,10.085v7.606l3.251,0.119l0.112-7.726c0-3.714,3.011-6.723,6.722-6.723
		c3.714,0,6.723,3.009,6.723,6.723v7.606h3.439L267.26,287.256z"/>
	<polygon fill="#FFCF0E" stroke="#000000" stroke-width="0.2812" points="328.612,294.862 362.9,294.862 362.9,270.854 
		362.9,270.854 362.9,255.404 354.581,255.404 354.581,263.486 349.946,263.486 349.946,255.404 341.626,255.404 341.626,263.486 
		336.991,263.486 336.991,255.404 328.672,255.404 	"/>
	<rect x="328.642" y="257.781" fill="#FFCF0E" stroke="#000000" stroke-width="0.2812" width="8.35" height="2.852"/>
	<rect x="341.685" y="257.781" fill="#FFCF0E" stroke="#000000" stroke-width="0.2812" width="8.26" height="2.852"/>
	<rect x="354.641" y="257.781" fill="#FFCF0E" stroke="#000000" stroke-width="0.2812" width="8.26" height="2.852"/>
	<rect x="328.701" y="268.478" fill="#FFCF0E" stroke="#000000" stroke-width="0.2812" width="34.199" height="5.705"/>
	<path fill="#FFCF0E" stroke="#000000" stroke-width="0.2812" d="M356.109,287.256c0-5.568-4.516-10.085-10.085-10.085
		c-5.571,0-10.085,4.517-10.085,10.085v7.606l3.251,0.119l0.111-7.726c0-3.714,3.008-6.723,6.723-6.723
		c3.711,0,6.722,3.009,6.722,6.723v7.606h3.439L356.109,287.256z"/>
	<polygon fill="#FFCF0E" stroke="#000000" stroke-width="0.2812" points="417.46,294.862 451.749,294.862 451.749,270.854 
		451.749,270.854 451.749,255.404 443.43,255.404 443.43,263.486 438.794,263.486 438.794,255.404 430.475,255.404 430.475,263.486 
		425.84,263.486 425.84,255.404 417.52,255.404 	"/>
	<rect x="417.488" y="257.781" fill="#FFCF0E" stroke="#000000" stroke-width="0.2812" width="8.352" height="2.852"/>
	<rect x="430.534" y="257.781" fill="#FFCF0E" stroke="#000000" stroke-width="0.2812" width="8.26" height="2.852"/>
	<rect x="443.489" y="257.781" fill="#FFCF0E" stroke="#000000" stroke-width="0.2812" width="8.26" height="2.852"/>
	<rect x="417.548" y="268.478" fill="#FFCF0E" stroke="#000000" stroke-width="0.2812" width="34.202" height="5.705"/>
	<path fill="#FFCF0E" stroke="#000000" stroke-width="0.2812" d="M444.957,287.256c0-5.568-4.516-10.085-10.085-10.085
		c-5.571,0-10.085,4.517-10.085,10.085v7.606l3.251,0.119l0.109-7.726c0-3.714,3.011-6.723,6.725-6.723
		c3.712,0,6.723,3.009,6.723,6.723v7.606h3.439L444.957,287.256z"/>
	<polygon fill="#FFCF0E" stroke="#000000" stroke-width="0.2812" points="239.764,392.855 274.052,392.855 274.052,368.848 
		274.052,368.848 274.052,353.396 265.732,353.396 265.732,361.479 261.098,361.479 261.098,353.396 252.778,353.396 
		252.778,361.479 248.143,361.479 248.143,353.396 239.823,353.396 	"/>
	<rect x="239.793" y="355.773" fill="#FFCF0E" stroke="#000000" stroke-width="0.2812" width="8.349" height="2.853"/>
	<rect x="252.838" y="355.773" fill="#FFCF0E" stroke="#000000" stroke-width="0.2812" width="8.26" height="2.853"/>
	<rect x="265.792" y="355.773" fill="#FFCF0E" stroke="#000000" stroke-width="0.2812" width="8.26" height="2.853"/>
	<rect x="239.853" y="366.471" fill="#FFCF0E" stroke="#000000" stroke-width="0.2812" width="34.199" height="5.704"/>
	<path fill="#FFCF0E" stroke="#000000" stroke-width="0.2812" d="M267.26,385.248c0-5.568-4.514-10.084-10.085-10.084
		c-5.569,0-10.085,4.516-10.085,10.084v7.607l3.251,0.118l0.112-7.726c0-3.714,3.011-6.723,6.722-6.723
		c3.714,0,6.723,3.009,6.723,6.723v7.607h3.439L267.26,385.248z"/>
	<polygon fill="#FFCF0E" stroke="#000000" stroke-width="0.2812" points="284.499,496.654 308.747,472.408 291.769,455.433 
		291.769,455.433 280.844,444.506 274.961,450.389 280.676,456.104 277.397,459.382 271.683,453.667 265.799,459.55 
		271.517,465.265 268.238,468.543 262.523,462.828 256.641,468.711 	"/>
	
		<rect x="260.834" y="464.293" transform="matrix(0.7066 0.7076 -0.7076 0.7066 408.4469 -48.1287)" fill="#FFCF0E" stroke="#000000" stroke-width="0.2812" width="2.853" height="8.351"/>
	
		<rect x="270.025" y="455.147" transform="matrix(0.707 0.7072 -0.7072 0.707 404.3275 -57.4102)" fill="#FFCF0E" stroke="#000000" stroke-width="0.2812" width="2.854" height="8.261"/>
	
		<rect x="279.186" y="445.986" transform="matrix(0.7069 0.7073 -0.7073 0.7069 400.595 -66.5585)" fill="#FFCF0E" stroke="#000000" stroke-width="0.2812" width="2.854" height="8.261"/>
	
		<rect x="277.162" y="450.759" transform="matrix(0.707 0.7072 -0.7072 0.707 412.9053 -60.9512)" fill="#FFCF0E" stroke="#000000" stroke-width="0.2812" width="5.705" height="34.201"/>
	<path fill="#FFCF0E" stroke="#000000" stroke-width="0.2812" d="M298.565,471.831c-3.939-3.937-10.325-3.937-14.262,0
		c-3.939,3.939-3.939,10.325,0,14.263l5.378,5.38l2.382-2.216l-5.385-5.541c-2.625-2.625-2.625-6.881,0-9.508
		c2.627-2.625,6.883-2.625,9.508,0l5.381,5.38l2.431-2.432L298.565,471.831z"/>
	<polygon fill="#FFCF0E" stroke="#000000" stroke-width="0.2812" points="406.199,496.654 381.954,472.408 398.932,455.433 
		398.932,455.433 409.856,444.506 415.74,450.389 410.025,456.104 413.303,459.382 419.018,453.667 424.898,459.55 419.184,465.265 
		422.462,468.543 428.177,462.828 434.06,468.711 	"/>
	
		<rect x="427.015" y="464.293" transform="matrix(-0.7065 0.7077 -0.7077 -0.7065 1062.6755 496.2353)" fill="#FFCF0E" stroke="#000000" stroke-width="0.2812" width="2.852" height="8.352"/>
	
		<rect x="417.821" y="455.147" transform="matrix(-0.707 0.7072 -0.7072 -0.707 1040.4631 487.5081)" fill="#FFCF0E" stroke="#000000" stroke-width="0.2812" width="2.854" height="8.261"/>
	
		<rect x="408.66" y="445.986" transform="matrix(-0.707 0.7072 -0.7072 -0.707 1018.3458 478.3477)" fill="#FFCF0E" stroke="#000000" stroke-width="0.2812" width="2.854" height="8.261"/>
	
		<rect x="407.834" y="450.759" transform="matrix(-0.707 0.7072 -0.7072 -0.707 1031.9175 508.2123)" fill="#FFCF0E" stroke="#000000" stroke-width="0.2812" width="5.705" height="34.201"/>
	<path fill="#FFCF0E" stroke="#000000" stroke-width="0.2812" d="M392.136,471.831c3.939-3.937,10.325-3.937,14.262,0
		c3.939,3.939,3.939,10.325,0,14.263l-5.378,5.38l-2.382-2.216l5.383-5.541c2.627-2.625,2.627-6.881,0-9.508
		c-2.625-2.625-6.881-2.625-9.508,0l-5.378,5.38l-2.432-2.432L392.136,471.831z"/>
	<polygon fill="#FFCF0E" stroke="#000000" stroke-width="0.2812" points="417.46,392.855 451.749,392.855 451.749,368.848 
		451.749,368.848 451.749,353.396 443.43,353.396 443.43,361.479 438.794,361.479 438.794,353.396 430.475,353.396 430.475,361.479 
		425.84,361.479 425.84,353.396 417.52,353.396 	"/>
	<rect x="417.488" y="355.773" fill="#FFCF0E" stroke="#000000" stroke-width="0.2812" width="8.352" height="2.853"/>
	<rect x="430.534" y="355.773" fill="#FFCF0E" stroke="#000000" stroke-width="0.2812" width="8.26" height="2.853"/>
	<rect x="443.489" y="355.773" fill="#FFCF0E" stroke="#000000" stroke-width="0.2812" width="8.26" height="2.853"/>
	<rect x="417.548" y="366.471" fill="#FFCF0E" stroke="#000000" stroke-width="0.2812" width="34.202" height="5.704"/>
	<path fill="#FFCF0E" stroke="#000000" stroke-width="0.2812" d="M444.957,385.248c0-5.568-4.516-10.084-10.085-10.084
		c-5.571,0-10.085,4.516-10.085,10.084v7.607l3.251,0.118l0.109-7.726c0-3.714,3.011-6.723,6.725-6.723
		c3.712,0,6.723,3.009,6.723,6.723v7.607h3.439L444.957,385.248z"/>
</g>
</svg>
