<?xml version="1.0" encoding="utf-8"?>
<!-- Generator: Adobe Illustrator 16.0.1, SVG Export Plug-In . SVG Version: 6.00 Build 0)  -->
<!DOCTYPE svg PUBLIC "-//W3C//DTD SVG 1.1//EN" "http://www.w3.org/Graphics/SVG/1.1/DTD/svg11.dtd">
<svg version="1.1"
	 id="Layer_1" xmlns:dc="http://purl.org/dc/elements/1.1/" xmlns:cc="http://creativecommons.org/ns#" xmlns:rdf="http://www.w3.org/1999/02/22-rdf-syntax-ns#" xmlns:svg="http://www.w3.org/2000/svg"
	 xmlns="http://www.w3.org/2000/svg" xmlns:xlink="http://www.w3.org/1999/xlink" x="0px" y="0px" width="961.426px"
	 height="707.908px" viewBox="-88.544 -3035.655 961.426 707.908" enable-background="new -88.544 -3035.655 961.426 707.908"
	 xml:space="preserve">
<path id="path269" fill="#FBD118" d="M843.779-3008.664c-4.791,2.288-7.633,3.777-10.575,5.018
	c-8.961,3.757-17.724,8.286-26.968,10.905c-14.736,4.164-30.062,6.136-44.688,10.616c-27.812,8.521-55.14,18.791-82.988,27.167
	c-27.85,8.375-55.892,16.323-84.229,22.609c-26.05,5.784-52.527,12.14-78.937,12.843c-43.613,1.165-87.423-0.469-130.934-3.964
	c-25.719-2.061-51.604-7.92-76.351-15.717c-34.75-10.938-68.905-24.678-105.192-27.966c-39.416-3.571-79.053-4.729-118.62-5.825
	c-19.584-0.538-39.754-1.248-58.725,2.854c-27.87,6.012-54.851,7.452-81.887-1.93c-8.064-2.799-8.438,0.345-7.638,7.293
	c1.861,16.289,4.067,32.619,4.48,48.984c0.711,28.718,0.725,57.477,0.015,86.201c-0.745,30.314-2.854,60.6-4.047,90.909
	c-1.475,37.734-3.288,75.476-3.764,113.224c-0.627,50.866-0.275,101.745-0.027,152.618c0.104,23.3,0.972,46.593,1.523,71.236
	c7.417-2.082,12.925-4.798,18.516-4.998c24.65-0.903,49.425-2.646,73.979-1.172c46.412,2.792,92.881,6.204,139.018,11.976
	c36.955,4.633,73.559,12.615,110.142,20.039c35.908,7.286,71.299,18.916,107.495,22.815c37.183,4.005,75.172,2.695,112.631,0.496
	c34.611-2.033,69.078-7.631,103.429-12.932c39.029-6.025,77.404-15.166,115.506-26.381c43.315-12.746,87.504-22.328,129.602-39.402
	c2.86-1.158,6.479-4.061,7.038-6.77c1.192-5.68,0.985-11.795,0.641-17.682c-2.095-35.921-4.887-71.808-6.484-107.757
	c-1.388-31.006-2.021-62.081-2.067-93.122c-0.193-96.858,0.034-193.71,0.11-290.568
	C843.792-2966.904,843.779-2986.758,843.779-3008.664L843.779-3008.664z"/>
<g id="g271">
	<path id="path273" fill="#263779" d="M-71.658-2396.204c0-22.073,0.007-46.165,0-70.257c0-52.5-0.938-105.027,0.213-157.5
		c1.331-61.633,5.356-123.218,6.556-184.845c1.034-52.038-0.192-104.138-0.689-156.196c-0.075-6.351-1.896-12.686-2.55-16.848
		c21.775,1.606,42.904,4.363,63.997,4.322c15.297-0.027,30.545-4.694,45.89-5.68c54.14-3.475,108.308-3.867,162.241,2.998
		c17.647,2.247,35.108,6.576,52.396,11.016c2.488,0.655,5.081,7.259,5.095,11.133c0.214,46.634,0.062,93.281-0.193,139.921
		c-0.482,86.312-1.014,172.603-1.675,258.894c-0.462,59.117-1.172,118.229-1.813,177.346c-0.048,2.847-0.448,5.68-0.703,8.616
		C149.067-2391.599,41.241-2402.766-71.658-2396.204L-71.658-2396.204z"/>
</g>
<g id="g275">
	<path id="path277" fill="#ED2226" d="M845.143-3009.705c0.099,7.279,0.471,11.553,0.441,10.408
		c-0.083,17.654-0.193,36.515-0.317,48.833c-0.109,24.814-0.229,20.853-0.338,46.992c-0.117,8.672-0.207,21.569-0.273,46.371
		c-0.083,27.821-0.11,49.853-0.11,49.453c0,28.104,0.151,35.328,0.407,78.232c0.262,21.114,0.604,48.13,0.999,78.23
		c0.304,19.476,0.676,38.548,1.179,60.365c0.496,10.602,1.097,40.484,1.861,60.345c1.103,28.685,3.322,57.317,5.418,85.946
		c0.6,8.299-2.288,11.456-10.029,13.849c-20.692,6.403-40.678,15.413-61.496,21.252c-21.879,6.142-43.819,12.043-65.815,17.771
		c-21.979,5.728-44.016,13.772-66.08,16.682c-18.735,9.326-37.989,9.905-57.008,10.243c-5.592,2.812-11.142,5.397-17.916,3.791
		c-0.358,1.565-0.868-12.869-0.916-10.525c-0.373-19.315-0.761-48.64-1.14-63.15c-0.372-26.215-0.744-45.014-1.124-62.468
		c-0.386-12.325-0.758-44.771-1.123-61.543c-0.387-26.333-0.752-41.229-1.124-64.067c-0.386-23.603-0.771-47.784-1.138-60.48
		c-0.372-36.238-0.751-50.396-1.123-65.128c-0.372-32.544-0.759-49.963-1.138-62.295c-0.372-24.812-0.737-43.125-1.123-63.315
		c-0.276-15.642-0.462-40.354-1.271-45.751c-0.345-29.049,1.109-13.938,7.651-10.69c16.31,4.137,32.626-4.783,48.896-12.373
		c16.27-8.102,32.48-3.488,48.646-13.339c26.979-22.045,53.423-1.943,80.335-25.912c17.874-28.808,36.265-4.963,54.223-14.083
		C818.102-3004.293,831.274-3005.465,845.143-3009.705L845.143-3009.705z"/>
	<g id="g279">
		<g id="g281">
			<path id="path283" d="M845.06-3009.975c0.009,0.021-0.213,0.104-0.654,0.247c-0.444,0.138-1.109,0.343-1.991,0.614
				c-1.761,0.56-4.421,1.257-7.934,2.155c-1.759,0.449-3.731,0.919-5.901,1.496c-1.085,0.287-2.224,0.588-3.409,0.902
				c-1.186,0.324-2.406,0.719-3.685,1.098c-5.081,1.599-10.906,3.785-16.884,7.408h-0.001c-1.771,0.885-3.73,1.558-5.822,1.913
				c-2.093,0.362-4.297,0.41-6.543,0.235c-4.51-0.332-9.146-1.562-14.102-2.282c-2.766-0.46-5.667-0.708-8.62-0.37
				c-2.956,0.29-5.898,1.349-8.556,2.996c-2.664,1.647-5.016,3.896-7.07,6.447c-1.013,1.288-2.008,2.616-2.9,4.034l-0.686,1.04
				l-0.957,0.81c-0.652,0.534-1.273,1.117-1.965,1.62c-5.354,4.236-11.871,7.5-19.101,9.23c-7.229,1.811-15.003,2.078-22.942,2.677
				c-3.973,0.303-8.004,0.708-12.029,1.483c-4.024,0.754-8.021,1.983-11.854,3.722c-3.832,1.739-7.48,4.026-10.845,6.772
				c-0.072,0.062-0.319,0.243-0.411,0.278l-0.365,0.204l-0.729,0.409l-1.469,0.818c-0.991,0.523-2.035,0.953-3.057,1.436
				c-1.038,0.448-2.114,0.805-3.177,1.212c-1.077,0.36-2.18,0.661-3.271,0.995c-8.856,2.384-18.284,2.443-27.463,4.772
				c-1.131,0.34-2.283,0.631-3.408,1.011c-1.106,0.425-2.261,0.75-3.346,1.26c-2.188,0.95-4.405,1.984-6.625,3.011
				c-4.443,2.052-8.95,4.137-13.625,5.986c-4.656,1.877-9.514,3.486-14.582,4.426c-1.26,0.273-2.55,0.389-3.834,0.557
				c-0.641,0.103-1.294,0.089-1.941,0.137c-0.647,0.022-1.299,0.093-1.948,0.076c-1.304-0.058-2.614-0.01-3.914-0.204l-1.957-0.225
				l-1.937-0.397l-0.975-0.199c-0.365-0.103-0.628-0.305-0.915-0.479c-0.562-0.37-1.068-0.815-1.54-1.288
				c-0.94-0.951-1.729-2.033-2.496-3.114c-0.41-0.569-0.712-1.018-1.096-1.441c-0.188-0.181-0.43-0.464-0.72-0.34
				c-0.245,0.163-0.31,0.479-0.387,0.741c-0.065,0.279-0.106,0.557-0.146,0.846c-0.036,0.301-0.07,0.639-0.095,0.969
				c-0.054,0.662-0.083,1.329-0.108,1.997c-0.09,2.673-0.075,5.367-0.057,8.073c0.017,1.354,0.03,2.711,0.049,4.071
				c0.037,1.299,0.28,2.713,0.333,4.066c0.605,10.94,0.723,22.101,0.993,33.467c0.271,11.364,0.547,22.936,0.828,34.705
				c0.391,23.544,0.146,47.89,1.365,72.947c-0.077,25.063,0.625,50.849,1.471,77.267c0.146,26.431,0.859,53.488,1.35,81.145
				c0.469,27.625,1.432,55.818,1.782,84.515c0.812,28.688,1.348,57.86,1.628,87.487c-0.143,11.995,0.055,24.052,0.327,36.183
				c0.146,6.065,0.291,12.148,0.438,18.251c0.067,3.051,0.135,6.107,0.202,9.168c0.053,3.007,0.104,6.019,0.156,9.035
				c0.001,0.021,0.001,0.138,0.002,0.054c0.004,0-0.007-0.083,0.013-0.024c0.03,0.165,0.026,0.195,0.036,0.272l0.049,0.741
				l0.075,1.447c0.046,0.961,0.092,1.926,0.138,2.893c0.053,0.964,0.103,1.929,0.15,2.896l0.098,1.438l0.065,0.699l0.044,0.311
				c-0.031,0.065,0.201-0.018-0.459,0.229c-0.081,0.011-0.147,0.104-0.146,0.096c0.005-0.014-0.043-0.042-0.146-0.097
				c-0.088-0.045-0.185-0.057-0.354-0.12l-0.111-0.034c-0.017,0-0.005,0-0.005,0h-0.002l0.835-0.52
				c0.865,0.141,1.735,0.352,2.624,0.451l1.343,0.064l0.674,0.034c0.225-0.01,0.449-0.032,0.674-0.048
				c3.611-0.217,7.098-1.542,10.405-3.146l1.244-0.609l0.312-0.152c0.135-0.052,0.278-0.167,0.434-0.181l0.782-0.014l2.776-0.051
				l5.544-0.162c7.379-0.271,14.729-0.845,21.924-2.121c7.191-1.269,14.225-3.249,20.837-6.127c0.837-0.341,1.657-0.708,2.464-1.111
				l1.217-0.583l0.607-0.291l0.312-0.149l0.299-0.139l0.329-0.055c1.786-0.296,3.569-0.592,5.352-0.887l2.672-0.438l2.649-0.554
				c1.769-0.363,3.533-0.726,5.297-1.089c14.152-2.868,28.015-6.814,41.768-10.562c13.791-3.626,27.395-7.465,40.684-11.974
				c6.754-1.854,14.172-3.885,21.718-5.953c3.773-1.031,7.579-2.07,11.351-3.101c3.712-1.174,7.389-2.337,10.965-3.468
				c1.785-0.578,3.562-1.084,5.273-1.688c1.715-0.611,3.395-1.21,5.03-1.795c3.282-1.153,6.398-2.248,9.284-3.262
				c5.779-2.043,10.652-3.707,14.103-4.771c5.036-2.007,10.813-4.034,16.954-6.224c1.503-0.495,2.994-1.066,4.354-1.814
				c1.364-0.74,2.551-1.695,3.334-2.926c0.812-1.212,1.215-2.713,1.352-4.314c0.15-1.619,0.041-3.242-0.099-5.027
				c-1.013-14.027-1.901-28.568-2.577-41.398c-0.515-12.845-1.107-25.521-1.754-38.023c-0.081-1.562-0.162-3.123-0.243-4.68
				c-0.05-1.559-0.1-3.113-0.147-4.666c-0.098-3.104-0.191-6.2-0.287-9.284c-0.202-6.166-0.403-12.288-0.604-18.363
				c-0.21-6.077-0.418-12.109-0.625-18.096c-0.196-5.986-0.377-11.928-0.474-17.825c-0.244-11.792-0.533-23.393-1.041-34.783
				c-0.022-5.705-0.045-11.322-0.066-16.862c0.004-5.54,0.008-11.004,0.013-16.406c0-10.804-0.031-21.36-0.115-31.781
				c-0.085-10.42-0.225-20.704-0.438-30.962c-0.144-10.259-0.353-20.493-0.668-30.812c-0.422-16.438-0.464-31.679-0.457-47.855
				c0.13-17.003,0.295-35.062,0.243-56.615c-0.274-29.268,0.404-57.18,0.646-78.781c0.739-29.743,0.821-50.315,0.782-56.254
				l0.688-0.01l0.002,0.107l-0.001,0.062l-0.009,0.082l-0.005,0.021c0.187-0.25-0.193,0.534-0.642,0.075
				c-0.043-0.096-0.018-0.047-0.029-0.077c-0.031-0.151-0.025-0.173-0.036-0.254l-0.036-0.39c-0.021-0.254-0.038-0.502-0.059-0.744
				c-0.027-0.482-0.059-0.943-0.086-1.381c-0.044-0.875-0.083-1.661-0.117-2.366c-0.055-1.409-0.095-2.494-0.124-3.313
				c-0.052-1.64-0.067-2.218-0.067-2.218c-0.081,0-0.117,0.921-0.088,2.729c0.016,0.905,0.048,2.034,0.106,3.381
				c0.036,0.674,0.075,1.403,0.116,2.187c0.027,0.392,0.056,0.798,0.084,1.217c0.019,0.211,0.035,0.426,0.053,0.646l0.035,0.339
				l0.013,0.099l0.017,0.082l0.021,0.08c-0.527-0.066,0.951,0.621,1.005,0.012c0.03-0.093,0.013-0.04,0.021-0.067l0.01-0.053
				c0.018-0.19,0.004-0.178,0.006-0.261l-1.061,0.01c0.028,10.898,0.188,30.007,0.124,56.262
				c-0.593,21.604-0.376,48.061-0.312,78.779c-0.513,21.59-0.267,38.957-0.076,56.613c0.271,14.814,0.526,29.916,0.34,47.849
				c0.087,9.684,0.178,19.923,0.271,30.468c0.138,10.545,0.277,21.396,0.419,32.297c0.299,21.805,0.447,43.828,1.004,64.035
				c0.145,9.48,0.519,21.074,0.857,33.336c0.083,3.065,0.167,6.173,0.251,9.299c0.104,3.127,0.209,6.273,0.312,9.416
				c0.19,6.285,0.343,12.559,0.415,18.64c0.137,6.077,0.272,12.201,0.409,18.37c0.074,3.084,0.148,6.179,0.225,9.285
				c0.043,1.553,0.064,3.109,0.131,4.666c0.078,1.557,0.155,3.116,0.234,4.678c0.643,12.494,1.376,25.158,2.325,37.962
				c0.898,12.812,1.81,25.788,2.729,38.916c0.104,1.649,0.256,3.261,0.323,4.953c0.054,1.681-0.021,3.401-0.468,5.089
				c-0.204,0.846-0.562,1.659-0.98,2.438c-0.47,0.749-1.001,1.473-1.658,2.062c-1.289,1.211-2.834,2.047-4.4,2.706
				c-1.572,0.661-3.202,1.131-4.763,1.685c-1.577,0.539-3.155,1.078-4.734,1.619c-3.158,1.091-6.334,2.153-9.496,3.288
				c-6.373,2.171-12.711,4.523-19.112,6.851c-3.192,1.183-6.396,2.369-9.604,3.558c-3.217,1.17-6.507,2.173-9.771,3.275
				c-6.521,2.28-13.195,4.046-19.886,5.896c-6.694,1.833-13.439,3.612-20.248,5.277c-13.479,3.803-27.077,7.641-40.795,11.511
				c-13.666,3.932-27.44,8.237-41.723,11.081c-1.771,0.411-3.543,0.823-5.316,1.236l-2.668,0.602l-2.699,0.47
				c-1.804,0.304-3.606,0.608-5.413,0.913l-2.176,1.035c-0.828,0.407-1.677,0.777-2.533,1.119
				c-6.812,2.885-14.052,4.738-21.37,5.852c-7.327,1.125-14.742,1.529-22.148,1.733l-5.561,0.133l-2.78,0.053l-0.557,0.012
				c-0.052,0.01-0.071,0.03-0.136,0.059l-0.312,0.155l-1.253,0.624c-3.337,1.647-6.939,3.124-10.836,3.485
				c-0.243,0.016-0.484,0.044-0.729,0.05l-0.729-0.035l-1.455-0.073c-0.961-0.108-1.9-0.333-2.838-0.494
				c0.3-0.188,0.6-0.373,0.895-0.557c-0.023,0.078-0.012,0.085-0.091,0.256c-0.009-0.025-0.105,0.382-0.665,0.435
				c-0.178,0.01-0.371-0.063-0.481-0.153c-0.062-0.049-0.069-0.062-0.104-0.099c-0.052-0.054-0.114-0.157-0.128-0.187
				c-0.102-0.23-0.083-0.258-0.109-0.357c-0.027-0.154-0.044-0.282-0.061-0.414l-0.067-0.753l-0.094-1.472
				c-0.045-0.973-0.091-1.945-0.137-2.916c-0.039-0.968-0.08-1.936-0.119-2.896l-0.064-1.438l-0.042-0.701
				c0.013-0.049-0.044-0.121,0.021-0.117c-0.068-0.014-0.008,0.137,0,0.191l0.037,0.107l0.004,0.014h0.002
				c-0.094,0.042,0.822-0.354,0.432-0.188h-0.013l-0.048-0.013l-0.098-0.024l-0.385-0.099c-0.03-3.109-0.062-6.214-0.094-9.313
				c-0.047-3.062-0.094-6.117-0.141-9.17c-0.129-6.102-0.259-12.186-0.388-18.251c-0.325-12.129-0.649-24.184-0.973-36.167
				c0.225-29.633-0.826-58.786-1.628-87.486c0.072-28.714-0.738-56.907-1.508-84.528c-0.402-27.658-0.45-54.724-1.105-81.146
				c-0.971-26.416-1.25-52.212-1.829-77.258c-0.206-25.074-0.468-49.411-1.325-72.949c-0.202-11.771-0.396-23.344-0.519-34.718
				c-0.15-11.36-0.144-22.539-0.647-33.425c-0.021-0.688-0.092-1.347-0.149-2.013c-0.042-0.675-0.157-1.287-0.148-2.104
				c-0.005-1.363-0.011-2.722-0.016-4.077c0.003-2.713,0.008-5.41,0.115-8.11c0.027-0.676,0.064-1.352,0.122-2.032
				c0.026-0.345,0.061-0.655,0.117-1.096c0.068-0.475,0.161-0.995,0.327-1.405c0.18-0.404,0.37-0.737,0.757-0.914
				c0.436-0.152,0.785,0.054,1.12,0.281c0.339,0.252,0.659,0.639,0.959,1.037l0.659,0.92c0.761,1.081,1.521,2.127,2.401,3.024
				c0.44,0.444,0.907,0.856,1.411,1.189c0.238,0.155,0.552,0.358,0.692,0.38l0.929,0.192l1.889,0.392l1.913,0.221
				c1.271,0.196,2.558,0.143,3.831,0.2c0.638,0.017,1.274-0.055,1.912-0.077c0.635-0.049,1.271-0.035,1.903-0.138
				c1.263-0.17,2.526-0.283,3.769-0.56c4.985-0.945,9.78-2.57,14.383-4.488c4.614-1.903,9.075-4.042,13.491-6.152
				c2.211-1.057,4.381-2.103,6.631-3.114c1.104-0.533,2.283-0.884,3.416-1.333c1.15-0.402,2.324-0.715,3.479-1.074
				c9.372-2.478,18.804-2.624,27.397-5.001c1.061-0.331,2.127-0.629,3.17-0.982c1.024-0.4,2.066-0.748,3.065-1.185
				c0.982-0.471,1.988-0.887,2.943-1.394l1.411-0.794l0.704-0.395l0.353-0.197l0.126-0.07c-0.028,0.022,0.058-0.044,0.105-0.083
				c3.456-2.829,7.23-5.193,11.199-6.978c3.968-1.783,8.102-3.024,12.227-3.759c4.125-0.755,8.219-1.115,12.217-1.357
				c8.293-0.382,16.136-0.542,23.312-2.309c7.186-1.678,13.505-4.958,18.735-9.083c0.639-0.535,1.273-1.067,1.905-1.596l0.474-0.396
				c0.13-0.104,0.083-0.069,0.244-0.308l0.691-1.052c0.455-0.703,0.914-1.396,1.427-2.051c0.508-0.657,0.961-1.346,1.516-1.957
				c2.079-2.536,4.459-4.786,7.173-6.452c2.703-1.669,5.728-2.73,8.744-3.035c3.018-0.348,5.969-0.098,8.768,0.365
				c5.007,0.793,9.604,2.069,14.037,2.448c2.211,0.197,4.369,0.174,6.416-0.156c2.047-0.324,3.967-0.958,5.713-1.805l-0.026,0.016
				c6.056-3.584,11.928-5.718,17.033-7.271c1.284-0.368,2.513-0.751,3.7-1.064c1.192-0.304,2.334-0.594,3.423-0.871
				c2.178-0.558,4.154-1.009,5.916-1.442c3.519-0.866,6.187-1.543,7.948-2.082c0.886-0.263,1.552-0.46,1.998-0.593
				c0.444-0.14,0.666-0.218,0.66-0.235L845.06-3009.975z"/>
		</g>
	</g>
</g>
<g id="g285">
	<path id="path287" d="M862.583-2784.286c1.109,75.055,1.695,150.116,3.529,225.15c1.055,42.388,4.081,84.731,6.424,127.086
		c0.662,11.884-1.013,14.903-15.055,19.178c-40.837,12.449-81.858,24.209-122.611,36.935
		c-47.971,14.992-96.783,25.663-146.265,33.433c-65.632,10.306-131.579,18.604-197.858,10.767
		c-35.873-4.239-71.479-12.56-106.592-21.576c-56.277-14.448-113.127-24.513-170.879-28.221c-47.316-3.033-94.729-4.302-142.1-6.418
		c-10.657-0.476-20.197,0.876-29.021,8.81c-9.299,8.376-20.831,4.129-22.665-8.733c-3.315-23.142-6.094-46.571-6.479-69.927
		c-0.745-44.889-0.234-89.812,0.807-134.702c1.592-68.706,3.825-137.405,6.272-206.084c1.758-49.08,4.584-98.099-0.696-147.166
		c-1.048-9.623,0.083-19.611,1.075-29.331c1.296-12.602,10.513-21.018,21.756-16.806c32.371,12.125,64.35,3.212,96.604,1.075
		c93.528-6.19,185.845-2.585,275.375,32.04c24.458,9.458,51.549,13.663,77.743,15.669c42.188,3.219,84.844,5.811,126.893,2.626
		c35.129-2.654,70.009-12.498,104.338-21.817c48.642-13.194,96.438-29.8,145.07-43.049c25.656-6.997,51.411-12.422,74.738-26.657
		c10.926-6.679,20.733,0.648,20.74,13.967c0.041,77.915,0.016,155.824,0.016,233.739
		C863.363-2784.297,862.976-2784.297,862.583-2784.286L862.583-2784.286z M843.779-3008.664c-4.791,2.288-7.633,3.777-10.575,5.019
		c-8.961,3.757-17.724,8.286-26.968,10.905c-14.736,4.164-30.062,6.136-44.688,10.616c-27.812,8.521-55.14,18.791-82.988,27.167
		c-27.85,8.375-55.892,16.323-84.229,22.609c-26.05,5.784-52.527,12.14-78.937,12.843c-43.613,1.165-87.423-0.469-130.934-3.964
		c-25.719-2.062-51.604-7.92-76.351-15.717c-34.75-10.938-68.905-24.678-105.192-27.966c-39.416-3.571-79.053-4.729-118.62-5.825
		c-19.584-0.538-39.754-1.248-58.725,2.854c-27.87,6.012-54.851,7.452-81.887-1.93c-8.064-2.799-8.438,0.345-7.638,7.293
		c1.861,16.289,4.067,32.619,4.48,48.983c0.711,28.718,0.725,57.478,0.015,86.201c-0.745,30.315-2.854,60.6-4.047,90.909
		c-1.475,37.733-3.288,75.476-3.764,113.224c-0.627,50.866-0.275,101.745-0.027,152.618c0.104,23.3,0.972,46.593,1.523,71.236
		c7.417-2.082,12.925-4.798,18.516-4.998c24.65-0.903,49.425-2.646,73.979-1.172c46.412,2.792,92.881,6.204,139.018,11.976
		c36.955,4.633,73.559,12.615,110.142,20.039c35.908,7.286,71.299,18.916,107.495,22.815c37.183,4.005,75.172,2.695,112.631,0.496
		c34.611-2.033,69.078-7.631,103.429-12.932c39.029-6.025,77.404-15.166,115.506-26.381c43.315-12.746,87.504-22.328,129.602-39.402
		c2.86-1.158,6.479-4.061,7.038-6.77c1.192-5.68,0.985-11.795,0.641-17.682c-2.095-35.921-4.887-71.808-6.484-107.757
		c-1.388-31.006-2.021-62.081-2.067-93.122c-0.193-96.858,0.034-193.71,0.11-290.568
		C843.792-2966.904,843.779-2986.758,843.779-3008.664L843.779-3008.664z"/>
	<g id="g289">
		<path id="path291" fill="none" d="M862.583-2784.286c1.109,75.055,1.695,150.116,3.529,225.15
			c1.055,42.388,4.081,84.731,6.424,127.086c0.662,11.884-1.013,14.903-15.055,19.178c-40.837,12.449-81.858,24.209-122.611,36.935
			c-47.971,14.992-96.783,25.663-146.265,33.433c-65.632,10.306-131.579,18.604-197.858,10.767
			c-35.873-4.239-71.479-12.56-106.592-21.576c-56.277-14.448-113.127-24.513-170.879-28.221
			c-47.316-3.033-94.729-4.302-142.1-6.418c-10.657-0.476-20.197,0.876-29.021,8.81c-9.299,8.376-20.831,4.129-22.665-8.733
			c-3.315-23.142-6.094-46.571-6.479-69.927c-0.745-44.889-0.234-89.812,0.807-134.702c1.592-68.706,3.825-137.405,6.272-206.084
			c1.758-49.08,4.584-98.099-0.696-147.166c-1.048-9.623,0.083-19.611,1.075-29.331c1.296-12.602,10.513-21.018,21.756-16.806
			c32.371,12.125,64.35,3.212,96.604,1.075c93.528-6.19,185.845-2.585,275.375,32.04c24.458,9.458,51.549,13.663,77.743,15.669
			c42.188,3.219,84.844,5.811,126.893,2.626c35.129-2.654,70.009-12.498,104.338-21.817c48.642-13.194,96.438-29.8,145.07-43.049
			c25.656-6.997,51.411-12.422,74.738-26.657c10.926-6.679,20.733,0.648,20.74,13.967c0.041,77.915,0.016,155.824,0.016,233.739
			C863.363-2784.297,862.976-2784.297,862.583-2784.286L862.583-2784.286z M843.779-3008.664c-4.791,2.288-7.633,3.777-10.575,5.019
			c-8.961,3.757-17.724,8.286-26.968,10.905c-14.736,4.164-30.062,6.136-44.688,10.616c-27.812,8.521-55.14,18.791-82.988,27.167
			c-27.85,8.375-55.892,16.323-84.229,22.609c-26.05,5.784-52.527,12.14-78.937,12.843c-43.613,1.165-87.423-0.469-130.934-3.964
			c-25.719-2.062-51.604-7.92-76.351-15.717c-34.75-10.938-68.905-24.678-105.192-27.966c-39.416-3.571-79.053-4.729-118.62-5.825
			c-19.584-0.538-39.754-1.248-58.725,2.854c-27.87,6.012-54.851,7.452-81.887-1.93c-8.064-2.799-8.438,0.345-7.638,7.293
			c1.861,16.289,4.067,32.619,4.48,48.983c0.711,28.718,0.725,57.478,0.015,86.201c-0.745,30.315-2.854,60.6-4.047,90.909
			c-1.475,37.733-3.288,75.476-3.764,113.224c-0.627,50.866-0.275,101.745-0.027,152.618c0.104,23.3,0.972,46.593,1.523,71.236
			c7.417-2.082,12.925-4.798,18.516-4.998c24.65-0.903,49.425-2.646,73.979-1.172c46.412,2.792,92.881,6.204,139.018,11.976
			c36.955,4.633,73.559,12.615,110.142,20.039c35.908,7.286,71.299,18.916,107.495,22.815c37.183,4.005,75.172,2.695,112.631,0.496
			c34.611-2.033,69.078-7.631,103.429-12.932c39.029-6.025,77.404-15.166,115.506-26.381
			c43.315-12.746,87.504-22.328,129.602-39.402c2.86-1.158,6.479-4.061,7.038-6.77c1.192-5.68,0.985-11.795,0.641-17.682
			c-2.095-35.921-4.887-71.808-6.484-107.757c-1.388-31.006-2.021-62.081-2.067-93.122c-0.193-96.858,0.034-193.71,0.11-290.568
			C843.792-2966.904,843.779-2986.758,843.779-3008.664L843.779-3008.664z"/>
		<g id="g293">
			<path id="path295" d="M843.429-3008.664c0.02,0,0.035,0.168,0.05,0.502c0.011,0.334,0.023,0.833,0.044,1.497
				c0.016,1.327,0.038,3.311,0.068,5.933c0.021,5.244,0.057,13.045,0.1,23.272c0.049,20.454,0.116,50.614,0.209,89.436
				c-0.438,38.803-0.352,86.25,0.204,141.326c0.257,27.529,0.371,56.953,0.351,88.146c0.133,15.591,0.268,31.623,0.407,48.081
				c0.224,8.227,0.446,16.56,0.677,24.996c0.111,4.22,0.222,8.465,0.334,12.736c0.138,4.27,0.147,8.572,0.408,12.889
				c0.9,17.27,1.841,34.951,2.896,53.021c0.58,9.033,1.167,18.164,1.761,27.394c0.304,4.613,0.605,9.251,0.911,13.912
				c0.291,4.663,0.66,9.339,0.864,14.062c0.136,4.733,0.081,9.495-1.017,14.258c-0.438,1.195-1.205,2.203-2.078,3.055
				c-0.854,0.884-1.842,1.612-2.871,2.271c-1.031,0.66-2.193,1.14-3.303,1.555l-3.363,1.301c-2.246,0.868-4.498,1.739-6.754,2.612
				c-2.26,0.864-4.506,1.784-6.814,2.546c-4.592,1.594-9.206,3.195-13.841,4.805c-18.646,6.125-37.896,11.503-57.464,16.925
				c-4.902,1.323-9.823,2.651-14.766,3.984c-4.942,1.329-9.909,2.649-14.872,4.056c-9.929,2.793-19.989,5.498-30.106,8.28
				c-20.251,5.514-40.988,10.433-62.103,15.229l-3.982,0.785c-1.329,0.261-2.674,0.44-4.012,0.669
				c-2.681,0.437-5.362,0.873-8.052,1.312c-5.37,0.896-10.763,1.794-16.173,2.696c-10.837,1.651-21.749,3.314-32.733,4.988
				c-5.498,0.813-11.016,1.633-16.548,2.453l-4.153,0.618l-4.175,0.529c-2.784,0.354-5.574,0.711-8.368,1.066
				c-2.793,0.359-5.592,0.719-8.396,1.078l-4.207,0.544c-1.403,0.169-2.817,0.271-4.229,0.407
				c-5.648,0.521-11.314,1.045-16.998,1.57c-22.766,1.427-45.838,2.352-69.201,2.244c-11.682,0-23.426-0.527-35.22-1.283
				c-2.943-0.263-5.891-0.525-8.843-0.789l-4.432-0.396c-1.476-0.165-2.944-0.381-4.422-0.57c-2.946-0.391-5.898-0.781-8.855-1.174
				c-2.944-0.463-5.876-1.021-8.821-1.531c-5.896-0.955-11.722-2.321-17.602-3.507c-2.935-0.622-5.851-1.333-8.779-1.994
				c-2.927-0.677-5.865-1.331-8.787-2.051c-11.714-2.8-23.452-5.709-35.288-8.397c-2.953-0.706-5.934-1.279-8.904-1.927
				c-2.978-0.62-5.941-1.284-8.941-1.868c-5.985-1.205-11.984-2.414-17.998-3.625c-12.024-2.401-24.104-4.814-36.234-7.237
				c-6.094-1.051-12.198-2.104-18.316-3.159c-3.061-0.507-6.11-1.116-9.189-1.543c-3.077-0.437-6.157-0.873-9.24-1.311
				c-6.17-0.854-12.332-1.823-18.539-2.595c-6.22-0.694-12.451-1.391-18.695-2.088c-3.122-0.353-6.246-0.706-9.374-1.06
				l-4.694-0.532l-4.709-0.438c-6.28-0.59-12.574-1.182-18.879-1.773c-3.153-0.301-6.309-0.601-9.467-0.899
				c-3.158-0.306-6.328-0.521-9.497-0.785c-6.339-0.514-12.688-1.028-19.052-1.543c-6.346-0.646-12.715-1.148-19.098-1.618
				c-6.385-0.45-12.781-0.898-19.188-1.353c-1.603-0.103-3.205-0.229-4.809-0.304l-4.811-0.148c-3.209-0.094-6.42-0.188-9.634-0.281
				c-3.212-0.152-6.435-0.047-9.657,0.01c-3.223,0.06-6.448,0.119-9.676,0.178c-12.911,0.412-25.869,1.076-38.883,1.604
				c-0.832,0.02-1.58,0.108-2.355,0.172c-0.771,0.053-1.542,0.257-2.313,0.376c-0.77,0.17-1.538,0.381-2.308,0.572l-2.306,0.699
				l-4.634,1.529l-2.346,0.75l-3.25,0.958l-0.471,0.138l-0.234,0.069l-0.059,0.018c-0.008-0.011-0.004-0.038-0.006-0.057
				l-0.002-0.124l-0.021-0.987l-0.042-1.965l-0.044-2.493l-0.079-4.897c-0.04-3.271-0.081-6.539-0.122-9.812
				c-0.222-12.838-0.443-25.638-0.664-38.396c-0.322-12.763-0.414-25.479-0.59-38.153c-0.303-25.349-0.841-50.52-0.566-75.499
				c0.284-12.501,0.567-24.951,0.849-37.351c0.064-3.099,0.128-6.195,0.192-9.288c0.066-3.093,0.091-6.183,0.243-9.268
				c0.226-6.171,0.45-12.329,0.675-18.474c0.416-12.289,0.69-24.528,0.888-36.719c0.312-12.186,0.467-24.323,0.403-36.416
				c0.753-24.144,2.409-53.062,3.381-79.004c0.277-6.485,0.547-12.788,0.804-18.788c0.251-6,0.603-11.694,0.646-16.975
				c0.227-10.556,0.49-19.419,0.807-25.632c-0.026-2.334-0.054-4.741-0.082-7.215c-0.025-2.474-0.018-5.013-0.121-7.607
				c-0.135-5.194-0.275-10.622-0.42-16.226c-0.111-5.601-0.227-11.376-0.343-17.265c-0.024-1.472-0.05-2.951-0.074-4.438
				l-0.035-2.232l-0.113-2.229c-0.153-2.976-0.307-5.972-0.461-8.982c-0.885-12.038-2.292-24.277-3.62-36.298
				c-0.161-1.493-0.344-3.014-0.406-4.598c-0.039-0.787-0.02-1.614,0.075-2.474c0.14-0.866,0.34-1.842,1.063-2.762
				c0.201-0.212,0.409-0.424,0.629-0.612c0.243-0.153,0.496-0.299,0.75-0.433c0.5-0.187,1.035-0.345,1.493-0.354
				c0.964-0.096,1.785,0.052,2.588,0.199c1.573,0.325,3.036,0.888,4.384,1.321c5.459,1.932,10.964,3.343,16.35,4.4
				c10.781,2.13,21.792,2.592,32.653,2.028c5.434-0.325,10.835-0.905,16.194-1.681c5.365-0.764,10.646-1.849,15.943-2.894
				c10.647-2.151,21.432-2.858,32.087-3.014c10.667-0.14,21.231,0.23,31.712,0.499c5.242,0.134,10.466,0.267,15.67,0.397
				c5.204,0.127,10.388,0.29,15.552,0.496c5.163,0.192,10.308,0.384,15.432,0.575c2.562,0.101,5.118,0.201,7.669,0.302
				c2.551,0.134,5.097,0.27,7.637,0.402c10.158,0.575,20.248,0.917,30.227,1.722c4.995,0.337,9.968,0.673,14.919,1.007
				c4.944,0.291,9.903,0.685,14.811,1.293c19.594,2.946,37.969,8.453,55.664,14.28c17.71,5.828,34.802,12.133,52.067,17.092
				c8.617,2.537,17.303,4.611,25.979,6.522c2.181,0.424,4.359,0.849,6.536,1.273l3.266,0.627l3.28,0.532l6.556,1.046l6.579,0.839
				c2.188,0.308,4.39,0.503,6.589,0.696c2.201,0.188,4.396,0.423,6.602,0.57c4.413,0.26,8.825,0.52,13.243,0.779
				c4.415,0.247,8.836,0.494,13.263,0.74c2.213,0.106,4.426,0.271,6.646,0.324c2.222,0.062,4.44,0.123,6.664,0.186
				c7.271,0.247,14.406,0.489,21.467,0.729c3.526,0.175,7.041,0.153,10.543,0.218c3.502,0.054,6.99,0.107,10.479,0.16
				c3.486,0.062,6.97,0.124,10.457,0.188c1.744,0.021,3.489,0.087,5.236,0.08c1.747-0.018,3.496-0.032,5.248-0.048
				c7.01-0.055,14.066-0.109,21.236-0.165c1.793-0.012,3.593-0.024,5.399-0.036c1.797-0.085,3.602-0.169,5.415-0.254
				c1.812-0.105,3.639-0.132,5.467-0.303c1.828-0.172,3.666-0.345,5.514-0.519c7.396-0.696,14.921-1.869,22.656-3.191
				c3.858-0.722,7.775-1.456,11.747-2.261c3.968-0.84,8.004-1.657,12.101-2.583c8.194-1.807,16.693-3.711,25.471-5.873
				c24.473-6.021,48.188-12.672,70.23-19.207c1.379-0.398,2.753-0.8,4.12-1.197c1.358-0.421,2.711-0.84,4.059-1.257
				c2.689-0.835,5.354-1.663,7.989-2.479c2.639-0.817,5.244-1.626,7.822-2.425c2.576-0.802,5.104-1.667,7.607-2.481
				c10.008-3.314,19.497-6.458,28.342-9.388c2.217-0.717,4.4-1.423,6.556-2.119c2.165-0.667,4.298-1.325,6.399-1.973
				c4.2-1.299,8.273-2.562,12.223-3.78c0.99-0.294,1.955-0.635,2.943-0.886c0.984-0.255,1.964-0.507,2.934-0.758
				c1.939-0.502,3.846-0.995,5.719-1.48c1.865-0.521,3.729-0.877,5.552-1.27c1.819-0.388,3.608-0.769,5.362-1.143
				c7.007-1.512,13.514-2.722,19.349-4.274c1.465-0.363,2.896-0.718,4.292-1.063c0.35-0.087,0.693-0.174,1.041-0.26
				c0.336-0.111,0.67-0.222,1.002-0.332c0.664-0.22,1.317-0.438,1.967-0.652c1.294-0.43,2.554-0.849,3.779-1.256
				c1.197-0.487,2.363-0.962,3.495-1.422c1.132-0.463,2.229-0.911,3.294-1.347c1.051-0.468,2.067-0.921,3.054-1.357
				c1.971-0.876,3.808-1.692,5.507-2.447c1.703-0.754,3.271-1.446,4.697-2.078c1.406-0.658,2.677-1.252,3.809-1.781
				c4.511-2.188,6.806-3.363,6.806-3.363c-0.026-0.061-0.625,0.182-1.78,0.711c-1.148,0.542-2.863,1.352-5.131,2.424
				c-1.132,0.523-2.4,1.111-3.807,1.762c-1.43,0.633-2.997,1.326-4.7,2.08c-1.696,0.762-3.53,1.585-5.497,2.468
				c-0.982,0.443-1.998,0.902-3.048,1.376c-1.06,0.441-2.149,0.896-3.276,1.366c-1.127,0.468-2.287,0.95-3.481,1.446
				c-1.22,0.417-2.474,0.845-3.762,1.285c-0.646,0.22-1.298,0.443-1.958,0.669c-0.331,0.113-0.664,0.228-0.998,0.342
				c-0.344,0.089-0.689,0.179-1.037,0.269c-1.393,0.359-2.817,0.729-4.279,1.105c-5.815,1.612-12.31,2.897-19.297,4.498
				c-1.748,0.396-3.529,0.799-5.347,1.211c-1.812,0.416-3.672,0.796-5.526,1.343c-1.86,0.51-3.758,1.028-5.686,1.556
				c-0.964,0.264-1.938,0.529-2.916,0.798c-0.98,0.264-1.943,0.618-2.928,0.927c-3.928,1.279-7.979,2.6-12.156,3.961
				c-2.09,0.68-4.211,1.37-6.363,2.07c-2.141,0.729-4.312,1.472-6.518,2.223c-8.871,2.855-18.22,5.93-28.035,9.194
				c-2.454,0.813-4.938,1.642-7.453,2.478c-2.523,0.8-5.079,1.609-7.664,2.429c-2.584,0.823-5.196,1.656-7.839,2.499
				c-2.64,0.851-5.312,1.705-8.034,2.5c-21.696,6.615-45.369,13.543-71.133,19.757c-8.457,1.916-16.547,3.64-24.342,5.31
				c-7.79,1.689-15.3,3.244-22.629,4.646c-14.651,2.784-28.651,4.78-42.688,5.193c-7.008,0.141-13.996,0.281-21.059,0.423
				c-3.531,0.062-7.082,0.128-10.663,0.19c-3.581-0.047-7.192-0.094-10.845-0.142c-7.309-0.113-14.783-0.215-22.52-0.415
				c-7.729-0.37-15.719-0.781-24.062-1.25c-8.354-0.241-16.921-0.938-25.687-1.488c-4.38-0.293-8.807-0.59-13.271-0.889
				c-2.234-0.118-4.476-0.402-6.727-0.602c-2.249-0.229-4.515-0.396-6.77-0.729c-2.258-0.298-4.524-0.597-6.799-0.896
				c-2.271-0.324-4.535-0.731-6.813-1.098l-3.419-0.564l-3.411-0.662c-2.273-0.451-4.556-0.902-6.841-1.354
				c-9.107-1.977-18.223-4.266-27.271-6.871c-18.086-5.272-35.872-11.703-53.562-17.262c-17.668-5.585-35.304-10.3-52.551-12.592
				c-8.061-1.183-17.154-1.636-26.812-2.361c-2.415-0.17-4.868-0.342-7.354-0.519c-2.484-0.178-5.002-0.363-7.554-0.458
				c-5.1-0.239-10.311-0.48-15.593-0.729c-10.561-0.573-21.426-0.854-32.26-1.276c-10.838-0.407-21.65-0.812-32.129-1.209
				c-10.479-0.351-21.033-0.808-31.652-0.732c-10.609,0.088-21.325,0.747-31.869,2.876c-5.291,1.044-10.613,2.146-16,2.938
				c-5.386,0.805-10.818,1.428-16.291,1.812c-10.943,0.678-22.071,0.396-33.069-1.498c-5.483-0.994-10.929-2.344-16.243-4.146
				c-1.352-0.415-2.644-0.907-3.933-1.214c-0.324-0.096-0.646-0.144-0.966-0.198c-0.324-0.07-0.638-0.094-0.947-0.104
				c-0.625-0.048-1.206,0.04-1.627,0.265c-0.854,0.385-1.114,1.709-1.136,3.014c-0.025,1.323,0.11,2.703,0.263,4.084
				c0.632,5.572,1.308,11.151,1.905,16.771c0.303,2.807,0.605,5.619,0.909,8.435c0.246,2.823,0.494,5.651,0.741,8.483
				c0.294,2.828,0.397,5.678,0.54,8.527l0.213,4.278c0.072,1.428,0.154,2.856,0.15,4.283c0.075,5.71,0.151,11.437,0.228,17.179
				c0.085,5.742,0.17,11.501,0.256,17.274c0.026,2.888,0.134,5.778,0.1,8.673c-0.021,2.896-0.042,5.794-0.063,8.697
				c-0.166,5.809-0.294,11.632-0.394,17.471c-0.043,2.919-0.086,5.842-0.129,8.77c-0.062,2.926-0.009,5.859-0.159,8.791
				c-0.393,11.734-0.785,23.529-1.182,35.383c-0.344,11.861-0.891,23.75-1.411,35.708c-0.295,5.977-0.591,11.967-0.887,17.972
				c-0.273,6.007-0.577,12.027-0.921,18.06c-0.373,12.074-0.747,24.203-1.123,36.386c-0.252,12.18-0.504,24.412-0.758,36.697
				c-0.153,6.142-0.307,12.296-0.461,18.463c-0.113,3.083-0.1,6.173-0.129,9.265c-0.027,3.093-0.056,6.188-0.084,9.286
				c-0.13,12.395-0.336,24.84-0.647,37.336c0.308,24.966,0.419,50.138,0.298,75.485c-0.036,12.674-0.156,25.396,0.083,38.144
				c0.104,6.375,0.207,12.76,0.311,19.154c0.144,6.396,0.378,12.804,0.611,19.219c0.034,3.271,0.067,6.545,0.102,9.812l0.062,4.901
				l0.033,2.409l0.001,0.582l0.001,0.299c-0.019,0.077,0.042,0.043,0.087,0.032l0.139-0.038l1.59-0.451l2.321-0.731l4.658-1.513
				l2.366-0.704c0.805-0.196,1.604-0.411,2.416-0.586c0.826-0.125,1.634-0.333,2.474-0.39c0.835-0.066,1.684-0.156,2.485-0.168
				c13.002-0.461,25.968-1.054,38.907-1.44c3.236-0.056,6.471-0.111,9.702-0.168c3.232-0.055,6.461-0.164,9.689-0.02
				c3.229,0.081,6.455,0.162,9.679,0.244l4.834,0.119c1.608,0.065,3.21,0.178,4.814,0.265c6.415,0.368,12.819,0.736,19.212,1.104
				c6.394,0.358,12.775,0.721,19.141,1.189c6.363,0.575,12.715,1.149,19.055,1.723c3.169,0.287,6.34,0.519,9.5,0.837
				c3.161,0.312,6.319,0.622,9.475,0.933c6.312,0.597,12.611,1.191,18.898,1.786l4.715,0.432l4.7,0.524
				c3.134,0.345,6.263,0.688,9.39,1.034c6.256,0.676,12.499,1.35,18.73,2.021c6.223,0.748,12.41,1.696,18.602,2.526
				c3.094,0.428,6.186,0.855,9.273,1.282c3.09,0.418,6.145,1.021,9.215,1.521c6.131,1.051,12.25,2.099,18.356,3.145
				c12.12,2.532,24.188,5.054,36.2,7.563c6.006,1.246,11.998,2.49,17.977,3.729c2.991,0.597,5.972,1.278,8.953,1.912
				c2.977,0.66,5.969,1.246,8.924,1.96c11.854,2.729,23.599,5.646,35.305,8.416c2.923,0.714,5.854,1.357,8.777,2.022
				c2.928,0.647,5.841,1.347,8.768,1.953c5.863,1.151,11.684,2.478,17.552,3.381c2.93,0.513,5.847,1.079,8.771,1.551
				c2.936,0.402,5.866,0.805,8.794,1.207c1.464,0.195,2.924,0.418,4.39,0.591l4.408,0.421c2.938,0.282,5.87,0.564,8.8,0.846
				c11.742,0.834,23.445,1.455,35.101,1.524c23.302,0.247,46.373-0.626,69.083-2.364c5.666-0.534,11.313-1.064,16.945-1.598
				c1.407-0.139,2.816-0.238,4.221-0.407l4.197-0.541c2.8-0.354,5.593-0.713,8.382-1.068c2.787-0.352,5.571-0.702,8.354-1.053
				l4.167-0.521l4.15-0.611c5.527-0.813,11.04-1.624,16.532-2.433c5.494-0.778,10.964-1.663,16.416-2.502
				c5.448-0.86,10.896-1.656,16.295-2.56c5.39-0.948,10.761-1.893,16.109-2.833c2.675-0.472,5.348-0.943,8.012-1.414
				c1.33-0.246,2.67-0.448,3.989-0.73l3.958-0.854c21.188-4.174,41.946-8.935,62.151-14.511c10.096-2.814,20.104-5.603,30.021-8.519
				c4.955-1.466,9.907-2.852,14.834-4.249c4.927-1.404,9.829-2.802,14.714-4.194c19.595-5.327,38.847-10.561,57.487-16.529
				c4.634-1.569,9.246-3.132,13.837-4.688c2.312-0.742,4.555-1.642,6.812-2.485c2.256-0.854,4.506-1.704,6.75-2.554l3.361-1.271
				c1.164-0.429,2.148-0.825,3.107-1.427c0.947-0.595,1.87-1.265,2.64-2.054c0.802-0.759,1.459-1.654,1.788-2.547
				c0.188-0.39,0.25-1.019,0.342-1.586l0.266-1.721c0.074-0.575,0.209-1.144,0.236-1.727l0.102-1.746
				c0.201-2.319,0.113-4.668,0.097-7.003c-2.209-37.678-4.33-73.852-6.354-108.38c-0.304-4.314-0.359-8.619-0.539-12.891
				c-0.154-4.272-0.306-8.521-0.457-12.739c-0.303-8.441-0.601-16.778-0.896-25.008c-0.237-16.469-0.474-32.512-0.699-48.112
				c-0.101-31.191-0.169-60.615-0.116-88.146c0.527-57.157,0.118-102.524,0.541-141.328c0.213-38.821,0.378-68.981,0.49-89.436
				c0.021-10.228,0.041-18.028,0.053-23.272c-0.012-2.622-0.021-4.605-0.027-5.933c-0.012-0.664-0.021-1.163-0.025-1.497
				C843.457-3008.496,843.445-3008.664,843.429-3008.664L843.429-3008.664z"/>
		</g>
		<g id="g297">
			<path id="path299" d="M862.589-2783.938c0-0.024,0.346-0.051,1.157-0.08l0.285-0.011l-0.008-0.271
				c-0.212-7.026-0.206-51.068-0.433-125.354c0.21-20.346,0.287-42.957,0.24-67.702c-0.052-12.373-0.105-25.278-0.162-38.701
				c-0.008-1.678-0.021-3.365-0.24-5.037c-0.133-0.833-0.223-1.676-0.474-2.487l-0.321-1.229l-0.457-1.188
				c-1.193-3.155-3.537-5.999-6.688-7.365l-1.197-0.46l-1.257-0.266c-0.415-0.118-0.851-0.105-1.277-0.133
				c-0.428-0.01-0.855-0.084-1.286-0.01l-1.286,0.132c-0.428,0.051-0.842,0.196-1.264,0.289c-0.854,0.16-1.645,0.55-2.457,0.857
				c-1.562,0.748-3.08,1.666-4.648,2.553c-1.56,0.893-3.123,1.784-4.694,2.685c-1.548,0.944-3.201,1.701-4.849,2.487
				c-1.646,0.787-3.303,1.579-4.961,2.373c-0.822,0.417-1.68,0.763-2.536,1.104c-0.856,0.348-1.716,0.695-2.575,1.044
				c-1.721,0.696-3.449,1.395-5.186,2.097c-3.539,1.21-7.08,2.521-10.699,3.672c-3.641,1.09-7.279,2.303-11.006,3.304
				c-7.416,2.129-15,4.081-22.654,6.168c-3.846,0.996-7.667,2.174-11.543,3.271c-3.87,1.115-7.771,2.238-11.696,3.369
				c-15.743,4.396-31.795,9.416-48.328,14.379c-8.269,2.483-16.644,5-25.124,7.547c-4.242,1.271-8.51,2.544-12.805,3.828
				c-4.291,1.294-8.654,2.442-13.021,3.68c-8.729,2.469-17.56,4.967-26.491,7.494c-8.965,2.417-18.025,4.87-27.212,7.272
				c-18.367,4.776-37.274,9.287-56.88,12.173c-2.452,0.344-4.899,0.761-7.373,1.049c-2.476,0.256-4.957,0.512-7.443,0.769
				c-4.973,0.605-9.994,0.797-15.032,1.14c-5.037,0.381-10.109,0.498-15.204,0.664c-2.548,0.064-5.101,0.202-7.661,0.213
				c-2.56,0.016-5.126,0.032-7.698,0.048c-20.579,0.099-41.525-0.772-62.79-2.078c-5.313-0.34-10.647-0.735-16.003-1.164
				c-2.677-0.214-5.357-0.428-8.047-0.643c-2.688-0.251-5.381-0.502-8.08-0.754c-10.781-1.127-21.612-2.671-32.424-4.805
				c-10.814-2.1-21.562-5.011-32.133-8.697c-10.58-3.659-21.059-7.692-31.979-10.743c-21.457-7.164-43.841-12.632-66.796-16.506
				c-22.959-3.883-46.481-6.181-70.325-7.223c-23.825-1.471-48.02-1.59-72.453-0.778c-6.109,0.165-12.231,0.52-18.373,0.772
				c-6.14,0.3-12.291,0.722-18.463,1.078c-12.317,0.768-24.625,2.538-37.087,3.845c-6.227,0.634-12.492,1.145-18.797,1.368
				c-6.308,0.179-12.652,0-18.979-0.649c-6.334-0.64-12.605-1.995-18.74-3.828l-4.568-1.508l-2.166-0.664
				c-0.734-0.117-1.466-0.29-2.203-0.349c-2.943-0.226-5.957,0.451-8.383,2.162c-2.43,1.682-4.384,4.092-5.637,6.854
				c-1.292,2.771-1.926,5.755-2.21,8.89c-0.622,6.37-1.281,12.73-1.312,19.089c-0.063,3.186,0.154,6.332,0.445,9.504
				c0.283,3.22,0.566,6.442,0.85,9.668c0.26,3.229,0.609,6.454,0.787,9.694c0.159,3.24,0.318,6.482,0.478,9.73
				c1.472,25.979,1.103,52.223,0.221,78.596c-0.503,13.182-1.007,26.414-1.514,39.698c-0.461,13.284-0.925,26.619-1.39,40.005
				c-2.717,53.451-2.939,107.761-5.44,162.628c-0.442,13.454-0.623,26.873-0.817,40.25c-0.074,6.688-0.147,13.366-0.221,20.032
				c-0.029,3.333-0.057,6.664-0.085,9.991c0.041,3.328,0.082,6.652,0.124,9.975c0.166,13.286,0.332,26.525,0.497,39.716
				c0.034,3.297,0.067,6.591,0.102,9.882l0.044,4.935c0.004,1.646,0.023,3.287,0.117,4.921c0.139,3.272,0.278,6.541,0.417,9.81
				l0.197,4.896c0.082,1.63,0.249,3.257,0.366,4.884c0.449,6.521,0.738,13.046,1.449,19.527c0.311,3.246,0.62,6.488,0.93,9.729
				c0.318,3.239,0.745,6.463,1.115,9.689c0.396,3.219,0.742,6.463,1.184,9.653c0.46,3.132,1.646,6.195,3.721,8.584
				c1.075,1.136,2.294,2.192,3.754,2.805c0.351,0.182,0.708,0.348,1.094,0.44l1.132,0.342c0.782,0.087,1.559,0.293,2.354,0.229
				c1.591,0.069,3.15-0.362,4.653-0.862c1.462-0.625,2.881-1.383,4.13-2.383c1.276-0.952,2.445-2.1,3.769-3.026
				c1.284-0.982,2.669-1.823,4.075-2.612c2.844-1.533,5.917-2.604,9.063-3.285c3.156-0.646,6.375-0.917,9.584-0.953
				c3.213-0.018,6.409,0.146,9.604,0.215c12.779,0.342,25.508,0.525,38.188,0.49c25.319,0.846,55.63,2.367,82.86,3.719
				c3.404,0.175,6.76,0.346,10.052,0.515c1.646,0.086,3.276,0.171,4.888,0.255c1.611,0.127,3.205,0.253,4.778,0.377
				c6.293,0.521,12.27,0.999,17.796,1.508c5.511,0.648,10.58,1.246,15.083,1.775c2.249,0.281,4.357,0.533,6.304,0.808
				c1.94,0.314,3.725,0.604,5.337,0.864c4.875,0.538,10.057,1.109,15.483,1.708c5.404,0.771,11.053,1.575,16.882,2.405
				c1.457,0.214,2.925,0.43,4.403,0.646c1.473,0.25,2.956,0.501,4.448,0.754c2.983,0.52,6.004,1.046,9.054,1.576
				c3.048,0.544,6.132,1.061,9.224,1.649c3.086,0.622,6.192,1.249,9.314,1.88c3.12,0.636,6.254,1.272,9.395,1.914
				c3.141,0.639,6.26,1.404,9.392,2.104c3.128,0.719,6.255,1.438,9.372,2.153c1.558,0.364,3.112,0.727,4.664,1.089
				c1.544,0.394,3.086,0.781,4.624,1.171c6.143,1.573,12.219,3.129,18.167,4.652c5.931,1.556,11.733,3.077,17.348,4.55
				c11.24,2.907,22.475,5.522,33.666,7.989c11.216,2.338,22.381,4.587,33.558,6.291c11.156,1.829,22.312,3.147,33.405,4.151
				c5.558,0.398,11.089,0.882,16.618,1.07c2.764,0.11,5.519,0.293,8.271,0.341c2.758,0.056,5.506,0.111,8.25,0.167
				c2.744,0.076,5.485,0.016,8.223,0.012c2.733-0.029,5.467,0,8.189-0.071c5.449-0.156,10.879-0.229,16.283-0.521
				c10.812-0.417,21.523-1.248,32.139-2.141c21.223-1.949,42.021-4.688,62.353-8.022c20.434-2.791,40.192-5.727,59.419-9.159
				c19.216-3.489,37.902-7.407,56.229-11.795c18.301-4.501,36.223-9.495,53.92-15.062c17.729-5.479,35.391-11.043,53.166-16.766
				c14.557-4.644,28.615-8.903,42.634-13.138c7.015-2.097,14.015-4.189,21.063-6.297c3.521-1.069,7.109-2.027,10.504-3.282
				c3.323-1.288,6.824-2.798,8.309-5.74c1.506-2.938,1.297-6.837,1.154-10.572c-0.204-3.823-0.413-7.685-0.625-11.59
				c-0.43-7.812-0.866-15.806-1.318-24.045c-0.477-8.239-0.964-16.727-1.472-25.521c-0.479-8.8-0.974-17.909-1.486-27.396
				c-0.447-6.604-0.68-13.186-0.952-19.705c-0.248-6.522-0.495-12.989-0.738-19.383c-0.212-12.787-0.418-25.281-0.617-37.342
				c-0.32-24.123-0.619-46.516-0.881-66.059c-0.121-39.069-0.357-69.386-0.668-89.937c-0.289-20.55-0.573-31.331-0.573-31.331
				c-0.063,0-0.102,0.676-0.11,2.008c-0.013,1.333,0.004,3.323,0.039,5.955c0.1,5.265,0.248,13.097,0.44,23.371
				c0.403,20.547,0.997,50.859,1.765,89.919c0.09,19.543,0.473,41.273,0.996,65.061c0.275,11.893,0.566,24.301,0.867,37.208
				c0.213,6.451,0.524,13.024,0.788,19.722c0.29,6.696,0.509,13.52,0.942,20.45c0.348,9.083,0.703,17.752,1.104,26.102
				c0.479,8.345,0.938,16.374,1.385,24.187c0.488,7.81,0.968,15.401,1.438,22.875c0.246,3.735,0.489,7.442,0.732,11.131
				c0.111,1.847,0.262,3.681,0.35,5.525c0.092,1.842,0.146,3.693-0.049,5.545c-0.182,1.839-0.635,3.722-1.68,5.319
				c-1.029,1.605-2.569,2.797-4.184,3.723c-1.616,0.947-3.346,1.641-5.08,2.293c-1.738,0.642-3.51,1.21-5.275,1.756
				c-7.082,2.166-14.237,4.354-21.562,6.595c-14.654,4.46-30.026,8.995-46.845,13.896c-16.748,5.122-34.46,10.539-52.698,16.118
				c-18.23,5.646-37.158,10.917-56.323,15.627c-19.173,4.681-38.591,8.73-57.725,12.324c-4.789,0.869-9.556,1.733-14.294,2.594
				c-4.75,0.787-9.471,1.571-14.156,2.349c-9.369,1.553-18.611,2.946-27.654,4.323c-16.979,2.449-37.771,5.406-59.887,7.595
				c-11.057,1.067-22.438,1.983-33.824,2.45c-5.688,0.301-11.381,0.387-17.021,0.491c-2.82,0.065-5.632-0.01-8.425-0.01
				c-2.793-0.03-5.568-0.011-8.321-0.137c-2.752-0.077-5.509-0.153-8.271-0.23c-2.763-0.069-5.523-0.273-8.296-0.404
				c-5.543-0.229-11.089-0.752-16.657-1.187c-11.123-1.072-22.3-2.438-33.479-4.271c-11.199-1.71-22.389-3.92-33.646-6.153
				c-11.23-2.362-22.522-4.809-33.841-7.457c-11.27-2.815-22.611-5.647-34.022-8.498c-2.856-0.69-5.7-1.453-8.578-2.088
				c-2.875-0.652-5.754-1.305-8.637-1.959c-5.766-1.311-11.543-2.65-17.381-3.788c-2.914-0.595-5.832-1.189-8.754-1.785
				c-2.924-0.59-5.844-1.218-8.793-1.719c-5.888-1.056-11.792-2.114-17.713-3.176c-5.943-0.918-11.904-1.839-17.882-2.762
				l-4.488-0.674l-4.509-0.572c-3.008-0.379-6.021-0.759-9.036-1.14c-24.1-3.438-48.653-5.24-73.507-5.988
				c-24.838-1.007-49.904-2.144-75.22-3.472c-12.663-0.399-25.384-0.805-38.161-1.211c-3.194-0.084-6.408-0.255-9.53-0.238
				c-3.138,0.034-6.252,0.308-9.276,0.938c-3.012,0.665-5.926,1.703-8.616,3.179c-1.331,0.763-2.642,1.57-3.858,2.521l-0.919,0.701
				l-0.881,0.754c-0.554,0.483-1.244,1.044-1.919,1.589c-1.344,1.095-2.897,1.954-4.523,2.662c-1.677,0.587-3.439,1.085-5.278,1.035
				c-0.913,0.073-1.822-0.136-2.731-0.239c-0.443-0.116-0.885-0.251-1.326-0.38c-0.449-0.109-0.869-0.294-1.282-0.499
				c-1.711-0.705-3.148-1.904-4.397-3.201c-2.418-2.713-3.758-6.129-4.302-9.531c-0.492-3.273-0.867-6.46-1.3-9.7
				c-0.404-3.23-0.864-6.455-1.211-9.7c-0.334-3.247-0.668-6.498-1.003-9.751c-0.75-6.497-1.059-13.06-1.493-19.608
				c-3.35-52.427-0.523-105.644-0.23-159.496c2.564-54.875,3.67-109.159,4.971-162.662c0.641-13.382,1.182-26.716,1.65-40.001
				c0.553-13.283,1.068-26.515,1.481-39.695c0.802-26.357,1.013-52.54-0.448-78.415c-0.127-3.237-0.254-6.471-0.381-9.7
				c-0.146-3.229-0.468-6.441-0.698-9.658c-0.257-3.215-0.513-6.427-0.769-9.634c-0.274-3.236-0.475-6.498-0.389-9.735
				c0.075-6.483,0.779-12.892,1.431-19.259c0.304-3.212,1.002-6.495,2.413-9.471c1.373-2.988,3.524-5.663,6.277-7.551
				c2.742-1.923,6.215-2.705,9.521-2.433c0.827,0.068,1.641,0.257,2.457,0.395l2.357,0.728l4.482,1.479
				c6.021,1.799,12.18,3.128,18.416,3.743c6.231,0.627,12.492,0.782,18.731,0.576c6.241-0.254,12.457-0.795,18.65-1.473
				c12.408-1.273,24.771-2.98,37.173-3.672c6.183-0.314,12.344-0.694,18.495-0.952c6.153-0.213,12.284-0.526,18.404-0.657
				c24.476-0.671,48.695-0.503,72.591,0.657c23.904,0.966,47.485,3.36,70.508,7.265c23.024,3.896,45.48,9.308,67.15,16.113
				c10.851,3.355,21.37,7.613,31.842,11.348c10.45,3.76,21.136,6.678,31.905,8.73c10.764,2.088,21.562,3.534,32.315,4.537
				c2.691,0.219,5.377,0.438,8.061,0.657c2.688,0.18,5.369,0.359,8.047,0.539c5.354,0.359,10.688,0.681,16.004,0.948
				c21.229,1.402,42.127,2.411,62.655,2.459c2.563,0,5.126,0.01,7.68,0.01c2.555,0.01,5.1-0.109,7.642-0.157
				c5.081-0.129,10.145-0.209,15.166-0.553c5.023-0.306,10.041-0.462,14.987-1.031c2.479-0.238,4.951-0.477,7.417-0.715
				c2.463-0.271,4.906-0.671,7.351-0.999c19.552-2.753,38.448-7.164,56.81-11.911c9.18-2.389,18.24-4.845,27.193-7.287
				c8.914-2.572,17.729-5.115,26.438-7.628c4.35-1.279,8.695-2.468,12.973-3.803c4.281-1.322,8.536-2.638,12.768-3.943
				c8.457-2.618,16.809-5.202,25.054-7.755c16.501-5.09,32.523-10.208,48.276-14.67c3.928-1.145,7.828-2.281,11.7-3.409
				c3.879-1.109,7.704-2.295,11.554-3.296c7.673-2.099,15.248-4.046,22.641-6.149c3.719-0.99,7.332-2.183,10.957-3.253
				c3.604-1.127,7.117-2.409,10.639-3.589c1.723-0.686,3.438-1.363,5.146-2.041c0.854-0.339,1.707-0.677,2.557-1.015
				c0.854-0.331,1.703-0.666,2.52-1.071c1.646-0.771,3.291-1.538,4.926-2.303c1.636-0.762,3.278-1.493,4.814-2.409
				c1.628-0.894,3.243-1.777,4.852-2.658c0.812-0.442,1.617-0.883,2.422-1.322l1.289-0.682l0.646-0.335l0.686-0.263l1.368-0.521
				c0.472-0.13,0.954-0.23,1.43-0.347l0.716-0.166l0.736-0.069c0.491-0.036,0.979-0.104,1.471-0.104
				c1.98,0.01,3.941,0.497,5.694,1.367c1.759,0.893,3.186,2.248,4.373,3.718c0.536,0.778,1.103,1.538,1.484,2.389
				c0.466,0.813,0.769,1.685,1.083,2.547c0.325,0.859,0.475,1.761,0.715,2.635c0.131,0.891,0.28,1.78,0.361,2.668
				c0.033,0.884,0.098,1.792,0.102,2.647c-0.004,0.852-0.007,1.699-0.009,2.545c-0.017,13.524-0.03,26.362-0.046,38.599
				c-0.007,24.472,0,46.539-0.202,66.885c-0.403,74.284-0.61,118.326-0.472,125.353l0.007,0.287l-0.3,0.012
				c-0.405,0.015-0.694,0.025-0.884,0.033c-0.198,0.01-0.284,0.019-0.284,0.026v0.006H862.589z"/>
		</g>
	</g>
</g>
<path id="path4764" stroke="#000000" stroke-width="0.25" stroke-miterlimit="10" d="M247.93-2375.951
	c-2.45-23.282-5.233-46.51-6.543-69.886c-0.364-25.062-0.628-50.134-1.283-75.239c-0.291-25.086-0.347-50.176,0.181-75.229
	c0.13-30.253,1.271-60.463,2.355-90.69c0.553-30.242,2-60.436,2.506-90.683c0.659-18.002,0.311-36.063,0.166-54.099
	c-0.336-18.045-0.283-36.038-1.352-54.068c-0.553-28.651-4.657-57.302-6.799-88.171l28.03,0.314
	c0.683,14.566,1.384,29.131,1.351,43.686c-0.364,28.529,1.083,57.16,0.56,85.68c-0.021,28.547-0.217,57.086-0.103,85.654
	c-1.014,30.994-0.679,62.076-1.498,93.095c-0.36,31.045-0.565,62.099-1.398,93.116c-0.207,21.163-0.56,42.318,0.439,63.534
	c-0.507,21.132,1.728,42.402,1.801,63.524c0.955,22.694,2.906,45.314,4.864,67.657L247.93-2375.951L247.93-2375.951z"/>
<path id="path4766" stroke="#000000" stroke-width="0.25" stroke-miterlimit="10" d="M561.369-2345.951
	c-2.45-23.282-5.233-46.51-6.543-69.886c-0.364-25.062-0.628-50.134-1.282-75.239c-0.292-25.086-0.347-50.176,0.18-75.229
	c0.13-30.253,1.271-60.463,2.356-90.69c0.553-30.242,2-60.436,2.506-90.683c0.66-18.002,0.311-36.063,0.167-54.099
	c-0.337-18.045-0.284-36.038-1.352-54.068c-0.554-28.651-4.656-57.302-6.798-88.171l28.028,0.314
	c0.685,14.566,1.384,29.131,1.353,43.686c-0.364,28.529,1.083,57.16,0.56,85.68c-0.021,28.547-0.217,57.086-0.102,85.654
	c-1.016,30.994-0.681,62.076-1.498,93.095c-0.36,31.045-0.565,62.099-1.398,93.116c-0.207,21.163-0.559,42.318,0.44,63.534
	c-0.508,21.132,1.728,42.402,1.801,63.524c0.955,22.694,2.906,45.314,4.864,67.657L561.369-2345.951L561.369-2345.951z"/>
</svg>
