<?xml version="1.0" encoding="utf-8"?>
<!-- Generator: Adobe Illustrator 16.0.1, SVG Export Plug-In . SVG Version: 6.00 Build 0)  -->
<!DOCTYPE svg PUBLIC "-//W3C//DTD SVG 1.1//EN" "http://www.w3.org/Graphics/SVG/1.1/DTD/svg11.dtd">
<svg version="1.1"
	 id="Layer_1" xmlns:dc="http://purl.org/dc/elements/1.1/" xmlns:cc="http://creativecommons.org/ns#" xmlns:rdf="http://www.w3.org/1999/02/22-rdf-syntax-ns#" xmlns:svg="http://www.w3.org/2000/svg"
	 xmlns="http://www.w3.org/2000/svg" xmlns:xlink="http://www.w3.org/1999/xlink" x="0px" y="0px" width="1080.219px"
	 height="678.675px" viewBox="-334.379 -1999.198 1080.219 678.675" enable-background="new -334.379 -1999.198 1080.219 678.675"
	 xml:space="preserve">
<g id="g3">
	<g>
		<g>
			<defs>
				<path id="SVGID_1_" d="M-296.939-1969.562c-5.529,3.317,25.441,463.445,68.576,499.95c0,0,22.117,13.271,140.469,68.574
					c118.357,55.315,307.498,86.286,414.787,54.208c107.293-32.082,361.697-165.917,380.498-192.467
					c0,0-81.846-40.927-134.941-212.367c-3.322-4.431-51.984-197.996-51.984-197.996s-96.229,46.459-99.555,48.675
					c-3.314,2.207-203.52,78.531-206.836,78.531c-3.316,0-147.105,8.845-147.105,8.845l-143.791-39.817l-181.402-97.342
					L-296.939-1969.562L-296.939-1969.562z"/>
			</defs>
			<clipPath id="SVGID_2_">
				<use xlink:href="#SVGID_1_"  overflow="visible"/>
			</clipPath>
			<rect id="rect11" x="-318.839" y="-1970.688" clip-path="url(#SVGID_2_)" fill="#FFFFFF" width="1027.149" height="320"/>
		</g>
	</g>
	<g>
		<g>
			<defs>
				<path id="SVGID_3_" d="M-296.939-1969.562c-5.529,3.317,25.441,463.445,68.576,499.95c0,0,22.117,13.271,140.469,68.574
					c118.357,55.315,307.498,86.286,414.787,54.208c107.293-32.082,361.697-165.917,380.498-192.467
					c0,0-81.846-40.927-134.941-212.367c-3.322-4.431-51.984-197.996-51.984-197.996s-96.229,46.459-99.555,48.675
					c-3.314,2.207-203.52,78.531-206.836,78.531c-3.316,0-147.105,8.845-147.105,8.845l-143.791-39.817l-181.402-97.342
					L-296.939-1969.562L-296.939-1969.562z"/>
			</defs>
			<clipPath id="SVGID_4_">
				<use xlink:href="#SVGID_3_"  overflow="visible"/>
			</clipPath>
			<rect id="rect13" x="-318.839" y="-1650.688" clip-path="url(#SVGID_4_)" fill="#D42E27" width="1027.149" height="320"/>
		</g>
	</g>
	<g>
		<g>
			<defs>
				<path id="SVGID_5_" d="M-296.939-1969.562c-5.529,3.317,25.441,463.445,68.576,499.95c0,0,22.117,13.271,140.469,68.574
					c118.357,55.315,307.498,86.286,414.787,54.208c107.293-32.082,361.697-165.917,380.498-192.467
					c0,0-81.846-40.927-134.941-212.367c-3.322-4.431-51.984-197.996-51.984-197.996s-96.229,46.459-99.555,48.675
					c-3.314,2.207-203.52,78.531-206.836,78.531c-3.316,0-147.105,8.845-147.105,8.845l-143.791-39.817l-181.402-97.342
					L-296.939-1969.562L-296.939-1969.562z"/>
			</defs>
			<clipPath id="SVGID_6_">
				<use xlink:href="#SVGID_5_"  overflow="visible"/>
			</clipPath>
			<rect id="rect15" x="-318.839" y="-1757.355" clip-path="url(#SVGID_6_)" fill="#1E429B" width="1027.149" height="213.334"/>
		</g>
	</g>
	<g>
		<g>
			<defs>
				<path id="SVGID_7_" d="M-296.939-1969.562c-5.529,3.317,25.441,463.445,68.576,499.95c0,0,22.117,13.271,140.469,68.574
					c118.357,55.315,307.498,86.286,414.787,54.208c107.293-32.082,361.697-165.917,380.498-192.467
					c0,0-81.846-40.927-134.941-212.367c-3.322-4.431-51.984-197.996-51.984-197.996s-96.229,46.459-99.555,48.675
					c-3.314,2.207-203.52,78.531-206.836,78.531c-3.316,0-147.105,8.845-147.105,8.845l-143.791-39.817l-181.402-97.342
					L-296.939-1969.562L-296.939-1969.562z"/>
			</defs>
			<clipPath id="SVGID_8_">
				<use xlink:href="#SVGID_7_"  overflow="visible"/>
			</clipPath>
			<path id="path17" clip-path="url(#SVGID_8_)" stroke="#000000" stroke-width="0.25" stroke-miterlimit="10" d="M626.036-1745.337
				c-36.896,1.686-73.693,3.706-110.775,4.247c-39.791-0.463-79.6-1.026-119.451-1.2c-39.832-0.537-79.674-1.31-119.48-2.666
				c-48.053-1.13-96.068-3.271-144.111-5.355c-48.047-1.554-96.047-4.001-144.102-5.506c-28.613-1.256-57.285-1.503-85.924-1.954
				c-28.648-0.259-57.227-0.906-85.826-0.432c-45.484-0.393-90.852,2.772-139.807,3.898l-0.424-28.071
				c23.111-0.203,46.221-0.424,69.334,0.09c45.32,1.307,90.742,0.803,136.055,2.27c45.34,0.964,90.67,2.103,136.039,2.932
				c49.256,2.04,98.611,2.731,147.9,4.576c49.316,1.386,98.641,2.617,147.932,4.477c33.617,0.906,67.229,1.958,100.891,1.658
				c33.576,1.206,67.285-0.33,100.828,0.294c36.01-0.207,71.871-1.414,107.291-2.638L626.036-1745.337L626.036-1745.337z"/>
		</g>
	</g>
	<g>
		<g>
			<defs>
				<path id="SVGID_9_" d="M-296.939-1969.562c-5.529,3.317,25.441,463.445,68.576,499.95c0,0,22.117,13.271,140.469,68.574
					c118.357,55.315,307.498,86.286,414.787,54.208c107.293-32.082,361.697-165.917,380.498-192.467
					c0,0-81.846-40.927-134.941-212.367c-3.322-4.431-51.984-197.996-51.984-197.996s-96.229,46.459-99.555,48.675
					c-3.314,2.207-203.52,78.531-206.836,78.531c-3.316,0-147.105,8.845-147.105,8.845l-143.791-39.817l-181.402-97.342
					L-296.939-1969.562L-296.939-1969.562z"/>
			</defs>
			<clipPath id="SVGID_10_">
				<use xlink:href="#SVGID_9_"  overflow="visible"/>
			</clipPath>
			<path id="path19" clip-path="url(#SVGID_10_)" stroke="#000000" stroke-width="0.25" stroke-miterlimit="10" d="M714-1523.086
				c-40.294,1.494-80.483,3.324-120.989,3.674c-43.47-0.67-86.96-1.44-130.495-1.82c-43.516-0.744-87.043-1.725-130.537-3.287
				c-52.499-1.38-104.96-3.771-157.455-6.105c-52.495-1.803-104.943-4.5-157.446-6.255c-31.263-1.405-62.586-1.801-93.873-2.401
				c-31.297-0.407-62.519-1.203-93.759-0.877c-49.689-0.629-99.232,2.303-152.705,3.175l-0.608-28.082
				c25.246-0.083,50.489-0.184,75.741,0.45c49.515,1.542,99.131,1.273,148.638,2.976c49.534,1.2,99.059,2.573,148.625,3.639
				c53.818,2.296,107.737,3.244,161.59,5.345c53.881,1.643,107.769,3.13,161.625,5.246c36.729,1.081,73.448,2.308,110.221,2.182
				c36.685,1.381,73.5,0.02,110.146,0.818c39.336-0.021,78.505-1.042,117.191-2.082L714-1523.086L714-1523.086z"/>
		</g>
	</g>
</g>
<path id="path737" d="M518.071-1933.527c-21.998,12.327-41.246,23.783-61.416,34.222c-17.412,9.004-35.746,17.018-53.916,25.167
	c-22.541,10.094-45.566,19.582-67.951,29.87c-27.553,12.677-56.064,24.298-86.479,31.969c-20.141,5.086-41.223,9.531-63.201,10.297
	c-23.225,0.812-46.383,2.913-69.541,4.633c-27.16,2.007-53.307-1.278-78.873-7.941c-27.977-7.278-56.012-14.445-83.816-22.071
	c-7.889-2.158-15.352-5.428-22.564-8.73c-15.123-6.905-30.008-14.117-44.896-21.322c-13.814-6.683-27.947-13.062-41.137-20.385
	c-15.537-8.638-30.221-18.154-45.283-27.269c-7.574-4.596-15.293-9.056-22.742-13.762c-13.188-8.326-26.154-16.862-39.359-25.175
	c-6.406-4.044-13.164-7.774-21.715-12.803c-1.057,5.14-2.461,8.723-2.408,12.284c0.193,13.048,0.631,26.095,1.426,39.119
	c1.643,27.337,3.133,54.681,5.547,81.974c1.375,15.537,4.291,31.002,6.816,46.473c2.328,14.192,4.893,28.378,7.674,42.527
	c1.539,7.851,3.814,15.619,5.65,23.446c5.74,24.432,11.648,48.838,17.07,73.312c5.494,24.771,10.109,49.663,15.916,74.397
	c1.955,8.319,5.688,16.519,9.881,24.386c3.881,7.278,2.959,14.027-2.387,20.013c-2.668,2.989-8.594,4.334-15.047,7.375
	c0.141,1.979-0.521,5.889,0.877,9.331c2.773,6.809,1.783,12.905-5.418,17.358c-8.402,5.197-18.098,3.167-26.426-0.193
	c-7.828-3.145-13.723-7.529-13.225-15.693c1.309-21.196-5.42-41.753-10.787-62.369c-10.588-40.659-18.602-81.601-24.609-122.787
	c-5.916-40.578-8.773-81.252-10.154-122.031c-1.473-43.507-3.539-87.006-5.635-130.504c-0.461-9.539-0.895-19.258-3.645-28.498
	c-2.586-8.705,2.564-13.865,9.783-19.076c2.098-1.518,5.391-2.93,5.875-4.729c1.537-5.814,7.287-8.683,13.439-8.475
	c5.764,0.199,12.336,2.594,16.775,5.523c8.549,5.664,15.715,12.467,23.672,18.646c25.938,20.147,54.561,38.063,82.773,56.367
	c38.154,24.751,81.238,43.806,124.619,62.511c12.615,5.442,27.336,8.179,41.164,12.015c10.691,2.973,21.648,5.45,32.199,8.668
	c25.656,7.821,51.803,11.226,79.668,8.616c29.887-2.802,60.1-3.613,89.979-6.416c21.51-2.016,42.445-6.72,61.959-14.035
	c23.889-8.943,47.561-18.224,71.055-27.74c14.17-5.738,27.896-12.116,41.676-18.377c24.668-11.203,49.971-21.738,73.631-34.035
	c23.674-12.304,45.738-26.348,68.297-39.842c2.811-1.672,4.252-4.624,6.379-6.965c4.395-4.832,8.318-6.225,15.104-3.511
	c18.604,7.457,30.051,14.735,29.709,30.913c-0.371,17.412,3.229,34.876,5.168,52.303c2.4,21.553,4.646,43.119,7.412,64.65
	c1.383,10.749,3.42,21.484,5.799,32.146c2.641,11.859,4.908,23.873,9.316,35.389c6.766,17.657,14.029,35.329,23.254,52.331
	c11.338,20.893,24.572,41.227,37.68,61.552c6.037,9.374,13.062,18.489,20.898,27.075c4.146,4.544,10.822,7.859,16.697,11.412
	c3.924,2.381,8.568,4.083,12.652,6.336c7.15,3.933,13.195,8.69,10.729,15.991c-2.4,7.1-10.043,10.929-18.756,12.966
	c-10.693,2.497-20.535,0.586-27.102-6.468c-14.051-15.094-29.27-29.79-40.92-45.901c-16.957-23.441-32.213-47.67-46.34-72.168
	c-17.174-29.796-30.867-60.501-35.641-93.108c-1.846-12.616-6.092-25.04-7.764-37.657c-1.666-12.601-1.041-25.354-2.229-37.998
	c-1.229-12.956-3.568-25.855-5.152-38.8c-0.49-4.038,0.061-8.133-0.186-12.193C519.312-1923.371,518.696-1927.728,518.071-1933.527
	L518.071-1933.527z"/>
<path id="path739" d="M741.137-1530.211c-16.914-1.033-28.191,7.092-39.654,13.648c-24.23,13.851-47.258,28.854-71.037,43.151
	c-23.783,14.304-47.574,28.63-71.943,42.368c-26.764,15.101-53.633,30.178-81.504,44.088c-30.305,15.121-60.51,30.525-94.086,41.58
	c-33.715,11.108-69.125,17.382-105.42,21.1c-16.371,1.672-32.936,4.104-49.291,3.711c-32.49-0.789-65.365,0.609-97.162-6.752
	c-8.824-2.044-18.281-2.506-27.336-4.074c-6.521-1.137-12.893-2.84-19.271-4.416c-14.877-3.665-29.812-7.225-44.539-11.203
	c-7.057-1.904-13.65-4.735-20.535-7.011c-19.322-6.387-38.979-12.244-57.945-19.166c-25.744-9.392-51.016-19.5-74.664-31.73
	c-13.91-7.189-28.244-13.91-42.133-21.122c-10.414-5.405-20.109-11.627-30.711-16.81c-9.078-4.438-19.055-7.821-28.518-11.837
	c-5.102-2.17-12.326-3.842-14.426-7.201c-3.82-6.128-6.363-13.384-6.102-20.098c0.334-8.824,18.369-12.712,28.213-6.609
	c4.209,2.611,7.992,5.613,11.77,8.58c13.531,10.639,29.389,19.047,45.551,27.219c8.373,4.223,16.246,9.002,24.408,13.469
	c19.842,10.855,39.945,21.197,62.16,29.472c13.174,4.907,26.703,9.392,39.523,14.588c19.432,7.88,39.445,14.668,59.764,20.765
	c17.547,5.271,36.303,8.289,54.592,12.125c8.967,1.881,18.088,3.316,27.123,5.003c36.221,6.751,72.969,6.498,109.91,5.211
	c26.877-0.929,53.023-4.787,78.984-9.448c28.645-5.137,55.729-13.776,81.199-24.631c42.793-18.229,83.541-38.875,122.729-61.268
	c30.682-17.523,62.182-34.25,92.647-51.976c18.778-10.929,36.243-23.105,54.392-34.638c8.729-5.538,17.74-10.838,26.48-16.361
	c4.188-2.648,8.262-5.428,12.027-8.395c9.465-7.457,16.758-7.725,27.168-0.982c3.189,2.067,6.795,3.784,10.334,5.524
	C747.055-1547.824,749.151-1541.712,741.137-1530.211L741.137-1530.211z"/>
</svg>
