<?xml version="1.0" encoding="utf-8"?>
<!-- Generator: Adobe Illustrator 16.0.1, SVG Export Plug-In . SVG Version: 6.00 Build 0)  -->
<!DOCTYPE svg PUBLIC "-//W3C//DTD SVG 1.1//EN" "http://www.w3.org/Graphics/SVG/1.1/DTD/svg11.dtd">
<svg version="1.1" id="Layer_1" xmlns="http://www.w3.org/2000/svg" xmlns:xlink="http://www.w3.org/1999/xlink" x="0px" y="0px"
	 width="960.25px" height="706.127px" viewBox="0 0 960.25 706.127" enable-background="new 0 0 960.25 706.127"
	 xml:space="preserve">
<g>
	<defs>
		<path id="SVGID_1_" d="M931.246,25.977c-4.791,2.288-7.632,3.777-10.575,5.018c-8.961,3.757-17.723,8.286-26.967,10.905
			c-14.737,4.164-30.062,6.136-44.689,10.616c-27.814,8.521-55.14,18.791-82.988,27.167c-27.85,8.375-55.892,16.323-84.23,22.609
			c-26.05,5.784-52.527,12.14-78.936,12.843c-43.614,1.165-87.422-0.469-130.933-3.964c-25.719-2.061-51.604-7.92-76.351-15.717
			c-34.749-10.939-68.905-24.678-105.192-27.966c-39.416-3.571-79.053-4.729-118.62-5.825c-19.584-0.538-39.754-1.248-58.725,2.854
			c-27.87,6.012-54.851,7.452-81.887-1.93c-8.064-2.799-8.438,0.345-7.638,7.293c1.861,16.289,4.067,32.619,4.48,48.984
			c0.711,28.718,0.725,57.477,0.015,86.201c-0.745,30.316-2.854,60.6-4.047,90.909c-1.475,37.734-3.288,75.476-3.764,113.224
			c-0.627,50.866-0.275,101.745-0.027,152.618c0.104,23.3,0.972,46.593,1.523,71.236c7.417-2.082,12.925-4.798,18.516-4.998
			c24.65-0.903,49.425-2.646,73.979-1.172c46.412,2.792,92.881,6.204,139.018,11.974c36.955,4.633,73.559,12.615,110.142,20.039
			c35.908,7.286,71.299,18.916,107.495,22.817c37.183,4.005,75.172,2.695,112.631,0.496c34.611-2.033,69.078-7.631,103.428-12.932
			c39.03-6.025,77.405-15.166,115.505-26.381c43.317-12.746,87.504-22.328,129.602-39.402c2.861-1.158,6.479-4.061,7.038-6.77
			c1.192-5.68,0.985-11.795,0.642-17.682c-2.096-35.921-4.888-71.808-6.487-107.757c-1.386-31.006-2.02-62.081-2.067-93.122
			c-0.193-96.858,0.034-193.71,0.11-290.568C931.26,67.736,931.246,47.883,931.246,25.977z"/>
	</defs>
	<clipPath id="SVGID_2_">
		<use xlink:href="#SVGID_1_"  overflow="visible"/>
	</clipPath>
	
		<rect x="4.305" y="18.813" clip-path="url(#SVGID_2_)" fill-rule="evenodd" clip-rule="evenodd" fill="#FFFFFF" stroke="#000000" stroke-width="0.25" width="946.904" height="231.527"/>
	
		<rect x="4.305" y="248.813" clip-path="url(#SVGID_2_)" fill-rule="evenodd" clip-rule="evenodd" fill="#0060A9" stroke="#000000" stroke-width="0.25" width="946.904" height="211.527"/>
	
		<rect x="4.305" y="460.813" clip-path="url(#SVGID_2_)" fill-rule="evenodd" clip-rule="evenodd" fill="#ED1C2E" stroke="#000000" stroke-width="0.25" width="946.904" height="227.527"/>
</g>
<path fill-rule="evenodd" clip-rule="evenodd" stroke="#000000" stroke-width="0.25" stroke-miterlimit="10" d="M960.005,602.591
	c-2.344-42.353-5.37-84.698-6.425-127.086c-1.834-75.034-2.42-150.096-3.529-225.15c0.393-0.007,0.779-0.007,1.158-0.014
	c0-77.915,0.027-155.824-0.014-233.739c-0.007-13.318-9.816-20.646-20.742-13.967c-23.327,14.235-49.081,19.66-74.738,26.657
	c-48.632,13.249-96.431,29.854-145.07,43.049c-34.329,9.319-69.209,19.163-104.338,21.817c-42.049,3.185-84.705,0.593-126.893-2.626
	c-26.194-2.006-53.285-6.211-77.743-15.669c-89.53-34.625-181.847-38.23-275.375-32.04c-32.254,2.137-64.232,11.05-96.604-1.075
	c-11.243-4.212-20.46,4.204-21.756,16.806c-0.992,9.72-2.123,19.708-1.075,29.331c4.904,45.575,2.815,91.109,1.085,136.689
	c-1.57-0.034-3.141-0.069-4.71-0.104l4.152,15.391C5.008,307.938,2.84,375.032,1.285,442.135
	c-1.041,44.889-1.552,89.813-0.807,134.702c0.386,23.355,3.164,46.785,6.479,69.927c1.834,12.862,13.366,17.109,22.665,8.733
	c8.824-7.934,18.364-9.285,29.021-8.81c47.371,2.116,94.783,3.385,142.1,6.418c57.752,3.708,114.602,13.772,170.879,28.221
	c35.114,9.017,70.719,17.337,106.592,21.576c66.279,7.838,132.229-0.461,197.859-10.767c49.48-7.77,98.293-18.44,146.264-33.433
	c40.753-12.726,81.775-24.485,122.611-36.935C958.991,617.494,960.666,614.475,960.005,602.591z M23.964,295.975
	c0.579-14.731,1.375-29.458,2.126-44.184c35.23-0.931,70.454-3.541,105.584-2.304c44.444,2.131,88.879,10.035,133.135,11.014
	c26.856,0.505,53.721,0.114,80.534,0.461c26.857-0.083,53.712-0.171,80.524,0.201c26.888-0.916,53.711-0.838,80.533-0.639
	c26.882-0.765,53.681-0.067,80.528,0.107c29.33-0.726,58.604-0.017,87.98-0.051c29.394-0.514,58.822-0.787,88.349,0.137
	c29.531,0.11,59.219-0.117,89.057-0.051c26.111,0.065,52.344,0.166,78.764,0.219c-0.021,39.093-0.021,78.186,0.058,117.278
	c0.042,27.258,0.536,54.541,1.595,81.781c-29.895,1.004-60.063,1.887-90.341,2.061c-33.542-0.624-67.252,0.912-100.828-0.294
	c-33.662,0.3-67.271-0.752-100.888-1.658c-49.291-1.859-98.615-3.091-147.932-4.477c-49.29-1.845-98.645-2.536-147.9-4.576
	c-45.369-0.829-90.699-1.968-136.039-2.932c-45.312-1.467-90.734-0.963-136.055-2.27c-17.615-0.392-35.229-0.355-52.841-0.227
	c0.053-12.126,0.144-24.251,0.293-36.375C20.676,371.45,22.489,333.709,23.964,295.975z M27.996,118.864
	c-0.413-16.365-2.619-32.695-4.48-48.984c-0.8-6.948-0.427-10.092,7.638-7.293c27.036,9.382,54.017,7.941,81.887,1.93
	c18.971-4.102,39.141-3.392,58.725-2.854c39.567,1.096,79.204,2.254,118.62,5.825c36.287,3.288,70.443,17.026,105.192,27.966
	c24.747,7.797,50.632,13.656,76.351,15.717c43.511,3.495,87.318,5.129,130.933,3.964c26.408-0.703,52.886-7.059,78.936-12.843
	c28.339-6.286,56.381-14.234,84.23-22.609c27.849-8.376,55.174-18.646,82.988-27.167c14.628-4.48,29.952-6.452,44.689-10.616
	c9.244-2.619,18.006-7.148,26.967-10.905c2.943-1.24,5.784-2.729,10.575-5.018c0,21.906,0.014,41.76,0,61.619
	c-0.039,50.454-0.117,100.907-0.158,151.359c-14.466,2.028-38.769,0.517-79.217-2.745c-29.281,0.112-66.584-0.131-107.997,0.813
	c-41.372,0.554-86.779,0.952-132.183,0.054c-35.599-0.2-71.213-0.605-106.836-0.847c-35.618-0.288-71.222-1.619-106.853-1.638
	c-35.59-1.123-71.212-1.289-106.854-1.641c-35.613-1.048-71.254-0.812-106.868-1.859c-30.184-0.11-60.336-2.355-90.526-2.933
	c-22.156-0.981-44.314-1.619-66.454-2.147c0.289-6.98,0.538-13.963,0.71-20.947C28.721,176.341,28.707,147.582,27.996,118.864z
	 M939.049,596.725c-0.559,2.709-4.177,5.611-7.038,6.77c-42.098,17.074-86.284,26.656-129.602,39.402
	c-38.1,11.215-76.475,20.355-115.505,26.381c-34.35,5.301-68.816,10.898-103.428,12.932c-37.459,2.199-75.448,3.509-112.631-0.496
	c-36.196-3.901-71.587-15.531-107.495-22.817c-36.583-7.424-73.187-15.406-110.142-20.039c-46.137-5.77-92.605-9.182-139.018-11.974
	c-24.555-1.475-49.329,0.269-73.979,1.172c-5.591,0.2-11.099,2.916-18.516,4.998c-0.552-24.644-1.42-47.937-1.523-71.236
	c-0.144-29.491-0.317-58.984-0.319-88.477c42.91-1.341,83.308-3.807,123.791-3.457c28.599-0.475,57.178,0.173,85.826,0.432
	c28.639,0.451,57.311,0.698,85.924,1.954c48.054,1.505,96.054,3.952,144.102,5.506c48.043,2.085,96.059,4.226,144.11,5.355
	c39.81,1.356,79.65,2.129,119.483,2.666c39.852,0.174,79.659,0.737,119.45,1.2c30.542-0.445,60.893-1.895,91.262-3.334
	c1.636,31.812,4.033,63.583,5.889,95.381C940.034,584.93,940.241,591.045,939.049,596.725z"/>
<g>
	<path fill="#ED1C2E" d="M179.773,159.732c23.479,0,57.277,6.327,81.254,17.983c0,0,0.016,0-4.663,76.591
		c-2.663,43.625-20.646,79.921-76.591,97.238c-55.944-17.317-73.925-53.613-76.592-97.238c-4.675-76.591-4.662-76.591-4.662-76.591
		C122.496,166.06,156.298,159.732,179.773,159.732z"/>
	<path fill="#006BB6" d="M179.773,159.732c21.482,0,51.73,5.381,75.062,15.21c0,0,0.156-1.018-4.754,78.239
		c-2.672,43.108-19.476,75.284-70.309,91.704c-50.826-16.42-67.633-48.596-70.303-91.704c-4.916-79.257-4.76-78.239-4.76-78.239
		C128.043,165.113,158.295,159.732,179.773,159.732z"/>
	<g>
		<path fill="#FFFFFF" d="M179.773,306.772c10.072,0,10.072-5.096,19.918-5.096s9.846,5.096,19.918,5.096
			c3.799,0,6.165-0.706,8.168-1.609c1.736-2.465,3.311-4.991,4.715-7.599c-3.824,1.509-6.002,3.882-12.883,3.882
			c-10.072,0-10.072-5.099-19.918-5.099s-9.846,5.099-19.918,5.099c-10.073,0-10.073-5.099-19.918-5.099
			c-9.846,0-9.846,5.099-19.919,5.099c-6.877,0-9.056-2.373-12.882-3.882c1.41,2.607,2.979,5.134,4.715,7.599
			c2.002,0.903,4.369,1.609,8.167,1.609c10.073,0,10.073-5.096,19.919-5.096C169.7,301.677,169.7,306.772,179.773,306.772z"/>
		<path fill="#FFFFFF" d="M179.773,338.227c19.174-6.451,32.931-15.451,42.633-26.278c-0.846,0.098-1.76,0.153-2.797,0.153
			c-10.072,0-10.072-5.096-19.918-5.096s-9.846,5.096-19.918,5.096c-10.073,0-10.073-5.096-19.918-5.096
			c-9.846,0-9.846,5.096-19.919,5.096c-1.034,0-1.95-0.056-2.796-0.153C146.843,322.775,160.603,331.775,179.773,338.227z"/>
		<path fill="#FFFFFF" d="M179.773,296.117c10.072,0,10.072-5.095,19.918-5.095s9.846,5.095,19.918,5.095
			c5.453,0,10.75-2.299,13.8-5.346c4.568-4.568,5.931-8.743,7.013-14.511L210.1,239.344l-12.131,14.759l-18.195-33.991
			l-18.195,33.991l-12.128-14.759l-30.323,36.917c1.08,5.768,2.445,9.942,7.01,14.511c3.051,3.047,8.351,5.346,13.8,5.346
			c10.073,0,10.073-5.095,19.919-5.095C169.7,291.022,169.7,296.117,179.773,296.117z"/>
	</g>
	<g>
		<polygon fill="#FFF200" points="201.422,185.038 203.691,180.359 208.893,180.733 205.954,176.383 208.893,172.032 
			203.691,172.406 201.422,167.728 199.146,172.406 193.943,172.032 196.886,176.383 193.943,180.733 199.146,180.359 		"/>
		<polygon fill="#FFF200" points="158.129,185.038 155.855,180.359 150.653,180.733 153.593,176.383 150.653,172.032 
			155.855,172.406 158.129,167.728 160.401,172.406 165.604,172.032 162.664,176.383 165.604,180.733 160.401,180.359 		"/>
		<polygon fill="#FFF200" points="179.773,211.167 177.5,206.491 172.301,206.862 175.24,202.512 172.301,198.161 177.5,198.538 
			179.773,193.856 182.049,198.538 187.248,198.161 184.309,202.512 187.248,206.862 182.049,206.491 		"/>
	</g>
</g>
</svg>
