<?xml version="1.0" encoding="utf-8"?>
<!-- Generator: Adobe Illustrator 16.0.1, SVG Export Plug-In . SVG Version: 6.00 Build 0)  -->
<!DOCTYPE svg PUBLIC "-//W3C//DTD SVG 1.1//EN" "http://www.w3.org/Graphics/SVG/1.1/DTD/svg11.dtd">
<svg version="1.1" id="Layer_1" xmlns="http://www.w3.org/2000/svg" xmlns:xlink="http://www.w3.org/1999/xlink" x="0px" y="0px"
	 width="960px" height="705px" viewBox="0 0 960 705" enable-background="new 0 0 960 705" xml:space="preserve">
<path d="M35.646,96.398c-2.546-0.696-3.457-1.199-4.354-1.158c-19.4,0.803-25.388-4.043-30.314-24.607
	c-3.075-12.831,1.075-21.122,12.868-23.252c29-5.238,58.076-9.91,87.135-14.719c22.407-3.693,44.789-7.719,67.266-10.738
	c24.305-3.246,48.675-5.887,73.062-8.072c42.51-3.812,85.001-8.572,127.597-10.205c61.536-2.359,123.154-2.381,184.73-3.201
	c25.123-0.34,50.271-0.775,75.377-0.06c43.562,1.249,87.103,3.548,130.662,4.905c7.385,0.221,15.001-1.297,22.2-3.404
	c8.071-2.351,15.235-1.616,23.468,0.521c14.604,3.809,29.828,4.972,44.849,6.055c6.906,0.492,13.348,0.105,17.344,7.805
	c5.261,10.146,11.731,20.041,8.488,32.847c-2.179,8.616-8.982,12.688-17.873,11.636c-7.933-0.93-15.857-1.818-24.585-2.805
	c-0.545,4.506-1.588,7.639-1.159,10.484c11.1,73.301,10.894,147.498,14.489,221.428c3.016,62.114,6.745,124.382,18.881,185.451
	c4.263,21.452,8.009,43.037,11.921,64.591c1.391,7.659,4.74,13.5,10.062,18.752c9.589,9.47,15.206,21.464,14.488,36.549
	c-1.288,27.064-0.622,34.967,29.967,30.77c4.379-0.601,9.771,0.05,13.406,2.533c8.121,5.543,16.121,32.314,14.048,43.303
	c-1.998,10.562-10.904,18.162-19.847,14.886c-10.163-3.713-21.406-1.405-31.049-9.373c-4.202-3.481-11.948-1.508-18.098-1.896
	c-14.123-0.889-28.256-1.836-42.397-2.515c-22.2-1.044-44.412-1.913-66.63-2.823c-46.864-1.908-93.729-5.104-140.61-5.32
	c-53.482-0.262-107.015,1.172-160.454,3.704c-40.161,1.905-80.236,6.512-120.321,10.3c-35.883,3.387-71.764,6.945-107.585,11.105
	c-24.49,2.844-48.845,7.127-73.329,10.164c-11.657,1.45-23.464,1.314-35.198,2.243c-8.42,0.669-16.806,2.65-25.219,2.719
	c-16.701,0.138-21.723-5.067-26.092-22.708c-9.746-39.309-18.457-78.84-22.582-119.479c-1.681-16.521-3.038-33.08-4.48-49.629
	c-0.233-2.668-0.02-5.376-0.173-8.058c-3.177-52.43-6.49-104.832-9.512-157.275c-2.681-46.559-4.406-93.196-7.713-139.701
	c-2.39-33.658-6.624-67.162-10.169-100.723C37.834,103.808,36.578,100.307,35.646,96.398z M850.869,621.701
	c-0.557-4.93-0.65-8.084-1.293-11.072c-6.736-31.288-14.882-62.277-20.084-93.887c-9.196-55.915-18.393-111.888-21.169-168.91
	c-2.647-54.086-6.099-108.122-9.267-162.17c-2.354-40.148-3.383-80.47-13.038-119.633c-3.655-14.836-5.38-16.98-19.352-17.775
	c-10.4-0.6-20.834-0.428-31.246-1.044c-31.185-1.858-62.354-5.089-93.563-5.667c-51.611-0.979-103.249-0.6-154.869-0.234
	c-36.455,0.271-72.91,1.189-109.349,2.361c-23.662,0.773-47.384,1.585-70.938,4.06c-31.1,3.271-62.114,7.738-93.068,12.517
	c-39.854,6.131-79.622,12.98-119.397,19.75C82.433,82.01,81.674,83.711,83.28,96.77c0.648,5.308,1.171,10.656,1.485,16.006
	c1.494,25.146,2.921,50.305,4.346,75.449c2.434,42.81,5.057,85.619,7.217,128.443c1.494,29.473,1.725,59.041,3.639,88.463
	c3.201,49.179,6.712,98.361,11.305,147.399c1.811,19.321,3.127,39.383,16.457,55.205c3.986,4.74,4.105,13.81,5.6,21.009
	c1.034,4.971,1.377,10.116,1.956,14.643c9.257,0.842,16.787,2.341,24.269,2.071c24.586-0.892,49.171-2.013,73.711-3.794
	c39.668-2.853,79.281-6.441,118.938-9.467c40.152-3.064,80.297-6.763,120.508-8.476c55.404-2.348,110.859-3.548,166.297-4.399
	c39.313-0.601,78.653-0.133,117.979,0.504c26.513,0.426,53.011,2.053,79.527,2.949C841.029,622.93,845.557,622.127,850.869,621.701z
	"/>
<g>
	<g>
		<defs>
			<path id="SVGID_1_" d="M850.869,621.701c-5.312,0.426-9.84,1.229-14.355,1.074c-26.518-0.896-53.016-2.523-79.527-2.949
				c-39.326-0.637-78.666-1.104-117.979-0.504c-55.438,0.853-110.893,2.053-166.297,4.399c-40.211,1.713-80.354,5.41-120.508,8.476
				c-39.656,3.024-79.27,6.614-118.938,9.467c-24.54,1.781-49.125,2.902-73.711,3.794c-7.481,0.27-15.012-1.229-24.269-2.071
				c-0.579-4.525-0.922-9.672-1.956-14.643c-1.494-7.199-1.613-16.269-5.6-21.009c-13.33-15.822-14.646-35.884-16.457-55.205
				c-4.593-49.038-8.104-98.222-11.305-147.399c-1.914-29.422-2.145-58.99-3.639-88.463c-2.16-42.824-4.783-85.634-7.217-128.443
				c-1.425-25.145-2.852-50.303-4.346-75.449c-0.314-5.35-0.837-10.698-1.485-16.006c-1.606-13.059-0.848-14.76,10.957-16.773
				c39.775-6.77,79.544-13.619,119.397-19.75c30.954-4.778,61.969-9.246,93.068-12.517c23.554-2.475,47.274-3.286,70.938-4.06
				c36.438-1.172,72.894-2.091,109.349-2.361c51.62-0.365,103.258-0.744,154.869,0.234c31.21,0.578,62.38,3.809,93.563,5.667
				c10.412,0.616,20.846,0.444,31.246,1.044c13.972,0.795,15.695,2.939,19.352,17.775c9.655,39.163,10.684,79.484,13.038,119.633
				c3.168,54.048,6.618,108.084,9.267,162.17c2.776,57.023,11.973,112.995,21.169,168.91c5.202,31.608,13.348,62.599,20.084,93.887
				C850.219,613.617,850.312,616.771,850.869,621.701z"/>
		</defs>
		<clipPath id="SVGID_2_">
			<use xlink:href="#SVGID_1_"  overflow="visible"/>
		</clipPath>
		<polygon clip-path="url(#SVGID_2_)" fill="#EF3824" points="890.268,210.008 878.363,0.63 36.852,62.018 48.755,271.384 		"/>
	</g>
	<g>
		<defs>
			<path id="SVGID_3_" d="M850.869,621.701c-5.312,0.426-9.84,1.229-14.355,1.074c-26.518-0.896-53.016-2.523-79.527-2.949
				c-39.326-0.637-78.666-1.104-117.979-0.504c-55.438,0.853-110.893,2.053-166.297,4.399c-40.211,1.713-80.354,5.41-120.508,8.476
				c-39.656,3.024-79.27,6.614-118.938,9.467c-24.54,1.781-49.125,2.902-73.711,3.794c-7.481,0.27-15.012-1.229-24.269-2.071
				c-0.579-4.525-0.922-9.672-1.956-14.643c-1.494-7.199-1.613-16.269-5.6-21.009c-13.33-15.822-14.646-35.884-16.457-55.205
				c-4.593-49.038-8.104-98.222-11.305-147.399c-1.914-29.422-2.145-58.99-3.639-88.463c-2.16-42.824-4.783-85.634-7.217-128.443
				c-1.425-25.145-2.852-50.303-4.346-75.449c-0.314-5.35-0.837-10.698-1.485-16.006c-1.606-13.059-0.848-14.76,10.957-16.773
				c39.775-6.77,79.544-13.619,119.397-19.75c30.954-4.778,61.969-9.246,93.068-12.517c23.554-2.475,47.274-3.286,70.938-4.06
				c36.438-1.172,72.894-2.091,109.349-2.361c51.62-0.365,103.258-0.744,154.869,0.234c31.21,0.578,62.38,3.809,93.563,5.667
				c10.412,0.616,20.846,0.444,31.246,1.044c13.972,0.795,15.695,2.939,19.352,17.775c9.655,39.163,10.684,79.484,13.038,119.633
				c3.168,54.048,6.618,108.084,9.267,162.17c2.776,57.023,11.973,112.995,21.169,168.91c5.202,31.608,13.348,62.599,20.084,93.887
				C850.219,613.617,850.312,616.771,850.869,621.701z"/>
		</defs>
		<clipPath id="SVGID_4_">
			<use xlink:href="#SVGID_3_"  overflow="visible"/>
		</clipPath>
		<polygon clip-path="url(#SVGID_4_)" fill="#FFE700" points="905.094,470.707 887.723,165.323 46.22,226.699 63.588,532.082 		"/>
	</g>
	<g>
		<defs>
			<path id="SVGID_5_" d="M850.869,621.701c-5.312,0.426-9.84,1.229-14.355,1.074c-26.518-0.896-53.016-2.523-79.527-2.949
				c-39.326-0.637-78.666-1.104-117.979-0.504c-55.438,0.853-110.893,2.053-166.297,4.399c-40.211,1.713-80.354,5.41-120.508,8.476
				c-39.656,3.024-79.27,6.614-118.938,9.467c-24.54,1.781-49.125,2.902-73.711,3.794c-7.481,0.27-15.012-1.229-24.269-2.071
				c-0.579-4.525-0.922-9.672-1.956-14.643c-1.494-7.199-1.613-16.269-5.6-21.009c-13.33-15.822-14.646-35.884-16.457-55.205
				c-4.593-49.038-8.104-98.222-11.305-147.399c-1.914-29.422-2.145-58.99-3.639-88.463c-2.16-42.824-4.783-85.634-7.217-128.443
				c-1.425-25.145-2.852-50.303-4.346-75.449c-0.314-5.35-0.837-10.698-1.485-16.006c-1.606-13.059-0.848-14.76,10.957-16.773
				c39.775-6.77,79.544-13.619,119.397-19.75c30.954-4.778,61.969-9.246,93.068-12.517c23.554-2.475,47.274-3.286,70.938-4.06
				c36.438-1.172,72.894-2.091,109.349-2.361c51.62-0.365,103.258-0.744,154.869,0.234c31.21,0.578,62.38,3.809,93.563,5.667
				c10.412,0.616,20.846,0.444,31.246,1.044c13.972,0.795,15.695,2.939,19.352,17.775c9.655,39.163,10.684,79.484,13.038,119.633
				c3.168,54.048,6.618,108.084,9.267,162.17c2.776,57.023,11.973,112.995,21.169,168.91c5.202,31.608,13.348,62.599,20.084,93.887
				C850.219,613.617,850.312,616.771,850.869,621.701z"/>
		</defs>
		<clipPath id="SVGID_6_">
			<use xlink:href="#SVGID_5_"  overflow="visible"/>
		</clipPath>
		<polygon clip-path="url(#SVGID_6_)" fill="#EF3824" points="914.152,630.08 905.058,470.384 63.562,531.764 72.641,691.457 		"/>
	</g>
	<g>
		<defs>
			<path id="SVGID_7_" d="M850.869,621.701c-5.312,0.426-9.84,1.229-14.355,1.074c-26.518-0.896-53.016-2.523-79.527-2.949
				c-39.326-0.637-78.666-1.104-117.979-0.504c-55.438,0.853-110.893,2.053-166.297,4.399c-40.211,1.713-80.354,5.41-120.508,8.476
				c-39.656,3.024-79.27,6.614-118.938,9.467c-24.54,1.781-49.125,2.902-73.711,3.794c-7.481,0.27-15.012-1.229-24.269-2.071
				c-0.579-4.525-0.922-9.672-1.956-14.643c-1.494-7.199-1.613-16.269-5.6-21.009c-13.33-15.822-14.646-35.884-16.457-55.205
				c-4.593-49.038-8.104-98.222-11.305-147.399c-1.914-29.422-2.145-58.99-3.639-88.463c-2.16-42.824-4.783-85.634-7.217-128.443
				c-1.425-25.145-2.852-50.303-4.346-75.449c-0.314-5.35-0.837-10.698-1.485-16.006c-1.606-13.059-0.848-14.76,10.957-16.773
				c39.775-6.77,79.544-13.619,119.397-19.75c30.954-4.778,61.969-9.246,93.068-12.517c23.554-2.475,47.274-3.286,70.938-4.06
				c36.438-1.172,72.894-2.091,109.349-2.361c51.62-0.365,103.258-0.744,154.869,0.234c31.21,0.578,62.38,3.809,93.563,5.667
				c10.412,0.616,20.846,0.444,31.246,1.044c13.972,0.795,15.695,2.939,19.352,17.775c9.655,39.163,10.684,79.484,13.038,119.633
				c3.168,54.048,6.618,108.084,9.267,162.17c2.776,57.023,11.973,112.995,21.169,168.91c5.202,31.608,13.348,62.599,20.084,93.887
				C850.219,613.617,850.312,616.771,850.869,621.701z"/>
		</defs>
		<clipPath id="SVGID_8_">
			<use xlink:href="#SVGID_7_"  overflow="visible"/>
		</clipPath>
		<path clip-path="url(#SVGID_8_)" fill="none" stroke="#000000" stroke-width="0.5" d="M914.381,629.732L878.61,0.619
			L36.852,62.018l35.773,629.109L914.381,629.732L914.381,629.732z"/>
	</g>
	<g>
		<defs>
			<path id="SVGID_9_" d="M850.869,621.701c-5.312,0.426-9.84,1.229-14.355,1.074c-26.518-0.896-53.016-2.523-79.527-2.949
				c-39.326-0.637-78.666-1.104-117.979-0.504c-55.438,0.853-110.893,2.053-166.297,4.399c-40.211,1.713-80.354,5.41-120.508,8.476
				c-39.656,3.024-79.27,6.614-118.938,9.467c-24.54,1.781-49.125,2.902-73.711,3.794c-7.481,0.27-15.012-1.229-24.269-2.071
				c-0.579-4.525-0.922-9.672-1.956-14.643c-1.494-7.199-1.613-16.269-5.6-21.009c-13.33-15.822-14.646-35.884-16.457-55.205
				c-4.593-49.038-8.104-98.222-11.305-147.399c-1.914-29.422-2.145-58.99-3.639-88.463c-2.16-42.824-4.783-85.634-7.217-128.443
				c-1.425-25.145-2.852-50.303-4.346-75.449c-0.314-5.35-0.837-10.698-1.485-16.006c-1.606-13.059-0.848-14.76,10.957-16.773
				c39.775-6.77,79.544-13.619,119.397-19.75c30.954-4.778,61.969-9.246,93.068-12.517c23.554-2.475,47.274-3.286,70.938-4.06
				c36.438-1.172,72.894-2.091,109.349-2.361c51.62-0.365,103.258-0.744,154.869,0.234c31.21,0.578,62.38,3.809,93.563,5.667
				c10.412,0.616,20.846,0.444,31.246,1.044c13.972,0.795,15.695,2.939,19.352,17.775c9.655,39.163,10.684,79.484,13.038,119.633
				c3.168,54.048,6.618,108.084,9.267,162.17c2.776,57.023,11.973,112.995,21.169,168.91c5.202,31.608,13.348,62.599,20.084,93.887
				C850.219,613.617,850.312,616.771,850.869,621.701z"/>
		</defs>
		<clipPath id="SVGID_10_">
			<use xlink:href="#SVGID_9_"  overflow="visible"/>
		</clipPath>
		<path clip-path="url(#SVGID_10_)" d="M873.076,181.301c-33.635,1.885-67.212,3.908-100.808,5.938
			c-34.609,2.09-69.236,4.157-103.803,6.383c-38.546,2.457-76.957,5.361-115.572,7.562c-68.846,3.919-137.809,7.441-206.712,11.184
			c-29.265,1.576-58.479,3.383-87.75,4.895c-26.319,1.373-52.724,2.358-79.017,3.751c-33.19,1.761-66.334,3.735-99.449,5.746
			c-4.372,0.271-8.571,1.178-12.742,1.915c-16.547,2.92-27.924-4.663-26.095-10.369c0.837-2.631,1.28-5.289,1.655-7.949
			c0.529-3.734,4.065-5.765,12.436-6.52c3.892-0.348,7.969-0.271,11.937-0.444c29.323-1.286,58.649-2.593,87.956-3.89
			c21.382-0.927,42.781-1.797,64.147-2.805c31.272-1.479,62.501-3.115,93.778-4.574c29.246-1.363,58.564-2.457,87.785-3.916
			c34.729-1.74,69.407-3.656,104.055-5.687c23.25-1.356,46.411-3.009,69.585-4.604c20.733-1.441,41.399-3.039,62.108-4.497
			c37.903-2.68,75.887-5.146,113.719-8.028c25.985-1.986,51.67-4.73,77.657-6.723c21.158-1.615,42.541-2.591,63.84-3.896"/>
	</g>
	<g>
		<defs>
			<path id="SVGID_11_" d="M850.869,621.701c-5.312,0.426-9.84,1.229-14.355,1.074c-26.518-0.896-53.016-2.523-79.527-2.949
				c-39.326-0.637-78.666-1.104-117.979-0.504c-55.438,0.853-110.893,2.053-166.297,4.399c-40.211,1.713-80.354,5.41-120.508,8.476
				c-39.656,3.024-79.27,6.614-118.938,9.467c-24.54,1.781-49.125,2.902-73.711,3.794c-7.481,0.27-15.012-1.229-24.269-2.071
				c-0.579-4.525-0.922-9.672-1.956-14.643c-1.494-7.199-1.613-16.269-5.6-21.009c-13.33-15.822-14.646-35.884-16.457-55.205
				c-4.593-49.038-8.104-98.222-11.305-147.399c-1.914-29.422-2.145-58.99-3.639-88.463c-2.16-42.824-4.783-85.634-7.217-128.443
				c-1.425-25.145-2.852-50.303-4.346-75.449c-0.314-5.35-0.837-10.698-1.485-16.006c-1.606-13.059-0.848-14.76,10.957-16.773
				c39.775-6.77,79.544-13.619,119.397-19.75c30.954-4.778,61.969-9.246,93.068-12.517c23.554-2.475,47.274-3.286,70.938-4.06
				c36.438-1.172,72.894-2.091,109.349-2.361c51.62-0.365,103.258-0.744,154.869,0.234c31.21,0.578,62.38,3.809,93.563,5.667
				c10.412,0.616,20.846,0.444,31.246,1.044c13.972,0.795,15.695,2.939,19.352,17.775c9.655,39.163,10.684,79.484,13.038,119.633
				c3.168,54.048,6.618,108.084,9.267,162.17c2.776,57.023,11.973,112.995,21.169,168.91c5.202,31.608,13.348,62.599,20.084,93.887
				C850.219,613.617,850.312,616.771,850.869,621.701z"/>
		</defs>
		<clipPath id="SVGID_12_">
			<use xlink:href="#SVGID_11_"  overflow="visible"/>
		</clipPath>
		<path clip-path="url(#SVGID_12_)" d="M873.076,485.869c-33.635,1.878-67.212,3.896-100.808,5.919
			c-34.609,2.091-69.236,4.181-103.803,6.383c-38.546,2.468-76.957,5.369-115.572,7.564c-68.846,3.929-137.809,7.446-206.712,11.181
			c-29.265,1.586-58.479,3.387-87.75,4.904c-26.319,1.373-52.724,2.35-79.017,3.754c-33.19,1.77-66.334,3.74-99.449,5.744
			c-4.372,0.261-8.571,1.17-12.742,1.903c-16.547,2.941-27.924-4.659-26.095-10.366c0.837-2.62,1.28-5.279,1.655-7.933
			c0.529-3.754,4.065-5.783,12.436-6.526c3.892-0.35,7.969-0.271,11.937-0.445c29.323-1.288,58.649-2.602,87.956-3.879
			c21.382-0.947,42.781-1.818,64.147-2.825c31.272-1.468,62.501-3.103,93.778-4.565c29.246-1.369,58.564-2.455,87.785-3.926
			c34.729-1.741,69.407-3.646,104.055-5.678c23.25-1.361,46.411-3.006,69.585-4.612c20.733-1.431,41.399-3.028,62.108-4.487
			c37.903-2.688,75.887-5.146,113.719-8.027c25.985-1.974,51.67-4.72,77.657-6.712c21.158-1.626,42.541-2.604,63.84-3.908"/>
	</g>
</g>
</svg>
