<?xml version="1.0" encoding="utf-8"?>
<!-- Generator: Adobe Illustrator 16.0.1, SVG Export Plug-In . SVG Version: 6.00 Build 0)  -->
<!DOCTYPE svg PUBLIC "-//W3C//DTD SVG 1.1//EN" "http://www.w3.org/Graphics/SVG/1.1/DTD/svg11.dtd">
<svg version="1.1" id="Layer_1" xmlns="http://www.w3.org/2000/svg" xmlns:xlink="http://www.w3.org/1999/xlink" x="0px" y="0px"
	 width="960.254px" height="706.129px" viewBox="0 0 960.254 706.129" enable-background="new 0 0 960.254 706.129"
	 xml:space="preserve">
<g>
	<path stroke="#000000" stroke-width="0.25" stroke-miterlimit="10" d="M0.129,58.986c39.265-1.668,78.419-2.895,117.49-4.963
		c39.086-1.303,78.103-3.991,117.077-5.949c24.844-1.123,49.633-3.061,74.407-6.645c24.762-2.6,49.521-5.895,74.324-7.742
		c18.957-2.212,37.914-4.219,56.886-4.735c18.97-1.724,37.953-3.378,56.938-4.074c18.599-1.337,37.196-2.723,55.795-3.736
		c18.585-0.593,37.196-2.212,55.795-3.604c18.6-0.82,37.196-1.758,55.81-3.227c18.599-0.758,37.211-2.405,55.822-3.612
		c15.041-0.104,30.082-0.765,45.138-2.344c15.056-0.848,30.109-1.854,45.166-2.364c15.055-0.813,30.109-2.171,45.165-2.392
		c15.056-0.138,30.109-1.31,45.165-1.875c10.354-0.524,20.832,0.179,31.062-1.31c13.952-1.365,20.129,1.736,20.584,17.371
		c0.469,15.09,1.062,31.075,1.696,47.096c0.634,15.199,1.309,32.081,1.971,47.081c0.662,16.792,1.311,31.785,1.889,47.434
		c0.565,15.654,1.062,31.192,1.42,46.737c0.538,23.389,0.455,46.385,0.222,69.354c-0.248,23.127-0.647,46.262-0.73,69.382
		c-0.097,34.681,0.041,69.348,0.097,104.007c0.098,59.745-0.357,119.489,0.677,179.235c0.274,16.468-5.46,20.313-21.025,21.121
		c-43.47,2.245-86.801,7.1-130.243,9.892c-35.252,2.282-70.643,2.461-105.882,4.659c-54.251,3.379-108.378,8.272-162.614,11.483
		c-40.325,2.372-80.858,1.932-121.131,4.902c-47.025,3.474-93.858,9.43-140.79,14.027c-25.036,2.446-50.114,4.592-75.179,6.301
		c-33.378,2.281-67.238,7.934-100.022,4.343c-16.435-1.812-43.235,3.708-50.652-23.513c-40.685-21.025-34.04-60.463-35.433-95.433
		c-1.281-31.523-2.344-63.055-3.295-94.592c-0.938-31.529-1.792-62.604-2.633-94.61c-0.841-31.559-1.696-63.315-2.675-94.604
		C7.146,260.982,5.768,220.34,4.348,180.51C2.955,139.652,1.508,99.251,0.129,58.986z M208.847,78.901
		c-0.703,2.737-1.558,3.123-1.379,4.681c6.011,35.397,5.79,71.437,6.479,106.537c0.676,36.08,2.262,71.312,11.898,106.13
		c3.336,11.939-0.717,21.143-16.682,21.411c-16.807-0.717-33.682,2.723-50.336,4.329c-21.094,2.95-42.146,6.19-63.254,9.113
		c-21.107,3.033-42.256,6.266-63.529,9.423c0,29.959-0.055,57.001,0.042,84.106c0.056,12.497,6.245,21.143,20.211,20.148
		c20.515-1.461,41.071-2.86,61.42-5.583c27.367-3.675,54.499-9.175,81.894-12.596c6.687-0.826,17.537,1.2,20.363,5.723
		c8.312,13.387,18.156,28.358,19.205,43.275c3.487,49.634,3.487,99.485,4.632,149.29c0.345,15.263,0.041,30.559,0.041,47.123
		c31.489-2.634,60.91-5.087,89.159-7.438c0-79.907,0-156.811,0-234.96c19.896-1.812,39.761-4.273,59.684-5.328
		c27.381-1.165,54.761-4.04,82.142-5.054c27.381-1.488,54.761-2.812,82.155-4.433c29.778-0.683,59.571-2.641,89.364-3.509
		c29.793-1.303,59.587-2.751,89.381-3.605c20.308-0.924,40.614-1.71,60.908-3.771c20.295-0.642,40.574-3.867,60.827-5.053
		c27.339-2.642,54.485-6.763,81.148-10.485c0-19.177,0-37.796,0-56.091c0-18.592,0-36.983,0-56.705
		c-17.881,1.117-35.599,2.144-53.23,3.212c-17.618,1.076-35.143,2.44-52.582,3.461c-17.454,0.207-34.825,1.606-52.17,3.247
		c-17.344,1.158-34.646,1.571-51.946,3.419c-15.855,0.854-31.696,1.186-47.552,2.978c-15.842,0.827-31.682,1.778-47.537,3.723
		c-15.841,0.655-31.694,1.771-47.551,2.882c-15.84,0.682-31.694,2.102-47.562,2.626c-26.153,0.717-52.569-5.48-78.86-5.907
		c-23.852,0.124-47.66,5.328-71.539,7.23c-23.769,1.979-36.383,3.22-42.945-3.736c-6.562-6.155-7.101-19.356-6.715-43.842
		c0.056-2.006,0.041-5.68,0.263-7.789c1.338-15.965,1.668-30.62,1.228-45.772c-0.428-14.965-1.641-29.924-3.378-45.668
		c-1.751-15.027-4.053-30.421-6.659-45.958c-2.604-15.124-5.527-30.262-8.548-46.469c-18.295,3.736-36.466,4.453-54.554,7.88
		C244.691,74.076,226.714,76.365,208.847,78.901z M880.577,254.372c29.283,2.089,44.27,2.495,51.673-2.502
		c7.403-5.143,7.211-15.559,6.148-35.411c-1.517-28.525-2.8-56.347-3.956-84.526c-1.173-28.021-2.206-56.622-3.24-84.534
		c-0.345-10.678-1.048-18.557-14.188-17.743c-18.156,0.331-36.327,0.62-54.484,0.951c-18.171,0.394-36.342,0.2-54.514,1.221
		c-18.171,0.33-36.327,1.303-54.483,1.357c-18.158,0.655-36.301,1.117-54.432,2.475c-19.688,0.883-39.36,1.958-59.021,3.943
		c-19.674,1.372-39.32,4.115-58.967,5.094c-19.659,1.428-39.306,3.84-58.951,5.404c-19.646,1.489-39.293,3.103-58.952,5.143
		c-17.771,2.103-35.542,2.51-53.327,4.191c-17.785,0.6-35.569,2.709-53.354,3.578c-14.173,0.854-17.675,8.692-15.304,20.438
		c2.799,15.138,6.438,30.186,7.555,43.918c1.641,20.466,3.103,42.318,4.426,63.956c1.312,21.88,2.454,42.395,3.475,64.019
		c0.744,15.676,5.983,21.528,22.568,20.798c17.812-0.504,35.653-0.958,53.507-0.779c17.84-0.579,35.694,0.51,53.521-0.537
		c21.052-0.317,42.09-1.917,63.143-2.233c21.053-1.014,42.091-2.213,63.13-2.454c21.038-1.345,42.092-1.379,63.129-2.454
		c21.039-1.124,42.077-2.082,63.104-3.247c26.828-0.841,53.63-2.978,78.047-5.115C841.258,256.792,863.289,255.606,880.577,254.372z
		 M348.078,454.259c1.406,7.562,2.799,11.934,2.938,16.345c1.766,56.933,3.599,113.871,4.797,170.805
		c0.276,13.449,4.22,18.467,18.545,16.213c23.548-3.688,47.314-6.287,71.084-7.886c47.784-3.212,95.625-5.708,143.465-7.989
		c28.523-1.372,57.215-0.51,85.644-2.812c79.812-6.438,159.457-14.358,239.27-20.77c15.386-1.241,19.729-7.148,19.355-21.742
		c-0.729-27.215,0-54.472,0.469-81.714c0.511-28.49,1.53-57.008,2.068-85.505c0.179-9.651-0.565-18.938-14.628-16.684
		c-22.196,3.536-44.324,7.384-66.673,9.852c-24.018,1.668-48.047,3.24-72.091,5.184c-24.044,1.601-48.103,2.979-72.159,3.807
		c-29.021,1.476-58.058,1.999-87.105,2.578c-29.033,1.074-58.068,1.31-87.104,2.434c-17.302,0.33-34.604,1.612-51.895,2.702
		c-17.288,1.269-34.549,2.171-51.781,4.129C404.825,445.235,377.568,450.612,348.078,454.259z M19.514,86.422
		c-0.786,6.019-1.875,9.375-1.668,13.298c1.86,32.75,3.887,66.059,5.817,98.837c1.931,32.957,3.792,65.749,5.308,98.851
		c0.676,14.414,6.604,16.868,19.261,15.71c22.444-3.35,44.917-6.094,67.361-8.396c22.459-2.393,44.89-5.936,67.266-8.976
		c4.591-0.71,11.029-10.464,11.236-15.421c0.91-24.491,0.51-47.592-0.703-71.932c-0.924-18.682-2.137-36.515-3.405-54.954
		c-1.269-18.006-2.592-36.811-3.736-54.954c-0.951-15.138-9.168-19.246-23.217-17.833c-19.812,2.792-39.678,4.584-59.572,5.535
		C75.777,86.746,48.052,86.546,19.514,86.422z M213.975,672.62c0-52.617,0.441-104.2-0.248-155.776
		c-0.221-15.819-1.806-32.103-6.245-47.171c-1.751-5.949-13.304-13.4-19.771-12.85c-40.422,3.433-80.61,9.396-120.965,13.518
		c-17.302,1.758-31.047,11.319-30.303,25.609c2.51,49.143,5.17,98.299,9.292,147.317c0.593,6.914,8.424,16.661,15.042,18.949
		c15.689,5.426,32.578,9.244,49.149,9.976C143.4,673.654,176.999,672.62,213.975,672.62z"/>
	<path fill="#F1E636" d="M208.847,78.901c17.867-3.205,35.845-5.184,53.934-7.803c18.088-3.44,36.259-3.509,54.554-7.88
		c3.021,14.58,5.942,30.834,8.548,46.379c2.606,14.731,4.908,30.992,6.659,46.048c1.737,14.11,2.95,30.848,3.378,45.269
		c0.44,15.241,0.11,30.179-1.228,46.172c-0.222,2.785-0.207,4.46-0.263,7.789c-0.386,24.651,0.152,37.321,6.715,43.842
		c6.562,6.356,19.178,6.397,42.945,3.736c23.879-2.481,47.688-6.79,71.539-7.23c26.291-0.062,52.707,7.079,78.86,5.907
		c15.868-0.744,31.724-1.875,47.562-2.495c15.855-1.172,31.71-1.812,47.552-3.013c15.854-1.213,31.694-2.702,47.536-3.509
		c15.854-1.523,31.695-3.081,47.552-3.191c17.302-0.8,34.604-2.24,51.946-3.309c17.345-1.737,34.717-2.668,52.17-3.357
		c17.439-1.393,34.964-2.13,52.582-3.274c17.634-1.151,35.351-2.31,53.23-3.398c0,19.391,0,38.417,0,56.705
		c0,18.777,0,36.914,0,56.091c-26.663,3.179-53.811,8.548-81.148,10.485c-20.253,2.164-40.532,3.362-60.827,5.053
		c-20.294,1.647-40.602,2.558-60.908,3.771c-29.794,1.446-59.587,2.806-89.381,3.604c-29.793,1.006-59.586,1.819-89.364,3.509
		c-27.396,1.938-54.774,2.889-82.155,4.433c-27.381,1.979-54.761,3.006-82.142,5.054c-19.923,1.144-39.788,3.516-59.684,5.328
		c0,78.149,0,155.053,0,234.96c-28.249,2.352-57.67,4.805-89.159,7.438c0-16.564,0.304-31.86-0.041-47.123
		c-1.145-49.805-1.145-99.656-4.632-149.29c-1.049-14.916-10.893-29.89-19.205-43.275c-2.826-4.521-13.677-6.549-20.363-5.722
		c-27.395,3.42-54.526,8.92-81.894,12.595c-20.349,2.723-40.905,4.122-61.42,5.583c-13.966,0.993-20.155-6.204-20.211-20.148
		c-0.097-27.442-0.042-54.059-0.042-84.105c21.273-2.95,42.422-6.39,63.529-9.423c21.107-3.447,42.16-5.832,63.254-9.113
		c16.654-1.275,33.529-4.487,50.336-4.329c15.965-0.538,20.018-9.327,16.682-21.411c-9.637-34.501-11.223-71.015-11.898-106.13
		c-0.689-35.818-0.469-71.112-6.479-106.537C207.289,81.928,208.144,80.659,208.847,78.901z"/>
	<path fill="#0F75B9" d="M880.577,254.372c-17.288,0.8-39.319,3.371-63.749,4.949c-24.417,1.8-51.219,3.488-78.047,5.115
		c-21.025,1.558-42.063,1.778-63.104,3.026c-21.038,0.765-42.091,1.688-63.129,2.675c-21.039,0.146-42.077,2.067-63.13,2.439
		c-21.053,0.807-42.091,1.662-63.143,2.248c-17.826,0.916-35.682,1.109-53.521,0.537c-17.854-0.992-35.694,0.662-53.507,0.779
		c-16.585,1.275-21.824-4.984-22.568-20.798c-1.021-20.935-2.164-41.697-3.475-64.019c-1.323-20.866-2.785-42.601-4.426-63.956
		c-1.116-13.008-4.756-29.346-7.556-43.918c-2.371-13.229,1.132-20.039,15.305-20.438c17.783-1.282,35.568-2.399,53.354-3.578
		c17.785-0.889,35.556-2.364,53.327-4.191c19.659-0.778,39.306-2.426,58.952-4.908c19.646-2.468,39.292-4.453,58.951-5.639
		c19.646-0.82,39.293-3.646,58.967-4.749c19.659-1.53,39.333-3.227,59.021-4.288c18.13,0.207,36.272-1.751,54.432-2.357
		c18.155-1.303,36.312-1.096,54.483-1.475c18.171-0.593,36.342,0.31,54.514-0.813c18.156-0.71,36.327-1.014,54.484-1.358
		c13.14-0.413,13.842,8.444,14.188,17.743c1.034,28.505,2.067,56.995,3.239,84.534c1.157,28.062,2.44,55.933,3.956,84.526
		c1.062,19.818,1.255,30.944-6.147,35.411C924.847,257.006,909.86,256.709,880.577,254.372z"/>
	<path fill="#0F75B9" d="M348.078,454.259c29.49-3.231,56.747-8.513,84.196-11.057c17.232-1.44,34.493-2.89,51.781-4.129
		c17.289-1.324,34.593-2.18,51.895-2.702c29.035-1.51,58.069-1.386,87.104-2.434c29.05-0.677,58.084-1.938,87.105-2.578
		c24.058-0.876,48.115-2.04,72.159-3.807c24.044-1.875,48.073-2.957,72.091-5.184c22.349-2.337,44.477-6.314,66.673-9.852
		c14.062-2.254,14.807,7.031,14.628,16.684c-0.538,28.497-1.559,57.015-2.068,85.505c-0.469,27.242-1.198,54.499-0.469,81.714
		c0.372,14.594-3.971,20.501-19.355,21.742c-79.812,6.41-159.458,14.331-239.27,20.77c-28.429,2.304-57.119,1.44-85.644,2.812
		c-47.84,2.281-95.681,4.777-143.465,7.989c-23.77,1.599-47.536,4.197-71.084,7.886c-14.325,2.254-18.269-2.764-18.545-16.213
		c-1.198-56.934-3.031-113.872-4.797-170.805C350.877,466.191,349.484,461.821,348.078,454.259z"/>
	<path fill="#0F75B9" d="M19.514,86.422c28.538,0.283,56.264,0.993,83.947-0.234c19.895-0.654,39.761-2.385,59.572-5.535
		c14.049-1.517,22.266,2.53,23.217,17.833c1.145,17.799,2.468,36.314,3.736,54.954c1.269,18.55,2.481,36.459,3.405,54.954
		c1.213,23.534,1.613,47.792,0.703,71.932c-0.207,5.281-6.646,14.497-11.236,15.421c-22.376,3.302-44.807,6.148-67.266,8.976
		c-22.444,2.84-44.917,5.294-67.361,8.396c-12.656,1.31-18.585-0.489-19.261-15.71c-1.516-33.356-3.377-66.424-5.308-98.851
		c-1.931-32.984-3.957-66.355-5.817-98.837C17.639,95.77,18.728,91.558,19.514,86.422z"/>
	<path fill="#0F75B9" d="M213.975,672.62c-36.976,0-70.574,1.034-104.048-0.428c-16.571-0.73-33.46-4.55-49.149-9.976
		c-6.618-2.288-14.449-12.035-15.042-18.949c-4.122-49.02-6.782-98.176-9.292-147.317c-0.744-14.29,13.001-23.853,30.303-25.609
		c40.354-4.122,80.543-10.085,120.965-13.518c6.467-0.552,18.02,6.899,19.771,12.85c4.439,15.068,6.024,31.352,6.245,47.171
		C214.416,568.42,213.975,620.003,213.975,672.62z"/>
</g>
</svg>
