<?xml version="1.0" encoding="utf-8"?>
<!-- Generator: Adobe Illustrator 16.0.1, SVG Export Plug-In . SVG Version: 6.00 Build 0)  -->
<!DOCTYPE svg PUBLIC "-//W3C//DTD SVG 1.1//EN" "http://www.w3.org/Graphics/SVG/1.1/DTD/svg11.dtd">
<svg version="1.1"
	 id="Layer_1" xmlns:dc="http://purl.org/dc/elements/1.1/" xmlns:cc="http://creativecommons.org/ns#" xmlns:rdf="http://www.w3.org/1999/02/22-rdf-syntax-ns#" xmlns:svg="http://www.w3.org/2000/svg"
	 xmlns="http://www.w3.org/2000/svg" xmlns:xlink="http://www.w3.org/1999/xlink" x="0px" y="0px" width="961.426px"
	 height="707.905px" viewBox="309.539 3292.083 961.426 707.905" enable-background="new 309.539 3292.083 961.426 707.905"
	 xml:space="preserve">
<g id="g4311">
	<path id="path4313" d="M1260.666,3543.444c1.108,75.055,1.695,150.115,3.528,225.148c1.056,42.389,4.082,84.732,6.426,127.086
		c0.661,11.885-1.015,14.902-15.056,19.18c-40.836,12.447-81.858,24.209-122.612,36.936
		c-47.973,14.992-96.782,25.662-146.264,33.432c-65.633,10.307-131.579,18.605-197.858,10.768
		c-35.872-4.238-71.479-12.561-106.592-21.576c-56.278-14.447-113.128-24.512-170.881-28.221
		c-47.314-3.033-94.729-4.301-142.1-6.418c-10.657-0.477-20.196,0.877-29.021,8.811c-9.299,8.375-20.831,4.129-22.665-8.73
		c-3.315-23.145-6.096-46.572-6.479-69.928c-0.745-44.891-0.232-89.812,0.808-134.701c1.593-68.707,3.824-137.406,6.271-206.084
		c1.758-49.08,4.584-98.102-0.696-147.166c-1.048-9.623,0.083-19.611,1.075-29.332c1.296-12.604,10.516-21.02,21.756-16.805
		c32.371,12.125,64.352,3.211,96.604,1.072c93.528-6.188,185.845-2.586,275.375,32.039c24.457,9.459,51.549,13.664,77.743,15.67
		c42.187,3.221,84.843,5.812,126.893,2.625c35.129-2.65,70.009-12.498,104.338-21.814c48.641-13.193,96.438-29.799,145.07-43.049
		c25.656-6.996,51.411-12.424,74.738-26.656c10.926-6.68,20.733,0.645,20.74,13.967c0.041,77.914,0.015,155.824,0.015,233.738
		C1261.445,3543.442,1261.059,3543.442,1260.666,3543.444L1260.666,3543.444z M1241.861,3319.067
		c-4.791,2.287-7.634,3.773-10.575,5.018c-8.961,3.756-17.724,8.285-26.967,10.904c-14.737,4.164-30.062,6.137-44.689,10.617
		c-27.812,8.52-55.14,18.791-82.988,27.166c-27.85,8.375-55.892,16.32-84.229,22.607c-26.05,5.783-52.527,12.139-78.938,12.842
		c-43.612,1.166-87.422-0.469-130.933-3.963c-25.72-2.061-51.604-7.92-76.351-15.717c-34.75-10.938-68.905-24.678-105.193-27.967
		c-39.416-3.57-79.053-4.729-118.619-5.824c-19.584-0.539-39.754-1.248-58.725,2.855c-27.87,6.012-54.853,7.449-81.889-1.932
		c-8.062-2.799-8.438,0.346-7.638,7.293c1.861,16.289,4.067,32.619,4.48,48.984c0.711,28.717,0.725,57.477,0.015,86.199
		c-0.746,30.316-2.854,60.602-4.047,90.91c-1.476,37.734-3.288,75.477-3.765,113.223c-0.627,50.867-0.274,101.746-0.026,152.619
		c0.104,23.299,0.972,46.592,1.521,71.236c7.419-2.082,12.927-4.799,18.518-4.998c24.648-0.904,49.424-2.646,73.979-1.172
		c46.411,2.791,92.882,6.203,139.018,11.973c36.955,4.633,73.56,12.615,110.143,20.039c35.908,7.287,71.299,18.916,107.494,22.818
		c37.184,4.004,75.172,2.693,112.632,0.496c34.611-2.033,69.078-7.633,103.429-12.936c39.029-6.021,77.404-15.166,115.505-26.381
		c43.315-12.746,87.505-22.328,129.603-39.402c2.861-1.154,6.479-4.061,7.037-6.77c1.192-5.68,0.985-11.795,0.643-17.682
		c-2.096-35.92-4.888-71.809-6.487-107.758c-1.386-31.006-2.02-62.08-2.065-93.121c-0.193-96.857,0.034-193.711,0.11-290.568
		c0.013-19.857-0.002-39.709-0.002-61.617V3319.067L1241.861,3319.067z"/>
	<g id="g4315">
		<path id="path4317" fill="none" d="M1260.666,3543.444c1.108,75.055,1.695,150.115,3.528,225.148
			c1.056,42.389,4.082,84.732,6.426,127.086c0.661,11.885-1.015,14.902-15.056,19.18c-40.836,12.447-81.858,24.209-122.612,36.936
			c-47.973,14.992-96.782,25.662-146.264,33.432c-65.633,10.307-131.579,18.605-197.858,10.768
			c-35.872-4.238-71.479-12.561-106.592-21.576c-56.278-14.447-113.128-24.512-170.881-28.221
			c-47.314-3.033-94.729-4.301-142.1-6.418c-10.657-0.477-20.196,0.877-29.021,8.811c-9.299,8.375-20.831,4.129-22.665-8.73
			c-3.315-23.145-6.096-46.572-6.479-69.928c-0.745-44.891-0.232-89.812,0.808-134.701c1.593-68.707,3.824-137.406,6.271-206.084
			c1.758-49.08,4.584-98.102-0.696-147.166c-1.048-9.623,0.083-19.611,1.075-29.332c1.296-12.604,10.516-21.02,21.756-16.805
			c32.371,12.125,64.352,3.211,96.604,1.072c93.528-6.188,185.845-2.586,275.375,32.039c24.457,9.459,51.549,13.664,77.743,15.67
			c42.187,3.221,84.843,5.812,126.893,2.625c35.129-2.65,70.009-12.498,104.338-21.814c48.641-13.193,96.438-29.799,145.07-43.049
			c25.656-6.996,51.411-12.424,74.738-26.656c10.926-6.68,20.733,0.645,20.74,13.967c0.041,77.914,0.015,155.824,0.015,233.738
			C1261.445,3543.442,1261.059,3543.442,1260.666,3543.444L1260.666,3543.444z M1241.861,3319.067
			c-4.791,2.287-7.634,3.773-10.575,5.018c-8.961,3.756-17.724,8.285-26.967,10.904c-14.737,4.164-30.062,6.137-44.689,10.617
			c-27.812,8.52-55.14,18.791-82.988,27.166c-27.85,8.375-55.892,16.32-84.229,22.607c-26.05,5.783-52.527,12.139-78.938,12.842
			c-43.612,1.166-87.422-0.469-130.933-3.963c-25.72-2.061-51.604-7.92-76.351-15.717c-34.75-10.938-68.905-24.678-105.193-27.967
			c-39.416-3.57-79.053-4.729-118.619-5.824c-19.584-0.539-39.754-1.248-58.725,2.855c-27.87,6.012-54.853,7.449-81.889-1.932
			c-8.062-2.799-8.438,0.346-7.638,7.293c1.861,16.289,4.067,32.619,4.48,48.984c0.711,28.717,0.725,57.477,0.015,86.199
			c-0.746,30.316-2.854,60.602-4.047,90.91c-1.476,37.734-3.288,75.477-3.765,113.223c-0.627,50.867-0.274,101.746-0.026,152.619
			c0.104,23.299,0.972,46.592,1.521,71.236c7.419-2.082,12.927-4.799,18.518-4.998c24.648-0.904,49.424-2.646,73.979-1.172
			c46.411,2.791,92.882,6.203,139.018,11.973c36.955,4.633,73.56,12.615,110.143,20.039c35.908,7.287,71.299,18.916,107.494,22.818
			c37.184,4.004,75.172,2.693,112.632,0.496c34.611-2.033,69.078-7.633,103.429-12.936c39.029-6.021,77.404-15.166,115.505-26.381
			c43.315-12.746,87.505-22.328,129.603-39.402c2.861-1.154,6.479-4.061,7.037-6.77c1.192-5.68,0.985-11.795,0.643-17.682
			c-2.096-35.92-4.888-71.809-6.487-107.758c-1.386-31.006-2.02-62.08-2.065-93.121c-0.193-96.857,0.034-193.711,0.11-290.568
			c0.013-19.857-0.002-39.709-0.002-61.617V3319.067L1241.861,3319.067z"/>
		<g id="g4319">
			<path id="path4321" d="M1241.513,3319.065c0.02,0,0.033,0.168,0.049,0.502c0.012,0.334,0.023,0.834,0.043,1.498
				c0.018,1.324,0.038,3.311,0.068,5.934c0.022,5.244,0.056,13.045,0.1,23.271c0.048,20.451,0.117,50.611,0.207,89.436
				c-0.437,38.803-0.349,86.25,0.205,141.326c0.257,27.529,0.373,56.953,0.354,88.145c0.131,15.59,0.268,31.623,0.405,48.08
				c0.224,8.229,0.447,16.561,0.678,24.996c0.108,4.221,0.222,8.465,0.333,12.736c0.138,4.27,0.147,8.572,0.407,12.889
				c0.902,17.271,1.843,34.951,2.897,53.021c0.582,9.033,1.168,18.164,1.762,27.393c0.304,4.613,0.605,9.25,0.912,13.912
				c0.29,4.662,0.66,9.338,0.863,14.064c0.137,4.73,0.08,9.494-1.02,14.258c-0.435,1.195-1.202,2.203-2.075,3.055
				c-0.854,0.883-1.843,1.613-2.872,2.271c-1.031,0.658-2.193,1.139-3.303,1.555l-3.363,1.301c-2.246,0.867-4.496,1.738-6.753,2.611
				c-2.261,0.865-4.507,1.785-6.813,2.547c-4.594,1.594-9.207,3.195-13.842,4.805c-18.646,6.125-37.896,11.502-57.465,16.924
				c-4.9,1.324-9.822,2.652-14.767,3.984c-4.94,1.33-9.909,2.648-14.872,4.057c-9.928,2.793-19.988,5.498-30.104,8.279
				c-20.252,5.514-40.988,10.434-62.104,15.229l-3.98,0.785c-1.328,0.262-2.674,0.443-4.012,0.67
				c-2.681,0.438-5.362,0.873-8.053,1.312c-5.371,0.895-10.762,1.793-16.172,2.695c-10.836,1.648-21.75,3.312-32.733,4.988
				c-5.498,0.812-11.016,1.633-16.55,2.451l-4.152,0.617l-4.174,0.529c-2.785,0.354-5.574,0.711-8.367,1.066
				c-2.795,0.357-5.594,0.719-8.396,1.078l-4.207,0.543c-1.403,0.17-2.817,0.27-4.229,0.406c-5.649,0.52-11.315,1.045-16.999,1.57
				c-22.767,1.428-45.839,2.354-69.202,2.242c-11.682,0-23.426-0.525-35.219-1.281c-2.943-0.264-5.893-0.523-8.844-0.789
				l-4.432-0.396c-1.475-0.166-2.945-0.383-4.42-0.57c-2.949-0.393-5.901-0.779-8.857-1.174c-2.943-0.463-5.877-1.021-8.82-1.531
				c-5.896-0.955-11.724-2.32-17.604-3.508c-2.934-0.621-5.848-1.332-8.777-1.994c-2.93-0.676-5.865-1.33-8.787-2.051
				c-11.713-2.801-23.451-5.709-35.288-8.396c-2.953-0.707-5.937-1.279-8.904-1.93c-2.978-0.617-5.94-1.281-8.939-1.865
				c-5.985-1.205-11.985-2.414-17.999-3.625c-12.023-2.4-24.104-4.814-36.234-7.238c-6.092-1.051-12.197-2.105-18.314-3.158
				c-3.062-0.506-6.109-1.115-9.188-1.543c-3.077-0.438-6.157-0.873-9.24-1.311c-6.17-0.854-12.332-1.822-18.539-2.598
				c-6.22-0.691-12.452-1.391-18.696-2.088c-3.12-0.354-6.245-0.705-9.372-1.059l-4.692-0.533l-4.709-0.438
				c-6.281-0.59-12.574-1.182-18.881-1.773c-3.152-0.301-6.31-0.602-9.468-0.898c-3.157-0.309-6.327-0.521-9.496-0.785
				c-6.339-0.514-12.688-1.027-19.053-1.543c-6.345-0.646-12.715-1.148-19.098-1.617c-6.385-0.451-12.78-0.902-19.188-1.354
				c-1.604-0.104-3.206-0.23-4.81-0.307l-4.812-0.146c-3.209-0.094-6.42-0.189-9.635-0.279c-3.213-0.152-6.435-0.049-9.656,0.01
				c-3.224,0.059-6.447,0.119-9.677,0.178c-12.91,0.412-25.868,1.076-38.883,1.605c-0.832,0.018-1.58,0.107-2.355,0.172
				c-0.771,0.053-1.54,0.258-2.312,0.377c-0.77,0.17-1.538,0.381-2.309,0.572l-2.307,0.697l-4.634,1.529l-2.345,0.75l-3.25,0.959
				l-0.472,0.137l-0.235,0.07l-0.06,0.018c-0.009-0.012-0.002-0.037-0.005-0.057l-0.004-0.125l-0.021-0.986l-0.042-1.967
				l-0.045-2.49l-0.078-4.9c-0.041-3.268-0.081-6.539-0.122-9.811c-0.223-12.838-0.443-25.639-0.665-38.396
				c-0.322-12.764-0.413-25.479-0.588-38.154c-0.304-25.348-0.843-50.52-0.566-75.498c0.283-12.502,0.566-24.951,0.849-37.352
				c0.063-3.1,0.13-6.195,0.191-9.287c0.066-3.094,0.091-6.184,0.243-9.27c0.225-6.17,0.45-12.328,0.674-18.473
				c0.416-12.289,0.691-24.529,0.89-36.721c0.312-12.188,0.468-24.322,0.402-36.416c0.753-24.145,2.409-53.062,3.381-79.004
				c0.277-6.484,0.549-12.789,0.806-18.789c0.252-6,0.604-11.691,0.645-16.975c0.228-10.555,0.492-19.42,0.809-25.633
				c-0.025-2.334-0.055-4.74-0.082-7.215c-0.023-2.475-0.018-5.014-0.12-7.609c-0.135-5.193-0.274-10.621-0.421-16.223
				c-0.11-5.602-0.227-11.377-0.344-17.266c-0.022-1.473-0.049-2.951-0.073-4.438l-0.034-2.232l-0.113-2.229
				c-0.152-2.979-0.307-5.975-0.461-8.982c-0.885-12.039-2.292-24.277-3.619-36.299c-0.162-1.492-0.346-3.014-0.408-4.598
				c-0.037-0.787-0.018-1.613,0.076-2.477c0.141-0.865,0.34-1.842,1.062-2.76c0.2-0.213,0.409-0.426,0.631-0.613
				c0.241-0.152,0.493-0.299,0.749-0.434c0.5-0.188,1.034-0.344,1.492-0.354c0.966-0.096,1.785,0.053,2.589,0.199
				c1.571,0.324,3.036,0.889,4.384,1.32c5.458,1.932,10.964,3.344,16.349,4.398c10.782,2.129,21.793,2.592,32.654,2.027
				c5.434-0.324,10.836-0.904,16.192-1.68c5.365-0.764,10.646-1.85,15.943-2.895c10.647-2.152,21.432-2.857,32.087-3.014
				c10.666-0.139,21.232,0.23,31.713,0.498c5.242,0.135,10.467,0.268,15.67,0.398c5.204,0.127,10.389,0.289,15.553,0.496
				c5.164,0.191,10.308,0.387,15.432,0.574c2.562,0.104,5.118,0.201,7.67,0.303c2.552,0.135,5.097,0.27,7.637,0.4
				c10.158,0.576,20.246,0.918,30.229,1.723c4.994,0.338,9.967,0.674,14.918,1.008c4.945,0.291,9.904,0.688,14.812,1.293
				c19.595,2.945,37.97,8.453,55.664,14.279c17.709,5.828,34.802,12.133,52.068,17.092c8.617,2.537,17.301,4.611,25.979,6.521
				c2.182,0.426,4.357,0.85,6.535,1.273l3.268,0.627l3.279,0.533l6.557,1.045l6.578,0.84c2.188,0.307,4.389,0.502,6.589,0.695
				c2.2,0.188,4.395,0.424,6.6,0.57c4.413,0.26,8.826,0.52,13.243,0.779c4.416,0.246,8.836,0.492,13.263,0.738
				c2.216,0.105,4.428,0.271,6.646,0.324c2.219,0.062,4.438,0.123,6.664,0.186c7.271,0.246,14.406,0.486,21.466,0.729
				c3.528,0.176,7.042,0.152,10.543,0.219c3.501,0.053,6.991,0.105,10.479,0.16c3.485,0.061,6.971,0.123,10.458,0.186
				c1.743,0.023,3.487,0.086,5.234,0.08c1.747-0.016,3.497-0.033,5.249-0.049c7.011-0.055,14.068-0.109,21.237-0.164
				c1.792-0.012,3.593-0.025,5.398-0.037c1.798-0.084,3.603-0.168,5.416-0.254c1.812-0.105,3.639-0.131,5.467-0.303
				c1.828-0.174,3.665-0.346,5.515-0.52c7.396-0.695,14.92-1.869,22.654-3.189c3.857-0.723,7.773-1.457,11.748-2.262
				c3.967-0.84,8.004-1.656,12.1-2.584c8.195-1.807,16.694-3.711,25.47-5.873c24.475-6.021,48.188-12.672,70.231-19.207
				c1.381-0.398,2.754-0.799,4.121-1.195c1.357-0.422,2.711-0.842,4.057-1.258c2.691-0.836,5.354-1.664,7.992-2.48
				c2.636-0.818,5.244-1.627,7.821-2.426c2.576-0.803,5.103-1.666,7.606-2.48c10.009-3.314,19.496-6.459,28.343-9.389
				c2.217-0.717,4.399-1.422,6.556-2.119c2.164-0.666,4.298-1.324,6.397-1.973c4.201-1.299,8.276-2.561,12.224-3.779
				c0.989-0.295,1.954-0.635,2.942-0.887c0.985-0.254,1.965-0.506,2.937-0.758c1.938-0.502,3.845-0.994,5.718-1.48
				c1.865-0.521,3.729-0.877,5.55-1.27c1.821-0.389,3.609-0.77,5.364-1.143c7.007-1.514,13.513-2.725,19.348-4.273
				c1.465-0.363,2.896-0.719,4.292-1.064c0.35-0.086,0.695-0.172,1.04-0.258c0.338-0.111,0.672-0.223,1.004-0.332
				c0.663-0.221,1.317-0.439,1.967-0.654c1.294-0.43,2.554-0.848,3.779-1.256c1.198-0.486,2.362-0.961,3.496-1.422
				c1.131-0.461,2.229-0.91,3.291-1.348c1.054-0.467,2.069-0.92,3.056-1.357c1.971-0.877,3.807-1.693,5.507-2.447
				c1.703-0.754,3.271-1.447,4.698-2.078c1.405-0.658,2.676-1.252,3.808-1.781c4.512-2.188,6.807-3.363,6.806-3.363
				c-0.027-0.059-0.626,0.184-1.781,0.711c-1.147,0.543-2.862,1.354-5.132,2.426c-1.131,0.521-2.397,1.109-3.806,1.762
				c-1.429,0.635-2.995,1.326-4.7,2.08c-1.695,0.764-3.528,1.586-5.496,2.469c-0.981,0.443-1.997,0.902-3.047,1.377
				c-1.06,0.439-2.151,0.895-3.277,1.365c-1.127,0.469-2.288,0.949-3.481,1.445c-1.22,0.418-2.475,0.846-3.762,1.283
				c-0.646,0.223-1.297,0.443-1.958,0.67c-0.331,0.113-0.663,0.229-0.999,0.344c-0.343,0.088-0.688,0.178-1.037,0.27
				c-1.392,0.357-2.817,0.729-4.279,1.104c-5.814,1.613-12.309,2.898-19.296,4.498c-1.749,0.396-3.529,0.799-5.347,1.211
				c-1.814,0.416-3.672,0.797-5.526,1.342c-1.86,0.512-3.758,1.029-5.687,1.559c-0.963,0.266-1.938,0.527-2.915,0.799
				c-0.981,0.264-1.942,0.617-2.928,0.928c-3.927,1.279-7.979,2.6-12.157,3.961c-2.089,0.68-4.209,1.369-6.361,2.07
				c-2.143,0.729-4.312,1.471-6.519,2.223c-8.871,2.854-18.221,5.93-28.035,9.193c-2.454,0.812-4.938,1.643-7.452,2.479
				c-2.525,0.801-5.08,1.609-7.665,2.43c-2.583,0.822-5.196,1.654-7.839,2.498c-2.642,0.852-5.312,1.705-8.034,2.5
				c-21.698,6.615-45.369,13.543-71.134,19.758c-8.456,1.916-16.548,3.639-24.342,5.309c-7.79,1.689-15.301,3.244-22.628,4.646
				c-14.651,2.783-28.651,4.779-42.688,5.191c-7.008,0.143-13.996,0.281-21.059,0.426c-3.531,0.061-7.082,0.127-10.663,0.189
				c-3.58-0.047-7.191-0.094-10.848-0.143c-7.306-0.113-14.78-0.215-22.517-0.414c-7.729-0.371-15.72-0.781-24.062-1.25
				c-8.354-0.242-16.921-0.938-25.684-1.488c-4.381-0.293-8.81-0.59-13.274-0.889c-2.232-0.119-4.474-0.402-6.725-0.602
				c-2.249-0.23-4.515-0.395-6.769-0.729c-2.261-0.299-4.525-0.598-6.802-0.896c-2.271-0.322-4.534-0.732-6.812-1.098l-3.42-0.562
				l-3.41-0.662c-2.275-0.451-4.557-0.902-6.842-1.355c-9.106-1.977-18.223-4.266-27.271-6.871
				c-18.086-5.271-35.87-11.703-53.562-17.262c-17.668-5.584-35.305-10.299-52.55-12.59c-8.062-1.186-17.155-1.639-26.812-2.361
				c-2.416-0.17-4.868-0.344-7.354-0.52c-2.486-0.178-5.004-0.361-7.557-0.457c-5.1-0.238-10.311-0.482-15.593-0.729
				c-10.561-0.574-21.425-0.855-32.26-1.277c-10.837-0.406-21.651-0.812-32.129-1.209c-10.479-0.352-21.033-0.807-31.651-0.732
				c-10.609,0.088-21.326,0.746-31.871,2.875c-5.291,1.043-10.612,2.146-15.999,2.938c-5.386,0.807-10.817,1.43-16.291,1.812
				c-10.942,0.678-22.07,0.395-33.068-1.498c-5.482-0.994-10.93-2.344-16.242-4.146c-1.354-0.416-2.646-0.906-3.935-1.215
				c-0.323-0.096-0.645-0.143-0.966-0.197c-0.325-0.07-0.638-0.094-0.948-0.105c-0.623-0.047-1.204,0.041-1.626,0.268
				c-0.854,0.385-1.112,1.709-1.136,3.014c-0.024,1.322,0.11,2.703,0.264,4.084c0.632,5.572,1.309,11.15,1.904,16.77
				c0.303,2.807,0.605,5.619,0.908,8.436c0.247,2.822,0.494,5.65,0.742,8.482c0.294,2.828,0.396,5.678,0.54,8.527l0.212,4.279
				c0.072,1.428,0.154,2.855,0.149,4.281c0.075,5.711,0.151,11.438,0.229,17.18c0.085,5.742,0.17,11.5,0.256,17.273
				c0.027,2.889,0.134,5.777,0.101,8.674c-0.021,2.895-0.044,5.793-0.062,8.697c-0.166,5.809-0.294,11.631-0.395,17.471
				c-0.043,2.918-0.087,5.842-0.13,8.77c-0.062,2.926-0.008,5.859-0.159,8.791c-0.392,11.734-0.784,23.529-1.181,35.383
				c-0.346,11.861-0.892,23.75-1.412,35.709c-0.295,5.977-0.59,11.967-0.887,17.971c-0.272,6.008-0.578,12.027-0.921,18.061
				c-0.372,12.074-0.747,24.203-1.122,36.389c-0.252,12.18-0.506,24.412-0.76,36.695c-0.152,6.143-0.308,12.295-0.46,18.463
				c-0.114,3.082-0.102,6.174-0.129,9.266c-0.028,3.094-0.058,6.188-0.085,9.287c-0.13,12.395-0.335,24.84-0.646,37.336
				c0.308,24.965,0.419,50.139,0.298,75.482c-0.036,12.674-0.154,25.396,0.083,38.145c0.104,6.375,0.207,12.76,0.312,19.152
				c0.143,6.396,0.379,12.805,0.609,19.221c0.034,3.271,0.068,6.545,0.104,9.811l0.062,4.9l0.033,2.41l0.001,0.582l0.001,0.299
				c-0.02,0.076,0.043,0.043,0.088,0.031l0.141-0.037l1.589-0.451l2.32-0.73l4.657-1.514l2.365-0.705
				c0.806-0.195,1.604-0.41,2.417-0.586c0.826-0.125,1.634-0.332,2.474-0.389c0.836-0.066,1.686-0.156,2.486-0.168
				c13.002-0.461,25.967-1.055,38.906-1.439c3.235-0.057,6.471-0.111,9.702-0.168c3.229-0.057,6.461-0.164,9.688-0.02
				c3.229,0.082,6.455,0.162,9.68,0.242l4.834,0.119c1.606,0.064,3.21,0.178,4.813,0.268c6.416,0.365,12.819,0.734,19.212,1.104
				c6.395,0.357,12.776,0.721,19.141,1.189c6.363,0.572,12.717,1.146,19.056,1.723c3.17,0.287,6.34,0.52,9.501,0.836
				c3.161,0.311,6.318,0.623,9.474,0.934c6.312,0.598,12.611,1.191,18.899,1.785l4.714,0.434l4.701,0.523
				c3.133,0.344,6.264,0.689,9.39,1.033c6.256,0.676,12.499,1.35,18.729,2.02c6.224,0.748,12.412,1.695,18.604,2.525
				c3.095,0.428,6.188,0.855,9.273,1.283c3.091,0.418,6.146,1.02,9.215,1.52c6.131,1.051,12.25,2.102,18.355,3.146
				c12.119,2.529,24.188,5.055,36.2,7.561c6.005,1.246,11.997,2.49,17.977,3.732c2.991,0.596,5.973,1.277,8.953,1.912
				c2.978,0.658,5.969,1.246,8.924,1.959c11.854,2.729,23.6,5.646,35.305,8.416c2.924,0.715,5.854,1.357,8.779,2.021
				c2.926,0.65,5.84,1.348,8.767,1.953c5.863,1.148,11.681,2.479,17.552,3.381c2.93,0.514,5.845,1.08,8.771,1.551
				c2.936,0.402,5.866,0.807,8.793,1.207c1.465,0.195,2.925,0.418,4.391,0.592l4.408,0.422c2.938,0.281,5.871,0.562,8.8,0.846
				c11.741,0.834,23.444,1.455,35.101,1.523c23.302,0.246,46.372-0.627,69.081-2.363c5.668-0.535,11.315-1.066,16.948-1.6
				c1.406-0.139,2.816-0.236,4.22-0.406l4.198-0.541c2.798-0.355,5.591-0.713,8.38-1.068c2.789-0.352,5.572-0.701,8.354-1.053
				l4.167-0.521l4.148-0.611c5.528-0.811,11.041-1.623,16.533-2.432c5.495-0.779,10.965-1.664,16.417-2.502
				c5.448-0.861,10.896-1.656,16.294-2.561c5.391-0.947,10.761-1.893,16.11-2.834c2.676-0.471,5.347-0.941,8.013-1.414
				c1.329-0.246,2.668-0.447,3.988-0.729l3.958-0.855c21.188-4.174,41.945-8.934,62.15-14.51
				c10.097-2.814,20.104-5.602,30.023-8.518c4.954-1.467,9.906-2.854,14.834-4.25c4.925-1.402,9.828-2.801,14.714-4.193
				c19.593-5.326,38.845-10.561,57.487-16.529c4.634-1.568,9.245-3.131,13.836-4.686c2.311-0.742,4.554-1.645,6.812-2.486
				c2.255-0.854,4.505-1.703,6.751-2.553l3.362-1.271c1.162-0.43,2.147-0.826,3.106-1.428c0.946-0.594,1.869-1.264,2.64-2.053
				c0.8-0.76,1.459-1.654,1.787-2.549c0.188-0.391,0.25-1.02,0.34-1.586l0.267-1.723c0.074-0.574,0.21-1.141,0.235-1.725
				l0.104-1.746c0.201-2.318,0.113-4.668,0.097-7.002c-2.209-37.68-4.33-73.854-6.354-108.381
				c-0.305-4.316-0.359-8.619-0.539-12.891c-0.152-4.271-0.307-8.52-0.457-12.738c-0.303-8.441-0.601-16.777-0.896-25.01
				c-0.239-16.469-0.475-32.512-0.701-48.111c-0.1-31.191-0.169-60.615-0.116-88.146c0.528-57.156,0.119-102.523,0.542-141.328
				c0.213-38.82,0.378-68.979,0.488-89.436c0.022-10.229,0.041-18.027,0.055-23.271c-0.014-2.623-0.021-4.604-0.027-5.934
				c-0.013-0.664-0.021-1.162-0.027-1.496c-0.013-0.332-0.026-0.5-0.04-0.5L1241.513,3319.065z"/>
		</g>
		<g id="g4323">
			<path id="path4325" d="M1260.672,3543.793c0-0.025,0.346-0.051,1.156-0.08l0.285-0.012l-0.01-0.271
				c-0.212-7.021-0.207-51.064-0.433-125.354c0.21-20.346,0.287-42.957,0.24-67.701c-0.052-12.373-0.105-25.279-0.162-38.701
				c-0.01-1.678-0.021-3.365-0.24-5.037c-0.133-0.834-0.223-1.676-0.474-2.488l-0.321-1.229l-0.456-1.188
				c-1.196-3.154-3.538-6-6.688-7.365l-1.197-0.459l-1.256-0.268c-0.415-0.115-0.852-0.104-1.277-0.133
				c-0.429-0.01-0.855-0.084-1.287-0.01l-1.286,0.131c-0.428,0.053-0.842,0.197-1.263,0.289c-0.854,0.16-1.645,0.551-2.457,0.857
				c-1.562,0.75-3.08,1.668-4.649,2.555c-1.559,0.889-3.123,1.783-4.693,2.682c-1.548,0.943-3.201,1.701-4.85,2.486
				c-1.646,0.789-3.302,1.58-4.962,2.375c-0.82,0.416-1.678,0.762-2.536,1.104c-0.854,0.35-1.715,0.695-2.573,1.043
				c-1.722,0.695-3.449,1.396-5.186,2.1c-3.538,1.211-7.079,2.52-10.702,3.672c-3.638,1.09-7.276,2.303-11.003,3.305
				c-7.417,2.127-15,4.08-22.655,6.168c-3.845,0.996-7.666,2.174-11.543,3.271c-3.87,1.111-7.771,2.234-11.695,3.365
				c-15.743,4.396-31.796,9.416-48.329,14.379c-8.269,2.484-16.644,5-25.123,7.551c-4.242,1.268-8.51,2.545-12.806,3.824
				c-4.291,1.295-8.653,2.443-13.021,3.684c-8.728,2.469-17.559,4.967-26.492,7.49c-8.963,2.418-18.023,4.871-27.21,7.273
				c-18.369,4.775-37.275,9.287-56.88,12.172c-2.452,0.344-4.901,0.762-7.373,1.051c-2.476,0.254-4.957,0.514-7.444,0.77
				c-4.972,0.604-9.993,0.797-15.031,1.141c-5.037,0.381-10.109,0.498-15.204,0.664c-2.548,0.066-5.103,0.201-7.661,0.213
				c-2.561,0.016-5.126,0.031-7.698,0.047c-20.58,0.1-41.525-0.771-62.79-2.076c-5.313-0.342-10.647-0.736-16.003-1.166
				c-2.677-0.213-5.357-0.428-8.047-0.643c-2.688-0.25-5.381-0.502-8.08-0.754c-10.783-1.127-21.614-2.67-32.424-4.805
				c-10.816-2.1-21.564-5.012-32.133-8.697c-10.58-3.658-21.061-7.691-31.979-10.744c-21.457-7.162-43.841-12.631-66.796-16.506
				c-22.959-3.881-46.479-6.18-70.325-7.221c-23.823-1.471-48.02-1.59-72.452-0.779c-6.108,0.166-12.23,0.521-18.372,0.775
				c-6.142,0.299-12.291,0.721-18.465,1.076c-12.314,0.77-24.625,2.539-37.087,3.846c-6.227,0.635-12.489,1.143-18.797,1.367
				c-6.308,0.182-12.65,0-18.979-0.648c-6.334-0.639-12.605-1.994-18.74-3.828l-4.568-1.508l-2.166-0.664
				c-0.732-0.117-1.465-0.289-2.203-0.348c-2.941-0.229-5.955,0.449-8.383,2.162c-2.43,1.682-4.383,4.092-5.636,6.854
				c-1.292,2.771-1.925,5.756-2.21,8.891c-0.622,6.369-1.281,12.732-1.312,19.09c-0.063,3.188,0.152,6.332,0.443,9.504
				c0.283,3.219,0.566,6.441,0.853,9.668c0.258,3.23,0.607,6.453,0.785,9.693c0.158,3.24,0.317,6.484,0.479,9.732
				c1.473,25.979,1.103,52.223,0.221,78.596c-0.502,13.182-1.007,26.414-1.514,39.697c-0.461,13.285-0.925,26.619-1.39,40.006
				c-2.719,53.451-2.94,107.76-5.441,162.629c-0.442,13.453-0.623,26.871-0.817,40.248c-0.072,6.688-0.146,13.367-0.221,20.033
				c-0.027,3.334-0.057,6.664-0.084,9.99c0.041,3.328,0.082,6.652,0.123,9.975c0.167,13.287,0.333,26.525,0.498,39.717
				c0.033,3.297,0.066,6.59,0.102,9.881l0.044,4.938c0.003,1.645,0.022,3.287,0.117,4.922c0.142,3.27,0.278,6.541,0.417,9.807
				l0.197,4.896c0.082,1.631,0.249,3.258,0.367,4.885c0.447,6.52,0.735,13.045,1.447,19.527c0.312,3.242,0.619,6.484,0.931,9.727
				c0.315,3.238,0.745,6.463,1.115,9.689c0.396,3.221,0.74,6.465,1.184,9.652c0.46,3.135,1.646,6.195,3.722,8.584
				c1.074,1.137,2.294,2.191,3.754,2.807c0.353,0.182,0.708,0.348,1.095,0.438l1.133,0.342c0.782,0.086,1.559,0.293,2.354,0.23
				c1.592,0.07,3.15-0.361,4.653-0.861c1.462-0.625,2.881-1.383,4.13-2.385c1.275-0.951,2.445-2.102,3.771-3.025
				c1.282-0.98,2.668-1.822,4.073-2.611c2.845-1.533,5.917-2.605,9.063-3.285c3.156-0.646,6.375-0.916,9.584-0.953
				c3.213-0.016,6.408,0.148,9.604,0.215c12.779,0.346,25.51,0.525,38.188,0.49c25.32,0.846,55.631,2.367,82.86,3.719
				c3.403,0.178,6.761,0.35,10.053,0.518c1.646,0.086,3.274,0.172,4.888,0.256c1.611,0.127,3.205,0.252,4.778,0.377
				c6.293,0.52,12.27,0.998,17.795,1.508c5.512,0.646,10.581,1.246,15.084,1.773c2.249,0.281,4.355,0.533,6.304,0.811
				c1.939,0.312,3.727,0.602,5.336,0.863c4.875,0.537,10.06,1.107,15.484,1.709c5.403,0.77,11.053,1.572,16.882,2.402
				c1.456,0.215,2.925,0.432,4.403,0.645c1.473,0.25,2.955,0.502,4.446,0.758c2.983,0.518,6.005,1.045,9.056,1.574
				c3.047,0.543,6.131,1.059,9.223,1.646c3.086,0.623,6.193,1.25,9.314,1.881c3.121,0.635,6.255,1.273,9.395,1.914
				c3.143,0.639,6.262,1.404,9.395,2.105c3.128,0.717,6.254,1.436,9.37,2.152c1.559,0.363,3.112,0.727,4.663,1.09
				c1.547,0.391,3.088,0.779,4.625,1.17c6.145,1.572,12.221,3.129,18.168,4.652c5.932,1.555,11.732,3.076,17.349,4.551
				c11.239,2.904,22.475,5.521,33.666,7.986c11.216,2.338,22.381,4.588,33.557,6.291c11.157,1.83,22.312,3.148,33.405,4.152
				c5.558,0.396,11.09,0.881,16.619,1.07c2.764,0.107,5.519,0.293,8.271,0.342c2.756,0.055,5.506,0.109,8.249,0.166
				c2.745,0.076,5.486,0.016,8.224,0.012c2.733-0.029,5.467,0,8.189-0.072c5.448-0.154,10.879-0.229,16.283-0.52
				c10.812-0.418,21.523-1.248,32.139-2.143c21.223-1.947,42.021-4.689,62.353-8.021c20.434-2.791,40.19-5.727,59.419-9.16
				c19.215-3.488,37.902-7.406,56.229-11.793c18.298-4.502,36.223-9.496,53.918-15.061c17.73-5.48,35.393-11.043,53.166-16.77
				c14.559-4.641,28.617-8.9,42.635-13.137c7.015-2.096,14.016-4.188,21.064-6.297c3.521-1.068,7.109-2.027,10.503-3.281
				c3.323-1.289,6.824-2.799,8.31-5.74c1.505-2.938,1.297-6.838,1.154-10.57c-0.206-3.824-0.413-7.688-0.625-11.594
				c-0.43-7.811-0.868-15.805-1.319-24.043c-0.478-8.238-0.964-16.725-1.472-25.52c-0.479-8.801-0.974-17.908-1.486-27.396
				c-0.447-6.604-0.682-13.184-0.953-19.705c-0.248-6.521-0.495-12.99-0.738-19.383c-0.212-12.787-0.418-25.281-0.617-37.342
				c-0.322-24.123-0.62-46.518-0.881-66.061c-0.121-39.068-0.357-69.387-0.666-89.936c-0.29-20.551-0.574-31.33-0.574-31.33
				c-0.063,0-0.102,0.676-0.11,2.008c-0.013,1.332,0,3.322,0.039,5.955c0.1,5.264,0.248,13.096,0.44,23.371
				c0.402,20.547,0.997,50.857,1.762,89.918c0.093,19.543,0.476,41.273,0.996,65.062c0.278,11.895,0.568,24.303,0.869,37.209
				c0.212,6.449,0.524,13.021,0.789,19.723c0.289,6.695,0.506,13.516,0.941,20.449c0.348,9.082,0.703,17.752,1.104,26.102
				c0.479,8.346,0.938,16.375,1.383,24.188c0.491,7.811,0.97,15.4,1.438,22.873c0.246,3.736,0.489,7.443,0.729,11.133
				c0.114,1.846,0.265,3.682,0.353,5.525c0.092,1.842,0.146,3.693-0.049,5.545c-0.185,1.838-0.636,3.721-1.681,5.318
				c-1.029,1.605-2.569,2.797-4.183,3.723c-1.616,0.947-3.346,1.643-5.081,2.293c-1.739,0.643-3.509,1.211-5.275,1.756
				c-7.082,2.166-14.238,4.355-21.562,6.596c-14.655,4.461-30.027,8.996-46.847,13.895c-16.748,5.123-34.459,10.539-52.696,16.117
				c-18.233,5.646-37.159,10.918-56.324,15.629c-19.172,4.68-38.59,8.73-57.724,12.324c-4.789,0.867-9.558,1.732-14.294,2.594
				c-4.75,0.787-9.474,1.57-14.156,2.348c-9.369,1.557-18.612,2.947-27.654,4.324c-16.979,2.449-37.771,5.406-59.887,7.594
				c-11.058,1.068-22.44,1.984-33.824,2.451c-5.688,0.301-11.381,0.387-17.021,0.49c-2.82,0.064-5.635-0.01-8.427-0.01
				c-2.793-0.029-5.567-0.012-8.319-0.137c-2.752-0.076-5.512-0.152-8.271-0.23c-2.763-0.068-5.524-0.273-8.296-0.404
				c-5.544-0.229-11.089-0.752-16.659-1.184c-11.123-1.072-22.299-2.441-33.477-4.273c-11.199-1.709-22.391-3.92-33.646-6.154
				c-11.229-2.359-22.521-4.809-33.841-7.457c-11.27-2.811-22.61-5.645-34.021-8.498c-2.856-0.688-5.7-1.449-8.578-2.088
				c-2.875-0.648-5.754-1.305-8.639-1.957c-5.766-1.311-11.543-2.648-17.381-3.789c-2.914-0.594-5.832-1.188-8.754-1.783
				c-2.924-0.592-5.844-1.219-8.793-1.721c-5.888-1.057-11.792-2.111-17.713-3.176c-5.944-0.918-11.905-1.84-17.883-2.762
				l-4.488-0.674l-4.508-0.572c-3.008-0.379-6.021-0.76-9.037-1.139c-24.099-3.439-48.652-5.242-73.506-5.99
				c-24.838-1.006-49.904-2.145-75.22-3.471c-12.663-0.402-25.386-0.807-38.161-1.211c-3.195-0.084-6.408-0.256-9.53-0.238
				c-3.138,0.033-6.252,0.307-9.276,0.938c-3.012,0.664-5.926,1.703-8.614,3.182c-1.331,0.762-2.644,1.566-3.858,2.518l-0.92,0.701
				l-0.88,0.756c-0.555,0.482-1.244,1.043-1.919,1.588c-1.346,1.096-2.897,1.955-4.523,2.662c-1.677,0.588-3.438,1.086-5.277,1.035
				c-0.912,0.072-1.821-0.137-2.73-0.238c-0.443-0.115-0.885-0.252-1.326-0.379c-0.449-0.109-0.869-0.295-1.281-0.5
				c-1.712-0.705-3.147-1.904-4.396-3.201c-2.418-2.713-3.759-6.129-4.303-9.531c-0.492-3.275-0.867-6.459-1.301-9.699
				c-0.403-3.23-0.863-6.455-1.211-9.701c-0.334-3.246-0.669-6.496-1.004-9.75c-0.75-6.496-1.059-13.057-1.492-19.607
				c-3.351-52.428-0.522-105.645-0.23-159.496c2.562-54.873,3.671-109.156,4.971-162.662c0.644-13.383,1.184-26.717,1.651-40
				c0.552-13.281,1.067-26.518,1.479-39.693c0.805-26.357,1.016-52.539-0.445-78.416c-0.128-3.236-0.255-6.471-0.384-9.699
				c-0.146-3.23-0.468-6.441-0.696-9.658c-0.256-3.215-0.515-6.426-0.771-9.635c-0.272-3.236-0.475-6.498-0.389-9.734
				c0.075-6.484,0.779-12.893,1.431-19.26c0.306-3.211,1.002-6.494,2.413-9.471c1.372-2.988,3.523-5.662,6.276-7.551
				c2.742-1.924,6.215-2.705,9.521-2.438c0.828,0.068,1.643,0.26,2.457,0.396l2.357,0.727l4.48,1.48
				c6.021,1.799,12.182,3.129,18.416,3.742c6.231,0.627,12.492,0.783,18.732,0.576c6.24-0.254,12.456-0.795,18.648-1.473
				c12.407-1.273,24.771-2.98,37.174-3.672c6.183-0.316,12.344-0.693,18.495-0.951c6.151-0.213,12.282-0.527,18.402-0.658
				c24.478-0.67,48.695-0.502,72.592,0.656c23.903,0.967,47.484,3.361,70.509,7.266c23.022,3.896,45.479,9.309,67.148,16.113
				c10.853,3.355,21.369,7.613,31.843,11.348c10.449,3.762,21.137,6.68,31.904,8.732c10.765,2.088,21.563,3.535,32.317,4.537
				c2.689,0.219,5.377,0.438,8.059,0.656c2.688,0.182,5.37,0.357,8.047,0.541c5.355,0.355,10.689,0.68,16.005,0.947
				c21.229,1.4,42.128,2.408,62.653,2.459c2.566,0,5.127,0.01,7.682,0.01c2.555,0.01,5.101-0.107,7.643-0.156
				c5.081-0.129,10.144-0.209,15.166-0.553c5.023-0.307,10.041-0.461,14.987-1.031c2.479-0.238,4.949-0.477,7.417-0.715
				c2.463-0.271,4.905-0.67,7.351-0.998c19.55-2.754,38.448-7.164,56.809-11.912c9.181-2.389,18.239-4.846,27.194-7.287
				c8.914-2.572,17.729-5.115,26.438-7.627c4.35-1.279,8.693-2.469,12.973-3.803c4.281-1.322,8.536-2.641,12.767-3.943
				c8.455-2.617,16.81-5.203,25.055-7.754c16.501-5.092,32.522-10.209,48.275-14.672c3.929-1.146,7.827-2.279,11.7-3.408
				c3.88-1.109,7.705-2.295,11.554-3.297c7.673-2.102,15.248-4.045,22.642-6.148c3.719-0.988,7.332-2.182,10.957-3.252
				c3.604-1.129,7.117-2.41,10.637-3.59c1.724-0.686,3.438-1.363,5.146-2.041c0.854-0.34,1.705-0.678,2.557-1.014
				c0.854-0.332,1.703-0.666,2.519-1.072c1.647-0.771,3.291-1.539,4.926-2.303c1.636-0.764,3.279-1.494,4.814-2.41
				c1.628-0.893,3.244-1.777,4.852-2.656c0.811-0.441,1.616-0.885,2.422-1.322l1.289-0.682l0.646-0.336l0.687-0.262l1.366-0.521
				c0.475-0.131,0.955-0.23,1.432-0.348l0.716-0.166l0.734-0.068c0.491-0.037,0.979-0.104,1.474-0.105
				c1.979,0.01,3.938,0.496,5.692,1.367c1.759,0.893,3.188,2.248,4.375,3.717c0.533,0.779,1.103,1.539,1.483,2.389
				c0.466,0.814,0.769,1.686,1.084,2.549c0.326,0.857,0.474,1.76,0.714,2.635c0.13,0.891,0.28,1.779,0.362,2.668
				c0.032,0.885,0.096,1.791,0.1,2.646c0,0.852-0.01,1.699-0.01,2.545c-0.017,13.523-0.031,26.361-0.046,38.6
				c-0.01,24.473,0,46.539-0.202,66.885c-0.404,74.287-0.61,118.33-0.471,125.354l0.01,0.287l-0.299,0.014
				c-0.406,0.016-0.695,0.023-0.884,0.031c-0.194,0.012-0.281,0.018-0.281,0.025l0,0H1260.672z"/>
		</g>
	</g>
</g>
<path id="path4327" fill="#ED2224" d="M1244.794,3318.354c-4.826,2.293-7.688,3.785-10.654,5.027
	c-9.027,3.766-17.855,8.305-27.172,10.93c-14.85,4.174-30.291,6.148-45.029,10.641c-28.023,8.539-55.559,18.83-83.618,27.227
	c-28.062,8.395-56.317,16.357-84.87,22.656c-26.248,5.799-52.932,12.166-79.537,12.871c-43.947,1.168-88.088-0.469-131.932-3.973
	c-25.913-2.062-51.992-7.938-76.932-15.75c-35.012-10.963-69.428-24.73-105.992-28.027c-39.717-3.576-79.653-4.738-119.521-5.838
	c-19.732-0.539-40.057-1.25-59.17,2.859c-28.082,6.025-55.27,7.469-82.512-1.934c-8.125-2.805-8.502,0.346-7.694,7.309
	c1.876,16.324,4.099,32.689,4.515,49.092c0.717,28.779,0.73,57.602,0.016,86.387c-0.752,30.385-2.877,60.732-4.076,91.107
	c-1.485,37.814-3.312,75.639-3.795,113.469c-0.631,50.979-0.275,101.965-0.025,152.949c0.104,23.35,0.979,46.691,1.535,71.391
	c7.473-2.088,13.021-4.809,18.656-5.01c24.838-0.904,49.803-2.652,74.541-1.174c46.768,2.797,93.59,6.217,140.076,12
	c37.236,4.643,74.117,12.643,110.979,20.082c36.182,7.301,71.841,18.957,108.312,22.865c37.464,4.016,75.743,2.701,113.487,0.496
	c34.875-2.037,69.604-7.645,104.215-12.959c39.328-6.039,77.994-15.197,116.385-26.438c43.646-12.773,88.168-22.377,130.586-39.488
	c2.885-1.16,6.529-4.068,7.094-6.783c1.201-5.691,0.99-11.82,0.646-17.721c-2.109-35.998-4.926-71.963-6.537-107.99
	c-1.396-31.072-2.034-62.215-2.084-93.322c-0.191-97.068,0.035-194.131,0.111-291.197
	C1244.808,3360.204,1244.794,3340.307,1244.794,3318.354L1244.794,3318.354z"/>
<path id="path4329" fill="#FFFFFF" stroke="#000000" stroke-width="20" stroke-miterlimit="10" d="M565.463,3731.877
	c21.678-0.023,43.319,5.949,65.073,6.73c19.744,0.43,39.562-1.916,59.393-2.949c19.742-1.166,30.179-0.74,35.419,4.045
	c5.238,4.893,5.312,14.02,4.271,31.738c-0.143,2.389-0.183,3.596-0.447,5.59c-1.575,11.463-2.281,22.195-2.368,33.172
	c-0.07,10.383,0.447,22.455,1.469,32.658c1.006,10.881,2.436,22.648,4.157,33.324c1.698,11.262,3.645,23.041,5.711,33.627
	c15.269-2.568,30.298-2.051,45.365-3.951c15.041-1.316,29.972-2.172,44.854-3.912c0.637-1.242,1.372-2.129,1.271-3.322
	c-3.931-25.668-2.713-51.043-2.231-76.824c0.474-25.27,0.226-51.584-6.73-76.699c-2.404-8.795,1.202-14.984,14.43-14.871
	c13.902,0.643,27.953-1.133,41.774-1.525c17.539-1.695,35.026-2.75,52.593-4.561c17.549-1.518,35.15-3.326,52.833-4.777
	c0.882-21.611,1.708-40.748,2.436-60.488c0.359-10.027-4.551-15.398-16.128-15.127c-17.019,0.406-34.062,0.77-50.98,2.086
	c-22.749,1.773-45.354,4.879-68.122,6.477c-5.55,0.383-14.47-1.416-16.675-4.758c-6.483-9.887-14.188-20.963-14.618-31.73
	c-1.43-35.799,0.03-71.648,0.547-107.506c0.158-10.988,0.864-21.975,1.349-33.891c-26.13,0.898-50.539,1.742-73.979,2.543
	c-2.341,57.465-4.594,112.773-6.891,168.975c-16.51,0.672-33.019,1.756-49.531,1.953c-22.71,0.607-45.396,0.486-68.104,1.043
	c-22.699,0.252-28.828,0.705-51.553,1.234L565.463,3731.877L565.463,3731.877z"/>
<path id="path4331" fill="none" d="M1244.794,3318.354c-4.826,2.293-7.688,3.785-10.654,5.027
	c-9.027,3.766-17.855,8.305-27.172,10.93c-14.85,4.174-30.291,6.148-45.029,10.641c-28.023,8.539-55.559,18.83-83.618,27.227
	c-28.062,8.395-56.317,16.357-84.87,22.656c-26.248,5.799-52.932,12.166-79.537,12.871c-43.947,1.168-88.088-0.469-131.932-3.973
	c-25.913-2.062-51.992-7.938-76.932-15.75c-35.012-10.963-69.428-24.73-105.992-28.027c-39.717-3.576-79.653-4.738-119.521-5.838
	c-19.732-0.539-40.057-1.25-59.17,2.859c-28.082,6.025-55.27,7.469-82.512-1.934c-8.125-2.805-8.502,0.346-7.694,7.309
	c1.876,16.324,4.099,32.689,4.515,49.092c0.717,28.779,0.73,57.602,0.016,86.387c-0.752,30.385-2.877,60.732-4.076,91.107
	c-1.485,37.814-3.312,75.639-3.795,113.469c-0.631,50.979-0.275,101.965-0.025,152.949c0.104,23.35,0.979,46.691,1.535,71.391
	c7.473-2.088,13.021-4.809,18.656-5.01c24.838-0.904,49.803-2.652,74.541-1.174c46.768,2.797,93.59,6.217,140.076,12
	c37.236,4.643,74.117,12.643,110.979,20.082c36.182,7.301,71.841,18.957,108.312,22.865c37.464,4.016,75.743,2.701,113.487,0.496
	c34.875-2.037,69.604-7.645,104.215-12.959c39.328-6.039,77.994-15.197,116.385-26.438c43.646-12.773,88.168-22.377,130.586-39.488
	c2.885-1.16,6.529-4.068,7.094-6.783c1.201-5.691,0.99-11.82,0.646-17.721c-2.109-35.998-4.926-71.963-6.537-107.99
	c-1.396-31.072-2.034-62.215-2.084-93.322c-0.191-97.068,0.035-194.131,0.111-291.197
	C1244.808,3360.204,1244.794,3340.307,1244.794,3318.354L1244.794,3318.354z"/>
</svg>
