<?xml version="1.0" encoding="utf-8"?>
<!-- Generator: Adobe Illustrator 16.0.1, SVG Export Plug-In . SVG Version: 6.00 Build 0)  -->
<!DOCTYPE svg PUBLIC "-//W3C//DTD SVG 1.1//EN" "http://www.w3.org/Graphics/SVG/1.1/DTD/svg11.dtd">
<svg version="1.1" id="Layer_1" xmlns="http://www.w3.org/2000/svg" xmlns:xlink="http://www.w3.org/1999/xlink" x="0px" y="0px"
	 width="960px" height="705px" viewBox="0 0 960 705" enable-background="new 0 0 960 705" xml:space="preserve">
<path d="M35.646,96.399c-2.544-0.695-3.457-1.199-4.356-1.162C11.889,96.042,5.904,91.196,0.978,70.632
	C-2.099,57.8,2.052,49.51,13.846,47.383c29-5.241,58.076-9.913,87.135-14.722c22.409-3.693,44.789-7.717,67.266-10.735
	c24.303-3.249,48.675-5.89,73.062-8.077c42.508-3.811,85.001-8.567,127.595-10.201c61.536-2.363,123.154-2.382,184.732-3.204
	c25.121-0.337,50.271-0.773,75.376-0.056c43.561,1.244,87.103,3.549,130.661,4.901c7.388,0.222,15.006-1.294,22.205-3.403
	c8.067-2.35,15.232-1.616,23.463,0.521c14.604,3.812,29.828,4.972,44.852,6.057c6.908,0.492,13.348,0.104,17.343,7.805
	c5.262,10.146,11.732,20.039,8.489,32.845c-2.18,8.619-8.984,12.69-17.873,11.635c-7.934-0.926-15.858-1.817-24.587-2.804
	c-0.545,4.508-1.586,7.642-1.16,10.483c11.101,73.305,10.896,147.498,14.492,221.431c3.016,62.114,6.745,124.379,18.881,185.449
	c4.26,21.451,8.011,43.039,11.919,64.59c1.393,7.66,4.74,13.502,10.062,18.752c9.588,9.473,15.207,21.463,14.492,36.551
	c-1.293,27.062-0.626,34.963,29.963,30.768c4.381-0.602,9.771,0.049,13.406,2.533c8.121,5.541,16.123,32.314,14.048,43.303
	c-1.999,10.561-10.905,18.162-19.847,14.885c-10.158-3.715-21.407-1.402-31.049-9.373c-4.199-3.48-11.946-1.508-18.094-1.895
	c-14.125-0.891-28.261-1.84-42.399-2.516c-22.2-1.043-44.412-1.916-66.633-2.824c-46.862-1.906-93.729-5.107-140.608-5.318
	c-53.479-0.262-107.017,1.168-160.456,3.701c-40.161,1.908-80.236,6.512-120.319,10.305c-35.883,3.385-71.764,6.943-107.587,11.102
	c-24.491,2.846-48.846,7.127-73.327,10.166c-11.657,1.451-23.466,1.314-35.199,2.244c-8.421,0.666-16.805,2.648-25.216,2.719
	c-16.704,0.135-21.725-5.068-26.097-22.711c-9.743-39.305-18.454-78.836-22.577-119.477c-1.686-16.521-3.043-33.078-4.484-49.627
	c-0.229-2.67-0.017-5.379-0.171-8.059c-3.177-52.432-6.49-104.832-9.515-157.276c-2.678-46.557-4.406-93.197-7.708-139.699
	c-2.392-33.658-6.627-67.162-10.171-100.725C37.832,103.81,36.578,100.308,35.646,96.399z M850.867,621.703
	c-0.558-4.934-0.648-8.086-1.29-11.076c-6.736-31.287-14.885-62.277-20.085-93.885c-9.197-55.914-18.395-111.885-21.168-168.911
	c-2.647-54.086-6.099-108.122-9.267-162.168c-2.356-40.148-3.381-80.472-13.041-119.633c-3.651-14.836-5.379-16.984-19.349-17.777
	c-10.4-0.6-20.837-0.426-31.246-1.044c-31.186-1.856-62.354-5.087-93.566-5.669c-51.611-0.977-103.25-0.6-154.869-0.232
	c-36.455,0.271-72.908,1.189-109.349,2.359c-23.663,0.775-47.385,1.589-70.936,4.064c-31.1,3.268-62.114,7.738-93.071,12.514
	c-39.854,6.134-79.62,12.98-119.397,19.752c-11.8,2.011-12.561,3.712-10.956,16.77c0.65,5.31,1.171,10.658,1.487,16.008
	c1.494,25.146,2.921,50.303,4.348,75.451c2.432,42.807,5.052,85.616,7.215,128.443c1.494,29.47,1.723,59.038,3.637,88.459
	c3.203,49.18,6.712,98.365,11.307,147.4c1.81,19.32,3.125,39.383,16.455,55.207c3.986,4.738,4.107,13.811,5.602,21.006
	c1.034,4.973,1.375,10.119,1.956,14.645c9.256,0.842,16.79,2.34,24.269,2.07c24.583-0.889,49.168-2.012,73.711-3.791
	c39.666-2.854,79.279-6.441,118.938-9.467c40.151-3.068,80.295-6.764,120.508-8.479c55.402-2.348,110.857-3.549,166.295-4.396
	c39.318-0.602,78.658-0.135,117.98,0.502c26.517,0.424,53.013,2.051,79.526,2.951C841.027,622.929,845.555,622.128,850.867,621.703z
	"/>
<g>
	<g>
		<defs>
			<path id="SVGID_1_" d="M858.491,627.228c-5.418,0.438-10.035,1.254-14.641,1.098c-27.041-0.918-54.062-2.576-81.105-3.01
				c-40.104-0.648-80.224-1.123-120.322-0.512c-56.538,0.865-113.094,2.09-169.596,4.484c-41.011,1.748-81.95,5.516-122.899,8.645
				c-40.444,3.086-80.846,6.746-121.299,9.654c-25.029,1.814-50.104,2.961-75.174,3.867c-7.627,0.273-15.311-1.252-24.75-2.111
				c-0.593-4.615-0.94-9.863-1.995-14.936c-1.524-7.338-1.647-16.588-5.713-21.422c-13.595-16.141-14.937-36.598-16.781-56.305
				c-4.903-52.316-8.171-98.732-11.531-150.324c-1.952-30.006-2.185-60.161-3.709-90.216c-2.206-43.677-4.878-87.337-7.358-130.993
				c-1.455-25.647-2.91-51.303-4.434-76.949c-0.322-5.455-0.854-10.91-1.517-16.325c-1.637-13.316-0.86-15.052,11.173-17.103
				c40.567-6.905,81.123-13.889,121.768-20.144c31.572-4.87,63.202-9.43,94.919-12.763c24.019-2.524,48.211-3.354,72.343-4.145
				c37.164-1.193,74.34-2.131,111.519-2.406c52.646-0.375,105.309-0.759,157.943,0.237c31.833,0.593,63.62,3.888,95.425,5.781
				c10.615,0.63,21.26,0.453,31.866,1.064c14.247,0.809,16.008,3,19.732,18.13c9.853,39.939,10.896,81.062,13.3,122.008
				c3.229,55.119,6.75,110.228,9.448,165.387c2.83,58.158,12.209,115.24,21.589,172.263c5.305,32.234,13.613,63.842,20.483,95.748
				C857.83,618.984,857.924,622.201,858.491,627.228z"/>
		</defs>
		<clipPath id="SVGID_2_">
			<use xlink:href="#SVGID_1_"  overflow="visible"/>
		</clipPath>
		<g clip-path="url(#SVGID_2_)">
			<polygon fill="#ED1C24" points="898.674,207.361 886.534,-6.171 28.318,56.436 40.458,269.96 			"/>
			<polygon fill="#FFFFFF" points="910.83,421.232 898.693,207.698 40.477,270.297 52.623,483.83 			"/>
			<polygon fill="#2E3192" points="923.031,635.773 910.85,421.556 52.642,484.152 64.814,698.371 			"/>
			<path fill="none" stroke="#000000" stroke-width="0.5" d="M923.27,635.417L886.786-6.183L28.318,56.436l36.48,641.599
				L923.27,635.417L923.27,635.417z"/>
		</g>
	</g>
	<g>
		<defs>
			<path id="SVGID_3_" d="M858.491,627.228c-5.418,0.438-10.035,1.254-14.641,1.098c-27.041-0.918-54.062-2.576-81.105-3.01
				c-40.104-0.648-80.224-1.123-120.322-0.512c-56.538,0.865-113.094,2.09-169.596,4.484c-41.011,1.748-81.95,5.516-122.899,8.645
				c-40.444,3.086-80.846,6.746-121.299,9.654c-25.029,1.814-50.104,2.961-75.174,3.867c-7.627,0.273-15.311-1.252-24.75-2.111
				c-0.593-4.615-0.94-9.863-1.995-14.936c-1.524-7.338-1.647-16.588-5.713-21.422c-13.595-16.141-14.937-36.598-16.781-56.305
				c-4.903-52.316-8.171-98.732-11.531-150.324c-1.952-30.006-2.185-60.161-3.709-90.216c-2.206-43.677-4.878-87.337-7.358-130.993
				c-1.455-25.647-2.91-51.303-4.434-76.949c-0.322-5.455-0.854-10.91-1.517-16.325c-1.637-13.316-0.86-15.052,11.173-17.103
				c40.567-6.905,81.123-13.889,121.768-20.144c31.572-4.87,63.202-9.43,94.919-12.763c24.019-2.524,48.211-3.354,72.343-4.145
				c37.164-1.193,74.34-2.131,111.519-2.406c52.646-0.375,105.309-0.759,157.943,0.237c31.833,0.593,63.62,3.888,95.425,5.781
				c10.615,0.63,21.26,0.453,31.866,1.064c14.247,0.809,16.008,3,19.732,18.13c9.853,39.939,10.896,81.062,13.3,122.008
				c3.229,55.119,6.75,110.228,9.448,165.387c2.83,58.158,12.209,115.24,21.589,172.263c5.305,32.234,13.613,63.842,20.483,95.748
				C857.83,618.984,857.924,622.201,858.491,627.228z"/>
		</defs>
		<clipPath id="SVGID_4_">
			<use xlink:href="#SVGID_3_"  overflow="visible"/>
		</clipPath>
		<path clip-path="url(#SVGID_4_)" d="M881.143,228.59c-34.304,1.923-68.547,3.985-102.811,6.056
			c-35.293,2.132-70.609,4.243-105.861,6.51c-39.312,2.506-78.485,5.464-117.865,7.716c-70.213,3.993-140.545,7.582-210.817,11.401
			c-29.846,1.607-59.639,3.453-89.492,4.991c-26.841,1.401-53.768,2.405-80.582,3.828c-33.853,1.793-67.652,3.807-101.426,5.858
			c-4.457,0.277-8.742,1.203-12.992,1.954c-16.879,2.978-28.479-4.757-26.614-10.575c0.854-2.682,1.307-5.395,1.689-8.107
			c0.54-3.809,4.146-5.877,12.679-6.648c3.973-0.356,8.127-0.277,12.177-0.454c29.905-1.311,59.812-2.645,89.7-3.966
			c21.809-0.946,43.633-1.834,65.422-2.86c31.892-1.509,63.739-3.175,95.643-4.666c29.827-1.391,59.723-2.506,89.524-3.995
			c35.42-1.774,70.785-3.728,106.118-5.799c23.712-1.382,47.332-3.066,70.969-4.696c21.146-1.469,42.223-3.097,63.34-4.587
			c38.659-2.731,77.396-5.247,115.977-8.186c26.501-2.022,52.697-4.824,79.199-6.856c21.578-1.648,43.387-2.643,65.105-3.976"/>
	</g>
	<g>
		<defs>
			<path id="SVGID_5_" d="M858.491,627.228c-5.418,0.438-10.035,1.254-14.641,1.098c-27.041-0.918-54.062-2.576-81.105-3.01
				c-40.104-0.648-80.224-1.123-120.322-0.512c-56.538,0.865-113.094,2.09-169.596,4.484c-41.011,1.748-81.95,5.516-122.899,8.645
				c-40.444,3.086-80.846,6.746-121.299,9.654c-25.029,1.814-50.104,2.961-75.174,3.867c-7.627,0.273-15.311-1.252-24.75-2.111
				c-0.593-4.615-0.94-9.863-1.995-14.936c-1.524-7.338-1.647-16.588-5.713-21.422c-13.595-16.141-14.937-36.598-16.781-56.305
				c-4.903-52.316-8.171-98.732-11.531-150.324c-1.952-30.006-2.185-60.161-3.709-90.216c-2.206-43.677-4.878-87.337-7.358-130.993
				c-1.455-25.647-2.91-51.303-4.434-76.949c-0.322-5.455-0.854-10.91-1.517-16.325c-1.637-13.316-0.86-15.052,11.173-17.103
				c40.567-6.905,81.123-13.889,121.768-20.144c31.572-4.87,63.202-9.43,94.919-12.763c24.019-2.524,48.211-3.354,72.343-4.145
				c37.164-1.193,74.34-2.131,111.519-2.406c52.646-0.375,105.309-0.759,157.943,0.237c31.833,0.593,63.62,3.888,95.425,5.781
				c10.615,0.63,21.26,0.453,31.866,1.064c14.247,0.809,16.008,3,19.732,18.13c9.853,39.939,10.896,81.062,13.3,122.008
				c3.229,55.119,6.75,110.228,9.448,165.387c2.83,58.158,12.209,115.24,21.589,172.263c5.305,32.234,13.613,63.842,20.483,95.748
				C857.83,618.984,857.924,622.201,858.491,627.228z"/>
		</defs>
		<clipPath id="SVGID_6_">
			<use xlink:href="#SVGID_5_"  overflow="visible"/>
		</clipPath>
		<path clip-path="url(#SVGID_6_)" d="M881.143,438.199c-34.304,1.914-68.547,3.975-102.811,6.037
			c-35.293,2.131-70.609,4.26-105.861,6.51c-39.312,2.516-78.485,5.475-117.865,7.713c-70.213,4.004-140.545,7.596-210.817,11.404
			c-29.846,1.613-59.639,3.451-89.492,5c-26.841,1.398-53.768,2.396-80.582,3.828c-33.853,1.803-67.652,3.814-101.426,5.855
			c-4.457,0.27-8.742,1.193-12.992,1.945c-16.879,2.998-28.479-4.756-26.614-10.574c0.854-2.676,1.307-5.389,1.689-8.088
			c0.54-3.828,4.146-5.898,12.679-6.658c3.973-0.355,8.127-0.277,12.177-0.453c29.905-1.314,59.812-2.656,89.7-3.957
			c21.809-0.967,43.633-1.854,65.422-2.881c31.892-1.502,63.739-3.168,95.643-4.654c29.827-1.402,59.723-2.506,89.524-4.006
			c35.42-1.775,70.785-3.717,106.118-5.791c23.712-1.391,47.332-3.066,70.969-4.705c21.146-1.459,42.223-3.086,63.34-4.576
			c38.659-2.74,77.396-5.244,115.977-8.186c26.501-2.014,52.697-4.814,79.199-6.846c21.578-1.658,43.387-2.654,65.105-3.984"/>
	</g>
</g>
</svg>
