<?xml version="1.0" encoding="utf-8"?>
<!-- Generator: Adobe Illustrator 16.0.1, SVG Export Plug-In . SVG Version: 6.00 Build 0)  -->
<!DOCTYPE svg PUBLIC "-//W3C//DTD SVG 1.1//EN" "http://www.w3.org/Graphics/SVG/1.1/DTD/svg11.dtd">
<svg version="1.1"
	 id="Layer_1" xmlns:dc="http://purl.org/dc/elements/1.1/" xmlns:cc="http://creativecommons.org/ns#" xmlns:rdf="http://www.w3.org/1999/02/22-rdf-syntax-ns#" xmlns:svg="http://www.w3.org/2000/svg"
	 xmlns="http://www.w3.org/2000/svg" xmlns:xlink="http://www.w3.org/1999/xlink" x="0px" y="0px" width="960.002px"
	 height="705.002px" viewBox="7666.884 3328.001 960.002 705.002" enable-background="new 7666.884 3328.001 960.002 705.002"
	 xml:space="preserve">
<g id="g1271">
	<path id="path1273" fill="#E21F26" d="M7693.684,3350.541c-4.916,3.445,22.608,481.422,60.944,519.34
		c0,0,19.653,13.787,124.834,71.236c105.187,57.459,273.276,89.633,368.625,56.309c95.355-33.323,321.44-172.352,338.151-199.932
		c0,0-72.738-42.514-119.927-220.604c-2.953-4.604-46.195-205.677-46.195-205.677s-85.523,48.261-88.477,50.562
		c-2.947,2.295-180.87,81.576-183.815,81.576c-2.949,0-130.736,9.19-130.736,9.19l-127.789-41.365l-161.211-101.112
		L7693.684,3350.541L7693.684,3350.541z"/>
	<path id="path1275" d="M8424.463,3396.222c-19.549,12.806-36.654,24.705-54.578,35.55c-15.477,9.352-31.77,17.678-47.918,26.141
		c-20.033,10.488-40.496,20.344-60.389,31.031c-24.486,13.168-49.824,25.238-76.854,33.209
		c-17.899,5.281-36.635,9.899-56.168,10.695c-20.642,0.842-41.223,3.026-61.804,4.812c-24.136,2.084-47.373-1.328-70.095-8.248
		c-24.86-7.562-49.778-15.006-74.49-22.93c-7.01-2.24-13.643-5.64-20.055-9.068c-13.438-7.172-26.664-14.664-39.896-22.147
		c-12.276-6.941-24.838-13.568-36.561-21.177c-13.809-8.975-26.855-18.856-40.244-28.327c-6.729-4.771-13.588-9.404-20.209-14.293
		c-11.721-8.648-23.242-17.519-34.979-26.15c-5.695-4.201-11.701-8.078-19.301-13.297c-0.938,5.336-2.188,9.059-2.142,12.758
		c0.172,13.555,0.562,27.105,1.271,40.637c1.459,28.396,2.78,56.803,4.928,85.152c1.225,16.141,3.812,32.205,6.061,48.275
		c2.068,14.741,4.349,29.479,6.818,44.174c1.367,8.156,3.391,16.229,5.021,24.358c5.104,25.377,10.354,50.73,15.172,76.154
		c4.881,25.731,8.984,51.588,14.146,77.283c1.733,8.641,5.054,17.157,8.78,25.332c3.447,7.561,2.629,14.571-2.123,20.789
		c-2.371,3.104-7.639,4.502-13.373,7.659c0.127,2.058-0.463,6.117,0.779,9.693c2.465,7.072,1.586,13.404-4.814,18.031
		c-7.469,5.396-16.084,3.291-23.483-0.201c-6.957-3.266-12.194-7.822-11.752-16.303c1.162-22.02-4.815-43.371-9.586-64.787
		c-9.41-42.236-16.533-84.768-21.871-127.551c-5.261-42.15-7.797-84.404-9.024-126.764c-1.31-45.193-3.146-90.382-5.008-135.566
		c-0.41-9.908-0.793-20.004-3.236-29.604c-2.299-9.043,2.277-14.402,8.693-19.816c1.862-1.574,4.791-3.041,5.223-4.91
		c1.367-6.041,6.473-9.021,11.943-8.805c5.119,0.207,10.961,2.695,14.906,5.736c7.598,5.887,13.965,12.951,21.035,19.369
		c23.055,20.93,48.49,39.541,73.562,58.555c33.908,25.711,72.195,45.504,110.75,64.936c11.215,5.654,24.295,8.496,36.584,12.48
		c9.5,3.088,19.238,5.66,28.615,9.004c22.801,8.123,46.039,11.66,70.801,8.949c26.562-2.91,53.414-3.752,79.967-6.664
		c19.115-2.095,37.723-6.98,55.064-14.58c21.229-9.291,42.268-18.931,63.145-28.814c12.592-5.961,24.791-12.588,37.037-19.092
		c21.924-11.639,44.408-22.582,65.438-35.354c21.039-12.78,40.65-27.368,60.693-41.387c2.498-1.738,3.781-4.805,5.67-7.236
		c3.904-5.021,7.393-6.465,13.426-3.646c16.531,7.746,26.705,15.309,26.402,32.111c-0.332,18.088,2.867,36.229,4.592,54.332
		c2.135,22.389,4.129,44.791,6.586,67.155c1.229,11.168,3.039,22.318,5.156,33.396c2.344,12.318,4.359,24.799,8.277,36.762
		c6.014,18.342,12.467,36.699,20.665,54.361c10.078,21.701,21.84,42.822,33.488,63.938c5.363,9.74,11.605,19.207,18.57,28.127
		c3.689,4.719,9.621,8.164,14.84,11.854c3.488,2.473,7.617,4.239,11.246,6.58c6.355,4.086,11.727,9.028,9.531,16.61
		c-2.133,7.377-8.922,11.354-16.668,13.47c-9.5,2.596-18.25,0.61-24.082-6.72c-12.488-15.678-26.016-30.942-36.367-47.68
		c-15.069-24.352-28.63-49.52-41.181-74.967c-15.264-30.953-27.434-62.85-31.676-96.723c-1.637-13.104-5.41-26.01-6.898-39.115
		c-1.48-13.09-0.922-26.336-1.98-39.473c-1.092-13.461-3.172-26.859-4.578-40.305c-0.438-4.195,0.053-8.449-0.166-12.666
		C8425.569,3406.771,8425.021,3402.246,8424.463,3396.222L8424.463,3396.222z"/>
	<path id="path1277" d="M8622.705,3815.179c-15.033-1.071-25.055,7.367-35.244,14.181c-21.531,14.389-41.994,29.975-63.131,44.823
		c-21.137,14.859-42.279,29.74-63.936,44.013c-23.785,15.686-47.664,31.348-72.434,45.797
		c-26.932,15.709-53.775,31.711-83.615,43.193c-29.963,11.539-61.432,18.057-93.688,21.92c-14.549,1.735-29.271,4.262-43.806,3.854
		c-28.875-0.818-58.092,0.633-86.351-7.014c-7.842-2.123-16.246-2.603-24.293-4.232c-5.797-1.18-11.459-2.947-17.125-4.586
		c-13.226-3.809-26.497-7.508-39.584-11.639c-6.271-1.979-12.133-4.92-18.248-7.283c-17.174-6.633-34.644-12.719-51.497-19.908
		c-22.881-9.756-45.339-20.258-66.355-32.963c-12.359-7.467-25.1-14.448-37.44-21.938c-9.258-5.613-17.873-12.078-27.295-17.461
		c-8.067-4.611-16.935-8.125-25.345-12.295c-4.531-2.256-10.955-3.992-12.817-7.483c-3.396-6.363-5.655-13.898-5.425-20.875
		c0.299-9.166,16.327-13.205,25.073-6.865c3.74,2.713,7.103,5.832,10.459,8.914c12.024,11.051,26.118,19.785,40.481,28.272
		c7.438,4.386,14.438,9.353,21.69,13.992c17.633,11.274,35.5,22.021,55.242,30.613c11.707,5.098,23.731,9.754,35.125,15.151
		c17.271,8.188,35.056,15.238,53.112,21.57c15.592,5.476,32.265,8.611,48.517,12.596c7.97,1.953,16.076,3.443,24.104,5.197
		c32.189,7.012,64.851,6.75,97.68,5.412c23.884-0.965,47.123-4.973,70.195-9.813c25.457-5.336,49.527-14.312,72.164-25.586
		c38.029-18.937,74.242-40.384,109.068-63.646c27.268-18.203,55.264-35.578,82.338-53.99c16.689-11.354,32.211-24.002,48.338-35.979
		c7.758-5.754,15.766-11.262,23.535-16.998c3.719-2.75,7.34-5.641,10.691-8.721c8.408-7.748,14.893-8.023,24.143-1.021
		c2.834,2.146,6.037,3.932,9.184,5.738c11.748,6.766,13.611,13.113,6.49,25.062L8622.705,3815.179z"/>
	<g id="g1279">
		
			<ellipse id="ellipse1281" transform="matrix(-0.1673 0.9859 -0.9859 -0.1673 12910.2529 -3479.8716)" fill="#FFFFFF" cx="7924.683" cy="3712.088" rx="112.722" ry="127.901"/>
		
			<ellipse id="ellipse1283" transform="matrix(-0.1673 0.9859 -0.9859 -0.1673 12952.2695 -3504.7822)" fill="#E21F26" cx="7956.214" cy="3717.391" rx="90.177" ry="102.321"/>
		<polygon id="polygon1285" fill="#FFFFFF" points="8133.148,3781.05 8077.167,3683.578 8059.23,3789.271 8144.234,3715.727 
			8024.633,3729.031 		"/>
	</g>
</g>
</svg>
