<?xml version="1.0" encoding="utf-8"?>
<!-- Generator: Adobe Illustrator 16.0.1, SVG Export Plug-In . SVG Version: 6.00 Build 0)  -->
<!DOCTYPE svg PUBLIC "-//W3C//DTD SVG 1.1//EN" "http://www.w3.org/Graphics/SVG/1.1/DTD/svg11.dtd">
<svg version="1.1" id="Layer_1" xmlns="http://www.w3.org/2000/svg" xmlns:xlink="http://www.w3.org/1999/xlink" x="0px" y="0px"
	 width="961.432px" height="707.911px" viewBox="0 0 961.432 707.911" enable-background="new 0 0 961.432 707.911"
	 xml:space="preserve">
<g>
	<path fill-rule="evenodd" clip-rule="evenodd" d="M951.139,251.366c1.108,75.055,1.695,150.116,3.528,225.15
		c1.056,42.388,4.082,84.733,6.426,127.086c0.661,11.884-1.014,14.903-15.055,19.178c-40.836,12.449-81.859,24.209-122.613,36.935
		c-47.971,14.992-96.782,25.663-146.262,33.433c-65.633,10.306-131.581,18.604-197.86,10.767
		c-35.872-4.239-71.478-12.56-106.592-21.576c-56.278-14.448-113.128-24.513-170.88-28.221
		c-47.315-3.033-94.728-4.302-142.099-6.418c-10.657-0.476-20.196,0.876-29.021,8.81c-9.298,8.376-20.831,4.129-22.665-8.733
		c-3.315-23.142-6.094-46.571-6.479-69.927c-0.745-44.889-0.234-89.813,0.806-134.702c1.593-68.706,3.826-137.405,6.273-206.084
		c1.758-49.08,4.584-98.099-0.696-147.166c-1.048-9.623,0.083-19.611,1.075-29.331C10.32,47.964,19.538,39.548,30.78,43.76
		c32.371,12.125,64.35,3.212,96.604,1.075c93.529-6.19,185.845-2.585,275.375,32.04c24.457,9.458,51.549,13.663,77.743,15.669
		c42.187,3.219,84.843,5.811,126.893,2.626c35.129-2.654,70.009-12.498,104.338-21.817c48.64-13.194,96.438-29.8,145.07-43.049
		c25.657-6.997,51.411-12.422,74.738-26.657c10.926-6.679,20.735,0.648,20.741,13.967c0.042,77.915,0.014,155.824,0.014,233.739
		C951.918,251.359,951.53,251.359,951.139,251.366z M932.334,26.988c-4.791,2.288-7.632,3.777-10.575,5.018
		c-8.961,3.757-17.723,8.286-26.967,10.905c-14.737,4.164-30.062,6.136-44.689,10.616c-27.814,8.521-55.14,18.791-82.988,27.167
		c-27.85,8.375-55.892,16.323-84.23,22.609c-26.05,5.784-52.527,12.14-78.936,12.843c-43.614,1.165-87.422-0.469-130.933-3.964
		c-25.72-2.061-51.603-7.92-76.351-15.717C361.915,85.526,327.76,71.788,291.472,68.5c-39.416-3.571-79.053-4.729-118.619-5.825
		c-19.584-0.538-39.754-1.248-58.725,2.854c-27.87,6.012-54.851,7.452-81.887-1.93c-8.064-2.799-8.438,0.345-7.638,7.293
		c1.861,16.289,4.067,32.619,4.48,48.984c0.711,28.718,0.725,57.477,0.015,86.201c-0.746,30.316-2.854,60.6-4.047,90.909
		c-1.475,37.734-3.288,75.476-3.764,113.224c-0.627,50.866-0.275,101.745-0.027,152.618c0.104,23.3,0.972,46.593,1.523,71.236
		c7.418-2.082,12.925-4.798,18.516-4.998c24.65-0.903,49.424-2.646,73.98-1.172c46.411,2.792,92.881,6.204,139.016,11.974
		c36.955,4.633,73.56,12.615,110.143,20.039c35.908,7.286,71.299,18.916,107.494,22.817c37.184,4.005,75.172,2.695,112.632,0.496
		c34.611-2.033,69.078-7.631,103.428-12.932c39.03-6.025,77.405-15.166,115.505-26.381c43.316-12.746,87.504-22.328,129.602-39.402
		c2.861-1.158,6.48-4.061,7.037-6.77c1.193-5.68,0.986-11.795,0.643-17.682c-2.096-35.921-4.888-71.808-6.488-107.757
		c-1.385-31.006-2.019-62.081-2.066-93.122c-0.193-96.858,0.034-193.71,0.11-290.568C932.348,68.748,932.334,48.895,932.334,26.988z
		"/>
	<g>
		<path fill="none" d="M951.139,251.366c1.108,75.055,1.695,150.116,3.528,225.15c1.056,42.388,4.082,84.733,6.426,127.086
			c0.661,11.884-1.014,14.903-15.055,19.178c-40.836,12.449-81.859,24.209-122.613,36.935
			c-47.971,14.992-96.782,25.663-146.262,33.433c-65.633,10.306-131.581,18.604-197.86,10.767
			c-35.872-4.239-71.478-12.56-106.592-21.576c-56.278-14.448-113.128-24.513-170.88-28.221
			c-47.315-3.033-94.728-4.302-142.099-6.418c-10.657-0.476-20.196,0.876-29.021,8.81c-9.298,8.376-20.831,4.129-22.665-8.733
			c-3.315-23.142-6.094-46.571-6.479-69.927c-0.745-44.889-0.234-89.813,0.806-134.702c1.593-68.706,3.826-137.405,6.273-206.084
			c1.758-49.08,4.584-98.099-0.696-147.166c-1.048-9.623,0.083-19.611,1.075-29.331C10.32,47.964,19.538,39.548,30.78,43.76
			c32.371,12.125,64.35,3.212,96.604,1.075c93.529-6.19,185.845-2.585,275.375,32.04c24.457,9.458,51.549,13.663,77.743,15.669
			c42.187,3.219,84.843,5.811,126.893,2.626c35.129-2.654,70.009-12.498,104.338-21.817c48.64-13.194,96.438-29.8,145.07-43.049
			c25.657-6.997,51.411-12.422,74.738-26.657c10.926-6.679,20.735,0.648,20.741,13.967c0.042,77.915,0.014,155.824,0.014,233.739
			C951.918,251.359,951.53,251.359,951.139,251.366z M932.334,26.988c-4.791,2.288-7.632,3.777-10.575,5.018
			c-8.961,3.757-17.723,8.286-26.967,10.905c-14.737,4.164-30.062,6.136-44.689,10.616c-27.814,8.521-55.14,18.791-82.988,27.167
			c-27.85,8.375-55.892,16.323-84.23,22.609c-26.05,5.784-52.527,12.14-78.936,12.843c-43.614,1.165-87.422-0.469-130.933-3.964
			c-25.72-2.061-51.603-7.92-76.351-15.717C361.915,85.526,327.76,71.788,291.472,68.5c-39.416-3.571-79.053-4.729-118.619-5.825
			c-19.584-0.538-39.754-1.248-58.725,2.854c-27.87,6.012-54.851,7.452-81.887-1.93c-8.064-2.799-8.438,0.345-7.638,7.293
			c1.861,16.289,4.067,32.619,4.48,48.984c0.711,28.718,0.725,57.477,0.015,86.201c-0.746,30.316-2.854,60.6-4.047,90.909
			c-1.475,37.734-3.288,75.476-3.764,113.224c-0.627,50.866-0.275,101.745-0.027,152.618c0.104,23.3,0.972,46.593,1.523,71.236
			c7.418-2.082,12.925-4.798,18.516-4.998c24.65-0.903,49.424-2.646,73.98-1.172c46.411,2.792,92.881,6.204,139.016,11.974
			c36.955,4.633,73.56,12.615,110.143,20.039c35.908,7.286,71.299,18.916,107.494,22.817c37.184,4.005,75.172,2.695,112.632,0.496
			c34.611-2.033,69.078-7.631,103.428-12.932c39.03-6.025,77.405-15.166,115.505-26.381c43.316-12.746,87.504-22.328,129.602-39.402
			c2.861-1.158,6.48-4.061,7.037-6.77c1.193-5.68,0.986-11.795,0.643-17.682c-2.096-35.921-4.888-71.808-6.488-107.757
			c-1.385-31.006-2.019-62.081-2.066-93.122c-0.193-96.858,0.034-193.71,0.11-290.568C932.348,68.748,932.334,48.895,932.334,26.988
			z"/>
		<g>
			<path fill-rule="evenodd" clip-rule="evenodd" d="M931.985,26.988c0.018,0,0.034,0.168,0.049,0.502
				c0.009,0.334,0.023,0.833,0.042,1.497c0.016,1.327,0.039,3.311,0.069,5.933c0.022,5.244,0.055,13.045,0.099,23.272
				c0.048,20.454,0.118,50.614,0.208,89.436c-0.437,38.803-0.349,86.25,0.205,141.326c0.256,27.529,0.373,56.953,0.351,88.145
				c0.132,15.59,0.268,31.622,0.407,48.08c0.223,8.227,0.448,16.56,0.677,24.996c0.11,4.22,0.221,8.465,0.333,12.736
				c0.138,4.27,0.15,8.572,0.409,12.889c0.903,17.27,1.841,34.951,2.898,53.021c0.581,9.033,1.168,18.164,1.762,27.392
				c0.302,4.613,0.606,9.251,0.911,13.912c0.291,4.663,0.661,9.339,0.865,14.064c0.136,4.734,0.079,9.495-1.018,14.258
				c-0.435,1.195-1.205,2.204-2.077,3.056c-0.854,0.883-1.841,1.612-2.872,2.27c-1.031,0.661-2.193,1.14-3.302,1.555l-3.364,1.301
				c-2.246,0.869-4.497,1.74-6.753,2.613c-2.26,0.864-4.506,1.784-6.814,2.545c-4.592,1.595-9.206,3.196-13.841,4.806
				c-18.646,6.126-37.896,11.503-57.464,16.926c-4.901,1.323-9.823,2.65-14.765,3.984c-4.942,1.329-9.91,2.649-14.873,4.055
				c-9.927,2.793-19.989,5.497-30.105,8.28c-20.252,5.513-40.989,10.432-62.104,15.229l-3.982,0.785
				c-1.329,0.261-2.674,0.442-4.012,0.669c-2.679,0.437-5.362,0.873-8.05,1.312c-5.372,0.896-10.762,1.794-16.172,2.696
				c-10.837,1.651-21.75,3.314-32.736,4.988c-5.498,0.815-11.014,1.633-16.548,2.453l-4.154,0.618l-4.174,0.529
				c-2.785,0.354-5.574,0.711-8.368,1.066c-2.794,0.359-5.592,0.719-8.395,1.078l-4.207,0.544c-1.405,0.169-2.819,0.269-4.23,0.407
				c-5.649,0.521-11.315,1.045-16.999,1.57c-22.765,1.427-45.838,2.352-69.202,2.244c-11.681,0.002-23.426-0.527-35.219-1.283
				c-2.943-0.263-5.891-0.525-8.842-0.789l-4.431-0.396c-1.475-0.165-2.946-0.381-4.421-0.569c-2.949-0.392-5.901-0.782-8.857-1.175
				c-2.944-0.463-5.876-1.022-8.822-1.531c-5.897-0.956-11.722-2.322-17.602-3.507c-2.933-0.623-5.848-1.333-8.779-1.995
				c-2.927-0.676-5.865-1.33-8.787-2.051c-11.713-2.8-23.451-5.709-35.288-8.4c-2.953-0.705-5.934-1.277-8.904-1.926
				c-2.978-0.62-5.941-1.284-8.941-1.868c-5.986-1.205-11.985-2.413-17.999-3.624c-12.024-2.401-24.104-4.814-36.235-7.237
				c-6.093-1.051-12.198-2.104-18.315-3.159c-3.062-0.506-6.111-1.116-9.19-1.543c-3.077-0.437-6.157-0.873-9.24-1.311
				c-6.17-0.852-12.332-1.822-18.539-2.595c-6.22-0.694-12.452-1.391-18.696-2.088c-3.122-0.353-6.246-0.706-9.374-1.059
				l-4.693-0.533l-4.709-0.438c-6.281-0.59-12.574-1.182-18.88-1.773c-3.152-0.301-6.308-0.601-9.467-0.901
				c-3.158-0.306-6.328-0.519-9.497-0.785c-6.338-0.514-12.689-1.028-19.052-1.543c-6.345-0.646-12.715-1.148-19.098-1.618
				c-6.385-0.45-12.781-0.901-19.188-1.353c-1.602-0.101-3.206-0.228-4.809-0.304l-4.811-0.148c-3.209-0.094-6.42-0.188-9.634-0.281
				c-3.212-0.152-6.435-0.047-9.657,0.008c-3.223,0.06-6.448,0.119-9.676,0.178c-12.911,0.412-25.869,1.076-38.883,1.606
				c-0.832,0.018-1.58,0.108-2.356,0.172c-0.771,0.053-1.542,0.257-2.313,0.376c-0.77,0.17-1.538,0.381-2.308,0.572l-2.305,0.699
				l-4.634,1.529l-2.345,0.75l-3.25,0.958l-0.471,0.138l-0.235,0.069l-0.059,0.018c-0.008-0.011-0.003-0.038-0.005-0.057
				l-0.003-0.124l-0.021-0.987l-0.042-1.966l-0.044-2.492l-0.079-4.899c-0.041-3.269-0.081-6.539-0.122-9.812
				c-0.222-12.838-0.443-25.638-0.664-38.396c-0.323-12.763-0.414-25.479-0.589-38.153c-0.302-25.349-0.84-50.52-0.564-75.499
				c0.283-12.501,0.565-24.951,0.847-37.351c0.064-3.099,0.128-6.195,0.192-9.288c0.066-3.093,0.091-6.183,0.243-9.268
				c0.225-6.171,0.45-12.329,0.674-18.474c0.416-12.289,0.69-24.528,0.888-36.719c0.312-12.186,0.466-24.323,0.403-36.416
				c0.753-24.144,2.409-53.063,3.381-79.004c0.277-6.485,0.547-12.788,0.804-18.788c0.251-6,0.603-11.694,0.645-16.975
				c0.227-10.555,0.491-19.419,0.807-25.632c-0.026-2.334-0.054-4.741-0.082-7.215c-0.025-2.474-0.017-5.013-0.121-7.609
				c-0.134-5.194-0.275-10.622-0.42-16.224c-0.111-5.601-0.226-11.376-0.343-17.265c-0.024-1.472-0.049-2.952-0.074-4.438
				l-0.035-2.232l-0.113-2.229c-0.153-2.976-0.307-5.972-0.461-8.982c-0.885-12.038-2.292-24.277-3.62-36.298
				c-0.162-1.493-0.345-3.014-0.407-4.598c-0.039-0.787-0.019-1.614,0.076-2.474c0.14-0.866,0.34-1.842,1.063-2.761
				c0.201-0.213,0.409-0.425,0.629-0.613c0.243-0.153,0.495-0.299,0.75-0.433c0.5-0.187,1.035-0.345,1.493-0.354
				c0.964-0.096,1.785,0.052,2.588,0.199c1.573,0.325,3.037,0.889,4.384,1.321c5.458,1.931,10.964,3.343,16.349,4.401
				c10.782,2.129,21.792,2.592,32.654,2.028c5.433-0.325,10.835-0.905,16.193-1.681c5.366-0.764,10.646-1.848,15.944-2.894
				c10.648-2.151,21.431-2.858,32.086-3.014c10.667-0.14,21.232,0.231,31.712,0.498c5.243,0.134,10.466,0.267,15.67,0.399
				c5.204,0.127,10.388,0.29,15.552,0.496c5.164,0.192,10.308,0.385,15.431,0.575c2.562,0.101,5.119,0.201,7.67,0.302
				c2.551,0.134,5.096,0.268,7.636,0.402c10.159,0.575,20.248,0.917,30.227,1.722c4.995,0.337,9.967,0.673,14.918,1.007
				c4.945,0.291,9.904,0.686,14.811,1.293c19.594,2.946,37.969,8.453,55.664,14.28c17.709,5.827,34.801,12.132,52.069,17.091
				c8.617,2.537,17.301,4.611,25.98,6.521c2.181,0.426,4.359,0.85,6.537,1.273l3.265,0.628l3.28,0.532l6.556,1.046l6.579,0.839
				c2.188,0.309,4.389,0.503,6.589,0.696c2.201,0.188,4.395,0.423,6.6,0.569c4.413,0.261,8.826,0.521,13.243,0.781
				c4.417,0.246,8.836,0.493,13.263,0.74c2.213,0.106,4.426,0.271,6.646,0.324c2.219,0.061,4.44,0.122,6.664,0.184
				c7.271,0.247,14.406,0.489,21.466,0.729c3.528,0.175,7.042,0.153,10.543,0.218c3.501,0.054,6.991,0.107,10.478,0.16
				c3.487,0.062,6.97,0.123,10.458,0.186c1.744,0.023,3.489,0.087,5.236,0.08c1.747-0.016,3.497-0.032,5.249-0.049
				c7.01-0.054,14.068-0.108,21.238-0.164c1.792-0.012,3.592-0.024,5.399-0.037c1.797-0.084,3.602-0.168,5.416-0.253
				c1.812-0.105,3.638-0.132,5.466-0.303c1.828-0.173,3.666-0.345,5.514-0.519c7.395-0.696,14.92-1.869,22.655-3.191
				c3.859-0.722,7.775-1.456,11.748-2.261c3.967-0.84,8.004-1.657,12.1-2.583c8.195-1.807,16.694-3.711,25.469-5.873
				c24.473-6.023,48.188-12.672,70.232-19.207c1.38-0.4,2.753-0.8,4.121-1.197c1.359-0.421,2.711-0.84,4.057-1.257
				c2.691-0.835,5.355-1.663,7.991-2.481c2.636-0.817,5.244-1.626,7.822-2.425c2.577-0.802,5.103-1.667,7.608-2.481
				c10.008-3.314,19.497-6.458,28.342-9.388c2.216-0.717,4.401-1.423,6.555-2.119c2.165-0.667,4.298-1.325,6.399-1.973
				c4.201-1.299,8.276-2.56,12.222-3.78c0.99-0.294,1.955-0.635,2.943-0.886c0.986-0.255,1.964-0.507,2.935-0.758
				c1.939-0.502,3.845-0.995,5.718-1.48c1.865-0.522,3.729-0.877,5.55-1.27c1.821-0.388,3.61-0.769,5.364-1.143
				c7.007-1.512,13.512-2.722,19.347-4.274c1.465-0.363,2.896-0.718,4.292-1.063c0.349-0.087,0.696-0.173,1.041-0.259
				c0.336-0.111,0.67-0.223,1.002-0.332c0.664-0.221,1.319-0.438,1.967-0.653c1.294-0.43,2.554-0.849,3.78-1.256
				c1.199-0.487,2.364-0.962,3.496-1.422c1.131-0.462,2.229-0.911,3.292-1.347c1.052-0.468,2.07-0.921,3.054-1.359
				c1.971-0.876,3.807-1.692,5.507-2.447c1.703-0.754,3.27-1.446,4.698-2.078c1.406-0.658,2.676-1.252,3.808-1.781
				c4.51-2.188,6.805-3.363,6.805-3.363c-0.028-0.059-0.625,0.182-1.782,0.711c-1.148,0.542-2.863,1.352-5.131,2.424
				c-1.131,0.523-2.399,1.111-3.805,1.762c-1.429,0.633-2.997,1.326-4.701,2.08c-1.697,0.762-3.53,1.585-5.498,2.468
				c-0.982,0.443-1.998,0.902-3.046,1.376c-1.059,0.441-2.152,0.896-3.278,1.366c-1.127,0.468-2.288,0.95-3.481,1.446
				c-1.22,0.417-2.474,0.846-3.762,1.285c-0.645,0.221-1.297,0.443-1.958,0.67c-0.331,0.112-0.664,0.227-0.999,0.341
				c-0.343,0.089-0.689,0.179-1.037,0.269c-1.392,0.359-2.818,0.729-4.279,1.105c-5.817,1.612-12.309,2.897-19.296,4.498
				c-1.749,0.396-3.531,0.799-5.347,1.211c-1.814,0.416-3.672,0.796-5.526,1.342c-1.862,0.511-3.758,1.029-5.686,1.557
				c-0.963,0.264-1.936,0.529-2.916,0.798c-0.981,0.264-1.943,0.618-2.928,0.927c-3.925,1.279-7.978,2.6-12.157,3.961
				c-2.089,0.68-4.21,1.37-6.362,2.07c-2.142,0.73-4.315,1.472-6.519,2.223c-8.871,2.855-18.22,5.93-28.035,9.194
				c-2.454,0.815-4.938,1.642-7.453,2.478c-2.525,0.8-5.08,1.609-7.665,2.429c-2.583,0.823-5.196,1.656-7.839,2.499
				c-2.64,0.851-5.312,1.705-8.034,2.5c-21.698,6.615-45.369,13.543-71.133,19.757c-8.457,1.916-16.547,3.64-24.341,5.31
				c-7.79,1.69-15.299,3.245-22.628,4.645c-14.652,2.783-28.652,4.779-42.686,5.193c-7.008,0.141-13.996,0.281-21.058,0.423
				c-3.532,0.063-7.083,0.128-10.664,0.192c-3.581-0.047-7.192-0.094-10.845-0.142c-7.306-0.113-14.782-0.214-22.517-0.415
				c-7.729-0.37-15.719-0.782-24.061-1.251c-8.354-0.241-16.921-0.937-25.685-1.488c-4.38-0.293-8.808-0.59-13.274-0.889
				c-2.234-0.118-4.474-0.402-6.725-0.6c-2.249-0.231-4.515-0.396-6.769-0.729c-2.258-0.298-4.525-0.597-6.799-0.896
				c-2.27-0.324-4.535-0.733-6.813-1.098l-3.419-0.564l-3.411-0.662c-2.275-0.451-4.556-0.902-6.841-1.354
				c-9.107-1.977-18.222-4.266-27.271-6.871c-18.086-5.272-35.871-11.703-53.562-17.262c-17.668-5.585-35.304-10.3-52.55-12.591
				c-8.061-1.184-17.155-1.636-26.812-2.361c-2.416-0.17-4.868-0.342-7.354-0.517c-2.485-0.178-5.002-0.363-7.554-0.458
				c-5.1-0.238-10.311-0.482-15.593-0.729c-10.56-0.573-21.425-0.854-32.26-1.276c-10.837-0.408-21.651-0.815-32.129-1.21
				c-10.478-0.351-21.033-0.808-31.652-0.734c-10.61,0.088-21.326,0.747-31.87,2.876c-5.291,1.043-10.613,2.147-16,2.938
				c-5.386,0.805-10.818,1.428-16.291,1.811c-10.943,0.678-22.071,0.396-33.069-1.498c-5.483-0.994-10.929-2.344-16.243-4.146
				c-1.352-0.415-2.644-0.907-3.932-1.214c-0.325-0.096-0.646-0.144-0.966-0.198c-0.325-0.07-0.638-0.093-0.948-0.106
				c-0.625-0.047-1.206,0.041-1.626,0.266c-0.854,0.385-1.114,1.709-1.136,3.014c-0.025,1.323,0.11,2.703,0.263,4.084
				c0.631,5.572,1.308,11.151,1.906,16.77c0.302,2.807,0.605,5.619,0.908,8.435c0.247,2.823,0.494,5.651,0.742,8.483
				c0.294,2.828,0.397,5.678,0.54,8.527l0.212,4.279c0.073,1.427,0.155,2.855,0.151,4.282c0.076,5.71,0.151,11.437,0.228,17.179
				c0.085,5.742,0.17,11.5,0.256,17.274c0.027,2.888,0.134,5.778,0.1,8.673c-0.021,2.896-0.042,5.794-0.063,8.697
				c-0.166,5.809-0.294,11.631-0.394,17.471c-0.043,2.919-0.086,5.842-0.129,8.77c-0.062,2.926-0.008,5.859-0.16,8.791
				c-0.392,11.734-0.785,23.529-1.181,35.383c-0.345,11.861-0.891,23.75-1.412,35.708c-0.295,5.977-0.59,11.967-0.887,17.972
				c-0.273,6.007-0.578,12.027-0.921,18.06c-0.373,12.074-0.747,24.203-1.123,36.386c-0.252,12.18-0.505,24.412-0.759,36.697
				c-0.153,6.142-0.307,12.296-0.46,18.463c-0.114,3.083-0.1,6.173-0.129,9.265c-0.028,3.093-0.056,6.188-0.084,9.286
				c-0.13,12.395-0.335,24.84-0.647,37.336c0.307,24.966,0.419,50.139,0.298,75.485c-0.037,12.674-0.156,25.395,0.082,38.142
				c0.103,6.375,0.207,12.76,0.31,19.154c0.143,6.396,0.378,12.804,0.611,19.219c0.034,3.273,0.068,6.545,0.102,9.813l0.062,4.901
				l0.033,2.409l0.001,0.583l0.001,0.3c-0.019,0.077,0.042,0.044,0.087,0.032l0.139-0.038l1.591-0.452l2.321-0.73l4.658-1.513
				l2.366-0.704c0.805-0.197,1.604-0.412,2.416-0.586c0.826-0.127,1.634-0.334,2.474-0.391c0.834-0.066,1.683-0.156,2.485-0.168
				c13.002-0.461,25.967-1.054,38.907-1.441c3.236-0.056,6.471-0.111,9.702-0.168c3.232-0.055,6.461-0.163,9.689-0.02
				c3.229,0.081,6.455,0.162,9.679,0.244l4.834,0.119c1.608,0.065,3.21,0.178,4.814,0.265c6.416,0.368,12.819,0.736,19.212,1.104
				c6.394,0.358,12.776,0.721,19.14,1.189c6.364,0.575,12.715,1.149,19.055,1.723c3.169,0.287,6.34,0.519,9.5,0.837
				c3.161,0.312,6.319,0.622,9.474,0.933c6.312,0.597,12.611,1.191,18.899,1.786l4.714,0.432l4.701,0.524
				c3.133,0.345,6.263,0.69,9.389,1.034c6.256,0.676,12.499,1.35,18.73,2.021c6.223,0.748,12.411,1.696,18.602,2.526
				c3.094,0.428,6.186,0.855,9.273,1.282c3.09,0.418,6.145,1.02,9.215,1.52c6.131,1.051,12.25,2.099,18.356,3.145
				c12.12,2.532,24.188,5.054,36.201,7.563c6.005,1.246,11.998,2.49,17.976,3.731c2.992,0.597,5.972,1.278,8.954,1.912
				c2.977,0.66,5.968,1.246,8.923,1.96c11.854,2.729,23.599,5.646,35.305,8.416c2.923,0.714,5.854,1.358,8.778,2.022
				c2.927,0.649,5.84,1.347,8.767,1.953c5.863,1.151,11.681,2.478,17.552,3.381c2.928,0.513,5.844,1.079,8.77,1.551
				c2.936,0.402,5.866,0.805,8.793,1.207c1.464,0.195,2.924,0.418,4.39,0.591l4.408,0.421c2.938,0.282,5.871,0.564,8.8,0.846
				c11.742,0.834,23.445,1.455,35.099,1.524c23.301,0.247,46.373-0.626,69.082-2.364c5.667-0.534,11.316-1.066,16.948-1.597
				c1.407-0.139,2.816-0.239,4.218-0.407l4.2-0.541c2.797-0.356,5.591-0.713,8.379-1.068c2.789-0.352,5.573-0.702,8.354-1.053
				l4.167-0.521l4.15-0.611c5.529-0.813,11.041-1.624,16.534-2.433c5.496-0.779,10.963-1.664,16.417-2.502
				c5.449-0.861,10.894-1.657,16.294-2.561c5.389-0.947,10.76-1.893,16.111-2.833c2.675-0.472,5.346-0.943,8.011-1.414
				c1.331-0.246,2.668-0.448,3.99-0.73l3.958-0.854c21.187-4.174,41.946-8.935,62.151-14.511
				c10.096-2.814,20.105-5.601,30.024-8.517c4.955-1.466,9.907-2.852,14.834-4.25c4.924-1.403,9.829-2.801,14.713-4.193
				c19.593-5.327,38.845-10.561,57.488-16.529c4.633-1.569,9.246-3.132,13.836-4.687c2.309-0.742,4.553-1.642,6.812-2.485
				c2.255-0.854,4.505-1.704,6.75-2.554l3.363-1.271c1.163-0.429,2.148-0.825,3.107-1.427c0.947-0.595,1.87-1.265,2.64-2.054
				c0.799-0.758,1.458-1.653,1.786-2.547c0.187-0.39,0.251-1.019,0.341-1.586l0.266-1.721c0.075-0.576,0.209-1.142,0.236-1.725
				l0.103-1.746c0.201-2.319,0.113-4.668,0.097-7.003c-2.209-37.678-4.331-73.852-6.356-108.38c-0.304-4.316-0.359-8.619-0.54-12.89
				c-0.153-4.273-0.305-8.52-0.456-12.74c-0.302-8.441-0.601-16.777-0.895-25.008c-0.24-16.469-0.474-32.512-0.701-48.112
				c-0.1-31.191-0.17-60.615-0.119-88.146c0.533-57.157,0.121-102.525,0.543-141.328c0.213-38.821,0.378-68.981,0.49-89.436
				c0.023-10.228,0.041-18.028,0.053-23.272c-0.012-2.622-0.021-4.605-0.027-5.933c-0.012-0.664-0.021-1.163-0.028-1.497
				C932.012,27.156,932,26.988,931.985,26.988z"/>
		</g>
		<g>
			<path fill-rule="evenodd" clip-rule="evenodd" d="M951.145,251.715c0-0.024,0.346-0.051,1.156-0.08l0.285-0.011l-0.008-0.271
				c-0.21-7.023-0.206-51.066-0.431-125.354c0.21-20.346,0.288-42.957,0.241-67.702c-0.052-12.372-0.106-25.278-0.163-38.7
				c-0.007-1.678-0.02-3.366-0.24-5.037c-0.132-0.834-0.222-1.677-0.474-2.488l-0.321-1.229l-0.457-1.188
				c-1.197-3.155-3.539-5.999-6.69-7.365l-1.197-0.46l-1.257-0.265c-0.415-0.118-0.849-0.105-1.277-0.133
				c-0.429-0.005-0.858-0.084-1.287-0.008l-1.287,0.132c-0.428,0.052-0.842,0.196-1.263,0.289c-0.855,0.16-1.644,0.55-2.457,0.857
				c-1.562,0.749-3.08,1.667-4.65,2.554c-1.558,0.89-3.123,1.784-4.695,2.682c-1.548,0.944-3.201,1.701-4.849,2.487
				c-1.646,0.788-3.3,1.579-4.961,2.374c-0.822,0.417-1.677,0.762-2.536,1.104c-0.856,0.347-1.715,0.695-2.575,1.044
				c-1.721,0.695-3.449,1.395-5.185,2.096c-3.538,1.211-7.08,2.522-10.702,3.672c-3.638,1.091-7.278,2.304-11.002,3.305
				c-7.417,2.128-15,4.081-22.658,6.168c-3.842,0.996-7.666,2.174-11.542,3.271c-3.871,1.115-7.77,2.238-11.697,3.369
				c-15.743,4.396-31.795,9.416-48.329,14.379c-8.268,2.484-16.644,5-25.124,7.548c-4.242,1.268-8.51,2.544-12.805,3.827
				c-4.291,1.295-8.655,2.443-13.019,3.68c-8.728,2.469-17.56,4.968-26.493,7.494c-8.962,2.418-18.025,4.87-27.209,7.273
				c-18.369,4.775-37.276,9.286-56.88,12.172c-2.452,0.345-4.901,0.761-7.373,1.05c-2.476,0.256-4.958,0.512-7.446,0.769
				c-4.971,0.605-9.994,0.797-15.032,1.139c-5.037,0.381-10.109,0.498-15.204,0.665c-2.548,0.066-5.101,0.202-7.661,0.213
				c-2.56,0.017-5.126,0.032-7.699,0.048c-20.579,0.1-41.527-0.771-62.79-2.076c-5.316-0.341-10.65-0.736-16.003-1.166
				c-2.677-0.213-5.359-0.428-8.047-0.643c-2.688-0.25-5.381-0.502-8.08-0.754c-10.784-1.127-21.615-2.672-32.424-4.805
				c-10.816-2.101-21.565-5.012-32.133-8.698c-10.58-3.659-21.059-7.692-31.979-10.744c-21.457-7.163-43.841-12.632-66.796-16.506
				c-22.959-3.882-46.482-6.18-70.325-7.222c-23.826-1.471-48.02-1.59-72.454-0.778c-6.11,0.165-12.231,0.52-18.373,0.774
				c-6.14,0.3-12.292,0.722-18.463,1.078c-12.317,0.768-24.625,2.538-37.087,3.845c-6.227,0.634-12.492,1.142-18.797,1.368
				c-6.308,0.178-12.652,0.001-18.979-0.65c-6.333-0.64-12.604-1.995-18.74-3.828l-4.568-1.508l-2.167-0.664
				c-0.734-0.117-1.465-0.291-2.203-0.35c-2.943-0.225-5.958,0.452-8.383,2.164c-2.43,1.682-4.384,4.092-5.636,6.854
				c-1.292,2.771-1.925,5.756-2.21,8.891c-0.622,6.37-1.282,12.732-1.312,19.089c-0.063,3.186,0.154,6.333,0.446,9.504
				c0.283,3.22,0.566,6.442,0.85,9.669c0.259,3.228,0.609,6.453,0.787,9.693c0.159,3.24,0.318,6.484,0.478,9.732
				c1.472,25.979,1.102,52.223,0.22,78.596c-0.502,13.182-1.007,26.414-1.514,39.698c-0.461,13.284-0.925,26.619-1.39,40.005
				c-2.717,53.451-2.94,107.761-5.441,162.629c-0.442,13.453-0.623,26.872-0.817,40.249c-0.074,6.688-0.147,13.366-0.221,20.032
				c-0.028,3.334-0.056,6.664-0.084,9.991c0.041,3.328,0.082,6.652,0.123,9.975c0.166,13.286,0.332,26.525,0.497,39.716
				c0.034,3.297,0.067,6.591,0.101,9.882l0.043,4.935c0.004,1.645,0.023,3.287,0.117,4.921c0.139,3.272,0.278,6.542,0.417,9.808
				l0.197,4.896c0.082,1.631,0.248,3.257,0.366,4.885c0.449,6.52,0.739,13.045,1.45,19.527c0.311,3.245,0.621,6.487,0.93,9.726
				c0.318,3.239,0.745,6.464,1.115,9.69c0.396,3.22,0.742,6.465,1.184,9.654c0.46,3.132,1.646,6.195,3.721,8.584
				c1.075,1.135,2.295,2.192,3.755,2.805c0.351,0.182,0.708,0.348,1.093,0.44l1.133,0.342c0.782,0.086,1.559,0.292,2.354,0.229
				c1.591,0.068,3.15-0.363,4.653-0.863c1.462-0.625,2.881-1.383,4.13-2.383c1.276-0.952,2.445-2.101,3.768-3.027
				c1.285-0.981,2.669-1.822,4.076-2.611c2.843-1.533,5.917-2.606,9.063-3.285c3.156-0.646,6.375-0.917,9.584-0.953
				c3.214-0.016,6.409,0.148,9.604,0.215c12.779,0.342,25.508,0.525,38.188,0.49c25.319,0.846,55.63,2.367,82.861,3.719
				c3.404,0.175,6.759,0.346,10.051,0.515c1.646,0.086,3.276,0.171,4.888,0.255c1.611,0.127,3.205,0.253,4.778,0.377
				c6.293,0.52,12.27,0.999,17.795,1.508c5.512,0.648,10.582,1.246,15.084,1.775c2.249,0.281,4.357,0.533,6.303,0.809
				c1.94,0.313,3.725,0.603,5.337,0.863c4.875,0.538,10.057,1.109,15.483,1.709c5.405,0.77,11.053,1.574,16.882,2.404
				c1.457,0.214,2.925,0.43,4.403,0.646c1.473,0.25,2.956,0.502,4.449,0.755c2.983,0.519,6.003,1.045,9.053,1.576
				c3.048,0.544,6.132,1.058,9.224,1.648c3.086,0.623,6.193,1.25,9.314,1.88c3.12,0.636,6.254,1.274,9.395,1.915
				c3.141,0.638,6.26,1.403,9.392,2.104c3.128,0.718,6.254,1.437,9.372,2.153c1.557,0.363,3.112,0.727,4.664,1.089
				c1.545,0.391,3.086,0.781,4.624,1.17c6.143,1.573,12.219,3.13,18.168,4.653c5.93,1.555,11.733,3.077,17.348,4.55
				c11.24,2.907,22.475,5.522,33.666,7.989c11.216,2.338,22.381,4.587,33.557,6.291c11.157,1.828,22.311,3.147,33.406,4.151
				c5.557,0.397,11.089,0.881,16.619,1.069c2.763,0.11,5.519,0.294,8.273,0.342c2.755,0.055,5.505,0.11,8.249,0.166
				c2.745,0.076,5.486,0.016,8.222,0.012c2.735-0.029,5.466,0.004,8.191-0.071c5.449-0.156,10.879-0.229,16.283-0.521
				c10.813-0.417,21.524-1.248,32.139-2.141c21.22-1.949,42.021-4.688,62.351-8.022c20.434-2.791,40.193-5.727,59.419-9.16
				c19.215-3.489,37.902-7.407,56.228-11.795c18.298-4.501,36.221-9.496,53.918-15.061c17.73-5.48,35.39-11.041,53.167-16.765
				c14.556-4.641,28.616-8.902,42.633-13.137c7.014-2.097,14.015-4.189,21.065-6.297c3.521-1.069,7.109-2.027,10.503-3.282
				c3.324-1.288,6.824-2.798,8.308-5.74c1.505-2.938,1.296-6.837,1.157-10.572c-0.207-3.824-0.415-7.685-0.625-11.591
				c-0.43-7.812-0.869-15.806-1.321-24.044c-0.475-8.239-0.964-16.725-1.47-25.521c-0.478-8.8-0.973-17.909-1.488-27.396
				c-0.447-6.604-0.679-13.184-0.953-19.705c-0.249-6.523-0.495-12.99-0.739-19.383c-0.211-12.787-0.417-25.281-0.617-37.342
				c-0.321-24.123-0.62-46.516-0.88-66.059c-0.121-39.069-0.359-69.386-0.667-89.935c-0.29-20.55-0.574-31.331-0.574-31.331
				c-0.065,0.001-0.101,0.676-0.112,2.008c-0.011,1.333,0.003,3.323,0.039,5.955c0.1,5.265,0.248,13.097,0.442,23.371
				c0.403,20.547,0.997,50.859,1.762,89.919c0.09,19.543,0.473,41.273,0.996,65.061c0.278,11.893,0.568,24.301,0.87,37.208
				c0.211,6.451,0.524,13.024,0.788,19.722c0.29,6.696,0.507,13.517,0.942,20.45c0.348,9.083,0.703,17.752,1.104,26.101
				c0.477,8.346,0.936,16.375,1.383,24.188c0.491,7.81,0.969,15.401,1.439,22.874c0.246,3.736,0.489,7.443,0.732,11.132
				c0.115,1.846,0.263,3.681,0.35,5.525c0.091,1.842,0.146,3.693-0.048,5.545c-0.183,1.839-0.635,3.722-1.68,5.319
				c-1.031,1.606-2.57,2.798-4.182,3.723c-1.617,0.948-3.346,1.642-5.082,2.293c-1.739,0.643-3.508,1.211-5.276,1.756
				c-7.082,2.166-14.237,4.355-21.562,6.596c-14.656,4.46-30.028,8.995-46.846,13.894c-16.748,5.122-34.459,10.539-52.698,16.117
				c-18.233,5.647-37.159,10.918-56.323,15.628c-19.173,4.68-38.591,8.73-57.724,12.324c-4.789,0.869-9.556,1.733-14.294,2.594
				c-4.75,0.787-9.472,1.571-14.156,2.349c-9.37,1.553-18.612,2.946-27.654,4.323c-16.981,2.451-37.773,5.407-59.886,7.596
				c-11.057,1.067-22.441,1.982-33.825,2.449c-5.689,0.301-11.381,0.387-17.023,0.491c-2.821,0.065-5.632-0.005-8.425-0.008
				c-2.793-0.03-5.569-0.011-8.321-0.137c-2.752-0.077-5.509-0.153-8.271-0.23c-2.763-0.069-5.526-0.273-8.296-0.404
				c-5.543-0.229-11.089-0.752-16.659-1.185c-11.124-1.072-22.298-2.44-33.477-4.273c-11.199-1.709-22.389-3.92-33.646-6.153
				c-11.231-2.362-22.523-4.809-33.841-7.457c-11.27-2.814-22.611-5.647-34.023-8.498c-2.856-0.69-5.7-1.452-8.578-2.088
				c-2.875-0.651-5.753-1.305-8.636-1.958c-5.766-1.311-11.543-2.65-17.381-3.789c-2.914-0.594-5.832-1.189-8.754-1.785
				c-2.924-0.589-5.844-1.217-8.793-1.719c-5.888-1.056-11.792-2.114-17.713-3.176c-5.944-0.918-11.905-1.839-17.882-2.762
				l-4.488-0.674l-4.509-0.572c-3.008-0.379-6.02-0.759-9.036-1.139c-24.099-3.439-48.653-5.241-73.506-5.989
				c-24.838-1.007-49.905-2.144-75.22-3.472c-12.664-0.401-25.384-0.805-38.161-1.211c-3.195-0.084-6.408-0.255-9.53-0.238
				c-3.138,0.034-6.252,0.308-9.276,0.938c-3.012,0.665-5.925,1.703-8.616,3.179c-1.331,0.763-2.641,1.57-3.858,2.519l-0.919,0.701
				l-0.88,0.755c-0.554,0.483-1.244,1.043-1.919,1.588c-1.345,1.096-2.897,1.955-4.524,2.663c-1.676,0.587-3.439,1.085-5.278,1.035
				c-0.913,0.073-1.822-0.136-2.731-0.239c-0.444-0.115-0.885-0.251-1.327-0.379c-0.449-0.109-0.869-0.295-1.282-0.5
				c-1.711-0.704-3.148-1.903-4.397-3.201c-2.418-2.712-3.759-6.129-4.303-9.53c-0.493-3.276-0.868-6.46-1.3-9.7
				c-0.404-3.23-0.864-6.455-1.21-9.701c-0.334-3.246-0.668-6.497-1.003-9.75c-0.75-6.497-1.059-13.057-1.493-19.609
				c-3.35-52.426-0.523-105.643-0.229-159.496c2.562-54.874,3.668-109.158,4.969-162.662c0.641-13.381,1.182-26.715,1.651-40
				c0.552-13.283,1.068-26.516,1.482-39.695c0.802-26.357,1.013-52.539-0.448-78.415c-0.127-3.237-0.254-6.471-0.382-9.7
				c-0.146-3.229-0.467-6.441-0.698-9.658c-0.256-3.215-0.513-6.426-0.769-9.635c-0.274-3.235-0.475-6.497-0.389-9.734
				c0.075-6.484,0.779-12.892,1.431-19.259c0.304-3.212,1.001-6.495,2.413-9.471c1.373-2.988,3.523-5.663,6.276-7.552
				c2.742-1.923,6.215-2.705,9.521-2.434c0.828,0.068,1.641,0.258,2.458,0.396l2.357,0.726l4.482,1.481
				c6.021,1.799,12.18,3.128,18.416,3.743c6.231,0.627,12.492,0.782,18.732,0.576c6.241-0.254,12.457-0.795,18.65-1.473
				c12.408-1.273,24.771-2.98,37.172-3.672c6.183-0.316,12.345-0.694,18.496-0.952c6.153-0.213,12.284-0.526,18.404-0.657
				c24.476-0.671,48.695-0.503,72.59,0.656c23.905,0.967,47.486,3.363,70.509,7.267c23.023,3.896,45.479,9.306,67.15,16.112
				c10.85,3.355,21.369,7.613,31.841,11.348c10.451,3.76,21.136,6.678,31.906,8.732c10.764,2.088,21.564,3.534,32.317,4.537
				c2.691,0.219,5.377,0.438,8.058,0.656c2.688,0.181,5.371,0.36,8.047,0.54c5.355,0.359,10.689,0.681,16.003,0.948
				c21.231,1.402,42.127,2.411,62.655,2.459c2.566,0.003,5.126,0.006,7.68,0.008c2.554,0.008,5.1-0.108,7.641-0.156
				c5.082-0.129,10.143-0.209,15.166-0.553c5.024-0.306,10.042-0.461,14.988-1.031c2.479-0.238,4.951-0.477,7.417-0.715
				c2.463-0.271,4.906-0.671,7.351-0.998c19.55-2.754,38.448-7.164,56.808-11.912c9.18-2.389,18.24-4.845,27.196-7.287
				c8.914-2.572,17.727-5.115,26.435-7.628c4.349-1.279,8.695-2.468,12.973-3.802c4.281-1.323,8.536-2.638,12.765-3.944
				c8.457-2.617,16.809-5.202,25.054-7.754c16.501-5.091,32.524-10.209,48.276-14.671c3.929-1.145,7.829-2.281,11.702-3.409
				c3.878-1.109,7.704-2.295,11.552-3.297c7.673-2.099,15.248-4.045,22.641-6.149c3.719-0.99,7.332-2.182,10.957-3.252
				c3.604-1.128,7.118-2.41,10.637-3.59c1.722-0.684,3.438-1.363,5.146-2.041c0.854-0.339,1.707-0.677,2.557-1.015
				c0.853-0.331,1.703-0.666,2.518-1.071c1.648-0.771,3.29-1.539,4.925-2.303c1.636-0.763,3.279-1.494,4.816-2.41
				c1.627-0.892,3.244-1.777,4.851-2.657c0.81-0.442,1.617-0.883,2.421-1.323l1.29-0.681l0.646-0.335l0.685-0.263l1.368-0.519
				c0.472-0.13,0.955-0.232,1.43-0.347l0.715-0.165l0.736-0.07c0.492-0.036,0.979-0.105,1.471-0.106
				c1.981,0.008,3.941,0.497,5.695,1.367c1.758,0.893,3.186,2.247,4.374,3.718c0.535,0.778,1.102,1.538,1.485,2.389
				c0.465,0.813,0.768,1.685,1.083,2.547c0.326,0.859,0.474,1.761,0.714,2.635c0.13,0.891,0.28,1.78,0.362,2.668
				c0.033,0.885,0.095,1.792,0.099,2.648c-0.002,0.851-0.005,1.698-0.007,2.544c-0.016,13.524-0.032,26.362-0.046,38.599
				c-0.006,24.473,0,46.539-0.202,66.885c-0.403,74.287-0.611,118.33-0.47,125.354l0.005,0.287l-0.299,0.012
				c-0.405,0.015-0.695,0.025-0.882,0.033C951.231,251.694,951.145,251.705,951.145,251.715z"/>
		</g>
	</g>
</g>
<path fill-rule="evenodd" clip-rule="evenodd" fill="#FFFFFF" d="M935.267,26.275c-4.826,2.293-7.688,3.785-10.654,5.028
	c-9.029,3.765-17.857,8.304-27.172,10.929c-14.85,4.173-30.291,6.149-45.029,10.64c-28.025,8.539-55.559,18.831-83.619,27.226
	c-28.062,8.394-56.318,16.358-84.871,22.658c-26.248,5.797-52.93,12.166-79.537,12.87c-43.947,1.168-88.088-0.469-131.93-3.972
	c-25.914-2.065-51.994-7.938-76.932-15.751C360.511,84.94,326.095,71.172,289.53,67.877c-39.717-3.579-79.654-4.74-119.523-5.838
	c-19.732-0.539-40.055-1.251-59.17,2.859c-28.082,6.025-55.268,7.469-82.51-1.934c-8.125-2.805-8.502,0.346-7.696,7.309
	c1.876,16.324,4.099,32.69,4.515,49.091c0.717,28.779,0.73,57.601,0.016,86.388c-0.752,30.382-2.877,60.731-4.078,91.106
	c-1.485,37.816-3.312,75.639-3.793,113.469c-0.631,50.977-0.277,101.966-0.027,152.949c0.105,23.35,0.98,46.693,1.535,71.391
	c7.473-2.087,13.023-4.809,18.658-5.01c24.836-0.904,49.801-2.652,74.541-1.174c46.766,2.798,93.588,6.217,140.076,12
	c37.236,4.643,74.117,12.643,110.979,20.082c36.182,7.302,71.841,18.957,108.313,22.867c37.464,4.014,75.743,2.701,113.487,0.496
	c34.875-2.037,69.604-7.646,104.215-12.959c39.328-6.039,77.994-15.199,116.385-26.438c43.645-12.774,88.168-22.377,130.586-39.488
	c2.883-1.16,6.529-4.069,7.092-6.784c1.201-5.692,0.992-11.82,0.646-17.72c-2.111-35.999-4.926-71.963-6.537-107.99
	c-1.396-31.073-2.035-62.216-2.084-93.324c-0.193-97.068,0.035-194.13,0.111-291.197C935.28,68.125,935.267,48.229,935.267,26.275z"
	/>
<g>
	<defs>
		<path id="SVGID_1_" d="M935.267,26.275c-4.826,2.293-7.688,3.785-10.654,5.028c-9.029,3.765-17.857,8.304-27.172,10.929
			c-14.85,4.173-30.291,6.149-45.029,10.64c-28.025,8.539-55.559,18.831-83.619,27.226c-28.062,8.394-56.318,16.358-84.871,22.658
			c-26.248,5.797-52.93,12.166-79.537,12.87c-43.947,1.168-88.088-0.469-131.93-3.972c-25.914-2.065-51.994-7.938-76.932-15.751
			C360.511,84.94,326.095,71.172,289.53,67.877c-39.717-3.579-79.654-4.74-119.523-5.838c-19.732-0.539-40.055-1.251-59.17,2.859
			c-28.082,6.025-55.268,7.469-82.51-1.934c-8.125-2.805-8.502,0.346-7.696,7.309c1.876,16.324,4.099,32.69,4.515,49.091
			c0.717,28.779,0.73,57.601,0.016,86.388c-0.752,30.382-2.877,60.731-4.078,91.106c-1.485,37.816-3.312,75.639-3.793,113.469
			c-0.631,50.977-0.277,101.966-0.027,152.949c0.105,23.35,0.98,46.693,1.535,71.391c7.473-2.087,13.023-4.809,18.658-5.01
			c24.836-0.904,49.801-2.652,74.541-1.174c46.766,2.798,93.588,6.217,140.076,12c37.236,4.643,74.117,12.643,110.979,20.082
			c36.182,7.302,71.841,18.957,108.313,22.867c37.464,4.014,75.743,2.701,113.487,0.496c34.875-2.037,69.604-7.646,104.215-12.959
			c39.328-6.039,77.994-15.199,116.385-26.438c43.645-12.774,88.168-22.377,130.586-39.488c2.883-1.16,6.529-4.069,7.092-6.784
			c1.201-5.692,0.992-11.82,0.646-17.72c-2.111-35.999-4.926-71.963-6.537-107.99c-1.396-31.073-2.035-62.216-2.084-93.324
			c-0.193-97.068,0.035-194.13,0.111-291.197C935.28,68.125,935.267,48.229,935.267,26.275z"/>
	</defs>
	<clipPath id="SVGID_2_">
		<use xlink:href="#SVGID_1_"  overflow="visible"/>
	</clipPath>
	<path clip-path="url(#SVGID_2_)" fill="#ED2224" d="M425.685,83.331v244.268H17.018v122.136h408.667v244.27h125.743v-244.27
		h408.666V327.599H551.428V83.331H425.685z"/>
	
		<path clip-path="url(#SVGID_2_)" fill-rule="evenodd" clip-rule="evenodd" stroke="#000000" stroke-width="0.25" stroke-miterlimit="10" d="
		M428.043,334.337c-38.839,1.379-77.561,2.958-116.648,3.647c-41.987,0.113-83.998,0.165-126.039,0.451
		c-42.033,0.067-84.089-0.007-126.138-0.431c-50.729-0.208-101.467-1.025-152.23-1.81c-50.746-0.464-101.479-1.466-152.229-1.9
		c-30.234-0.474-60.485-0.343-90.712-0.332c-30.227,0.125-60.401,0.017-90.54,0.584c-47.989,0.211-95.699,2.563-147.282,3.722
		l-1.698-16.906c24.366-0.349,48.727-0.71,73.131-0.627c47.859,0.343,95.74-0.408,143.6,0.028
		c47.861,0.136,95.721,0.378,143.608,0.429c52.043,0.746,104.129,0.676,156.197,1.305c52.076,0.35,104.153,0.606,156.221,1.241
		c35.5,0.216,70.993,0.52,106.481,0.007c35.468,0.396,70.954-0.859,106.358-0.815c37.969-0.476,75.741-1.556,113.042-2.642
		L428.043,334.337z"/>
	
		<path clip-path="url(#SVGID_2_)" fill-rule="evenodd" clip-rule="evenodd" stroke="#000000" stroke-width="0.25" stroke-miterlimit="10" d="
		M428.043,456.472c-38.839,1.38-77.561,2.957-116.648,3.646c-41.987,0.115-83.998,0.166-126.039,0.452
		c-42.033,0.067-84.089-0.006-126.138-0.431c-50.729-0.208-101.467-1.025-152.23-1.81c-50.746-0.463-101.479-1.466-152.229-1.9
		c-30.234-0.474-60.485-0.342-90.712-0.333c-30.227,0.126-60.401,0.018-90.54,0.585c-47.989,0.212-95.699,2.562-147.282,3.723
		l-1.698-16.907c24.366-0.349,48.727-0.711,73.131-0.627c47.859,0.342,95.74-0.408,143.6,0.029
		c47.861,0.135,95.721,0.377,143.608,0.428c52.043,0.745,104.129,0.677,156.197,1.305c52.076,0.35,104.153,0.606,156.221,1.241
		c35.5,0.215,70.993,0.52,106.481,0.007c35.468,0.396,70.954-0.858,106.358-0.814c37.969-0.478,75.741-1.559,113.042-2.643
		L428.043,456.472z"/>
	
		<path clip-path="url(#SVGID_2_)" fill-rule="evenodd" clip-rule="evenodd" stroke="#000000" stroke-width="0.25" stroke-miterlimit="10" d="
		M1552.399,334.337c-38.839,1.379-77.561,2.958-116.648,3.647c-41.987,0.113-83.998,0.165-126.04,0.451
		c-42.033,0.067-84.089-0.007-126.138-0.431c-50.729-0.208-101.466-1.025-152.23-1.81c-50.746-0.464-101.479-1.466-152.229-1.9
		c-30.234-0.474-60.485-0.343-90.711-0.332c-30.227,0.125-60.401,0.017-90.54,0.584c-47.989,0.211-95.699,2.563-147.282,3.722
		l-1.698-16.906c24.367-0.349,48.728-0.71,73.131-0.627c47.86,0.343,95.74-0.408,143.6,0.028
		c47.862,0.136,95.722,0.378,143.608,0.429c52.043,0.746,104.129,0.676,156.196,1.305c52.076,0.35,104.154,0.606,156.222,1.241
		c35.5,0.216,70.993,0.52,106.48,0.007c35.469,0.396,70.954-0.859,106.358-0.815c37.969-0.476,75.741-1.556,113.042-2.642
		L1552.399,334.337z"/>
	
		<path clip-path="url(#SVGID_2_)" fill-rule="evenodd" clip-rule="evenodd" stroke="#000000" stroke-width="0.25" stroke-miterlimit="10" d="
		M1552.399,456.472c-38.839,1.38-77.561,2.957-116.648,3.646c-41.987,0.115-83.998,0.166-126.04,0.452
		c-42.033,0.067-84.089-0.006-126.138-0.431c-50.729-0.208-101.466-1.025-152.23-1.81c-50.746-0.463-101.479-1.466-152.229-1.9
		c-30.234-0.474-60.485-0.342-90.711-0.333c-30.227,0.126-60.401,0.018-90.54,0.585c-47.989,0.212-95.699,2.562-147.282,3.723
		l-1.698-16.907c24.367-0.349,48.728-0.711,73.131-0.627c47.86,0.342,95.74-0.408,143.6,0.029
		c47.862,0.135,95.722,0.377,143.608,0.428c52.043,0.745,104.129,0.677,156.196,1.305c52.076,0.35,104.154,0.606,156.222,1.241
		c35.5,0.215,70.993,0.52,106.48,0.007c35.469,0.396,70.954-0.858,106.358-0.814c37.969-0.478,75.741-1.559,113.042-2.643
		L1552.399,456.472z"/>
	
		<path clip-path="url(#SVGID_2_)" fill-rule="evenodd" clip-rule="evenodd" stroke="#000000" stroke-width="0.25" stroke-miterlimit="10" d="
		M419.86,335.158c-1.419-37.725-3.045-75.335-3.755-113.3c-0.115-40.783-0.169-81.588-0.464-122.423
		c-0.069-40.827,0.006-81.675,0.444-122.519c0.214-49.273,1.055-98.555,1.863-147.861c0.478-49.289,1.509-98.566,1.957-147.859
		c0.488-29.367,0.353-58.75,0.343-88.108c-0.13-29.359-0.018-58.668-0.602-87.941c-0.218-46.611-2.639-92.953-3.833-143.056
		l17.407-1.649c0.36,23.667,0.731,47.329,0.646,71.032c-0.352,46.486,0.419,92.992-0.03,139.479
		c-0.14,46.488-0.388,92.975-0.442,139.487c-0.767,50.549-0.695,101.141-1.341,151.713c-0.361,50.582-0.625,101.165-1.279,151.738
		c-0.221,34.481-0.534,68.955-0.007,103.425c-0.409,34.451,0.885,68.918,0.839,103.306c0.493,36.88,1.604,73.567,2.721,109.799
		L419.86,335.158z"/>
	
		<path clip-path="url(#SVGID_2_)" fill-rule="evenodd" clip-rule="evenodd" stroke="#000000" stroke-width="0.25" stroke-miterlimit="10" d="
		M547.7,335.158c-1.419-37.725-3.045-75.335-3.755-113.3c-0.116-40.783-0.17-81.588-0.464-122.423
		c-0.069-40.827,0.006-81.675,0.444-122.519c0.214-49.273,1.055-98.555,1.862-147.861c0.478-49.289,1.509-98.566,1.957-147.859
		c0.488-29.367,0.354-58.75,0.343-88.108c-0.13-29.359-0.017-58.668-0.602-87.941c-0.217-46.611-2.639-92.953-3.833-143.056
		l17.407-1.649c0.359,23.667,0.73,47.329,0.646,71.032c-0.352,46.486,0.419,92.992-0.029,139.479
		c-0.14,46.488-0.388,92.975-0.442,139.487c-0.767,50.549-0.695,101.141-1.341,151.713c-0.36,50.582-0.625,101.165-1.279,151.738
		c-0.221,34.481-0.534,68.955-0.007,103.425c-0.409,34.451,0.885,68.918,0.838,103.306c0.492,36.88,1.604,73.567,2.721,109.799
		L547.7,335.158z"/>
	
		<path clip-path="url(#SVGID_2_)" fill-rule="evenodd" clip-rule="evenodd" stroke="#000000" stroke-width="0.25" stroke-miterlimit="10" d="
		M419.86,1420.122c-1.419-37.726-3.045-75.336-3.755-113.301c-0.115-40.782-0.169-81.588-0.464-122.422
		c-0.069-40.826,0.006-81.676,0.444-122.519c0.214-49.273,1.055-98.555,1.863-147.861c0.478-49.29,1.509-98.567,1.957-147.86
		c0.488-29.366,0.353-58.749,0.343-88.108c-0.13-29.359-0.018-58.668-0.602-87.94c-0.218-46.612-2.639-92.953-3.833-143.056
		l17.407-1.649c0.36,23.667,0.731,47.329,0.646,71.031c-0.352,46.487,0.419,92.994-0.03,139.479
		c-0.14,46.489-0.388,92.976-0.442,139.488c-0.767,50.55-0.695,101.141-1.341,151.714c-0.361,50.582-0.625,101.165-1.279,151.739
		c-0.221,34.48-0.534,68.954-0.007,103.424c-0.409,34.45,0.885,68.918,0.839,103.306c0.493,36.88,1.604,73.566,2.721,109.798
		L419.86,1420.122z"/>
	
		<path clip-path="url(#SVGID_2_)" fill-rule="evenodd" clip-rule="evenodd" stroke="#000000" stroke-width="0.25" stroke-miterlimit="10" d="
		M547.7,1420.122c-1.419-37.726-3.045-75.336-3.755-113.301c-0.116-40.782-0.17-81.588-0.464-122.422
		c-0.069-40.826,0.006-81.676,0.444-122.519c0.214-49.273,1.055-98.555,1.862-147.861c0.478-49.29,1.509-98.567,1.957-147.86
		c0.488-29.366,0.354-58.749,0.343-88.108c-0.13-29.359-0.017-58.668-0.602-87.94c-0.217-46.612-2.639-92.953-3.833-143.056
		l17.407-1.649c0.359,23.667,0.73,47.329,0.646,71.031c-0.352,46.487,0.419,92.994-0.029,139.479
		c-0.14,46.489-0.388,92.976-0.442,139.488c-0.767,50.55-0.695,101.141-1.341,151.714c-0.36,50.582-0.625,101.165-1.279,151.739
		c-0.221,34.48-0.534,68.954-0.007,103.424c-0.409,34.45,0.885,68.918,0.838,103.306c0.492,36.88,1.604,73.566,2.721,109.798
		L547.7,1420.122z"/>
	<g clip-path="url(#SVGID_2_)">
		<polygon fill="#2E3192" points="17.836,173.691 17.836,302.61 208.801,302.61 		"/>
		<g>
			<g>
				<path fill-rule="evenodd" clip-rule="evenodd" d="M17.446,174.27c0.313-0.465,6.802,3.992,18.853,11.544
					c5.415,4.675,12.732,9.359,21.732,14.048c8.951,4.755,18.428,11.211,28.295,19.236c10.116,7.65,22.057,14.757,34.822,22.424
					c6.13,4.208,11.559,9.901,19.167,12.782c5.803,5.543,12.927,9.548,20.378,13.425c6.5,5.286,13.805,9.739,21.036,14.638
					c3.602,2.461,7.415,4.69,11.235,6.984c1.91,1.147,3.822,2.311,5.71,3.527c0.944,0.608,1.882,1.23,2.811,1.87l2.251,1.557
					l2.403,1.702c3.615,2.223,7.517,4.692,11.597,7.336c-2.943,0.067-6.092,0.111-9.329,0.132c-1.632,0.005-3.268,0.01-4.908,0.014
					c-1.625-0.007-3.255-0.013-4.888-0.02c-3.43-0.05-6.891-0.192-10.371-0.424c-9.342-2.178-18.82,0.681-28.407-0.98
					c-9.4-1.154-18.69,1.415-27.833,1.154c-9.153-1.782-18.159-4.327-27.005,0.034c-8.848,0.212-21.177,0.971-25.73-0.951
					c-6.84,1.956-17.125,1.646-25.236,0.435c-8.111-0.932-16.023-0.903-23.701-0.729c-2.12,0.127-4.222,0.158-6.305,0.167
					c-2.62,0.01-5.215,0.021-7.781,0.031c-0.024-1.261-0.049-2.516-0.073-3.765l-0.029-0.944l-0.035-0.619l-0.087-1.232
					c-0.134-1.64-0.339-3.265-0.655-4.876c1.811-14.407,3.154-27.009,0.584-40.044c-1.709-10.664,0.483-19.725-0.285-32.987
					c-1.092-9.24,0.135-18.053,0.309-24.876c0.961-6.82,1.168-12.112,1.134-15.7c-0.034-3.587-0.318-5.47-0.318-5.47
					c-1.038,0,0.473,7.531,0.966,21.17c-1.053,6.823-0.082,15.175,0.507,24.876c-1.854,12.695,1.913,20.754,0.411,32.987
					c0.647,12.231-0.01,27.276,0.449,40.044c-0.047,1.399,0.007,2.944,0.104,4.597c0.026,0.414,0.053,0.833,0.08,1.26
					c0.029,0.387,0.059,0.975,0.09,1.092c0.062,0.374,0.125,0.756,0.189,1.147c0.439-0.06,0.888-0.121,1.342-0.182
					c1.016-0.048,2.085-0.079,3.134-0.083c2.108-0.008,4.224,0.095,6.269,0.396c7.678,0.498,15.589,1.236,23.701,0.01
					c8.112,0.014,16.431,0.425,24.929-0.083c8.504,1.521,17.19-1.849,26.038-0.203c8.846-0.826,17.852-2.168,27.005-0.121
					c9.143-2.072,18.433,1.101,27.833-0.121c9.587,1.782,19.065,0.69,28.407,0.034c3.471,0.693,6.922,0.951,10.35,0.965
					c2.289,0.014,4.236-0.214,4.902-0.491c-1.578-0.833-2.802-1.398-3.59-1.718c-0.006-0.117-0.066-0.259-0.169-0.42
					c-0.051-0.081-0.113-0.166-0.184-0.254l-0.113-0.136c-0.031-0.04-0.195-0.169-0.287-0.249c-0.868-0.73-1.751-1.433-2.647-2.112
					c-1.792-1.359-3.636-2.624-5.509-3.825c-3.747-2.404-7.611-4.557-11.421-6.709c-7.115-5.071-13.495-10.893-20.698-15.138
					c-7.627-3.617-14.165-8.491-20.875-12.689c-6.208-4.955-12.334-9.614-19.116-12.858c-12.324-8.32-23.058-17.215-33.825-23.901
					c-10.667-6.84-20.63-12.575-28.892-18.351c-8.1-6.703-15.464-10.638-20.895-15.289C23.991,178.642,17.703,173.889,17.446,174.27
					z"/>
			</g>
		</g>
	</g>
	<g clip-path="url(#SVGID_2_)">
		<polygon fill="#2E3192" points="-27.067,25.077 387.417,38.313 387.477,300.824 		"/>
		<g>
			<g>
				<path fill-rule="evenodd" clip-rule="evenodd" d="M-27.454,25.658c0.155-0.233,3.723,1.99,10.444,6.324
					c6.716,4.34,16.619,10.741,29.365,18.979c12.162,9.105,27.723,19.2,46.286,30.168c18.512,11.032,38.873,24.633,60.771,40.557
					c22.141,15.545,47.246,31.293,74.119,48.224c13.188,8.842,25.92,19.329,41.034,27.138c13.32,10.479,28.17,19.557,43.538,28.63
					c14.426,10.489,29.839,20.266,45.36,30.608c15.485,10.358,31.98,19.898,47.845,30.991c2.933,1.8,5.862,3.624,8.81,5.485
					c1.362,0.863,2.731,1.73,4.11,2.604l0.426,0.191l-0.042-0.428c-0.002-0.056-0.004-0.001-0.006-0.146l-0.005-1.174l-0.005-2.353
					c0.014-3.142,0.028-6.301,0.043-9.475c0.063-6.349,0.195-12.755,0.394-19.193c2.173-19.949-0.69-40.188,0.967-60.661
					c1.149-20.073-1.424-39.911-1.167-59.435c1.777-19.546,4.318-38.778-0.047-57.667c-0.09-7.829-0.274-16.935-0.322-25.369
					c-0.023-4.217-0.014-8.267,0.059-11.905c0.037-1.819,0.089-3.536,0.16-5.119c0.02-0.396,0.039-0.784,0.057-1.162l0.008-0.142
					c0.002-0.039,0.005-0.022,0.008-0.036l0.016-0.041l0.034-0.089c0.054-0.165,0.105-0.321,0.154-0.467
					c-0.223-0.065-0.417-0.122-0.588-0.172c-0.822-0.094-1.535-0.176-2.164-0.248c-1.293-0.168-2.243-0.344-3.069-0.535
					c-14.661,1.488-36.602,0.479-53.875-1.286c-17.283-1.484-34.169-1.995-50.562-2.344c-16.405-0.065-32.292-1.365-47.698-0.446
					c-30.692-2.792-57.544-4.993-85.448-3.313C118.74,33.335,99.47,30.526,71.14,30.39c-19.756,0.461-38.525-1.365-53.083-2.004
					C3.532,26.96-7.757,26.392-15.416,26.182c-7.658-0.21-11.686-0.055-11.686-0.055c-0.033,1.038,16.088,0.04,45.215,0.478
					c14.529,1.517,32.386,1.116,53.109,1.188c27.036,2.719,44.358-0.497,70.418,1.838c26.125,0.187,58.215,1.869,85.481,2.281
					c12.775,0.611,31.32-0.464,47.674,1.189c16.371,1.021,33.232,2.298,50.584,1.625c17.312,0.567,35.053,1.544,53.209,1.617
					c3.047,0.343,5.325,0.534,10.12,0.719c-0.001,1.353-0.003,2.708-0.005,4.064l0.041,2.929c0.041,1.918,0.106,3.842,0.184,5.771
					c0.179,3.857,0.359,7.734,0.54,11.629c0.345,7.789,0.539,15.649-0.15,23.571c0.83,18.89,2.177,38.121,0.134,57.667
					c2.076,19.524-1.092,39.362,0.134,59.435c-1.777,20.473-0.682,40.713-0.02,60.661c-0.599,6.41-0.871,12.789-0.941,19.13
					c-0.036,3.17-0.021,6.332,0.029,9.483c0.079,4.034,0.158,8.055,0.237,12.061c-2.167-1.367-4.327-2.729-6.482-4.087
					c-1.571-0.962-3.138-1.922-4.701-2.88c-2.982-1.822-5.952-3.635-8.912-5.443c-15.285-11.965-31.571-21.819-47.468-31.558
					c-15.406-10.515-29.905-21.667-45.026-31.11c-15.541-8.812-29.812-18.763-44.03-27.89
					c-13.728-9.891-27.149-19.341-40.982-27.214c-26.438-17.586-50.347-35.131-73.132-49.708
					c-22.689-14.733-43.531-27.611-61.361-39.668C38.76,70.677,23.517,61.57,11.339,52.489
					c-12.389-8.777-22.023-15.58-28.593-20.142c-3.285-2.281-5.803-4.001-7.516-5.127C-26.482,26.095-27.39,25.562-27.454,25.658z"
					/>
			</g>
		</g>
	</g>
	<g clip-path="url(#SVGID_2_)">
		<polygon fill="#2E3192" points="17.836,604.001 17.836,475.083 208.801,475.083 		"/>
		<g>
			<g>
				<path fill-rule="evenodd" clip-rule="evenodd" d="M18.227,604.58c-0.313-0.464,6.245-4.817,17.756-13.17
					c6.36-3.274,13.44-8.31,21.154-14.904c7.757-6.524,17.288-12.9,28.419-19.052c10.877-6.522,21.933-14.941,33.816-23.913
					c6.195-4.113,13.505-7.02,19.021-12.999c7.311-3.31,13.689-8.42,20.07-13.882c7.333-4.053,14.194-9.163,21.441-14.038
					c3.629-2.421,7.122-5.124,10.678-7.81c1.778-1.343,3.572-2.681,5.406-3.977c0.917-0.648,1.845-1.286,2.786-1.908l0.302-0.198
					l0.082-0.046l0.173-0.094l0.411-0.198c0.23-0.373,0.189-0.509,0.122-0.576l-0.807,0.132c-0.08,0.011-0.142,0.015-0.201,0.014
					l-0.246-0.02c-3.43-0.05-6.891-0.192-10.371-0.424c-9.342-2.178-18.82,0.681-28.407-0.98c-9.4-1.154-18.69,1.415-27.833,1.154
					c-9.153-1.782-18.159-4.327-27.005,0.034c-8.848,0.212-21.177,0.971-25.73-0.951c-6.84,1.956-17.125,1.646-25.236,0.435
					c-8.111-0.932-16.023-0.903-23.701-0.729c-2.12,0.127-4.222,0.158-6.305,0.167c-1.038,0.002-2.071,0.003-3.099,0.005
					c-0.508,0.002-1.014,0.007-1.491,0.025c0.015,0.419,0.037,0.834,0.073,1.223l0.029,0.295l0.035,0.619l0.087,1.232
					c0.134,1.64,0.339,3.265,0.655,4.876c-1.811,14.407-3.154,27.009-0.584,40.044c1.709,10.664-0.483,19.725,0.285,32.987
					c1.092,9.24-0.135,18.053-0.309,24.876c-0.961,6.82-1.168,12.112-1.134,15.7c0.034,3.587,0.318,5.47,0.318,5.47
					c1.038,0-0.473-7.531-0.966-21.17c1.053-6.823,0.082-15.175-0.507-24.876c1.854-12.695-1.913-20.754-0.411-32.987
					c-0.647-12.231,0.01-27.276-0.449-40.044c0.047-1.399-0.007-2.944-0.104-4.597c-0.055-0.893-0.112-1.814-0.17-2.76
					c-0.062-1.377-0.125-2.79-0.189-4.23c1.575-0.06,3.183-0.121,4.81-0.182c1.065-0.048,2.099-0.079,3.158-0.083
					c2.108-0.008,4.224,0.095,6.269,0.396c7.678,0.498,15.589,1.236,23.701,0.01c8.112,0.014,16.431,0.425,24.929-0.083
					c8.504,1.521,17.19-1.849,26.038-0.203c8.846-0.826,17.852-2.168,27.005-0.121c9.143-2.072,18.433,1.101,27.833-0.121
					c9.587,1.782,19.065,0.69,28.407,0.034c3.471,0.693,6.922,0.951,10.35,0.965c4.567,0.014,9.43-0.214,15.519-0.491
					c-2.374,1.835-5.042,3.897-8.129,6.194c-1.627,0.914-3.25,1.825-4.87,2.735c-1.002,0.532-1.984,1.088-2.949,1.666
					c-1.93,1.155-3.792,2.392-5.607,3.68c-3.63,2.576-7.072,5.355-10.492,8.084c-7.363,4.703-15.149,8.444-21.779,13.538
					c-6.207,5.722-13.17,9.963-19.574,14.618c-6.917,3.906-13.528,7.845-19.072,12.922c-12.324,8.32-24.587,14.95-34.814,22.436
					c-10.332,7.336-19.376,14.433-27.822,19.937c-9.245,5.006-15.647,10.365-21.992,13.664
					C24.729,600.144,17.97,604.2,18.227,604.58z"/>
			</g>
		</g>
	</g>
	<g clip-path="url(#SVGID_2_)">
		<polygon fill="#2E3192" points="113.777,659.379 387.417,689.379 387.477,476.869 		"/>
		<g>
			<g>
				<path fill-rule="evenodd" clip-rule="evenodd" d="M114.165,659.96c-0.155-0.233,2.206-1.957,6.766-5.136
					c4.565-3.171,11.297-7.847,19.962-13.866c9.241-5.146,19.849-12.475,31.662-21.734c11.854-9.188,26.041-18.59,42.312-28.081
					c16.017-9.863,32.709-21.945,50.635-34.845c9.214-6.075,19.636-11.004,28.376-19.079c10.517-5.394,20.206-12.655,29.98-20.322
					c10.718-6.253,21.051-13.62,31.844-20.8c5.057-3.345,10.013-6.949,15.032-10.567c2.51-1.81,5.035-3.622,7.598-5.407l1.929-1.333
					l2.641-1.785c2.317-1.532,4.639-3.067,6.968-4.606c-0.022,1.455-0.045,2.991-0.068,4.529c0.132,4.179,0.266,8.375,0.399,12.589
					c0.091,3.391,0.141,6.794,0.148,10.212c0.016,6.835-0.135,13.724-0.448,20.665c-2.182,13.865,0.673,27.934-0.992,42.163
					c-1.158,13.952,1.407,27.741,1.143,41.312c-1.786,13.585-4.334,26.952,0.023,40.083c0.208,13.132,0.962,31.432-0.962,38.189
					c0.196,1.02,0.369,2.091,0.521,3.277c0.019,0.148,0.037,0.298,0.056,0.45c0.018,0.251,0.036,0.505,0.054,0.763
					c0.033,0.56,0.067,1.135,0.102,1.727c0.057,1.237,0.116,2.543,0.18,3.933c-1.927-0.101-4.09-0.247-6.364-0.425
					c-1.192-0.059-2.416-0.139-3.662-0.24c-2.492-0.201-5.074-0.48-7.671-0.82c-5.194-0.679-10.451-1.598-15.18-2.603
					c-11.866-2.239-23.542-3.49-34.889-4.559c-11.38-0.786-22.294-2.779-33.066-2.542c-21.059-4.13-39.505-7.503-59.017-7.058
					c-15.919-0.025-29.05-3.67-48.701-5.052c-13.751-0.41-26.62-3.055-36.668-4.331c-9.957-2.059-17.743-3.121-23.04-3.667
					c-5.297-0.546-8.105-0.569-8.105-0.569c-0.113,1.032,11.162,0.748,31.34,2.464c9.952,2.15,22.38,2.536,36.757,3.52
					c18.528,3.897,30.83,1.457,48.714,4.928c18.116,1.335,40.242,4.422,59.13,6.031c8.813,1.17,21.778,0.916,32.985,3.281
					c11.273,1.736,22.865,3.75,34.967,3.843c4.882,0.577,9.815,1.16,14.812,1.751c2.5,0.289,5.015,0.579,7.547,0.872
					c1.268,0.135,2.54,0.271,3.817,0.406c0.728,0.064,1.458,0.129,2.192,0.194c-0.025-0.562-0.051-1.141-0.077-1.73
					c-0.039-1.117-0.078-2.251-0.117-3.389c1.525-12.621-1.842-25.514-0.192-38.646c-0.822-13.13-2.161-26.498-0.109-40.083
					c-2.068-13.571,1.108-27.359-0.109-41.311c1.786-14.229,0.698-28.298,0.045-42.164c0.937-6.941,1.081-13.83,0.906-20.665
					c-0.087-3.418-0.254-6.822-0.441-10.213c-0.097-1.695-0.193-3.387-0.289-5.076l-0.072-1.266l-0.018-0.316
					c-0.006-0.103-0.012-0.234-0.018-0.241l-0.035-0.207l-0.134-0.69c0.094-0.342,0.179-0.751,0.256-1.198
					c-0.341,0.056-0.89,0.286-1.538,0.614c-0.181,0.095-0.288,0.142-0.546,0.292l-1.005,0.609l-1.992,1.237
					c-2.641,1.666-5.221,3.396-7.758,5.165c-5.074,3.538-9.976,7.23-14.843,10.867c-10.909,7.008-22.158,13-32.18,20.298
					c-9.601,7.928-19.87,14.318-29.487,21.062c-10.129,5.994-19.859,11.96-28.428,19.003
					c-18.362,12.244-36.252,22.531-51.624,33.361c-15.477,10.681-29.181,20.806-41.719,28.969
					c-13.489,7.764-23.268,15.318-32.493,20.489c-9.024,5.48-16.024,9.754-20.736,12.705S114.037,659.769,114.165,659.96z"/>
			</g>
		</g>
	</g>
	<g clip-path="url(#SVGID_2_)">
		<polygon fill="#2E3192" points="966.436,594.001 966.436,465.083 775.477,465.083 		"/>
		<g>
			<g>
				<path fill-rule="evenodd" clip-rule="evenodd" d="M966.826,593.423c-0.313,0.464-6.802-3.992-18.853-11.544
					c-5.415-4.675-12.732-9.359-21.732-14.048c-8.951-4.755-18.427-11.211-28.294-19.236c-10.116-7.651-22.057-14.757-34.821-22.424
					c-6.13-4.208-11.559-9.901-19.167-12.783c-5.803-5.543-12.926-9.548-20.378-13.425c-6.5-5.286-13.805-9.739-21.035-14.639
					c-3.602-2.46-7.415-4.689-11.235-6.984c-1.91-1.147-3.822-2.311-5.71-3.527c-0.944-0.608-1.882-1.23-2.811-1.87l-2.251-1.558
					l-2.403-1.702c-3.614-2.223-7.516-4.692-11.596-7.335c2.944-0.067,6.092-0.111,9.329-0.132c1.632-0.005,3.268-0.01,4.908-0.014
					c1.625,0.007,3.255,0.013,4.888,0.02c3.43,0.05,6.891,0.192,10.371,0.424c9.341,2.178,18.82-0.681,28.407,0.98
					c9.4,1.154,18.69-1.415,27.833-1.154c9.153,1.782,18.159,4.327,27.005-0.034c8.848-0.212,21.177-0.971,25.73,0.951
					c6.839-1.956,17.124-1.646,25.236-0.435c8.111,0.932,16.022,0.903,23.7,0.729c2.119-0.127,4.222-0.158,6.304-0.167
					c2.62-0.01,5.214-0.021,7.78-0.031c0.024,1.262,0.049,2.517,0.073,3.766l0.029,0.944l0.035,0.618l0.087,1.233
					c0.134,1.64,0.339,3.265,0.655,4.877c-1.811,14.407-3.154,27.008-0.584,40.043c1.709,10.664-0.483,19.725,0.285,32.987
					c1.092,9.24-0.135,18.052-0.309,24.875c-0.961,6.82-1.168,12.112-1.134,15.7c0.034,3.587,0.318,5.47,0.318,5.47
					c1.038,0-0.473-7.531-0.966-21.17c1.053-6.823,0.082-15.175-0.507-24.875c1.854-12.694-1.913-20.754-0.411-32.987
					c-0.647-12.23,0.01-27.275-0.449-40.043c0.047-1.399-0.007-2.944-0.104-4.598c-0.026-0.414-0.053-0.833-0.08-1.26
					c-0.029-0.387-0.059-0.976-0.09-1.092c-0.062-0.374-0.125-0.757-0.189-1.147c-0.439,0.06-0.888,0.121-1.342,0.182
					c-1.015,0.048-2.084,0.079-3.133,0.083c-2.107,0.008-4.222-0.095-6.268-0.396c-7.678-0.498-15.589-1.236-23.7-0.01
					c-8.112-0.014-16.43-0.425-24.929,0.083c-8.504-1.521-17.189,1.849-26.037,0.203c-8.846,0.826-17.852,2.168-27.005,0.121
					c-9.143,2.072-18.433-1.101-27.833,0.121c-9.587-1.782-19.065-0.69-28.407-0.034c-3.471-0.693-6.922-0.951-10.35-0.965
					c-2.289-0.014-4.236,0.214-4.902,0.491c1.578,0.833,2.802,1.398,3.59,1.718c0.005,0.117,0.066,0.259,0.168,0.42
					c0.051,0.081,0.113,0.166,0.184,0.254l0.113,0.135c0.031,0.041,0.195,0.17,0.287,0.25c0.868,0.73,1.751,1.433,2.647,2.112
					c1.792,1.358,3.636,2.623,5.509,3.825c3.746,2.404,7.61,4.557,11.42,6.709c7.114,5.071,13.495,10.894,20.697,15.139
					c7.627,3.617,14.165,8.49,20.875,12.689c6.208,4.955,12.333,9.614,19.115,12.858c12.324,8.32,23.057,17.215,33.824,23.901
					c10.667,6.84,20.629,12.575,28.892,18.351c8.099,6.703,15.463,10.638,20.894,15.289
					C960.281,589.051,966.569,593.803,966.826,593.423z"/>
			</g>
		</g>
	</g>
	<g clip-path="url(#SVGID_2_)">
		<polygon fill="#2E3192" points="958.499,739.379 586.859,739.379 586.8,476.869 		"/>
		<g>
			<g>
				<path fill-rule="evenodd" clip-rule="evenodd" d="M958.901,738.81c-0.161,0.229-3.415-1.917-9.535-6.099
					c-6.115-4.189-15.131-10.367-26.737-18.318c-10.998-8.801-25.163-18.545-42.127-29.12
					c-16.912-10.637-35.423-23.77-55.252-39.158c-20.083-15.017-42.97-30.211-67.465-46.547
					c-11.988-8.538-23.443-18.685-37.322-26.199c-12.014-10.134-25.567-18.89-39.611-27.638
					c-13.063-10.137-27.108-19.571-41.221-29.556c-14.077-10.001-29.165-19.196-43.558-29.911c-1.784-1.169-3.571-2.341-5.378-3.526
					l-0.338-0.224l-0.157-0.104l-0.031-0.015l-0.12-0.056l-0.21-0.096l-0.324-0.136l0.092,0.657
					c0.012-0.265,0.023,1.031,0.033,1.801l0.024,2.581c0.025,3.445,0.027,6.907,0.004,10.385
					c-0.045,6.955-0.186,13.972-0.422,21.029c-2.174,18.491,0.689,37.251-0.968,56.228c-1.15,18.606,1.423,36.993,1.167,55.091
					c-1.778,18.117-4.319,35.944,0.046,53.452c0.216,17.513,0.98,41.917-0.94,50.929c0.049,0.36,0.1,0.726,0.152,1.104
					c0.023,0.189,0.047,0.382,0.072,0.58l0.035,0.299c0.012,0.087,0.023,0.088,0.035,0.135c0.075,0.223,0.158,0.469,0.256,0.758
					c0.302-0.083,0.539-0.16,0.721-0.23l0.127-0.052l0.611-0.049c0.424-0.03,0.853-0.061,1.286-0.091
					c1.73-0.115,3.523-0.206,5.362-0.274c3.678-0.136,7.54-0.182,11.453-0.152c7.827,0.06,15.858,0.421,23.031,0.962
					c16.056,0.932,31.715,0.903,46.912,0.729c15.2-0.459,29.957,0.333,44.202-1.077c28.517,1.811,53.459,3.153,79.261,0.584
					c21.106-1.709,39.042,0.483,65.292-0.285c18.289-1.092,35.732,0.135,49.237,0.309c13.499,0.961,23.974,1.169,31.075,1.135
					c7.101-0.035,10.828-0.318,10.828-0.318c0-1.038-14.906,0.473-41.903,0.966c-13.505-1.053-30.037-0.082-49.237,0.507
					c-25.127-1.854-41.081,1.913-65.292,0.411c-24.209,0.647-53.988-0.01-79.261,0.449c-11.853-0.203-29.002,1.463-44.202,0.333
					c-15.197-0.498-30.856-1.236-46.912-0.009c-7.294-0.047-14.672-0.094-22.142-0.142c-3.735-0.008-7.493-0.016-11.274-0.024
					c-4.301,0.043-8.63,0.087-12.986,0.131c-0.018-1.079-0.036-2.194-0.054-3.328c-0.021-0.907-0.042-1.829-0.064-2.752
					c1.518-16.832-1.857-34.023-0.214-51.536c-0.83-17.509-2.176-35.335-0.133-53.453c-2.076-18.097,1.093-36.485-0.133-55.091
					c1.778-18.977,0.682-37.738,0.021-56.228c0.709-7.04,0.96-14.04,0.961-20.991c0-3.476-0.062-6.939-0.16-10.39
					c-0.127-4.527-0.253-9.037-0.379-13.529c2.727,1.811,5.431,3.607,8.123,5.395c1.818,1.176,3.627,2.346,5.433,3.513
					c13.789,11.571,28.659,21.074,43.165,30.468c13.993,10.154,27.085,20.938,40.873,30.048
					c14.225,8.492,27.173,18.104,40.123,26.912c12.437,9.558,24.61,18.687,37.27,26.274c24.041,16.979,45.682,33.936,66.437,48.003
					c20.654,14.22,39.667,26.643,55.868,38.286c16.327,12.784,30.25,21.565,41.264,30.342c11.232,8.48,19.969,15.053,25.932,19.458
					C955.582,736.758,958.769,738.997,958.901,738.81z"/>
			</g>
		</g>
	</g>
	<g clip-path="url(#SVGID_2_)">
		<polygon fill="#2E3192" points="966.436,175.691 966.436,304.61 775.477,304.61 		"/>
		<g>
			<g>
				<path fill-rule="evenodd" clip-rule="evenodd" d="M966.045,175.112c0.313,0.465-6.245,4.817-17.755,13.17
					c-6.36,3.274-13.44,8.311-21.153,14.904c-7.757,6.524-17.287,12.9-28.418,19.052c-10.877,6.522-21.933,14.941-33.816,23.913
					c-6.195,4.113-13.504,7.02-19.021,12.999c-7.311,3.31-13.688,8.419-20.07,13.881c-7.333,4.053-14.193,9.163-21.44,14.038
					c-3.628,2.421-7.122,5.124-10.678,7.81c-1.778,1.343-3.572,2.681-5.406,3.978c-0.917,0.648-1.844,1.286-2.785,1.908
					l-0.302,0.198l-0.082,0.047l-0.173,0.093l-0.411,0.198c-0.229,0.373-0.189,0.509-0.122,0.576l0.807-0.132
					c0.08-0.011,0.143-0.015,0.201-0.014l0.246,0.02c3.43,0.05,6.891,0.192,10.371,0.424c9.341,2.178,18.82-0.681,28.407,0.98
					c9.4,1.154,18.69-1.415,27.833-1.154c9.153,1.782,18.159,4.327,27.005-0.034c8.848-0.212,21.177-0.971,25.73,0.951
					c6.839-1.956,17.124-1.646,25.236-0.435c8.111,0.932,16.022,0.903,23.7,0.729c2.119-0.127,4.222-0.158,6.304-0.167
					c1.038-0.001,2.071-0.003,3.099-0.005c0.507-0.002,1.014-0.007,1.491-0.025c-0.015-0.419-0.037-0.834-0.073-1.223l-0.029-0.296
					l-0.035-0.618l-0.087-1.233c-0.134-1.64-0.339-3.265-0.655-4.877c1.811-14.407,3.154-27.008,0.584-40.043
					c-1.709-10.664,0.483-19.725-0.285-32.987c-1.092-9.24,0.135-18.052,0.309-24.875c0.961-6.82,1.168-12.112,1.134-15.7
					c-0.034-3.587-0.318-5.47-0.318-5.47c-1.038,0,0.473,7.531,0.966,21.17c-1.053,6.823-0.082,15.175,0.507,24.875
					c-1.854,12.694,1.913,20.754,0.411,32.987c0.647,12.23-0.01,27.275,0.449,40.043c-0.047,1.399,0.007,2.944,0.104,4.598
					c0.055,0.893,0.112,1.814,0.17,2.76c0.062,1.378,0.125,2.791,0.189,4.231c-1.575,0.06-3.183,0.121-4.809,0.182
					c-1.065,0.048-2.099,0.079-3.158,0.083c-2.107,0.008-4.222-0.095-6.268-0.396c-7.678-0.498-15.589-1.236-23.7-0.009
					c-8.112-0.015-16.43-0.425-24.929,0.082c-8.504-1.521-17.189,1.85-26.037,0.203c-8.846,0.826-17.852,2.168-27.005,0.121
					c-9.143,2.072-18.433-1.101-27.833,0.121c-9.587-1.782-19.065-0.691-28.407-0.034c-3.471-0.693-6.922-0.951-10.35-0.965
					c-4.567-0.014-9.43,0.214-15.519,0.491c2.374-1.835,5.041-3.897,8.128-6.193c1.627-0.914,3.25-1.826,4.87-2.735
					c1.002-0.532,1.984-1.088,2.949-1.666c1.93-1.154,3.792-2.392,5.607-3.679c3.63-2.576,7.072-5.355,10.492-8.084
					c7.363-4.703,15.148-8.444,21.778-13.538c6.206-5.722,13.17-9.963,19.573-14.618c6.917-3.906,13.528-7.846,19.072-12.922
					c12.324-8.32,24.586-14.95,34.813-22.437c10.332-7.336,19.375-14.433,27.821-19.937c9.245-5.006,15.647-10.365,21.991-13.664
					C959.543,179.549,966.302,175.493,966.045,175.112z"/>
			</g>
		</g>
	</g>
	<g clip-path="url(#SVGID_2_)">
		<polygon fill="#2E3192" points="1040.933,-20.923 586.859,110.313 586.8,292.824 		"/>
		<g>
			<g>
				<path fill-rule="evenodd" clip-rule="evenodd" d="M1040.536-21.497c0.159,0.23-3.322,2.787-10.015,7.55
					c-6.698,4.756-16.575,11.769-29.288,20.794c-13.301,8.162-28.856,19.167-46.401,32.685
					c-17.584,13.446-38.307,27.704-61.813,42.569c-23.245,15.231-47.833,33.182-74.223,52.37
					c-13.453,9.224-28.277,17.423-41.505,28.833c-15.044,8.756-29.366,19.46-43.884,30.653
					c-15.484,9.794-30.683,20.775-46.455,31.654c-15.773,10.838-31.169,22.925-47.781,33.856
					c-7.979,5.941-16.122,11.79-24.423,17.546c-4.151,2.878-8.341,5.733-12.572,8.566c-5.213,3.462-10.446,6.938-15.699,10.427
					c-0.653,0.393-1.306,0.787-1.973,1.188c0.173-3.958,0.346-7.921,0.52-11.893c0.112-2.511,0.171-5.027,0.192-7.548
					c0.042-5.041-0.063-10.099-0.177-15.173c-0.229-10.149-0.492-20.363,0.323-30.634c1.161-20.62-1.402-41-1.134-61.057
					c0.894-10.039,1.979-19.998,2.296-29.872c0.159-4.938,0.125-9.854-0.22-14.748c-0.172-2.448-0.423-4.89-0.767-7.326
					c-0.172-1.219-0.367-2.436-0.587-3.651l-0.349-1.822l-0.093-0.455l-0.047-0.228c-0.016-0.081-0.032-0.128-0.048-0.29
					l-0.199-1.692c-0.004-0.762-0.008-1.53-0.013-2.492c2.913-0.876,5.957-1.791,9.077-2.729c2.46-0.748,4.98-1.515,7.517-2.286
					c5.075-1.537,10.222-3.075,15.104-4.467c9.764-2.786,18.469-4.991,23.427-5.445c13.871-6.045,35.631-12.012,53.062-15.788
					c17.353-4.045,34.018-8.892,50.149-13.735c16.056-5.118,31.988-8.898,46.764-14.636c30.865-7.036,57.793-13.421,84.551-23.829
					c21.998-8.137,41.703-11.55,69.438-20.366C962.46-1.644,981.373-5.833,995.8-9.821c14.639-3.231,25.85-6.255,33.401-8.473
					c7.551-2.218,11.44-3.637,11.44-3.637c-0.289-0.998-15.739,5.041-44.346,13.822c-14.671,3.144-32.003,9.164-52.282,15.638
					c-27.268,5.951-43.208,14.478-69.403,20.486c-25.596,8.071-57.483,16.604-84.264,24.822
					c-12.677,3.453-30.473,10.33-46.97,13.922c-16.318,4.199-33.196,8.307-49.949,14.426c-17.099,4.927-34.743,9.599-52.513,15.263
					c-8.959,1.816-17.686,4.779-26.496,7.78c-4.406,1.5-8.832,3.01-13.32,4.39c-2.244,0.69-4.502,1.348-6.781,1.956
					c-2.12,0.562-5.217,1.351-5.46,1.241c-0.035,0.144-0.071,0.292-0.106,0.44l0.039,0.355l0.04,0.861l0.081,1.822l0.165,3.651
					c0.109,2.437,0.218,4.878,0.327,7.326c0.208,4.895,0.388,9.811,0.478,14.748c0.18,9.875,0,19.833-1.027,29.873
					c2.065,20.058-1.114,40.436,0.101,61.057c-0.874,10.27-1.062,20.484-0.95,30.633c0.056,5.074,0.187,10.132,0.345,15.173
					c0.083,2.521,0.167,5.037,0.25,7.548l0.065,1.724l0.065,0.706l0.126,1.179c0.145-0.119,0.286-0.236,0.428-0.353
					c0.268-0.043,0.662-0.188,1.146-0.41c0.109-0.019,0.854-0.48,1.359-0.78l1.642-0.996c2.183-1.335,4.338-2.703,6.469-4.096
					c4.262-2.786,8.429-5.675,12.535-8.619c8.211-5.887,16.176-11.991,24.163-17.923c17.208-10.069,32.818-21.845,48.168-33.295
					c15.89-10.708,32.027-20.331,46.797-31.157c14.34-11.451,29.257-21.292,43.379-31.384c14.65-9.352,28.766-18.576,41.557-28.757
					c26.837-18.541,52.652-34.715,75.236-50.904c22.693-16.042,42.921-31.015,61.207-43.448
					c19.466-12.205,33.967-23.267,47.251-31.453c13.081-8.494,23.232-15.108,30.081-19.646c3.424-2.269,6.023-4.019,7.75-5.225
					C1039.747-20.74,1040.601-21.402,1040.536-21.497z"/>
			</g>
		</g>
	</g>
	<g clip-path="url(#SVGID_2_)">
		<polygon fill="#ED1C24" points="17.836,148.029 17.836,108.021 310.532,302.61 247.412,302.61 		"/>
		<g>
			<g>
				<path fill-rule="evenodd" clip-rule="evenodd" d="M17.447,148.607c0.156-0.232,2.395,1.125,6.587,3.81
					c4.187,2.692,10.361,6.662,18.308,11.771c7.359,5.974,17.054,12.246,28.811,18.777c11.708,6.597,24.322,15.148,37.657,25.49
					c13.582,9.966,29.319,19.607,46.152,29.992c8.165,5.568,15.698,12.666,25.471,16.994c7.969,6.99,17.321,12.483,27.056,17.885
					c8.785,6.812,18.427,12.827,28.048,19.322c2.083,1.416,4.209,2.789,6.378,4.156c1.087,0.679,2.182,1.362,3.285,2.05
					c0.553,0.342,1.108,0.686,1.667,1.03l0.839,0.518l0.328,0.173l0.212-0.026l0.103-0.013l0.287-0.013l1.228-0.051
					c0.82-0.032,1.644-0.063,2.471-0.095c1.654-0.049,3.32-0.098,4.995-0.147c3.351-0.07,6.74-0.075,10.146,0.052
					c6.024-0.353,12.096-0.536,18.217-0.554c3.061-0.009,6.133,0.024,9.217,0.098c1.542,0.047,3.087,0.094,4.635,0.142l0.581,0.022
					l0.145,0.005c0.034,0.002,0.023,0.004,0.037,0.006l0.047,0.012l0.213,0.049l0.551,0.109c0.918,0.368,2.365,0.592,3.728,0.718
					c-0.456-0.49-1.657-1.298-2.751-1.96l-0.817-0.482l-0.198-0.113l-0.406-0.25l-0.834-0.513c-1.114-0.683-2.23-1.366-3.348-2.051
					c-4.465-2.746-8.903-5.589-12.93-9.095c-9.765-7.878-21.47-12.574-31.445-19.519c-9.144-8.219-17.703-16.965-29.908-19.843
					c-9.91-6.333-23.976-14.774-27.952-19.725c-8.653-3.404-19.865-11.229-28.172-18.208c-8.462-6.745-17.234-12.542-25.828-18.046
					c-8.753-5.269-16.567-11.414-25.313-15.536C100,163.442,86.796,153.052,70.947,145.6c-12.749-6.423-21.564-14.916-36.668-24.035
					c-3.318-1.805-6.472-3.761-9.437-5.736c-0.737-0.5-1.467-0.995-2.188-1.483c-0.647-0.448-1.687-1.164-1.54-1.096
					c-0.32-0.292-0.632-0.577-0.932-0.85c-0.047,0.182-0.096,0.402-0.145,0.665c-0.024,0.144-0.048,0.285-0.072,0.424
					c-0.023,0.176-0.046,0.181-0.068,0.821c-0.088,1.972-0.162,3.827-0.195,5.583c-0.961,9.064-1.168,16.098-1.134,20.866
					c0.034,4.768,0.318,7.271,0.318,7.271c1.038,0-0.473-10.009-0.966-28.137c0.207-1.783,0.336-3.644,0.405-5.613
					c0.013-0.435,0.027-0.876,0.041-1.324c0.006-0.414,0.013-0.834,0.02-1.26c0.006-0.851,0-1.731-0.016-2.678
					c1.042,0.663,2.137,1.33,3.369,2.069c1.398,0.836,2.843,1.7,4.33,2.59c3.052,1.811,6.279,3.726,9.647,5.724
					c13.024,10.885,24.03,13.679,36.738,23.931c13.895,8.461,30.183,20.078,44.569,29.091c6.516,4.575,17.027,9.563,24.901,16.155
					c8.222,6.063,16.569,12.5,26.227,17.447c8.97,5.981,17.95,12.443,27.637,18.275c8.57,7.524,20.049,11.108,28.93,18.99
					c10.248,5.821,20.959,11.33,29.957,19.771c11.267,5.002,19.792,14.48,30.873,20.379c3.999,3.548,8.252,6.669,12.623,9.558
					c1.093,0.722,2.193,1.429,3.298,2.125c1.41,0.885,2.817,1.769,4.223,2.651c3.55,2.201,7.089,4.395,10.615,6.581
					c-3.189,0.12-6.328,0.237-9.458,0.354c-2.439-0.187-4.875-0.374-7.304-0.56c-1.548-0.142-3.093-0.242-4.635-0.307
					c-3.084-0.13-6.156-0.122-9.217-0.034c-6.121,0.176-12.193,0.671-18.217,1.012c-3.381-0.42-6.745-0.658-10.09-0.768
					c-1.672-0.055-3.34-0.078-5.002-0.075l-2.489,0.022l-2.922,0.055l-1.19-0.766l-0.825-0.515l-1.652-1.019
					c-1.106-0.669-2.21-1.335-3.31-2c-2.215-1.31-4.417-2.613-6.61-3.909c-9.505-6.668-18.225-14.053-27.711-19.823
					c-9.91-5.141-18.676-11.504-27.552-17.148c-8.375-6.402-16.604-12.467-25.419-17.069c-16.393-11.038-30.924-22.47-45.156-31.471
					c-14.133-9.155-27.233-16.986-38.253-24.604c-10.963-8.616-20.6-14.068-27.975-20.018c-7.585-5.646-13.489-10.017-17.528-12.929
					C19.75,149.87,17.575,148.417,17.447,148.607z"/>
			</g>
		</g>
	</g>
	<g clip-path="url(#SVGID_2_)">
		<polygon fill="#ED1C24" points="-2.164,669.597 58.688,669.671 353.652,475.083 290.532,475.083 		"/>
		<g>
			<g>
				<path fill-rule="evenodd" clip-rule="evenodd" d="M-1.777,670.178c-0.155-0.233,2.245-1.977,6.878-5.194
					c4.639-3.209,11.478-7.941,20.282-14.032c9.378-5.218,20.155-12.635,32.167-21.997c12.052-9.291,26.462-18.809,42.978-28.428
					c16.263-9.99,33.227-22.214,51.442-35.265c9.359-6.15,19.928-11.156,28.826-19.313c10.669-5.473,20.517-12.817,30.456-20.57
					c10.879-6.337,21.379-13.791,32.343-21.06c10.97-7.232,21.481-15.649,33.098-22.83c1.989-1.475,3.996-2.936,6.037-4.392
					c1.024-0.724,2.053-1.451,3.089-2.183c0.521-0.363,1.043-0.727,1.567-1.092c0.762-0.52,1.527-1.042,2.295-1.566
					c2.447-0.018,4.911-0.035,7.389-0.053c2.192,0.016,4.396,0.031,6.611,0.047c4.43,0.065,8.9,0.198,13.392,0.396
					c6.021,0.932,12.081,0.941,18.177,0.777c1.524-0.048,3.051-0.096,4.58-0.144l2.295-0.074l1.149-0.034l1.829-0.03
					c4.996-0.075,10.327-0.1,14.952,0.02c-3.032,1.904-6.208,3.825-9.161,5.486l-3.42,2.047l-2.768,1.71
					c-1.495,0.938-2.963,1.912-4.411,2.911c-2.896,2-5.709,4.101-8.499,6.22c-5.577,4.237-11.053,8.541-16.872,12.223
					c-12.488,6.104-25.212,11.449-33.932,22.425c-11.006,7.515-26.088,18.374-32.871,20.545
					c-7.521,7.305-20.621,15.577-31.486,21.292c-10.711,5.95-20.641,12.535-30.197,19.047c-9.401,6.752-19.21,12.274-27.482,19.42
					c-19.109,10.437-35.69,19.767-50.663,32.723c-12.464,10.271-25.063,15.956-41.313,27.596c-1.164,0.906-2.336,1.787-3.49,2.628
					c-0.579,0.417-1.151,0.828-1.712,1.232c-0.283,0.199-0.562,0.396-0.839,0.591c-0.497,0.338-0.989,0.671-1.474,1.001
					c-1.625,0.009-3.232,0.019-4.819,0.028c-1.332-0.015-2.646-0.03-3.943-0.045c-2.593-0.051-5.114-0.138-7.547-0.235
					c-4.867-0.195-9.384-0.433-13.436-0.506c-10.27-0.974-18.241-1.191-23.644-1.163s-8.239,0.308-8.239,0.308
					c-0.001,1.038,11.343-0.459,31.885-0.927c8.127,0.843,17.712,0.42,28.96-0.075c2.01-1.465,4.403-3.209,6.867-5.006
					c16.981-8.98,25.039-18.809,41.244-27.7c15.02-10.684,34.295-22.613,50.094-33.585c7.64-4.797,17.615-13.374,27.891-18.799
					c9.926-5.952,20.279-11.897,29.801-19.648c10.206-6.715,20.89-13.272,31.294-20.744c11.528-5.783,20.592-15.8,32.622-21.763
					c10.666-8.026,21.249-16.616,33.883-22.498c5.177-4.656,11.122-8.248,17.166-11.778c3.021-1.765,6.068-3.515,9.056-5.374
					c1.494-0.93,2.973-1.887,4.427-2.887l1.017-0.713l0.376-0.315c0.23-0.205,0.416-0.398,0.519-0.558
					c0.967-0.331,2.261-0.948,3.614-1.664c-0.838-0.219-2.651-0.328-4.539-0.36l-1.889-0.01l-2.295,0.016
					c-1.529,0.033-3.056,0.065-4.58,0.098c-6.097,0.181-12.156,0.542-18.177,0.823c-4.472-0.593-8.922-0.867-13.347-0.943
					c-2.212-0.038-4.418-0.026-6.617,0.02c-1.099,0.031-2.197,0.062-3.292,0.093l-1.643,0.062l-0.77,0.035l-0.447,0.036
					c-3.958,2.958-7.868,5.878-11.754,8.783c-12.197,6.308-22.917,14.412-33.475,22.264c-11.079,7.096-22.493,13.173-32.677,20.556
					c-9.765,8.014-20.193,14.486-29.964,21.31c-10.282,6.074-20.162,12.117-28.876,19.237
					c-18.651,12.395-36.81,22.821-52.428,33.781c-15.725,10.81-29.653,21.052-42.387,29.317
					c-13.691,7.87-23.633,15.509-32.995,20.75c-9.162,5.552-16.269,9.881-21.054,12.87S-1.904,669.987-1.777,670.178z"/>
			</g>
		</g>
	</g>
	<g clip-path="url(#SVGID_2_)">
		<polygon fill="#ED1C24" points="966.436,619.664 966.436,659.671 673.745,465.083 736.864,465.083 		"/>
		<g>
			<g>
				<path fill-rule="evenodd" clip-rule="evenodd" d="M966.825,619.085c-0.156,0.232-2.395-1.125-6.587-3.81
					c-4.187-2.692-10.36-6.662-18.307-11.771c-7.359-5.974-17.053-12.246-28.811-18.777c-11.708-6.597-24.322-15.148-37.657-25.49
					c-13.582-9.966-29.318-19.607-46.15-29.992c-8.165-5.568-15.698-12.666-25.471-16.994c-7.969-6.99-17.321-12.484-27.055-17.885
					c-8.785-6.812-18.427-12.827-28.048-19.322c-2.083-1.416-4.209-2.789-6.377-4.156c-1.087-0.679-2.182-1.362-3.285-2.051
					c-0.553-0.342-1.108-0.685-1.667-1.03l-0.839-0.518l-0.328-0.173l-0.212,0.026l-0.103,0.013l-0.287,0.013l-1.228,0.051
					c-0.82,0.032-1.644,0.063-2.471,0.095c-1.654,0.049-3.32,0.098-4.995,0.147c-3.351,0.07-6.74,0.075-10.146-0.052
					c-6.023,0.353-12.096,0.536-18.217,0.554c-3.06,0.009-6.132-0.024-9.216-0.098c-1.542-0.047-3.087-0.094-4.635-0.142
					l-0.581-0.022l-0.145-0.005c-0.034-0.002-0.022-0.004-0.036-0.006l-0.047-0.012l-0.213-0.049l-0.552-0.109
					c-0.918-0.368-2.365-0.592-3.728-0.718c0.456,0.49,1.657,1.298,2.751,1.96l0.817,0.482l0.198,0.113l0.406,0.25l0.834,0.513
					c1.114,0.683,2.23,1.366,3.348,2.051c4.465,2.746,8.904,5.589,12.931,9.095c9.765,7.878,21.469,12.574,31.444,19.519
					c9.144,8.219,17.703,16.965,29.908,19.843c9.91,6.333,23.976,14.774,27.951,19.725c8.653,3.404,19.865,11.229,28.171,18.207
					c8.462,6.745,17.234,12.542,25.828,18.046c8.753,5.269,16.567,11.415,25.313,15.536c14.943,12.109,28.146,22.5,43.996,29.952
					c12.749,6.423,21.564,14.916,36.667,24.036c3.318,1.804,6.471,3.76,9.436,5.736c0.737,0.5,1.467,0.995,2.188,1.483
					c0.648,0.448,1.687,1.164,1.54,1.096c0.32,0.292,0.632,0.576,0.932,0.85c0.047-0.182,0.096-0.402,0.145-0.666
					c0.024-0.143,0.048-0.285,0.072-0.423c0.023-0.176,0.046-0.181,0.068-0.821c0.088-1.973,0.162-3.828,0.195-5.583
					c0.961-9.064,1.168-16.098,1.134-20.866c-0.034-4.768-0.318-7.271-0.318-7.271c-1.038,0,0.473,10.009,0.966,28.137
					c-0.207,1.783-0.336,3.644-0.405,5.613c-0.013,0.435-0.027,0.876-0.041,1.324c-0.006,0.414-0.013,0.834-0.02,1.26
					c-0.006,0.851,0,1.731,0.016,2.678c-1.042-0.663-2.137-1.33-3.369-2.069c-1.398-0.836-2.843-1.7-4.33-2.59
					c-3.052-1.811-6.278-3.725-9.647-5.724c-13.023-10.886-24.03-13.679-36.737-23.931c-13.895-8.46-30.183-20.078-44.568-29.091
					c-6.516-4.576-17.027-9.563-24.901-16.155c-8.222-6.063-16.569-12.5-26.226-17.447c-8.97-5.981-17.949-12.444-27.637-18.275
					c-8.569-7.524-20.049-11.108-28.93-18.99c-10.248-5.822-20.959-11.331-29.956-19.771c-11.267-5.002-19.792-14.48-30.872-20.38
					c-4-3.548-8.253-6.669-12.623-9.557c-1.093-0.722-2.193-1.43-3.298-2.126c-1.41-0.885-2.817-1.769-4.223-2.65
					c-3.55-2.201-7.089-4.395-10.615-6.581c3.189-0.12,6.328-0.237,9.458-0.354c2.439,0.187,4.874,0.374,7.304,0.56
					c1.548,0.142,3.093,0.242,4.635,0.307c3.084,0.13,6.156,0.122,9.216,0.034c6.121-0.176,12.193-0.671,18.217-1.012
					c3.381,0.42,6.745,0.658,10.09,0.768c1.672,0.055,3.34,0.078,5.002,0.075l2.489-0.022l2.922-0.055l1.189,0.766l0.825,0.515
					l1.652,1.019c1.106,0.669,2.209,1.335,3.31,2c2.214,1.31,4.417,2.612,6.61,3.909c9.505,6.668,18.225,14.053,27.71,19.823
					c9.91,5.141,18.676,11.504,27.551,17.148c8.375,6.402,16.604,12.467,25.419,17.069c16.393,11.038,30.923,22.47,45.155,31.471
					c14.133,9.155,27.232,16.986,38.252,24.604c10.963,8.616,20.599,14.068,27.975,20.018c7.585,5.646,13.489,10.017,17.528,12.929
					C964.522,617.822,966.697,619.275,966.825,619.085z"/>
			</g>
		</g>
	</g>
	<g clip-path="url(#SVGID_2_)">
		<polygon fill="#ED1C24" points="966.436,110.095 1006.933,41.077 610.625,304.61 673.745,304.61 		"/>
		<g>
			<g>
				<path fill-rule="evenodd" clip-rule="evenodd" d="M966.049,109.514c0.155,0.233-2.667,2.257-8.103,6.008
					c-5.442,3.743-13.466,9.262-23.794,16.366c-10.901,6.23-23.542,14.886-37.716,25.686
					c-14.214,10.728-31.083,21.881-50.316,33.306c-18.979,11.796-38.918,25.998-60.324,41.168
					c-10.954,7.21-23.171,13.312-33.767,22.597c-12.366,6.601-23.961,15.106-35.689,24.049c-12.67,7.527-25.002,16.198-37.84,24.712
					c-1.391,0.932-2.785,1.866-4.256,2.852l-3.099,0.037l-2.609,0.052c-1.742,0.046-3.488,0.092-5.24,0.138
					c-3.503,0.106-7.025,0.213-10.565,0.32c-7.08,0.201-14.23,0.332-21.437,0.129c-3.391,0.149-6.793,0.269-10.23,0.357
					c-3.211,0.037-6.439,0.074-9.688,0.111c-3.38,0.022-6.783,0.044-10.214,0.066c3.654-2.437,7.335-4.891,11.038-7.361
					c1.828-1.207,3.661-2.417,5.499-3.63c0.978-0.633,1.958-1.269,2.942-1.905c3.94-2.535,7.947-5.049,12.001-7.53
					c14.925-7.309,27.262-18.946,42.261-26.925c14.444-8.219,26.665-19.431,40.236-28.142c14.429-7.455,29.064-14.13,39.641-26.4
					c12.876-8.817,30.563-21.489,38.313-24.335c8.962-8.308,24.237-18.094,36.821-25.006c12.429-7.146,24.031-14.896,35.21-22.538
					c11.023-7.881,22.411-14.502,32.2-22.705c22.161-12.562,41.411-23.75,59.131-38.619c7.357-5.918,14.666-10.634,22.517-15.568
					c3.925-2.467,7.986-4.989,12.257-7.744c1.064-0.693,2.145-1.396,3.243-2.112c1.764-1.174,3.557-2.367,5.382-3.581
					c3.738-2.506,7.643-5.163,12.048-8.208c0.665-0.475,1.329-0.949,1.92-1.371c-2.754,5.164-6.291,11.399-9.836,17.485
					c-0.728,1.242-1.452,2.476-2.171,3.702c-0.486,0.812-0.968,1.617-1.448,2.417c-0.977,1.589-1.939,3.154-2.885,4.692
					c-3.821,6.128-7.5,11.736-10.541,16.751c-6.916,9.887-11.818,17.833-14.991,23.307s-4.608,8.482-4.608,8.482
					c0.896,0.525,6.313-11.695,18.062-32.691c3.412-4.8,6.733-10.397,10.191-16.627c3.335-6.019,7.509-13.868,10.183-19.009
					c-0.28,0.202-0.634,0.456-0.989,0.711c-2.798,1.304-7.993,4.623-11.798,7.236c-3.974,2.726-7.625,5.453-11.248,8.176
					c-7.246,5.445-14.383,10.871-23.781,16.219c-17.604,12.483-40.062,26.628-58.559,39.479
					c-8.907,5.679-20.708,15.528-32.612,22.086c-11.551,7.083-23.578,14.194-34.812,23.137
					c-11.92,7.909-24.364,15.691-36.564,24.413c-13.331,7.038-24.22,18.327-38.125,25.596
					c-12.534,9.326-25.017,19.239-39.593,26.473c-12.28,10.654-27.68,17.084-40.808,27.281
					c-15.066,7.879-28.382,18.044-41.737,27.713c-4.228,2.169-8.295,4.543-12.248,7.046l-2.944,1.9l-1.895,1.27
					c-1.192,0.819-2.285,1.61-3.16,2.281c1.196-0.055,2.331-0.122,3.348-0.196l1.436-0.115l1.315-0.122
					c3.444-0.162,6.873-0.323,10.291-0.484c7.199,0.674,14.342,0.879,21.42,0.837c3.539-0.021,7.062-0.104,10.567-0.22
					c1.753-0.065,3.501-0.131,5.246-0.196l2.612-0.111l1.304-0.058l0.326-0.014c0.093-0.005,0.093-0.01,0.144-0.015l0.224-0.029
					l0.159-0.137l0.076-0.066l0.205-0.151l0.936-0.685c0.622-0.455,1.238-0.906,1.855-1.357
					c12.952-8.341,26.199-15.637,38.174-24.21c11.555-9.204,23.729-16.837,35.198-24.789c11.98-7.202,23.508-14.341,33.818-22.521
					c21.841-14.515,42.975-26.919,61.311-39.684c18.441-12.615,34.83-24.492,49.726-34.194
					c15.936-9.361,27.659-18.184,38.544-24.439c10.686-6.565,18.978-11.681,24.566-15.204
					C963.291,111.634,966.176,109.705,966.049,109.514z"/>
			</g>
		</g>
	</g>
	<g clip-path="url(#SVGID_2_)">
		<g>
			<path fill="none" stroke="#000000" d="M487.297,363.098"/>
		</g>
	</g>
</g>
</svg>
