<?xml version="1.0" encoding="utf-8"?>
<!-- Generator: Adobe Illustrator 16.0.1, SVG Export Plug-In . SVG Version: 6.00 Build 0)  -->
<!DOCTYPE svg PUBLIC "-//W3C//DTD SVG 1.1//EN" "http://www.w3.org/Graphics/SVG/1.1/DTD/svg11.dtd">
<svg version="1.1"
	 id="Layer_1" xmlns:dc="http://purl.org/dc/elements/1.1/" xmlns:cc="http://creativecommons.org/ns#" xmlns:rdf="http://www.w3.org/1999/02/22-rdf-syntax-ns#" xmlns:svg="http://www.w3.org/2000/svg"
	 xmlns="http://www.w3.org/2000/svg" xmlns:xlink="http://www.w3.org/1999/xlink" x="0px" y="0px" width="961.425px"
	 height="707.906px" viewBox="5759.452 274.626 961.425 707.906" enable-background="new 5759.452 274.626 961.425 707.906"
	 xml:space="preserve">
<g id="g329">
	<path id="path331" d="M6710.576,525.988c1.109,75.055,1.695,150.114,3.529,225.147c1.055,42.39,4.082,84.734,6.426,127.086
		c0.66,11.886-1.016,14.904-15.059,19.181c-40.836,12.446-81.855,24.209-122.609,36.934
		c-47.973,14.992-96.783,25.664-146.266,33.434c-65.631,10.308-131.58,18.604-197.857,10.769
		c-35.873-4.24-71.479-12.562-106.592-21.576c-56.277-14.449-113.127-24.514-170.879-28.221
		c-47.316-3.033-94.729-4.303-142.102-6.418c-10.654-0.478-20.195,0.875-29.021,8.809c-9.299,8.377-20.83,4.129-22.664-8.731
		c-3.315-23.144-6.095-46.57-6.479-69.929c-0.744-44.889-0.233-89.812,0.808-134.7c1.592-68.707,3.826-137.404,6.272-206.084
		c1.758-49.08,4.584-98.101-0.696-147.167c-1.047-9.623,0.084-19.61,1.076-29.331c1.295-12.602,10.513-21.018,21.756-16.806
		c32.371,12.125,64.351,3.212,96.604,1.075c93.525-6.19,185.844-2.585,275.375,32.04c24.457,9.458,51.549,13.663,77.742,15.668
		c42.188,3.219,84.846,5.812,126.895,2.627c35.129-2.654,70.01-12.498,104.338-21.817c48.641-13.194,96.438-29.8,145.068-43.049
		c25.658-6.997,51.412-12.422,74.736-26.657c10.926-6.679,20.736,0.648,20.742,13.967c0.041,77.915,0.016,155.824,0.016,233.738
		C6711.355,525.98,6710.969,525.98,6710.576,525.988z M6691.771,301.609c-4.791,2.288-7.631,3.777-10.574,5.018
		c-8.961,3.757-17.725,8.286-26.967,10.905c-14.738,4.164-30.062,6.136-44.689,10.616c-27.814,8.521-55.141,18.791-82.988,27.167
		c-27.85,8.375-55.893,16.322-84.229,22.607c-26.051,5.785-52.525,12.141-78.938,12.844c-43.615,1.166-87.422-0.469-130.934-3.963
		c-25.719-2.062-51.604-7.922-76.35-15.719c-34.75-10.938-68.906-24.677-105.193-27.965c-39.416-3.571-79.053-4.729-118.619-5.825
		c-19.584-0.538-39.754-1.248-58.725,2.854c-27.871,6.012-54.854,7.452-81.889-1.93c-8.062-2.799-8.438,0.345-7.641,7.293
		c1.861,16.288,4.068,32.618,4.48,48.983c0.711,28.719,0.725,57.477,0.016,86.201c-0.746,30.315-2.854,60.6-4.047,90.907
		c-1.475,37.734-3.289,75.478-3.764,113.226c-0.627,50.867-0.275,101.746-0.027,152.619c0.104,23.299,0.973,46.592,1.523,71.233
		c7.416-2.082,12.924-4.797,18.516-4.998c24.65-0.901,49.424-2.645,73.979-1.172c46.412,2.793,92.881,6.205,139.019,11.976
		c36.955,4.633,73.56,12.614,110.144,20.039c35.908,7.284,71.299,18.916,107.494,22.815c37.185,4.006,75.172,2.695,112.631,0.496
		c34.61-2.033,69.078-7.631,103.429-12.932c39.03-6.025,77.405-15.166,115.506-26.381c43.315-12.746,87.504-22.328,129.603-39.402
		c2.86-1.158,6.479-4.061,7.037-6.771c1.192-5.68,0.985-11.795,0.644-17.682c-2.097-35.922-4.89-71.809-6.487-107.758
		c-1.385-31.006-2.021-62.08-2.065-93.121c-0.192-96.859,0.033-193.711,0.108-290.568c0.013-19.856,0-39.709,0-61.617h-0.003
		V301.609z"/>
	<g id="g333">
		<path id="path335" fill="none" d="M6710.576,525.988c1.109,75.055,1.695,150.114,3.529,225.147
			c1.055,42.39,4.082,84.734,6.426,127.086c0.66,11.886-1.016,14.904-15.059,19.181c-40.836,12.446-81.855,24.209-122.609,36.934
			c-47.973,14.992-96.783,25.664-146.266,33.434c-65.631,10.308-131.58,18.604-197.857,10.769
			c-35.873-4.24-71.479-12.562-106.592-21.576c-56.277-14.449-113.127-24.514-170.879-28.221
			c-47.316-3.033-94.729-4.303-142.102-6.418c-10.654-0.478-20.195,0.875-29.021,8.809c-9.299,8.377-20.83,4.129-22.664-8.731
			c-3.315-23.144-6.095-46.57-6.479-69.929c-0.744-44.889-0.233-89.812,0.808-134.7c1.592-68.707,3.826-137.404,6.272-206.084
			c1.758-49.08,4.584-98.101-0.696-147.167c-1.047-9.623,0.084-19.61,1.076-29.331c1.295-12.602,10.513-21.018,21.756-16.806
			c32.371,12.125,64.351,3.212,96.604,1.075c93.525-6.19,185.844-2.585,275.375,32.04c24.457,9.458,51.549,13.663,77.742,15.668
			c42.188,3.219,84.846,5.812,126.895,2.627c35.129-2.654,70.01-12.498,104.338-21.817c48.641-13.194,96.438-29.8,145.068-43.049
			c25.658-6.997,51.412-12.422,74.736-26.657c10.926-6.679,20.736,0.648,20.742,13.967c0.041,77.915,0.016,155.824,0.016,233.738
			C6711.355,525.98,6710.969,525.98,6710.576,525.988z M6691.771,301.609c-4.791,2.288-7.631,3.777-10.574,5.018
			c-8.961,3.757-17.725,8.286-26.967,10.905c-14.738,4.164-30.062,6.136-44.689,10.616c-27.814,8.521-55.141,18.791-82.988,27.167
			c-27.85,8.375-55.893,16.322-84.229,22.607c-26.051,5.785-52.525,12.141-78.938,12.844c-43.615,1.166-87.422-0.469-130.934-3.963
			c-25.719-2.062-51.604-7.922-76.35-15.719c-34.75-10.938-68.906-24.677-105.193-27.965c-39.416-3.571-79.053-4.729-118.619-5.825
			c-19.584-0.538-39.754-1.248-58.725,2.854c-27.871,6.012-54.854,7.452-81.889-1.93c-8.062-2.799-8.438,0.345-7.641,7.293
			c1.861,16.288,4.068,32.618,4.48,48.983c0.711,28.719,0.725,57.477,0.016,86.201c-0.746,30.315-2.854,60.6-4.047,90.907
			c-1.475,37.734-3.289,75.478-3.764,113.226c-0.627,50.867-0.275,101.746-0.027,152.619c0.104,23.299,0.973,46.592,1.523,71.233
			c7.416-2.082,12.924-4.797,18.516-4.998c24.65-0.901,49.424-2.645,73.979-1.172c46.412,2.793,92.881,6.205,139.019,11.976
			c36.955,4.633,73.56,12.614,110.144,20.039c35.908,7.284,71.299,18.916,107.494,22.815c37.185,4.006,75.172,2.695,112.631,0.496
			c34.61-2.033,69.078-7.631,103.429-12.932c39.03-6.025,77.405-15.166,115.506-26.381c43.315-12.746,87.504-22.328,129.603-39.402
			c2.86-1.158,6.479-4.061,7.037-6.771c1.192-5.68,0.985-11.795,0.644-17.682c-2.097-35.922-4.89-71.809-6.487-107.758
			c-1.385-31.006-2.021-62.08-2.065-93.121c-0.192-96.859,0.033-193.711,0.108-290.568c0.013-19.856,0-39.709,0-61.617h-0.003
			V301.609z"/>
		<g id="g337">
			<path id="path339" d="M6691.423,301.609c0.019,0,0.033,0.168,0.049,0.502c0.01,0.334,0.022,0.833,0.041,1.497
				c0.017,1.327,0.039,3.311,0.069,5.933c0.021,5.244,0.056,13.045,0.099,23.272c0.049,20.454,0.119,50.614,0.209,89.437
				c-0.438,38.803-0.351,86.25,0.205,141.326c0.256,27.529,0.373,56.953,0.351,88.143c0.133,15.592,0.269,31.623,0.408,48.082
				c0.224,8.228,0.446,16.562,0.676,24.996c0.11,4.219,0.224,8.465,0.334,12.736c0.14,4.27,0.149,8.572,0.408,12.889
				c0.903,17.271,1.842,34.951,2.897,53.021c0.58,9.03,1.168,18.164,1.763,27.391c0.304,4.613,0.604,9.252,0.91,13.912
				c0.291,4.664,0.662,9.34,0.865,14.063c0.135,4.734,0.08,9.494-1.019,14.259c-0.437,1.194-1.205,2.203-2.078,3.055
				c-0.854,0.885-1.84,1.613-2.871,2.271c-1.03,0.66-2.192,1.142-3.304,1.556l-3.362,1.301c-2.246,0.869-4.496,1.74-6.754,2.613
				c-2.26,0.862-4.506,1.783-6.813,2.545c-4.592,1.594-9.205,3.194-13.84,4.805c-18.647,6.125-37.896,11.504-57.465,16.926
				c-4.899,1.322-9.821,2.65-14.767,3.984c-4.94,1.328-9.908,2.648-14.871,4.055c-9.929,2.793-19.99,5.498-30.104,8.281
				c-20.252,5.514-40.99,10.432-62.104,15.229l-3.98,0.785c-1.33,0.263-2.674,0.441-4.014,0.668
				c-2.682,0.438-5.361,0.873-8.051,1.312c-5.371,0.896-10.764,1.795-16.172,2.697c-10.838,1.649-21.75,3.312-32.734,4.985
				c-5.498,0.816-11.016,1.636-16.547,2.453l-4.154,0.619l-4.174,0.529c-2.785,0.354-5.574,0.711-8.367,1.063
				c-2.795,0.359-5.594,0.722-8.396,1.078l-4.207,0.545c-1.402,0.168-2.816,0.271-4.229,0.406
				c-5.646,0.521-11.312,1.045-16.998,1.57c-22.768,1.428-45.838,2.352-69.201,2.244c-11.684,0.002-23.426-0.527-35.221-1.283
				c-2.941-0.265-5.891-0.525-8.844-0.789l-4.43-0.396c-1.477-0.164-2.945-0.381-4.422-0.567c-2.947-0.394-5.9-0.781-8.857-1.177
				c-2.943-0.463-5.875-1.021-8.82-1.528c-5.896-0.955-11.723-2.322-17.602-3.508c-2.934-0.621-5.848-1.332-8.779-1.994
				c-2.928-0.679-5.865-1.33-8.787-2.052c-11.715-2.801-23.453-5.709-35.289-8.397c-2.953-0.707-5.934-1.279-8.902-1.928
				c-2.979-0.619-5.939-1.283-8.939-1.867c-5.984-1.205-11.984-2.414-17.998-3.625c-12.023-2.402-24.104-4.814-36.234-7.238
				c-6.094-1.051-12.197-2.104-18.316-3.158c-3.061-0.508-6.107-1.116-9.188-1.543c-3.076-0.438-6.154-0.873-9.24-1.311
				c-6.17-0.854-12.332-1.822-18.539-2.597c-6.221-0.692-12.451-1.391-18.693-2.088c-3.121-0.354-6.246-0.707-9.373-1.059
				l-4.695-0.533l-4.707-0.438c-6.281-0.593-12.576-1.185-18.881-1.773c-3.152-0.301-6.309-0.602-9.467-0.902
				c-3.158-0.305-6.328-0.518-9.496-0.782c-6.338-0.517-12.689-1.029-19.053-1.543c-6.348-0.646-12.715-1.148-19.1-1.619
				c-6.385-0.449-12.777-0.9-19.188-1.354c-1.603-0.1-3.205-0.227-4.81-0.303l-4.812-0.148c-3.209-0.094-6.42-0.188-9.633-0.28
				c-3.213-0.152-6.437-0.048-9.658,0.008c-3.224,0.061-6.446,0.119-9.676,0.178c-12.91,0.412-25.869,1.076-38.883,1.607
				c-0.832,0.018-1.58,0.106-2.354,0.172c-0.771,0.053-1.541,0.256-2.312,0.375c-0.771,0.17-1.539,0.381-2.31,0.571l-2.306,0.699
				l-4.635,1.529l-2.345,0.75l-3.25,0.957l-0.474,0.139l-0.233,0.068l-0.06,0.018c-0.01-0.01,0-0.037-0.01-0.057v-0.123
				l-0.021-0.988l-0.041-1.965l-0.045-2.492l-0.078-4.897c-0.041-3.271-0.082-6.539-0.123-9.812
				c-0.223-12.838-0.441-25.639-0.664-38.396c-0.32-12.763-0.414-25.479-0.59-38.152c-0.305-25.35-0.84-50.52-0.564-75.5
				c0.285-12.5,0.566-24.951,0.85-37.35c0.064-3.101,0.127-6.195,0.191-9.289s0.092-6.185,0.244-9.269
				c0.225-6.172,0.449-12.33,0.674-18.475c0.416-12.289,0.689-24.527,0.889-36.719c0.312-12.187,0.467-24.322,0.402-36.414
				c0.754-24.146,2.41-53.064,3.381-79.006c0.275-6.484,0.547-12.787,0.805-18.787c0.25-6,0.602-11.695,0.645-16.978
				c0.229-10.555,0.49-19.418,0.809-25.631c-0.023-2.334-0.055-4.742-0.082-7.215c-0.023-2.475-0.02-5.014-0.121-7.609
				c-0.135-5.192-0.273-10.623-0.42-16.225c-0.109-5.602-0.229-11.375-0.342-17.264c-0.023-1.474-0.051-2.951-0.074-4.439
				l-0.035-2.231l-0.111-2.229c-0.154-2.977-0.309-5.972-0.461-8.98c-0.885-12.039-2.293-24.276-3.621-36.298
				c-0.16-1.493-0.346-3.014-0.406-4.598c-0.039-0.787-0.02-1.614,0.076-2.474c0.139-0.866,0.34-1.842,1.062-2.761
				c0.201-0.213,0.41-0.425,0.629-0.613c0.244-0.153,0.496-0.299,0.75-0.433c0.5-0.187,1.035-0.345,1.494-0.354
				c0.963-0.096,1.785,0.052,2.588,0.199c1.57,0.325,3.035,0.888,4.383,1.321c5.459,1.931,10.965,3.343,16.35,4.4
				c10.781,2.13,21.793,2.592,32.654,2.028c5.434-0.325,10.834-0.905,16.191-1.681c5.365-0.764,10.646-1.848,15.941-2.894
				c10.648-2.151,21.434-2.858,32.088-3.014c10.666-0.14,21.23,0.232,31.711,0.499c5.242,0.134,10.467,0.267,15.67,0.399
				c5.205,0.127,10.391,0.29,15.555,0.496c5.162,0.192,10.309,0.384,15.434,0.575c2.561,0.101,5.117,0.201,7.668,0.302
				c2.551,0.134,5.098,0.268,7.637,0.402c10.158,0.575,20.248,0.917,30.227,1.722c4.996,0.337,9.971,0.673,14.92,1.007
				c4.943,0.291,9.902,0.685,14.812,1.293c19.596,2.946,37.971,8.453,55.664,14.28c17.709,5.828,34.801,12.134,52.066,17.093
				c8.617,2.537,17.301,4.61,25.98,6.521c2.18,0.424,4.359,0.851,6.535,1.273l3.266,0.627l3.281,0.531l6.555,1.047l6.58,0.838
				c2.188,0.309,4.391,0.504,6.588,0.697c2.201,0.188,4.396,0.422,6.602,0.568c4.414,0.261,8.826,0.521,13.244,0.778
				c4.416,0.248,8.836,0.494,13.264,0.74c2.213,0.106,4.426,0.271,6.646,0.323c2.22,0.062,4.438,0.123,6.664,0.185
				c7.271,0.248,14.405,0.49,21.465,0.729c3.526,0.175,7.043,0.152,10.543,0.218c3.502,0.055,6.992,0.106,10.479,0.159
				c3.484,0.062,6.971,0.125,10.457,0.187c1.744,0.022,3.49,0.089,5.234,0.08c1.748-0.017,3.496-0.03,5.248-0.047
				c7.01-0.056,14.066-0.108,21.236-0.166c1.793-0.013,3.592-0.022,5.4-0.035c1.797-0.086,3.602-0.17,5.414-0.254
				c1.812-0.104,3.639-0.133,5.467-0.304c1.828-0.172,3.666-0.346,5.514-0.52c7.396-0.695,14.922-1.869,22.656-3.191
				c3.859-0.721,7.775-1.455,11.748-2.26c3.967-0.842,8.004-1.658,12.1-2.584c8.195-1.807,16.693-3.711,25.471-5.873
				c24.475-6.022,48.188-12.672,70.23-19.207c1.379-0.399,2.754-0.801,4.121-1.196c1.357-0.421,2.711-0.84,4.059-1.257
				c2.689-0.835,5.354-1.663,7.99-2.481c2.639-0.817,5.246-1.626,7.82-2.425c2.576-0.802,5.104-1.667,7.609-2.481
				c10.006-3.314,19.496-6.458,28.34-9.388c2.217-0.717,4.402-1.423,6.557-2.119c2.164-0.667,4.297-1.325,6.398-1.973
				c4.201-1.299,8.275-2.56,12.223-3.78c0.99-0.294,1.955-0.635,2.943-0.886c0.986-0.255,1.965-0.507,2.934-0.758
				c1.939-0.502,3.848-0.995,5.721-1.48c1.865-0.521,3.729-0.877,5.551-1.27c1.818-0.388,3.607-0.769,5.361-1.143
				c7.008-1.512,13.514-2.722,19.35-4.274c1.465-0.363,2.896-0.718,4.291-1.063c0.352-0.087,0.693-0.173,1.041-0.259
				c0.336-0.111,0.67-0.223,1.002-0.333c0.664-0.22,1.318-0.438,1.967-0.652c1.295-0.43,2.557-0.849,3.777-1.256
				c1.199-0.487,2.365-0.962,3.496-1.422c1.133-0.462,2.229-0.911,3.293-1.347c1.051-0.468,2.07-0.921,3.057-1.359
				c1.973-0.876,3.809-1.692,5.506-2.447c1.703-0.754,3.271-1.446,4.699-2.078c1.404-0.658,2.676-1.252,3.809-1.781
				c4.51-2.188,6.805-3.363,6.805-3.363c-0.027-0.059-0.625,0.182-1.781,0.711c-1.146,0.542-2.861,1.352-5.131,2.424
				c-1.131,0.523-2.398,1.111-3.805,1.762c-1.43,0.633-2.996,1.326-4.701,2.08c-1.697,0.762-3.529,1.585-5.498,2.468
				c-0.982,0.443-1.996,0.902-3.045,1.376c-1.061,0.441-2.152,0.896-3.279,1.366c-1.127,0.468-2.287,0.95-3.479,1.446
				c-1.223,0.417-2.477,0.846-3.764,1.285c-0.645,0.221-1.297,0.443-1.959,0.67c-0.33,0.112-0.664,0.227-0.998,0.341
				c-0.344,0.089-0.688,0.179-1.037,0.269c-1.393,0.359-2.816,0.729-4.277,1.105c-5.814,1.612-12.311,2.897-19.297,4.498
				c-1.748,0.396-3.529,0.799-5.348,1.211c-1.812,0.416-3.672,0.796-5.525,1.343c-1.859,0.51-3.758,1.028-5.688,1.556
				c-0.963,0.264-1.936,0.529-2.916,0.798c-0.979,0.264-1.941,0.618-2.928,0.927c-3.926,1.279-7.979,2.6-12.156,3.961
				c-2.09,0.68-4.211,1.37-6.359,2.07c-2.145,0.73-4.314,1.472-6.521,2.223c-8.871,2.855-18.219,5.93-28.035,9.194
				c-2.453,0.815-4.938,1.642-7.451,2.478c-2.523,0.8-5.08,1.609-7.666,2.429c-2.582,0.823-5.193,1.656-7.838,2.5
				c-2.641,0.851-5.312,1.704-8.035,2.5c-21.695,6.614-45.369,13.543-71.133,19.756c-8.457,1.916-16.547,3.642-24.342,5.312
				c-7.789,1.688-15.299,3.244-22.629,4.645c-14.648,2.783-28.648,4.779-42.686,5.191c-7.008,0.143-13.996,0.281-21.059,0.424
				c-3.531,0.062-7.082,0.128-10.662,0.191c-3.582-0.048-7.193-0.095-10.848-0.142c-7.309-0.113-14.783-0.216-22.52-0.416
				c-7.729-0.369-15.719-0.781-24.061-1.25c-8.354-0.24-16.922-0.937-25.686-1.488c-4.379-0.293-8.809-0.59-13.273-0.889
				c-2.234-0.117-4.473-0.402-6.725-0.601c-2.248-0.229-4.516-0.396-6.771-0.729c-2.258-0.299-4.521-0.598-6.799-0.896
				c-2.271-0.324-4.535-0.731-6.812-1.098l-3.42-0.564l-3.41-0.661c-2.274-0.451-4.558-0.902-6.842-1.354
				c-9.106-1.978-18.224-4.267-27.271-6.871c-18.086-5.271-35.871-11.703-53.562-17.262c-17.668-5.585-35.304-10.301-52.551-12.593
				c-8.062-1.183-17.153-1.636-26.812-2.361c-2.416-0.17-4.869-0.342-7.354-0.517c-2.483-0.178-5.002-0.363-7.554-0.458
				c-5.101-0.239-10.312-0.482-15.595-0.729c-10.562-0.573-21.426-0.854-32.26-1.276c-10.838-0.407-21.649-0.814-32.129-1.209
				c-10.479-0.351-21.033-0.808-31.651-0.734c-10.608,0.088-21.324,0.747-31.869,2.876c-5.291,1.044-10.612,2.147-16,2.938
				c-5.385,0.805-10.817,1.428-16.291,1.811c-10.942,0.678-22.069,0.396-33.067-1.498c-5.483-0.994-10.931-2.344-16.244-4.146
				c-1.353-0.415-2.644-0.907-3.933-1.214c-0.324-0.096-0.646-0.144-0.967-0.198c-0.324-0.07-0.638-0.094-0.946-0.105
				c-0.625-0.048-1.205,0.04-1.627,0.265c-0.854,0.385-1.112,1.709-1.135,3.014c-0.024,1.323,0.108,2.703,0.263,4.084
				c0.633,5.572,1.31,11.151,1.905,16.771c0.304,2.807,0.604,5.618,0.908,8.435c0.246,2.823,0.494,5.651,0.742,8.483
				c0.293,2.828,0.396,5.678,0.539,8.526l0.213,4.278c0.071,1.427,0.153,2.854,0.149,4.282c0.076,5.709,0.151,11.438,0.229,17.18
				c0.084,5.74,0.17,11.5,0.256,17.272c0.024,2.89,0.133,5.777,0.101,8.673c-0.021,2.896-0.043,5.795-0.063,8.696
				c-0.166,5.812-0.293,11.633-0.394,17.472c-0.043,2.92-0.086,5.844-0.129,8.771c-0.062,2.926-0.01,5.859-0.16,8.791
				c-0.394,11.732-0.785,23.529-1.183,35.383c-0.345,11.861-0.892,23.75-1.41,35.707c-0.295,5.978-0.592,11.967-0.888,17.974
				c-0.272,6.008-0.578,12.026-0.922,18.061c-0.373,12.074-0.746,24.203-1.123,36.385c-0.252,12.181-0.504,24.412-0.758,36.697
				c-0.151,6.143-0.308,12.297-0.461,18.463c-0.112,3.084-0.101,6.174-0.129,9.267c-0.026,3.094-0.056,6.188-0.084,9.284
				c-0.129,12.396-0.336,24.841-0.646,37.336c0.308,24.968,0.418,50.142,0.297,75.486c-0.035,12.674-0.155,25.396,0.084,38.141
				c0.104,6.375,0.207,12.761,0.312,19.156c0.144,6.396,0.377,12.803,0.61,19.217c0.033,3.273,0.065,6.545,0.103,9.814l0.062,4.9
				l0.033,2.407v0.582v0.3c-0.02,0.077,0.041,0.043,0.086,0.032l0.141-0.039l1.59-0.45l2.32-0.73l4.658-1.514l2.365-0.703
				c0.807-0.195,1.604-0.41,2.416-0.586c0.826-0.125,1.635-0.334,2.477-0.391c0.834-0.064,1.686-0.156,2.482-0.169
				c13.002-0.461,25.971-1.053,38.908-1.438c3.236-0.057,6.473-0.111,9.701-0.168c3.232-0.055,6.461-0.164,9.689-0.021
				c3.229,0.08,6.455,0.162,9.68,0.244l4.834,0.119c1.607,0.064,3.209,0.178,4.814,0.264c6.414,0.369,12.818,0.736,19.211,1.105
				c6.395,0.356,12.775,0.721,19.141,1.188c6.363,0.576,12.715,1.15,19.057,1.724c3.17,0.287,6.34,0.52,9.5,0.838
				c3.162,0.312,6.318,0.621,9.477,0.934c6.312,0.597,12.609,1.189,18.896,1.785l4.715,0.432l4.701,0.525
				c3.133,0.344,6.264,0.689,9.391,1.033c6.256,0.676,12.5,1.35,18.729,2.021c6.225,0.748,12.412,1.695,18.604,2.525
				c3.096,0.428,6.186,0.855,9.271,1.281c3.09,0.418,6.146,1.021,9.215,1.521c6.131,1.052,12.25,2.099,18.355,3.146
				c12.119,2.531,24.188,5.055,36.199,7.562c6.006,1.246,11.998,2.49,17.979,3.73c2.992,0.598,5.975,1.279,8.953,1.912
				c2.979,0.66,5.971,1.246,8.924,1.961c11.854,2.729,23.602,5.646,35.307,8.416c2.924,0.715,5.854,1.356,8.775,2.021
				c2.93,0.648,5.842,1.349,8.77,1.953c5.861,1.15,11.682,2.479,17.553,3.381c2.928,0.515,5.844,1.08,8.77,1.552
				c2.938,0.401,5.865,0.805,8.793,1.206c1.465,0.195,2.924,0.419,4.393,0.593l4.408,0.42c2.938,0.283,5.871,0.563,8.799,0.848
				c11.742,0.834,23.443,1.455,35.102,1.523c23.301,0.246,46.373-0.627,69.082-2.363c5.666-0.535,11.314-1.066,16.945-1.6
				c1.408-0.14,2.814-0.238,4.221-0.406l4.199-0.541c2.799-0.355,5.592-0.713,8.381-1.068c2.789-0.352,5.57-0.701,8.354-1.053
				l4.166-0.521l4.15-0.61c5.527-0.812,11.041-1.623,16.533-2.433c5.496-0.778,10.963-1.664,16.416-2.502
				c5.449-0.86,10.895-1.655,16.295-2.562c5.389-0.945,10.76-1.892,16.109-2.83c2.674-0.474,5.348-0.943,8.01-1.414
				c1.332-0.246,2.67-0.449,3.99-0.73l3.959-0.854c21.188-4.176,41.943-8.937,62.148-14.512c10.098-2.814,20.105-5.603,30.025-8.519
				c4.953-1.465,9.906-2.852,14.832-4.25c4.926-1.401,9.83-2.801,14.713-4.192c19.594-5.326,38.846-10.562,57.488-16.527
				c4.635-1.57,9.246-3.133,13.838-4.688c2.309-0.741,4.553-1.643,6.811-2.485c2.256-0.854,4.506-1.703,6.75-2.554l3.365-1.271
				c1.162-0.43,2.148-0.824,3.105-1.428c0.945-0.595,1.871-1.265,2.641-2.054c0.799-0.76,1.459-1.653,1.787-2.547
				c0.188-0.391,0.25-1.02,0.34-1.586l0.266-1.721c0.076-0.576,0.209-1.143,0.236-1.727l0.104-1.746
				c0.201-2.318,0.111-4.668,0.098-7.002c-2.209-37.679-4.33-73.853-6.354-108.381c-0.305-4.314-0.359-8.619-0.539-12.89
				c-0.154-4.272-0.307-8.521-0.457-12.74c-0.305-8.44-0.602-16.778-0.896-25.008c-0.24-16.469-0.477-32.512-0.701-48.112
				c-0.102-31.189-0.17-60.615-0.117-88.146c0.527-57.158,0.119-102.525,0.541-141.328c0.213-38.822,0.379-68.982,0.49-89.437
				c0.021-10.228,0.041-18.028,0.055-23.272c-0.014-2.622-0.021-4.605-0.027-5.933c-0.012-0.664-0.021-1.163-0.027-1.497
				C6691.449,301.777,6691.438,301.609,6691.423,301.609L6691.423,301.609z"/>
		</g>
		<g id="g341">
			<path id="path343" d="M6710.582,526.335c0-0.022,0.346-0.051,1.158-0.08l0.285-0.01l-0.01-0.271
				c-0.211-7.024-0.207-51.067-0.432-125.354c0.211-20.346,0.287-42.957,0.24-67.702c-0.051-12.373-0.105-25.278-0.162-38.701
				c-0.01-1.678-0.021-3.365-0.24-5.037c-0.133-0.833-0.225-1.676-0.475-2.487l-0.32-1.229l-0.455-1.188
				c-1.197-3.155-3.539-5.999-6.689-7.365l-1.197-0.46l-1.258-0.266c-0.414-0.118-0.848-0.105-1.275-0.133
				c-0.43-0.005-0.855-0.084-1.285-0.008l-1.287,0.132c-0.43,0.051-0.842,0.196-1.266,0.289c-0.854,0.16-1.643,0.55-2.457,0.857
				c-1.562,0.748-3.08,1.666-4.648,2.553c-1.559,0.891-3.123,1.784-4.691,2.683c-1.549,0.944-3.201,1.701-4.852,2.487
				c-1.646,0.787-3.301,1.579-4.961,2.373c-0.82,0.418-1.68,0.763-2.535,1.104c-0.855,0.347-1.715,0.694-2.576,1.043
				c-1.723,0.696-3.449,1.395-5.186,2.097c-3.537,1.21-7.08,2.521-10.701,3.672c-3.639,1.091-7.277,2.304-11.002,3.304
				c-7.418,2.129-15.002,4.082-22.658,6.168c-3.842,0.996-7.666,2.174-11.541,3.272c-3.871,1.115-7.771,2.238-11.695,3.369
				c-15.742,4.396-31.795,9.416-48.328,14.379c-8.271,2.483-16.646,5-25.125,7.547c-4.242,1.269-8.51,2.544-12.807,3.828
				c-4.291,1.294-8.652,2.442-13.02,3.68c-8.727,2.469-17.559,4.967-26.492,7.494c-8.963,2.417-18.025,4.87-27.209,7.272
				c-18.369,4.774-37.277,9.287-56.881,12.172c-2.451,0.346-4.9,0.762-7.373,1.051c-2.475,0.256-4.957,0.512-7.445,0.77
				c-4.971,0.604-9.994,0.797-15.029,1.139c-5.037,0.382-10.107,0.498-15.205,0.664c-2.547,0.066-5.102,0.203-7.66,0.214
				c-2.562,0.016-5.127,0.032-7.699,0.049c-20.58,0.099-41.525-0.772-62.789-2.078c-5.314-0.34-10.648-0.735-16.004-1.164
				c-2.676-0.215-5.357-0.428-8.047-0.644c-2.688-0.252-5.381-0.502-8.08-0.754c-10.783-1.127-21.611-2.672-32.424-4.805
				c-10.814-2.102-21.562-5.012-32.133-8.698c-10.58-3.659-21.061-7.692-31.979-10.743c-21.457-7.164-43.84-12.632-66.795-16.506
				c-22.959-3.883-46.481-6.181-70.326-7.223c-23.824-1.471-48.021-1.59-72.453-0.778c-6.108,0.165-12.229,0.52-18.373,0.774
				c-6.142,0.3-12.291,0.722-18.463,1.078c-12.315,0.768-24.625,2.538-37.086,3.845c-6.229,0.634-12.492,1.143-18.799,1.368
				c-6.308,0.179-12.649,0.002-18.979-0.649c-6.334-0.64-12.604-1.995-18.74-3.828l-4.567-1.508l-2.166-0.664
				c-0.733-0.117-1.465-0.29-2.203-0.349c-2.942-0.226-5.957,0.451-8.383,2.162c-2.431,1.682-4.383,4.092-5.638,6.854
				c-1.291,2.771-1.926,5.755-2.209,8.89c-0.623,6.37-1.28,12.732-1.312,19.088c-0.062,3.188,0.153,6.332,0.444,9.504
				c0.283,3.221,0.565,6.443,0.851,9.67c0.26,3.229,0.608,6.453,0.787,9.693c0.16,3.238,0.317,6.482,0.479,9.73
				c1.473,25.979,1.104,52.225,0.223,78.598c-0.504,13.182-1.008,26.414-1.516,39.696c-0.461,13.283-0.926,26.619-1.393,40.007
				c-2.717,53.448-2.938,107.76-5.438,162.629c-0.441,13.452-0.623,26.873-0.816,40.248c-0.074,6.688-0.146,13.366-0.223,20.03
				c-0.027,3.334-0.059,6.664-0.084,9.992c0.041,3.328,0.082,6.652,0.123,9.975c0.166,13.287,0.332,26.525,0.498,39.718
				c0.033,3.297,0.064,6.592,0.104,9.883l0.043,4.934c0,1.646,0.021,3.287,0.117,4.922c0.139,3.271,0.277,6.541,0.418,9.808
				l0.195,4.896c0.082,1.631,0.248,3.259,0.365,4.886c0.449,6.521,0.736,13.045,1.449,19.526c0.312,3.244,0.621,6.486,0.932,9.728
				c0.316,3.237,0.746,6.463,1.115,9.688c0.396,3.222,0.742,6.465,1.184,9.654c0.461,3.131,1.646,6.195,3.721,8.584
				c1.076,1.135,2.295,2.19,3.754,2.805c0.354,0.183,0.709,0.349,1.096,0.439l1.133,0.342c0.779,0.088,1.561,0.293,2.354,0.229
				c1.59,0.068,3.149-0.362,4.651-0.862c1.463-0.625,2.881-1.383,4.131-2.383c1.274-0.951,2.444-2.101,3.769-3.027
				c1.285-0.98,2.67-1.822,4.076-2.611c2.845-1.53,5.916-2.604,9.062-3.283c3.154-0.646,6.375-0.918,9.584-0.952
				c3.215-0.019,6.41,0.146,9.604,0.215c12.778,0.342,25.508,0.524,38.188,0.49c25.317,0.846,55.629,2.364,82.86,3.719
				c3.401,0.174,6.758,0.346,10.051,0.514c1.646,0.086,3.274,0.172,4.888,0.256c1.61,0.127,3.205,0.252,4.778,0.377
				c6.293,0.521,12.271,0.998,17.795,1.508c5.513,0.648,10.58,1.246,15.084,1.775c2.248,0.281,4.356,0.533,6.304,0.809
				c1.94,0.312,3.726,0.604,5.338,0.863c4.875,0.537,10.058,1.109,15.481,1.707c5.403,0.771,11.054,1.576,16.883,2.406
				c1.457,0.213,2.924,0.43,4.401,0.646c1.474,0.25,2.957,0.5,4.449,0.755c2.981,0.52,6.004,1.045,9.054,1.575
				c3.049,0.543,6.133,1.06,9.226,1.648c3.086,0.621,6.192,1.248,9.313,1.879c3.119,0.637,6.254,1.275,9.396,1.914
				c3.142,0.641,6.26,1.404,9.392,2.104c3.129,0.72,6.256,1.438,9.373,2.152c1.558,0.363,3.11,0.729,4.664,1.09
				c1.545,0.392,3.086,0.779,4.623,1.17c6.144,1.572,12.22,3.129,18.168,4.652c5.931,1.557,11.731,3.076,17.349,4.551
				c11.24,2.906,22.476,5.521,33.666,7.988c11.215,2.338,22.381,4.586,33.558,6.291c11.155,1.828,22.312,3.146,33.405,4.15
				c5.558,0.397,11.088,0.883,16.617,1.069c2.765,0.109,5.521,0.293,8.274,0.342c2.754,0.056,5.504,0.109,8.248,0.166
				c2.744,0.076,5.485,0.017,8.222,0.013c2.735-0.029,5.467,0.004,8.19-0.07c5.449-0.156,10.881-0.229,16.283-0.521
				c10.812-0.416,21.522-1.247,32.14-2.141c21.222-1.949,42.021-4.688,62.353-8.021c20.435-2.791,40.192-5.728,59.42-9.16
				c19.215-3.488,37.899-7.406,56.228-11.795c18.299-4.5,36.224-9.494,53.92-15.06c17.729-5.481,35.39-11.043,53.166-16.768
				c14.556-4.641,28.615-8.902,42.633-13.137c7.015-2.099,14.017-4.189,21.063-6.298c3.521-1.069,7.108-2.026,10.504-3.282
				c3.324-1.287,6.824-2.797,8.31-5.74c1.504-2.938,1.295-6.836,1.155-10.57c-0.207-3.824-0.414-7.686-0.625-11.592
				c-0.431-7.811-0.869-15.805-1.321-24.045c-0.476-8.238-0.963-16.725-1.472-25.521c-0.478-8.801-0.974-17.909-1.485-27.396
				c-0.446-6.604-0.681-13.184-0.953-19.705c-0.248-6.521-0.494-12.988-0.737-19.383c-0.211-12.787-0.418-25.281-0.617-37.342
				c-0.321-24.123-0.619-46.517-0.881-66.06c-0.121-39.069-0.358-69.387-0.668-89.936c-0.289-20.552-0.574-31.332-0.574-31.332
				c-0.063,0.002-0.101,0.678-0.11,2.008c-0.01,1.334,0,3.324,0.039,5.955c0.101,5.266,0.248,13.098,0.442,23.371
				c0.401,20.547,0.996,50.858,1.763,89.92c0.092,19.543,0.476,41.272,0.996,65.061c0.278,11.894,0.567,24.302,0.871,37.209
				c0.211,6.451,0.522,13.023,0.787,19.722c0.289,6.696,0.506,13.52,0.94,20.45c0.349,9.082,0.703,17.752,1.104,26.103
				c0.478,8.346,0.937,16.373,1.383,24.188c0.492,7.81,0.97,15.4,1.438,22.875c0.244,3.734,0.487,7.441,0.729,11.131
				c0.115,1.847,0.265,3.681,0.351,5.525c0.092,1.842,0.146,3.691-0.047,5.545c-0.185,1.838-0.635,3.721-1.681,5.318
				c-1.03,1.604-2.569,2.797-4.183,3.723c-1.617,0.947-3.349,1.641-5.082,2.293c-1.74,0.644-3.508,1.211-5.276,1.756
				c-7.08,2.166-14.235,4.354-21.562,6.597c-14.654,4.459-30.027,8.993-46.846,13.895c-16.748,5.123-34.459,10.539-52.699,16.117
				c-18.23,5.646-37.158,10.918-56.32,15.627c-19.174,4.682-38.592,8.729-57.727,12.324c-4.789,0.869-9.559,1.733-14.295,2.594
				c-4.75,0.787-9.473,1.572-14.154,2.35c-9.369,1.554-18.611,2.947-27.654,4.324c-16.98,2.447-37.771,5.404-59.885,7.594
				c-11.059,1.066-22.441,1.982-33.826,2.451c-5.689,0.301-11.381,0.388-17.023,0.49c-2.818,0.063-5.631-0.006-8.424-0.008
				c-2.793-0.029-5.566-0.013-8.32-0.138c-2.752-0.077-5.508-0.153-8.271-0.229c-2.763-0.068-5.524-0.273-8.295-0.404
				c-5.543-0.229-11.09-0.752-16.66-1.186c-11.123-1.07-22.297-2.439-33.478-4.271c-11.199-1.709-22.39-3.92-33.646-6.153
				c-11.23-2.361-22.521-4.81-33.84-7.457c-11.271-2.814-22.611-5.646-34.023-8.498c-2.855-0.689-5.699-1.451-8.578-2.088
				c-2.875-0.652-5.754-1.306-8.637-1.959c-5.768-1.312-11.543-2.648-17.381-3.787c-2.914-0.597-5.832-1.189-8.754-1.785
				c-2.924-0.59-5.846-1.219-8.793-1.719c-5.889-1.058-11.791-2.115-17.713-3.177c-5.943-0.918-11.904-1.84-17.881-2.762
				l-4.488-0.676l-4.51-0.57c-3.008-0.381-6.02-0.76-9.035-1.141c-24.1-3.438-48.654-5.24-73.508-5.988
				c-24.838-1.008-49.904-2.145-75.219-3.473c-12.664-0.4-25.385-0.806-38.162-1.211c-3.193-0.084-6.408-0.254-9.529-0.238
				c-3.139,0.035-6.252,0.309-9.277,0.939c-3.012,0.663-5.924,1.702-8.615,3.178c-1.332,0.764-2.641,1.569-3.857,2.521l-0.918,0.701
				l-0.881,0.754c-0.555,0.482-1.244,1.043-1.92,1.588c-1.346,1.097-2.896,1.955-4.521,2.662c-1.676,0.588-3.439,1.086-5.277,1.035
				c-0.914,0.072-1.822-0.137-2.73-0.238c-0.443-0.116-0.887-0.252-1.328-0.381c-0.449-0.106-0.869-0.293-1.279-0.498
				c-1.711-0.705-3.146-1.903-4.396-3.201c-2.42-2.713-3.76-6.129-4.304-9.53c-0.492-3.275-0.867-6.461-1.301-9.701
				c-0.403-3.229-0.862-6.455-1.211-9.699c-0.334-3.246-0.668-6.498-1.002-9.752c-0.75-6.496-1.06-13.057-1.494-19.606
				c-3.351-52.427-0.522-105.644-0.229-159.496c2.563-54.875,3.67-109.158,4.972-162.662c0.642-13.381,1.183-26.715,1.649-40
				c0.554-13.283,1.067-26.517,1.481-39.695c0.801-26.357,1.013-52.539-0.449-78.415c-0.127-3.236-0.254-6.472-0.381-9.699
				c-0.146-3.229-0.467-6.441-0.696-9.658c-0.258-3.215-0.515-6.428-0.771-9.635c-0.272-3.234-0.476-6.498-0.39-9.734
				c0.076-6.482,0.778-12.893,1.433-19.258c0.304-3.212,1.002-6.495,2.412-9.471c1.373-2.988,3.524-5.663,6.276-7.551
				c2.742-1.923,6.215-2.705,9.521-2.433c0.828,0.068,1.642,0.257,2.457,0.395l2.356,0.726l4.481,1.481
				c6.021,1.799,12.181,3.128,18.416,3.743c6.231,0.627,12.492,0.782,18.731,0.576c6.24-0.254,12.457-0.795,18.649-1.473
				c12.408-1.273,24.771-2.98,37.172-3.672c6.185-0.316,12.345-0.694,18.496-0.952c6.151-0.213,12.283-0.526,18.403-0.657
				c24.476-0.671,48.694-0.503,72.59,0.657c23.903,0.966,47.485,3.36,70.508,7.265c23.024,3.896,45.479,9.308,67.149,16.113
				c10.853,3.355,21.369,7.613,31.842,11.348c10.451,3.76,21.138,6.678,31.905,8.731c10.765,2.088,21.562,3.534,32.315,4.537
				c2.69,0.219,5.377,0.438,8.06,0.657c2.688,0.181,5.371,0.358,8.047,0.538c5.354,0.359,10.688,0.682,16.004,0.949
				c21.229,1.4,42.127,2.41,62.655,2.459c2.563,0.002,5.125,0.006,7.681,0.008c2.556,0.008,5.101-0.107,7.642-0.156
				c5.082-0.129,10.144-0.209,15.166-0.553c5.022-0.307,10.041-0.463,14.987-1.031c2.479-0.238,4.951-0.477,7.416-0.715
				c2.463-0.271,4.905-0.672,7.353-0.999c19.549-2.753,38.446-7.164,56.808-11.911c9.181-2.389,18.24-4.845,27.194-7.287
				c8.914-2.572,17.728-5.115,26.437-7.628c4.351-1.279,8.694-2.468,12.974-3.803c4.28-1.322,8.537-2.638,12.767-3.943
				c8.457-2.618,16.81-5.202,25.056-7.755c16.502-5.09,32.522-10.208,48.274-14.67c3.929-1.145,7.83-2.281,11.701-3.409
				c3.879-1.109,7.705-2.295,11.554-3.296c7.674-2.099,15.248-4.046,22.642-6.149c3.72-0.99,7.332-2.183,10.957-3.252
				c3.604-1.128,7.117-2.41,10.64-3.59c1.722-0.683,3.438-1.363,5.146-2.041c0.854-0.339,1.707-0.677,2.558-1.014
				c0.854-0.332,1.703-0.667,2.519-1.072c1.647-0.771,3.291-1.538,4.926-2.303c1.638-0.762,3.278-1.493,4.815-2.409
				c1.627-0.892,3.244-1.777,4.851-2.658c0.812-0.442,1.617-0.883,2.422-1.322l1.289-0.682l0.646-0.335l0.686-0.263l1.369-0.519
				c0.471-0.13,0.953-0.232,1.43-0.347l0.715-0.166l0.736-0.069c0.492-0.036,0.979-0.105,1.471-0.106
				c1.98,0.008,3.941,0.497,5.695,1.367c1.758,0.893,3.186,2.248,4.373,3.718c0.535,0.778,1.102,1.538,1.482,2.389
				c0.467,0.813,0.77,1.685,1.084,2.547c0.326,0.859,0.477,1.761,0.715,2.635c0.129,0.891,0.277,1.78,0.359,2.668
				c0.033,0.884,0.098,1.792,0.102,2.647c0,0.852,0,1.699-0.01,2.545c-0.018,13.524-0.029,26.362-0.045,38.599
				c-0.01,24.472,0,46.54-0.203,66.885c-0.402,74.283-0.609,118.326-0.473,125.354l0.01,0.286l-0.299,0.013
				c-0.404,0.014-0.693,0.024-0.883,0.033c-0.196,0.006-0.283,0.016-0.283,0.024h-0.008V526.335z"/>
		</g>
	</g>
</g>
<g id="g345">
	<g>
		<g>
			<defs>
				<path id="SVGID_1_" d="M6691.771,301.609c-4.791,2.288-7.631,3.777-10.574,5.018c-8.961,3.757-17.725,8.286-26.967,10.905
					c-14.738,4.164-30.062,6.136-44.689,10.616c-27.814,8.521-55.141,18.791-82.988,27.167
					c-27.85,8.375-55.893,16.322-84.229,22.607c-26.051,5.785-52.525,12.141-78.938,12.844
					c-43.615,1.166-87.422-0.469-130.934-3.963c-25.719-2.062-51.604-7.922-76.35-15.719
					c-34.75-10.938-68.906-24.677-105.193-27.965c-39.416-3.571-79.053-4.729-118.619-5.825
					c-19.584-0.538-39.754-1.248-58.725,2.854c-27.871,6.012-54.854,7.452-81.889-1.93c-8.062-2.799-8.438,0.345-7.641,7.293
					c1.861,16.288,4.068,32.618,4.48,48.983c0.711,28.719,0.725,57.477,0.016,86.201c-0.746,30.315-2.854,60.6-4.047,90.907
					c-1.475,37.734-3.289,75.478-3.764,113.226c-0.627,50.867-0.275,101.746-0.027,152.619c0.104,23.299,0.973,46.592,1.523,71.233
					c7.416-2.082,12.924-4.797,18.516-4.998c24.65-0.901,49.424-2.645,73.979-1.172c46.412,2.793,92.881,6.205,139.019,11.976
					c36.955,4.633,73.56,12.614,110.144,20.039c35.908,7.284,71.299,18.916,107.494,22.815c37.185,4.006,75.172,2.695,112.631,0.496
					c34.61-2.033,69.078-7.631,103.429-12.932c39.03-6.025,77.405-15.166,115.506-26.381
					c43.315-12.746,87.504-22.328,129.603-39.402c2.86-1.158,6.479-4.061,7.037-6.771c1.192-5.68,0.985-11.795,0.644-17.682
					c-2.097-35.922-4.89-71.809-6.487-107.758c-1.385-31.006-2.021-62.08-2.065-93.121c-0.192-96.859,0.033-193.711,0.108-290.568
					c0.013-19.856,0-39.709,0-61.617h-0.003V301.609z"/>
			</defs>
			<clipPath id="SVGID_2_">
				<use xlink:href="#SVGID_1_"  overflow="visible"/>
			</clipPath>
			<rect id="rect353" x="5747.126" y="302.476" clip-path="url(#SVGID_2_)" fill="#255EAC" width="980.212" height="653.475"/>
		</g>
	</g>
	<g>
		<g>
			<defs>
				<path id="SVGID_3_" d="M6691.771,301.609c-4.791,2.288-7.631,3.777-10.574,5.018c-8.961,3.757-17.725,8.286-26.967,10.905
					c-14.738,4.164-30.062,6.136-44.689,10.616c-27.814,8.521-55.141,18.791-82.988,27.167
					c-27.85,8.375-55.893,16.322-84.229,22.607c-26.051,5.785-52.525,12.141-78.938,12.844
					c-43.615,1.166-87.422-0.469-130.934-3.963c-25.719-2.062-51.604-7.922-76.35-15.719
					c-34.75-10.938-68.906-24.677-105.193-27.965c-39.416-3.571-79.053-4.729-118.619-5.825
					c-19.584-0.538-39.754-1.248-58.725,2.854c-27.871,6.012-54.854,7.452-81.889-1.93c-8.062-2.799-8.438,0.345-7.641,7.293
					c1.861,16.288,4.068,32.618,4.48,48.983c0.711,28.719,0.725,57.477,0.016,86.201c-0.746,30.315-2.854,60.6-4.047,90.907
					c-1.475,37.734-3.289,75.478-3.764,113.226c-0.627,50.867-0.275,101.746-0.027,152.619c0.104,23.299,0.973,46.592,1.523,71.233
					c7.416-2.082,12.924-4.797,18.516-4.998c24.65-0.901,49.424-2.645,73.979-1.172c46.412,2.793,92.881,6.205,139.019,11.976
					c36.955,4.633,73.56,12.614,110.144,20.039c35.908,7.284,71.299,18.916,107.494,22.815c37.185,4.006,75.172,2.695,112.631,0.496
					c34.61-2.033,69.078-7.631,103.429-12.932c39.03-6.025,77.405-15.166,115.506-26.381
					c43.315-12.746,87.504-22.328,129.603-39.402c2.86-1.158,6.479-4.061,7.037-6.771c1.192-5.68,0.985-11.795,0.644-17.682
					c-2.097-35.922-4.89-71.809-6.487-107.758c-1.385-31.006-2.021-62.08-2.065-93.121c-0.192-96.859,0.033-193.711,0.108-290.568
					c0.013-19.856,0-39.709,0-61.617h-0.003V301.609z"/>
			</defs>
			<clipPath id="SVGID_4_">
				<use xlink:href="#SVGID_3_"  overflow="visible"/>
			</clipPath>
			<rect id="rect355" x="5747.126" y="629.214" clip-path="url(#SVGID_4_)" fill="#FED500" width="980.212" height="326.736"/>
		</g>
	</g>
	<g>
		<g>
			<defs>
				<path id="SVGID_5_" d="M6691.771,301.609c-4.791,2.288-7.631,3.777-10.574,5.018c-8.961,3.757-17.725,8.286-26.967,10.905
					c-14.738,4.164-30.062,6.136-44.689,10.616c-27.814,8.521-55.141,18.791-82.988,27.167
					c-27.85,8.375-55.893,16.322-84.229,22.607c-26.051,5.785-52.525,12.141-78.938,12.844
					c-43.615,1.166-87.422-0.469-130.934-3.963c-25.719-2.062-51.604-7.922-76.35-15.719
					c-34.75-10.938-68.906-24.677-105.193-27.965c-39.416-3.571-79.053-4.729-118.619-5.825
					c-19.584-0.538-39.754-1.248-58.725,2.854c-27.871,6.012-54.854,7.452-81.889-1.93c-8.062-2.799-8.438,0.345-7.641,7.293
					c1.861,16.288,4.068,32.618,4.48,48.983c0.711,28.719,0.725,57.477,0.016,86.201c-0.746,30.315-2.854,60.6-4.047,90.907
					c-1.475,37.734-3.289,75.478-3.764,113.226c-0.627,50.867-0.275,101.746-0.027,152.619c0.104,23.299,0.973,46.592,1.523,71.233
					c7.416-2.082,12.924-4.797,18.516-4.998c24.65-0.901,49.424-2.645,73.979-1.172c46.412,2.793,92.881,6.205,139.019,11.976
					c36.955,4.633,73.56,12.614,110.144,20.039c35.908,7.284,71.299,18.916,107.494,22.815c37.185,4.006,75.172,2.695,112.631,0.496
					c34.61-2.033,69.078-7.631,103.429-12.932c39.03-6.025,77.405-15.166,115.506-26.381
					c43.315-12.746,87.504-22.328,129.603-39.402c2.86-1.158,6.479-4.061,7.037-6.771c1.192-5.68,0.985-11.795,0.644-17.682
					c-2.097-35.922-4.89-71.809-6.487-107.758c-1.385-31.006-2.021-62.08-2.065-93.121c-0.192-96.859,0.033-193.711,0.108-290.568
					c0.013-19.856,0-39.709,0-61.617h-0.003V301.609z"/>
			</defs>
			<clipPath id="SVGID_6_">
				<use xlink:href="#SVGID_5_"  overflow="visible"/>
			</clipPath>
			<path id="path357" clip-path="url(#SVGID_6_)" stroke="#000000" stroke-width="0.25" stroke-miterlimit="10" d="
				M6713.841,643.382c-36.896,1.687-73.692,3.705-110.774,4.246c-39.791-0.463-79.601-1.025-119.451-1.199
				c-39.832-0.537-79.674-1.311-119.481-2.666c-48.054-1.131-96.067-3.271-144.11-5.354c-48.047-1.555-96.047-4-144.103-5.506
				c-28.612-1.256-57.285-1.502-85.924-1.953c-28.647-0.26-57.228-0.906-85.826-0.435c-45.483-0.393-90.853,2.773-139.808,3.898
				l-0.424-28.07c23.11-0.203,46.222-0.424,69.334,0.09c45.319,1.308,90.742,0.804,136.056,2.271
				c45.34,0.965,90.67,2.104,136.039,2.932c49.256,2.041,98.61,2.732,147.899,4.576c49.315,1.387,98.642,2.617,147.933,4.479
				c33.617,0.903,67.228,1.957,100.89,1.655c33.576,1.207,67.285-0.33,100.828,0.295c36.01-0.207,71.871-1.414,107.291-2.639
				L6713.841,643.382L6713.841,643.382z"/>
		</g>
	</g>
</g>
</svg>
